<svg width="316" height="252" viewBox="0 0 316 252" fill="none" xmlns="http://www.w3.org/2000/svg">
<path d="M0.66 18V17.19C1.81 16.18 2.755 15.26 3.495 14.43C4.245 13.6 4.8 12.83 5.16 12.12C5.52 11.4 5.7 10.725 5.7 10.095C5.7 9.675 5.625 9.3 5.475 8.97C5.335 8.64 5.115 8.385 4.815 8.205C4.515 8.015 4.135 7.92 3.675 7.92C3.225 7.92 2.805 8.04 2.415 8.28C2.035 8.52 1.695 8.825 1.395 9.195L0.6 8.415C1.04 7.925 1.515 7.535 2.025 7.245C2.535 6.955 3.14 6.81 3.84 6.81C4.5 6.81 5.065 6.945 5.535 7.215C6.015 7.475 6.385 7.85 6.645 8.34C6.915 8.82 7.05 9.385 7.05 10.035C7.05 10.765 6.865 11.505 6.495 12.255C6.135 13.005 5.63 13.77 4.98 14.55C4.34 15.32 3.59 16.11 2.73 16.92C3.02 16.9 3.32 16.88 3.63 16.86C3.95 16.83 4.25 16.815 4.53 16.815H7.575V18H0.66ZM12.2503 18.195C11.6803 18.195 11.1753 18.125 10.7353 17.985C10.3053 17.845 9.92531 17.665 9.59531 17.445C9.27531 17.225 8.98531 16.99 8.72531 16.74L9.41531 15.84C9.62531 16.05 9.85531 16.25 10.1053 16.44C10.3653 16.62 10.6603 16.77 10.9903 16.89C11.3203 17 11.6953 17.055 12.1153 17.055C12.5453 17.055 12.9353 16.95 13.2853 16.74C13.6453 16.53 13.9303 16.23 14.1403 15.84C14.3503 15.45 14.4553 14.99 14.4553 14.46C14.4553 13.68 14.2453 13.07 13.8253 12.63C13.4153 12.18 12.8653 11.955 12.1753 11.955C11.8153 11.955 11.5003 12.01 11.2303 12.12C10.9603 12.23 10.6653 12.39 10.3453 12.6L9.61031 12.135L9.97031 7.005H15.3103V8.175H11.1703L10.8853 11.355C11.1253 11.215 11.3753 11.11 11.6353 11.04C11.9053 10.96 12.2053 10.92 12.5353 10.92C13.1453 10.92 13.7003 11.045 14.2003 11.295C14.7003 11.535 15.1003 11.915 15.4003 12.435C15.7003 12.955 15.8503 13.62 15.8503 14.43C15.8503 15.23 15.6753 15.91 15.3253 16.47C14.9853 17.03 14.5403 17.46 13.9903 17.76C13.4403 18.05 12.8603 18.195 12.2503 18.195ZM17.3306 14.325V13.275H21.1856V14.325H17.3306ZM22.5008 18V17.19C23.6508 16.18 24.5958 15.26 25.3358 14.43C26.0858 13.6 26.6408 12.83 27.0008 12.12C27.3608 11.4 27.5408 10.725 27.5408 10.095C27.5408 9.675 27.4658 9.3 27.3158 8.97C27.1758 8.64 26.9558 8.385 26.6558 8.205C26.3558 8.015 25.9758 7.92 25.5158 7.92C25.0658 7.92 24.6458 8.04 24.2558 8.28C23.8758 8.52 23.5358 8.825 23.2358 9.195L22.4408 8.415C22.8808 7.925 23.3558 7.535 23.8658 7.245C24.3758 6.955 24.9808 6.81 25.6808 6.81C26.3408 6.81 26.9058 6.945 27.3758 7.215C27.8558 7.475 28.2258 7.85 28.4858 8.34C28.7558 8.82 28.8908 9.385 28.8908 10.035C28.8908 10.765 28.7058 11.505 28.3358 12.255C27.9758 13.005 27.4708 13.77 26.8208 14.55C26.1808 15.32 25.4308 16.11 24.5708 16.92C24.8608 16.9 25.1608 16.88 25.4708 16.86C25.7908 16.83 26.0908 16.815 26.3708 16.815H29.4158V18H22.5008ZM33.6861 18.195C33.0861 18.195 32.5661 18.09 32.1261 17.88C31.6961 17.66 31.3311 17.39 31.0311 17.07L31.7811 16.215C32.0211 16.475 32.3011 16.68 32.6211 16.83C32.9511 16.98 33.2911 17.055 33.6411 17.055C34.0111 17.055 34.3611 16.97 34.6911 16.8C35.0211 16.63 35.3111 16.35 35.5611 15.96C35.8211 15.56 36.0211 15.04 36.1611 14.4C36.3111 13.76 36.3861 12.97 36.3861 12.03C36.3861 11.13 36.2911 10.37 36.1011 9.75C35.9211 9.13 35.6511 8.665 35.2911 8.355C34.9311 8.035 34.4961 7.875 33.9861 7.875C33.6361 7.875 33.3211 7.98 33.0411 8.19C32.7611 8.4 32.5361 8.69 32.3661 9.06C32.1961 9.43 32.1111 9.87 32.1111 10.38C32.1111 10.87 32.1811 11.3 32.3211 11.67C32.4711 12.03 32.6911 12.31 32.9811 12.51C33.2811 12.71 33.6461 12.81 34.0761 12.81C34.4461 12.81 34.8311 12.695 35.2311 12.465C35.6411 12.225 36.0311 11.835 36.4011 11.295L36.4611 12.39C36.2411 12.67 35.9861 12.92 35.6961 13.14C35.4161 13.36 35.1161 13.53 34.7961 13.65C34.4861 13.77 34.1711 13.83 33.8511 13.83C33.2411 13.83 32.7061 13.7 32.2461 13.44C31.7961 13.18 31.4461 12.795 31.1961 12.285C30.9461 11.765 30.8211 11.13 30.8211 10.38C30.8211 9.66 30.9661 9.035 31.2561 8.505C31.5461 7.965 31.9261 7.55 32.3961 7.26C32.8761 6.96 33.4011 6.81 33.9711 6.81C34.5011 6.81 34.9911 6.92 35.4411 7.14C35.8911 7.35 36.2811 7.675 36.6111 8.115C36.9411 8.545 37.2011 9.085 37.3911 9.735C37.5811 10.385 37.6761 11.15 37.6761 12.03C37.6761 13.14 37.5661 14.09 37.3461 14.88C37.1261 15.66 36.8261 16.295 36.4461 16.785C36.0661 17.275 35.6361 17.635 35.1561 17.865C34.6861 18.085 34.1961 18.195 33.6861 18.195ZM47.2114 9.465H48.2464C48.2664 10.705 48.3614 11.85 48.5314 12.9C48.7114 13.95 48.9414 14.865 49.2214 15.645C49.5114 16.425 49.8364 17.03 50.1964 17.46C50.5564 17.89 50.9314 18.105 51.3214 18.105C51.4914 18.105 51.6164 17.95 51.6964 17.64C51.7864 17.33 51.8514 16.82 51.8914 16.11C51.9914 16.21 52.1214 16.31 52.2814 16.41C52.4514 16.5 52.6014 16.565 52.7314 16.605C52.6814 17.255 52.6014 17.76 52.4914 18.12C52.3814 18.49 52.2264 18.75 52.0264 18.9C51.8264 19.05 51.5664 19.125 51.2464 19.125C50.7764 19.125 50.3364 18.96 49.9264 18.63C49.5264 18.3 49.1664 17.84 48.8464 17.25C48.5264 16.66 48.2464 15.965 48.0064 15.165C47.7764 14.355 47.5914 13.47 47.4514 12.51C47.3214 11.54 47.2414 10.525 47.2114 9.465ZM48.9364 10.05L49.4914 9.495C49.8314 9.625 50.1764 9.79 50.5264 9.99C50.8864 10.18 51.1664 10.365 51.3664 10.545L50.7814 11.16C50.5914 10.98 50.3164 10.785 49.9564 10.575C49.6064 10.365 49.2664 10.19 48.9364 10.05ZM50.4664 12.69L51.5014 12.915C50.9914 14.335 50.2914 15.57 49.4014 16.62C48.5114 17.67 47.4814 18.53 46.3114 19.2C46.2614 19.13 46.1914 19.045 46.1014 18.945C46.0114 18.845 45.9164 18.745 45.8164 18.645C45.7164 18.555 45.6264 18.475 45.5464 18.405C46.6964 17.835 47.6964 17.06 48.5464 16.08C49.3964 15.1 50.0364 13.97 50.4664 12.69ZM42.4714 14.325L43.3264 14.505C43.1964 14.965 43.0264 15.415 42.8164 15.855C42.6064 16.295 42.3764 16.67 42.1264 16.98C42.0464 16.92 41.9314 16.84 41.7814 16.74C41.6314 16.64 41.5064 16.56 41.4064 16.5C41.6564 16.21 41.8714 15.875 42.0514 15.495C42.2314 15.115 42.3714 14.725 42.4714 14.325ZM40.8064 11.055H52.4614V12H40.8064V11.055ZM41.9764 12.87H46.7614V13.71H41.9764V12.87ZM39.3814 8.775H52.5964V9.735H39.3814V8.775ZM46.2214 6.69L51.2164 6.69V7.56L46.2214 7.56V6.69ZM40.2364 11.055H41.2864V13.575C41.2864 13.995 41.2664 14.45 41.2264 14.94C41.1964 15.43 41.1314 15.93 41.0314 16.44C40.9414 16.94 40.8114 17.43 40.6414 17.91C40.4714 18.39 40.2464 18.83 39.9664 19.23C39.9064 19.17 39.8164 19.105 39.6964 19.035C39.5864 18.965 39.4714 18.895 39.3514 18.825C39.2314 18.765 39.1264 18.72 39.0364 18.69C39.3964 18.18 39.6614 17.625 39.8314 17.025C40.0014 16.425 40.1114 15.825 40.1614 15.225C40.2114 14.625 40.2364 14.07 40.2364 13.56V11.055ZM45.5764 5.4H46.6864V9.24H45.5764V5.4ZM41.7964 6.075H42.8614V9.285H41.7964V6.075ZM46.1164 14.445L47.0464 14.595C46.7164 15.655 46.1214 16.58 45.2614 17.37C44.4014 18.16 43.3364 18.745 42.0664 19.125C42.0064 19.035 41.9264 18.915 41.8264 18.765C41.7364 18.625 41.6514 18.515 41.5714 18.435C42.7614 18.095 43.7564 17.58 44.5564 16.89C45.3564 16.19 45.8764 15.375 46.1164 14.445ZM43.9264 13.425H44.8714V16.755H43.9264V13.425Z" fill="black"/>
<rect y="30" width="316" height="21" fill="#B73418"/>
<path d="M263.31 48.252C262.458 48.252 261.696 48.102 261.024 47.802C260.352 47.502 259.818 47.082 259.422 46.542C259.038 46.002 258.846 45.384 258.846 44.688C258.846 44.112 258.948 43.608 259.152 43.176C259.368 42.732 259.65 42.348 259.998 42.024C260.346 41.7 260.724 41.43 261.132 41.214V41.124C260.628 40.764 260.208 40.326 259.872 39.81C259.536 39.282 259.368 38.67 259.368 37.974C259.368 37.254 259.542 36.63 259.89 36.102C260.238 35.574 260.712 35.166 261.312 34.878C261.924 34.59 262.614 34.446 263.382 34.446C264.174 34.446 264.858 34.596 265.434 34.896C266.01 35.184 266.454 35.592 266.766 36.12C267.09 36.648 267.252 37.272 267.252 37.992C267.252 38.424 267.168 38.832 267 39.216C266.844 39.6 266.634 39.948 266.37 40.26C266.118 40.56 265.842 40.818 265.542 41.034V41.124C265.962 41.34 266.34 41.61 266.676 41.934C267.012 42.258 267.282 42.648 267.486 43.104C267.69 43.548 267.792 44.076 267.792 44.688C267.792 45.36 267.6 45.966 267.216 46.506C266.844 47.046 266.322 47.472 265.65 47.784C264.978 48.096 264.198 48.252 263.31 48.252ZM264.138 40.386C264.462 40.038 264.702 39.678 264.858 39.306C265.014 38.934 265.092 38.55 265.092 38.154C265.092 37.794 265.02 37.476 264.876 37.2C264.744 36.912 264.546 36.69 264.282 36.534C264.018 36.378 263.7 36.3 263.328 36.3C262.872 36.3 262.488 36.444 262.176 36.732C261.864 37.02 261.708 37.434 261.708 37.974C261.708 38.382 261.81 38.736 262.014 39.036C262.23 39.324 262.524 39.576 262.896 39.792C263.268 39.996 263.682 40.194 264.138 40.386ZM263.364 46.38C263.748 46.38 264.084 46.314 264.372 46.182C264.672 46.038 264.906 45.834 265.074 45.57C265.242 45.294 265.326 44.97 265.326 44.598C265.326 44.25 265.248 43.95 265.092 43.698C264.948 43.434 264.744 43.206 264.48 43.014C264.216 42.81 263.904 42.624 263.544 42.456C263.184 42.288 262.788 42.108 262.356 41.916C261.996 42.216 261.702 42.582 261.474 43.014C261.246 43.434 261.132 43.896 261.132 44.4C261.132 44.796 261.228 45.144 261.42 45.444C261.624 45.732 261.894 45.96 262.23 46.128C262.566 46.296 262.944 46.38 263.364 46.38ZM273.531 48.252C272.835 48.252 272.211 48.168 271.659 48C271.107 47.844 270.615 47.628 270.183 47.352C269.763 47.064 269.397 46.746 269.085 46.398L270.327 44.724C270.735 45.096 271.179 45.42 271.659 45.696C272.151 45.96 272.697 46.092 273.297 46.092C273.753 46.092 274.149 46.02 274.485 45.876C274.833 45.732 275.097 45.522 275.277 45.246C275.469 44.97 275.565 44.634 275.565 44.238C275.565 43.794 275.457 43.416 275.241 43.104C275.037 42.78 274.671 42.534 274.143 42.366C273.615 42.198 272.871 42.114 271.911 42.114V40.206C272.727 40.206 273.369 40.122 273.837 39.954C274.305 39.774 274.635 39.534 274.827 39.234C275.031 38.922 275.133 38.568 275.133 38.172C275.133 37.656 274.977 37.254 274.665 36.966C274.353 36.666 273.915 36.516 273.351 36.516C272.883 36.516 272.445 36.624 272.037 36.84C271.641 37.044 271.245 37.326 270.849 37.686L269.481 36.048C270.069 35.556 270.687 35.166 271.335 34.878C271.983 34.578 272.697 34.428 273.477 34.428C274.329 34.428 275.079 34.566 275.727 34.842C276.387 35.118 276.897 35.52 277.257 36.048C277.617 36.576 277.797 37.218 277.797 37.974C277.797 38.694 277.605 39.312 277.221 39.828C276.837 40.344 276.291 40.74 275.583 41.016V41.106C276.075 41.238 276.519 41.454 276.915 41.754C277.323 42.042 277.641 42.408 277.869 42.852C278.109 43.296 278.229 43.812 278.229 44.4C278.229 45.204 278.013 45.894 277.581 46.47C277.161 47.046 276.591 47.49 275.871 47.802C275.163 48.102 274.383 48.252 273.531 48.252ZM282.168 48.252C281.688 48.252 281.292 48.084 280.98 47.748C280.668 47.412 280.512 47.004 280.512 46.524C280.512 46.02 280.668 45.606 280.98 45.282C281.292 44.958 281.688 44.796 282.168 44.796C282.636 44.796 283.026 44.958 283.338 45.282C283.65 45.606 283.806 46.02 283.806 46.524C283.806 47.004 283.65 47.412 283.338 47.748C283.026 48.084 282.636 48.252 282.168 48.252ZM290.398 48.252C289.546 48.252 288.784 48.102 288.112 47.802C287.44 47.502 286.906 47.082 286.51 46.542C286.126 46.002 285.934 45.384 285.934 44.688C285.934 44.112 286.036 43.608 286.24 43.176C286.456 42.732 286.738 42.348 287.086 42.024C287.434 41.7 287.812 41.43 288.22 41.214V41.124C287.716 40.764 287.296 40.326 286.96 39.81C286.624 39.282 286.456 38.67 286.456 37.974C286.456 37.254 286.63 36.63 286.978 36.102C287.326 35.574 287.8 35.166 288.4 34.878C289.012 34.59 289.702 34.446 290.47 34.446C291.262 34.446 291.946 34.596 292.522 34.896C293.098 35.184 293.542 35.592 293.854 36.12C294.178 36.648 294.34 37.272 294.34 37.992C294.34 38.424 294.256 38.832 294.088 39.216C293.932 39.6 293.722 39.948 293.458 40.26C293.206 40.56 292.93 40.818 292.63 41.034V41.124C293.05 41.34 293.428 41.61 293.764 41.934C294.1 42.258 294.37 42.648 294.574 43.104C294.778 43.548 294.88 44.076 294.88 44.688C294.88 45.36 294.688 45.966 294.304 46.506C293.932 47.046 293.41 47.472 292.738 47.784C292.066 48.096 291.286 48.252 290.398 48.252ZM291.226 40.386C291.55 40.038 291.79 39.678 291.946 39.306C292.102 38.934 292.18 38.55 292.18 38.154C292.18 37.794 292.108 37.476 291.964 37.2C291.832 36.912 291.634 36.69 291.37 36.534C291.106 36.378 290.788 36.3 290.416 36.3C289.96 36.3 289.576 36.444 289.264 36.732C288.952 37.02 288.796 37.434 288.796 37.974C288.796 38.382 288.898 38.736 289.102 39.036C289.318 39.324 289.612 39.576 289.984 39.792C290.356 39.996 290.77 40.194 291.226 40.386ZM290.452 46.38C290.836 46.38 291.172 46.314 291.46 46.182C291.76 46.038 291.994 45.834 292.162 45.57C292.33 45.294 292.414 44.97 292.414 44.598C292.414 44.25 292.336 43.95 292.18 43.698C292.036 43.434 291.832 43.206 291.568 43.014C291.304 42.81 290.992 42.624 290.632 42.456C290.272 42.288 289.876 42.108 289.444 41.916C289.084 42.216 288.79 42.582 288.562 43.014C288.334 43.434 288.22 43.896 288.22 44.4C288.22 44.796 288.316 45.144 288.508 45.444C288.712 45.732 288.982 45.96 289.318 46.128C289.654 46.296 290.032 46.38 290.452 46.38Z" fill="white"/>
<rect y="55" width="287.675" height="21" fill="#FFA59B"/>
<path d="M233.348 73C233.408 71.848 233.51 70.786 233.654 69.814C233.798 68.83 234.002 67.906 234.266 67.042C234.53 66.166 234.872 65.308 235.292 64.468C235.724 63.628 236.258 62.77 236.894 61.894H230.9V59.662H239.756V61.282C238.988 62.218 238.364 63.118 237.884 63.982C237.416 64.846 237.056 65.722 236.804 66.61C236.564 67.498 236.384 68.458 236.264 69.49C236.156 70.522 236.072 71.692 236.012 73H233.348ZM246.305 73.252C245.681 73.252 245.075 73.12 244.487 72.856C243.911 72.592 243.401 72.19 242.957 71.65C242.513 71.098 242.159 70.402 241.895 69.562C241.643 68.71 241.517 67.696 241.517 66.52C241.517 65.284 241.655 64.216 241.931 63.316C242.219 62.416 242.603 61.684 243.083 61.12C243.563 60.544 244.109 60.118 244.721 59.842C245.345 59.566 245.999 59.428 246.683 59.428C247.499 59.428 248.201 59.578 248.789 59.878C249.389 60.166 249.887 60.52 250.283 60.94L248.879 62.524C248.651 62.26 248.351 62.032 247.979 61.84C247.607 61.648 247.229 61.552 246.845 61.552C246.305 61.552 245.813 61.708 245.369 62.02C244.937 62.332 244.589 62.848 244.325 63.568C244.061 64.288 243.929 65.272 243.929 66.52C243.929 67.672 244.031 68.596 244.235 69.292C244.451 69.976 244.733 70.474 245.081 70.786C245.429 71.098 245.819 71.254 246.251 71.254C246.587 71.254 246.887 71.164 247.151 70.984C247.427 70.792 247.649 70.516 247.817 70.156C247.985 69.784 248.069 69.328 248.069 68.788C248.069 68.26 247.985 67.828 247.817 67.492C247.661 67.156 247.439 66.904 247.151 66.736C246.875 66.568 246.545 66.484 246.161 66.484C245.801 66.484 245.423 66.598 245.027 66.826C244.631 67.042 244.265 67.426 243.929 67.978L243.803 66.196C244.043 65.86 244.325 65.572 244.649 65.332C244.985 65.092 245.327 64.912 245.675 64.792C246.035 64.672 246.359 64.612 246.647 64.612C247.391 64.612 248.051 64.762 248.627 65.062C249.215 65.362 249.671 65.818 249.995 66.43C250.319 67.042 250.481 67.828 250.481 68.788C250.481 69.7 250.289 70.492 249.905 71.164C249.533 71.824 249.029 72.34 248.393 72.712C247.757 73.072 247.061 73.252 246.305 73.252ZM254.168 73.252C253.688 73.252 253.292 73.084 252.98 72.748C252.668 72.412 252.512 72.004 252.512 71.524C252.512 71.02 252.668 70.606 252.98 70.282C253.292 69.958 253.688 69.796 254.168 69.796C254.636 69.796 255.026 69.958 255.338 70.282C255.65 70.606 255.806 71.02 255.806 71.524C255.806 72.004 255.65 72.412 255.338 72.748C255.026 73.084 254.636 73.252 254.168 73.252ZM263.154 73V64.81C263.154 64.426 263.166 63.97 263.19 63.442C263.214 62.902 263.238 62.434 263.262 62.038H263.172C263.016 62.398 262.848 62.758 262.668 63.118C262.488 63.478 262.302 63.844 262.11 64.216L260.04 67.528H267.204V69.544H257.466V67.744L262.434 59.662H265.62V73H263.154Z" fill="white"/>
<path d="M0.66 106V105.19C1.81 104.18 2.755 103.26 3.495 102.43C4.245 101.6 4.8 100.83 5.16 100.12C5.52 99.4 5.7 98.725 5.7 98.095C5.7 97.675 5.625 97.3 5.475 96.97C5.335 96.64 5.115 96.385 4.815 96.205C4.515 96.015 4.135 95.92 3.675 95.92C3.225 95.92 2.805 96.04 2.415 96.28C2.035 96.52 1.695 96.825 1.395 97.195L0.6 96.415C1.04 95.925 1.515 95.535 2.025 95.245C2.535 94.955 3.14 94.81 3.84 94.81C4.5 94.81 5.065 94.945 5.535 95.215C6.015 95.475 6.385 95.85 6.645 96.34C6.915 96.82 7.05 97.385 7.05 98.035C7.05 98.765 6.865 99.505 6.495 100.255C6.135 101.005 5.63 101.77 4.98 102.55C4.34 103.32 3.59 104.11 2.73 104.92C3.02 104.9 3.32 104.88 3.63 104.86C3.95 104.83 4.25 104.815 4.53 104.815H7.575V106H0.66ZM12.2503 106.195C11.6803 106.195 11.1753 106.125 10.7353 105.985C10.3053 105.845 9.92531 105.665 9.59531 105.445C9.27531 105.225 8.98531 104.99 8.72531 104.74L9.41531 103.84C9.62531 104.05 9.85531 104.25 10.1053 104.44C10.3653 104.62 10.6603 104.77 10.9903 104.89C11.3203 105 11.6953 105.055 12.1153 105.055C12.5453 105.055 12.9353 104.95 13.2853 104.74C13.6453 104.53 13.9303 104.23 14.1403 103.84C14.3503 103.45 14.4553 102.99 14.4553 102.46C14.4553 101.68 14.2453 101.07 13.8253 100.63C13.4153 100.18 12.8653 99.955 12.1753 99.955C11.8153 99.955 11.5003 100.01 11.2303 100.12C10.9603 100.23 10.6653 100.39 10.3453 100.6L9.61031 100.135L9.97031 95.005H15.3103V96.175H11.1703L10.8853 99.355C11.1253 99.215 11.3753 99.11 11.6353 99.04C11.9053 98.96 12.2053 98.92 12.5353 98.92C13.1453 98.92 13.7003 99.045 14.2003 99.295C14.7003 99.535 15.1003 99.915 15.4003 100.435C15.7003 100.955 15.8503 101.62 15.8503 102.43C15.8503 103.23 15.6753 103.91 15.3253 104.47C14.9853 105.03 14.5403 105.46 13.9903 105.76C13.4403 106.05 12.8603 106.195 12.2503 106.195ZM17.3306 102.325V101.275H21.1856V102.325H17.3306ZM22.5008 106V105.19C23.6508 104.18 24.5958 103.26 25.3358 102.43C26.0858 101.6 26.6408 100.83 27.0008 100.12C27.3608 99.4 27.5408 98.725 27.5408 98.095C27.5408 97.675 27.4658 97.3 27.3158 96.97C27.1758 96.64 26.9558 96.385 26.6558 96.205C26.3558 96.015 25.9758 95.92 25.5158 95.92C25.0658 95.92 24.6458 96.04 24.2558 96.28C23.8758 96.52 23.5358 96.825 23.2358 97.195L22.4408 96.415C22.8808 95.925 23.3558 95.535 23.8658 95.245C24.3758 94.955 24.9808 94.81 25.6808 94.81C26.3408 94.81 26.9058 94.945 27.3758 95.215C27.8558 95.475 28.2258 95.85 28.4858 96.34C28.7558 96.82 28.8908 97.385 28.8908 98.035C28.8908 98.765 28.7058 99.505 28.3358 100.255C27.9758 101.005 27.4708 101.77 26.8208 102.55C26.1808 103.32 25.4308 104.11 24.5708 104.92C24.8608 104.9 25.1608 104.88 25.4708 104.86C25.7908 104.83 26.0908 104.815 26.3708 104.815H29.4158V106H22.5008ZM33.6861 106.195C33.0861 106.195 32.5661 106.09 32.1261 105.88C31.6961 105.66 31.3311 105.39 31.0311 105.07L31.7811 104.215C32.0211 104.475 32.3011 104.68 32.6211 104.83C32.9511 104.98 33.2911 105.055 33.6411 105.055C34.0111 105.055 34.3611 104.97 34.6911 104.8C35.0211 104.63 35.3111 104.35 35.5611 103.96C35.8211 103.56 36.0211 103.04 36.1611 102.4C36.3111 101.76 36.3861 100.97 36.3861 100.03C36.3861 99.13 36.2911 98.37 36.1011 97.75C35.9211 97.13 35.6511 96.665 35.2911 96.355C34.9311 96.035 34.4961 95.875 33.9861 95.875C33.6361 95.875 33.3211 95.98 33.0411 96.19C32.7611 96.4 32.5361 96.69 32.3661 97.06C32.1961 97.43 32.1111 97.87 32.1111 98.38C32.1111 98.87 32.1811 99.3 32.3211 99.67C32.4711 100.03 32.6911 100.31 32.9811 100.51C33.2811 100.71 33.6461 100.81 34.0761 100.81C34.4461 100.81 34.8311 100.695 35.2311 100.465C35.6411 100.225 36.0311 99.835 36.4011 99.295L36.4611 100.39C36.2411 100.67 35.9861 100.92 35.6961 101.14C35.4161 101.36 35.1161 101.53 34.7961 101.65C34.4861 101.77 34.1711 101.83 33.8511 101.83C33.2411 101.83 32.7061 101.7 32.2461 101.44C31.7961 101.18 31.4461 100.795 31.1961 100.285C30.9461 99.765 30.8211 99.13 30.8211 98.38C30.8211 97.66 30.9661 97.035 31.2561 96.505C31.5461 95.965 31.9261 95.55 32.3961 95.26C32.8761 94.96 33.4011 94.81 33.9711 94.81C34.5011 94.81 34.9911 94.92 35.4411 95.14C35.8911 95.35 36.2811 95.675 36.6111 96.115C36.9411 96.545 37.2011 97.085 37.3911 97.735C37.5811 98.385 37.6761 99.15 37.6761 100.03C37.6761 101.14 37.5661 102.09 37.3461 102.88C37.1261 103.66 36.8261 104.295 36.4461 104.785C36.0661 105.275 35.6361 105.635 35.1561 105.865C34.6861 106.085 34.1961 106.195 33.6861 106.195ZM47.2114 97.465H48.2464C48.2664 98.705 48.3614 99.85 48.5314 100.9C48.7114 101.95 48.9414 102.865 49.2214 103.645C49.5114 104.425 49.8364 105.03 50.1964 105.46C50.5564 105.89 50.9314 106.105 51.3214 106.105C51.4914 106.105 51.6164 105.95 51.6964 105.64C51.7864 105.33 51.8514 104.82 51.8914 104.11C51.9914 104.21 52.1214 104.31 52.2814 104.41C52.4514 104.5 52.6014 104.565 52.7314 104.605C52.6814 105.255 52.6014 105.76 52.4914 106.12C52.3814 106.49 52.2264 106.75 52.0264 106.9C51.8264 107.05 51.5664 107.125 51.2464 107.125C50.7764 107.125 50.3364 106.96 49.9264 106.63C49.5264 106.3 49.1664 105.84 48.8464 105.25C48.5264 104.66 48.2464 103.965 48.0064 103.165C47.7764 102.355 47.5914 101.47 47.4514 100.51C47.3214 99.54 47.2414 98.525 47.2114 97.465ZM48.9364 98.05L49.4914 97.495C49.8314 97.625 50.1764 97.79 50.5264 97.99C50.8864 98.18 51.1664 98.365 51.3664 98.545L50.7814 99.16C50.5914 98.98 50.3164 98.785 49.9564 98.575C49.6064 98.365 49.2664 98.19 48.9364 98.05ZM50.4664 100.69L51.5014 100.915C50.9914 102.335 50.2914 103.57 49.4014 104.62C48.5114 105.67 47.4814 106.53 46.3114 107.2C46.2614 107.13 46.1914 107.045 46.1014 106.945C46.0114 106.845 45.9164 106.745 45.8164 106.645C45.7164 106.555 45.6264 106.475 45.5464 106.405C46.6964 105.835 47.6964 105.06 48.5464 104.08C49.3964 103.1 50.0364 101.97 50.4664 100.69ZM42.4714 102.325L43.3264 102.505C43.1964 102.965 43.0264 103.415 42.8164 103.855C42.6064 104.295 42.3764 104.67 42.1264 104.98C42.0464 104.92 41.9314 104.84 41.7814 104.74C41.6314 104.64 41.5064 104.56 41.4064 104.5C41.6564 104.21 41.8714 103.875 42.0514 103.495C42.2314 103.115 42.3714 102.725 42.4714 102.325ZM40.8064 99.055H52.4614V100H40.8064V99.055ZM41.9764 100.87H46.7614V101.71H41.9764V100.87ZM39.3814 96.775H52.5964V97.735H39.3814V96.775ZM46.2214 94.69H51.2164V95.56H46.2214V94.69ZM40.2364 99.055H41.2864V101.575C41.2864 101.995 41.2664 102.45 41.2264 102.94C41.1964 103.43 41.1314 103.93 41.0314 104.44C40.9414 104.94 40.8114 105.43 40.6414 105.91C40.4714 106.39 40.2464 106.83 39.9664 107.23C39.9064 107.17 39.8164 107.105 39.6964 107.035C39.5864 106.965 39.4714 106.895 39.3514 106.825C39.2314 106.765 39.1264 106.72 39.0364 106.69C39.3964 106.18 39.6614 105.625 39.8314 105.025C40.0014 104.425 40.1114 103.825 40.1614 103.225C40.2114 102.625 40.2364 102.07 40.2364 101.56V99.055ZM45.5764 93.4H46.6864V97.24H45.5764V93.4ZM41.7964 94.075H42.8614V97.285H41.7964V94.075ZM46.1164 102.445L47.0464 102.595C46.7164 103.655 46.1214 104.58 45.2614 105.37C44.4014 106.16 43.3364 106.745 42.0664 107.125C42.0064 107.035 41.9264 106.915 41.8264 106.765C41.7364 106.625 41.6514 106.515 41.5714 106.435C42.7614 106.095 43.7564 105.58 44.5564 104.89C45.3564 104.19 45.8764 103.375 46.1164 102.445ZM43.9264 101.425H44.8714V104.755H43.9264V101.425Z" fill="black"/>
<rect y="118" width="229.255" height="21" fill="#B73418"/>
<path d="M176.688 136.252C176.064 136.252 175.458 136.12 174.87 135.856C174.294 135.592 173.784 135.19 173.34 134.65C172.896 134.098 172.542 133.402 172.278 132.562C172.026 131.71 171.9 130.696 171.9 129.52C171.9 128.284 172.038 127.216 172.314 126.316C172.602 125.416 172.986 124.684 173.466 124.12C173.946 123.544 174.492 123.118 175.104 122.842C175.728 122.566 176.382 122.428 177.066 122.428C177.882 122.428 178.584 122.578 179.172 122.878C179.772 123.166 180.27 123.52 180.666 123.94L179.262 125.524C179.034 125.26 178.734 125.032 178.362 124.84C177.99 124.648 177.612 124.552 177.228 124.552C176.688 124.552 176.196 124.708 175.752 125.02C175.32 125.332 174.972 125.848 174.708 126.568C174.444 127.288 174.312 128.272 174.312 129.52C174.312 130.672 174.414 131.596 174.618 132.292C174.834 132.976 175.116 133.474 175.464 133.786C175.812 134.098 176.202 134.254 176.634 134.254C176.97 134.254 177.27 134.164 177.534 133.984C177.81 133.792 178.032 133.516 178.2 133.156C178.368 132.784 178.452 132.328 178.452 131.788C178.452 131.26 178.368 130.828 178.2 130.492C178.044 130.156 177.822 129.904 177.534 129.736C177.258 129.568 176.928 129.484 176.544 129.484C176.184 129.484 175.806 129.598 175.41 129.826C175.014 130.042 174.648 130.426 174.312 130.978L174.186 129.196C174.426 128.86 174.708 128.572 175.032 128.332C175.368 128.092 175.71 127.912 176.058 127.792C176.418 127.672 176.742 127.612 177.03 127.612C177.774 127.612 178.434 127.762 179.01 128.062C179.598 128.362 180.054 128.818 180.378 129.43C180.702 130.042 180.864 130.828 180.864 131.788C180.864 132.7 180.672 133.492 180.288 134.164C179.916 134.824 179.412 135.34 178.776 135.712C178.14 136.072 177.444 136.252 176.688 136.252ZM186.927 136.252C186.027 136.252 185.235 135.994 184.551 135.478C183.879 134.95 183.351 134.17 182.967 133.138C182.595 132.094 182.409 130.804 182.409 129.268C182.409 127.744 182.595 126.478 182.967 125.47C183.351 124.45 183.879 123.688 184.551 123.184C185.235 122.68 186.027 122.428 186.927 122.428C187.839 122.428 188.631 122.686 189.303 123.202C189.975 123.706 190.497 124.462 190.869 125.47C191.253 126.478 191.445 127.744 191.445 129.268C191.445 130.804 191.253 132.094 190.869 133.138C190.497 134.17 189.975 134.95 189.303 135.478C188.631 135.994 187.839 136.252 186.927 136.252ZM186.927 134.182C187.323 134.182 187.671 134.032 187.971 133.732C188.271 133.432 188.505 132.928 188.673 132.22C188.841 131.5 188.925 130.516 188.925 129.268C188.925 128.032 188.841 127.066 188.673 126.37C188.505 125.662 188.271 125.17 187.971 124.894C187.671 124.606 187.323 124.462 186.927 124.462C186.555 124.462 186.213 124.606 185.901 124.894C185.601 125.17 185.361 125.662 185.181 126.37C185.001 127.066 184.911 128.032 184.911 129.268C184.911 130.516 185.001 131.5 185.181 132.22C185.361 132.928 185.601 133.432 185.901 133.732C186.213 134.032 186.555 134.182 186.927 134.182ZM195.168 136.252C194.688 136.252 194.292 136.084 193.98 135.748C193.668 135.412 193.512 135.004 193.512 134.524C193.512 134.02 193.668 133.606 193.98 133.282C194.292 132.958 194.688 132.796 195.168 132.796C195.636 132.796 196.026 132.958 196.338 133.282C196.65 133.606 196.806 134.02 196.806 134.524C196.806 135.004 196.65 135.412 196.338 135.748C196.026 136.084 195.636 136.252 195.168 136.252ZM201.436 136C201.496 134.848 201.598 133.786 201.742 132.814C201.886 131.83 202.09 130.906 202.354 130.042C202.618 129.166 202.96 128.308 203.38 127.468C203.812 126.628 204.346 125.77 204.982 124.894H198.988V122.662H207.844V124.282C207.076 125.218 206.452 126.118 205.972 126.982C205.504 127.846 205.144 128.722 204.892 129.61C204.652 130.498 204.472 131.458 204.352 132.49C204.244 133.522 204.16 134.692 204.1 136H201.436Z" fill="white"/>
<rect y="143" width="166.409" height="21" fill="#FFA59B"/>
<path d="M114.066 161V152.81C114.066 152.426 114.078 151.97 114.102 151.442C114.126 150.902 114.15 150.434 114.174 150.038H114.084C113.928 150.398 113.76 150.758 113.58 151.118C113.4 151.478 113.214 151.844 113.022 152.216L110.952 155.528H118.116V157.544H108.378V155.744L113.346 147.662H116.532V161H114.066ZM124.683 161V152.81C124.683 152.426 124.695 151.97 124.719 151.442C124.743 150.902 124.767 150.434 124.791 150.038H124.701C124.545 150.398 124.377 150.758 124.197 151.118C124.017 151.478 123.831 151.844 123.639 152.216L121.569 155.528H128.733V157.544H118.995V155.744L123.963 147.662H127.149V161H124.683ZM132.168 161.252C131.688 161.252 131.292 161.084 130.98 160.748C130.668 160.412 130.512 160.004 130.512 159.524C130.512 159.02 130.668 158.606 130.98 158.282C131.292 157.958 131.688 157.796 132.168 157.796C132.636 157.796 133.026 157.958 133.338 158.282C133.65 158.606 133.806 159.02 133.806 159.524C133.806 160.004 133.65 160.412 133.338 160.748C133.026 161.084 132.636 161.252 132.168 161.252ZM136.564 161V158.84H139.444V150.434H137.014V148.778C137.686 148.658 138.262 148.514 138.742 148.346C139.234 148.166 139.69 147.938 140.11 147.662H142.072V158.84H144.574V161H136.564Z" fill="white"/>
<path d="M0.66 194V193.19C1.81 192.18 2.755 191.26 3.495 190.43C4.245 189.6 4.8 188.83 5.16 188.12C5.52 187.4 5.7 186.725 5.7 186.095C5.7 185.675 5.625 185.3 5.475 184.97C5.335 184.64 5.115 184.385 4.815 184.205C4.515 184.015 4.135 183.92 3.675 183.92C3.225 183.92 2.805 184.04 2.415 184.28C2.035 184.52 1.695 184.825 1.395 185.195L0.6 184.415C1.04 183.925 1.515 183.535 2.025 183.245C2.535 182.955 3.14 182.81 3.84 182.81C4.5 182.81 5.065 182.945 5.535 183.215C6.015 183.475 6.385 183.85 6.645 184.34C6.915 184.82 7.05 185.385 7.05 186.035C7.05 186.765 6.865 187.505 6.495 188.255C6.135 189.005 5.63 189.77 4.98 190.55C4.34 191.32 3.59 192.11 2.73 192.92C3.02 192.9 3.32 192.88 3.63 192.86C3.95 192.83 4.25 192.815 4.53 192.815H7.575V194H0.66ZM12.2503 194.195C11.6803 194.195 11.1753 194.125 10.7353 193.985C10.3053 193.845 9.92531 193.665 9.59531 193.445C9.27531 193.225 8.98531 192.99 8.72531 192.74L9.41531 191.84C9.62531 192.05 9.85531 192.25 10.1053 192.44C10.3653 192.62 10.6603 192.77 10.9903 192.89C11.3203 193 11.6953 193.055 12.1153 193.055C12.5453 193.055 12.9353 192.95 13.2853 192.74C13.6453 192.53 13.9303 192.23 14.1403 191.84C14.3503 191.45 14.4553 190.99 14.4553 190.46C14.4553 189.68 14.2453 189.07 13.8253 188.63C13.4153 188.18 12.8653 187.955 12.1753 187.955C11.8153 187.955 11.5003 188.01 11.2303 188.12C10.9603 188.23 10.6653 188.39 10.3453 188.6L9.61031 188.135L9.97031 183.005H15.3103V184.175H11.1703L10.8853 187.355C11.1253 187.215 11.3753 187.11 11.6353 187.04C11.9053 186.96 12.2053 186.92 12.5353 186.92C13.1453 186.92 13.7003 187.045 14.2003 187.295C14.7003 187.535 15.1003 187.915 15.4003 188.435C15.7003 188.955 15.8503 189.62 15.8503 190.43C15.8503 191.23 15.6753 191.91 15.3253 192.47C14.9853 193.03 14.5403 193.46 13.9903 193.76C13.4403 194.05 12.8603 194.195 12.2503 194.195ZM17.3306 190.325V189.275H21.1856V190.325H17.3306ZM22.5008 194V193.19C23.6508 192.18 24.5958 191.26 25.3358 190.43C26.0858 189.6 26.6408 188.83 27.0008 188.12C27.3608 187.4 27.5408 186.725 27.5408 186.095C27.5408 185.675 27.4658 185.3 27.3158 184.97C27.1758 184.64 26.9558 184.385 26.6558 184.205C26.3558 184.015 25.9758 183.92 25.5158 183.92C25.0658 183.92 24.6458 184.04 24.2558 184.28C23.8758 184.52 23.5358 184.825 23.2358 185.195L22.4408 184.415C22.8808 183.925 23.3558 183.535 23.8658 183.245C24.3758 182.955 24.9808 182.81 25.6808 182.81C26.3408 182.81 26.9058 182.945 27.3758 183.215C27.8558 183.475 28.2258 183.85 28.4858 184.34C28.7558 184.82 28.8908 185.385 28.8908 186.035C28.8908 186.765 28.7058 187.505 28.3358 188.255C27.9758 189.005 27.4708 189.77 26.8208 190.55C26.1808 191.32 25.4308 192.11 24.5708 192.92C24.8608 192.9 25.1608 192.88 25.4708 192.86C25.7908 192.83 26.0908 192.815 26.3708 192.815H29.4158V194H22.5008ZM33.6861 194.195C33.0861 194.195 32.5661 194.09 32.1261 193.88C31.6961 193.66 31.3311 193.39 31.0311 193.07L31.7811 192.215C32.0211 192.475 32.3011 192.68 32.6211 192.83C32.9511 192.98 33.2911 193.055 33.6411 193.055C34.0111 193.055 34.3611 192.97 34.6911 192.8C35.0211 192.63 35.3111 192.35 35.5611 191.96C35.8211 191.56 36.0211 191.04 36.1611 190.4C36.3111 189.76 36.3861 188.97 36.3861 188.03C36.3861 187.13 36.2911 186.37 36.1011 185.75C35.9211 185.13 35.6511 184.665 35.2911 184.355C34.9311 184.035 34.4961 183.875 33.9861 183.875C33.6361 183.875 33.3211 183.98 33.0411 184.19C32.7611 184.4 32.5361 184.69 32.3661 185.06C32.1961 185.43 32.1111 185.87 32.1111 186.38C32.1111 186.87 32.1811 187.3 32.3211 187.67C32.4711 188.03 32.6911 188.31 32.9811 188.51C33.2811 188.71 33.6461 188.81 34.0761 188.81C34.4461 188.81 34.8311 188.695 35.2311 188.465C35.6411 188.225 36.0311 187.835 36.4011 187.295L36.4611 188.39C36.2411 188.67 35.9861 188.92 35.6961 189.14C35.4161 189.36 35.1161 189.53 34.7961 189.65C34.4861 189.77 34.1711 189.83 33.8511 189.83C33.2411 189.83 32.7061 189.7 32.2461 189.44C31.7961 189.18 31.4461 188.795 31.1961 188.285C30.9461 187.765 30.8211 187.13 30.8211 186.38C30.8211 185.66 30.9661 185.035 31.2561 184.505C31.5461 183.965 31.9261 183.55 32.3961 183.26C32.8761 182.96 33.4011 182.81 33.9711 182.81C34.5011 182.81 34.9911 182.92 35.4411 183.14C35.8911 183.35 36.2811 183.675 36.6111 184.115C36.9411 184.545 37.2011 185.085 37.3911 185.735C37.5811 186.385 37.6761 187.15 37.6761 188.03C37.6761 189.14 37.5661 190.09 37.3461 190.88C37.1261 191.66 36.8261 192.295 36.4461 192.785C36.0661 193.275 35.6361 193.635 35.1561 193.865C34.6861 194.085 34.1961 194.195 33.6861 194.195ZM47.2114 185.465H48.2464C48.2664 186.705 48.3614 187.85 48.5314 188.9C48.7114 189.95 48.9414 190.865 49.2214 191.645C49.5114 192.425 49.8364 193.03 50.1964 193.46C50.5564 193.89 50.9314 194.105 51.3214 194.105C51.4914 194.105 51.6164 193.95 51.6964 193.64C51.7864 193.33 51.8514 192.82 51.8914 192.11C51.9914 192.21 52.1214 192.31 52.2814 192.41C52.4514 192.5 52.6014 192.565 52.7314 192.605C52.6814 193.255 52.6014 193.76 52.4914 194.12C52.3814 194.49 52.2264 194.75 52.0264 194.9C51.8264 195.05 51.5664 195.125 51.2464 195.125C50.7764 195.125 50.3364 194.96 49.9264 194.63C49.5264 194.3 49.1664 193.84 48.8464 193.25C48.5264 192.66 48.2464 191.965 48.0064 191.165C47.7764 190.355 47.5914 189.47 47.4514 188.51C47.3214 187.54 47.2414 186.525 47.2114 185.465ZM48.9364 186.05L49.4914 185.495C49.8314 185.625 50.1764 185.79 50.5264 185.99C50.8864 186.18 51.1664 186.365 51.3664 186.545L50.7814 187.16C50.5914 186.98 50.3164 186.785 49.9564 186.575C49.6064 186.365 49.2664 186.19 48.9364 186.05ZM50.4664 188.69L51.5014 188.915C50.9914 190.335 50.2914 191.57 49.4014 192.62C48.5114 193.67 47.4814 194.53 46.3114 195.2C46.2614 195.13 46.1914 195.045 46.1014 194.945C46.0114 194.845 45.9164 194.745 45.8164 194.645C45.7164 194.555 45.6264 194.475 45.5464 194.405C46.6964 193.835 47.6964 193.06 48.5464 192.08C49.3964 191.1 50.0364 189.97 50.4664 188.69ZM42.4714 190.325L43.3264 190.505C43.1964 190.965 43.0264 191.415 42.8164 191.855C42.6064 192.295 42.3764 192.67 42.1264 192.98C42.0464 192.92 41.9314 192.84 41.7814 192.74C41.6314 192.64 41.5064 192.56 41.4064 192.5C41.6564 192.21 41.8714 191.875 42.0514 191.495C42.2314 191.115 42.3714 190.725 42.4714 190.325ZM40.8064 187.055H52.4614V188H40.8064V187.055ZM41.9764 188.87H46.7614V189.71H41.9764V188.87ZM39.3814 184.775H52.5964V185.735H39.3814V184.775ZM46.2214 182.69H51.2164V183.56H46.2214V182.69ZM40.2364 187.055H41.2864V189.575C41.2864 189.995 41.2664 190.45 41.2264 190.94C41.1964 191.43 41.1314 191.93 41.0314 192.44C40.9414 192.94 40.8114 193.43 40.6414 193.91C40.4714 194.39 40.2464 194.83 39.9664 195.23C39.9064 195.17 39.8164 195.105 39.6964 195.035C39.5864 194.965 39.4714 194.895 39.3514 194.825C39.2314 194.765 39.1264 194.72 39.0364 194.69C39.3964 194.18 39.6614 193.625 39.8314 193.025C40.0014 192.425 40.1114 191.825 40.1614 191.225C40.2114 190.625 40.2364 190.07 40.2364 189.56V187.055ZM45.5764 181.4H46.6864V185.24H45.5764V181.4ZM41.7964 182.075H42.8614V185.285H41.7964V182.075ZM46.1164 190.445L47.0464 190.595C46.7164 191.655 46.1214 192.58 45.2614 193.37C44.4014 194.16 43.3364 194.745 42.0664 195.125C42.0064 195.035 41.9264 194.915 41.8264 194.765C41.7364 194.625 41.6514 194.515 41.5714 194.435C42.7614 194.095 43.7564 193.58 44.5564 192.89C45.3564 192.19 45.8764 191.375 46.1164 190.445ZM43.9264 189.425H44.8714V192.755H43.9264V189.425Z" fill="black"/>
<rect y="206" width="156" height="21" fill="#B73418"/>
<path d="M104.066 224V215.81C104.066 215.426 104.078 214.97 104.102 214.442C104.126 213.902 104.15 213.434 104.174 213.038H104.084C103.928 213.398 103.76 213.758 103.58 214.118C103.4 214.478 103.214 214.844 103.022 215.216L100.952 218.528H108.116V220.544H98.378V218.744L103.346 210.662H106.532V224H104.066ZM110.093 224V221.84H112.973V213.434H110.543V211.778C111.215 211.658 111.791 211.514 112.271 211.346C112.763 211.166 113.219 210.938 113.639 210.662H115.601V221.84H118.103V224H110.093ZM122.168 224.252C121.688 224.252 121.292 224.084 120.98 223.748C120.668 223.412 120.512 223.004 120.512 222.524C120.512 222.02 120.668 221.606 120.98 221.282C121.292 220.958 121.688 220.796 122.168 220.796C122.636 220.796 123.026 220.958 123.338 221.282C123.65 221.606 123.806 222.02 123.806 222.524C123.806 223.004 123.65 223.412 123.338 223.748C123.026 224.084 122.636 224.252 122.168 224.252ZM131.154 224V215.81C131.154 215.426 131.166 214.97 131.19 214.442C131.214 213.902 131.238 213.434 131.262 213.038H131.172C131.016 213.398 130.848 213.758 130.668 214.118C130.488 214.478 130.302 214.844 130.11 215.216L128.04 218.528H135.204V220.544H125.466V218.744L130.434 210.662H133.62V224H131.154Z" fill="white"/>
<rect y="231" width="89" height="21" fill="#FFA59B"/>
<path d="M31.774 249V247.47C32.986 246.39 34.018 245.388 34.87 244.464C35.734 243.54 36.394 242.682 36.85 241.89C37.306 241.086 37.534 240.342 37.534 239.658C37.534 239.226 37.456 238.848 37.3 238.524C37.144 238.2 36.916 237.954 36.616 237.786C36.328 237.606 35.968 237.516 35.536 237.516C35.056 237.516 34.612 237.654 34.204 237.93C33.808 238.194 33.442 238.512 33.106 238.884L31.63 237.462C32.254 236.79 32.89 236.286 33.538 235.95C34.198 235.602 34.978 235.428 35.878 235.428C36.718 235.428 37.45 235.602 38.074 235.95C38.71 236.286 39.202 236.76 39.55 237.372C39.898 237.984 40.072 238.704 40.072 239.532C40.072 240.336 39.868 241.158 39.46 241.998C39.064 242.826 38.53 243.654 37.858 244.482C37.186 245.31 36.442 246.126 35.626 246.93C35.974 246.882 36.346 246.846 36.742 246.822C37.15 246.786 37.51 246.768 37.822 246.768H40.702V249H31.774ZM46.5312 249.252C45.8352 249.252 45.2112 249.168 44.6592 249C44.1072 248.844 43.6152 248.628 43.1832 248.352C42.7632 248.064 42.3972 247.746 42.0852 247.398L43.3272 245.724C43.7352 246.096 44.1792 246.42 44.6592 246.696C45.1512 246.96 45.6972 247.092 46.2972 247.092C46.7532 247.092 47.1492 247.02 47.4852 246.876C47.8332 246.732 48.0972 246.522 48.2772 246.246C48.4692 245.97 48.5652 245.634 48.5652 245.238C48.5652 244.794 48.4572 244.416 48.2412 244.104C48.0372 243.78 47.6712 243.534 47.1432 243.366C46.6152 243.198 45.8712 243.114 44.9112 243.114V241.206C45.7272 241.206 46.3692 241.122 46.8372 240.954C47.3052 240.774 47.6352 240.534 47.8272 240.234C48.0312 239.922 48.1332 239.568 48.1332 239.172C48.1332 238.656 47.9772 238.254 47.6652 237.966C47.3532 237.666 46.9152 237.516 46.3512 237.516C45.8832 237.516 45.4452 237.624 45.0372 237.84C44.6412 238.044 44.2452 238.326 43.8492 238.686L42.4812 237.048C43.0692 236.556 43.6872 236.166 44.3352 235.878C44.9832 235.578 45.6972 235.428 46.4772 235.428C47.3292 235.428 48.0792 235.566 48.7272 235.842C49.3872 236.118 49.8972 236.52 50.2572 237.048C50.6172 237.576 50.7972 238.218 50.7972 238.974C50.7972 239.694 50.6052 240.312 50.2212 240.828C49.8372 241.344 49.2912 241.74 48.5832 242.016V242.106C49.0752 242.238 49.5192 242.454 49.9152 242.754C50.3232 243.042 50.6412 243.408 50.8692 243.852C51.1092 244.296 51.2292 244.812 51.2292 245.4C51.2292 246.204 51.0132 246.894 50.5812 247.47C50.1612 248.046 49.5912 248.49 48.8712 248.802C48.1632 249.102 47.3832 249.252 46.5312 249.252ZM55.1684 249.252C54.6884 249.252 54.2924 249.084 53.9804 248.748C53.6684 248.412 53.5124 248.004 53.5124 247.524C53.5124 247.02 53.6684 246.606 53.9804 246.282C54.2924 245.958 54.6884 245.796 55.1684 245.796C55.6364 245.796 56.0264 245.958 56.3384 246.282C56.6504 246.606 56.8064 247.02 56.8064 247.524C56.8064 248.004 56.6504 248.412 56.3384 248.748C56.0264 249.084 55.6364 249.252 55.1684 249.252ZM63.3979 249.252C62.5459 249.252 61.7839 249.102 61.1119 248.802C60.4399 248.502 59.9059 248.082 59.5099 247.542C59.1259 247.002 58.9339 246.384 58.9339 245.688C58.9339 245.112 59.0359 244.608 59.2399 244.176C59.4559 243.732 59.7379 243.348 60.0859 243.024C60.4339 242.7 60.8119 242.43 61.2199 242.214V242.124C60.7159 241.764 60.2959 241.326 59.9599 240.81C59.6239 240.282 59.4559 239.67 59.4559 238.974C59.4559 238.254 59.6299 237.63 59.9779 237.102C60.3259 236.574 60.7999 236.166 61.3999 235.878C62.0119 235.59 62.7019 235.446 63.4699 235.446C64.2619 235.446 64.9459 235.596 65.5219 235.896C66.0979 236.184 66.5419 236.592 66.8539 237.12C67.1779 237.648 67.3399 238.272 67.3399 238.992C67.3399 239.424 67.2559 239.832 67.0879 240.216C66.9319 240.6 66.7219 240.948 66.4579 241.26C66.2059 241.56 65.9299 241.818 65.6299 242.034V242.124C66.0499 242.34 66.4279 242.61 66.7639 242.934C67.0999 243.258 67.3699 243.648 67.5739 244.104C67.7779 244.548 67.8799 245.076 67.8799 245.688C67.8799 246.36 67.6879 246.966 67.3039 247.506C66.9319 248.046 66.4099 248.472 65.7379 248.784C65.0659 249.096 64.2859 249.252 63.3979 249.252ZM64.2259 241.386C64.5499 241.038 64.7899 240.678 64.9459 240.306C65.1019 239.934 65.1799 239.55 65.1799 239.154C65.1799 238.794 65.1079 238.476 64.9639 238.2C64.8319 237.912 64.6339 237.69 64.3699 237.534C64.1059 237.378 63.7879 237.3 63.4159 237.3C62.9599 237.3 62.5759 237.444 62.2639 237.732C61.9519 238.02 61.7959 238.434 61.7959 238.974C61.7959 239.382 61.8979 239.736 62.1019 240.036C62.3179 240.324 62.6119 240.576 62.9839 240.792C63.3559 240.996 63.7699 241.194 64.2259 241.386ZM63.4519 247.38C63.8359 247.38 64.1719 247.314 64.4599 247.182C64.7599 247.038 64.9939 246.834 65.1619 246.57C65.3299 246.294 65.4139 245.97 65.4139 245.598C65.4139 245.25 65.3359 244.95 65.1799 244.698C65.0359 244.434 64.8319 244.206 64.5679 244.014C64.3039 243.81 63.9919 243.624 63.6319 243.456C63.2719 243.288 62.8759 243.108 62.4439 242.916C62.0839 243.216 61.7899 243.582 61.5619 244.014C61.3339 244.434 61.2199 244.896 61.2199 245.4C61.2199 245.796 61.3159 246.144 61.5079 246.444C61.7119 246.732 61.9819 246.96 62.3179 247.128C62.6539 247.296 63.0319 247.38 63.4519 247.38Z" fill="white"/>
<path d="M267.66 218V217.19C271.11 214.175 272.7 211.985 272.7 210.095C272.7 208.835 272.04 207.92 270.675 207.92C269.775 207.92 268.995 208.475 268.395 209.195L267.6 208.415C268.5 207.44 269.445 206.795 270.84 206.795C272.805 206.795 274.035 208.085 274.035 210.05C274.035 212.24 272.31 214.475 269.73 216.92C270.3 216.875 270.975 216.815 271.53 216.815H274.575V218H267.66ZM279.49 218.195C277.39 218.195 276.055 216.29 276.055 212.465C276.055 208.64 277.39 206.795 279.49 206.795C281.575 206.795 282.91 208.655 282.91 212.465C282.91 216.29 281.575 218.195 279.49 218.195ZM279.49 217.1C280.735 217.1 281.575 215.705 281.575 212.465C281.575 209.255 280.735 207.89 279.49 207.89C278.23 207.89 277.39 209.255 277.39 212.465C277.39 215.705 278.23 217.1 279.49 217.1ZM284.301 218V217.19C287.751 214.175 289.341 211.985 289.341 210.095C289.341 208.835 288.681 207.92 287.316 207.92C286.416 207.92 285.636 208.475 285.036 209.195L284.241 208.415C285.141 207.44 286.086 206.795 287.481 206.795C289.446 206.795 290.676 208.085 290.676 210.05C290.676 212.24 288.951 214.475 286.371 216.92C286.941 216.875 287.616 216.815 288.171 216.815H291.216V218H284.301ZM293.686 213.875H297.061V210.5C297.061 209.96 297.106 209.075 297.136 208.505H297.076C296.806 209.045 296.506 209.585 296.191 210.125L293.686 213.875ZM297.061 218V214.97H292.261V214.07L296.836 206.99H298.351V213.875H299.806V214.97H298.351V218H297.061ZM304.616 214.64H307.976V211.67H304.616V214.64ZM314.531 214.64V215.72H309.101V219.155H307.976V215.72H301.046V214.64H303.506V210.62H307.976V208.34H304.331C303.656 209.495 302.861 210.515 302.051 211.295C301.841 211.115 301.376 210.74 301.091 210.59C302.501 209.36 303.761 207.425 304.466 205.415L305.591 205.685C305.381 206.21 305.141 206.75 304.901 207.26H313.841V208.34H309.101V210.62H313.496V211.67H309.101V214.64H314.531Z" fill="black"/>
<rect x="245" y="205" width="14" height="14" fill="#BA533D"/>
<path d="M267.66 248V247.19C271.11 244.175 272.7 241.985 272.7 240.095C272.7 238.835 272.04 237.92 270.675 237.92C269.775 237.92 268.995 238.475 268.395 239.195L267.6 238.415C268.5 237.44 269.445 236.795 270.84 236.795C272.805 236.795 274.035 238.085 274.035 240.05C274.035 242.24 272.31 244.475 269.73 246.92C270.3 246.875 270.975 246.815 271.53 246.815H274.575V248H267.66ZM279.49 248.195C277.39 248.195 276.055 246.29 276.055 242.465C276.055 238.64 277.39 236.795 279.49 236.795C281.575 236.795 282.91 238.655 282.91 242.465C282.91 246.29 281.575 248.195 279.49 248.195ZM279.49 247.1C280.735 247.1 281.575 245.705 281.575 242.465C281.575 239.255 280.735 237.89 279.49 237.89C278.23 237.89 277.39 239.255 277.39 242.465C277.39 245.705 278.23 247.1 279.49 247.1ZM287.811 248.195C285.711 248.195 284.376 246.29 284.376 242.465C284.376 238.64 285.711 236.795 287.811 236.795C289.896 236.795 291.231 238.655 291.231 242.465C291.231 246.29 289.896 248.195 287.811 248.195ZM287.811 247.1C289.056 247.1 289.896 245.705 289.896 242.465C289.896 239.255 289.056 237.89 287.811 237.89C286.551 237.89 285.711 239.255 285.711 242.465C285.711 245.705 286.551 247.1 287.811 247.1ZM293.911 240.365C293.911 241.85 294.571 242.81 295.876 242.81C296.626 242.81 297.466 242.375 298.171 241.34C298.021 239.075 297.181 237.875 295.771 237.875C294.721 237.875 293.911 238.865 293.911 240.365ZM295.471 248.195C294.286 248.195 293.446 247.715 292.831 247.07L293.596 246.215C294.046 246.74 294.721 247.055 295.426 247.055C296.851 247.055 298.081 245.885 298.186 242.48C297.511 243.305 296.566 243.83 295.651 243.83C293.821 243.83 292.621 242.645 292.621 240.365C292.621 238.235 294.061 236.795 295.771 236.795C297.886 236.795 299.461 238.535 299.461 242.03C299.461 246.485 297.541 248.195 295.471 248.195ZM304.616 244.64H307.976V241.67H304.616V244.64ZM314.531 244.64V245.72H309.101V249.155H307.976V245.72H301.046V244.64H303.506V240.62H307.976V238.34H304.331C303.656 239.495 302.861 240.515 302.051 241.295C301.841 241.115 301.376 240.74 301.091 240.59C302.501 239.36 303.761 237.425 304.466 235.415L305.591 235.685C305.381 236.21 305.141 236.75 304.901 237.26H313.841V238.34H309.101V240.62H313.496V241.67H309.101V244.64H314.531Z" fill="black"/>
<rect x="245" y="235" width="14" height="14" fill="#FFA59B"/>
</svg>
