<svg width="254" height="150" viewBox="0 0 254 150" fill="none" xmlns="http://www.w3.org/2000/svg">
<path d="M140.555 21.744C142.227 20.0246 143.191 17.6109 142.967 14.9768C142.617 10.817 139.244 7.45841 135.084 7.1279C132.432 6.91423 130.006 7.90577 128.291 9.61176C126.583 7.90577 124.158 6.91423 121.506 7.12456C117.349 7.45841 113.976 10.8136 113.626 14.9734C113.402 17.6075 114.363 20.018 116.034 21.7373L116.038 21.744L125.703 31.4157C127.137 32.8512 129.459 32.8512 130.894 31.4157C130.894 31.4157 140.555 21.744 140.559 21.7406L140.555 21.744Z" fill="#FE7152"/>
<path d="M49.0894 35.6177H50.7651C51.0534 35.6177 51.2696 35.4265 51.4047 35.044C51.5398 34.6615 51.6299 33.8327 51.693 32.5578C51.72 31.9931 51.9813 31.5833 52.4858 31.3101C52.747 31.1644 53.0173 31.0915 53.2786 31.0915C53.5128 31.0915 53.747 31.1371 53.9812 31.2281C54.6839 31.5287 55.2425 31.984 55.6569 32.6033C55.9812 33.1042 56.1434 33.6415 56.1434 34.2061C56.1434 34.3518 56.1253 34.4885 56.0983 34.6068C55.801 36.8927 55.3055 38.4409 54.6029 39.2788C53.9002 40.1075 52.8101 40.5264 51.3507 40.5264H48.1796C46.1526 40.5264 44.8193 40.0893 44.1796 39.215C43.531 38.3407 43.2157 36.7015 43.2157 34.2972V25.7183C43.2157 25.5089 43.0986 25.4087 42.8643 25.4087H41.1887C40.9545 25.4087 40.8373 25.5089 40.8373 25.7183C40.5761 29.2155 39.9545 32.0842 38.9635 34.3245C37.9815 36.5649 36.3059 38.4045 33.9276 39.8616C33.5492 40.0711 33.1528 40.1713 32.7384 40.1713C32.4771 40.1713 32.2069 40.1257 31.9456 40.0347C31.297 39.7979 30.7474 39.3789 30.27 38.787C30.0087 38.4045 29.7294 38.0493 29.4321 37.7215C29.4051 37.6577 29.3511 37.6395 29.279 37.6577C29.2069 37.6759 29.1709 37.7215 29.1709 37.8125C28.9367 38.787 28.4502 39.5155 27.7205 39.9891C26.9547 40.49 25.8556 40.7996 24.4232 40.9271H24.207C23.5944 40.9271 23.0359 40.7177 22.5314 40.3079C21.9458 39.8343 21.5494 39.2059 21.3422 38.4409V38.3498C21.2791 38.1677 21.2521 37.9947 21.2521 37.8125C21.2521 37.43 21.3873 37.0566 21.6485 36.7015C21.9999 36.2006 22.4683 35.9456 23.0539 35.9456H23.8917C24.3602 35.9456 24.5944 35.6906 24.5944 35.1897V26.7839C24.5944 26.5471 24.4773 26.4287 24.2431 26.4287H20.7656C20.5314 26.4287 20.4143 26.5471 20.4143 26.7839C20.063 31.556 19.3693 35.5722 18.3513 38.8325C18.1711 39.4245 17.7837 39.807 17.1621 39.9891C16.9549 40.0802 16.7477 40.1257 16.5495 40.1257C16.1711 40.1257 15.8198 40.0255 15.4955 39.8161C14.9099 39.4609 14.4865 38.9691 14.2162 38.3498C14.0721 37.9947 14 37.6395 14 37.2843C14 36.9838 14.045 36.7106 14.1351 36.4374C14.6937 34.5704 15.1261 32.3665 15.4324 29.8347C15.7387 27.303 15.9189 25.1355 15.9819 23.3414C16.036 21.5473 16.072 19.3889 16.072 16.8754V3.19658C16.072 2.45891 16.3243 1.83052 16.8378 1.32963C17.3513 0.828743 17.9639 0.573745 18.6666 0.573745H26.8016C27.5313 0.573745 28.1529 0.828743 28.6484 1.32963C29.1439 1.83052 29.3961 2.45891 29.3961 3.19658V10.892C29.3961 10.9558 29.4231 10.9922 29.4862 11.0287C29.5403 11.056 29.6033 11.0469 29.6664 10.9831C31.2519 9.56242 32.5222 7.81386 33.4951 5.73745C33.7294 5.23656 34.0987 4.84496 34.5942 4.58085C34.9456 4.39871 35.2789 4.31675 35.6032 4.31675C35.7834 4.31675 35.9545 4.33496 36.1347 4.36228C36.3149 4.42603 36.396 4.36228 36.396 4.18014V2.62283C36.396 1.91248 36.6482 1.2932 37.1437 0.7741C37.6392 0.254998 38.2608 0 38.9905 0H46.6931C47.4588 0 48.1525 0.227676 48.7831 0.692137C49.4138 1.14749 49.8912 1.73945 50.2155 2.4498C51.3326 4.85407 52.72 6.9669 54.3956 8.80653C54.774 9.25278 54.9632 9.74456 54.9632 10.2728V10.4913C54.9001 11.147 54.6119 11.6661 54.0803 12.0486C53.6119 12.4038 53.1885 12.759 52.8011 13.1142C52.6569 13.2599 52.5849 13.4602 52.5849 13.6879V22.7586C52.5849 23.4689 52.3236 24.0882 51.8101 24.6073C51.2966 25.1264 50.693 25.3814 49.9813 25.3814H48.666C48.4318 25.3814 48.3147 25.4816 48.3147 25.691V34.2335C48.3147 34.8254 48.3687 35.2079 48.4678 35.3718C48.5669 35.5358 48.7831 35.6177 49.1075 35.6177H49.0894ZM20.7116 21.0737C20.7116 21.3105 20.8107 21.4289 21.0179 21.4289H24.225C24.4593 21.4289 24.5764 21.3105 24.5764 21.0737V16.1377C24.5764 15.9283 24.4593 15.8281 24.225 15.8281H21.0539C20.8467 15.8281 20.7476 15.9283 20.7476 16.1377V16.8481C20.7476 18.6877 20.7296 20.0902 20.7026 21.0737H20.7116ZM24.5854 5.78299C24.5854 5.5462 24.4683 5.42781 24.234 5.42781H21.0629C20.8557 5.42781 20.7566 5.5462 20.7566 5.78299V10.5824C20.7566 10.7919 20.8557 10.892 21.0629 10.892H24.234C24.4683 10.892 24.5854 10.7919 24.5854 10.5824V5.78299ZM29.6484 12.9411C29.5853 12.8865 29.5312 12.8683 29.4682 12.8956C29.4051 12.9229 29.3781 12.9867 29.3781 13.0777V35.8909C29.3781 35.982 29.4051 36.0367 29.4682 36.0731C29.5222 36.1004 29.5853 36.1004 29.6484 36.0731C31.7294 35.0622 33.1708 33.7508 33.9636 32.1388C34.7564 30.5269 35.2429 28.3776 35.414 25.7092C35.414 25.4998 35.3149 25.3996 35.1077 25.3996C34.405 25.3996 33.8104 25.1446 33.324 24.6437C32.8375 24.1428 32.5943 23.5509 32.5943 22.8678V15.1724C32.5943 15.1724 32.5762 15.145 32.5492 15.1724C32.4321 15.2908 32.315 15.2725 32.1979 15.1268C31.4952 14.4438 30.6393 13.7152 29.6484 12.9502V12.9411ZM46.0084 5.20013C45.9183 4.99067 45.7562 4.89049 45.5219 4.89049H38.3959V4.93603C38.6932 4.99978 38.9004 5.16371 39.0356 5.44602C39.1707 5.72834 39.1707 6.00155 39.0536 6.26566C38.2608 7.98689 37.3419 9.57152 36.2789 11.0195C36.2518 11.0833 36.2518 11.1379 36.2789 11.2017C36.3059 11.2654 36.3509 11.2928 36.414 11.2928H49.3507C49.4048 11.2928 49.4498 11.2654 49.4858 11.2017C49.5129 11.147 49.5038 11.1015 49.4408 11.0651C48.1255 9.28921 46.9814 7.33119 46.0084 5.19103V5.20013ZM47.0625 20.9462C47.2967 20.9462 47.4138 20.8279 47.4138 20.5911V16.1924C47.4138 15.9829 47.2967 15.8827 47.0625 15.8827H37.7383C37.5041 15.8827 37.387 15.9829 37.387 16.1924V20.5911C37.387 20.8279 37.5041 20.9462 37.7383 20.9462H47.0625Z" fill="black"/>
<path d="M97.4305 30.5906C98.0791 30.5906 98.6286 30.8092 99.0791 31.2554C99.5295 31.7017 99.7637 32.239 99.7637 32.8765C99.7637 33.514 99.5385 34.0604 99.0791 34.5249C98.6196 34.9893 98.0701 35.217 97.4305 35.217H82.5659C82.3316 35.217 82.2145 35.3354 82.2145 35.5722V38.3772C82.2145 39.1148 81.9623 39.7432 81.4668 40.2441C80.9713 40.745 80.3497 41 79.62 41H79.3137C78.611 41 77.9984 40.745 77.4849 40.2441C76.9714 39.7432 76.7191 39.1148 76.7191 38.3772V35.5722C76.7191 35.3354 76.62 35.217 76.4128 35.217H61.9446C61.296 35.217 60.7464 34.9893 60.296 34.5249C59.8456 34.0695 59.6113 33.514 59.6113 32.8765C59.6113 32.239 59.8365 31.7017 60.296 31.2554C60.7464 30.8092 61.296 30.5906 61.9446 30.5906H76.4128C76.62 30.5906 76.7191 30.4722 76.7191 30.2354V28.5415C76.7191 28.3047 76.62 28.1864 76.4128 28.1864H66.5121C65.7824 28.1864 65.1608 27.9314 64.6653 27.4305C64.1698 26.9296 63.9176 26.3012 63.9176 25.5635V13.7334C63.9176 13.0231 64.1698 12.4038 64.6653 11.8847C65.1608 11.3656 65.7824 11.1106 66.5121 11.1106H93.2594C93.962 11.1106 94.5746 11.3747 95.0882 11.8847C95.6017 12.4038 95.8539 13.0231 95.8539 13.7334V25.5635C95.8539 26.3012 95.5926 26.9296 95.0882 27.4305C94.5746 27.9314 93.962 28.1864 93.2594 28.1864H82.5659C82.3316 28.1864 82.2145 28.3047 82.2145 28.5415V30.2354C82.2145 30.4722 82.3316 30.5906 82.5659 30.5906H97.4305ZM75.7462 0.264099C76.4759 0.264099 77.0975 0.519097 77.593 1.01999C78.0885 1.52087 78.3407 2.14926 78.3407 2.88693V6.7119C78.3407 7.44957 78.0885 8.07796 77.593 8.57885C77.0975 9.07974 76.4759 9.33473 75.7462 9.33473H64.8815C64.1518 9.33473 63.5302 9.07974 63.0347 8.57885C62.5392 8.07796 62.287 7.44957 62.287 6.7119V2.88693C62.287 2.14926 62.5392 1.52087 63.0347 1.01999C63.5302 0.519097 64.1518 0.264099 64.8815 0.264099H75.7462ZM73.0165 6.13816C73.2507 6.13816 73.3678 6.01976 73.3678 5.78298V3.82496C73.3678 3.58818 73.2507 3.46979 73.0165 3.46979H67.386C67.1517 3.46979 67.0346 3.58818 67.0346 3.82496V5.78298C67.0346 6.01976 67.1517 6.13816 67.386 6.13816H73.0165ZM69.458 15.3363C69.2238 15.3363 69.1066 15.4365 69.1066 15.6459V17.3763C69.1066 17.6131 69.2238 17.7314 69.458 17.7314H76.4038C76.611 17.7314 76.7101 17.6131 76.7101 17.3763V15.6459C76.7101 15.4365 76.611 15.3363 76.4038 15.3363H69.458ZM69.1066 23.7421C69.1066 23.9516 69.2238 24.0517 69.458 24.0517H76.4038C76.611 24.0517 76.7101 23.9516 76.7101 23.7421V21.9207C76.7101 21.7112 76.611 21.6111 76.4038 21.6111H69.458C69.2238 21.6111 69.1066 21.7112 69.1066 21.9207V23.7421ZM94.6647 0.264099C95.3945 0.264099 96.0161 0.519097 96.5115 1.01999C97.007 1.52087 97.2593 2.14926 97.2593 2.88693V6.7119C97.2593 7.44957 97.007 8.07796 96.5115 8.57885C96.0161 9.07974 95.3945 9.33473 94.6647 9.33473H83.71C82.9803 9.33473 82.3587 9.07974 81.8632 8.57885C81.3677 8.07796 81.1154 7.44957 81.1154 6.7119V2.88693C81.1154 2.14926 81.3677 1.52087 81.8632 1.01999C82.3587 0.519097 82.9803 0.264099 83.71 0.264099H94.6647ZM89.9982 17.7406C90.2324 17.7406 90.3495 17.6222 90.3495 17.3854V15.655C90.3495 15.4456 90.2324 15.3454 89.9982 15.3454H82.5659C82.3316 15.3454 82.2145 15.4456 82.2145 15.655V17.3854C82.2145 17.6222 82.3316 17.7406 82.5659 17.7406H89.9982ZM89.9982 24.0517C90.2324 24.0517 90.3495 23.9516 90.3495 23.7421V21.9207C90.3495 21.7112 90.2324 21.6111 89.9982 21.6111H82.5659C82.3316 21.6111 82.2145 21.7112 82.2145 21.9207V23.7421C82.2145 23.9516 82.3316 24.0517 82.5659 24.0517H89.9982ZM91.9351 6.13816C92.1693 6.13816 92.2864 6.01976 92.2864 5.78298V3.82496C92.2864 3.58818 92.1693 3.46979 91.9351 3.46979H86.1694C85.9352 3.46979 85.818 3.58818 85.818 3.82496V5.78298C85.818 6.01976 85.9352 6.13816 86.1694 6.13816H91.9351Z" fill="black"/>
<path d="M165.873 18.1274C165.873 18.2163 165.899 18.2785 165.961 18.3229C166.014 18.3673 166.093 18.3762 166.173 18.3407L166.385 18.2518C166.729 18.1097 167.073 18.0386 167.417 18.0386C167.735 18.0386 168.061 18.1008 168.405 18.2163C169.094 18.474 169.57 18.9361 169.826 19.6025C170.082 20.1534 170.303 20.6777 170.47 21.1664C170.523 21.3708 170.559 21.5752 170.559 21.7707C170.559 22.0284 170.497 22.3038 170.382 22.5971C170.153 23.0325 169.809 23.3613 169.35 23.5923C168.944 23.77 168.547 23.7523 168.141 23.5479C167.735 23.3435 167.461 23.0236 167.32 22.5971C166.949 21.4419 166.499 20.269 165.987 19.0782C165.987 19.0516 165.97 19.0338 165.926 19.0338C165.882 19.0338 165.864 19.0516 165.864 19.0782V25.2362C165.864 25.8138 165.661 26.3114 165.264 26.7113C164.867 27.1112 164.381 27.3155 163.817 27.3155C163.252 27.3155 162.775 27.1112 162.369 26.7113C161.963 26.3025 161.769 25.8138 161.769 25.2362V19.5492C161.769 19.5492 161.752 19.5048 161.725 19.5048C161.699 19.5048 161.681 19.5225 161.681 19.5492C161.275 21.513 160.737 23.2991 160.04 24.8897C159.837 25.3251 159.484 25.6006 158.963 25.7161C158.822 25.7427 158.689 25.7605 158.575 25.7605C158.231 25.7605 157.913 25.6628 157.63 25.4584C157.198 25.2007 156.916 24.8186 156.766 24.3299C156.704 24.1255 156.677 23.9211 156.677 23.7256C156.677 23.4324 156.73 23.1658 156.854 22.8992C157.198 22.0639 157.516 21.0776 157.798 19.9491C157.939 19.2559 158.301 18.7228 158.875 18.3407C159.307 18.0475 159.766 17.9053 160.251 17.9053C160.428 17.9053 160.596 17.923 160.772 17.9497L161.416 18.083C161.646 18.1452 161.76 18.0563 161.76 17.8253V16.5279C161.76 16.3236 161.646 16.2258 161.416 16.2258L158.663 16.3591H158.531C158.072 16.3591 157.639 16.1992 157.242 15.8793C156.836 15.5327 156.607 15.0973 156.554 14.5819V14.3687C156.554 13.9332 156.695 13.56 156.986 13.2401C157.304 12.8669 157.719 12.6803 158.239 12.6803H158.716C158.919 12.6803 159.087 12.5914 159.237 12.4226C159.695 11.9339 160.216 11.3208 160.79 10.601C160.904 10.4233 160.887 10.2722 160.746 10.1211C159.969 9.42803 159.034 8.6905 157.948 7.90853C157.542 7.58863 157.304 7.18876 157.216 6.69115C157.189 6.57563 157.172 6.46011 157.172 6.34459C157.172 5.99804 157.269 5.66926 157.472 5.34936L157.948 4.61182C158.125 4.40745 158.336 4.27416 158.592 4.20307C158.848 4.13198 159.095 4.1853 159.325 4.35413C159.378 4.38079 159.44 4.3719 159.501 4.3097C160.048 3.41221 160.551 2.50584 161.01 1.57281C161.302 1.04854 161.716 0.675327 162.263 0.444291C162.555 0.328773 162.837 0.266571 163.128 0.266571C163.384 0.266571 163.631 0.311001 163.861 0.399861C164.381 0.577581 164.708 0.906363 164.849 1.39509C164.902 1.57281 164.937 1.74165 164.937 1.91937C164.937 2.23926 164.849 2.52361 164.681 2.79019C163.737 4.17641 162.961 5.2605 162.352 6.04247C162.237 6.22019 162.263 6.38014 162.44 6.52231C162.696 6.72669 162.916 6.89553 163.084 7.04659C163.261 7.18876 163.402 7.16211 163.517 6.95773C163.808 6.54897 164.037 6.20242 164.205 5.91807C164.549 5.39379 165.008 5.04724 165.581 4.8784C165.811 4.78954 166.058 4.74511 166.314 4.74511C166.632 4.74511 166.949 4.80732 167.258 4.92283C167.744 5.12721 168.044 5.48265 168.167 6.00693C168.22 6.1491 168.255 6.30016 168.255 6.44234C168.255 6.78889 168.123 7.10879 167.867 7.39314C166.34 9.30363 164.955 10.9653 163.684 12.3871C163.622 12.4493 163.614 12.5026 163.64 12.5648C163.667 12.627 163.711 12.6537 163.772 12.6537L166.058 12.6092C166.173 12.6092 166.199 12.5559 166.146 12.4315C165.97 12.1116 165.943 11.7828 166.058 11.4363C166.173 11.0897 166.385 10.8409 166.702 10.6987L167.002 10.5654C167.435 10.3611 167.867 10.3255 168.317 10.4588C168.758 10.5921 169.111 10.8676 169.376 11.303C169.897 12.2005 170.338 13.0802 170.709 13.951C170.797 14.182 170.841 14.4131 170.841 14.6441C170.841 14.8752 170.797 15.1062 170.709 15.3372C170.506 15.7993 170.179 16.1459 169.72 16.3769L169.2 16.6346C168.908 16.7768 168.626 16.7856 168.335 16.6524C168.044 16.5191 167.849 16.3147 167.735 16.0214C167.708 15.9059 167.638 15.8615 167.523 15.8882L166.19 15.977C165.987 15.977 165.89 16.0925 165.89 16.3236V18.1452L165.873 18.1274ZM162.555 39.2139C162.034 39.676 161.46 39.907 160.834 39.907H160.657C159.943 39.8448 159.307 39.5605 158.76 39.0362C158.328 38.663 158.116 38.2009 158.116 37.65C158.116 36.9569 158.372 36.3526 158.892 35.8283C160.066 34.6998 160.957 33.2869 161.566 31.5719C161.796 30.9677 162.184 30.5145 162.731 30.2302C163.075 30.0258 163.437 29.928 163.808 29.928C164.011 29.928 164.214 29.9547 164.408 30.0169C165.043 30.2213 165.511 30.5945 165.829 31.1454C166.032 31.5186 166.129 31.9007 166.129 32.2739C166.129 32.4783 166.102 32.6916 166.04 32.9226C165.237 35.5884 164.072 37.6766 162.546 39.2139H162.555ZM175.227 36.1749H180.831C181.351 36.1749 181.731 36.1038 181.969 35.9616C182.216 35.8194 182.392 35.5262 182.507 35.0908C182.648 34.5665 182.966 34.1755 183.451 33.9178C183.707 33.7757 183.981 33.7046 184.272 33.7046C184.475 33.7046 184.687 33.7312 184.916 33.7934C185.578 34.0511 186.081 34.4599 186.425 35.0108C186.681 35.4196 186.814 35.8194 186.814 36.2282C186.814 36.4326 186.796 36.6192 186.77 36.788C186.364 38.2364 185.755 39.2228 184.934 39.7559C184.113 40.2891 182.887 40.5557 181.254 40.5557H174.662C172.076 40.5557 170.347 40.1558 169.473 39.365C168.6 38.5652 168.158 37.0901 168.158 34.922V31.7585C168.158 31.0921 168.397 30.5234 168.873 30.0435C169.35 29.5637 169.923 29.3238 170.594 29.3238C171.265 29.3238 171.847 29.5637 172.315 30.0435C172.782 30.5234 173.03 31.0921 173.03 31.7585V34.8864C173.03 35.464 173.162 35.8283 173.418 35.9705C173.674 36.1127 174.283 36.1838 175.227 36.1838V36.1749ZM194.271 15.9592C194.209 15.8437 194.138 15.7993 194.059 15.826L192.161 15.9148C191.932 15.9148 191.817 16.0303 191.817 16.2614V25.2451C191.817 25.8227 191.614 26.3203 191.217 26.7202C190.811 27.1289 190.335 27.3244 189.77 27.3244C189.205 27.3244 188.737 27.1201 188.349 26.7202C187.961 26.3114 187.767 25.8227 187.767 25.2451V18.9983H187.678C187.246 20.9087 186.734 22.5971 186.125 24.0722C185.834 24.6764 185.366 25.0674 184.705 25.2451C184.475 25.3073 184.263 25.334 184.06 25.334C183.628 25.334 183.213 25.2007 182.807 24.943C182.631 24.8275 182.463 24.7386 182.287 24.6853C182.225 24.632 182.198 24.6409 182.198 24.7297C182.198 24.9874 182.101 25.2185 181.916 25.4051C181.731 25.5917 181.51 25.6894 181.245 25.6894H178.96C178.783 25.6894 178.633 25.6272 178.51 25.4939C178.386 25.3606 178.315 25.2007 178.315 24.9963C178.315 24.943 178.289 24.9074 178.227 24.9074H175.086C174.883 24.9074 174.786 25.023 174.786 25.254V25.2984C174.786 25.5295 174.883 25.6894 175.086 25.7783C177.239 26.7291 179.163 27.8309 180.857 29.075C181.404 29.4482 181.678 29.9725 181.678 30.6389C181.678 31.2165 181.466 31.723 181.033 32.1584C180.601 32.5938 180.072 32.8249 179.436 32.8515H179.348C178.748 32.8515 178.201 32.6649 177.707 32.2917C176.533 31.3942 175.174 30.5145 173.656 29.6437C173.109 29.3238 172.791 28.8617 172.712 28.2575C172.685 28.1419 172.668 28.0264 172.668 27.9109C172.668 27.4222 172.853 26.9957 173.224 26.6491L173.912 25.956C173.965 25.9293 173.983 25.8849 173.956 25.8227C173.93 25.7694 173.885 25.7338 173.824 25.7338H173.568C172.853 25.7338 172.244 25.485 171.759 24.9785C171.273 24.472 171.026 23.8678 171.026 23.1747V19.8335C171.026 19.1404 171.273 18.5362 171.759 18.0297C172.244 17.5232 172.853 17.2744 173.568 17.2744H179.639C180.328 17.2744 180.928 17.5321 181.431 18.0297C181.934 18.5362 182.181 19.1404 182.181 19.8335V23.5212C182.181 23.5834 182.198 23.6101 182.242 23.6101C182.287 23.6101 182.304 23.5923 182.304 23.5657C182.825 22.5793 183.248 21.4152 183.593 20.0468C183.769 19.3537 184.14 18.8205 184.713 18.4384C185.146 18.1452 185.587 18.003 186.046 18.003C186.222 18.003 186.408 18.0208 186.602 18.0475L187.423 18.2252C187.626 18.2874 187.723 18.1985 187.723 17.9675V16.5368C187.723 16.3325 187.608 16.2347 187.378 16.2347C186.346 16.2969 185.393 16.3325 184.537 16.368H184.449C183.963 16.368 183.513 16.2081 183.116 15.8882C182.71 15.5416 182.481 15.1062 182.428 14.5908V14.3775C182.428 13.9421 182.569 13.5689 182.86 13.249C183.178 12.8758 183.593 12.6892 184.113 12.6892H184.546C184.749 12.6892 184.916 12.6181 185.066 12.4759C185.587 11.925 186.161 11.2941 186.787 10.5654C186.928 10.3877 186.92 10.2367 186.743 10.0856C185.799 9.21477 184.616 8.29063 183.213 7.31317C183.151 7.28651 183.125 7.2954 183.125 7.3576C183.125 7.53532 183.063 7.68638 182.931 7.81078C182.798 7.93519 182.648 8.00628 182.481 8.00628H171.406C170.973 8.00628 170.612 7.85521 170.303 7.55309C169.994 7.25097 169.853 6.87775 169.853 6.44234C169.853 6.00693 170.003 5.6426 170.303 5.33159C170.603 5.02058 170.973 4.8784 171.406 4.8784H182.181C182.437 4.8784 182.657 4.97615 182.851 5.18053C183.037 5.38491 183.134 5.61594 183.134 5.87364C183.134 5.90029 183.16 5.91807 183.222 5.91807L184.087 4.57628C184.228 4.3719 184.431 4.2475 184.687 4.1853C184.943 4.13198 185.172 4.16752 185.375 4.31859C185.463 4.34524 185.516 4.33636 185.552 4.27416C186.152 3.35001 186.69 2.45253 187.149 1.5817C187.431 1.05742 187.855 0.684213 188.402 0.453177C188.684 0.337659 188.976 0.275457 189.267 0.275457C189.523 0.275457 189.788 0.319887 190.043 0.408747C190.529 0.586467 190.847 0.915249 190.988 1.40398C191.041 1.5817 191.076 1.74165 191.076 1.88382C191.076 2.20372 190.97 2.50584 190.776 2.79908C189.858 4.13198 189.082 5.18941 188.446 5.9625C188.305 6.14022 188.314 6.30016 188.49 6.44234C188.808 6.70003 189.037 6.88664 189.179 7.00216C189.355 7.14433 189.496 7.13545 189.611 6.95773C189.929 6.54897 190.202 6.17576 190.432 5.82921C190.802 5.30493 191.261 4.95838 191.808 4.78954C192.064 4.73623 192.311 4.70068 192.541 4.70068C192.859 4.70068 193.167 4.76289 193.485 4.8784C193.97 5.10944 194.288 5.48265 194.429 6.00693C194.456 6.12244 194.473 6.25573 194.473 6.39791C194.473 6.74446 194.341 7.08213 194.085 7.39314C192.506 9.27697 191.023 10.9387 189.646 12.3871C189.62 12.4493 189.611 12.5026 189.62 12.5648C189.638 12.627 189.673 12.6537 189.726 12.6537L192.356 12.6092C192.47 12.6092 192.497 12.5559 192.444 12.4315C192.241 12.0849 192.197 11.7117 192.311 11.3208C192.426 10.9298 192.673 10.6454 193.044 10.4766L193.176 10.3877C193.432 10.2722 193.706 10.21 193.997 10.21C194.173 10.21 194.341 10.2278 194.518 10.2544C195.003 10.3966 195.382 10.6721 195.638 11.0808C196.238 12.005 196.759 12.9202 197.191 13.8177C197.306 14.0754 197.368 14.3509 197.368 14.6441C197.368 14.8485 197.324 15.0618 197.236 15.2928C197.059 15.7549 196.75 16.1192 196.291 16.3769L195.815 16.5902C195.524 16.7679 195.224 16.7856 194.906 16.6524C194.588 16.5191 194.376 16.2969 194.262 15.977L194.271 15.9592ZM180.433 9.23254C180.839 9.23254 181.175 9.37472 181.448 9.6413C181.722 9.91676 181.854 10.2455 181.854 10.6188C181.854 10.992 181.713 11.3208 181.448 11.5962C181.184 11.8717 180.839 12.005 180.433 12.005H172.809C172.438 12.005 172.112 11.8717 171.838 11.5962C171.565 11.3208 171.432 11.0009 171.432 10.6188C171.432 10.2367 171.565 9.91676 171.838 9.6413C172.112 9.36583 172.429 9.23254 172.809 9.23254H180.433ZM172.809 16.0481C172.438 16.0481 172.112 15.9148 171.838 15.6393C171.565 15.3639 171.432 15.0351 171.432 14.6441C171.432 14.2531 171.565 13.9243 171.838 13.6489C172.112 13.3734 172.429 13.2401 172.809 13.2401H180.433C180.839 13.2401 181.175 13.3823 181.448 13.6489C181.722 13.9243 181.854 14.2531 181.854 14.6441C181.854 15.0351 181.713 15.3639 181.448 15.6393C181.184 15.9148 180.839 16.0481 180.433 16.0481H172.809ZM180.31 0.817503C180.716 0.817503 181.051 0.959679 181.325 1.22626C181.598 1.50172 181.731 1.83051 181.731 2.22149C181.731 2.61247 181.589 2.94126 181.325 3.21672C181.06 3.49219 180.716 3.62548 180.31 3.62548H172.897C172.526 3.62548 172.2 3.49219 171.926 3.21672C171.653 2.94126 171.52 2.61247 171.52 2.22149C171.52 1.83051 171.653 1.50172 171.926 1.22626C172.2 0.950793 172.518 0.817503 172.897 0.817503H180.31ZM174.794 21.7263C174.794 21.9573 174.892 22.0728 175.094 22.0728H177.98C178.21 22.0728 178.324 21.9573 178.324 21.7263V20.4289C178.324 20.2245 178.21 20.1268 177.98 20.1268H175.094C174.892 20.1268 174.794 20.2245 174.794 20.4289V21.7263ZM187.07 33.0559C186.725 32.7093 186.549 32.3006 186.549 31.8385V31.5808C186.602 31.0032 186.884 30.5589 187.387 30.2568C187.89 29.9547 188.411 29.8036 188.958 29.8036C189.073 29.8036 189.187 29.8214 189.302 29.8481C189.991 29.9103 190.582 30.1857 191.067 30.6745C192.964 32.4961 194.482 34.2466 195.638 35.9261C195.894 36.3348 196.027 36.7525 196.027 37.1879C196.027 37.4189 196 37.6322 195.938 37.8366C195.762 38.5297 195.365 39.0628 194.729 39.4449C194.359 39.6493 193.97 39.7471 193.565 39.7471C193.335 39.7471 193.114 39.7204 192.92 39.6582C192.285 39.4805 191.782 39.1073 191.411 38.5297C190.291 36.7614 188.843 34.9397 187.061 33.0648L187.07 33.0559ZM192.506 20.1712C192.329 19.7358 192.329 19.3004 192.506 18.8739C192.682 18.4473 192.982 18.1541 193.415 18.003C193.644 17.8875 193.873 17.8253 194.103 17.8253C194.332 17.8253 194.544 17.8697 194.747 17.9586C195.206 18.1363 195.55 18.4473 195.78 18.9094C196.353 20.1534 196.856 21.3353 197.289 22.4638C197.377 22.6682 197.421 22.8814 197.421 23.1125C197.421 23.3702 197.359 23.6367 197.244 23.8944C197.015 24.3832 196.653 24.7297 196.168 24.9341C195.965 25.0496 195.762 25.1118 195.541 25.1118C195.321 25.1118 195.1 25.0585 194.871 24.9341C194.412 24.7297 194.112 24.4009 193.962 23.9389C193.529 22.7215 193.044 21.4686 192.497 20.1623L192.506 20.1712Z" fill="black"/>
<path d="M207.587 13.9599C207.358 13.9599 207.243 14.0754 207.243 14.3065V15.5238C207.243 16.2169 207.005 16.8123 206.528 17.301C206.052 17.7898 205.469 18.0386 204.781 18.0386C204.093 18.0386 203.501 17.7898 203.016 17.301C202.531 16.8123 202.284 16.2169 202.284 15.5238V12.4848C202.284 11.7917 202.531 11.1875 203.016 10.681C203.501 10.1745 204.11 9.92566 204.825 9.92566H209.52C209.608 9.92566 209.67 9.899 209.714 9.8368C209.758 9.78348 209.767 9.70351 209.732 9.62354C209.211 8.58387 208.593 7.54421 207.879 6.49567C207.702 6.23797 207.764 6.05136 208.055 5.93585V5.89142C207.367 5.91807 206.846 5.93585 206.502 5.93585H206.414C205.893 5.93585 205.434 5.75813 205.037 5.41157C204.605 5.06502 204.305 4.60295 204.128 4.02536C204.013 3.56329 204.093 3.12787 204.366 2.728C204.64 2.31925 205.002 2.12375 205.469 2.12375C216.474 1.83052 225.307 1.15518 231.97 0.08886C232.288 0.035544 232.588 0 232.879 0C234.141 0 235.235 0.462072 236.153 1.38622C236.409 1.64391 236.541 1.94603 236.541 2.30147C236.541 2.41699 236.515 2.55028 236.453 2.69246C236.312 3.21673 235.976 3.51886 235.464 3.60772C234.6 3.74989 233.638 3.90984 232.579 4.08756C232.517 4.08756 232.491 4.10533 232.491 4.14976C232.491 4.19419 232.508 4.21196 232.535 4.21196L233.788 4.60295C234.388 4.80733 234.794 5.19831 234.997 5.7759C235.05 6.00694 235.085 6.2202 235.085 6.42458C235.085 6.77113 234.97 7.11768 234.741 7.46424C234.167 8.27286 233.62 9.0104 233.099 9.67685C233.073 9.73905 233.073 9.79237 233.099 9.85457C233.126 9.91677 233.17 9.94343 233.232 9.94343H237.459C238.174 9.94343 238.783 10.2011 239.268 10.6987C239.753 11.2052 240 11.8095 240 12.5026V16.1014C240 16.7945 239.753 17.3988 239.268 17.9053C238.783 18.4118 238.174 18.6606 237.459 18.6606H236.082C236.02 18.6606 235.985 18.6873 235.976 18.7495C235.959 18.8117 235.976 18.8472 235.994 18.8827C236.4 19.256 236.771 19.6381 237.115 20.0113C237.485 20.42 237.671 20.8821 237.671 21.3975C237.671 21.513 237.653 21.6107 237.627 21.6996C237.538 22.3661 237.238 22.8814 236.718 23.2635C236.312 23.5834 235.87 23.7434 235.385 23.7434C235.27 23.7434 235.138 23.7256 234.997 23.699C234.397 23.6101 233.876 23.308 233.444 22.7837C232.411 21.5397 231.176 20.2778 229.737 19.0072C229.367 18.6606 229.181 18.2252 229.181 17.7098C229.181 17.1322 229.411 16.679 229.87 16.368C230.355 15.9948 230.92 15.8082 231.546 15.8082H231.59C232.252 15.8348 232.826 16.057 233.311 16.4569C233.682 16.7768 234.097 17.1411 234.564 17.541C234.591 17.5676 234.635 17.5676 234.697 17.541C234.75 17.5143 234.785 17.4699 234.785 17.4077V14.3242C234.785 14.0932 234.688 13.9777 234.485 13.9777H223.11C223.11 13.9777 223.057 13.9954 223.048 14.0399C223.031 14.0843 223.048 14.1199 223.066 14.1465C223.472 14.3509 223.842 14.5642 224.187 14.7952C224.707 15.1151 224.963 15.5949 224.963 16.2258C224.963 16.6612 224.804 17.0522 224.487 17.3988C224.116 17.8075 223.657 18.0386 223.11 18.0919H222.898C222.439 18.0919 222.007 17.9497 221.61 17.6565C220.542 16.9367 219.351 16.2525 218.036 15.6216C217.78 15.4794 217.612 15.2484 217.542 14.9285C217.471 14.6086 217.542 14.3331 217.78 14.1021C217.753 14.0132 217.718 13.9688 217.692 13.9688H207.605L207.587 13.9599ZM228.572 25.8049C230.011 25.8049 231.202 26.1071 232.146 26.7202C232.605 27.0134 232.879 27.4133 232.967 27.9376C232.994 28.0531 233.011 28.1686 233.011 28.2841C233.011 28.6573 232.897 29.0039 232.667 29.3238C231.176 31.2343 229.305 32.9137 227.063 34.3533C227.037 34.4155 227.019 34.4688 227.019 34.531C227.019 34.5932 227.046 34.6199 227.108 34.6199C230.523 35.4551 234.406 36.0416 238.738 36.3526C239.259 36.3793 239.63 36.6459 239.859 37.1346C239.947 37.3656 239.992 37.5789 239.992 37.7833C239.992 38.041 239.921 38.3075 239.78 38.5652C239.692 38.7074 239.603 38.8407 239.524 38.9562C239.091 39.6493 238.544 40.1736 237.882 40.5202C237.335 40.8401 236.762 41 236.162 41C236.047 41 235.915 40.9822 235.773 40.9556C230.231 40.2891 225.413 39.1606 221.336 37.57C221.133 37.4811 220.93 37.4811 220.736 37.57C216.712 39.0717 211.991 40.2003 206.564 40.9556C206.422 40.9822 206.264 41 206.087 41C205.54 41 204.993 40.8578 204.446 40.5646C203.784 40.1914 203.254 39.6671 202.848 39.0007H202.804C202.663 38.743 202.593 38.4675 202.593 38.1743C202.593 37.9699 202.637 37.7566 202.725 37.5256C202.954 37.0368 203.343 36.7614 203.89 36.6992C208.232 36.2904 212.061 35.6417 215.397 34.7443C215.45 34.7176 215.494 34.6732 215.503 34.611C215.521 34.5577 215.503 34.5132 215.441 34.4777C214.153 33.6068 212.988 32.7005 211.947 31.7408C211.806 31.5986 211.629 31.5631 211.426 31.6519C210.279 32.2917 209.185 32.8515 208.152 33.3403C207.693 33.5446 207.234 33.6424 206.775 33.6424C206.52 33.6424 206.272 33.6157 206.043 33.5535C205.293 33.3758 204.649 33.0204 204.102 32.4694C203.81 32.1762 203.669 31.8296 203.669 31.4298V31.0832C203.784 30.559 204.102 30.2035 204.613 29.9991C209.185 28.293 212.767 26.1693 215.388 23.619C215.415 23.5657 215.424 23.4946 215.406 23.4235C215.388 23.3524 215.353 23.2991 215.3 23.2724C214.471 22.9792 213.897 22.5082 213.597 21.8418C213.297 21.1753 213.147 20.2245 213.147 18.9805V18.3318C213.147 17.6654 213.376 17.0967 213.835 16.6168C214.294 16.137 214.859 15.8971 215.538 15.8971C216.218 15.8971 216.783 16.137 217.242 16.6168C217.7 17.0967 217.93 17.6654 217.93 18.3318V18.9805C217.93 19.4692 218.036 19.7802 218.256 19.9135C218.477 20.0468 218.954 20.109 219.704 20.109H224.354C224.954 20.109 225.343 19.9668 225.519 19.6736C225.978 18.9805 226.481 18.6339 227.028 18.6339C227.169 18.6339 227.319 18.6606 227.461 18.7228C227.575 18.7495 227.708 18.7939 227.849 18.8561C228.449 19.0605 228.908 19.407 229.225 19.8958C229.428 20.2156 229.525 20.5355 229.525 20.8466C229.525 21.0509 229.481 21.2553 229.393 21.4508C229.049 22.3216 228.528 22.917 227.84 23.2547C227.152 23.5923 226.172 23.7523 224.91 23.7523H220.904C221.045 23.8145 221.063 23.8945 220.948 24.01C220.489 24.5876 220.039 25.1118 219.615 25.5739C219.589 25.6006 219.58 25.645 219.598 25.7072C219.615 25.7694 219.651 25.7961 219.704 25.7961H228.581L228.572 25.8049ZM208.964 23.6812C208.479 24.1166 207.896 24.3299 207.243 24.3299H207.155C206.493 24.3299 205.875 24.0988 205.302 23.6368C204.896 23.2902 204.702 22.8548 204.702 22.3394C204.702 21.7352 204.949 21.2287 205.434 20.8199C206.44 19.9491 207.314 18.9361 208.064 17.7809C208.408 17.2566 208.849 16.9012 209.396 16.6968C209.652 16.6079 209.926 16.5635 210.217 16.5635C210.508 16.5635 210.791 16.6257 211.082 16.7412C211.629 16.9723 212 17.3632 212.203 17.9142C212.291 18.1452 212.335 18.3762 212.335 18.6073C212.335 18.9272 212.264 19.2293 212.123 19.5225C211.205 21.1753 210.155 22.5616 208.982 23.6901L208.964 23.6812ZM213.526 9.88123C213.526 9.88123 213.544 9.92566 213.57 9.92566H219.042C219.095 9.92566 219.156 9.899 219.218 9.8368C219.28 9.7746 219.289 9.70351 219.262 9.62354C218.856 8.40615 218.274 7.11768 217.497 5.75813C217.383 5.58041 217.206 5.50043 216.977 5.50043L213.138 5.75813C213.076 5.75813 213.032 5.78479 212.988 5.84699C212.944 5.90919 212.953 5.9625 213.006 6.02471C213.526 6.80667 213.941 7.51756 214.259 8.14846C214.4 8.49502 214.4 8.83268 214.259 9.17035C214.118 9.50802 213.871 9.73905 213.526 9.89012V9.88123ZM225.899 29.6704C225.951 29.617 225.969 29.5637 225.943 29.5193C225.916 29.4749 225.872 29.4571 225.81 29.4571H215.944C215.883 29.4571 215.847 29.4749 215.812 29.5193C215.785 29.5637 215.794 29.5993 215.856 29.6259C217.18 30.7011 218.83 31.6786 220.816 32.5761C221.018 32.6649 221.221 32.6472 221.416 32.5316C223.136 31.6964 224.637 30.7367 225.899 29.6704ZM221.936 9.8368C221.936 9.899 221.954 9.92566 221.98 9.92566H227.408C227.637 9.92566 227.814 9.8368 227.928 9.66797C228.908 8.10403 229.808 6.41569 230.646 4.59406C230.673 4.54074 230.664 4.47854 230.629 4.41634C230.584 4.36303 230.531 4.32748 230.479 4.32748C228.643 4.55852 226.013 4.83398 222.589 5.15388C222.528 5.15388 222.483 5.18942 222.439 5.26051C222.395 5.3316 222.386 5.40269 222.422 5.456C222.739 5.98028 223.013 6.48678 223.242 6.97551C223.384 7.26875 223.454 7.54421 223.454 7.81968C223.454 8.09515 223.384 8.3795 223.242 8.66385C222.986 9.21478 222.554 9.60576 221.954 9.8368H221.936Z" fill="black"/>
<path d="M35.6325 61.6879C37.2493 61.6879 38.2924 61.7318 38.7705 61.8196C39.1965 61.881 39.5529 62.0828 39.831 62.4426C40.1179 62.8024 40.2396 63.2061 40.2135 63.6625C39.6746 70.7444 38.5271 76.5715 36.7712 81.1436C36.6843 81.3455 36.7277 81.5122 36.9016 81.6614C37.9795 82.5477 38.8922 83.3726 39.6572 84.1449C40.2222 84.689 40.5091 85.356 40.5091 86.1545C40.5091 86.8654 40.3004 87.4972 39.8745 88.0413L39.7441 88.2168C39.379 88.6995 38.8835 88.9628 38.2577 88.9891H38.1707C37.5796 88.9891 37.0668 88.7609 36.6408 88.3046C36.0758 87.7078 35.4065 87.0321 34.6502 86.295C34.4763 86.1545 34.3373 86.1633 34.2243 86.3388C32.6422 88.8223 30.7472 90.9373 28.5392 92.6837C28.1394 92.9733 27.7221 93.1137 27.2701 93.1137C27.0963 93.1137 26.9311 93.0961 26.7572 93.0698C26.0792 92.9294 25.5403 92.5696 25.1404 91.9992C25.1143 91.9377 25.0796 91.9026 25.0535 91.8675C24.7405 91.4638 24.5841 91.0251 24.5841 90.5424C24.5841 90.402 24.6015 90.2703 24.6275 90.1563C24.7145 89.5244 25.01 89.0154 25.5229 88.6117C27.3657 87.2164 28.9652 85.356 30.3212 83.0392C30.4343 82.8637 30.4082 82.7145 30.2343 82.5653C29.7823 82.1967 29.1303 81.6965 28.2785 81.0646C28.1915 81.012 28.1394 81.0383 28.1046 81.1524C28.0177 81.442 27.8351 81.6438 27.557 81.7755C27.2701 81.9071 26.992 81.8983 26.7051 81.7579L25.688 81.2402C25.0622 80.8979 24.6102 80.4152 24.332 79.7834C24.1581 79.3797 24.0799 78.9673 24.0799 78.5372C24.0799 78.2827 24.106 78.0195 24.1668 77.765C24.9057 74.8251 25.7054 71.1657 26.5834 66.7954C26.6356 66.5935 26.5573 66.497 26.3313 66.497H25.6533C25.0013 66.497 24.445 66.2601 23.9756 65.7862C23.5062 65.3123 23.2715 64.7507 23.2715 64.0925C23.2715 63.4343 23.5062 62.8726 23.9756 62.3988C24.445 61.9249 25.0013 61.6879 25.6533 61.6879H27.2701C27.47 61.6879 27.5917 61.5914 27.6526 61.3896C28.0525 59.1605 28.3915 57.1772 28.6696 55.4309C28.7826 54.7727 29.1043 54.2286 29.6432 53.7986C30.1213 53.43 30.6603 53.2457 31.2601 53.2457H31.4687C32.1467 53.3072 32.6857 53.588 33.0855 54.1057C33.3985 54.5357 33.5549 54.9921 33.5549 55.4747C33.5549 55.5888 33.5375 55.7292 33.5115 55.9048C33.1985 57.616 32.8421 59.4501 32.451 61.3896C32.4249 61.5914 32.5205 61.6879 32.7465 61.6879H35.6325ZM35.1196 66.8305C35.1457 66.6023 35.0501 66.4882 34.8241 66.4882H31.7295C31.5035 66.4882 31.3731 66.5848 31.347 66.7866C30.8689 69.2175 30.2169 72.2188 29.3911 75.7817C29.3303 75.9835 29.4085 76.1415 29.5998 76.2556C30.9819 77.1946 31.8772 77.8089 32.2771 78.0985C32.451 78.2389 32.5726 78.195 32.6596 77.9668C33.7635 74.9129 34.5807 71.2008 35.1196 66.8217V66.8305ZM61.1802 70.3495C61.8583 70.3495 62.432 70.5952 62.9014 71.0779C63.3708 71.5606 63.6055 72.1398 63.6055 72.8155C63.6055 73.4912 63.3708 74.0617 62.9014 74.5531C62.432 75.0358 61.8583 75.2815 61.1802 75.2815H54.3478C54.1479 75.2815 54.0523 75.378 54.0523 75.5798V88.1378C54.0523 89.5069 53.8958 90.5599 53.5828 91.2883C53.2699 92.0167 52.7049 92.5783 51.8878 92.982C50.7577 93.4998 49.1757 93.7982 47.1329 93.8859C47.072 93.9123 47.0373 93.9298 47.0025 93.9298C46.3245 93.9298 45.716 93.7192 45.177 93.2892C44.5859 92.8328 44.16 92.2273 43.9079 91.4902C43.8471 91.3761 43.8123 91.2444 43.7775 91.104C43.6906 90.9022 43.6471 90.6916 43.6471 90.4634C43.6471 90.1738 43.734 89.8754 43.8992 89.5595C44.2121 89.1032 44.6468 88.875 45.2118 88.875H45.2553C45.9941 88.9013 46.6026 88.9189 47.0807 88.9189C47.4806 88.9189 47.7761 88.9013 47.9761 88.875C48.3412 88.875 48.5933 88.8223 48.715 88.7258C48.8453 88.6293 48.9062 88.4187 48.9062 88.1027V75.5886C48.9062 75.3868 48.8106 75.2902 48.6106 75.2902H42.1607C41.5087 75.2902 40.9437 75.0445 40.4656 74.5619C39.9875 74.0792 39.7441 73.5 39.7441 72.8243C39.7441 72.1486 39.9875 71.5781 40.4656 71.0867C40.9437 70.604 41.5087 70.3583 42.1607 70.3583H48.6106C48.8106 70.3583 48.9062 70.2618 48.9062 70.0599V66.7164C48.9062 66.3127 49.0453 65.9705 49.3321 65.6896C49.619 65.4 49.958 65.2596 50.3492 65.2596C50.4622 65.2596 50.5578 65.2158 50.6447 65.128C52.0008 63.6976 53.2873 62.0828 54.5043 60.2838C54.5303 60.2312 54.5303 60.1697 54.5043 60.1083C54.4782 60.0557 54.4347 60.0206 54.3739 60.0206H43.5515C42.8995 60.0206 42.3432 59.7836 41.8738 59.3097C41.4044 58.8358 41.1697 58.2654 41.1697 57.5985C41.1697 56.9315 41.4044 56.3523 41.8738 55.8872C42.3432 55.4221 42.8995 55.1764 43.5515 55.1764H58.0248C58.1117 55.1764 58.1987 55.1588 58.2769 55.1325C58.4768 55.0798 58.6594 55.0447 58.8245 55.0447C59.2505 55.0447 59.633 55.1764 59.972 55.4309L60.9021 56.1592C61.3802 56.5278 61.667 57.0017 61.754 57.5721C61.78 57.7125 61.7974 57.8442 61.7974 57.9583C61.7974 58.4146 61.6583 58.8271 61.3715 59.2044C58.9636 62.5743 56.5905 65.3913 54.2435 67.6466C54.1044 67.787 54.0349 67.9626 54.0349 68.1644V70.0512C54.0349 70.253 54.1305 70.3495 54.3304 70.3495H61.1629H61.1802Z" fill="black"/>
<path d="M104.731 87.1901C105.383 87.1901 105.931 87.427 106.383 87.9009C106.835 88.3748 107.061 88.9364 107.061 89.5946C107.061 90.2528 106.835 90.8056 106.383 91.262C105.931 91.7183 105.375 91.9465 104.731 91.9465H93.4395C93.3004 91.9465 93.2309 92.0167 93.2309 92.1571C93.2309 92.6749 93.057 93.1049 92.7006 93.4647C92.3442 93.8245 91.9183 94 91.4054 94H90.8925C90.2406 94 89.6929 93.7718 89.2409 93.3155C88.7889 92.8592 88.5629 92.2975 88.5629 91.6481V71.6395C88.5629 71.6395 88.5194 71.6132 88.5194 71.6395C88.4064 71.78 88.25 71.8589 88.05 71.8765C87.8501 71.894 87.6849 71.8414 87.5372 71.7273C87.0591 71.2095 86.4853 70.7006 85.8421 70.1828C85.7812 70.1301 85.7291 70.1126 85.6682 70.1389C85.6074 70.1652 85.5813 70.2091 85.5813 70.2705V70.955C85.5813 71.6395 85.3379 72.2363 84.8598 72.7365C84.3817 73.2367 83.7819 73.4824 83.0778 73.4824H79.3834C79.1835 73.4824 79.0879 73.579 79.0879 73.7808V74.8514C79.0879 75.0796 79.1835 75.1937 79.3834 75.1937H83.7558C84.2687 75.1937 84.7033 75.378 85.0684 75.7466C85.4335 76.1152 85.6161 76.5715 85.6161 77.098C85.6161 77.6246 85.4335 78.0809 85.0684 78.4495C84.7033 78.8181 84.26 79.0023 83.7558 79.0023H79.3834C79.1835 79.0023 79.0879 79.0989 79.0879 79.3007C79.0879 79.8185 79.0705 80.2134 79.0444 80.503C79.0444 80.7312 79.14 80.8452 79.34 80.8452H84.686C85.251 80.8452 85.7291 81.0471 86.1289 81.442C86.5288 81.8457 86.72 82.3196 86.72 82.8812C86.72 83.4429 86.5201 83.9167 86.1289 84.3204C85.7378 84.7241 85.251 84.9172 84.686 84.9172H79.0009C79.0009 84.9172 78.9488 84.9347 78.9401 84.9786C78.9227 85.0225 78.9401 85.0576 78.9575 85.0839C80.6265 86.0229 82.365 87.0584 84.1818 88.1729C84.7468 88.5152 85.1032 89.033 85.2423 89.7175C85.2684 89.893 85.2858 90.0509 85.2858 90.1913C85.2858 90.674 85.1467 91.1304 84.8598 91.5604L84.7729 91.692C84.373 92.2361 83.8515 92.552 83.1995 92.631H82.8605C82.3216 92.631 81.8435 92.4555 81.4175 92.1132C79.8876 90.8583 78.349 89.656 76.793 88.5152C76.6192 88.4011 76.4801 88.4274 76.3671 88.6029C75.1501 90.3493 73.4637 91.8324 71.3166 93.061C70.9168 93.2628 70.5082 93.3594 70.0823 93.3594C69.8563 93.3594 69.6476 93.333 69.4477 93.2716C68.7957 93.0961 68.2481 92.7451 67.7961 92.201C67.4832 91.8851 67.3267 91.5165 67.3267 91.0865C67.3267 90.9987 67.3441 90.9022 67.3701 90.7881C67.4571 90.244 67.7352 89.8491 68.222 89.5858C70.2909 88.445 71.8295 86.9882 72.8465 85.2155C72.8726 85.1278 72.8639 85.0576 72.8291 85.0049C72.7857 84.9523 72.7335 84.9172 72.6814 84.9172H68.4828C67.9439 84.9172 67.4745 84.7153 67.0833 84.3204C66.6834 83.9167 66.4922 83.4429 66.4922 82.8812C66.4922 82.3196 66.6921 81.8457 67.0833 81.442C67.4745 81.0383 67.9439 80.8452 68.4828 80.8452H73.9157C74.1157 80.8452 74.2287 80.7312 74.2547 80.503C74.2808 80.0203 74.2982 79.6167 74.2982 79.3007C74.2982 79.0989 74.2026 79.0023 74.0027 79.0023H69.9258C69.4129 79.0023 68.9783 78.8181 68.6132 78.4495C68.2481 78.0809 68.0656 77.6246 68.0656 77.098C68.0656 76.5715 68.2481 76.1239 68.6132 75.7466C68.9783 75.3692 69.4216 75.1937 69.9258 75.1937H74.0027C74.2026 75.1937 74.2982 75.0796 74.2982 74.8514V73.7808C74.2982 73.579 74.2026 73.4824 74.0027 73.4824H70.3952C69.6911 73.4824 69.0913 73.2367 68.6132 72.7365C68.1351 72.2363 67.8917 71.6395 67.8917 70.955V66.1986C67.8917 65.4878 68.1351 64.8823 68.6132 64.3996C69.0913 63.9169 69.6911 63.6712 70.3952 63.6712H83.0865C83.7906 63.6712 84.3904 63.9169 84.8685 64.3996C85.3466 64.8823 85.59 65.4878 85.59 66.1986V66.7515C85.59 66.8129 85.6161 66.8392 85.6769 66.8392C85.7378 66.8392 85.7638 66.8217 85.7638 66.7954C87.6589 63.7678 89.2583 59.9679 90.5622 55.3958C90.7621 54.7376 91.1533 54.2286 91.7531 53.8512C92.153 53.5967 92.5702 53.4651 93.0222 53.4651C93.2222 53.4651 93.4047 53.4914 93.5699 53.5529C94.2218 53.6933 94.7173 54.0531 95.0563 54.6235C95.2823 54.9921 95.3953 55.3782 95.3953 55.7819C95.3953 55.9837 95.3693 56.1943 95.3084 56.4225C94.8564 57.9056 94.3435 59.3799 93.7785 60.8367C93.7785 60.9244 93.7959 60.9946 93.8393 61.0473C93.8828 61.1087 93.935 61.135 93.9871 61.135H96.6645C96.8905 61.135 97.0296 61.0385 97.0904 60.8367C97.6815 59.3273 98.2378 57.6687 98.742 55.8696C98.9419 55.1851 99.3331 54.6586 99.9329 54.2812C100.359 54.0267 100.793 53.8951 101.246 53.8951C101.419 53.8951 101.611 53.9214 101.837 53.9829H101.88C102.532 54.1584 103.01 54.527 103.323 55.0974C103.523 55.4396 103.619 55.7819 103.619 56.1241C103.619 56.3786 103.558 56.6507 103.445 56.9403C102.854 58.4848 102.323 59.7836 101.871 60.8367C101.845 60.9244 101.854 60.9946 101.889 61.0473C101.932 61.1087 101.993 61.135 102.08 61.135H104.331C104.957 61.135 105.488 61.3632 105.948 61.8196C106.4 62.2759 106.626 62.8288 106.626 63.4694C106.626 64.11 106.4 64.6629 105.948 65.1192C105.496 65.5756 104.957 65.8037 104.331 65.8037H101.871C101.645 65.8037 101.532 65.9003 101.532 66.1021V69.5334C101.532 69.7616 101.645 69.8756 101.871 69.8756H104.123C104.714 69.8756 105.227 70.0863 105.653 70.5163C106.079 70.9463 106.287 71.4553 106.287 72.0608C106.287 72.6663 106.079 73.1753 105.653 73.6053C105.227 74.0353 104.723 74.2459 104.123 74.2459H101.871C101.645 74.2459 101.532 74.36 101.532 74.5882V78.1423C101.532 78.3705 101.645 78.4846 101.871 78.4846H104.123C104.714 78.4846 105.227 78.6952 105.653 79.1252C106.079 79.5552 106.287 80.0642 106.287 80.6697C106.287 81.2753 106.079 81.7842 105.653 82.2142C105.227 82.6443 104.723 82.8549 104.123 82.8549H101.871C101.645 82.8549 101.532 82.969 101.532 83.1971V86.8829C101.532 87.0848 101.645 87.1813 101.871 87.1813H104.714L104.731 87.1901ZM72.3511 62.8463C71.8121 62.8463 71.3427 62.6445 70.9515 62.2496C70.5517 61.8459 70.3604 61.3808 70.3604 60.8367C70.3604 60.6612 70.2735 60.5822 70.1083 60.5822H68.8392C68.3003 60.5822 67.8309 60.3803 67.4397 59.9854C67.0398 59.5818 66.8486 59.1079 66.8486 58.5462C66.8486 57.9846 67.0485 57.5195 67.4397 57.1333C67.8396 56.7472 68.3003 56.5542 68.8392 56.5542H70.0301C70.2561 56.5542 70.3691 56.4401 70.3691 56.2119V55.229C70.3691 54.6323 70.5864 54.1057 71.0298 53.6669C71.4731 53.2282 71.9947 53 72.6205 53C73.2464 53 73.768 53.2194 74.1939 53.6669C74.6198 54.1057 74.8285 54.6323 74.8285 55.229V56.2119C74.8285 56.4401 74.9415 56.5542 75.1675 56.5542H78.6098C78.8358 56.5542 78.9488 56.4401 78.9488 56.2119V55.229C78.9488 54.5972 79.1574 54.0706 79.5834 53.6406C80.0093 53.2106 80.5309 53 81.1567 53C81.7826 53 82.3042 53.2106 82.7301 53.6406C83.156 54.0706 83.3647 54.5972 83.3647 55.229V56.2119C83.3647 56.4401 83.4777 56.5542 83.7037 56.5542H84.8077C85.3466 56.5542 85.816 56.7472 86.2072 57.1333C86.607 57.5195 86.7983 57.9934 86.7983 58.5462C86.7983 59.0991 86.5983 59.5818 86.2072 59.9854C85.816 60.3891 85.3466 60.5822 84.8077 60.5822H83.6168C83.4429 60.5822 83.3647 60.6699 83.3647 60.8367C83.3647 61.3808 83.1647 61.8547 82.7736 62.2496C82.3824 62.6445 81.913 62.8463 81.3741 62.8463H80.9481C80.3831 62.8463 79.905 62.6445 79.5225 62.2496C79.14 61.8459 78.9488 61.3808 78.9488 60.8367C78.9488 60.6612 78.8619 60.5822 78.6967 60.5822H75.0892C74.9154 60.5822 74.8372 60.6699 74.8372 60.8367C74.8372 61.3808 74.6459 61.8547 74.2634 62.2496C73.881 62.6532 73.4029 62.8463 72.8378 62.8463H72.3684H72.3511ZM72.0468 66.9621C71.8469 66.9621 71.7513 67.0762 71.7513 67.3044V69.7879C71.7513 69.9897 71.8469 70.0863 72.0468 70.0863H74.2113C74.4112 70.0863 74.5068 69.9897 74.5068 69.7879V67.3044C74.5068 67.0762 74.4112 66.9621 74.2113 66.9621H72.0468ZM81.2176 70.0863C81.4175 70.0863 81.5131 69.9897 81.5131 69.7879V67.3044C81.5131 67.0762 81.4175 66.9621 81.2176 66.9621H78.9662C78.7662 66.9621 78.6706 67.0762 78.6706 67.3044V69.7879C78.6706 69.9897 78.7662 70.0863 78.9662 70.0863H81.2176ZM96.6297 69.8756C96.8557 69.8756 96.9687 69.7616 96.9687 69.5334V66.1021C96.9687 65.9003 96.8557 65.8037 96.6297 65.8037H93.5351C93.3352 65.8037 93.2396 65.9003 93.2396 66.1021V69.5334C93.2396 69.7616 93.3352 69.8756 93.5351 69.8756H96.6297ZM96.6297 78.4846C96.8557 78.4846 96.9687 78.3705 96.9687 78.1423V74.5882C96.9687 74.36 96.8557 74.2459 96.6297 74.2459H93.5351C93.3352 74.2459 93.2396 74.36 93.2396 74.5882V78.1423C93.2396 78.3705 93.3352 78.4846 93.5351 78.4846H96.6297ZM93.5264 82.8549C93.3265 82.8549 93.2309 82.969 93.2309 83.1971V86.8829C93.2309 87.0848 93.3265 87.1813 93.5264 87.1813H96.621C96.847 87.1813 96.96 87.0848 96.96 86.8829V83.1971C96.96 82.969 96.847 82.8549 96.621 82.8549H93.5264Z" fill="black"/>
<path d="M122.559 61.6879C124.176 61.6879 125.219 61.7318 125.697 61.8196C126.123 61.881 126.471 62.0828 126.758 62.4426C127.045 62.8024 127.166 63.2061 127.14 63.6625C126.601 70.7444 125.454 76.5715 123.698 81.1436C123.611 81.3455 123.655 81.5122 123.828 81.6614C124.906 82.5477 125.819 83.3726 126.584 84.1449C127.149 84.689 127.436 85.356 127.436 86.1545C127.436 86.8654 127.227 87.4972 126.801 88.0413L126.671 88.2168C126.306 88.6995 125.81 88.9628 125.184 88.9891H125.097C124.506 88.9891 123.994 88.7609 123.568 88.3046C123.003 87.7078 122.333 87.0321 121.577 86.295C121.403 86.1545 121.264 86.1633 121.151 86.3388C119.569 88.8223 117.674 90.9373 115.466 92.6837C115.066 92.9733 114.649 93.1137 114.197 93.1137C114.023 93.1137 113.858 93.0961 113.684 93.0698C113.006 92.9294 112.467 92.5696 112.067 91.9992C112.041 91.9377 112.006 91.9026 111.98 91.8675C111.667 91.4638 111.511 91.0251 111.511 90.5424C111.511 90.402 111.528 90.2703 111.554 90.1563C111.641 89.5244 111.937 89.0154 112.45 88.6117C114.292 87.2164 115.892 85.356 117.248 83.0392C117.361 82.8637 117.335 82.7145 117.161 82.5653C116.709 82.1967 116.057 81.6965 115.205 81.0646C115.118 81.012 115.066 81.0383 115.031 81.1524C114.944 81.442 114.762 81.6438 114.484 81.7755C114.197 81.9071 113.919 81.8983 113.632 81.7579L112.615 81.2402C111.989 80.8979 111.537 80.4152 111.259 79.7834C111.085 79.3797 111.007 78.9673 111.007 78.5372C111.007 78.2827 111.033 78.0195 111.094 77.765C111.832 74.8251 112.632 71.1657 113.51 66.7954C113.562 66.5935 113.484 66.497 113.258 66.497H112.58C111.928 66.497 111.372 66.2601 110.902 65.7862C110.433 65.3123 110.198 64.7507 110.198 64.0925C110.198 63.4343 110.433 62.8726 110.902 62.3988C111.372 61.9249 111.928 61.6879 112.58 61.6879H114.197C114.397 61.6879 114.519 61.5914 114.579 61.3896C114.979 59.1605 115.318 57.1772 115.596 55.4309C115.709 54.7727 116.031 54.2286 116.57 53.7986C117.048 53.43 117.587 53.2457 118.187 53.2457H118.395C119.073 53.3072 119.612 53.588 120.012 54.1057C120.325 54.5357 120.482 54.9921 120.482 55.4747C120.482 55.5888 120.464 55.7292 120.438 55.9048C120.125 57.616 119.769 59.4501 119.378 61.3896C119.352 61.5914 119.447 61.6879 119.673 61.6879H122.559ZM122.046 66.8305C122.072 66.6023 121.977 66.4882 121.751 66.4882H118.656C118.43 66.4882 118.3 66.5848 118.274 66.7866C117.796 69.2175 117.144 72.2188 116.318 75.7817C116.257 75.9835 116.335 76.1415 116.527 76.2556C117.909 77.1946 118.804 77.8089 119.204 78.0985C119.378 78.2389 119.499 78.195 119.586 77.9668C120.69 74.9129 121.507 71.2008 122.046 66.8217V66.8305ZM148.107 70.3495C148.785 70.3495 149.359 70.5952 149.828 71.0779C150.298 71.5606 150.532 72.1398 150.532 72.8155C150.532 73.4912 150.298 74.0617 149.828 74.5531C149.359 75.0358 148.785 75.2815 148.107 75.2815H141.275C141.075 75.2815 140.979 75.378 140.979 75.5798V88.1378C140.979 89.5069 140.823 90.5599 140.51 91.2883C140.197 92.0167 139.632 92.5783 138.815 92.982C137.684 93.4998 136.102 93.7982 134.06 93.8859C133.999 93.9123 133.964 93.9298 133.929 93.9298C133.251 93.9298 132.643 93.7192 132.104 93.2892C131.513 92.8328 131.087 92.2273 130.835 91.4902C130.774 91.3761 130.739 91.2444 130.704 91.104C130.617 90.9022 130.574 90.6916 130.574 90.4634C130.574 90.1738 130.661 89.8754 130.826 89.5595C131.139 89.1032 131.574 88.875 132.139 88.875H132.182C132.921 88.9013 133.529 88.9189 134.007 88.9189C134.407 88.9189 134.703 88.9013 134.903 88.875C135.268 88.875 135.52 88.8223 135.642 88.7258C135.772 88.6293 135.833 88.4187 135.833 88.1027V75.5886C135.833 75.3868 135.737 75.2902 135.537 75.2902H129.087C128.435 75.2902 127.87 75.0445 127.392 74.5619C126.914 74.0792 126.671 73.5 126.671 72.8243C126.671 72.1486 126.914 71.5781 127.392 71.0867C127.87 70.5953 128.435 70.3583 129.087 70.3583H135.537C135.737 70.3583 135.833 70.2618 135.833 70.0599V66.7164C135.833 66.3127 135.972 65.9705 136.259 65.6896C136.546 65.4088 136.885 65.2596 137.276 65.2596C137.389 65.2596 137.485 65.2158 137.571 65.128C138.928 63.6976 140.214 62.0828 141.431 60.2838C141.457 60.2312 141.457 60.1697 141.431 60.1083C141.405 60.0557 141.361 60.0206 141.301 60.0206H130.478C129.826 60.0206 129.27 59.7836 128.801 59.3097C128.331 58.8358 128.096 58.2654 128.096 57.5985C128.096 56.9315 128.331 56.3523 128.801 55.8872C129.27 55.4221 129.826 55.1764 130.478 55.1764H144.952C145.038 55.1764 145.125 55.1588 145.204 55.1325C145.404 55.0798 145.586 55.0447 145.751 55.0447C146.177 55.0447 146.56 55.1764 146.899 55.4309L147.829 56.1592C148.307 56.5278 148.594 57.0017 148.681 57.5721C148.707 57.7125 148.724 57.8442 148.724 57.9583C148.724 58.4146 148.585 58.8271 148.298 59.2044C145.89 62.5743 143.517 65.3913 141.17 67.6466C141.031 67.787 140.962 67.9626 140.962 68.1644V70.0512C140.962 70.253 141.057 70.3495 141.257 70.3495H148.09H148.107Z" fill="black"/>
<path d="M191.571 81.8281C191.997 82.1967 192.206 82.6443 192.206 83.1532C192.206 83.8641 191.91 84.4257 191.31 84.8206C190.832 85.1102 190.319 85.2506 189.78 85.2506H189.398C188.72 85.1629 188.129 84.882 187.616 84.3906H187.572C187.433 84.2502 187.242 84.18 187.025 84.18C185.834 84.2063 184.052 84.259 181.679 84.3292C179.306 84.3994 177.55 84.452 176.42 84.4784C176.194 84.4784 176.081 84.5749 176.081 84.7767V91.4199C176.081 92.1308 175.837 92.7363 175.359 93.219C174.881 93.7016 174.281 93.9473 173.577 93.9473H173.534C172.83 93.9473 172.23 93.7016 171.752 93.219C171.274 92.7363 171.03 92.1308 171.03 91.4199V84.9084C171.03 84.7065 170.917 84.61 170.691 84.61C169.839 84.6363 165.258 84.7241 156.939 84.8645H156.896C156.331 84.8645 155.844 84.6802 155.453 84.3116C155.027 83.8816 154.818 83.3726 154.818 82.7671C154.818 82.2493 155.001 81.793 155.366 81.3981C155.766 80.9944 156.244 80.8014 156.809 80.8014C157.887 80.775 159.895 80.7487 162.833 80.7136C163.033 80.7136 163.233 80.6697 163.424 80.582C163.85 80.3801 164.398 80.1081 165.076 79.7658C165.128 79.7132 165.171 79.643 165.18 79.5728C165.197 79.5026 165.163 79.4499 165.076 79.4236C163.52 78.2213 161.72 77.0366 159.686 75.8694C159.173 75.5535 158.921 75.0972 158.921 74.5004C158.921 74.0178 159.121 73.6316 159.512 73.342C160.051 72.912 160.669 72.6751 161.381 72.6136H161.677C162.242 72.6136 162.798 72.7453 163.328 72.9998C163.415 73.0612 163.511 73.1138 163.624 73.1753C163.824 73.2894 164.007 73.2718 164.172 73.1314C165.137 72.4469 166.154 71.622 167.232 70.6479C167.258 70.6216 167.266 70.5777 167.249 70.5162C167.231 70.4636 167.197 70.4285 167.145 70.4285H160.06C159.382 70.4285 158.791 70.1828 158.295 69.7001C157.8 69.2175 157.557 68.6119 157.557 67.9011V56.7999C157.557 56.1154 157.8 55.5186 158.295 55.0184C158.791 54.5182 159.382 54.2725 160.06 54.2725H187.433C188.111 54.2725 188.702 54.527 189.198 55.0184C189.693 55.5186 189.937 56.1154 189.937 56.7999V67.9011C189.937 68.6119 189.685 69.2175 189.198 69.7001C188.702 70.1828 188.111 70.4285 187.433 70.4285H173.725V70.4724C173.838 70.4987 173.899 70.5689 173.916 70.683C173.934 70.7971 173.899 70.8848 173.812 70.9375C171.891 72.4557 169.839 73.8949 167.657 75.2639C167.597 75.2902 167.571 75.3517 167.571 75.4394C167.571 75.5272 167.597 75.5798 167.657 75.6149C168.509 76.1853 169.153 76.6329 169.613 76.9401C169.787 77.0541 169.952 77.0541 170.126 76.9401C172.786 75.3692 175.203 73.7984 177.385 72.2275C178.01 71.7712 178.697 71.5167 179.462 71.4553H179.714C180.366 71.4553 180.983 71.6132 181.583 71.9291L181.627 71.973C182.166 72.2626 182.435 72.7189 182.435 73.342C182.435 73.8861 182.209 74.3161 181.757 74.6233C178.697 76.6241 175.316 78.5636 171.613 80.4503C171.587 80.4767 171.578 80.5118 171.595 80.5556C171.613 80.5995 171.63 80.6171 171.656 80.6171L182.348 80.4854C182.4 80.4854 182.444 80.4591 182.452 80.3977C182.47 80.345 182.452 80.3011 182.435 80.266C182.07 80.0115 181.696 79.7658 181.331 79.5376C180.905 79.2481 180.696 78.8532 180.696 78.3354C180.696 77.8176 180.905 77.4315 181.331 77.177C181.922 76.8084 182.565 76.6241 183.243 76.6241H183.287C183.939 76.6241 184.547 76.7996 185.112 77.1419C187.633 78.7127 189.78 80.266 191.562 81.8106L191.571 81.8281ZM161.651 86.6284C162.555 85.9966 163.459 85.6894 164.363 85.6894C164.902 85.6894 165.423 85.8035 165.936 86.0317C166.475 86.2335 166.797 86.6196 166.91 87.19C166.936 87.3041 166.953 87.4007 166.953 87.4884C166.953 87.9184 166.771 88.287 166.406 88.6029C164.537 90.0597 162.39 91.4199 159.956 92.6749C159.478 92.903 158.982 93.0171 158.469 93.0171C158.269 93.0171 158.061 92.9996 157.835 92.9732C157.131 92.8591 156.487 92.5344 155.922 91.9903C155.896 91.9903 155.861 91.9728 155.835 91.9465C155.522 91.6305 155.366 91.2707 155.366 90.8758V90.5775C155.453 90.0334 155.748 89.6472 156.261 89.4191C158.33 88.5591 160.121 87.6376 161.651 86.6372V86.6284ZM162.711 58.2654C162.511 58.2654 162.416 58.3619 162.416 58.5638V60.196C162.416 60.4242 162.511 60.5383 162.711 60.5383H170.691C170.917 60.5383 171.03 60.4242 171.03 60.196V58.5638C171.03 58.3619 170.917 58.2654 170.691 58.2654H162.711ZM162.711 64.2153C162.511 64.2153 162.416 64.3118 162.416 64.5137V66.1811C162.416 66.3829 162.511 66.4794 162.711 66.4794H170.691C170.917 66.4794 171.03 66.3829 171.03 66.1811V64.5137C171.03 64.3118 170.917 64.2153 170.691 64.2153H162.711ZM184.573 60.5295C184.773 60.5295 184.869 60.4154 184.869 60.1873V58.555C184.869 58.3532 184.773 58.2566 184.573 58.2566H176.298C176.072 58.2566 175.959 58.3532 175.959 58.555V60.1873C175.959 60.4154 176.072 60.5295 176.298 60.5295H184.573ZM184.573 66.4882C184.773 66.4882 184.869 66.3917 184.869 66.1898V64.5225C184.869 64.3206 184.773 64.2241 184.573 64.2241H176.298C176.072 64.2241 175.959 64.3206 175.959 64.5225V66.1898C175.959 66.3917 176.072 66.4882 176.298 66.4882H184.573ZM180.792 88.5152C180.314 88.2256 180.071 87.8043 180.071 87.2339C180.071 86.7776 180.271 86.409 180.662 86.1194C181.227 85.7157 181.861 85.4876 182.574 85.4349C182.687 85.4086 182.783 85.391 182.87 85.391C183.461 85.391 184.026 85.5314 184.565 85.821C186.886 87.0496 188.937 88.2168 190.719 89.3313C191.232 89.6736 191.484 90.1562 191.484 90.7881C191.484 91.4199 191.241 91.8587 190.763 92.201C190.171 92.631 189.52 92.8416 188.807 92.8416H188.763C188.024 92.8153 187.346 92.5959 186.729 92.201C184.921 90.946 182.939 89.7175 180.783 88.5152H180.792Z" fill="black"/>
<path d="M219.761 76.3872C219.083 78.0458 218.136 78.8707 216.919 78.8707H216.328C215.589 78.8707 214.972 78.6162 214.459 78.0984C214.094 77.7298 213.911 77.3174 213.911 76.8523C213.911 76.6768 213.929 76.51 213.955 76.3345C214.181 75.4482 214.624 74.5969 215.293 73.7808C215.954 72.9646 216.667 72.2714 217.414 71.6834C218.162 71.0954 218.901 70.5162 219.622 69.9458C220.344 69.3754 220.944 68.7699 221.43 68.1205C221.908 67.4798 222.152 66.8129 222.152 66.1284C222.152 64.812 221.665 63.8028 220.691 63.0832C219.718 62.3724 218.379 62.0126 216.684 62.0126C214.789 62.0126 213.059 62.6006 211.503 63.7677C210.938 64.1977 210.33 64.4259 209.678 64.4522H209.591C208.965 64.4522 208.417 64.2416 207.939 63.8116C207.4 63.2938 207.131 62.6796 207.131 61.9687C207.131 61.3369 207.374 60.8103 207.852 60.3803C210.599 57.9845 213.763 56.7823 217.362 56.7823C220.648 56.7823 223.282 57.537 225.281 59.0552C227.272 60.5734 228.271 62.741 228.271 65.5667C228.271 66.5672 228.037 67.4974 227.567 68.3486C227.098 69.1999 226.498 69.9458 225.759 70.5777C225.02 71.2095 224.273 71.8063 223.508 72.3767C222.743 72.9471 222.004 73.5789 221.3 74.2634C220.596 74.948 220.083 75.65 219.77 76.3608L219.761 76.3872ZM213.39 89.305C212.538 88.4888 212.12 87.4533 212.12 86.1984C212.12 84.9435 212.546 83.9079 213.39 83.0918C214.233 82.2756 215.319 81.872 216.641 81.872C217.962 81.872 219.04 82.2756 219.892 83.0918C220.744 83.9079 221.161 84.9435 221.161 86.1984C221.161 87.4533 220.735 88.4888 219.892 89.305C219.049 90.1211 217.962 90.5248 216.641 90.5248C215.319 90.5248 214.241 90.1211 213.39 89.305Z" fill="black"/>
<rect y="110" width="254" height="40" rx="20" fill="#2E2E2E"/>
<path d="M28.682 130.476C29.6647 130.271 30.8307 130.007 32.18 129.684C33.5293 129.361 34.886 129.031 36.25 128.694L36.558 131.114C35.326 131.451 34.0793 131.789 32.818 132.126C31.5567 132.463 30.4053 132.757 29.364 133.006L28.682 130.476ZM28.968 123.502H36.514V125.944H28.968V123.502ZM31.608 119.3H34.27V137.032C34.27 137.677 34.1967 138.176 34.05 138.528C33.918 138.895 33.6613 139.181 33.28 139.386C32.9133 139.591 32.4587 139.723 31.916 139.782C31.388 139.841 30.7427 139.87 29.98 139.87C29.936 139.518 29.8407 139.1 29.694 138.616C29.5473 138.147 29.386 137.736 29.21 137.384C29.6207 137.399 30.0167 137.413 30.398 137.428C30.794 137.428 31.0653 137.428 31.212 137.428C31.3587 137.428 31.4613 137.399 31.52 137.34C31.5787 137.267 31.608 137.157 31.608 137.01V119.3ZM38.736 126.186H48.922V128.672H38.736V126.186ZM43.092 127.616H45.71V139.958H43.092V127.616ZM46.194 119.344L48.614 121.346C47.602 121.698 46.4947 122.021 45.292 122.314C44.0893 122.607 42.8647 122.864 41.618 123.084C40.3713 123.304 39.1613 123.487 37.988 123.634C37.9293 123.341 37.812 122.974 37.636 122.534C37.4747 122.094 37.3133 121.735 37.152 121.456C38.252 121.295 39.3593 121.104 40.474 120.884C41.5887 120.664 42.6447 120.422 43.642 120.158C44.6393 119.894 45.49 119.623 46.194 119.344ZM37.152 121.456H39.858V128.848C39.858 129.699 39.8213 130.623 39.748 131.62C39.6893 132.617 39.5647 133.622 39.374 134.634C39.1833 135.646 38.912 136.621 38.56 137.56C38.2227 138.484 37.7607 139.313 37.174 140.046C37.042 139.87 36.8367 139.665 36.558 139.43C36.2793 139.21 35.9933 138.99 35.7 138.77C35.4213 138.565 35.1793 138.411 34.974 138.308C35.6487 137.428 36.14 136.445 36.448 135.36C36.756 134.275 36.9467 133.167 37.02 132.038C37.108 130.894 37.152 129.831 37.152 128.848V121.456ZM43.444 131.664L44.962 130.058C45.402 130.483 45.8933 130.953 46.436 131.466C46.9787 131.965 47.4993 132.456 47.998 132.94C48.4967 133.409 48.9 133.827 49.208 134.194L47.602 136.064C47.3087 135.683 46.92 135.235 46.436 134.722C45.952 134.209 45.446 133.681 44.918 133.138C44.39 132.595 43.8987 132.104 43.444 131.664ZM53.124 124.976H59.24V126.912H53.124V124.976ZM53.124 128.562H59.24V130.432H53.124V128.562ZM53.124 132.258H59.24V134.194H53.124V132.258ZM62.672 129.75H70.944V131.972H62.672V129.75ZM54.224 121.346H57.7V123.348H54.224V121.346ZM61 120.422H69.184V122.6H61V120.422ZM61.022 133.974H71.384V136.24H61.022V133.974ZM65.114 127.77H67.622V139.892H65.114V127.77ZM55.522 125.988H57.26V132.984H55.522V125.988ZM68.48 120.422H70.812C70.812 120.422 70.8047 120.532 70.79 120.752C70.79 120.957 70.7827 121.133 70.768 121.28C70.7387 122.439 70.6947 123.399 70.636 124.162C70.5773 124.925 70.4967 125.526 70.394 125.966C70.2913 126.406 70.1593 126.721 69.998 126.912C69.822 127.132 69.624 127.293 69.404 127.396C69.184 127.499 68.9347 127.579 68.656 127.638C68.4067 127.667 68.084 127.689 67.688 127.704C67.292 127.704 66.8667 127.697 66.412 127.682C66.3973 127.345 66.3387 126.978 66.236 126.582C66.1333 126.171 65.994 125.827 65.818 125.548C66.17 125.577 66.4853 125.599 66.764 125.614C67.0427 125.629 67.2553 125.636 67.402 125.636C67.534 125.636 67.644 125.629 67.732 125.614C67.8347 125.585 67.9227 125.519 67.996 125.416C68.084 125.313 68.1573 125.101 68.216 124.778C68.2747 124.441 68.326 123.949 68.37 123.304C68.414 122.659 68.4507 121.808 68.48 120.752V120.422ZM62.21 127.924L64.366 128.364C64.1753 129.361 63.904 130.337 63.552 131.29C63.2147 132.243 62.8333 133.043 62.408 133.688C62.2613 133.585 62.0707 133.468 61.836 133.336C61.6013 133.204 61.3593 133.079 61.11 132.962C60.8607 132.845 60.648 132.749 60.472 132.676C60.8973 132.089 61.2567 131.371 61.55 130.52C61.8433 129.669 62.0633 128.804 62.21 127.924ZM53.696 119.278L56.05 119.806C55.7713 120.803 55.4413 121.786 55.06 122.754C54.6787 123.722 54.2533 124.624 53.784 125.46C53.3293 126.296 52.838 127.029 52.31 127.66C52.178 127.528 51.9947 127.367 51.76 127.176C51.5253 126.971 51.2907 126.773 51.056 126.582C50.8213 126.377 50.6087 126.223 50.418 126.12C51.166 125.299 51.826 124.287 52.398 123.084C52.97 121.867 53.4027 120.598 53.696 119.278ZM52.156 124.976H54.268V130.806C54.268 131.51 54.2387 132.265 54.18 133.072C54.136 133.879 54.048 134.7 53.916 135.536C53.7987 136.357 53.6153 137.157 53.366 137.934C53.1167 138.697 52.7867 139.393 52.376 140.024C52.2587 139.892 52.0827 139.745 51.848 139.584C51.628 139.437 51.3933 139.291 51.144 139.144C50.9093 139.012 50.704 138.909 50.528 138.836C51.0267 138.073 51.3933 137.23 51.628 136.306C51.8627 135.367 52.0093 134.421 52.068 133.468C52.1267 132.5 52.156 131.605 52.156 130.784V124.976ZM58.514 124.976H60.692V137.428C60.692 137.956 60.6333 138.389 60.516 138.726C60.3987 139.063 60.1713 139.327 59.834 139.518C59.4967 139.709 59.0933 139.826 58.624 139.87C58.1547 139.929 57.5753 139.958 56.886 139.958C56.8567 139.635 56.7613 139.254 56.6 138.814C56.4533 138.374 56.2993 138.007 56.138 137.714C56.578 137.729 56.9887 137.743 57.37 137.758C57.7513 137.758 58.0153 137.758 58.162 137.758C58.294 137.758 58.382 137.736 58.426 137.692C58.4847 137.633 58.514 137.531 58.514 137.384V124.976ZM63.662 121.148H66.016C65.928 122.219 65.752 123.209 65.488 124.118C65.2387 125.013 64.8207 125.812 64.234 126.516C63.6473 127.22 62.8113 127.814 61.726 128.298C61.594 128.019 61.3887 127.697 61.11 127.33C60.846 126.963 60.5893 126.685 60.34 126.494C61.22 126.127 61.88 125.68 62.32 125.152C62.7747 124.624 63.09 124.023 63.266 123.348C63.4567 122.673 63.5887 121.94 63.662 121.148ZM57.062 121.346H57.568L57.898 121.258L59.416 122.182C59.1667 122.886 58.8513 123.634 58.47 124.426C58.0887 125.203 57.7293 125.871 57.392 126.428C57.172 126.267 56.9007 126.091 56.578 125.9C56.27 125.709 55.9987 125.555 55.764 125.438C55.94 125.086 56.1087 124.697 56.27 124.272C56.446 123.832 56.6 123.392 56.732 122.952C56.8787 122.497 56.9887 122.101 57.062 121.764V121.346ZM85.156 126.582H93.296V129.024H85.156V126.582ZM73.166 121.5H83.088V123.634H73.166V121.5ZM72.968 130.256H83.066V132.478H72.968V130.256ZM72.836 126.406H83.44V128.562H72.836V126.406ZM88.676 127.66H91.228V139.87H88.676V127.66ZM74.332 124.074L76.444 123.568C76.6053 123.949 76.752 124.36 76.884 124.8C77.016 125.24 77.1113 125.621 77.17 125.944L74.992 126.538C74.948 126.201 74.86 125.805 74.728 125.35C74.6107 124.881 74.4787 124.455 74.332 124.074ZM79.744 123.546L82.12 123.986C81.8853 124.573 81.658 125.145 81.438 125.702C81.218 126.245 81.0053 126.707 80.8 127.088L78.666 126.648C78.7833 126.355 78.908 126.032 79.04 125.68C79.1867 125.313 79.3187 124.939 79.436 124.558C79.568 124.177 79.6707 123.839 79.744 123.546ZM90.876 119.498L92.9 121.456C92.1373 121.749 91.3013 122.021 90.392 122.27C89.4973 122.519 88.5807 122.739 87.642 122.93C86.718 123.106 85.8233 123.26 84.958 123.392C84.8993 123.113 84.7893 122.783 84.628 122.402C84.4667 122.006 84.3127 121.676 84.166 121.412C84.9873 121.251 85.8087 121.075 86.63 120.884C87.4513 120.693 88.2287 120.481 88.962 120.246C89.6953 119.997 90.3333 119.747 90.876 119.498ZM76.29 119.74L78.93 119.102C79.15 119.571 79.37 120.092 79.59 120.664C79.8247 121.221 80.0007 121.705 80.118 122.116L77.324 122.842C77.2507 122.431 77.1113 121.933 76.906 121.346C76.7007 120.759 76.4953 120.224 76.29 119.74ZM84.166 121.412H86.63V129.288C86.63 130.095 86.6007 130.967 86.542 131.906C86.498 132.845 86.3953 133.798 86.234 134.766C86.0873 135.719 85.8673 136.643 85.574 137.538C85.2953 138.418 84.9213 139.21 84.452 139.914C84.32 139.753 84.122 139.569 83.858 139.364C83.6087 139.159 83.352 138.961 83.088 138.77C82.824 138.579 82.5967 138.44 82.406 138.352C82.9487 137.516 83.3447 136.577 83.594 135.536C83.8433 134.495 83.9973 133.431 84.056 132.346C84.1293 131.261 84.166 130.241 84.166 129.288V121.412ZM80.096 133.864L81.812 132.918C82.164 133.402 82.5013 133.945 82.824 134.546C83.1613 135.133 83.4253 135.639 83.616 136.064L81.812 137.164C81.636 136.724 81.3793 136.196 81.042 135.58C80.7193 134.949 80.404 134.377 80.096 133.864ZM74.508 133.16L76.532 133.776C76.268 134.539 75.9233 135.338 75.498 136.174C75.0873 137.01 74.6913 137.714 74.31 138.286C74.1047 138.125 73.8187 137.919 73.452 137.67C73.1 137.421 72.8067 137.23 72.572 137.098C72.9533 136.57 73.3127 135.954 73.65 135.25C74.002 134.546 74.288 133.849 74.508 133.16ZM77.082 127.616H79.634V139.804H77.082V127.616ZM103.394 126.054H114.658V128.342H103.394V126.054ZM102.69 121.654H115.274V123.964H102.69V121.654ZM102.734 130.058H115.164V132.368H102.734V130.058ZM107.662 119.278H110.28V127.374H107.662V119.278ZM110.456 128.078H113.052V137.186C113.052 137.817 112.971 138.308 112.81 138.66C112.649 139.027 112.355 139.313 111.93 139.518C111.505 139.709 110.984 139.826 110.368 139.87C109.767 139.929 109.055 139.958 108.234 139.958C108.175 139.591 108.065 139.166 107.904 138.682C107.743 138.213 107.574 137.809 107.398 137.472C107.941 137.487 108.469 137.501 108.982 137.516C109.495 137.516 109.84 137.516 110.016 137.516C110.177 137.516 110.287 137.494 110.346 137.45C110.419 137.391 110.456 137.281 110.456 137.12V128.078ZM103.614 133.864L105.792 132.654C106.085 133.006 106.401 133.402 106.738 133.842C107.09 134.267 107.413 134.693 107.706 135.118C108.014 135.529 108.263 135.895 108.454 136.218L106.122 137.582C105.961 137.245 105.733 136.863 105.44 136.438C105.161 136.013 104.861 135.573 104.538 135.118C104.215 134.663 103.907 134.245 103.614 133.864ZM96.64 120.664H102.294V135.712H96.64V133.358H99.852V123.018H96.64V120.664ZM96.772 126.912H101.04V129.222H96.772V126.912ZM95.386 120.664H97.828V137.67H95.386V120.664ZM123.48 126.736L136.856 124.954L137.23 127.44L123.854 129.266L123.48 126.736ZM131.752 120.708L133.732 119.476C134.113 119.813 134.509 120.195 134.92 120.62C135.331 121.045 135.712 121.471 136.064 121.896C136.416 122.307 136.695 122.688 136.9 123.04L134.766 124.382C134.59 124.045 134.333 123.663 133.996 123.238C133.659 122.798 133.292 122.358 132.896 121.918C132.515 121.478 132.133 121.075 131.752 120.708ZM122.248 119.498L124.778 120.312C124.221 121.617 123.561 122.915 122.798 124.206C122.05 125.497 121.236 126.707 120.356 127.836C119.491 128.965 118.596 129.955 117.672 130.806C117.599 130.586 117.474 130.307 117.298 129.97C117.122 129.633 116.931 129.295 116.726 128.958C116.535 128.621 116.359 128.342 116.198 128.122C117.005 127.447 117.782 126.648 118.53 125.724C119.278 124.8 119.975 123.81 120.62 122.754C121.265 121.683 121.808 120.598 122.248 119.498ZM119.982 125.812L122.666 123.106L122.71 123.15V139.936H119.982V125.812ZM127.594 119.652H130.278C130.307 121.999 130.41 124.191 130.586 126.23C130.777 128.254 131.041 130.036 131.378 131.576C131.715 133.116 132.133 134.341 132.632 135.25C133.131 136.145 133.71 136.636 134.37 136.724C134.619 136.739 134.817 136.46 134.964 135.888C135.111 135.316 135.228 134.421 135.316 133.204C135.477 133.38 135.697 133.571 135.976 133.776C136.255 133.981 136.533 134.172 136.812 134.348C137.091 134.509 137.311 134.634 137.472 134.722C137.281 136.145 137.025 137.237 136.702 138C136.394 138.763 136.049 139.276 135.668 139.54C135.287 139.819 134.891 139.943 134.48 139.914C133.439 139.811 132.544 139.43 131.796 138.77C131.048 138.11 130.417 137.193 129.904 136.02C129.405 134.847 128.995 133.446 128.672 131.818C128.364 130.19 128.129 128.357 127.968 126.318C127.807 124.265 127.682 122.043 127.594 119.652ZM143.478 133.776H145.92V136.636C145.92 136.944 146.015 137.142 146.206 137.23C146.397 137.318 146.807 137.362 147.438 137.362C147.57 137.362 147.761 137.362 148.01 137.362C148.259 137.362 148.538 137.362 148.846 137.362C149.169 137.362 149.491 137.362 149.814 137.362C150.137 137.362 150.437 137.362 150.716 137.362C150.995 137.362 151.215 137.362 151.376 137.362C151.728 137.362 151.992 137.311 152.168 137.208C152.344 137.105 152.469 136.885 152.542 136.548C152.615 136.211 152.674 135.697 152.718 135.008C152.982 135.199 153.334 135.375 153.774 135.536C154.214 135.697 154.603 135.807 154.94 135.866C154.837 136.849 154.669 137.597 154.434 138.11C154.214 138.638 153.877 138.997 153.422 139.188C152.967 139.393 152.344 139.496 151.552 139.496C151.435 139.496 151.222 139.496 150.914 139.496C150.621 139.496 150.291 139.496 149.924 139.496C149.572 139.496 149.205 139.496 148.824 139.496C148.457 139.496 148.127 139.496 147.834 139.496C147.555 139.496 147.35 139.496 147.218 139.496C146.235 139.496 145.465 139.408 144.908 139.232C144.365 139.071 143.991 138.785 143.786 138.374C143.581 137.963 143.478 137.391 143.478 136.658V133.776ZM147.174 133.886L149.044 132.874C149.308 133.153 149.587 133.461 149.88 133.798C150.188 134.135 150.474 134.473 150.738 134.81C151.002 135.133 151.222 135.419 151.398 135.668L149.418 136.812C149.271 136.548 149.066 136.247 148.802 135.91C148.553 135.573 148.281 135.228 147.988 134.876C147.709 134.509 147.438 134.179 147.174 133.886ZM154.632 134.326L156.722 133.446C157.001 133.915 157.301 134.429 157.624 134.986C157.961 135.543 158.269 136.093 158.548 136.636C158.841 137.164 159.076 137.619 159.252 138L157.03 139.056C156.883 138.645 156.671 138.169 156.392 137.626C156.128 137.069 155.842 136.504 155.534 135.932C155.226 135.345 154.925 134.81 154.632 134.326ZM140.794 133.798L142.862 134.722C142.671 135.177 142.466 135.668 142.246 136.196C142.026 136.724 141.791 137.245 141.542 137.758C141.307 138.257 141.065 138.711 140.816 139.122L138.66 138.066C138.924 137.67 139.181 137.23 139.43 136.746C139.694 136.262 139.943 135.763 140.178 135.25C140.413 134.737 140.618 134.253 140.794 133.798ZM145.832 123.656H152.08V125.24H145.832V123.656ZM145.832 125.988H152.08V127.594H145.832V125.988ZM145.524 121.104H152.454V122.842H145.524V121.104ZM147.79 129.816V131.444H150.122V129.816H147.79ZM145.942 128.342H152.058V132.918H145.942V128.342ZM143.126 125.262L144.534 124.888C144.783 125.46 145.018 126.098 145.238 126.802C145.458 127.506 145.612 128.085 145.7 128.54L144.204 129.024C144.131 128.54 143.984 127.946 143.764 127.242C143.559 126.523 143.346 125.863 143.126 125.262ZM139.474 124.888C139.43 124.697 139.342 124.426 139.21 124.074C139.093 123.722 138.983 123.429 138.88 123.194C139.041 123.165 139.195 123.091 139.342 122.974C139.489 122.842 139.635 122.681 139.782 122.49C139.899 122.358 140.061 122.131 140.266 121.808C140.486 121.471 140.721 121.075 140.97 120.62C141.219 120.151 141.439 119.674 141.63 119.19L143.434 119.784C143.067 120.547 142.642 121.302 142.158 122.05C141.674 122.783 141.205 123.399 140.75 123.898V123.942C140.75 123.942 140.684 123.971 140.552 124.03C140.42 124.089 140.266 124.169 140.09 124.272C139.929 124.375 139.782 124.477 139.65 124.58C139.533 124.683 139.474 124.785 139.474 124.888ZM139.474 124.888L139.452 123.612L140.288 123.128L143.588 122.974C143.544 123.194 143.5 123.451 143.456 123.744C143.412 124.023 143.383 124.257 143.368 124.448C142.385 124.507 141.63 124.565 141.102 124.624C140.589 124.668 140.215 124.712 139.98 124.756C139.76 124.785 139.591 124.829 139.474 124.888ZM139.694 128.892C139.635 128.701 139.547 128.43 139.43 128.078C139.327 127.726 139.225 127.433 139.122 127.198C139.327 127.154 139.533 127.044 139.738 126.868C139.958 126.692 140.193 126.465 140.442 126.186C140.618 126.01 140.889 125.68 141.256 125.196C141.637 124.712 142.048 124.147 142.488 123.502C142.943 122.842 143.346 122.175 143.698 121.5L145.414 122.226C144.769 123.282 144.057 124.316 143.28 125.328C142.517 126.325 141.755 127.191 140.992 127.924V127.946C140.992 127.946 140.926 127.975 140.794 128.034C140.662 128.093 140.508 128.173 140.332 128.276C140.171 128.364 140.024 128.467 139.892 128.584C139.76 128.687 139.694 128.789 139.694 128.892ZM139.694 128.892L139.628 127.572L140.486 127.044L145.172 126.604C145.128 126.824 145.091 127.073 145.062 127.352C145.047 127.631 145.04 127.858 145.04 128.034C143.984 128.166 143.126 128.276 142.466 128.364C141.806 128.452 141.293 128.525 140.926 128.584C140.559 128.643 140.288 128.701 140.112 128.76C139.936 128.804 139.797 128.848 139.694 128.892ZM141.41 129.53L142.818 129.244C142.921 129.816 143.009 130.439 143.082 131.114C143.155 131.774 143.199 132.353 143.214 132.852L141.74 133.16C141.725 132.661 141.681 132.075 141.608 131.4C141.549 130.725 141.483 130.102 141.41 129.53ZM139.452 129.288L140.992 129.662C140.889 130.307 140.75 130.982 140.574 131.686C140.398 132.375 140.222 132.962 140.046 133.446C139.885 133.343 139.665 133.219 139.386 133.072C139.107 132.925 138.873 132.808 138.682 132.72C138.858 132.236 139.012 131.693 139.144 131.092C139.276 130.476 139.379 129.875 139.452 129.288ZM143.412 129.398L144.732 129.024C144.908 129.552 145.077 130.139 145.238 130.784C145.414 131.429 145.539 131.979 145.612 132.434L144.226 132.896C144.167 132.427 144.057 131.869 143.896 131.224C143.749 130.564 143.588 129.955 143.412 129.398ZM147.482 119.696L149.572 119.278C149.777 119.645 149.968 120.041 150.144 120.466C150.32 120.891 150.437 121.265 150.496 121.588L148.274 122.072C148.23 121.749 148.127 121.368 147.966 120.928C147.819 120.488 147.658 120.077 147.482 119.696ZM156.766 125.306L158.284 124.888C158.504 125.475 158.731 126.113 158.966 126.802C159.201 127.477 159.369 128.049 159.472 128.518L157.844 129.046C157.756 128.577 157.602 127.983 157.382 127.264C157.177 126.545 156.971 125.893 156.766 125.306ZM152.982 125.064C152.938 124.873 152.85 124.609 152.718 124.272C152.601 123.92 152.491 123.619 152.388 123.37C152.549 123.341 152.696 123.267 152.828 123.15C152.975 123.018 153.121 122.857 153.268 122.666C153.385 122.534 153.547 122.299 153.752 121.962C153.957 121.61 154.177 121.207 154.412 120.752C154.647 120.283 154.852 119.806 155.028 119.322L156.81 119.938C156.473 120.701 156.069 121.456 155.6 122.204C155.145 122.952 154.698 123.575 154.258 124.074V124.118C154.258 124.118 154.192 124.147 154.06 124.206C153.943 124.265 153.796 124.345 153.62 124.448C153.459 124.536 153.312 124.639 153.18 124.756C153.048 124.859 152.982 124.961 152.982 125.064ZM152.982 125.064V123.788L153.818 123.304L157.118 123.172C157.074 123.392 157.03 123.649 156.986 123.942C156.942 124.221 156.913 124.455 156.898 124.646C155.915 124.69 155.16 124.741 154.632 124.8C154.119 124.844 153.745 124.888 153.51 124.932C153.29 124.961 153.114 125.005 152.982 125.064ZM153.202 128.914C153.143 128.738 153.055 128.474 152.938 128.122C152.835 127.77 152.733 127.477 152.63 127.242C152.835 127.198 153.048 127.095 153.268 126.934C153.488 126.758 153.715 126.531 153.95 126.252C154.126 126.061 154.397 125.731 154.764 125.262C155.145 124.793 155.556 124.235 155.996 123.59C156.436 122.93 156.832 122.263 157.184 121.588L158.9 122.292C158.255 123.348 157.551 124.375 156.788 125.372C156.025 126.369 155.263 127.235 154.5 127.968V127.99C154.5 127.99 154.434 128.019 154.302 128.078C154.17 128.137 154.016 128.217 153.84 128.32C153.679 128.408 153.532 128.511 153.4 128.628C153.268 128.731 153.202 128.826 153.202 128.914ZM153.202 128.914L153.158 127.594L154.038 127.066L158.24 126.736C158.196 126.985 158.152 127.257 158.108 127.55C158.064 127.829 158.042 128.063 158.042 128.254C157.103 128.342 156.333 128.423 155.732 128.496C155.145 128.555 154.683 128.606 154.346 128.65C154.009 128.694 153.752 128.738 153.576 128.782C153.415 128.826 153.29 128.87 153.202 128.914ZM154.984 129.552L156.436 129.266C156.539 129.838 156.627 130.469 156.7 131.158C156.773 131.847 156.817 132.441 156.832 132.94L155.314 133.27C155.314 132.771 155.277 132.177 155.204 131.488C155.145 130.784 155.072 130.139 154.984 129.552ZM153.004 129.354L154.566 129.728C154.507 130.373 154.405 131.048 154.258 131.752C154.111 132.456 153.972 133.065 153.84 133.578C153.679 133.461 153.459 133.329 153.18 133.182C152.901 133.021 152.667 132.896 152.476 132.808C152.608 132.324 152.718 131.774 152.806 131.158C152.894 130.542 152.96 129.941 153.004 129.354ZM156.986 129.464L158.306 129.09C158.497 129.633 158.673 130.227 158.834 130.872C158.995 131.503 159.105 132.053 159.164 132.522L157.778 132.94C157.734 132.485 157.631 131.928 157.47 131.268C157.309 130.608 157.147 130.007 156.986 129.464ZM161.562 124.426H180.46V128.782H177.842V126.428H164.07V128.474H161.562V124.426ZM177.644 119.278L179.404 121.038C178.275 121.273 177.028 121.478 175.664 121.654C174.3 121.815 172.885 121.955 171.418 122.072C169.951 122.175 168.47 122.263 166.974 122.336C165.493 122.395 164.063 122.439 162.684 122.468C162.655 122.175 162.589 121.837 162.486 121.456C162.383 121.075 162.273 120.767 162.156 120.532C163.52 120.503 164.921 120.459 166.358 120.4C167.795 120.327 169.203 120.239 170.582 120.136C171.961 120.033 173.251 119.916 174.454 119.784C175.671 119.637 176.735 119.469 177.644 119.278ZM164.268 122.864L166.358 122.006C166.622 122.299 166.871 122.637 167.106 123.018C167.355 123.399 167.531 123.737 167.634 124.03L165.412 124.976C165.339 124.683 165.192 124.338 164.972 123.942C164.752 123.546 164.517 123.187 164.268 122.864ZM169.042 122.622L171.132 121.852C171.381 122.175 171.609 122.527 171.814 122.908C172.034 123.289 172.173 123.634 172.232 123.942L170.01 124.756C169.951 124.463 169.827 124.118 169.636 123.722C169.46 123.311 169.262 122.945 169.042 122.622ZM174.498 128.232L176.258 126.978C176.698 127.301 177.138 127.66 177.578 128.056C178.033 128.437 178.451 128.833 178.832 129.244C179.228 129.64 179.536 130.014 179.756 130.366L177.864 131.774C177.659 131.422 177.373 131.041 177.006 130.63C176.639 130.205 176.236 129.787 175.796 129.376C175.356 128.951 174.923 128.569 174.498 128.232ZM168.866 126.978L170.12 125.636C170.677 125.841 171.264 126.113 171.88 126.45C172.496 126.787 172.98 127.103 173.332 127.396L172.012 128.87C171.675 128.577 171.205 128.247 170.604 127.88C170.017 127.513 169.438 127.213 168.866 126.978ZM175.972 121.324L178.546 122.16C178.15 122.747 177.747 123.319 177.336 123.876C176.94 124.419 176.566 124.881 176.214 125.262L174.256 124.514C174.447 124.221 174.652 123.891 174.872 123.524C175.092 123.143 175.297 122.761 175.488 122.38C175.679 121.984 175.84 121.632 175.972 121.324ZM175.466 132.324H175.972L176.412 132.236L178.084 133.336C177.365 134.421 176.449 135.353 175.334 136.13C174.219 136.907 172.973 137.56 171.594 138.088C170.215 138.616 168.734 139.027 167.15 139.32C165.566 139.628 163.938 139.87 162.266 140.046C162.193 139.841 162.083 139.599 161.936 139.32C161.789 139.056 161.621 138.785 161.43 138.506C161.254 138.242 161.085 138.029 160.924 137.868C162.552 137.765 164.121 137.597 165.632 137.362C167.143 137.127 168.536 136.812 169.812 136.416C171.103 136.005 172.225 135.492 173.178 134.876C174.146 134.26 174.909 133.534 175.466 132.698V132.324ZM164.642 131.444C165.595 132.72 166.871 133.783 168.47 134.634C170.083 135.485 171.961 136.145 174.102 136.614C176.258 137.083 178.634 137.391 181.23 137.538C181.069 137.729 180.893 137.971 180.702 138.264C180.511 138.557 180.335 138.851 180.174 139.144C180.013 139.452 179.873 139.731 179.756 139.98C177.776 139.804 175.928 139.533 174.212 139.166C172.496 138.799 170.919 138.308 169.482 137.692C168.045 137.061 166.747 136.306 165.588 135.426C164.429 134.531 163.417 133.49 162.552 132.302L164.642 131.444ZM168.734 130.542L171.022 131.334C170.406 132.097 169.673 132.808 168.822 133.468C167.986 134.128 167.099 134.715 166.16 135.228C165.221 135.741 164.275 136.181 163.322 136.548C163.19 136.401 163.014 136.218 162.794 135.998C162.589 135.778 162.369 135.565 162.134 135.36C161.914 135.14 161.716 134.964 161.54 134.832C162.508 134.539 163.439 134.179 164.334 133.754C165.243 133.314 166.079 132.83 166.842 132.302C167.605 131.759 168.235 131.173 168.734 130.542ZM166.974 127.396H169.416V128.914C169.416 129.178 169.467 129.339 169.57 129.398C169.687 129.457 169.937 129.486 170.318 129.486C170.391 129.486 170.531 129.486 170.736 129.486C170.941 129.486 171.169 129.486 171.418 129.486C171.667 129.486 171.902 129.486 172.122 129.486C172.342 129.486 172.503 129.486 172.606 129.486C172.797 129.486 172.943 129.464 173.046 129.42C173.149 129.361 173.222 129.259 173.266 129.112C173.325 128.965 173.369 128.745 173.398 128.452C173.633 128.584 173.948 128.716 174.344 128.848C174.74 128.98 175.092 129.075 175.4 129.134C175.327 129.706 175.195 130.153 175.004 130.476C174.828 130.784 174.571 131.004 174.234 131.136C173.897 131.253 173.457 131.312 172.914 131.312C172.797 131.312 172.643 131.312 172.452 131.312C172.261 131.312 172.041 131.312 171.792 131.312C171.557 131.312 171.315 131.312 171.066 131.312C170.831 131.312 170.619 131.312 170.428 131.312C170.237 131.312 170.083 131.312 169.966 131.312C169.174 131.312 168.558 131.246 168.118 131.114C167.678 130.967 167.377 130.725 167.216 130.388C167.055 130.036 166.974 129.552 166.974 128.936V127.396ZM164.796 127.176L166.798 128.034C166.563 128.679 166.255 129.317 165.874 129.948C165.507 130.579 165.031 131.114 164.444 131.554L162.596 130.146C163.095 129.794 163.535 129.354 163.916 128.826C164.297 128.283 164.591 127.733 164.796 127.176ZM168.184 132.324H175.994V134.238H166.27L168.184 132.324ZM190.932 130.454H202.944V132.764H190.932V130.454ZM198.742 131.818C199.094 132.478 199.534 133.138 200.062 133.798C200.59 134.458 201.162 135.074 201.778 135.646C202.409 136.203 203.025 136.673 203.626 137.054C203.45 137.201 203.245 137.391 203.01 137.626C202.775 137.861 202.555 138.103 202.35 138.352C202.145 138.601 201.976 138.829 201.844 139.034C201.213 138.55 200.59 137.956 199.974 137.252C199.358 136.548 198.779 135.785 198.236 134.964C197.708 134.143 197.253 133.329 196.872 132.522L198.742 131.818ZM193.924 125.636V127.066H199.996V125.636H193.924ZM193.924 122.226V123.634H199.996V122.226H193.924ZM191.592 120.136H202.438V129.156H191.592V120.136ZM195.2 131.664L197.18 132.324C196.784 133.233 196.307 134.121 195.75 134.986C195.193 135.837 194.577 136.621 193.902 137.34C193.227 138.059 192.516 138.66 191.768 139.144C191.636 138.939 191.467 138.704 191.262 138.44C191.057 138.191 190.844 137.949 190.624 137.714C190.404 137.465 190.199 137.259 190.008 137.098C190.712 136.731 191.394 136.262 192.054 135.69C192.714 135.103 193.315 134.465 193.858 133.776C194.401 133.072 194.848 132.368 195.2 131.664ZM195.794 121.192H198.06V128.166H198.214V139.958H195.64V128.166H195.794V121.192ZM183.65 126.032H190.426V128.012H183.65V126.032ZM183.65 129.002H190.426V131.004H183.65V129.002ZM182.682 122.952H191.152V125.042H182.682V122.952ZM184.75 132.06H190.58V138.748H184.75V136.636H188.292V134.15H184.75V132.06ZM183.584 132.06H185.828V139.694H183.584V132.06ZM185.08 120.18L187.104 119.212C187.397 119.667 187.698 120.173 188.006 120.73C188.314 121.273 188.556 121.749 188.732 122.16L186.62 123.304C186.473 122.893 186.246 122.395 185.938 121.808C185.645 121.207 185.359 120.664 185.08 120.18ZM208.29 124.646V125.68H211.436V124.646H208.29ZM208.29 121.94V122.974H211.436V121.94H208.29ZM205.958 120.158H213.878V127.462H205.958V120.158ZM204.946 128.738H214.868V130.652H204.946V128.738ZM214.78 120.224H224.922V122.094H214.78V120.224ZM209.038 129.332H211.26V138.176L209.038 136.922V129.332ZM210.204 132.434H214.45V134.348H210.204V132.434ZM219.026 120.686L221.424 121.192C221.145 121.808 220.867 122.431 220.588 123.062C220.324 123.678 220.082 124.199 219.862 124.624L217.97 124.118C218.161 123.634 218.359 123.069 218.564 122.424C218.769 121.779 218.923 121.199 219.026 120.686ZM217.794 127.748V128.782H221.82V127.748H217.794ZM217.794 130.476V131.51H221.82V130.476H217.794ZM217.794 125.042V126.076H221.82V125.042H217.794ZM215.462 123.26H224.262V133.314H215.462V123.26ZM217.244 133.468L219.4 134.15C218.945 134.766 218.359 135.367 217.64 135.954C216.936 136.526 216.239 137.003 215.55 137.384C215.418 137.252 215.249 137.091 215.044 136.9C214.839 136.695 214.626 136.497 214.406 136.306C214.201 136.115 214.01 135.961 213.834 135.844C214.494 135.565 215.132 135.213 215.748 134.788C216.364 134.363 216.863 133.923 217.244 133.468ZM205.936 131.532H208.07C208.026 132.647 207.945 133.739 207.828 134.81C207.711 135.866 207.505 136.849 207.212 137.758C206.933 138.653 206.515 139.437 205.958 140.112C205.797 139.833 205.562 139.511 205.254 139.144C204.961 138.777 204.682 138.499 204.418 138.308C204.829 137.795 205.137 137.179 205.342 136.46C205.562 135.741 205.709 134.964 205.782 134.128C205.87 133.277 205.921 132.412 205.936 131.532ZM207.696 133.358C208.019 134.282 208.429 135.015 208.928 135.558C209.427 136.101 210.021 136.511 210.71 136.79C211.414 137.069 212.221 137.252 213.13 137.34C214.039 137.413 215.051 137.45 216.166 137.45C216.474 137.45 216.929 137.45 217.53 137.45C218.131 137.45 218.813 137.45 219.576 137.45C220.339 137.45 221.109 137.45 221.886 137.45C222.663 137.435 223.375 137.421 224.02 137.406C224.665 137.391 225.171 137.384 225.538 137.384C225.362 137.619 225.186 137.956 225.01 138.396C224.849 138.836 224.739 139.217 224.68 139.54H222.986H216.166C214.817 139.54 213.607 139.474 212.536 139.342C211.465 139.21 210.519 138.946 209.698 138.55C208.891 138.169 208.195 137.597 207.608 136.834C207.021 136.071 206.53 135.074 206.134 133.842L207.696 133.358ZM220.346 134.282L222.172 133.336C222.568 133.585 222.971 133.879 223.382 134.216C223.793 134.539 224.174 134.869 224.526 135.206C224.893 135.529 225.186 135.829 225.406 136.108L223.514 137.23C223.279 136.937 222.986 136.614 222.634 136.262C222.282 135.91 221.901 135.558 221.49 135.206C221.094 134.854 220.713 134.546 220.346 134.282Z" fill="#D6F2FA"/>
</svg>
