<svg width="656" height="248" viewBox="0 0 656 248" fill="none" xmlns="http://www.w3.org/2000/svg">
<rect x="281" y="134" width="281" height="40" transform="rotate(180 281 134)" fill="#E8FDFF"/>
<rect x="281" y="134" width="156.837" height="40" transform="rotate(180 281 134)" fill="#0095CC"/>
<path d="M220.54 122.28C219.753 122.28 219.053 122.187 218.44 122C217.827 121.813 217.28 121.567 216.8 121.26C216.32 120.953 215.893 120.62 215.52 120.26L216.88 118.38C217.16 118.66 217.46 118.913 217.78 119.14C218.113 119.367 218.473 119.547 218.86 119.68C219.26 119.813 219.687 119.88 220.14 119.88C220.647 119.88 221.093 119.773 221.48 119.56C221.88 119.347 222.193 119.04 222.42 118.64C222.647 118.227 222.76 117.733 222.76 117.16C222.76 116.307 222.527 115.647 222.06 115.18C221.607 114.713 221.007 114.48 220.26 114.48C219.833 114.48 219.467 114.54 219.16 114.66C218.853 114.767 218.48 114.96 218.04 115.24L216.7 114.38L217.1 107.18H225.02V109.66H219.64L219.36 112.8C219.653 112.667 219.94 112.567 220.22 112.5C220.5 112.433 220.807 112.4 221.14 112.4C221.967 112.4 222.727 112.567 223.42 112.9C224.113 113.22 224.667 113.727 225.08 114.42C225.493 115.113 225.7 116 225.7 117.08C225.7 118.173 225.453 119.113 224.96 119.9C224.48 120.673 223.847 121.267 223.06 121.68C222.287 122.08 221.447 122.28 220.54 122.28ZM233.117 122.28C232.424 122.28 231.75 122.133 231.097 121.84C230.457 121.547 229.89 121.1 229.397 120.5C228.904 119.887 228.51 119.113 228.217 118.18C227.937 117.233 227.797 116.107 227.797 114.8C227.797 113.427 227.95 112.24 228.257 111.24C228.577 110.24 229.004 109.427 229.537 108.8C230.07 108.16 230.677 107.687 231.357 107.38C232.05 107.073 232.777 106.92 233.537 106.92C234.444 106.92 235.224 107.087 235.877 107.42C236.544 107.74 237.097 108.133 237.537 108.6L235.977 110.36C235.724 110.067 235.39 109.813 234.977 109.6C234.564 109.387 234.144 109.28 233.717 109.28C233.117 109.28 232.57 109.453 232.077 109.8C231.597 110.147 231.21 110.72 230.917 111.52C230.624 112.32 230.477 113.413 230.477 114.8C230.477 116.08 230.59 117.107 230.817 117.88C231.057 118.64 231.37 119.193 231.757 119.54C232.144 119.887 232.577 120.06 233.057 120.06C233.43 120.06 233.764 119.96 234.057 119.76C234.364 119.547 234.61 119.24 234.797 118.84C234.984 118.427 235.077 117.92 235.077 117.32C235.077 116.733 234.984 116.253 234.797 115.88C234.624 115.507 234.377 115.227 234.057 115.04C233.75 114.853 233.384 114.76 232.957 114.76C232.557 114.76 232.137 114.887 231.697 115.14C231.257 115.38 230.85 115.807 230.477 116.42L230.337 114.44C230.604 114.067 230.917 113.747 231.277 113.48C231.65 113.213 232.03 113.013 232.417 112.88C232.817 112.747 233.177 112.68 233.497 112.68C234.324 112.68 235.057 112.847 235.697 113.18C236.35 113.513 236.857 114.02 237.217 114.7C237.577 115.38 237.757 116.253 237.757 117.32C237.757 118.333 237.544 119.213 237.117 119.96C236.704 120.693 236.144 121.267 235.437 121.68C234.73 122.08 233.957 122.28 233.117 122.28ZM241.854 122.28C241.32 122.28 240.88 122.093 240.534 121.72C240.187 121.347 240.014 120.893 240.014 120.36C240.014 119.8 240.187 119.34 240.534 118.98C240.88 118.62 241.32 118.44 241.854 118.44C242.374 118.44 242.807 118.62 243.154 118.98C243.5 119.34 243.674 119.8 243.674 120.36C243.674 120.893 243.5 121.347 243.154 121.72C242.807 122.093 242.374 122.28 241.854 122.28ZM250.998 122.28C249.998 122.28 249.118 121.993 248.358 121.42C247.611 120.833 247.024 119.967 246.598 118.82C246.184 117.66 245.978 116.227 245.978 114.52C245.978 112.827 246.184 111.42 246.598 110.3C247.024 109.167 247.611 108.32 248.358 107.76C249.118 107.2 249.998 106.92 250.998 106.92C252.011 106.92 252.891 107.207 253.638 107.78C254.384 108.34 254.964 109.18 255.378 110.3C255.804 111.42 256.018 112.827 256.018 114.52C256.018 116.227 255.804 117.66 255.378 118.82C254.964 119.967 254.384 120.833 253.638 121.42C252.891 121.993 252.011 122.28 250.998 122.28ZM250.998 119.98C251.438 119.98 251.824 119.813 252.158 119.48C252.491 119.147 252.751 118.587 252.938 117.8C253.124 117 253.218 115.907 253.218 114.52C253.218 113.147 253.124 112.073 252.938 111.3C252.751 110.513 252.491 109.967 252.158 109.66C251.824 109.34 251.438 109.18 250.998 109.18C250.584 109.18 250.204 109.34 249.858 109.66C249.524 109.967 249.258 110.513 249.058 111.3C248.858 112.073 248.758 113.147 248.758 114.52C248.758 115.907 248.858 117 249.058 117.8C249.258 118.587 249.524 119.147 249.858 119.48C250.204 119.813 250.584 119.98 250.998 119.98ZM258.535 122V119.6H261.735V110.26H259.035V108.42C259.781 108.287 260.421 108.127 260.955 107.94C261.501 107.74 262.008 107.487 262.475 107.18H264.655V119.6H267.435V122H258.535Z" fill="white"/>
<rect x="281" y="191" width="281" height="40" transform="rotate(180 281 191)" fill="#E8FDFF"/>
<rect x="281" y="191" width="124.163" height="40" transform="rotate(180 281 191)" fill="#0095CC"/>
<path d="M221.74 179V169.9C221.74 169.473 221.753 168.967 221.78 168.38C221.807 167.78 221.833 167.26 221.86 166.82H221.76C221.587 167.22 221.4 167.62 221.2 168.02C221 168.42 220.793 168.827 220.58 169.24L218.28 172.92H226.24V175.16H215.42V173.16L220.94 164.18H224.48V179H221.74ZM233.537 179V169.9C233.537 169.473 233.55 168.967 233.577 168.38C233.604 167.78 233.63 167.26 233.657 166.82H233.557C233.384 167.22 233.197 167.62 232.997 168.02C232.797 168.42 232.59 168.827 232.377 169.24L230.077 172.92H238.037V175.16H227.217V173.16L232.737 164.18H236.277V179H233.537ZM241.854 179.28C241.32 179.28 240.88 179.093 240.534 178.72C240.187 178.347 240.014 177.893 240.014 177.36C240.014 176.8 240.187 176.34 240.534 175.98C240.88 175.62 241.32 175.44 241.854 175.44C242.374 175.44 242.807 175.62 243.154 175.98C243.5 176.34 243.674 176.8 243.674 177.36C243.674 177.893 243.5 178.347 243.154 178.72C242.807 179.093 242.374 179.28 241.854 179.28ZM250.998 179.28C249.998 179.28 249.118 178.993 248.358 178.42C247.611 177.833 247.024 176.967 246.598 175.82C246.184 174.66 245.978 173.227 245.978 171.52C245.978 169.827 246.184 168.42 246.598 167.3C247.024 166.167 247.611 165.32 248.358 164.76C249.118 164.2 249.998 163.92 250.998 163.92C252.011 163.92 252.891 164.207 253.638 164.78C254.384 165.34 254.964 166.18 255.378 167.3C255.804 168.42 256.018 169.827 256.018 171.52C256.018 173.227 255.804 174.66 255.378 175.82C254.964 176.967 254.384 177.833 253.638 178.42C252.891 178.993 252.011 179.28 250.998 179.28ZM250.998 176.98C251.438 176.98 251.824 176.813 252.158 176.48C252.491 176.147 252.751 175.587 252.938 174.8C253.124 174 253.218 172.907 253.218 171.52C253.218 170.147 253.124 169.073 252.938 168.3C252.751 167.513 252.491 166.967 252.158 166.66C251.824 166.34 251.438 166.18 250.998 166.18C250.584 166.18 250.204 166.34 249.858 166.66C249.524 166.967 249.258 167.513 249.058 168.3C248.858 169.073 248.758 170.147 248.758 171.52C248.758 172.907 248.858 174 249.058 174.8C249.258 175.587 249.524 176.147 249.858 176.48C250.204 176.813 250.584 176.98 250.998 176.98ZM263.215 179.28C262.521 179.28 261.848 179.133 261.195 178.84C260.555 178.547 259.988 178.1 259.495 177.5C259.001 176.887 258.608 176.113 258.315 175.18C258.035 174.233 257.895 173.107 257.895 171.8C257.895 170.427 258.048 169.24 258.355 168.24C258.675 167.24 259.101 166.427 259.635 165.8C260.168 165.16 260.775 164.687 261.455 164.38C262.148 164.073 262.875 163.92 263.635 163.92C264.541 163.92 265.321 164.087 265.975 164.42C266.641 164.74 267.195 165.133 267.635 165.6L266.075 167.36C265.821 167.067 265.488 166.813 265.075 166.6C264.661 166.387 264.241 166.28 263.815 166.28C263.215 166.28 262.668 166.453 262.175 166.8C261.695 167.147 261.308 167.72 261.015 168.52C260.721 169.32 260.575 170.413 260.575 171.8C260.575 173.08 260.688 174.107 260.915 174.88C261.155 175.64 261.468 176.193 261.855 176.54C262.241 176.887 262.675 177.06 263.155 177.06C263.528 177.06 263.861 176.96 264.155 176.76C264.461 176.547 264.708 176.24 264.895 175.84C265.081 175.427 265.175 174.92 265.175 174.32C265.175 173.733 265.081 173.253 264.895 172.88C264.721 172.507 264.475 172.227 264.155 172.04C263.848 171.853 263.481 171.76 263.055 171.76C262.655 171.76 262.235 171.887 261.795 172.14C261.355 172.38 260.948 172.807 260.575 173.42L260.435 171.44C260.701 171.067 261.015 170.747 261.375 170.48C261.748 170.213 262.128 170.013 262.515 169.88C262.915 169.747 263.275 169.68 263.595 169.68C264.421 169.68 265.155 169.847 265.795 170.18C266.448 170.513 266.955 171.02 267.315 171.7C267.675 172.38 267.855 173.253 267.855 174.32C267.855 175.333 267.641 176.213 267.215 176.96C266.801 177.693 266.241 178.267 265.535 178.68C264.828 179.08 264.055 179.28 263.215 179.28Z" fill="white"/>
<rect x="281" y="248" width="281" height="40" transform="rotate(-180 281 248)" fill="#E8FDFF"/>
<rect x="281" y="248" width="124.163" height="40" transform="rotate(-180 281 248)" fill="#0095CC"/>
<path d="M233.74 236V226.9C233.74 226.473 233.753 225.967 233.78 225.38C233.807 224.78 233.833 224.26 233.86 223.82H233.76C233.587 224.22 233.4 224.62 233.2 225.02C233 225.42 232.793 225.827 232.58 226.24L230.28 229.92H238.24V232.16H227.42V230.16L232.94 221.18H236.48V236H233.74ZM245.537 236V226.9C245.537 226.473 245.55 225.967 245.577 225.38C245.604 224.78 245.63 224.26 245.657 223.82H245.557C245.384 224.22 245.197 224.62 244.997 225.02C244.797 225.42 244.59 225.827 244.377 226.24L242.077 229.92H250.037V232.16H239.217V230.16L244.737 221.18H248.277V236H245.537ZM253.854 236.28C253.32 236.28 252.88 236.093 252.534 235.72C252.187 235.347 252.014 234.893 252.014 234.36C252.014 233.8 252.187 233.34 252.534 232.98C252.88 232.62 253.32 232.44 253.854 232.44C254.374 232.44 254.807 232.62 255.154 232.98C255.5 233.34 255.674 233.8 255.674 234.36C255.674 234.893 255.5 235.347 255.154 235.72C254.807 236.093 254.374 236.28 253.854 236.28ZM258.738 236V233.6H261.938V224.26H259.238V222.42C259.984 222.287 260.624 222.127 261.158 221.94C261.704 221.74 262.211 221.487 262.678 221.18H264.858V233.6H267.638V236H258.738Z" fill="white"/>
<path d="M300.663 123.234C298.593 123.234 297.297 122.37 296.433 121.434L297.261 120.354C298.035 121.164 299.043 121.866 300.537 121.866C302.103 121.866 303.219 120.93 303.219 119.4C303.219 117.834 302.157 116.772 299.115 116.772V115.512C301.833 115.512 302.769 114.414 302.769 112.992C302.769 111.732 301.905 110.904 300.537 110.904C299.475 110.904 298.539 111.426 297.801 112.182L296.919 111.138C297.909 110.22 299.079 109.554 300.609 109.554C302.823 109.554 304.443 110.778 304.443 112.866C304.443 114.468 303.489 115.53 302.103 116.052V116.124C303.651 116.484 304.893 117.672 304.893 119.472C304.893 121.83 303.003 123.234 300.663 123.234ZM311.17 116.034C310.342 116.034 309.28 116.52 308.47 117.726C308.668 120.462 309.658 121.956 311.314 121.956C312.574 121.956 313.564 120.75 313.564 118.95C313.564 117.168 312.772 116.034 311.17 116.034ZM311.314 123.234C308.776 123.234 306.904 121.056 306.904 116.7C306.904 111.534 309.226 109.554 311.782 109.554C313.15 109.554 314.14 110.13 314.86 110.904L313.96 111.93C313.438 111.3 312.646 110.922 311.836 110.922C310.036 110.922 308.506 112.308 308.434 116.412C309.244 115.422 310.396 114.81 311.44 114.81C313.672 114.81 315.094 116.196 315.094 118.95C315.094 121.506 313.366 123.234 311.314 123.234ZM316.708 118.59V117.33H321.316V118.59H316.708ZM324.19 118.05H328.24V114C328.24 113.352 328.294 112.29 328.33 111.606H328.258C327.934 112.254 327.574 112.902 327.196 113.55L324.19 118.05ZM328.24 123V119.364H322.48V118.284L327.97 109.788H329.788V118.05H331.534V119.364H329.788V123H328.24ZM336.802 123.234C334.75 123.234 333.49 122.37 332.608 121.488L333.418 120.408C334.174 121.164 335.128 121.866 336.658 121.866C338.206 121.866 339.466 120.678 339.466 118.752C339.466 116.862 338.386 115.746 336.73 115.746C335.848 115.746 335.29 116.016 334.534 116.52L333.652 115.98L334.066 109.788H340.492V111.21H335.506L335.182 115.026C335.776 114.702 336.352 114.504 337.144 114.504C339.34 114.504 341.122 115.8 341.122 118.698C341.122 121.596 339.034 123.234 336.802 123.234ZM351.251 118.716L352.349 118.896C351.557 121.416 349.451 123.378 346.409 124.296C346.283 124.062 345.995 123.684 345.833 123.486C347.327 123.054 348.605 122.352 349.559 121.47H348.659V117.834H346.319V116.844H352.025V117.834H349.775V121.254C350.477 120.534 350.999 119.67 351.251 118.716ZM346.895 118.572L347.921 118.788C347.633 119.886 347.075 120.984 346.499 121.74C346.301 121.578 345.887 121.29 345.635 121.164C346.229 120.48 346.661 119.526 346.895 118.572ZM354.995 113.118H353.789C353.807 113.64 353.843 114.18 353.879 114.684H356.651C356.129 114.288 355.301 113.802 354.599 113.496L354.995 113.118ZM356.435 116.61L357.659 116.898C357.083 118.482 356.309 119.886 355.337 121.074C355.967 122.352 356.687 123.09 357.443 123.09C357.857 123.09 358.037 122.406 358.127 120.714C358.397 120.948 358.811 121.182 359.135 121.29C358.937 123.612 358.487 124.278 357.353 124.278C356.219 124.278 355.247 123.45 354.491 122.028C353.591 122.964 352.583 123.738 351.467 124.386C351.287 124.134 350.837 123.684 350.567 123.45C351.863 122.784 353.015 121.92 353.969 120.858C353.411 119.472 353.015 117.744 352.781 115.818H345.491V117.672C345.491 119.67 345.257 122.496 343.925 124.422C343.709 124.224 343.133 123.882 342.827 123.756C344.087 121.938 344.249 119.472 344.249 117.672V114.684H352.655C352.619 114.18 352.583 113.64 352.565 113.118H343.241V111.984H346.103V108.762H347.363V111.984H350.603V107.952H351.917V109.464H357.317V110.526H351.917V111.984H358.973V113.118H355.931C356.525 113.424 357.119 113.766 357.497 114.09L356.921 114.684H358.793V115.818H353.987C354.167 117.33 354.455 118.662 354.833 119.796C355.499 118.842 356.039 117.78 356.435 116.61Z" fill="black"/>
<path d="M296.703 179V178.028C300.843 174.41 302.751 171.782 302.751 169.514C302.751 168.002 301.959 166.904 300.321 166.904C299.241 166.904 298.305 167.57 297.585 168.434L296.631 167.498C297.711 166.328 298.845 165.554 300.519 165.554C302.877 165.554 304.353 167.102 304.353 169.46C304.353 172.088 302.283 174.77 299.187 177.704C299.871 177.65 300.681 177.578 301.347 177.578H305.001V179H296.703ZM311.17 172.034C310.342 172.034 309.28 172.52 308.47 173.726C308.668 176.462 309.658 177.956 311.314 177.956C312.574 177.956 313.564 176.75 313.564 174.95C313.564 173.168 312.772 172.034 311.17 172.034ZM311.314 179.234C308.776 179.234 306.904 177.056 306.904 172.7C306.904 167.534 309.226 165.554 311.782 165.554C313.15 165.554 314.14 166.13 314.86 166.904L313.96 167.93C313.438 167.3 312.646 166.922 311.836 166.922C310.036 166.922 308.506 168.308 308.434 172.412C309.244 171.422 310.396 170.81 311.44 170.81C313.672 170.81 315.094 172.196 315.094 174.95C315.094 177.506 313.366 179.234 311.314 179.234ZM316.708 174.59V173.33H321.316V174.59H316.708ZM326.872 179.234C324.802 179.234 323.506 178.37 322.642 177.434L323.47 176.354C324.244 177.164 325.252 177.866 326.746 177.866C328.312 177.866 329.428 176.93 329.428 175.4C329.428 173.834 328.366 172.772 325.324 172.772V171.512C328.042 171.512 328.978 170.414 328.978 168.992C328.978 167.732 328.114 166.904 326.746 166.904C325.684 166.904 324.748 167.426 324.01 168.182L323.128 167.138C324.118 166.22 325.288 165.554 326.818 165.554C329.032 165.554 330.652 166.778 330.652 168.866C330.652 170.468 329.698 171.53 328.312 172.052V172.124C329.86 172.484 331.102 173.672 331.102 175.472C331.102 177.83 329.212 179.234 326.872 179.234ZM336.802 179.234C334.75 179.234 333.49 178.37 332.608 177.488L333.418 176.408C334.174 177.164 335.128 177.866 336.658 177.866C338.206 177.866 339.466 176.678 339.466 174.752C339.466 172.862 338.386 171.746 336.73 171.746C335.848 171.746 335.29 172.016 334.534 172.52L333.652 171.98L334.066 165.788H340.492V167.21H335.506L335.182 171.026C335.776 170.702 336.352 170.504 337.144 170.504C339.34 170.504 341.122 171.8 341.122 174.698C341.122 177.596 339.034 179.234 336.802 179.234ZM351.251 174.716L352.349 174.896C351.557 177.416 349.451 179.378 346.409 180.296C346.283 180.062 345.995 179.684 345.833 179.486C347.327 179.054 348.605 178.352 349.559 177.47H348.659V173.834H346.319V172.844H352.025V173.834H349.775V177.254C350.477 176.534 350.999 175.67 351.251 174.716ZM346.895 174.572L347.921 174.788C347.633 175.886 347.075 176.984 346.499 177.74C346.301 177.578 345.887 177.29 345.635 177.164C346.229 176.48 346.661 175.526 346.895 174.572ZM354.995 169.118H353.789C353.807 169.64 353.843 170.18 353.879 170.684H356.651C356.129 170.288 355.301 169.802 354.599 169.496L354.995 169.118ZM356.435 172.61L357.659 172.898C357.083 174.482 356.309 175.886 355.337 177.074C355.967 178.352 356.687 179.09 357.443 179.09C357.857 179.09 358.037 178.406 358.127 176.714C358.397 176.948 358.811 177.182 359.135 177.29C358.937 179.612 358.487 180.278 357.353 180.278C356.219 180.278 355.247 179.45 354.491 178.028C353.591 178.964 352.583 179.738 351.467 180.386C351.287 180.134 350.837 179.684 350.567 179.45C351.863 178.784 353.015 177.92 353.969 176.858C353.411 175.472 353.015 173.744 352.781 171.818H345.491V173.672C345.491 175.67 345.257 178.496 343.925 180.422C343.709 180.224 343.133 179.882 342.827 179.756C344.087 177.938 344.249 175.472 344.249 173.672V170.684H352.655C352.619 170.18 352.583 169.64 352.565 169.118H343.241V167.984H346.103V164.762H347.363V167.984H350.603V163.952H351.917V165.464H357.317V166.526H351.917V167.984H358.973V169.118H355.931C356.525 169.424 357.119 169.766 357.497 170.09L356.921 170.684H358.793V171.818H353.987C354.167 173.33 354.455 174.662 354.833 175.796C355.499 174.842 356.039 173.78 356.435 172.61Z" fill="black"/>
<path d="M297.495 235V233.632H300.429V223.786H298.089V222.742C299.259 222.526 300.105 222.22 300.825 221.788H302.085V233.632H304.731V235H297.495ZM311.17 228.034C310.342 228.034 309.28 228.52 308.47 229.726C308.668 232.462 309.658 233.956 311.314 233.956C312.574 233.956 313.564 232.75 313.564 230.95C313.564 229.168 312.772 228.034 311.17 228.034ZM311.314 235.234C308.776 235.234 306.904 233.056 306.904 228.7C306.904 223.534 309.226 221.554 311.782 221.554C313.15 221.554 314.14 222.13 314.86 222.904L313.96 223.93C313.438 223.3 312.646 222.922 311.836 222.922C310.036 222.922 308.506 224.308 308.434 228.412C309.244 227.422 310.396 226.81 311.44 226.81C313.672 226.81 315.094 228.196 315.094 230.95C315.094 233.506 313.366 235.234 311.314 235.234ZM316.708 230.59V229.33H321.316V230.59H316.708ZM322.912 235V234.028C327.052 230.41 328.96 227.782 328.96 225.514C328.96 224.002 328.168 222.904 326.53 222.904C325.45 222.904 324.514 223.57 323.794 224.434L322.84 223.498C323.92 222.328 325.054 221.554 326.728 221.554C329.086 221.554 330.562 223.102 330.562 225.46C330.562 228.088 328.492 230.77 325.396 233.704C326.08 233.65 326.89 233.578 327.556 233.578H331.21V235H322.912ZM336.802 235.234C334.75 235.234 333.49 234.37 332.608 233.488L333.418 232.408C334.174 233.164 335.128 233.866 336.658 233.866C338.206 233.866 339.466 232.678 339.466 230.752C339.466 228.862 338.386 227.746 336.73 227.746C335.848 227.746 335.29 228.016 334.534 228.52L333.652 227.98L334.066 221.788H340.492V223.21H335.506L335.182 227.026C335.776 226.702 336.352 226.504 337.144 226.504C339.34 226.504 341.122 227.8 341.122 230.698C341.122 233.596 339.034 235.234 336.802 235.234ZM351.251 230.716L352.349 230.896C351.557 233.416 349.451 235.378 346.409 236.296C346.283 236.062 345.995 235.684 345.833 235.486C347.327 235.054 348.605 234.352 349.559 233.47H348.659V229.834H346.319V228.844H352.025V229.834H349.775V233.254C350.477 232.534 350.999 231.67 351.251 230.716ZM346.895 230.572L347.921 230.788C347.633 231.886 347.075 232.984 346.499 233.74C346.301 233.578 345.887 233.29 345.635 233.164C346.229 232.48 346.661 231.526 346.895 230.572ZM354.995 225.118H353.789C353.807 225.64 353.843 226.18 353.879 226.684H356.651C356.129 226.288 355.301 225.802 354.599 225.496L354.995 225.118ZM356.435 228.61L357.659 228.898C357.083 230.482 356.309 231.886 355.337 233.074C355.967 234.352 356.687 235.09 357.443 235.09C357.857 235.09 358.037 234.406 358.127 232.714C358.397 232.948 358.811 233.182 359.135 233.29C358.937 235.612 358.487 236.278 357.353 236.278C356.219 236.278 355.247 235.45 354.491 234.028C353.591 234.964 352.583 235.738 351.467 236.386C351.287 236.134 350.837 235.684 350.567 235.45C351.863 234.784 353.015 233.92 353.969 232.858C353.411 231.472 353.015 229.744 352.781 227.818H345.491V229.672C345.491 231.67 345.257 234.496 343.925 236.422C343.709 236.224 343.133 235.882 342.827 235.756C344.087 233.938 344.249 231.472 344.249 229.672V226.684H352.655C352.619 226.18 352.583 225.64 352.565 225.118H343.241V223.984H346.103V220.762H347.363V223.984H350.603V219.952H351.917V221.464H357.317V222.526H351.917V223.984H358.973V225.118H355.931C356.525 225.424 357.119 225.766 357.497 226.09L356.921 226.684H358.793V227.818H353.987C354.167 229.33 354.455 230.662 354.833 231.796C355.499 230.842 356.039 229.78 356.435 228.61Z" fill="black"/>
<rect x="375" y="94" width="281" height="40" fill="#FFEDED"/>
<rect x="375" y="94" width="213.691" height="40" fill="#FFA59B"/>
<path d="M390.72 123C390.787 121.72 390.9 120.54 391.06 119.46C391.22 118.367 391.447 117.34 391.74 116.38C392.033 115.407 392.413 114.453 392.88 113.52C393.36 112.587 393.953 111.633 394.66 110.66H388V108.18H397.84V109.98C396.987 111.02 396.293 112.02 395.76 112.98C395.24 113.94 394.84 114.913 394.56 115.9C394.293 116.887 394.093 117.953 393.96 119.1C393.84 120.247 393.747 121.547 393.68 123H390.72ZM405.117 123.28C404.424 123.28 403.75 123.133 403.097 122.84C402.457 122.547 401.89 122.1 401.397 121.5C400.904 120.887 400.51 120.113 400.217 119.18C399.937 118.233 399.797 117.107 399.797 115.8C399.797 114.427 399.95 113.24 400.257 112.24C400.577 111.24 401.004 110.427 401.537 109.8C402.07 109.16 402.677 108.687 403.357 108.38C404.05 108.073 404.777 107.92 405.537 107.92C406.444 107.92 407.224 108.087 407.877 108.42C408.544 108.74 409.097 109.133 409.537 109.6L407.977 111.36C407.724 111.067 407.39 110.813 406.977 110.6C406.564 110.387 406.144 110.28 405.717 110.28C405.117 110.28 404.57 110.453 404.077 110.8C403.597 111.147 403.21 111.72 402.917 112.52C402.624 113.32 402.477 114.413 402.477 115.8C402.477 117.08 402.59 118.107 402.817 118.88C403.057 119.64 403.37 120.193 403.757 120.54C404.144 120.887 404.577 121.06 405.057 121.06C405.43 121.06 405.764 120.96 406.057 120.76C406.364 120.547 406.61 120.24 406.797 119.84C406.984 119.427 407.077 118.92 407.077 118.32C407.077 117.733 406.984 117.253 406.797 116.88C406.624 116.507 406.377 116.227 406.057 116.04C405.75 115.853 405.384 115.76 404.957 115.76C404.557 115.76 404.137 115.887 403.697 116.14C403.257 116.38 402.85 116.807 402.477 117.42L402.337 115.44C402.604 115.067 402.917 114.747 403.277 114.48C403.65 114.213 404.03 114.013 404.417 113.88C404.817 113.747 405.177 113.68 405.497 113.68C406.324 113.68 407.057 113.847 407.697 114.18C408.35 114.513 408.857 115.02 409.217 115.7C409.577 116.38 409.757 117.253 409.757 118.32C409.757 119.333 409.544 120.213 409.117 120.96C408.704 121.693 408.144 122.267 407.437 122.68C406.73 123.08 405.957 123.28 405.117 123.28ZM413.854 123.28C413.32 123.28 412.88 123.093 412.534 122.72C412.187 122.347 412.014 121.893 412.014 121.36C412.014 120.8 412.187 120.34 412.534 119.98C412.88 119.62 413.32 119.44 413.854 119.44C414.374 119.44 414.807 119.62 415.154 119.98C415.5 120.34 415.674 120.8 415.674 121.36C415.674 121.893 415.5 122.347 415.154 122.72C414.807 123.093 414.374 123.28 413.854 123.28ZM423.838 123V113.9C423.838 113.473 423.851 112.967 423.878 112.38C423.904 111.78 423.931 111.26 423.958 110.82H423.858C423.684 111.22 423.498 111.62 423.298 112.02C423.098 112.42 422.891 112.827 422.678 113.24L420.378 116.92H428.338V119.16H417.518V117.16L423.038 108.18H426.578V123H423.838ZM430.535 123V120.6H433.735V111.26H431.035V109.42C431.781 109.287 432.421 109.127 432.955 108.94C433.501 108.74 434.008 108.487 434.475 108.18H436.655V120.6H439.435V123H430.535Z" fill="white"/>
<rect x="375" y="151" width="281" height="40" fill="#FFEDED"/>
<rect x="375" y="151" width="173.174" height="40" fill="#FFA59B"/>
<path d="M393.32 180.28C392.627 180.28 391.953 180.133 391.3 179.84C390.66 179.547 390.093 179.1 389.6 178.5C389.107 177.887 388.713 177.113 388.42 176.18C388.14 175.233 388 174.107 388 172.8C388 171.427 388.153 170.24 388.46 169.24C388.78 168.24 389.207 167.427 389.74 166.8C390.273 166.16 390.88 165.687 391.56 165.38C392.253 165.073 392.98 164.92 393.74 164.92C394.647 164.92 395.427 165.087 396.08 165.42C396.747 165.74 397.3 166.133 397.74 166.6L396.18 168.36C395.927 168.067 395.593 167.813 395.18 167.6C394.767 167.387 394.347 167.28 393.92 167.28C393.32 167.28 392.773 167.453 392.28 167.8C391.8 168.147 391.413 168.72 391.12 169.52C390.827 170.32 390.68 171.413 390.68 172.8C390.68 174.08 390.793 175.107 391.02 175.88C391.26 176.64 391.573 177.193 391.96 177.54C392.347 177.887 392.78 178.06 393.26 178.06C393.633 178.06 393.967 177.96 394.26 177.76C394.567 177.547 394.813 177.24 395 176.84C395.187 176.427 395.28 175.92 395.28 175.32C395.28 174.733 395.187 174.253 395 173.88C394.827 173.507 394.58 173.227 394.26 173.04C393.953 172.853 393.587 172.76 393.16 172.76C392.76 172.76 392.34 172.887 391.9 173.14C391.46 173.38 391.053 173.807 390.68 174.42L390.54 172.44C390.807 172.067 391.12 171.747 391.48 171.48C391.853 171.213 392.233 171.013 392.62 170.88C393.02 170.747 393.38 170.68 393.7 170.68C394.527 170.68 395.26 170.847 395.9 171.18C396.553 171.513 397.06 172.02 397.42 172.7C397.78 173.38 397.96 174.253 397.96 175.32C397.96 176.333 397.747 177.213 397.32 177.96C396.907 178.693 396.347 179.267 395.64 179.68C394.933 180.08 394.16 180.28 393.32 180.28ZM400.437 180V177.6H403.637V168.26H400.937V166.42C401.684 166.287 402.324 166.127 402.857 165.94C403.404 165.74 403.91 165.487 404.377 165.18H406.557V177.6H409.337V180H400.437ZM413.854 180.28C413.32 180.28 412.88 180.093 412.534 179.72C412.187 179.347 412.014 178.893 412.014 178.36C412.014 177.8 412.187 177.34 412.534 176.98C412.88 176.62 413.32 176.44 413.854 176.44C414.374 176.44 414.807 176.62 415.154 176.98C415.5 177.34 415.674 177.8 415.674 178.36C415.674 178.893 415.5 179.347 415.154 179.72C414.807 180.093 414.374 180.28 413.854 180.28ZM422.198 180.28C421.278 180.28 420.478 180.113 419.798 179.78C419.131 179.447 418.578 179.053 418.138 178.6L419.698 176.82C419.964 177.127 420.311 177.38 420.738 177.58C421.164 177.78 421.598 177.88 422.038 177.88C422.464 177.88 422.871 177.787 423.258 177.6C423.644 177.4 423.978 177.087 424.258 176.66C424.551 176.22 424.778 175.64 424.938 174.92C425.111 174.2 425.198 173.313 425.198 172.26C425.198 170.993 425.078 169.987 424.838 169.24C424.611 168.493 424.304 167.96 423.918 167.64C423.531 167.307 423.091 167.14 422.598 167.14C422.238 167.14 421.904 167.24 421.598 167.44C421.291 167.64 421.044 167.94 420.858 168.34C420.684 168.74 420.598 169.247 420.598 169.86C420.598 170.433 420.684 170.913 420.858 171.3C421.031 171.673 421.271 171.953 421.578 172.14C421.898 172.327 422.271 172.42 422.698 172.42C423.111 172.42 423.538 172.293 423.978 172.04C424.418 171.787 424.818 171.36 425.178 170.76L425.318 172.74C425.064 173.1 424.751 173.413 424.378 173.68C424.018 173.947 423.644 174.153 423.258 174.3C422.871 174.447 422.498 174.52 422.138 174.52C421.324 174.52 420.598 174.353 419.958 174.02C419.318 173.673 418.811 173.16 418.438 172.48C418.078 171.787 417.898 170.913 417.898 169.86C417.898 168.847 418.111 167.973 418.538 167.24C418.964 166.493 419.531 165.92 420.238 165.52C420.944 165.12 421.718 164.92 422.558 164.92C423.264 164.92 423.931 165.067 424.558 165.36C425.198 165.64 425.764 166.08 426.258 166.68C426.764 167.267 427.158 168.027 427.438 168.96C427.731 169.88 427.878 170.98 427.878 172.26C427.878 173.66 427.724 174.867 427.418 175.88C427.111 176.88 426.684 177.707 426.138 178.36C425.604 179.013 424.998 179.5 424.318 179.82C423.638 180.127 422.931 180.28 422.198 180.28ZM434.795 180.28C433.848 180.28 433.001 180.113 432.255 179.78C431.508 179.447 430.915 178.98 430.475 178.38C430.048 177.78 429.835 177.093 429.835 176.32C429.835 175.68 429.948 175.12 430.175 174.64C430.415 174.147 430.728 173.72 431.115 173.36C431.501 173 431.921 172.7 432.375 172.46V172.36C431.815 171.96 431.348 171.473 430.975 170.9C430.601 170.313 430.415 169.633 430.415 168.86C430.415 168.06 430.608 167.367 430.995 166.78C431.381 166.193 431.908 165.74 432.575 165.42C433.255 165.1 434.021 164.94 434.875 164.94C435.755 164.94 436.515 165.107 437.155 165.44C437.795 165.76 438.288 166.213 438.635 166.8C438.995 167.387 439.175 168.08 439.175 168.88C439.175 169.36 439.081 169.813 438.895 170.24C438.721 170.667 438.488 171.053 438.195 171.4C437.915 171.733 437.608 172.02 437.275 172.26V172.36C437.741 172.6 438.161 172.9 438.535 173.26C438.908 173.62 439.208 174.053 439.435 174.56C439.661 175.053 439.775 175.64 439.775 176.32C439.775 177.067 439.561 177.74 439.135 178.34C438.721 178.94 438.141 179.413 437.395 179.76C436.648 180.107 435.781 180.28 434.795 180.28ZM435.715 171.54C436.075 171.153 436.341 170.753 436.515 170.34C436.688 169.927 436.775 169.5 436.775 169.06C436.775 168.66 436.695 168.307 436.535 168C436.388 167.68 436.168 167.433 435.875 167.26C435.581 167.087 435.228 167 434.815 167C434.308 167 433.881 167.16 433.535 167.48C433.188 167.8 433.015 168.26 433.015 168.86C433.015 169.313 433.128 169.707 433.355 170.04C433.595 170.36 433.921 170.64 434.335 170.88C434.748 171.107 435.208 171.327 435.715 171.54ZM434.855 178.2C435.281 178.2 435.655 178.127 435.975 177.98C436.308 177.82 436.568 177.593 436.755 177.3C436.941 176.993 437.035 176.633 437.035 176.22C437.035 175.833 436.948 175.5 436.775 175.22C436.615 174.927 436.388 174.673 436.095 174.46C435.801 174.233 435.455 174.027 435.055 173.84C434.655 173.653 434.215 173.453 433.735 173.24C433.335 173.573 433.008 173.98 432.755 174.46C432.501 174.927 432.375 175.44 432.375 176C432.375 176.44 432.481 176.827 432.695 177.16C432.921 177.48 433.221 177.733 433.595 177.92C433.968 178.107 434.388 178.2 434.855 178.2Z" fill="white"/>
<rect x="375" y="208" width="281" height="40" fill="#FFEDED"/>
<rect x="375" y="208" width="148.995" height="40" fill="#FFA59B"/>
<path d="M392.54 237.28C391.753 237.28 391.053 237.187 390.44 237C389.827 236.813 389.28 236.567 388.8 236.26C388.32 235.953 387.893 235.62 387.52 235.26L388.88 233.38C389.16 233.66 389.46 233.913 389.78 234.14C390.113 234.367 390.473 234.547 390.86 234.68C391.26 234.813 391.687 234.88 392.14 234.88C392.647 234.88 393.093 234.773 393.48 234.56C393.88 234.347 394.193 234.04 394.42 233.64C394.647 233.227 394.76 232.733 394.76 232.16C394.76 231.307 394.527 230.647 394.06 230.18C393.607 229.713 393.007 229.48 392.26 229.48C391.833 229.48 391.467 229.54 391.16 229.66C390.853 229.767 390.48 229.96 390.04 230.24L388.7 229.38L389.1 222.18H397.02V224.66H391.64L391.36 227.8C391.653 227.667 391.94 227.567 392.22 227.5C392.5 227.433 392.807 227.4 393.14 227.4C393.967 227.4 394.727 227.567 395.42 227.9C396.113 228.22 396.667 228.727 397.08 229.42C397.493 230.113 397.7 231 397.7 232.08C397.7 233.173 397.453 234.113 396.96 234.9C396.48 235.673 395.847 236.267 395.06 236.68C394.287 237.08 393.447 237.28 392.54 237.28ZM404.257 237.28C403.484 237.28 402.79 237.187 402.177 237C401.564 236.827 401.017 236.587 400.537 236.28C400.07 235.96 399.664 235.607 399.317 235.22L400.697 233.36C401.15 233.773 401.644 234.133 402.177 234.44C402.724 234.733 403.33 234.88 403.997 234.88C404.504 234.88 404.944 234.8 405.317 234.64C405.704 234.48 405.997 234.247 406.197 233.94C406.41 233.633 406.517 233.26 406.517 232.82C406.517 232.327 406.397 231.907 406.157 231.56C405.93 231.2 405.524 230.927 404.937 230.74C404.35 230.553 403.524 230.46 402.457 230.46V228.34C403.364 228.34 404.077 228.247 404.597 228.06C405.117 227.86 405.484 227.593 405.697 227.26C405.924 226.913 406.037 226.52 406.037 226.08C406.037 225.507 405.864 225.06 405.517 224.74C405.17 224.407 404.684 224.24 404.057 224.24C403.537 224.24 403.05 224.36 402.597 224.6C402.157 224.827 401.717 225.14 401.277 225.54L399.757 223.72C400.41 223.173 401.097 222.74 401.817 222.42C402.537 222.087 403.33 221.92 404.197 221.92C405.144 221.92 405.977 222.073 406.697 222.38C407.43 222.687 407.997 223.133 408.397 223.72C408.797 224.307 408.997 225.02 408.997 225.86C408.997 226.66 408.784 227.347 408.357 227.92C407.93 228.493 407.324 228.933 406.537 229.24V229.34C407.084 229.487 407.577 229.727 408.017 230.06C408.47 230.38 408.824 230.787 409.077 231.28C409.344 231.773 409.477 232.347 409.477 233C409.477 233.893 409.237 234.66 408.757 235.3C408.29 235.94 407.657 236.433 406.857 236.78C406.07 237.113 405.204 237.28 404.257 237.28ZM413.854 237.28C413.32 237.28 412.88 237.093 412.534 236.72C412.187 236.347 412.014 235.893 412.014 235.36C412.014 234.8 412.187 234.34 412.534 233.98C412.88 233.62 413.32 233.44 413.854 233.44C414.374 233.44 414.807 233.62 415.154 233.98C415.5 234.34 415.674 234.8 415.674 235.36C415.674 235.893 415.5 236.347 415.154 236.72C414.807 237.093 414.374 237.28 413.854 237.28ZM417.958 237V235.3C419.304 234.1 420.451 232.987 421.398 231.96C422.358 230.933 423.091 229.98 423.598 229.1C424.104 228.207 424.358 227.38 424.358 226.62C424.358 226.14 424.271 225.72 424.098 225.36C423.924 225 423.671 224.727 423.338 224.54C423.018 224.34 422.618 224.24 422.138 224.24C421.604 224.24 421.111 224.393 420.658 224.7C420.218 224.993 419.811 225.347 419.438 225.76L417.798 224.18C418.491 223.433 419.198 222.873 419.918 222.5C420.651 222.113 421.518 221.92 422.518 221.92C423.451 221.92 424.264 222.113 424.958 222.5C425.664 222.873 426.211 223.4 426.598 224.08C426.984 224.76 427.178 225.56 427.178 226.48C427.178 227.373 426.951 228.287 426.498 229.22C426.058 230.14 425.464 231.06 424.718 231.98C423.971 232.9 423.144 233.807 422.238 234.7C422.624 234.647 423.038 234.607 423.478 234.58C423.931 234.54 424.331 234.52 424.678 234.52H427.878V237H417.958ZM433.995 237.28C433.075 237.28 432.275 237.113 431.595 236.78C430.928 236.447 430.375 236.053 429.935 235.6L431.495 233.82C431.761 234.127 432.108 234.38 432.535 234.58C432.961 234.78 433.395 234.88 433.835 234.88C434.261 234.88 434.668 234.787 435.055 234.6C435.441 234.4 435.775 234.087 436.055 233.66C436.348 233.22 436.575 232.64 436.735 231.92C436.908 231.2 436.995 230.313 436.995 229.26C436.995 227.993 436.875 226.987 436.635 226.24C436.408 225.493 436.101 224.96 435.715 224.64C435.328 224.307 434.888 224.14 434.395 224.14C434.035 224.14 433.701 224.24 433.395 224.44C433.088 224.64 432.841 224.94 432.655 225.34C432.481 225.74 432.395 226.247 432.395 226.86C432.395 227.433 432.481 227.913 432.655 228.3C432.828 228.673 433.068 228.953 433.375 229.14C433.695 229.327 434.068 229.42 434.495 229.42C434.908 229.42 435.335 229.293 435.775 229.04C436.215 228.787 436.615 228.36 436.975 227.76L437.115 229.74C436.861 230.1 436.548 230.413 436.175 230.68C435.815 230.947 435.441 231.153 435.055 231.3C434.668 231.447 434.295 231.52 433.935 231.52C433.121 231.52 432.395 231.353 431.755 231.02C431.115 230.673 430.608 230.16 430.235 229.48C429.875 228.787 429.695 227.913 429.695 226.86C429.695 225.847 429.908 224.973 430.335 224.24C430.761 223.493 431.328 222.92 432.035 222.52C432.741 222.12 433.515 221.92 434.355 221.92C435.061 221.92 435.728 222.067 436.355 222.36C436.995 222.64 437.561 223.08 438.055 223.68C438.561 224.267 438.955 225.027 439.235 225.96C439.528 226.88 439.675 227.98 439.675 229.26C439.675 230.66 439.521 231.867 439.215 232.88C438.908 233.88 438.481 234.707 437.935 235.36C437.401 236.013 436.795 236.5 436.115 236.82C435.435 237.127 434.728 237.28 433.995 237.28Z" fill="white"/>
<path d="M319.585 86.94C318.895 85.82 318.355 84.645 317.965 83.415C317.575 82.175 317.38 80.815 317.38 79.335C317.38 77.865 317.575 76.51 317.965 75.27C318.355 74.03 318.895 72.85 319.585 71.73L320.425 72.12C319.785 73.19 319.305 74.345 318.985 75.585C318.675 76.815 318.52 78.065 318.52 79.335C318.52 80.615 318.675 81.875 318.985 83.115C319.305 84.345 319.785 85.495 320.425 86.565L319.585 86.94ZM324.143 79.74C323.643 79.74 323.203 79.605 322.823 79.335C322.453 79.055 322.163 78.655 321.953 78.135C321.753 77.615 321.653 76.985 321.653 76.245C321.653 75.505 321.753 74.88 321.953 74.37C322.163 73.86 322.453 73.475 322.823 73.215C323.203 72.945 323.643 72.81 324.143 72.81C324.653 72.81 325.093 72.945 325.463 73.215C325.843 73.475 326.133 73.86 326.333 74.37C326.543 74.88 326.648 75.505 326.648 76.245C326.648 76.985 326.543 77.615 326.333 78.135C326.133 78.655 325.843 79.055 325.463 79.335C325.093 79.605 324.653 79.74 324.143 79.74ZM324.143 78.9C324.583 78.9 324.933 78.68 325.193 78.24C325.463 77.79 325.598 77.125 325.598 76.245C325.598 75.365 325.463 74.715 325.193 74.295C324.933 73.865 324.583 73.65 324.143 73.65C323.713 73.65 323.363 73.865 323.093 74.295C322.823 74.715 322.688 75.365 322.688 76.245C322.688 77.125 322.823 77.79 323.093 78.24C323.363 78.68 323.713 78.9 324.143 78.9ZM324.458 84.195L330.533 72.81H331.463L325.388 84.195H324.458ZM331.808 84.195C331.308 84.195 330.868 84.06 330.488 83.79C330.118 83.52 329.828 83.125 329.618 82.605C329.418 82.085 329.318 81.455 329.318 80.715C329.318 79.975 329.418 79.35 329.618 78.84C329.828 78.33 330.118 77.94 330.488 77.67C330.868 77.4 331.308 77.265 331.808 77.265C332.308 77.265 332.743 77.4 333.113 77.67C333.493 77.94 333.783 78.33 333.983 78.84C334.193 79.35 334.298 79.975 334.298 80.715C334.298 81.455 334.193 82.085 333.983 82.605C333.783 83.125 333.493 83.52 333.113 83.79C332.743 84.06 332.308 84.195 331.808 84.195ZM331.808 83.355C332.238 83.355 332.588 83.135 332.858 82.695C333.138 82.255 333.278 81.595 333.278 80.715C333.278 79.835 333.138 79.18 332.858 78.75C332.588 78.32 332.238 78.105 331.808 78.105C331.378 78.105 331.023 78.32 330.743 78.75C330.473 79.18 330.338 79.835 330.338 80.715C330.338 81.595 330.473 82.255 330.743 82.695C331.023 83.135 331.378 83.355 331.808 83.355ZM336.367 86.94L335.512 86.565C336.162 85.495 336.647 84.345 336.967 83.115C337.287 81.875 337.447 80.615 337.447 79.335C337.447 78.065 337.287 76.815 336.967 75.585C336.647 74.345 336.162 73.19 335.512 72.12L336.367 71.73C337.067 72.85 337.607 74.03 337.987 75.27C338.377 76.51 338.572 77.865 338.572 79.335C338.572 80.815 338.377 82.175 337.987 83.415C337.607 84.645 337.067 85.82 336.367 86.94Z" fill="#4C4C4C"/>
<circle cx="141" cy="39" r="39" fill="#0095CC"/>
<path d="M134.224 32.852V34.84H147.608V32.852H134.224ZM134.224 28.372V30.276H147.608V28.372H134.224ZM130.864 25.6H151.108V37.612H130.864V25.6ZM139.18 26.916H142.568V36.212H139.18V26.916ZM128.988 39.572H150.156V42.568H128.988V39.572ZM148.644 39.572H152.06C152.06 39.572 152.051 39.656 152.032 39.824C152.032 39.9733 152.023 40.1507 152.004 40.356C152.004 40.5613 151.995 40.7387 151.976 40.888C151.827 42.6053 151.659 44.024 151.472 45.144C151.285 46.264 151.071 47.16 150.828 47.832C150.604 48.4853 150.333 48.9613 150.016 49.26C149.643 49.6333 149.232 49.8947 148.784 50.044C148.355 50.212 147.841 50.3147 147.244 50.352C146.74 50.3893 146.087 50.408 145.284 50.408C144.481 50.408 143.641 50.3987 142.764 50.38C142.727 49.9133 142.605 49.3907 142.4 48.812C142.213 48.2333 141.971 47.7293 141.672 47.3C142.531 47.3747 143.361 47.4213 144.164 47.44C144.967 47.4587 145.555 47.468 145.928 47.468C146.208 47.468 146.441 47.4587 146.628 47.44C146.833 47.4027 147.011 47.3187 147.16 47.188C147.384 47.0013 147.58 46.6373 147.748 46.096C147.935 45.536 148.093 44.7613 148.224 43.772C148.373 42.7827 148.504 41.532 148.616 40.02L148.644 39.572ZM138.676 37.052H142.204C142.055 38.3213 141.849 39.5347 141.588 40.692C141.327 41.8307 140.935 42.8947 140.412 43.884C139.889 44.8733 139.171 45.788 138.256 46.628C137.36 47.4493 136.203 48.1867 134.784 48.84C133.365 49.4933 131.62 50.044 129.548 50.492C129.455 50.1933 129.305 49.8667 129.1 49.512C128.913 49.1573 128.708 48.8027 128.484 48.448C128.26 48.0933 128.027 47.7947 127.784 47.552C129.669 47.1973 131.237 46.768 132.488 46.264C133.739 45.76 134.747 45.1907 135.512 44.556C136.296 43.9213 136.893 43.2213 137.304 42.456C137.715 41.672 138.023 40.832 138.228 39.936C138.433 39.0213 138.583 38.06 138.676 37.052Z" fill="white"/>
<circle cx="500" cy="39" r="39" fill="#FFA59B"/>
<path d="M487.54 30.444H512.6V34.056H487.54V30.444ZM505.88 27.672L509.464 28.512C509.035 31.2747 508.456 33.7293 507.728 35.876C507 38.004 506.095 39.8613 505.012 41.448C503.948 43.0347 502.669 44.3973 501.176 45.536C499.683 46.6747 497.937 47.636 495.94 48.42C493.943 49.204 491.647 49.848 489.052 50.352C488.865 49.8667 488.585 49.3067 488.212 48.672C487.839 48.056 487.456 47.5333 487.064 47.104C489.509 46.6933 491.665 46.1613 493.532 45.508C495.399 44.836 497.013 44.0147 498.376 43.044C499.757 42.0547 500.933 40.8507 501.904 39.432C502.875 37.9947 503.677 36.3147 504.312 34.392C504.965 32.4507 505.488 30.2107 505.88 27.672ZM490.256 40.664C490.872 39.5813 491.497 38.368 492.132 37.024C492.767 35.68 493.383 34.2707 493.98 32.796C494.577 31.3213 495.128 29.8373 495.632 28.344C496.136 26.8507 496.565 25.4133 496.92 24.032L500.532 24.536C500.177 25.9547 499.757 27.42 499.272 28.932C498.787 30.4253 498.264 31.9 497.704 33.356C497.163 34.7933 496.612 36.1653 496.052 37.472C495.511 38.76 494.997 39.9173 494.512 40.944L490.256 40.664ZM490.256 40.664L492.496 37.92C494.344 38.6293 496.201 39.3947 498.068 40.216C499.935 41.0373 501.745 41.868 503.5 42.708C505.273 43.5293 506.925 44.3413 508.456 45.144C509.987 45.9467 511.321 46.6747 512.46 47.328L509.8 50.548C508.699 49.8387 507.411 49.064 505.936 48.224C504.461 47.384 502.865 46.5253 501.148 45.648C499.449 44.752 497.676 43.884 495.828 43.044C493.98 42.1853 492.123 41.392 490.256 40.664Z" fill="white"/>
</svg>
