<svg width="316" height="328" viewBox="0 0 316 328" fill="none" xmlns="http://www.w3.org/2000/svg">
<path d="M135.204 74.195C134.634 74.195 134.129 74.125 133.689 73.985C133.259 73.845 132.879 73.66 132.549 73.43C132.219 73.2 131.934 72.95 131.694 72.68L132.399 71.795C132.719 72.125 133.094 72.42 133.524 72.68C133.964 72.93 134.494 73.055 135.114 73.055C135.554 73.055 135.939 72.975 136.269 72.815C136.609 72.645 136.874 72.41 137.064 72.11C137.254 71.8 137.349 71.435 137.349 71.015C137.349 70.575 137.239 70.19 137.019 69.86C136.809 69.53 136.454 69.275 135.954 69.095C135.454 68.905 134.779 68.81 133.929 68.81V67.76C134.689 67.76 135.289 67.67 135.729 67.49C136.169 67.3 136.484 67.045 136.674 66.725C136.874 66.405 136.974 66.05 136.974 65.66C136.974 65.13 136.809 64.71 136.479 64.4C136.149 64.08 135.694 63.92 135.114 63.92C134.674 63.92 134.259 64.02 133.869 64.22C133.489 64.42 133.144 64.675 132.834 64.985L132.099 64.115C132.519 63.735 132.974 63.425 133.464 63.185C133.964 62.935 134.529 62.81 135.159 62.81C135.779 62.81 136.329 62.92 136.809 63.14C137.299 63.35 137.679 63.66 137.949 64.07C138.229 64.48 138.369 64.975 138.369 65.555C138.369 66.225 138.189 66.78 137.829 67.22C137.469 67.66 136.999 67.985 136.419 68.195V68.27C136.849 68.37 137.239 68.545 137.589 68.795C137.939 69.045 138.219 69.36 138.429 69.74C138.639 70.12 138.744 70.56 138.744 71.06C138.744 71.71 138.584 72.27 138.264 72.74C137.944 73.21 137.519 73.57 136.989 73.82C136.459 74.07 135.864 74.195 135.204 74.195ZM144.095 74.195C143.575 74.195 143.09 74.085 142.64 73.865C142.19 73.635 141.8 73.295 141.47 72.845C141.14 72.385 140.88 71.815 140.69 71.135C140.51 70.455 140.42 69.66 140.42 68.75C140.42 67.68 140.53 66.765 140.75 66.005C140.97 65.245 141.27 64.63 141.65 64.16C142.03 63.69 142.465 63.35 142.955 63.14C143.445 62.92 143.955 62.81 144.485 62.81C145.055 62.81 145.55 62.915 145.97 63.125C146.39 63.335 146.755 63.605 147.065 63.935L146.285 64.775C146.075 64.515 145.815 64.31 145.505 64.16C145.195 64.01 144.875 63.935 144.545 63.935C144.025 63.935 143.55 64.09 143.12 64.4C142.69 64.7 142.345 65.2 142.085 65.9C141.835 66.6 141.71 67.55 141.71 68.75C141.71 69.69 141.8 70.485 141.98 71.135C142.17 71.785 142.44 72.28 142.79 72.62C143.15 72.95 143.585 73.115 144.095 73.115C144.455 73.115 144.77 73.01 145.04 72.8C145.32 72.59 145.54 72.3 145.7 71.93C145.87 71.55 145.955 71.115 145.955 70.625C145.955 70.125 145.88 69.695 145.73 69.335C145.59 68.965 145.375 68.685 145.085 68.495C144.795 68.295 144.425 68.195 143.975 68.195C143.625 68.195 143.245 68.31 142.835 68.54C142.425 68.76 142.035 69.145 141.665 69.695L141.62 68.615C141.85 68.315 142.105 68.06 142.385 67.85C142.665 67.63 142.96 67.465 143.27 67.355C143.59 67.235 143.9 67.175 144.2 67.175C144.82 67.175 145.355 67.305 145.805 67.565C146.265 67.815 146.62 68.195 146.87 68.705C147.13 69.215 147.26 69.855 147.26 70.625C147.26 71.335 147.115 71.96 146.825 72.5C146.535 73.03 146.15 73.445 145.67 73.745C145.2 74.045 144.675 74.195 144.095 74.195ZM148.59 70.325V69.275H152.445V70.325H148.59ZM158.2 74V66.5C158.2 66.23 158.21 65.9 158.23 65.51C158.25 65.12 158.265 64.785 158.275 64.505H158.215C158.075 64.765 157.93 65.035 157.78 65.315C157.64 65.585 157.49 65.855 157.33 66.125L154.825 69.875H160.96V70.97H153.4V70.07L157.975 63.005H159.49V74H158.2ZM165.35 74.195C164.78 74.195 164.275 74.125 163.835 73.985C163.405 73.845 163.025 73.665 162.695 73.445C162.375 73.225 162.085 72.99 161.825 72.74L162.515 71.84C162.725 72.05 162.955 72.25 163.205 72.44C163.465 72.62 163.76 72.77 164.09 72.89C164.42 73 164.795 73.055 165.215 73.055C165.645 73.055 166.035 72.95 166.385 72.74C166.745 72.53 167.03 72.23 167.24 71.84C167.45 71.45 167.555 70.99 167.555 70.46C167.555 69.68 167.345 69.07 166.925 68.63C166.515 68.18 165.965 67.955 165.275 67.955C164.915 67.955 164.6 68.01 164.33 68.12C164.06 68.23 163.765 68.39 163.445 68.6L162.71 68.135L163.07 63.005H168.41V64.175H164.27L163.985 67.355C164.225 67.215 164.475 67.11 164.735 67.04C165.005 66.96 165.305 66.92 165.635 66.92C166.245 66.92 166.8 67.045 167.3 67.295C167.8 67.535 168.2 67.915 168.5 68.435C168.8 68.955 168.95 69.62 168.95 70.43C168.95 71.23 168.775 71.91 168.425 72.47C168.085 73.03 167.64 73.46 167.09 73.76C166.54 74.05 165.96 74.195 165.35 74.195ZM178.471 65.465H179.506C179.526 66.705 179.621 67.85 179.791 68.9C179.971 69.95 180.201 70.865 180.481 71.645C180.771 72.425 181.096 73.03 181.456 73.46C181.816 73.89 182.191 74.105 182.581 74.105C182.751 74.105 182.876 73.95 182.956 73.64C183.046 73.33 183.111 72.82 183.151 72.11C183.251 72.21 183.381 72.31 183.541 72.41C183.711 72.5 183.861 72.565 183.991 72.605C183.941 73.255 183.861 73.76 183.751 74.12C183.641 74.49 183.486 74.75 183.286 74.9C183.086 75.05 182.826 75.125 182.506 75.125C182.036 75.125 181.596 74.96 181.186 74.63C180.786 74.3 180.426 73.84 180.106 73.25C179.786 72.66 179.506 71.965 179.266 71.165C179.036 70.355 178.851 69.47 178.711 68.51C178.581 67.54 178.501 66.525 178.471 65.465ZM180.196 66.05L180.751 65.495C181.091 65.625 181.436 65.79 181.786 65.99C182.146 66.18 182.426 66.365 182.626 66.545L182.041 67.16C181.851 66.98 181.576 66.785 181.216 66.575C180.866 66.365 180.526 66.19 180.196 66.05ZM181.726 68.69L182.761 68.915C182.251 70.335 181.551 71.57 180.661 72.62C179.771 73.67 178.741 74.53 177.571 75.2C177.521 75.13 177.451 75.045 177.361 74.945C177.271 74.845 177.176 74.745 177.076 74.645C176.976 74.555 176.886 74.475 176.806 74.405C177.956 73.835 178.956 73.06 179.806 72.08C180.656 71.1 181.296 69.97 181.726 68.69ZM173.731 70.325L174.586 70.505C174.456 70.965 174.286 71.415 174.076 71.855C173.866 72.295 173.636 72.67 173.386 72.98C173.306 72.92 173.191 72.84 173.041 72.74C172.891 72.64 172.766 72.56 172.666 72.5C172.916 72.21 173.131 71.875 173.311 71.495C173.491 71.115 173.631 70.725 173.731 70.325ZM172.066 67.055H183.721V68H172.066V67.055ZM173.236 68.87H178.021V69.71H173.236V68.87ZM170.641 64.775H183.856V65.735H170.641V64.775ZM177.481 62.69H182.476V63.56H177.481V62.69ZM171.496 67.055H172.546V69.575C172.546 69.995 172.526 70.45 172.486 70.94C172.456 71.43 172.391 71.93 172.291 72.44C172.201 72.94 172.071 73.43 171.901 73.91C171.731 74.39 171.506 74.83 171.226 75.23C171.166 75.17 171.076 75.105 170.956 75.035C170.846 74.965 170.731 74.895 170.611 74.825C170.491 74.765 170.386 74.72 170.296 74.69C170.656 74.18 170.921 73.625 171.091 73.025C171.261 72.425 171.371 71.825 171.421 71.225C171.471 70.625 171.496 70.07 171.496 69.56V67.055ZM176.836 61.4H177.946V65.24H176.836V61.4ZM173.056 62.075H174.121V65.285H173.056V62.075ZM177.376 70.445L178.306 70.595C177.976 71.655 177.381 72.58 176.521 73.37C175.661 74.16 174.596 74.745 173.326 75.125C173.266 75.035 173.186 74.915 173.086 74.765C172.996 74.625 172.911 74.515 172.831 74.435C174.021 74.095 175.016 73.58 175.816 72.89C176.616 72.19 177.136 71.375 177.376 70.445ZM175.186 69.425H176.131V72.755H175.186V69.425Z" fill="black"/>
<rect x="156" y="136" width="156" height="49.9999" transform="rotate(180 156 136)" fill="#E8FDFF"/>
<rect x="160" y="86" width="156" height="50" fill="#FFEDED"/>
<rect x="160" y="86" width="118.633" height="50" fill="#FFA59B"/>
<path d="M171.348 119C171.408 117.848 171.51 116.786 171.654 115.814C171.798 114.83 172.002 113.906 172.266 113.042C172.53 112.166 172.872 111.308 173.292 110.468C173.724 109.628 174.258 108.77 174.894 107.894H168.9V105.662H177.756V107.282C176.988 108.218 176.364 109.118 175.884 109.982C175.416 110.846 175.056 111.722 174.804 112.61C174.564 113.498 174.384 114.458 174.264 115.49C174.156 116.522 174.072 117.692 174.012 119H171.348ZM184.305 119.252C183.681 119.252 183.075 119.12 182.487 118.856C181.911 118.592 181.401 118.19 180.957 117.65C180.513 117.098 180.159 116.402 179.895 115.562C179.643 114.71 179.517 113.696 179.517 112.52C179.517 111.284 179.655 110.216 179.931 109.316C180.219 108.416 180.603 107.684 181.083 107.12C181.563 106.544 182.109 106.118 182.721 105.842C183.345 105.566 183.999 105.428 184.683 105.428C185.499 105.428 186.201 105.578 186.789 105.878C187.389 106.166 187.887 106.52 188.283 106.94L186.879 108.524C186.651 108.26 186.351 108.032 185.979 107.84C185.607 107.648 185.229 107.552 184.845 107.552C184.305 107.552 183.813 107.708 183.369 108.02C182.937 108.332 182.589 108.848 182.325 109.568C182.061 110.288 181.929 111.272 181.929 112.52C181.929 113.672 182.031 114.596 182.235 115.292C182.451 115.976 182.733 116.474 183.081 116.786C183.429 117.098 183.819 117.254 184.251 117.254C184.587 117.254 184.887 117.164 185.151 116.984C185.427 116.792 185.649 116.516 185.817 116.156C185.985 115.784 186.069 115.328 186.069 114.788C186.069 114.26 185.985 113.828 185.817 113.492C185.661 113.156 185.439 112.904 185.151 112.736C184.875 112.568 184.545 112.484 184.161 112.484C183.801 112.484 183.423 112.598 183.027 112.826C182.631 113.042 182.265 113.426 181.929 113.978L181.803 112.196C182.043 111.86 182.325 111.572 182.649 111.332C182.985 111.092 183.327 110.912 183.675 110.792C184.035 110.672 184.359 110.612 184.647 110.612C185.391 110.612 186.051 110.762 186.627 111.062C187.215 111.362 187.671 111.818 187.995 112.43C188.319 113.042 188.481 113.828 188.481 114.788C188.481 115.7 188.289 116.492 187.905 117.164C187.533 117.824 187.029 118.34 186.393 118.712C185.757 119.072 185.061 119.252 184.305 119.252ZM192.168 119.252C191.688 119.252 191.292 119.084 190.98 118.748C190.668 118.412 190.512 118.004 190.512 117.524C190.512 117.02 190.668 116.606 190.98 116.282C191.292 115.958 191.688 115.796 192.168 115.796C192.636 115.796 193.026 115.958 193.338 116.282C193.65 116.606 193.806 117.02 193.806 117.524C193.806 118.004 193.65 118.412 193.338 118.748C193.026 119.084 192.636 119.252 192.168 119.252ZM201.154 119V110.81C201.154 110.426 201.166 109.97 201.19 109.442C201.214 108.902 201.238 108.434 201.262 108.038H201.172C201.016 108.398 200.848 108.758 200.668 109.118C200.488 109.478 200.302 109.844 200.11 110.216L198.04 113.528H205.204V115.544H195.466V113.744L200.434 105.662H203.62V119H201.154ZM207.181 119V116.84H210.061V108.434H207.631V106.778C208.303 106.658 208.879 106.514 209.359 106.346C209.851 106.166 210.307 105.938 210.727 105.662H212.689V116.84H215.191V119H207.181Z" fill="white"/>
<rect x="156.07" y="136" width="87.0698" height="50" transform="rotate(180 156.07 136)" fill="#0095CC"/>
<path d="M103.986 119.252C103.278 119.252 102.648 119.168 102.096 119C101.544 118.832 101.052 118.61 100.62 118.334C100.188 118.058 99.804 117.758 99.468 117.434L100.692 115.742C100.944 115.994 101.214 116.222 101.502 116.426C101.802 116.63 102.126 116.792 102.474 116.912C102.834 117.032 103.218 117.092 103.626 117.092C104.082 117.092 104.484 116.996 104.832 116.804C105.192 116.612 105.474 116.336 105.678 115.976C105.882 115.604 105.984 115.16 105.984 114.644C105.984 113.876 105.774 113.282 105.354 112.862C104.946 112.442 104.406 112.232 103.734 112.232C103.35 112.232 103.02 112.286 102.744 112.394C102.468 112.49 102.132 112.664 101.736 112.916L100.53 112.142L100.89 105.662H108.018V107.894H103.176L102.924 110.72C103.188 110.6 103.446 110.51 103.698 110.45C103.95 110.39 104.226 110.36 104.526 110.36C105.27 110.36 105.954 110.51 106.578 110.81C107.202 111.098 107.7 111.554 108.072 112.178C108.444 112.802 108.63 113.6 108.63 114.572C108.63 115.556 108.408 116.402 107.964 117.11C107.532 117.806 106.962 118.34 106.254 118.712C105.558 119.072 104.802 119.252 103.986 119.252ZM115.305 119.252C114.681 119.252 114.075 119.12 113.487 118.856C112.911 118.592 112.401 118.19 111.957 117.65C111.513 117.098 111.159 116.402 110.895 115.562C110.643 114.71 110.517 113.696 110.517 112.52C110.517 111.284 110.655 110.216 110.931 109.316C111.219 108.416 111.603 107.684 112.083 107.12C112.563 106.544 113.109 106.118 113.721 105.842C114.345 105.566 114.999 105.428 115.683 105.428C116.499 105.428 117.201 105.578 117.789 105.878C118.389 106.166 118.887 106.52 119.283 106.94L117.879 108.524C117.651 108.26 117.351 108.032 116.979 107.84C116.607 107.648 116.229 107.552 115.845 107.552C115.305 107.552 114.813 107.708 114.369 108.02C113.937 108.332 113.589 108.848 113.325 109.568C113.061 110.288 112.929 111.272 112.929 112.52C112.929 113.672 113.031 114.596 113.235 115.292C113.451 115.976 113.733 116.474 114.081 116.786C114.429 117.098 114.819 117.254 115.251 117.254C115.587 117.254 115.887 117.164 116.151 116.984C116.427 116.792 116.649 116.516 116.817 116.156C116.985 115.784 117.069 115.328 117.069 114.788C117.069 114.26 116.985 113.828 116.817 113.492C116.661 113.156 116.439 112.904 116.151 112.736C115.875 112.568 115.545 112.484 115.161 112.484C114.801 112.484 114.423 112.598 114.027 112.826C113.631 113.042 113.265 113.426 112.929 113.978L112.803 112.196C113.043 111.86 113.325 111.572 113.649 111.332C113.985 111.092 114.327 110.912 114.675 110.792C115.035 110.672 115.359 110.612 115.647 110.612C116.391 110.612 117.051 110.762 117.627 111.062C118.215 111.362 118.671 111.818 118.995 112.43C119.319 113.042 119.481 113.828 119.481 114.788C119.481 115.7 119.289 116.492 118.905 117.164C118.533 117.824 118.029 118.34 117.393 118.712C116.757 119.072 116.061 119.252 115.305 119.252ZM123.168 119.252C122.688 119.252 122.292 119.084 121.98 118.748C121.668 118.412 121.512 118.004 121.512 117.524C121.512 117.02 121.668 116.606 121.98 116.282C122.292 115.958 122.688 115.796 123.168 115.796C123.636 115.796 124.026 115.958 124.338 116.282C124.65 116.606 124.806 117.02 124.806 117.524C124.806 118.004 124.65 118.412 124.338 118.748C124.026 119.084 123.636 119.252 123.168 119.252ZM131.398 119.252C130.498 119.252 129.706 118.994 129.022 118.478C128.35 117.95 127.822 117.17 127.438 116.138C127.066 115.094 126.88 113.804 126.88 112.268C126.88 110.744 127.066 109.478 127.438 108.47C127.822 107.45 128.35 106.688 129.022 106.184C129.706 105.68 130.498 105.428 131.398 105.428C132.31 105.428 133.102 105.686 133.774 106.202C134.446 106.706 134.968 107.462 135.34 108.47C135.724 109.478 135.916 110.744 135.916 112.268C135.916 113.804 135.724 115.094 135.34 116.138C134.968 117.17 134.446 117.95 133.774 118.478C133.102 118.994 132.31 119.252 131.398 119.252ZM131.398 117.182C131.794 117.182 132.142 117.032 132.442 116.732C132.742 116.432 132.976 115.928 133.144 115.22C133.312 114.5 133.396 113.516 133.396 112.268C133.396 111.032 133.312 110.066 133.144 109.37C132.976 108.662 132.742 108.17 132.442 107.894C132.142 107.606 131.794 107.462 131.398 107.462C131.026 107.462 130.684 107.606 130.372 107.894C130.072 108.17 129.832 108.662 129.652 109.37C129.472 110.066 129.382 111.032 129.382 112.268C129.382 113.516 129.472 114.5 129.652 115.22C129.832 115.928 130.072 116.432 130.372 116.732C130.684 117.032 131.026 117.182 131.398 117.182ZM138.181 119V116.84H141.061V108.434H138.631V106.778C139.303 106.658 139.879 106.514 140.359 106.346C140.851 106.166 141.307 105.938 141.727 105.662H143.689V116.84H146.191V119H138.181Z" fill="white"/>
<path d="M131.919 170V169.19C133.069 168.18 134.014 167.26 134.754 166.43C135.504 165.6 136.059 164.83 136.419 164.12C136.779 163.4 136.959 162.725 136.959 162.095C136.959 161.675 136.884 161.3 136.734 160.97C136.594 160.64 136.374 160.385 136.074 160.205C135.774 160.015 135.394 159.92 134.934 159.92C134.484 159.92 134.064 160.04 133.674 160.28C133.294 160.52 132.954 160.825 132.654 161.195L131.859 160.415C132.299 159.925 132.774 159.535 133.284 159.245C133.794 158.955 134.399 158.81 135.099 158.81C135.759 158.81 136.324 158.945 136.794 159.215C137.274 159.475 137.644 159.85 137.904 160.34C138.174 160.82 138.309 161.385 138.309 162.035C138.309 162.765 138.124 163.505 137.754 164.255C137.394 165.005 136.889 165.77 136.239 166.55C135.599 167.32 134.849 168.11 133.989 168.92C134.279 168.9 134.579 168.88 134.889 168.86C135.209 168.83 135.509 168.815 135.789 168.815H138.834V170H131.919ZM144.095 170.195C143.575 170.195 143.09 170.085 142.64 169.865C142.19 169.635 141.8 169.295 141.47 168.845C141.14 168.385 140.88 167.815 140.69 167.135C140.51 166.455 140.42 165.66 140.42 164.75C140.42 163.68 140.53 162.765 140.75 162.005C140.97 161.245 141.27 160.63 141.65 160.16C142.03 159.69 142.465 159.35 142.955 159.14C143.445 158.92 143.955 158.81 144.485 158.81C145.055 158.81 145.55 158.915 145.97 159.125C146.39 159.335 146.755 159.605 147.065 159.935L146.285 160.775C146.075 160.515 145.815 160.31 145.505 160.16C145.195 160.01 144.875 159.935 144.545 159.935C144.025 159.935 143.55 160.09 143.12 160.4C142.69 160.7 142.345 161.2 142.085 161.9C141.835 162.6 141.71 163.55 141.71 164.75C141.71 165.69 141.8 166.485 141.98 167.135C142.17 167.785 142.44 168.28 142.79 168.62C143.15 168.95 143.585 169.115 144.095 169.115C144.455 169.115 144.77 169.01 145.04 168.8C145.32 168.59 145.54 168.3 145.7 167.93C145.87 167.55 145.955 167.115 145.955 166.625C145.955 166.125 145.88 165.695 145.73 165.335C145.59 164.965 145.375 164.685 145.085 164.495C144.795 164.295 144.425 164.195 143.975 164.195C143.625 164.195 143.245 164.31 142.835 164.54C142.425 164.76 142.035 165.145 141.665 165.695L141.62 164.615C141.85 164.315 142.105 164.06 142.385 163.85C142.665 163.63 142.96 163.465 143.27 163.355C143.59 163.235 143.9 163.175 144.2 163.175C144.82 163.175 145.355 163.305 145.805 163.565C146.265 163.815 146.62 164.195 146.87 164.705C147.13 165.215 147.26 165.855 147.26 166.625C147.26 167.335 147.115 167.96 146.825 168.5C146.535 169.03 146.15 169.445 145.67 169.745C145.2 170.045 144.675 170.195 144.095 170.195ZM148.59 166.325V165.275H152.445V166.325H148.59ZM157.045 170.195C156.475 170.195 155.97 170.125 155.53 169.985C155.1 169.845 154.72 169.66 154.39 169.43C154.06 169.2 153.775 168.95 153.535 168.68L154.24 167.795C154.56 168.125 154.935 168.42 155.365 168.68C155.805 168.93 156.335 169.055 156.955 169.055C157.395 169.055 157.78 168.975 158.11 168.815C158.45 168.645 158.715 168.41 158.905 168.11C159.095 167.8 159.19 167.435 159.19 167.015C159.19 166.575 159.08 166.19 158.86 165.86C158.65 165.53 158.295 165.275 157.795 165.095C157.295 164.905 156.62 164.81 155.77 164.81V163.76C156.53 163.76 157.13 163.67 157.57 163.49C158.01 163.3 158.325 163.045 158.515 162.725C158.715 162.405 158.815 162.05 158.815 161.66C158.815 161.13 158.65 160.71 158.32 160.4C157.99 160.08 157.535 159.92 156.955 159.92C156.515 159.92 156.1 160.02 155.71 160.22C155.33 160.42 154.985 160.675 154.675 160.985L153.94 160.115C154.36 159.735 154.815 159.425 155.305 159.185C155.805 158.935 156.37 158.81 157 158.81C157.62 158.81 158.17 158.92 158.65 159.14C159.14 159.35 159.52 159.66 159.79 160.07C160.07 160.48 160.21 160.975 160.21 161.555C160.21 162.225 160.03 162.78 159.67 163.22C159.31 163.66 158.84 163.985 158.26 164.195V164.27C158.69 164.37 159.08 164.545 159.43 164.795C159.78 165.045 160.06 165.36 160.27 165.74C160.48 166.12 160.585 166.56 160.585 167.06C160.585 167.71 160.425 168.27 160.105 168.74C159.785 169.21 159.36 169.57 158.83 169.82C158.3 170.07 157.705 170.195 157.045 170.195ZM165.35 170.195C164.78 170.195 164.275 170.125 163.835 169.985C163.405 169.845 163.025 169.665 162.695 169.445C162.375 169.225 162.085 168.99 161.825 168.74L162.515 167.84C162.725 168.05 162.955 168.25 163.205 168.44C163.465 168.62 163.76 168.77 164.09 168.89C164.42 169 164.795 169.055 165.215 169.055C165.645 169.055 166.035 168.95 166.385 168.74C166.745 168.53 167.03 168.23 167.24 167.84C167.45 167.45 167.555 166.99 167.555 166.46C167.555 165.68 167.345 165.07 166.925 164.63C166.515 164.18 165.965 163.955 165.275 163.955C164.915 163.955 164.6 164.01 164.33 164.12C164.06 164.23 163.765 164.39 163.445 164.6L162.71 164.135L163.07 159.005H168.41V160.175H164.27L163.985 163.355C164.225 163.215 164.475 163.11 164.735 163.04C165.005 162.96 165.305 162.92 165.635 162.92C166.245 162.92 166.8 163.045 167.3 163.295C167.8 163.535 168.2 163.915 168.5 164.435C168.8 164.955 168.95 165.62 168.95 166.43C168.95 167.23 168.775 167.91 168.425 168.47C168.085 169.03 167.64 169.46 167.09 169.76C166.54 170.05 165.96 170.195 165.35 170.195ZM178.471 161.465H179.506C179.526 162.705 179.621 163.85 179.791 164.9C179.971 165.95 180.201 166.865 180.481 167.645C180.771 168.425 181.096 169.03 181.456 169.46C181.816 169.89 182.191 170.105 182.581 170.105C182.751 170.105 182.876 169.95 182.956 169.64C183.046 169.33 183.111 168.82 183.151 168.11C183.251 168.21 183.381 168.31 183.541 168.41C183.711 168.5 183.861 168.565 183.991 168.605C183.941 169.255 183.861 169.76 183.751 170.12C183.641 170.49 183.486 170.75 183.286 170.9C183.086 171.05 182.826 171.125 182.506 171.125C182.036 171.125 181.596 170.96 181.186 170.63C180.786 170.3 180.426 169.84 180.106 169.25C179.786 168.66 179.506 167.965 179.266 167.165C179.036 166.355 178.851 165.47 178.711 164.51C178.581 163.54 178.501 162.525 178.471 161.465ZM180.196 162.05L180.751 161.495C181.091 161.625 181.436 161.79 181.786 161.99C182.146 162.18 182.426 162.365 182.626 162.545L182.041 163.16C181.851 162.98 181.576 162.785 181.216 162.575C180.866 162.365 180.526 162.19 180.196 162.05ZM181.726 164.69L182.761 164.915C182.251 166.335 181.551 167.57 180.661 168.62C179.771 169.67 178.741 170.53 177.571 171.2C177.521 171.13 177.451 171.045 177.361 170.945C177.271 170.845 177.176 170.745 177.076 170.645C176.976 170.555 176.886 170.475 176.806 170.405C177.956 169.835 178.956 169.06 179.806 168.08C180.656 167.1 181.296 165.97 181.726 164.69ZM173.731 166.325L174.586 166.505C174.456 166.965 174.286 167.415 174.076 167.855C173.866 168.295 173.636 168.67 173.386 168.98C173.306 168.92 173.191 168.84 173.041 168.74C172.891 168.64 172.766 168.56 172.666 168.5C172.916 168.21 173.131 167.875 173.311 167.495C173.491 167.115 173.631 166.725 173.731 166.325ZM172.066 163.055H183.721V164H172.066V163.055ZM173.236 164.87H178.021V165.71H173.236V164.87ZM170.641 160.775H183.856V161.735H170.641V160.775ZM177.481 158.69H182.476V159.56H177.481V158.69ZM171.496 163.055H172.546V165.575C172.546 165.995 172.526 166.45 172.486 166.94C172.456 167.43 172.391 167.93 172.291 168.44C172.201 168.94 172.071 169.43 171.901 169.91C171.731 170.39 171.506 170.83 171.226 171.23C171.166 171.17 171.076 171.105 170.956 171.035C170.846 170.965 170.731 170.895 170.611 170.825C170.491 170.765 170.386 170.72 170.296 170.69C170.656 170.18 170.921 169.625 171.091 169.025C171.261 168.425 171.371 167.825 171.421 167.225C171.471 166.625 171.496 166.07 171.496 165.56V163.055ZM176.836 157.4H177.946V161.24H176.836V157.4ZM173.056 158.075H174.121V161.285H173.056V158.075ZM177.376 166.445L178.306 166.595C177.976 167.655 177.381 168.58 176.521 169.37C175.661 170.16 174.596 170.745 173.326 171.125C173.266 171.035 173.186 170.915 173.086 170.765C172.996 170.625 172.911 170.515 172.831 170.435C174.021 170.095 175.016 169.58 175.816 168.89C176.616 168.19 177.136 167.375 177.376 166.445ZM175.186 165.425H176.131V168.755H175.186V165.425Z" fill="black"/>
<rect x="156" y="232" width="156" height="49.9999" transform="rotate(180 156 232)" fill="#E8FDFF"/>
<rect x="156" y="232" width="68.9302" height="49.9999" transform="rotate(180 156 232)" fill="#0095CC"/>
<rect x="160" y="182" width="156" height="50" fill="#FFEDED"/>
<rect x="160" y="182" width="96.1395" height="50" fill="#FFA59B"/>
<path d="M105.066 215V206.81C105.066 206.426 105.078 205.97 105.102 205.442C105.126 204.902 105.15 204.434 105.174 204.038H105.084C104.928 204.398 104.76 204.758 104.58 205.118C104.4 205.478 104.214 205.844 104.022 206.216L101.952 209.528H109.116V211.544H99.378V209.744L104.346 201.662H107.532V215H105.066ZM115.683 215V206.81C115.683 206.426 115.695 205.97 115.719 205.442C115.743 204.902 115.767 204.434 115.791 204.038H115.701C115.545 204.398 115.377 204.758 115.197 205.118C115.017 205.478 114.831 205.844 114.639 206.216L112.569 209.528H119.733V211.544H109.995V209.744L114.963 201.662H118.149V215H115.683ZM123.168 215.252C122.688 215.252 122.292 215.084 121.98 214.748C121.668 214.412 121.512 214.004 121.512 213.524C121.512 213.02 121.668 212.606 121.98 212.282C122.292 211.958 122.688 211.796 123.168 211.796C123.636 211.796 124.026 211.958 124.338 212.282C124.65 212.606 124.806 213.02 124.806 213.524C124.806 214.004 124.65 214.412 124.338 214.748C124.026 215.084 123.636 215.252 123.168 215.252ZM131.398 215.252C130.498 215.252 129.706 214.994 129.022 214.478C128.35 213.95 127.822 213.17 127.438 212.138C127.066 211.094 126.88 209.804 126.88 208.268C126.88 206.744 127.066 205.478 127.438 204.47C127.822 203.45 128.35 202.688 129.022 202.184C129.706 201.68 130.498 201.428 131.398 201.428C132.31 201.428 133.102 201.686 133.774 202.202C134.446 202.706 134.968 203.462 135.34 204.47C135.724 205.478 135.916 206.744 135.916 208.268C135.916 209.804 135.724 211.094 135.34 212.138C134.968 213.17 134.446 213.95 133.774 214.478C133.102 214.994 132.31 215.252 131.398 215.252ZM131.398 213.182C131.794 213.182 132.142 213.032 132.442 212.732C132.742 212.432 132.976 211.928 133.144 211.22C133.312 210.5 133.396 209.516 133.396 208.268C133.396 207.032 133.312 206.066 133.144 205.37C132.976 204.662 132.742 204.17 132.442 203.894C132.142 203.606 131.794 203.462 131.398 203.462C131.026 203.462 130.684 203.606 130.372 203.894C130.072 204.17 129.832 204.662 129.652 205.37C129.472 206.066 129.382 207.032 129.382 208.268C129.382 209.516 129.472 210.5 129.652 211.22C129.832 211.928 130.072 212.432 130.372 212.732C130.684 213.032 131.026 213.182 131.398 213.182ZM142.393 215.252C141.769 215.252 141.163 215.12 140.575 214.856C139.999 214.592 139.489 214.19 139.045 213.65C138.601 213.098 138.247 212.402 137.983 211.562C137.731 210.71 137.605 209.696 137.605 208.52C137.605 207.284 137.743 206.216 138.019 205.316C138.307 204.416 138.691 203.684 139.171 203.12C139.651 202.544 140.197 202.118 140.809 201.842C141.433 201.566 142.087 201.428 142.771 201.428C143.587 201.428 144.289 201.578 144.877 201.878C145.477 202.166 145.975 202.52 146.371 202.94L144.967 204.524C144.739 204.26 144.439 204.032 144.067 203.84C143.695 203.648 143.317 203.552 142.933 203.552C142.393 203.552 141.901 203.708 141.457 204.02C141.025 204.332 140.677 204.848 140.413 205.568C140.149 206.288 140.017 207.272 140.017 208.52C140.017 209.672 140.119 210.596 140.323 211.292C140.539 211.976 140.821 212.474 141.169 212.786C141.517 213.098 141.907 213.254 142.339 213.254C142.675 213.254 142.975 213.164 143.239 212.984C143.515 212.792 143.737 212.516 143.905 212.156C144.073 211.784 144.157 211.328 144.157 210.788C144.157 210.26 144.073 209.828 143.905 209.492C143.749 209.156 143.527 208.904 143.239 208.736C142.963 208.568 142.633 208.484 142.249 208.484C141.889 208.484 141.511 208.598 141.115 208.826C140.719 209.042 140.353 209.426 140.017 209.978L139.891 208.196C140.131 207.86 140.413 207.572 140.737 207.332C141.073 207.092 141.415 206.912 141.763 206.792C142.123 206.672 142.447 206.612 142.735 206.612C143.479 206.612 144.139 206.762 144.715 207.062C145.303 207.362 145.759 207.818 146.083 208.43C146.407 209.042 146.569 209.828 146.569 210.788C146.569 211.7 146.377 212.492 145.993 213.164C145.621 213.824 145.117 214.34 144.481 214.712C143.845 215.072 143.149 215.252 142.393 215.252Z" fill="white"/>
<path d="M174.688 215.252C174.064 215.252 173.458 215.12 172.87 214.856C172.294 214.592 171.784 214.19 171.34 213.65C170.896 213.098 170.542 212.402 170.278 211.562C170.026 210.71 169.9 209.696 169.9 208.52C169.9 207.284 170.038 206.216 170.314 205.316C170.602 204.416 170.986 203.684 171.466 203.12C171.946 202.544 172.492 202.118 173.104 201.842C173.728 201.566 174.382 201.428 175.066 201.428C175.882 201.428 176.584 201.578 177.172 201.878C177.772 202.166 178.27 202.52 178.666 202.94L177.262 204.524C177.034 204.26 176.734 204.032 176.362 203.84C175.99 203.648 175.612 203.552 175.228 203.552C174.688 203.552 174.196 203.708 173.752 204.02C173.32 204.332 172.972 204.848 172.708 205.568C172.444 206.288 172.312 207.272 172.312 208.52C172.312 209.672 172.414 210.596 172.618 211.292C172.834 211.976 173.116 212.474 173.464 212.786C173.812 213.098 174.202 213.254 174.634 213.254C174.97 213.254 175.27 213.164 175.534 212.984C175.81 212.792 176.032 212.516 176.2 212.156C176.368 211.784 176.452 211.328 176.452 210.788C176.452 210.26 176.368 209.828 176.2 209.492C176.044 209.156 175.822 208.904 175.534 208.736C175.258 208.568 174.928 208.484 174.544 208.484C174.184 208.484 173.806 208.598 173.41 208.826C173.014 209.042 172.648 209.426 172.312 209.978L172.186 208.196C172.426 207.86 172.708 207.572 173.032 207.332C173.368 207.092 173.71 206.912 174.058 206.792C174.418 206.672 174.742 206.612 175.03 206.612C175.774 206.612 176.434 206.762 177.01 207.062C177.598 207.362 178.054 207.818 178.378 208.43C178.702 209.042 178.864 209.828 178.864 210.788C178.864 211.7 178.672 212.492 178.288 213.164C177.916 213.824 177.412 214.34 176.776 214.712C176.14 215.072 175.444 215.252 174.688 215.252ZM181.093 215V212.84H183.973V204.434H181.543V202.778C182.215 202.658 182.791 202.514 183.271 202.346C183.763 202.166 184.219 201.938 184.639 201.662H186.601V212.84H189.103V215H181.093ZM193.168 215.252C192.688 215.252 192.292 215.084 191.98 214.748C191.668 214.412 191.512 214.004 191.512 213.524C191.512 213.02 191.668 212.606 191.98 212.282C192.292 211.958 192.688 211.796 193.168 211.796C193.636 211.796 194.026 211.958 194.338 212.282C194.65 212.606 194.806 213.02 194.806 213.524C194.806 214.004 194.65 214.412 194.338 214.748C194.026 215.084 193.636 215.252 193.168 215.252ZM200.678 215.252C199.85 215.252 199.13 215.102 198.518 214.802C197.918 214.502 197.42 214.148 197.024 213.74L198.428 212.138C198.668 212.414 198.98 212.642 199.364 212.822C199.748 213.002 200.138 213.092 200.534 213.092C200.918 213.092 201.284 213.008 201.632 212.84C201.98 212.66 202.28 212.378 202.532 211.994C202.796 211.598 203 211.076 203.144 210.428C203.3 209.78 203.378 208.982 203.378 208.034C203.378 206.894 203.27 205.988 203.054 205.316C202.85 204.644 202.574 204.164 202.226 203.876C201.878 203.576 201.482 203.426 201.038 203.426C200.714 203.426 200.414 203.516 200.138 203.696C199.862 203.876 199.64 204.146 199.472 204.506C199.316 204.866 199.238 205.322 199.238 205.874C199.238 206.39 199.316 206.822 199.472 207.17C199.628 207.506 199.844 207.758 200.12 207.926C200.408 208.094 200.744 208.178 201.128 208.178C201.5 208.178 201.884 208.064 202.28 207.836C202.676 207.608 203.036 207.224 203.36 206.684L203.486 208.466C203.258 208.79 202.976 209.072 202.64 209.312C202.316 209.552 201.98 209.738 201.632 209.87C201.284 210.002 200.948 210.068 200.624 210.068C199.892 210.068 199.238 209.918 198.662 209.618C198.086 209.306 197.63 208.844 197.294 208.232C196.97 207.608 196.808 206.822 196.808 205.874C196.808 204.962 197 204.176 197.384 203.516C197.768 202.844 198.278 202.328 198.914 201.968C199.55 201.608 200.246 201.428 201.002 201.428C201.638 201.428 202.238 201.56 202.802 201.824C203.378 202.076 203.888 202.472 204.332 203.012C204.788 203.54 205.142 204.224 205.394 205.064C205.658 205.892 205.79 206.882 205.79 208.034C205.79 209.294 205.652 210.38 205.376 211.292C205.1 212.192 204.716 212.936 204.224 213.524C203.744 214.112 203.198 214.55 202.586 214.838C201.974 215.114 201.338 215.252 200.678 215.252ZM212.015 215.252C211.163 215.252 210.401 215.102 209.729 214.802C209.057 214.502 208.523 214.082 208.127 213.542C207.743 213.002 207.551 212.384 207.551 211.688C207.551 211.112 207.653 210.608 207.857 210.176C208.073 209.732 208.355 209.348 208.703 209.024C209.051 208.7 209.429 208.43 209.837 208.214V208.124C209.333 207.764 208.913 207.326 208.577 206.81C208.241 206.282 208.073 205.67 208.073 204.974C208.073 204.254 208.247 203.63 208.595 203.102C208.943 202.574 209.417 202.166 210.017 201.878C210.629 201.59 211.319 201.446 212.087 201.446C212.879 201.446 213.563 201.596 214.139 201.896C214.715 202.184 215.159 202.592 215.471 203.12C215.795 203.648 215.957 204.272 215.957 204.992C215.957 205.424 215.873 205.832 215.705 206.216C215.549 206.6 215.339 206.948 215.075 207.26C214.823 207.56 214.547 207.818 214.247 208.034V208.124C214.667 208.34 215.045 208.61 215.381 208.934C215.717 209.258 215.987 209.648 216.191 210.104C216.395 210.548 216.497 211.076 216.497 211.688C216.497 212.36 216.305 212.966 215.921 213.506C215.549 214.046 215.027 214.472 214.355 214.784C213.683 215.096 212.903 215.252 212.015 215.252ZM212.843 207.386C213.167 207.038 213.407 206.678 213.563 206.306C213.719 205.934 213.797 205.55 213.797 205.154C213.797 204.794 213.725 204.476 213.581 204.2C213.449 203.912 213.251 203.69 212.987 203.534C212.723 203.378 212.405 203.3 212.033 203.3C211.577 203.3 211.193 203.444 210.881 203.732C210.569 204.02 210.413 204.434 210.413 204.974C210.413 205.382 210.515 205.736 210.719 206.036C210.935 206.324 211.229 206.576 211.601 206.792C211.973 206.996 212.387 207.194 212.843 207.386ZM212.069 213.38C212.453 213.38 212.789 213.314 213.077 213.182C213.377 213.038 213.611 212.834 213.779 212.57C213.947 212.294 214.031 211.97 214.031 211.598C214.031 211.25 213.953 210.95 213.797 210.698C213.653 210.434 213.449 210.206 213.185 210.014C212.921 209.81 212.609 209.624 212.249 209.456C211.889 209.288 211.493 209.108 211.061 208.916C210.701 209.216 210.407 209.582 210.179 210.014C209.951 210.434 209.837 210.896 209.837 211.4C209.837 211.796 209.933 212.144 210.125 212.444C210.329 212.732 210.599 212.96 210.935 213.128C211.271 213.296 211.649 213.38 212.069 213.38Z" fill="white"/>
<path d="M132.579 266V264.86H135.039V256.655H133.074V255.785C133.564 255.695 133.989 255.585 134.349 255.455C134.719 255.325 135.054 255.175 135.354 255.005H136.404V264.86H138.609V266H132.579ZM144.095 266.195C143.575 266.195 143.09 266.085 142.64 265.865C142.19 265.635 141.8 265.295 141.47 264.845C141.14 264.385 140.88 263.815 140.69 263.135C140.51 262.455 140.42 261.66 140.42 260.75C140.42 259.68 140.53 258.765 140.75 258.005C140.97 257.245 141.27 256.63 141.65 256.16C142.03 255.69 142.465 255.35 142.955 255.14C143.445 254.92 143.955 254.81 144.485 254.81C145.055 254.81 145.55 254.915 145.97 255.125C146.39 255.335 146.755 255.605 147.065 255.935L146.285 256.775C146.075 256.515 145.815 256.31 145.505 256.16C145.195 256.01 144.875 255.935 144.545 255.935C144.025 255.935 143.55 256.09 143.12 256.4C142.69 256.7 142.345 257.2 142.085 257.9C141.835 258.6 141.71 259.55 141.71 260.75C141.71 261.69 141.8 262.485 141.98 263.135C142.17 263.785 142.44 264.28 142.79 264.62C143.15 264.95 143.585 265.115 144.095 265.115C144.455 265.115 144.77 265.01 145.04 264.8C145.32 264.59 145.54 264.3 145.7 263.93C145.87 263.55 145.955 263.115 145.955 262.625C145.955 262.125 145.88 261.695 145.73 261.335C145.59 260.965 145.375 260.685 145.085 260.495C144.795 260.295 144.425 260.195 143.975 260.195C143.625 260.195 143.245 260.31 142.835 260.54C142.425 260.76 142.035 261.145 141.665 261.695L141.62 260.615C141.85 260.315 142.105 260.06 142.385 259.85C142.665 259.63 142.96 259.465 143.27 259.355C143.59 259.235 143.9 259.175 144.2 259.175C144.82 259.175 145.355 259.305 145.805 259.565C146.265 259.815 146.62 260.195 146.87 260.705C147.13 261.215 147.26 261.855 147.26 262.625C147.26 263.335 147.115 263.96 146.825 264.5C146.535 265.03 146.15 265.445 145.67 265.745C145.2 266.045 144.675 266.195 144.095 266.195ZM148.59 262.325V261.275H152.445V262.325H148.59ZM153.76 266V265.19C154.91 264.18 155.855 263.26 156.595 262.43C157.345 261.6 157.9 260.83 158.26 260.12C158.62 259.4 158.8 258.725 158.8 258.095C158.8 257.675 158.725 257.3 158.575 256.97C158.435 256.64 158.215 256.385 157.915 256.205C157.615 256.015 157.235 255.92 156.775 255.92C156.325 255.92 155.905 256.04 155.515 256.28C155.135 256.52 154.795 256.825 154.495 257.195L153.7 256.415C154.14 255.925 154.615 255.535 155.125 255.245C155.635 254.955 156.24 254.81 156.94 254.81C157.6 254.81 158.165 254.945 158.635 255.215C159.115 255.475 159.485 255.85 159.745 256.34C160.015 256.82 160.15 257.385 160.15 258.035C160.15 258.765 159.965 259.505 159.595 260.255C159.235 261.005 158.73 261.77 158.08 262.55C157.44 263.32 156.69 264.11 155.83 264.92C156.12 264.9 156.42 264.88 156.73 264.86C157.05 264.83 157.35 264.815 157.63 264.815H160.675V266H153.76ZM165.35 266.195C164.78 266.195 164.275 266.125 163.835 265.985C163.405 265.845 163.025 265.665 162.695 265.445C162.375 265.225 162.085 264.99 161.825 264.74L162.515 263.84C162.725 264.05 162.955 264.25 163.205 264.44C163.465 264.62 163.76 264.77 164.09 264.89C164.42 265 164.795 265.055 165.215 265.055C165.645 265.055 166.035 264.95 166.385 264.74C166.745 264.53 167.03 264.23 167.24 263.84C167.45 263.45 167.555 262.99 167.555 262.46C167.555 261.68 167.345 261.07 166.925 260.63C166.515 260.18 165.965 259.955 165.275 259.955C164.915 259.955 164.6 260.01 164.33 260.12C164.06 260.23 163.765 260.39 163.445 260.6L162.71 260.135L163.07 255.005H168.41V256.175H164.27L163.985 259.355C164.225 259.215 164.475 259.11 164.735 259.04C165.005 258.96 165.305 258.92 165.635 258.92C166.245 258.92 166.8 259.045 167.3 259.295C167.8 259.535 168.2 259.915 168.5 260.435C168.8 260.955 168.95 261.62 168.95 262.43C168.95 263.23 168.775 263.91 168.425 264.47C168.085 265.03 167.64 265.46 167.09 265.76C166.54 266.05 165.96 266.195 165.35 266.195ZM178.471 257.465H179.506C179.526 258.705 179.621 259.85 179.791 260.9C179.971 261.95 180.201 262.865 180.481 263.645C180.771 264.425 181.096 265.03 181.456 265.46C181.816 265.89 182.191 266.105 182.581 266.105C182.751 266.105 182.876 265.95 182.956 265.64C183.046 265.33 183.111 264.82 183.151 264.11C183.251 264.21 183.381 264.31 183.541 264.41C183.711 264.5 183.861 264.565 183.991 264.605C183.941 265.255 183.861 265.76 183.751 266.12C183.641 266.49 183.486 266.75 183.286 266.9C183.086 267.05 182.826 267.125 182.506 267.125C182.036 267.125 181.596 266.96 181.186 266.63C180.786 266.3 180.426 265.84 180.106 265.25C179.786 264.66 179.506 263.965 179.266 263.165C179.036 262.355 178.851 261.47 178.711 260.51C178.581 259.54 178.501 258.525 178.471 257.465ZM180.196 258.05L180.751 257.495C181.091 257.625 181.436 257.79 181.786 257.99C182.146 258.18 182.426 258.365 182.626 258.545L182.041 259.16C181.851 258.98 181.576 258.785 181.216 258.575C180.866 258.365 180.526 258.19 180.196 258.05ZM181.726 260.69L182.761 260.915C182.251 262.335 181.551 263.57 180.661 264.62C179.771 265.67 178.741 266.53 177.571 267.2C177.521 267.13 177.451 267.045 177.361 266.945C177.271 266.845 177.176 266.745 177.076 266.645C176.976 266.555 176.886 266.475 176.806 266.405C177.956 265.835 178.956 265.06 179.806 264.08C180.656 263.1 181.296 261.97 181.726 260.69ZM173.731 262.325L174.586 262.505C174.456 262.965 174.286 263.415 174.076 263.855C173.866 264.295 173.636 264.67 173.386 264.98C173.306 264.92 173.191 264.84 173.041 264.74C172.891 264.64 172.766 264.56 172.666 264.5C172.916 264.21 173.131 263.875 173.311 263.495C173.491 263.115 173.631 262.725 173.731 262.325ZM172.066 259.055H183.721V260H172.066V259.055ZM173.236 260.87H178.021V261.71H173.236V260.87ZM170.641 256.775H183.856V257.735H170.641V256.775ZM177.481 254.69H182.476V255.56H177.481V254.69ZM171.496 259.055H172.546V261.575C172.546 261.995 172.526 262.45 172.486 262.94C172.456 263.43 172.391 263.93 172.291 264.44C172.201 264.94 172.071 265.43 171.901 265.91C171.731 266.39 171.506 266.83 171.226 267.23C171.166 267.17 171.076 267.105 170.956 267.035C170.846 266.965 170.731 266.895 170.611 266.825C170.491 266.765 170.386 266.72 170.296 266.69C170.656 266.18 170.921 265.625 171.091 265.025C171.261 264.425 171.371 263.825 171.421 263.225C171.471 262.625 171.496 262.07 171.496 261.56V259.055ZM176.836 253.4H177.946V257.24H176.836V253.4ZM173.056 254.075H174.121V257.285H173.056V254.075ZM177.376 262.445L178.306 262.595C177.976 263.655 177.381 264.58 176.521 265.37C175.661 266.16 174.596 266.745 173.326 267.125C173.266 267.035 173.186 266.915 173.086 266.765C172.996 266.625 172.911 266.515 172.831 266.435C174.021 266.095 175.016 265.58 175.816 264.89C176.616 264.19 177.136 263.375 177.376 262.445ZM175.186 261.425H176.131V264.755H175.186V261.425Z" fill="black"/>
<rect x="156" y="328" width="156" height="50.0001" transform="rotate(-180 156 328)" fill="#E8FDFF"/>
<rect x="156" y="328" width="68.9302" height="50.0001" transform="rotate(-180 156 328)" fill="#0095CC"/>
<rect x="160" y="278" width="156" height="50" fill="#FFEDED"/>
<rect x="160" y="278" width="82.7163" height="50" fill="#FFA59B"/>
<path d="M116.066 310V301.81C116.066 301.426 116.078 300.97 116.102 300.442C116.126 299.902 116.15 299.434 116.174 299.038H116.084C115.928 299.398 115.76 299.758 115.58 300.118C115.4 300.478 115.214 300.844 115.022 301.216L112.952 304.528H120.116V306.544H110.378V304.744L115.346 296.662H118.532V310H116.066ZM126.683 310V301.81C126.683 301.426 126.695 300.97 126.719 300.442C126.743 299.902 126.767 299.434 126.791 299.038H126.701C126.545 299.398 126.377 299.758 126.197 300.118C126.017 300.478 125.831 300.844 125.639 301.216L123.569 304.528H130.733V306.544H120.995V304.744L125.963 296.662H129.149V310H126.683ZM134.168 310.252C133.688 310.252 133.292 310.084 132.98 309.748C132.668 309.412 132.512 309.004 132.512 308.524C132.512 308.02 132.668 307.606 132.98 307.282C133.292 306.958 133.688 306.796 134.168 306.796C134.636 306.796 135.026 306.958 135.338 307.282C135.65 307.606 135.806 308.02 135.806 308.524C135.806 309.004 135.65 309.412 135.338 309.748C135.026 310.084 134.636 310.252 134.168 310.252ZM138.564 310V307.84H141.444V299.434H139.014V297.778C139.686 297.658 140.262 297.514 140.742 297.346C141.234 297.166 141.69 296.938 142.11 296.662H144.072V307.84H146.574V310H138.564Z" fill="white"/>
<path d="M172.986 311.252C172.278 311.252 171.648 311.168 171.096 311C170.544 310.832 170.052 310.61 169.62 310.334C169.188 310.058 168.804 309.758 168.468 309.434L169.692 307.742C169.944 307.994 170.214 308.222 170.502 308.426C170.802 308.63 171.126 308.792 171.474 308.912C171.834 309.032 172.218 309.092 172.626 309.092C173.082 309.092 173.484 308.996 173.832 308.804C174.192 308.612 174.474 308.336 174.678 307.976C174.882 307.604 174.984 307.16 174.984 306.644C174.984 305.876 174.774 305.282 174.354 304.862C173.946 304.442 173.406 304.232 172.734 304.232C172.35 304.232 172.02 304.286 171.744 304.394C171.468 304.49 171.132 304.664 170.736 304.916L169.53 304.142L169.89 297.662H177.018V299.894H172.176L171.924 302.72C172.188 302.6 172.446 302.51 172.698 302.45C172.95 302.39 173.226 302.36 173.526 302.36C174.27 302.36 174.954 302.51 175.578 302.81C176.202 303.098 176.7 303.554 177.072 304.178C177.444 304.802 177.63 305.6 177.63 306.572C177.63 307.556 177.408 308.402 176.964 309.11C176.532 309.806 175.962 310.34 175.254 310.712C174.558 311.072 173.802 311.252 172.986 311.252ZM183.531 311.252C182.835 311.252 182.211 311.168 181.659 311C181.107 310.844 180.615 310.628 180.183 310.352C179.763 310.064 179.397 309.746 179.085 309.398L180.327 307.724C180.735 308.096 181.179 308.42 181.659 308.696C182.151 308.96 182.697 309.092 183.297 309.092C183.753 309.092 184.149 309.02 184.485 308.876C184.833 308.732 185.097 308.522 185.277 308.246C185.469 307.97 185.565 307.634 185.565 307.238C185.565 306.794 185.457 306.416 185.241 306.104C185.037 305.78 184.671 305.534 184.143 305.366C183.615 305.198 182.871 305.114 181.911 305.114V303.206C182.727 303.206 183.369 303.122 183.837 302.954C184.305 302.774 184.635 302.534 184.827 302.234C185.031 301.922 185.133 301.568 185.133 301.172C185.133 300.656 184.977 300.254 184.665 299.966C184.353 299.666 183.915 299.516 183.351 299.516C182.883 299.516 182.445 299.624 182.037 299.84C181.641 300.044 181.245 300.326 180.849 300.686L179.481 299.048C180.069 298.556 180.687 298.166 181.335 297.878C181.983 297.578 182.697 297.428 183.477 297.428C184.329 297.428 185.079 297.566 185.727 297.842C186.387 298.118 186.897 298.52 187.257 299.048C187.617 299.576 187.797 300.218 187.797 300.974C187.797 301.694 187.605 302.312 187.221 302.828C186.837 303.344 186.291 303.74 185.583 304.016V304.106C186.075 304.238 186.519 304.454 186.915 304.754C187.323 305.042 187.641 305.408 187.869 305.852C188.109 306.296 188.229 306.812 188.229 307.4C188.229 308.204 188.013 308.894 187.581 309.47C187.161 310.046 186.591 310.49 185.871 310.802C185.163 311.102 184.383 311.252 183.531 311.252ZM192.168 311.252C191.688 311.252 191.292 311.084 190.98 310.748C190.668 310.412 190.512 310.004 190.512 309.524C190.512 309.02 190.668 308.606 190.98 308.282C191.292 307.958 191.688 307.796 192.168 307.796C192.636 307.796 193.026 307.958 193.338 308.282C193.65 308.606 193.806 309.02 193.806 309.524C193.806 310.004 193.65 310.412 193.338 310.748C193.026 311.084 192.636 311.252 192.168 311.252ZM195.862 311V309.47C197.074 308.39 198.106 307.388 198.958 306.464C199.822 305.54 200.482 304.682 200.938 303.89C201.394 303.086 201.622 302.342 201.622 301.658C201.622 301.226 201.544 300.848 201.388 300.524C201.232 300.2 201.004 299.954 200.704 299.786C200.416 299.606 200.056 299.516 199.624 299.516C199.144 299.516 198.7 299.654 198.292 299.93C197.896 300.194 197.53 300.512 197.194 300.884L195.718 299.462C196.342 298.79 196.978 298.286 197.626 297.95C198.286 297.602 199.066 297.428 199.966 297.428C200.806 297.428 201.538 297.602 202.162 297.95C202.798 298.286 203.29 298.76 203.638 299.372C203.986 299.984 204.16 300.704 204.16 301.532C204.16 302.336 203.956 303.158 203.548 303.998C203.152 304.826 202.618 305.654 201.946 306.482C201.274 307.31 200.53 308.126 199.714 308.93C200.062 308.882 200.434 308.846 200.83 308.822C201.238 308.786 201.598 308.768 201.91 308.768H204.79V311H195.862ZM210.295 311.252C209.467 311.252 208.747 311.102 208.135 310.802C207.535 310.502 207.037 310.148 206.641 309.74L208.045 308.138C208.285 308.414 208.597 308.642 208.981 308.822C209.365 309.002 209.755 309.092 210.151 309.092C210.535 309.092 210.901 309.008 211.249 308.84C211.597 308.66 211.897 308.378 212.149 307.994C212.413 307.598 212.617 307.076 212.761 306.428C212.917 305.78 212.995 304.982 212.995 304.034C212.995 302.894 212.887 301.988 212.671 301.316C212.467 300.644 212.191 300.164 211.843 299.876C211.495 299.576 211.099 299.426 210.655 299.426C210.331 299.426 210.031 299.516 209.755 299.696C209.479 299.876 209.257 300.146 209.089 300.506C208.933 300.866 208.855 301.322 208.855 301.874C208.855 302.39 208.933 302.822 209.089 303.17C209.245 303.506 209.461 303.758 209.737 303.926C210.025 304.094 210.361 304.178 210.745 304.178C211.117 304.178 211.501 304.064 211.897 303.836C212.293 303.608 212.653 303.224 212.977 302.684L213.103 304.466C212.875 304.79 212.593 305.072 212.257 305.312C211.933 305.552 211.597 305.738 211.249 305.87C210.901 306.002 210.565 306.068 210.241 306.068C209.509 306.068 208.855 305.918 208.279 305.618C207.703 305.306 207.247 304.844 206.911 304.232C206.587 303.608 206.425 302.822 206.425 301.874C206.425 300.962 206.617 300.176 207.001 299.516C207.385 298.844 207.895 298.328 208.531 297.968C209.167 297.608 209.863 297.428 210.619 297.428C211.255 297.428 211.855 297.56 212.419 297.824C212.995 298.076 213.505 298.472 213.949 299.012C214.405 299.54 214.759 300.224 215.011 301.064C215.275 301.892 215.407 302.882 215.407 304.034C215.407 305.294 215.269 306.38 214.993 307.292C214.717 308.192 214.333 308.936 213.841 309.524C213.361 310.112 212.815 310.55 212.203 310.838C211.591 311.114 210.955 311.252 210.295 311.252Z" fill="white"/>
<circle cx="77.5" cy="32.5" r="32.5" fill="#0095CC"/>
<path d="M72.676 30.098V31.66H83.192V30.098H72.676ZM72.676 26.578V28.074H83.192V26.578H72.676ZM70.036 24.4H85.942V33.838H70.036V24.4ZM76.57 25.434H79.232V32.738H76.57V25.434ZM68.562 35.378H85.194V37.732H68.562V35.378ZM84.006 35.378H86.69C86.69 35.378 86.6827 35.444 86.668 35.576C86.668 35.6933 86.6607 35.8327 86.646 35.994C86.646 36.1553 86.6387 36.2947 86.624 36.412C86.5067 37.7613 86.3747 38.876 86.228 39.756C86.0813 40.636 85.9127 41.34 85.722 41.868C85.546 42.3813 85.3333 42.7553 85.084 42.99C84.7907 43.2833 84.468 43.4887 84.116 43.606C83.7787 43.738 83.3753 43.8187 82.906 43.848C82.51 43.8773 81.9967 43.892 81.366 43.892C80.7353 43.892 80.0753 43.8847 79.386 43.87C79.3567 43.5033 79.2613 43.0927 79.1 42.638C78.9533 42.1833 78.7627 41.7873 78.528 41.45C79.2027 41.5087 79.8553 41.5453 80.486 41.56C81.1167 41.5747 81.5787 41.582 81.872 41.582C82.092 41.582 82.2753 41.5747 82.422 41.56C82.5833 41.5307 82.7227 41.4647 82.84 41.362C83.016 41.2153 83.17 40.9293 83.302 40.504C83.4487 40.064 83.5733 39.4553 83.676 38.678C83.7933 37.9007 83.896 36.918 83.984 35.73L84.006 35.378ZM76.174 33.398H78.946C78.8287 34.3953 78.6673 35.3487 78.462 36.258C78.2567 37.1527 77.9487 37.9887 77.538 38.766C77.1273 39.5433 76.5627 40.262 75.844 40.922C75.14 41.5673 74.2307 42.1467 73.116 42.66C72.0013 43.1733 70.63 43.606 69.002 43.958C68.9287 43.7233 68.8113 43.4667 68.65 43.188C68.5033 42.9093 68.342 42.6307 68.166 42.352C67.99 42.0733 67.8067 41.8387 67.616 41.648C69.0973 41.3693 70.3293 41.032 71.312 40.636C72.2947 40.24 73.0867 39.7927 73.688 39.294C74.304 38.7953 74.7733 38.2453 75.096 37.644C75.4187 37.028 75.6607 36.368 75.822 35.664C75.9833 34.9453 76.1007 34.19 76.174 33.398Z" fill="white"/>
<circle cx="238.5" cy="32.5" r="32.5" fill="#FFA59B"/>
<path d="M229.21 28.206H248.9V31.044H229.21V28.206ZM243.62 26.028L246.436 26.688C246.099 28.8587 245.644 30.7873 245.072 32.474C244.5 34.146 243.789 35.6053 242.938 36.852C242.102 38.0987 241.097 39.1693 239.924 40.064C238.751 40.9587 237.379 41.714 235.81 42.33C234.241 42.946 232.437 43.452 230.398 43.848C230.251 43.4667 230.031 43.0267 229.738 42.528C229.445 42.044 229.144 41.6333 228.836 41.296C230.757 40.9733 232.451 40.5553 233.918 40.042C235.385 39.514 236.653 38.8687 237.724 38.106C238.809 37.3287 239.733 36.3827 240.496 35.268C241.259 34.1387 241.889 32.8187 242.388 31.308C242.901 29.7827 243.312 28.0227 243.62 26.028ZM231.344 36.236C231.828 35.3853 232.319 34.432 232.818 33.376C233.317 32.32 233.801 31.2127 234.27 30.054C234.739 28.8953 235.172 27.7293 235.568 26.556C235.964 25.3827 236.301 24.2533 236.58 23.168L239.418 23.564C239.139 24.6787 238.809 25.83 238.428 27.018C238.047 28.1913 237.636 29.35 237.196 30.494C236.771 31.6233 236.338 32.7013 235.898 33.728C235.473 34.74 235.069 35.6493 234.688 36.456L231.344 36.236ZM231.344 36.236L233.104 34.08C234.556 34.6373 236.015 35.2387 237.482 35.884C238.949 36.5293 240.371 37.182 241.75 37.842C243.143 38.4873 244.441 39.1253 245.644 39.756C246.847 40.3867 247.895 40.9587 248.79 41.472L246.7 44.002C245.835 43.4447 244.823 42.836 243.664 42.176C242.505 41.516 241.251 40.8413 239.902 40.152C238.567 39.448 237.174 38.766 235.722 38.106C234.27 37.4313 232.811 36.808 231.344 36.236Z" fill="white"/>
<path d="M149.585 44.94C148.895 43.82 148.355 42.645 147.965 41.415C147.575 40.175 147.38 38.815 147.38 37.335C147.38 35.865 147.575 34.51 147.965 33.27C148.355 32.03 148.895 30.85 149.585 29.73L150.425 30.12C149.785 31.19 149.305 32.345 148.985 33.585C148.675 34.815 148.52 36.065 148.52 37.335C148.52 38.615 148.675 39.875 148.985 41.115C149.305 42.345 149.785 43.495 150.425 44.565L149.585 44.94ZM154.143 37.74C153.643 37.74 153.203 37.605 152.823 37.335C152.453 37.055 152.163 36.655 151.953 36.135C151.753 35.615 151.653 34.985 151.653 34.245C151.653 33.505 151.753 32.88 151.953 32.37C152.163 31.86 152.453 31.475 152.823 31.215C153.203 30.945 153.643 30.81 154.143 30.81C154.653 30.81 155.093 30.945 155.463 31.215C155.843 31.475 156.133 31.86 156.333 32.37C156.543 32.88 156.648 33.505 156.648 34.245C156.648 34.985 156.543 35.615 156.333 36.135C156.133 36.655 155.843 37.055 155.463 37.335C155.093 37.605 154.653 37.74 154.143 37.74ZM154.143 36.9C154.583 36.9 154.933 36.68 155.193 36.24C155.463 35.79 155.598 35.125 155.598 34.245C155.598 33.365 155.463 32.715 155.193 32.295C154.933 31.865 154.583 31.65 154.143 31.65C153.713 31.65 153.363 31.865 153.093 32.295C152.823 32.715 152.688 33.365 152.688 34.245C152.688 35.125 152.823 35.79 153.093 36.24C153.363 36.68 153.713 36.9 154.143 36.9ZM154.458 42.195L160.533 30.81H161.463L155.388 42.195H154.458ZM161.808 42.195C161.308 42.195 160.868 42.06 160.488 41.79C160.118 41.52 159.828 41.125 159.618 40.605C159.418 40.085 159.318 39.455 159.318 38.715C159.318 37.975 159.418 37.35 159.618 36.84C159.828 36.33 160.118 35.94 160.488 35.67C160.868 35.4 161.308 35.265 161.808 35.265C162.308 35.265 162.743 35.4 163.113 35.67C163.493 35.94 163.783 36.33 163.983 36.84C164.193 37.35 164.298 37.975 164.298 38.715C164.298 39.455 164.193 40.085 163.983 40.605C163.783 41.125 163.493 41.52 163.113 41.79C162.743 42.06 162.308 42.195 161.808 42.195ZM161.808 41.355C162.238 41.355 162.588 41.135 162.858 40.695C163.138 40.255 163.278 39.595 163.278 38.715C163.278 37.835 163.138 37.18 162.858 36.75C162.588 36.32 162.238 36.105 161.808 36.105C161.378 36.105 161.023 36.32 160.743 36.75C160.473 37.18 160.338 37.835 160.338 38.715C160.338 39.595 160.473 40.255 160.743 40.695C161.023 41.135 161.378 41.355 161.808 41.355ZM166.367 44.94L165.512 44.565C166.162 43.495 166.647 42.345 166.967 41.115C167.287 39.875 167.447 38.615 167.447 37.335C167.447 36.065 167.287 34.815 166.967 33.585C166.647 32.345 166.162 31.19 165.512 30.12L166.367 29.73C167.067 30.85 167.607 32.03 167.987 33.27C168.377 34.51 168.572 35.865 168.572 37.335C168.572 38.815 168.377 40.175 167.987 41.415C167.607 42.645 167.067 43.82 166.367 44.94Z" fill="#4C4C4C"/>
</svg>
