<svg width="656" height="204" viewBox="0 0 656 204" fill="none" xmlns="http://www.w3.org/2000/svg">
<rect x="656" y="125" width="38.5101" height="52" transform="rotate(-180 656 125)" fill="#F5F5F5"/>
<rect x="26.5586" y="125" width="26.5587" height="52" transform="rotate(-180 26.5586 125)" fill="#3A5F70"/>
<rect x="617.287" y="125" width="175.287" height="52" transform="rotate(-180 617.287 125)" fill="#E2E2E2"/>
<rect x="442.145" y="125" width="203.443" height="52" transform="rotate(-180 442.145 125)" fill="#3CB2E4"/>
<rect x="238.734" y="125" width="212.47" height="52" transform="rotate(-180 238.734 125)" fill="#0A8FC8"/>
<path d="M595.115 162.195V163.215H587.21V162.195H595.115ZM595.025 168.975L594.125 169.41C593.75 168.63 592.955 167.46 592.115 166.455C592.745 165.54 593.435 164.4 593.78 163.695L594.77 163.965C594.335 164.73 593.735 165.675 593.225 166.425C593.93 167.265 594.665 168.3 595.025 168.975ZM591.215 163.71L592.19 163.965C591.77 164.715 591.185 165.675 590.69 166.41C591.35 167.265 592.04 168.3 592.385 168.96L591.455 169.38C591.14 168.6 590.405 167.445 589.595 166.44C590.21 165.54 590.87 164.415 591.215 163.71ZM589.775 169.02L588.845 169.41C588.53 168.63 587.825 167.475 587.06 166.455C587.645 165.54 588.29 164.4 588.635 163.695L589.61 163.95C589.205 164.715 588.635 165.675 588.125 166.425C588.785 167.295 589.445 168.345 589.775 169.02ZM587.045 170.175L586.13 170.475C586.1 170.25 586.04 169.965 585.965 169.665C582.785 170.145 582.335 170.25 582.035 170.4C581.975 170.175 581.81 169.635 581.675 169.365C582.005 169.29 582.35 168.915 582.785 168.375C583.01 168.105 583.475 167.475 584.015 166.68C582.47 166.86 582.155 166.92 581.945 167.025C581.885 166.8 581.72 166.32 581.6 166.035C581.855 165.975 582.11 165.675 582.425 165.21C582.74 164.775 583.79 163.05 584.405 161.445L585.395 161.85C584.735 163.26 583.925 164.7 583.115 165.84L584.66 165.705C585.035 165.075 585.425 164.4 585.74 163.71L586.7 164.28C585.74 165.99 584.57 167.73 583.37 169.11L585.725 168.81C585.56 168.3 585.395 167.79 585.215 167.34L586.07 167.1C586.475 168.09 586.895 169.395 587.045 170.175ZM582.32 171.045L583.25 171.195C583.1 172.5 582.815 173.94 582.485 174.885C582.29 174.78 581.825 174.63 581.6 174.54C581.945 173.61 582.17 172.275 582.32 171.045ZM583.85 171.15L584.705 171.015C584.9 172.005 585.08 173.295 585.125 174.165L584.225 174.315C584.195 173.475 584.03 172.17 583.85 171.15ZM585.305 170.88L586.1 170.625C586.4 171.42 586.745 172.455 586.865 173.13L586.04 173.415C585.905 172.725 585.59 171.675 585.305 170.88ZM591.62 173.775H595.265V174.795H586.7V173.775H590.525V170.925H587.54V169.92H594.665V170.925H591.62V173.775ZM600.71 166.65V168.12H606.365V166.65H600.71ZM608.855 170.19V173.325C608.855 173.91 608.735 174.21 608.27 174.375C607.805 174.555 607.055 174.555 605.9 174.555C605.84 174.24 605.66 173.835 605.51 173.535C606.41 173.565 607.205 173.565 607.43 173.55C607.655 173.535 607.73 173.49 607.73 173.31V171.21H604.25V175.155H603.125V171.21H599.42V174.48H598.31V170.19H603.125V168.96H599.645V165.81H607.475V168.96H604.25V170.19H608.855ZM607.4 161.565L608.555 161.97C608.06 162.63 607.49 163.32 607.055 163.77L606.155 163.395C606.575 162.9 607.115 162.105 607.4 161.565ZM609.77 163.77V166.965H608.675V164.745H598.4V166.965H597.335V163.77H599.735C599.51 163.275 599.015 162.54 598.565 162L599.555 161.595C600.05 162.12 600.575 162.855 600.83 163.35L599.9 163.77H603.035V161.445H604.16V163.77H609.77ZM622.205 168.69V167.175H615.95V168.69H622.205ZM615.905 171.225H622.205V169.65H615.95V170.115C615.95 170.475 615.935 170.835 615.905 171.225ZM625.055 164.43H616.955C616.67 165.015 616.37 165.615 616.04 166.17H623.3V173.745C623.3 174.42 623.15 174.75 622.67 174.93C622.175 175.11 621.335 175.125 620.06 175.125C620.015 174.795 619.85 174.345 619.685 174.03C620.69 174.075 621.59 174.06 621.86 174.06C622.115 174.045 622.205 173.97 622.205 173.745V172.185H615.77C615.575 173.28 615.125 174.405 614.24 175.23C614.105 174.99 613.7 174.525 613.46 174.36C614.705 173.16 614.84 171.51 614.84 170.085V167.895C614.135 168.75 613.325 169.545 612.41 170.19C612.26 169.95 611.915 169.545 611.705 169.32C613.46 168.135 614.81 166.365 615.74 164.43H612.005V163.38H616.22C616.475 162.735 616.7 162.09 616.88 161.445L617.99 161.715C617.825 162.27 617.63 162.84 617.405 163.38H625.055V164.43ZM640.145 167.805L639.425 168.06C639.38 167.88 639.32 167.64 639.23 167.385C637.07 167.73 636.695 167.805 636.515 167.91C636.455 167.73 636.32 167.265 636.23 167.04C636.455 166.995 636.68 166.74 636.95 166.38C637.115 166.185 637.46 165.69 637.865 165.045C636.755 165.195 636.5 165.27 636.35 165.345C636.305 165.15 636.17 164.745 636.065 164.505C636.245 164.49 636.41 164.295 636.59 164.01C636.74 163.755 637.37 162.66 637.685 161.655L638.495 161.91C638.135 162.795 637.67 163.68 637.205 164.37L638.3 164.25C638.495 163.92 638.675 163.56 638.825 163.215L639.665 163.53C639.035 164.76 638.24 165.96 637.475 166.89L638.99 166.68C638.87 166.38 638.75 166.065 638.63 165.78L639.305 165.585C639.635 166.29 639.995 167.25 640.145 167.805ZM634.745 168.06L634.01 168.315C633.965 168.135 633.905 167.925 633.845 167.685C631.7 168.015 631.355 168.075 631.145 168.195C631.115 168.015 630.995 167.58 630.89 167.355C631.1 167.295 631.355 167.055 631.64 166.68C631.805 166.5 632.195 165.975 632.615 165.33C631.445 165.495 631.16 165.57 631.01 165.645C630.98 165.465 630.845 165.045 630.755 164.82C630.935 164.775 631.1 164.58 631.31 164.28C631.52 163.98 632.21 162.825 632.57 161.685L633.41 161.955C632.99 162.93 632.45 163.92 631.91 164.67L633.095 164.55C633.275 164.22 633.455 163.89 633.605 163.545L634.415 163.86C633.755 165.06 632.96 166.245 632.165 167.175L633.635 166.98C633.515 166.65 633.395 166.335 633.275 166.035L633.98 165.84C634.31 166.56 634.61 167.505 634.745 168.06ZM630.695 168.63L630.14 169.455C629.99 169.05 629.66 168.33 629.345 167.7V175.14H628.37V168.015C627.995 169.56 627.485 171.03 626.975 171.93C626.855 171.615 626.615 171.12 626.45 170.85C627.2 169.635 627.92 167.34 628.28 165.375H626.78V164.325H628.37V161.445H629.345V164.325H630.53V165.375H629.345V166.35C629.675 166.875 630.485 168.255 630.695 168.63ZM638.36 170.22L639.32 170.565C638.855 171.465 638.24 172.26 637.475 172.965C637.91 173.625 638.435 173.985 639.035 174.045C639.35 174.075 639.545 173.505 639.665 172.425C639.845 172.635 640.22 172.89 640.415 172.995C640.13 174.63 639.665 175.185 639.065 175.14C638.09 175.08 637.31 174.54 636.695 173.61C635.915 174.18 635.03 174.675 634.07 175.065C633.95 174.87 633.68 174.54 633.47 174.36C634.505 173.955 635.465 173.43 636.26 172.8C635.915 172.035 635.63 171.105 635.39 170.055H632.945V170.28C632.945 170.385 632.945 170.505 632.93 170.625C633.65 171.18 634.55 171.945 635 172.41L634.31 173.085C633.965 172.71 633.38 172.155 632.795 171.66C632.54 172.86 631.91 174.165 630.59 175.17C630.44 174.96 630.065 174.615 629.855 174.495C631.61 173.205 631.985 171.525 631.985 170.265V170.055H630.845V169.155H635.225C634.865 167.025 634.67 164.43 634.58 161.565H635.54C635.615 164.49 635.825 167.1 636.2 169.155H638.345C637.985 168.84 637.445 168.465 637.01 168.195L637.58 167.67C638.105 167.97 638.795 168.435 639.14 168.75L638.75 169.155H639.995V170.055H636.38C636.575 170.85 636.77 171.54 637.025 172.11C637.58 171.54 638.045 170.895 638.36 170.22ZM651.665 171H645.455V172.02H651.665V171ZM645.455 173.835H651.665V172.815H645.455V173.835ZM644.36 175.125V170.205H652.79V175.08H651.665V174.63H645.455V175.125H644.36ZM650.645 168.675L649.895 168.405C650.165 167.91 650.555 167.115 650.72 166.605L651.665 166.905C651.335 167.55 650.96 168.225 650.645 168.675ZM645.35 166.92L646.145 166.665C646.535 167.19 646.91 167.88 647.045 168.36L646.19 168.675C646.07 168.195 645.725 167.475 645.35 166.92ZM644.45 166.5V168.735H647.99V166.5H644.45ZM652.505 168.735V166.5H648.935V168.735H652.505ZM643.49 169.5V165.72H653.51V169.5H643.49ZM646.625 164.175H650.54C649.82 163.725 649.145 163.215 648.575 162.675C648.005 163.23 647.345 163.74 646.625 164.175ZM648.41 161.4L649.385 161.76C649.31 161.85 649.25 161.955 649.175 162.045C650.585 163.41 653.18 164.625 655.52 165.165C655.28 165.375 654.98 165.765 654.815 166.035C653.6 165.69 652.31 165.18 651.14 164.52V164.985H645.935V164.565C644.795 165.21 643.52 165.72 642.26 166.11C642.14 165.9 641.825 165.465 641.63 165.255C644.345 164.535 647 163.215 648.41 161.4Z" fill="black"/>
<path d="M604.986 201.252C604.278 201.252 603.648 201.168 603.096 201C602.544 200.832 602.052 200.61 601.62 200.334C601.188 200.058 600.804 199.758 600.468 199.434L601.692 197.742C601.944 197.994 602.214 198.222 602.502 198.426C602.802 198.63 603.126 198.792 603.474 198.912C603.834 199.032 604.218 199.092 604.626 199.092C605.082 199.092 605.484 198.996 605.832 198.804C606.192 198.612 606.474 198.336 606.678 197.976C606.882 197.604 606.984 197.16 606.984 196.644C606.984 195.876 606.774 195.282 606.354 194.862C605.946 194.442 605.406 194.232 604.734 194.232C604.35 194.232 604.02 194.286 603.744 194.394C603.468 194.49 603.132 194.664 602.736 194.916L601.53 194.142L601.89 187.662H609.018V189.894H604.176L603.924 192.72C604.188 192.6 604.446 192.51 604.698 192.45C604.95 192.39 605.226 192.36 605.526 192.36C606.27 192.36 606.954 192.51 607.578 192.81C608.202 193.098 608.7 193.554 609.072 194.178C609.444 194.802 609.63 195.6 609.63 196.572C609.63 197.556 609.408 198.402 608.964 199.11C608.532 199.806 607.962 200.34 607.254 200.712C606.558 201.072 605.802 201.252 604.986 201.252ZM613.551 201.252C613.071 201.252 612.675 201.084 612.363 200.748C612.051 200.412 611.895 200.004 611.895 199.524C611.895 199.02 612.051 198.606 612.363 198.282C612.675 197.958 613.071 197.796 613.551 197.796C614.019 197.796 614.409 197.958 614.721 198.282C615.033 198.606 615.189 199.02 615.189 199.524C615.189 200.004 615.033 200.412 614.721 200.748C614.409 201.084 614.019 201.252 613.551 201.252ZM621.061 201.252C620.233 201.252 619.513 201.102 618.901 200.802C618.301 200.502 617.803 200.148 617.407 199.74L618.811 198.138C619.051 198.414 619.363 198.642 619.747 198.822C620.131 199.002 620.521 199.092 620.917 199.092C621.301 199.092 621.667 199.008 622.015 198.84C622.363 198.66 622.663 198.378 622.915 197.994C623.179 197.598 623.383 197.076 623.527 196.428C623.683 195.78 623.761 194.982 623.761 194.034C623.761 192.894 623.653 191.988 623.437 191.316C623.233 190.644 622.957 190.164 622.609 189.876C622.261 189.576 621.865 189.426 621.421 189.426C621.097 189.426 620.797 189.516 620.521 189.696C620.245 189.876 620.023 190.146 619.855 190.506C619.699 190.866 619.621 191.322 619.621 191.874C619.621 192.39 619.699 192.822 619.855 193.17C620.011 193.506 620.227 193.758 620.503 193.926C620.791 194.094 621.127 194.178 621.511 194.178C621.883 194.178 622.267 194.064 622.663 193.836C623.059 193.608 623.419 193.224 623.743 192.684L623.869 194.466C623.641 194.79 623.359 195.072 623.023 195.312C622.699 195.552 622.363 195.738 622.015 195.87C621.667 196.002 621.331 196.068 621.007 196.068C620.275 196.068 619.621 195.918 619.045 195.618C618.469 195.306 618.013 194.844 617.677 194.232C617.353 193.608 617.191 192.822 617.191 191.874C617.191 190.962 617.383 190.176 617.767 189.516C618.151 188.844 618.661 188.328 619.297 187.968C619.933 187.608 620.629 187.428 621.385 187.428C622.021 187.428 622.621 187.56 623.185 187.824C623.761 188.076 624.271 188.472 624.715 189.012C625.171 189.54 625.525 190.224 625.777 191.064C626.041 191.892 626.173 192.882 626.173 194.034C626.173 195.294 626.035 196.38 625.759 197.292C625.483 198.192 625.099 198.936 624.607 199.524C624.127 200.112 623.581 200.55 622.969 200.838C622.357 201.114 621.721 201.252 621.061 201.252ZM632.074 201.252C631.366 201.252 630.736 201.168 630.184 201C629.632 200.832 629.14 200.61 628.708 200.334C628.276 200.058 627.892 199.758 627.556 199.434L628.78 197.742C629.032 197.994 629.302 198.222 629.59 198.426C629.89 198.63 630.214 198.792 630.562 198.912C630.922 199.032 631.306 199.092 631.714 199.092C632.17 199.092 632.572 198.996 632.92 198.804C633.28 198.612 633.562 198.336 633.766 197.976C633.97 197.604 634.072 197.16 634.072 196.644C634.072 195.876 633.862 195.282 633.442 194.862C633.034 194.442 632.494 194.232 631.822 194.232C631.438 194.232 631.108 194.286 630.832 194.394C630.556 194.49 630.22 194.664 629.824 194.916L628.618 194.142L628.978 187.662H636.106V189.894H631.264L631.012 192.72C631.276 192.6 631.534 192.51 631.786 192.45C632.038 192.39 632.314 192.36 632.614 192.36C633.358 192.36 634.042 192.51 634.666 192.81C635.29 193.098 635.788 193.554 636.16 194.178C636.532 194.802 636.718 195.6 636.718 196.572C636.718 197.556 636.496 198.402 636.052 199.11C635.62 199.806 635.05 200.34 634.342 200.712C633.646 201.072 632.89 201.252 632.074 201.252ZM641.521 195.87C640.897 195.87 640.339 195.702 639.847 195.366C639.355 195.03 638.971 194.544 638.695 193.908C638.419 193.272 638.281 192.51 638.281 191.622C638.281 190.734 638.419 189.978 638.695 189.354C638.971 188.73 639.355 188.256 639.847 187.932C640.339 187.596 640.897 187.428 641.521 187.428C642.169 187.428 642.733 187.596 643.213 187.932C643.705 188.256 644.089 188.73 644.365 189.354C644.641 189.978 644.779 190.734 644.779 191.622C644.779 192.51 644.641 193.272 644.365 193.908C644.089 194.544 643.705 195.03 643.213 195.366C642.733 195.702 642.169 195.87 641.521 195.87ZM641.521 194.376C641.905 194.376 642.229 194.166 642.493 193.746C642.769 193.314 642.907 192.606 642.907 191.622C642.907 190.65 642.769 189.96 642.493 189.552C642.229 189.132 641.905 188.922 641.521 188.922C641.137 188.922 640.807 189.132 640.531 189.552C640.267 189.96 640.135 190.65 640.135 191.622C640.135 192.606 640.267 193.314 640.531 193.746C640.807 194.166 641.137 194.376 641.521 194.376ZM641.953 201.252L649.207 187.428H650.773L643.537 201.252H641.953ZM651.223 201.252C650.587 201.252 650.023 201.084 649.531 200.748C649.051 200.412 648.667 199.926 648.379 199.29C648.103 198.654 647.965 197.892 647.965 197.004C647.965 196.104 648.103 195.342 648.379 194.718C648.667 194.094 649.051 193.62 649.531 193.296C650.023 192.96 650.587 192.792 651.223 192.792C651.847 192.792 652.399 192.96 652.879 193.296C653.371 193.62 653.755 194.094 654.031 194.718C654.319 195.342 654.463 196.104 654.463 197.004C654.463 197.892 654.319 198.654 654.031 199.29C653.755 199.926 653.371 200.412 652.879 200.748C652.399 201.084 651.847 201.252 651.223 201.252ZM651.223 199.74C651.607 199.74 651.931 199.53 652.195 199.11C652.459 198.678 652.591 197.976 652.591 197.004C652.591 196.008 652.459 195.312 652.195 194.916C651.931 194.508 651.607 194.304 651.223 194.304C650.827 194.304 650.497 194.508 650.233 194.916C649.969 195.312 649.837 196.008 649.837 197.004C649.837 197.976 649.969 198.678 650.233 199.11C650.497 199.53 650.827 199.74 651.223 199.74Z" fill="black"/>
<path d="M446.035 161.505L447.07 161.82C446.65 162.96 446.14 164.115 445.54 165.18V175.14H444.475V166.875C444.055 167.49 443.605 168.06 443.155 168.555C443.05 168.285 442.72 167.715 442.525 167.46C443.92 166.005 445.24 163.77 446.035 161.505ZM448.615 166.815H450.94V165.345H448.615V166.815ZM448.615 163.05V164.505H450.94V163.05H448.615ZM454.33 164.505V163.05H451.945V164.505H454.33ZM454.33 166.815V165.345H451.945V166.815H454.33ZM456.025 168.87V173.985C456.025 174.57 455.905 174.84 455.47 175.005C455.02 175.17 454.285 175.185 453.145 175.17C453.1 174.885 452.965 174.495 452.83 174.225C453.7 174.27 454.48 174.255 454.69 174.24C454.915 174.225 454.99 174.18 454.99 173.97V169.815H451.945V171.705L453.31 171.6C453.13 171.225 452.95 170.88 452.785 170.565L453.43 170.34C453.97 171.255 454.525 172.455 454.75 173.19L454.075 173.475C453.985 173.175 453.835 172.815 453.67 172.425C451.87 172.62 450.025 172.83 448.615 172.995L448.405 172.02C449.11 171.96 449.98 171.885 450.94 171.81V169.815H447.94V175.155H446.875V169.815H446.38V168.87H446.875V168.255H447.94V168.87H450.94V167.7H447.565V162.165H455.41V167.7H451.945V168.87H456.025ZM462.58 170.115L463.33 170.295C463.135 170.79 462.88 171.285 462.61 171.735C462.985 172.035 463.33 172.335 463.555 172.575L463.09 173.175C462.88 172.935 462.565 172.65 462.22 172.35C461.8 172.95 461.335 173.49 460.855 173.91C460.72 173.79 460.42 173.55 460.24 173.46C460.75 173.025 461.23 172.5 461.635 171.9C461.275 171.63 460.9 171.375 460.54 171.18L460.99 170.625C461.32 170.82 461.68 171.045 462.01 171.285C462.235 170.91 462.43 170.52 462.58 170.115ZM463.48 168.855L463.015 169.455C462.805 169.23 462.49 168.96 462.145 168.69C461.755 169.2 461.35 169.665 460.93 170.025C460.795 169.905 460.495 169.695 460.315 169.605C460.765 169.23 461.185 168.78 461.575 168.285C461.23 168.075 460.885 167.865 460.57 167.7L461.02 167.175C461.335 167.325 461.665 167.505 461.98 167.715C462.205 167.37 462.415 167.01 462.58 166.65L463.285 166.83C463.075 167.265 462.835 167.7 462.565 168.105C462.94 168.375 463.255 168.63 463.48 168.855ZM468.61 172.47L468.16 173.07C467.935 172.83 467.605 172.545 467.23 172.26C466.795 172.875 466.315 173.415 465.805 173.85C465.685 173.73 465.385 173.505 465.19 173.4C465.73 172.98 466.225 172.44 466.645 171.84C466.27 171.57 465.88 171.33 465.52 171.12L465.955 170.58C466.315 170.76 466.69 170.985 467.05 171.225C467.26 170.865 467.455 170.49 467.605 170.1L468.34 170.28C468.145 170.745 467.905 171.21 467.65 171.645C468.04 171.945 468.37 172.23 468.61 172.47ZM468.505 168.915L468.025 169.5C467.8 169.26 467.47 168.975 467.11 168.705C466.705 169.23 466.27 169.695 465.835 170.07C465.715 169.95 465.43 169.74 465.235 169.65C465.7 169.275 466.135 168.81 466.54 168.285C466.18 168.045 465.805 167.82 465.46 167.64L465.91 167.13C466.24 167.295 466.6 167.505 466.945 167.715C467.17 167.37 467.38 167.01 467.545 166.65L468.25 166.83C468.055 167.265 467.8 167.7 467.53 168.105C467.92 168.39 468.265 168.675 468.505 168.915ZM465.01 165.39H469.45C468.595 164.865 467.575 164.295 466.69 163.905L467.44 163.335H465.01V165.39ZM471.415 165.465L470.59 166.17C470.455 166.065 470.305 165.96 470.14 165.84V173.91C470.14 174.51 470.005 174.81 469.585 174.975C469.15 175.14 468.4 175.14 467.275 175.14C467.215 174.885 467.065 174.465 466.93 174.21C467.8 174.24 468.55 174.225 468.79 174.21C469.03 174.195 469.105 174.135 469.105 173.91V166.305H465.01V175.08H463.945V166.305H460.03V175.14H458.995V166.05C458.785 166.155 458.575 166.26 458.38 166.35C458.215 166.17 457.795 165.795 457.555 165.615C458.875 165.09 460.3 164.265 461.155 163.38L462.145 163.74C461.59 164.325 460.87 164.895 460.105 165.39H463.945V163.335H458.005V162.345H471.07V163.335H467.65C468.955 163.95 470.56 164.835 471.415 165.465ZM483.205 168.69V167.175H476.95V168.69H483.205ZM476.905 171.225H483.205V169.65H476.95V170.115C476.95 170.475 476.935 170.835 476.905 171.225ZM486.055 164.43H477.955C477.67 165.015 477.37 165.615 477.04 166.17H484.3V173.745C484.3 174.42 484.15 174.75 483.67 174.93C483.175 175.11 482.335 175.125 481.06 175.125C481.015 174.795 480.85 174.345 480.685 174.03C481.69 174.075 482.59 174.06 482.86 174.06C483.115 174.045 483.205 173.97 483.205 173.745V172.185H476.77C476.575 173.28 476.125 174.405 475.24 175.23C475.105 174.99 474.7 174.525 474.46 174.36C475.705 173.16 475.84 171.51 475.84 170.085V167.895C475.135 168.75 474.325 169.545 473.41 170.19C473.26 169.95 472.915 169.545 472.705 169.32C474.46 168.135 475.81 166.365 476.74 164.43H473.005V163.38H477.22C477.475 162.735 477.7 162.09 477.88 161.445L478.99 161.715C478.825 162.27 478.63 162.84 478.405 163.38H486.055V164.43ZM501.145 167.805L500.425 168.06C500.38 167.88 500.32 167.64 500.23 167.385C498.07 167.73 497.695 167.805 497.515 167.91C497.455 167.73 497.32 167.265 497.23 167.04C497.455 166.995 497.68 166.74 497.95 166.38C498.115 166.185 498.46 165.69 498.865 165.045C497.755 165.195 497.5 165.27 497.35 165.345C497.305 165.15 497.17 164.745 497.065 164.505C497.245 164.49 497.41 164.295 497.59 164.01C497.74 163.755 498.37 162.66 498.685 161.655L499.495 161.91C499.135 162.795 498.67 163.68 498.205 164.37L499.3 164.25C499.495 163.92 499.675 163.56 499.825 163.215L500.665 163.53C500.035 164.76 499.24 165.96 498.475 166.89L499.99 166.68C499.87 166.38 499.75 166.065 499.63 165.78L500.305 165.585C500.635 166.29 500.995 167.25 501.145 167.805ZM495.745 168.06L495.01 168.315C494.965 168.135 494.905 167.925 494.845 167.685C492.7 168.015 492.355 168.075 492.145 168.195C492.115 168.015 491.995 167.58 491.89 167.355C492.1 167.295 492.355 167.055 492.64 166.68C492.805 166.5 493.195 165.975 493.615 165.33C492.445 165.495 492.16 165.57 492.01 165.645C491.98 165.465 491.845 165.045 491.755 164.82C491.935 164.775 492.1 164.58 492.31 164.28C492.52 163.98 493.21 162.825 493.57 161.685L494.41 161.955C493.99 162.93 493.45 163.92 492.91 164.67L494.095 164.55C494.275 164.22 494.455 163.89 494.605 163.545L495.415 163.86C494.755 165.06 493.96 166.245 493.165 167.175L494.635 166.98C494.515 166.65 494.395 166.335 494.275 166.035L494.98 165.84C495.31 166.56 495.61 167.505 495.745 168.06ZM491.695 168.63L491.14 169.455C490.99 169.05 490.66 168.33 490.345 167.7V175.14H489.37V168.015C488.995 169.56 488.485 171.03 487.975 171.93C487.855 171.615 487.615 171.12 487.45 170.85C488.2 169.635 488.92 167.34 489.28 165.375H487.78V164.325H489.37V161.445H490.345V164.325H491.53V165.375H490.345V166.35C490.675 166.875 491.485 168.255 491.695 168.63ZM499.36 170.22L500.32 170.565C499.855 171.465 499.24 172.26 498.475 172.965C498.91 173.625 499.435 173.985 500.035 174.045C500.35 174.075 500.545 173.505 500.665 172.425C500.845 172.635 501.22 172.89 501.415 172.995C501.13 174.63 500.665 175.185 500.065 175.14C499.09 175.08 498.31 174.54 497.695 173.61C496.915 174.18 496.03 174.675 495.07 175.065C494.95 174.87 494.68 174.54 494.47 174.36C495.505 173.955 496.465 173.43 497.26 172.8C496.915 172.035 496.63 171.105 496.39 170.055H493.945V170.28C493.945 170.385 493.945 170.505 493.93 170.625C494.65 171.18 495.55 171.945 496 172.41L495.31 173.085C494.965 172.71 494.38 172.155 493.795 171.66C493.54 172.86 492.91 174.165 491.59 175.17C491.44 174.96 491.065 174.615 490.855 174.495C492.61 173.205 492.985 171.525 492.985 170.265V170.055H491.845V169.155H496.225C495.865 167.025 495.67 164.43 495.58 161.565H496.54C496.615 164.49 496.825 167.1 497.2 169.155H499.345C498.985 168.84 498.445 168.465 498.01 168.195L498.58 167.67C499.105 167.97 499.795 168.435 500.14 168.75L499.75 169.155H500.995V170.055H497.38C497.575 170.85 497.77 171.54 498.025 172.11C498.58 171.54 499.045 170.895 499.36 170.22ZM512.665 171H506.455V172.02H512.665V171ZM506.455 173.835H512.665V172.815H506.455V173.835ZM505.36 175.125V170.205H513.79V175.08H512.665V174.63H506.455V175.125H505.36ZM511.645 168.675L510.895 168.405C511.165 167.91 511.555 167.115 511.72 166.605L512.665 166.905C512.335 167.55 511.96 168.225 511.645 168.675ZM506.35 166.92L507.145 166.665C507.535 167.19 507.91 167.88 508.045 168.36L507.19 168.675C507.07 168.195 506.725 167.475 506.35 166.92ZM505.45 166.5V168.735H508.99V166.5H505.45ZM513.505 168.735V166.5H509.935V168.735H513.505ZM504.49 169.5V165.72H514.51V169.5H504.49ZM507.625 164.175H511.54C510.82 163.725 510.145 163.215 509.575 162.675C509.005 163.23 508.345 163.74 507.625 164.175ZM509.41 161.4L510.385 161.76C510.31 161.85 510.25 161.955 510.175 162.045C511.585 163.41 514.18 164.625 516.52 165.165C516.28 165.375 515.98 165.765 515.815 166.035C514.6 165.69 513.31 165.18 512.14 164.52V164.985H506.935V164.565C505.795 165.21 504.52 165.72 503.26 166.11C503.14 165.9 502.825 165.465 502.63 165.255C505.345 164.535 508 163.215 509.41 161.4Z" fill="black"/>
<path d="M461.774 201V199.47C462.986 198.39 464.018 197.388 464.87 196.464C465.734 195.54 466.394 194.682 466.85 193.89C467.306 193.086 467.534 192.342 467.534 191.658C467.534 191.226 467.456 190.848 467.3 190.524C467.144 190.2 466.916 189.954 466.616 189.786C466.328 189.606 465.968 189.516 465.536 189.516C465.056 189.516 464.612 189.654 464.204 189.93C463.808 190.194 463.442 190.512 463.106 190.884L461.63 189.462C462.254 188.79 462.89 188.286 463.538 187.95C464.198 187.602 464.978 187.428 465.878 187.428C466.718 187.428 467.45 187.602 468.074 187.95C468.71 188.286 469.202 188.76 469.55 189.372C469.898 189.984 470.072 190.704 470.072 191.532C470.072 192.336 469.868 193.158 469.46 193.998C469.064 194.826 468.53 195.654 467.858 196.482C467.186 197.31 466.442 198.126 465.626 198.93C465.974 198.882 466.346 198.846 466.742 198.822C467.15 198.786 467.51 198.768 467.822 198.768H470.702V201H461.774ZM474.965 201C475.025 199.848 475.127 198.786 475.271 197.814C475.415 196.83 475.619 195.906 475.883 195.042C476.147 194.166 476.489 193.308 476.909 192.468C477.341 191.628 477.875 190.77 478.511 189.894H472.517V187.662H481.373V189.282C480.605 190.218 479.981 191.118 479.501 191.982C479.033 192.846 478.673 193.722 478.421 194.61C478.181 195.498 478.001 196.458 477.881 197.49C477.773 198.522 477.689 199.692 477.629 201H474.965ZM485.168 201.252C484.688 201.252 484.292 201.084 483.98 200.748C483.668 200.412 483.512 200.004 483.512 199.524C483.512 199.02 483.668 198.606 483.98 198.282C484.292 197.958 484.688 197.796 485.168 197.796C485.636 197.796 486.026 197.958 486.338 198.282C486.65 198.606 486.806 199.02 486.806 199.524C486.806 200.004 486.65 200.412 486.338 200.748C486.026 201.084 485.636 201.252 485.168 201.252ZM493.002 201.252C492.306 201.252 491.682 201.168 491.13 201C490.578 200.844 490.086 200.628 489.654 200.352C489.234 200.064 488.868 199.746 488.556 199.398L489.798 197.724C490.206 198.096 490.65 198.42 491.13 198.696C491.622 198.96 492.168 199.092 492.768 199.092C493.224 199.092 493.62 199.02 493.956 198.876C494.304 198.732 494.568 198.522 494.748 198.246C494.94 197.97 495.036 197.634 495.036 197.238C495.036 196.794 494.928 196.416 494.712 196.104C494.508 195.78 494.142 195.534 493.614 195.366C493.086 195.198 492.342 195.114 491.382 195.114V193.206C492.198 193.206 492.84 193.122 493.308 192.954C493.776 192.774 494.106 192.534 494.298 192.234C494.502 191.922 494.604 191.568 494.604 191.172C494.604 190.656 494.448 190.254 494.136 189.966C493.824 189.666 493.386 189.516 492.822 189.516C492.354 189.516 491.916 189.624 491.508 189.84C491.112 190.044 490.716 190.326 490.32 190.686L488.952 189.048C489.54 188.556 490.158 188.166 490.806 187.878C491.454 187.578 492.168 187.428 492.948 187.428C493.8 187.428 494.55 187.566 495.198 187.842C495.858 188.118 496.368 188.52 496.728 189.048C497.088 189.576 497.268 190.218 497.268 190.974C497.268 191.694 497.076 192.312 496.692 192.828C496.308 193.344 495.762 193.74 495.054 194.016V194.106C495.546 194.238 495.99 194.454 496.386 194.754C496.794 195.042 497.112 195.408 497.34 195.852C497.58 196.296 497.7 196.812 497.7 197.4C497.7 198.204 497.484 198.894 497.052 199.47C496.632 200.046 496.062 200.49 495.342 200.802C494.634 201.102 493.854 201.252 493.002 201.252ZM502.521 195.87C501.897 195.87 501.339 195.702 500.847 195.366C500.355 195.03 499.971 194.544 499.695 193.908C499.419 193.272 499.281 192.51 499.281 191.622C499.281 190.734 499.419 189.978 499.695 189.354C499.971 188.73 500.355 188.256 500.847 187.932C501.339 187.596 501.897 187.428 502.521 187.428C503.169 187.428 503.733 187.596 504.213 187.932C504.705 188.256 505.089 188.73 505.365 189.354C505.641 189.978 505.779 190.734 505.779 191.622C505.779 192.51 505.641 193.272 505.365 193.908C505.089 194.544 504.705 195.03 504.213 195.366C503.733 195.702 503.169 195.87 502.521 195.87ZM502.521 194.376C502.905 194.376 503.229 194.166 503.493 193.746C503.769 193.314 503.907 192.606 503.907 191.622C503.907 190.65 503.769 189.96 503.493 189.552C503.229 189.132 502.905 188.922 502.521 188.922C502.137 188.922 501.807 189.132 501.531 189.552C501.267 189.96 501.135 190.65 501.135 191.622C501.135 192.606 501.267 193.314 501.531 193.746C501.807 194.166 502.137 194.376 502.521 194.376ZM502.953 201.252L510.207 187.428H511.773L504.537 201.252H502.953ZM512.223 201.252C511.587 201.252 511.023 201.084 510.531 200.748C510.051 200.412 509.667 199.926 509.379 199.29C509.103 198.654 508.965 197.892 508.965 197.004C508.965 196.104 509.103 195.342 509.379 194.718C509.667 194.094 510.051 193.62 510.531 193.296C511.023 192.96 511.587 192.792 512.223 192.792C512.847 192.792 513.399 192.96 513.879 193.296C514.371 193.62 514.755 194.094 515.031 194.718C515.319 195.342 515.463 196.104 515.463 197.004C515.463 197.892 515.319 198.654 515.031 199.29C514.755 199.926 514.371 200.412 513.879 200.748C513.399 201.084 512.847 201.252 512.223 201.252ZM512.223 199.74C512.607 199.74 512.931 199.53 513.195 199.11C513.459 198.678 513.591 197.976 513.591 197.004C513.591 196.008 513.459 195.312 513.195 194.916C512.931 194.508 512.607 194.304 512.223 194.304C511.827 194.304 511.497 194.508 511.233 194.916C510.969 195.312 510.837 196.008 510.837 197.004C510.837 197.976 510.969 198.678 511.233 199.11C511.497 199.53 511.827 199.74 512.223 199.74Z" fill="black"/>
<path d="M85.69 12L84.865 12.345C84.82 12.135 84.73 11.925 84.64 11.67C81.175 12.015 80.755 12.09 80.455 12.225C80.425 12.03 80.275 11.58 80.17 11.325C80.455 11.295 80.77 11.04 81.16 10.65C81.355 10.485 81.745 10.065 82.225 9.54C80.8 9.69 80.5 9.765 80.335 9.855C80.275 9.645 80.155 9.21 80.065 8.985C80.26 8.94 80.5 8.715 80.74 8.4C80.995 8.085 81.865 6.84 82.39 5.625L83.245 5.955C82.675 7.005 81.985 8.04 81.325 8.85L82.9 8.715C83.245 8.28 83.59 7.8 83.89 7.32L84.745 7.695C83.8 9 82.735 10.215 81.685 11.145L84.31 10.935C84.13 10.56 83.92 10.215 83.725 9.9L84.52 9.615C85.015 10.35 85.525 11.355 85.69 12ZM90.37 14.16L91.39 14.475C90.91 15.33 90.25 16.08 89.485 16.725C90.13 17.52 90.85 17.955 91.63 17.955C92.2 17.955 92.38 17.565 92.5 16.035C92.74 16.275 93.1 16.47 93.385 16.575C93.145 18.495 92.755 19.02 91.585 19.02C90.445 19.02 89.455 18.42 88.615 17.37C87.58 18.09 86.365 18.66 85.15 19.095C85 18.885 84.64 18.465 84.415 18.255C85.735 17.85 87.01 17.31 88.075 16.575C87.625 15.825 87.22 14.94 86.89 13.935H83.41C83.38 14.265 83.335 14.625 83.275 14.955C84.13 15.435 85.12 16.11 85.63 16.605L84.895 17.34C84.505 16.935 83.77 16.365 83.035 15.9C82.63 17.28 81.835 18.51 80.5 19.2C80.35 18.99 79.975 18.63 79.75 18.465C81.565 17.58 82.195 15.705 82.3 13.935H79.84V12.975H86.605C86.005 10.77 85.675 8.145 85.645 5.46H86.74C86.74 8.25 87.1 10.875 87.73 12.975H90.475C90.07 12.66 89.47 12.285 88.975 12.045L89.455 11.565C88.435 11.7 88.195 11.76 88.015 11.82C87.985 11.64 87.85 11.19 87.745 10.95C88.015 10.905 88.33 10.635 88.705 10.26C88.9 10.095 89.29 9.675 89.74 9.15C88.345 9.3 88.06 9.39 87.88 9.465C87.835 9.27 87.715 8.82 87.61 8.595C87.805 8.565 88 8.37 88.24 8.055C88.465 7.77 89.26 6.615 89.71 5.52L90.565 5.835C90.055 6.795 89.455 7.74 88.855 8.475L90.385 8.355C90.745 7.905 91.09 7.41 91.405 6.93L92.245 7.305C91.315 8.595 90.28 9.795 89.26 10.755L91.54 10.53C91.36 10.185 91.15 9.855 90.94 9.555L91.72 9.21C92.29 9.975 92.86 10.995 93.04 11.67L92.215 12.045C92.155 11.835 92.05 11.565 91.915 11.28C90.94 11.385 90.22 11.475 89.695 11.535C90.28 11.82 90.925 12.21 91.285 12.54L90.85 12.975H93.205V13.935H88.03C88.3 14.685 88.6 15.345 88.93 15.915C89.515 15.39 90.01 14.82 90.37 14.16ZM108.175 12.495V13.62H102.22V17.64C102.22 18.45 101.98 18.795 101.41 18.96C100.855 19.155 99.895 19.17 98.32 19.17C98.23 18.855 98.02 18.345 97.825 18.03C99.085 18.075 100.255 18.06 100.6 18.06C100.93 18.045 101.05 17.94 101.05 17.625V13.62H94.87V12.495H101.05V7.53C99.37 7.68 97.66 7.77 96.1 7.815C96.07 7.5 95.935 7.08 95.83 6.81C99.415 6.675 103.81 6.315 106.255 5.67L106.84 6.675C105.58 6.99 103.96 7.245 102.22 7.41V12.495H108.175ZM96.52 8.625L97.495 8.295C98.095 9.315 98.725 10.68 98.95 11.535L97.93 11.94C97.72 11.085 97.105 9.69 96.52 8.625ZM104.98 11.91L104.08 11.535C104.635 10.605 105.34 9.09 105.7 8.025L106.885 8.43C106.285 9.615 105.565 11.025 104.98 11.91ZM121.24 7.845H117.01C116.515 9.645 115.72 11.055 114.58 12.075C114.385 11.895 113.905 11.535 113.635 11.37C115.225 10.125 116.005 8.055 116.32 5.445L117.46 5.595C117.4 6.015 117.34 6.42 117.25 6.81H122.425C122.425 6.81 122.41 7.125 122.38 7.29C122.2 9.885 122.005 10.92 121.615 11.34C121.345 11.625 121.06 11.7 120.625 11.73C120.235 11.76 119.5 11.76 118.735 11.715C118.705 11.4 118.57 10.965 118.39 10.695C119.14 10.755 119.875 10.77 120.16 10.77C120.415 10.77 120.55 10.755 120.685 10.635C120.94 10.395 121.105 9.645 121.24 7.845ZM113.785 7.215L113.125 8.1C112.555 7.56 111.385 6.825 110.425 6.375L111.04 5.58C112 5.985 113.185 6.66 113.785 7.215ZM113.005 11.1L112.39 12.03C111.79 11.52 110.605 10.83 109.63 10.395L110.23 9.585C111.19 9.96 112.405 10.605 113.005 11.1ZM112.78 13.41L113.605 14.115C112.87 15.69 111.88 17.55 111.055 18.93L110.11 18.21C110.875 17.055 111.955 15.105 112.78 13.41ZM120.94 13.425H116.485C117.01 14.4 117.745 15.27 118.675 16.005C119.62 15.315 120.4 14.445 120.94 13.425ZM121.735 12.375L122.455 12.69C121.855 14.355 120.85 15.645 119.59 16.65C120.7 17.34 121.99 17.85 123.415 18.15C123.16 18.375 122.845 18.84 122.695 19.14C121.18 18.75 119.815 18.135 118.645 17.31C117.25 18.18 115.645 18.765 113.965 19.125C113.875 18.84 113.62 18.375 113.41 18.135C114.955 17.865 116.455 17.355 117.76 16.605C116.815 15.78 116.035 14.805 115.45 13.68L116.185 13.425H114.445V12.42H121.525L121.735 12.375ZM135.205 12.69V11.175H128.95V12.69H135.205ZM128.905 15.225H135.205V13.65H128.95V14.115C128.95 14.475 128.935 14.835 128.905 15.225ZM138.055 8.43H129.955C129.67 9.015 129.37 9.615 129.04 10.17H136.3V17.745C136.3 18.42 136.15 18.75 135.67 18.93C135.175 19.11 134.335 19.125 133.06 19.125C133.015 18.795 132.85 18.345 132.685 18.03C133.69 18.075 134.59 18.06 134.86 18.06C135.115 18.045 135.205 17.97 135.205 17.745V16.185H128.77C128.575 17.28 128.125 18.405 127.24 19.23C127.105 18.99 126.7 18.525 126.46 18.36C127.705 17.16 127.84 15.51 127.84 14.085V11.895C127.135 12.75 126.325 13.545 125.41 14.19C125.26 13.95 124.915 13.545 124.705 13.32C126.46 12.135 127.81 10.365 128.74 8.43H125.005V7.38L129.22 7.38C129.475 6.735 129.7 6.09 129.88 5.445L130.99 5.715C130.825 6.27 130.63 6.84 130.405 7.38H138.055V8.43ZM153.145 11.805L152.425 12.06C152.38 11.88 152.32 11.64 152.23 11.385C150.07 11.73 149.695 11.805 149.515 11.91C149.455 11.73 149.32 11.265 149.23 11.04C149.455 10.995 149.68 10.74 149.95 10.38C150.115 10.185 150.46 9.69 150.865 9.045C149.755 9.195 149.5 9.27 149.35 9.345C149.305 9.15 149.17 8.745 149.065 8.505C149.245 8.49 149.41 8.295 149.59 8.01C149.74 7.755 150.37 6.66 150.685 5.655L151.495 5.91C151.135 6.795 150.67 7.68 150.205 8.37L151.3 8.25C151.495 7.92 151.675 7.56 151.825 7.215L152.665 7.53C152.035 8.76 151.24 9.96 150.475 10.89L151.99 10.68C151.87 10.38 151.75 10.065 151.63 9.78L152.305 9.585C152.635 10.29 152.995 11.25 153.145 11.805ZM147.745 12.06L147.01 12.315C146.965 12.135 146.905 11.925 146.845 11.685C144.7 12.015 144.355 12.075 144.145 12.195C144.115 12.015 143.995 11.58 143.89 11.355C144.1 11.295 144.355 11.055 144.64 10.68C144.805 10.5 145.195 9.975 145.615 9.33C144.445 9.495 144.16 9.57 144.01 9.645C143.98 9.465 143.845 9.045 143.755 8.82C143.935 8.775 144.1 8.58 144.31 8.28C144.52 7.98 145.21 6.825 145.57 5.685L146.41 5.955C145.99 6.93 145.45 7.92 144.91 8.67L146.095 8.55C146.275 8.22 146.455 7.89 146.605 7.545L147.415 7.86C146.755 9.06 145.96 10.245 145.165 11.175L146.635 10.98C146.515 10.65 146.395 10.335 146.275 10.035L146.98 9.84C147.31 10.56 147.61 11.505 147.745 12.06ZM143.695 12.63L143.14 13.455C142.99 13.05 142.66 12.33 142.345 11.7V19.14H141.37V12.015C140.995 13.56 140.485 15.03 139.975 15.93C139.855 15.615 139.615 15.12 139.45 14.85C140.2 13.635 140.92 11.34 141.28 9.375H139.78V8.325H141.37V5.445H142.345V8.325H143.53V9.375H142.345V10.35C142.675 10.875 143.485 12.255 143.695 12.63ZM151.36 14.22L152.32 14.565C151.855 15.465 151.24 16.26 150.475 16.965C150.91 17.625 151.435 17.985 152.035 18.045C152.35 18.075 152.545 17.505 152.665 16.425C152.845 16.635 153.22 16.89 153.415 16.995C153.13 18.63 152.665 19.185 152.065 19.14C151.09 19.08 150.31 18.54 149.695 17.61C148.915 18.18 148.03 18.675 147.07 19.065C146.95 18.87 146.68 18.54 146.47 18.36C147.505 17.955 148.465 17.43 149.26 16.8C148.915 16.035 148.63 15.105 148.39 14.055H145.945V14.28C145.945 14.385 145.945 14.505 145.93 14.625C146.65 15.18 147.55 15.945 148 16.41L147.31 17.085C146.965 16.71 146.38 16.155 145.795 15.66C145.54 16.86 144.91 18.165 143.59 19.17C143.44 18.96 143.065 18.615 142.855 18.495C144.61 17.205 144.985 15.525 144.985 14.265V14.055H143.845V13.155H148.225C147.865 11.025 147.67 8.43 147.58 5.565H148.54C148.615 8.49 148.825 11.1 149.2 13.155H151.345C150.985 12.84 150.445 12.465 150.01 12.195L150.58 11.67C151.105 11.97 151.795 12.435 152.14 12.75L151.75 13.155H152.995V14.055H149.38C149.575 14.85 149.77 15.54 150.025 16.11C150.58 15.54 151.045 14.895 151.36 14.22ZM164.665 15H158.455V16.02H164.665V15ZM158.455 17.835H164.665V16.815H158.455V17.835ZM157.36 19.125V14.205H165.79V19.08H164.665V18.63H158.455V19.125H157.36ZM163.645 12.675L162.895 12.405C163.165 11.91 163.555 11.115 163.72 10.605L164.665 10.905C164.335 11.55 163.96 12.225 163.645 12.675ZM158.35 10.92L159.145 10.665C159.535 11.19 159.91 11.88 160.045 12.36L159.19 12.675C159.07 12.195 158.725 11.475 158.35 10.92ZM157.45 10.5V12.735H160.99V10.5H157.45ZM165.505 12.735V10.5H161.935V12.735H165.505ZM156.49 13.5V9.72H166.51V13.5H156.49ZM159.625 8.175H163.54C162.82 7.725 162.145 7.215 161.575 6.675C161.005 7.23 160.345 7.74 159.625 8.175ZM161.41 5.4L162.385 5.76C162.31 5.85 162.25 5.955 162.175 6.045C163.585 7.41 166.18 8.625 168.52 9.165C168.28 9.375 167.98 9.765 167.815 10.035C166.6 9.69 165.31 9.18 164.14 8.52V8.985H158.935V8.565C157.795 9.21 156.52 9.72 155.26 10.11C155.14 9.9 154.825 9.465 154.63 9.255C157.345 8.535 160 7.215 161.41 5.4Z" fill="black"/>
<path d="M83.914 45.252C83.218 45.252 82.594 45.168 82.042 45C81.49 44.844 80.998 44.628 80.566 44.352C80.146 44.064 79.78 43.746 79.468 43.398L80.71 41.724C81.118 42.096 81.562 42.42 82.042 42.696C82.534 42.96 83.08 43.092 83.68 43.092C84.136 43.092 84.532 43.02 84.868 42.876C85.216 42.732 85.48 42.522 85.66 42.246C85.852 41.97 85.948 41.634 85.948 41.238C85.948 40.794 85.84 40.416 85.624 40.104C85.42 39.78 85.054 39.534 84.526 39.366C83.998 39.198 83.254 39.114 82.294 39.114V37.206C83.11 37.206 83.752 37.122 84.22 36.954C84.688 36.774 85.018 36.534 85.21 36.234C85.414 35.922 85.516 35.568 85.516 35.172C85.516 34.656 85.36 34.254 85.048 33.966C84.736 33.666 84.298 33.516 83.734 33.516C83.266 33.516 82.828 33.624 82.42 33.84C82.024 34.044 81.628 34.326 81.232 34.686L79.864 33.048C80.452 32.556 81.07 32.166 81.718 31.878C82.366 31.578 83.08 31.428 83.86 31.428C84.712 31.428 85.462 31.566 86.11 31.842C86.77 32.118 87.28 32.52 87.64 33.048C88 33.576 88.18 34.218 88.18 34.974C88.18 35.694 87.988 36.312 87.604 36.828C87.22 37.344 86.674 37.74 85.966 38.016V38.106C86.458 38.238 86.902 38.454 87.298 38.754C87.706 39.042 88.024 39.408 88.252 39.852C88.492 40.296 88.612 40.812 88.612 41.4C88.612 42.204 88.396 42.894 87.964 43.47C87.544 44.046 86.974 44.49 86.254 44.802C85.546 45.102 84.766 45.252 83.914 45.252ZM90.3912 45V43.47C91.6032 42.39 92.6352 41.388 93.4872 40.464C94.3512 39.54 95.0112 38.682 95.4672 37.89C95.9232 37.086 96.1512 36.342 96.1512 35.658C96.1512 35.226 96.0732 34.848 95.9172 34.524C95.7612 34.2 95.5332 33.954 95.2332 33.786C94.9452 33.606 94.5852 33.516 94.1532 33.516C93.6732 33.516 93.2292 33.654 92.8212 33.93C92.4252 34.194 92.0592 34.512 91.7232 34.884L90.2472 33.462C90.8712 32.79 91.5072 32.286 92.1552 31.95C92.8152 31.602 93.5952 31.428 94.4952 31.428C95.3352 31.428 96.0672 31.602 96.6912 31.95C97.3272 32.286 97.8192 32.76 98.1672 33.372C98.5152 33.984 98.6892 34.704 98.6892 35.532C98.6892 36.336 98.4852 37.158 98.0772 37.998C97.6812 38.826 97.1472 39.654 96.4752 40.482C95.8032 41.31 95.0592 42.126 94.2432 42.93C94.5912 42.882 94.9632 42.846 95.3592 42.822C95.7672 42.786 96.1272 42.768 96.4392 42.768H99.3192V45H90.3912ZM103.168 45.252C102.688 45.252 102.292 45.084 101.98 44.748C101.668 44.412 101.512 44.004 101.512 43.524C101.512 43.02 101.668 42.606 101.98 42.282C102.292 41.958 102.688 41.796 103.168 41.796C103.636 41.796 104.026 41.958 104.338 42.282C104.65 42.606 104.806 43.02 104.806 43.524C104.806 44.004 104.65 44.412 104.338 44.748C104.026 45.084 103.636 45.252 103.168 45.252ZM112.154 45V36.81C112.154 36.426 112.166 35.97 112.19 35.442C112.214 34.902 112.238 34.434 112.262 34.038H112.172C112.016 34.398 111.848 34.758 111.668 35.118C111.488 35.478 111.302 35.844 111.11 36.216L109.04 39.528H116.204V41.544H106.466V39.744L111.434 31.662H114.62V45H112.154ZM121.691 45.252C120.983 45.252 120.353 45.168 119.801 45C119.249 44.832 118.757 44.61 118.325 44.334C117.893 44.058 117.509 43.758 117.173 43.434L118.397 41.742C118.649 41.994 118.919 42.222 119.207 42.426C119.507 42.63 119.831 42.792 120.179 42.912C120.539 43.032 120.923 43.092 121.331 43.092C121.787 43.092 122.189 42.996 122.537 42.804C122.897 42.612 123.179 42.336 123.383 41.976C123.587 41.604 123.689 41.16 123.689 40.644C123.689 39.876 123.479 39.282 123.059 38.862C122.651 38.442 122.111 38.232 121.439 38.232C121.055 38.232 120.725 38.286 120.449 38.394C120.173 38.49 119.837 38.664 119.441 38.916L118.235 38.142L118.595 31.662H125.723V33.894H120.881L120.629 36.72C120.893 36.6 121.151 36.51 121.403 36.45C121.655 36.39 121.931 36.36 122.231 36.36C122.975 36.36 123.659 36.51 124.283 36.81C124.907 37.098 125.405 37.554 125.777 38.178C126.149 38.802 126.335 39.6 126.335 40.572C126.335 41.556 126.113 42.402 125.669 43.11C125.237 43.806 124.667 44.34 123.959 44.712C123.263 45.072 122.507 45.252 121.691 45.252ZM131.138 39.87C130.514 39.87 129.956 39.702 129.464 39.366C128.972 39.03 128.588 38.544 128.312 37.908C128.036 37.272 127.898 36.51 127.898 35.622C127.898 34.734 128.036 33.978 128.312 33.354C128.588 32.73 128.972 32.256 129.464 31.932C129.956 31.596 130.514 31.428 131.138 31.428C131.786 31.428 132.35 31.596 132.83 31.932C133.322 32.256 133.706 32.73 133.982 33.354C134.258 33.978 134.396 34.734 134.396 35.622C134.396 36.51 134.258 37.272 133.982 37.908C133.706 38.544 133.322 39.03 132.83 39.366C132.35 39.702 131.786 39.87 131.138 39.87ZM131.138 38.376C131.522 38.376 131.846 38.166 132.11 37.746C132.386 37.314 132.524 36.606 132.524 35.622C132.524 34.65 132.386 33.96 132.11 33.552C131.846 33.132 131.522 32.922 131.138 32.922C130.754 32.922 130.424 33.132 130.148 33.552C129.884 33.96 129.752 34.65 129.752 35.622C129.752 36.606 129.884 37.314 130.148 37.746C130.424 38.166 130.754 38.376 131.138 38.376ZM131.57 45.252L138.824 31.428H140.39L133.154 45.252H131.57ZM140.84 45.252C140.204 45.252 139.64 45.084 139.148 44.748C138.668 44.412 138.284 43.926 137.996 43.29C137.72 42.654 137.582 41.892 137.582 41.004C137.582 40.104 137.72 39.342 137.996 38.718C138.284 38.094 138.668 37.62 139.148 37.296C139.64 36.96 140.204 36.792 140.84 36.792C141.464 36.792 142.016 36.96 142.496 37.296C142.988 37.62 143.372 38.094 143.648 38.718C143.936 39.342 144.08 40.104 144.08 41.004C144.08 41.892 143.936 42.654 143.648 43.29C143.372 43.926 142.988 44.412 142.496 44.748C142.016 45.084 141.464 45.252 140.84 45.252ZM140.84 43.74C141.224 43.74 141.548 43.53 141.812 43.11C142.076 42.678 142.208 41.976 142.208 41.004C142.208 40.008 142.076 39.312 141.812 38.916C141.548 38.508 141.224 38.304 140.84 38.304C140.444 38.304 140.114 38.508 139.85 38.916C139.586 39.312 139.454 40.008 139.454 41.004C139.454 41.976 139.586 42.678 139.85 43.11C140.114 43.53 140.444 43.74 140.84 43.74Z" fill="#0095CC"/>
<path d="M313.825 5.505L314.89 5.895C314.02 7.2 312.595 8.595 311.29 9.465C311.155 9.225 310.885 8.775 310.69 8.565C311.86 7.8 313.18 6.57 313.825 5.505ZM314.095 8.775L315.085 9.18C314.74 9.81 314.305 10.44 313.84 11.055V19.155H312.76V12.33C312.22 12.945 311.65 13.485 311.08 13.935C310.975 13.695 310.675 13.11 310.48 12.855C311.815 11.865 313.24 10.32 314.095 8.775ZM317.095 9.825V11.685H321.94V9.825H317.095ZM321.94 7.095H317.095V8.895H321.94V7.095ZM323.065 13.14L323.815 13.92C323.02 14.565 321.97 15.255 321.13 15.765C321.97 16.815 323.05 17.61 324.4 18.09C324.145 18.315 323.815 18.75 323.65 19.05C321.01 17.985 319.435 15.705 318.565 12.66H317.095V17.595L319.735 16.95C319.735 17.28 319.75 17.73 319.795 17.97C316.705 18.81 316.255 18.96 315.97 19.155C315.88 18.9 315.64 18.45 315.46 18.24C315.685 18.12 316.015 17.805 316.015 17.19V6.105H323.02V12.66H319.54C319.81 13.515 320.17 14.295 320.605 15C321.415 14.475 322.45 13.725 323.065 13.14ZM328.45 7.83L329.5 8.115C328.78 9.9 327.745 11.805 326.83 13.05C326.605 12.9 326.125 12.645 325.855 12.51C326.845 11.325 327.805 9.495 328.45 7.83ZM335.515 8.25L336.43 7.815C337.45 9.27 338.65 11.175 339.22 12.375L338.29 12.945C337.705 11.7 336.52 9.72 335.515 8.25ZM336.4 13.17L337.405 13.65C335.38 16.845 331.36 18.465 326.095 19.14C325.99 18.81 325.765 18.36 325.555 18.075C330.64 17.52 334.525 16.095 336.4 13.17ZM331.735 5.475H332.83V14.64H331.735V5.475ZM351.205 12.69V11.175H344.95V12.69H351.205ZM344.905 15.225H351.205V13.65H344.95V14.115C344.95 14.475 344.935 14.835 344.905 15.225ZM354.055 8.43H345.955C345.67 9.015 345.37 9.615 345.04 10.17H352.3V17.745C352.3 18.42 352.15 18.75 351.67 18.93C351.175 19.11 350.335 19.125 349.06 19.125C349.015 18.795 348.85 18.345 348.685 18.03C349.69 18.075 350.59 18.06 350.86 18.06C351.115 18.045 351.205 17.97 351.205 17.745V16.185H344.77C344.575 17.28 344.125 18.405 343.24 19.23C343.105 18.99 342.7 18.525 342.46 18.36C343.705 17.16 343.84 15.51 343.84 14.085V11.895C343.135 12.75 342.325 13.545 341.41 14.19C341.26 13.95 340.915 13.545 340.705 13.32C342.46 12.135 343.81 10.365 344.74 8.43L341.005 8.43V7.38H345.22C345.475 6.735 345.7 6.09 345.88 5.445L346.99 5.715C346.825 6.27 346.63 6.84 346.405 7.38H354.055V8.43ZM369.145 11.805L368.425 12.06C368.38 11.88 368.32 11.64 368.23 11.385C366.07 11.73 365.695 11.805 365.515 11.91C365.455 11.73 365.32 11.265 365.23 11.04C365.455 10.995 365.68 10.74 365.95 10.38C366.115 10.185 366.46 9.69 366.865 9.045C365.755 9.195 365.5 9.27 365.35 9.345C365.305 9.15 365.17 8.745 365.065 8.505C365.245 8.49 365.41 8.295 365.59 8.01C365.74 7.755 366.37 6.66 366.685 5.655L367.495 5.91C367.135 6.795 366.67 7.68 366.205 8.37L367.3 8.25C367.495 7.92 367.675 7.56 367.825 7.215L368.665 7.53C368.035 8.76 367.24 9.96 366.475 10.89L367.99 10.68C367.87 10.38 367.75 10.065 367.63 9.78L368.305 9.585C368.635 10.29 368.995 11.25 369.145 11.805ZM363.745 12.06L363.01 12.315C362.965 12.135 362.905 11.925 362.845 11.685C360.7 12.015 360.355 12.075 360.145 12.195C360.115 12.015 359.995 11.58 359.89 11.355C360.1 11.295 360.355 11.055 360.64 10.68C360.805 10.5 361.195 9.975 361.615 9.33C360.445 9.495 360.16 9.57 360.01 9.645C359.98 9.465 359.845 9.045 359.755 8.82C359.935 8.775 360.1 8.58 360.31 8.28C360.52 7.98 361.21 6.825 361.57 5.685L362.41 5.955C361.99 6.93 361.45 7.92 360.91 8.67L362.095 8.55C362.275 8.22 362.455 7.89 362.605 7.545L363.415 7.86C362.755 9.06 361.96 10.245 361.165 11.175L362.635 10.98C362.515 10.65 362.395 10.335 362.275 10.035L362.98 9.84C363.31 10.56 363.61 11.505 363.745 12.06ZM359.695 12.63L359.14 13.455C358.99 13.05 358.66 12.33 358.345 11.7V19.14H357.37V12.015C356.995 13.56 356.485 15.03 355.975 15.93C355.855 15.615 355.615 15.12 355.45 14.85C356.2 13.635 356.92 11.34 357.28 9.375H355.78V8.325H357.37V5.445L358.345 5.445V8.325H359.53V9.375H358.345V10.35C358.675 10.875 359.485 12.255 359.695 12.63ZM367.36 14.22L368.32 14.565C367.855 15.465 367.24 16.26 366.475 16.965C366.91 17.625 367.435 17.985 368.035 18.045C368.35 18.075 368.545 17.505 368.665 16.425C368.845 16.635 369.22 16.89 369.415 16.995C369.13 18.63 368.665 19.185 368.065 19.14C367.09 19.08 366.31 18.54 365.695 17.61C364.915 18.18 364.03 18.675 363.07 19.065C362.95 18.87 362.68 18.54 362.47 18.36C363.505 17.955 364.465 17.43 365.26 16.8C364.915 16.035 364.63 15.105 364.39 14.055H361.945V14.28C361.945 14.385 361.945 14.505 361.93 14.625C362.65 15.18 363.55 15.945 364 16.41L363.31 17.085C362.965 16.71 362.38 16.155 361.795 15.66C361.54 16.86 360.91 18.165 359.59 19.17C359.44 18.96 359.065 18.615 358.855 18.495C360.61 17.205 360.985 15.525 360.985 14.265V14.055H359.845V13.155H364.225C363.865 11.025 363.67 8.43 363.58 5.565H364.54C364.615 8.49 364.825 11.1 365.2 13.155H367.345C366.985 12.84 366.445 12.465 366.01 12.195L366.58 11.67C367.105 11.97 367.795 12.435 368.14 12.75L367.75 13.155H368.995V14.055H365.38C365.575 14.85 365.77 15.54 366.025 16.11C366.58 15.54 367.045 14.895 367.36 14.22ZM380.665 15H374.455V16.02H380.665V15ZM374.455 17.835H380.665V16.815H374.455V17.835ZM373.36 19.125V14.205H381.79V19.08H380.665V18.63H374.455V19.125L373.36 19.125ZM379.645 12.675L378.895 12.405C379.165 11.91 379.555 11.115 379.72 10.605L380.665 10.905C380.335 11.55 379.96 12.225 379.645 12.675ZM374.35 10.92L375.145 10.665C375.535 11.19 375.91 11.88 376.045 12.36L375.19 12.675C375.07 12.195 374.725 11.475 374.35 10.92ZM373.45 10.5V12.735H376.99V10.5H373.45ZM381.505 12.735V10.5H377.935V12.735H381.505ZM372.49 13.5V9.72H382.51V13.5H372.49ZM375.625 8.175H379.54C378.82 7.725 378.145 7.215 377.575 6.675C377.005 7.23 376.345 7.74 375.625 8.175ZM377.41 5.4L378.385 5.76C378.31 5.85 378.25 5.955 378.175 6.045C379.585 7.41 382.18 8.625 384.52 9.165C384.28 9.375 383.98 9.765 383.815 10.035C382.6 9.69 381.31 9.18 380.14 8.52V8.985H374.935V8.565C373.795 9.21 372.52 9.72 371.26 10.11C371.14 9.9 370.825 9.465 370.63 9.255C373.345 8.535 376 7.215 377.41 5.4Z" fill="black"/>
<path d="M314.914 45.252C314.218 45.252 313.594 45.168 313.042 45C312.49 44.844 311.998 44.628 311.566 44.352C311.146 44.064 310.78 43.746 310.468 43.398L311.71 41.724C312.118 42.096 312.562 42.42 313.042 42.696C313.534 42.96 314.08 43.092 314.68 43.092C315.136 43.092 315.532 43.02 315.868 42.876C316.216 42.732 316.48 42.522 316.66 42.246C316.852 41.97 316.948 41.634 316.948 41.238C316.948 40.794 316.84 40.416 316.624 40.104C316.42 39.78 316.054 39.534 315.526 39.366C314.998 39.198 314.254 39.114 313.294 39.114V37.206C314.11 37.206 314.752 37.122 315.22 36.954C315.688 36.774 316.018 36.534 316.21 36.234C316.414 35.922 316.516 35.568 316.516 35.172C316.516 34.656 316.36 34.254 316.048 33.966C315.736 33.666 315.298 33.516 314.734 33.516C314.266 33.516 313.828 33.624 313.42 33.84C313.024 34.044 312.628 34.326 312.232 34.686L310.864 33.048C311.452 32.556 312.07 32.166 312.718 31.878C313.366 31.578 314.08 31.428 314.86 31.428C315.712 31.428 316.462 31.566 317.11 31.842C317.77 32.118 318.28 32.52 318.64 33.048C319 33.576 319.18 34.218 319.18 34.974C319.18 35.694 318.988 36.312 318.604 36.828C318.22 37.344 317.674 37.74 316.966 38.016V38.106C317.458 38.238 317.902 38.454 318.298 38.754C318.706 39.042 319.024 39.408 319.252 39.852C319.492 40.296 319.612 40.812 319.612 41.4C319.612 42.204 319.396 42.894 318.964 43.47C318.544 44.046 317.974 44.49 317.254 44.802C316.546 45.102 315.766 45.252 314.914 45.252ZM325.927 45.252C325.027 45.252 324.235 44.994 323.551 44.478C322.879 43.95 322.351 43.17 321.967 42.138C321.595 41.094 321.409 39.804 321.409 38.268C321.409 36.744 321.595 35.478 321.967 34.47C322.351 33.45 322.879 32.688 323.551 32.184C324.235 31.68 325.027 31.428 325.927 31.428C326.839 31.428 327.631 31.686 328.303 32.202C328.975 32.706 329.497 33.462 329.869 34.47C330.253 35.478 330.445 36.744 330.445 38.268C330.445 39.804 330.253 41.094 329.869 42.138C329.497 43.17 328.975 43.95 328.303 44.478C327.631 44.994 326.839 45.252 325.927 45.252ZM325.927 43.182C326.323 43.182 326.671 43.032 326.971 42.732C327.271 42.432 327.505 41.928 327.673 41.22C327.841 40.5 327.925 39.516 327.925 38.268C327.925 37.032 327.841 36.066 327.673 35.37C327.505 34.662 327.271 34.17 326.971 33.894C326.671 33.606 326.323 33.462 325.927 33.462C325.555 33.462 325.213 33.606 324.901 33.894C324.601 34.17 324.361 34.662 324.181 35.37C324.001 36.066 323.911 37.032 323.911 38.268C323.911 39.516 324.001 40.5 324.181 41.22C324.361 41.928 324.601 42.432 324.901 42.732C325.213 43.032 325.555 43.182 325.927 43.182ZM334.168 45.252C333.688 45.252 333.292 45.084 332.98 44.748C332.668 44.412 332.512 44.004 332.512 43.524C332.512 43.02 332.668 42.606 332.98 42.282C333.292 41.958 333.688 41.796 334.168 41.796C334.636 41.796 335.026 41.958 335.338 42.282C335.65 42.606 335.806 43.02 335.806 43.524C335.806 44.004 335.65 44.412 335.338 44.748C335.026 45.084 334.636 45.252 334.168 45.252ZM342.074 45.252C341.366 45.252 340.736 45.168 340.184 45C339.632 44.832 339.14 44.61 338.708 44.334C338.276 44.058 337.892 43.758 337.556 43.434L338.78 41.742C339.032 41.994 339.302 42.222 339.59 42.426C339.89 42.63 340.214 42.792 340.562 42.912C340.922 43.032 341.306 43.092 341.714 43.092C342.17 43.092 342.572 42.996 342.92 42.804C343.28 42.612 343.562 42.336 343.766 41.976C343.97 41.604 344.072 41.16 344.072 40.644C344.072 39.876 343.862 39.282 343.442 38.862C343.034 38.442 342.494 38.232 341.822 38.232C341.438 38.232 341.108 38.286 340.832 38.394C340.556 38.49 340.22 38.664 339.824 38.916L338.618 38.142L338.978 31.662H346.106V33.894H341.264L341.012 36.72C341.276 36.6 341.534 36.51 341.786 36.45C342.038 36.39 342.314 36.36 342.614 36.36C343.358 36.36 344.042 36.51 344.666 36.81C345.29 37.098 345.788 37.554 346.16 38.178C346.532 38.802 346.718 39.6 346.718 40.572C346.718 41.556 346.496 42.402 346.052 43.11C345.62 43.806 345.05 44.34 344.342 44.712C343.646 45.072 342.89 45.252 342.074 45.252ZM348.479 45V43.47C349.691 42.39 350.723 41.388 351.575 40.464C352.439 39.54 353.099 38.682 353.555 37.89C354.011 37.086 354.239 36.342 354.239 35.658C354.239 35.226 354.161 34.848 354.005 34.524C353.849 34.2 353.621 33.954 353.321 33.786C353.033 33.606 352.673 33.516 352.241 33.516C351.761 33.516 351.317 33.654 350.909 33.93C350.513 34.194 350.147 34.512 349.811 34.884L348.335 33.462C348.959 32.79 349.595 32.286 350.243 31.95C350.903 31.602 351.683 31.428 352.583 31.428C353.423 31.428 354.155 31.602 354.779 31.95C355.415 32.286 355.907 32.76 356.255 33.372C356.603 33.984 356.777 34.704 356.777 35.532C356.777 36.336 356.573 37.158 356.165 37.998C355.769 38.826 355.235 39.654 354.563 40.482C353.891 41.31 353.147 42.126 352.331 42.93C352.679 42.882 353.051 42.846 353.447 42.822C353.855 42.786 354.215 42.768 354.527 42.768H357.407V45H348.479ZM362.138 39.87C361.514 39.87 360.956 39.702 360.464 39.366C359.972 39.03 359.588 38.544 359.312 37.908C359.036 37.272 358.898 36.51 358.898 35.622C358.898 34.734 359.036 33.978 359.312 33.354C359.588 32.73 359.972 32.256 360.464 31.932C360.956 31.596 361.514 31.428 362.138 31.428C362.786 31.428 363.35 31.596 363.83 31.932C364.322 32.256 364.706 32.73 364.982 33.354C365.258 33.978 365.396 34.734 365.396 35.622C365.396 36.51 365.258 37.272 364.982 37.908C364.706 38.544 364.322 39.03 363.83 39.366C363.35 39.702 362.786 39.87 362.138 39.87ZM362.138 38.376C362.522 38.376 362.846 38.166 363.11 37.746C363.386 37.314 363.524 36.606 363.524 35.622C363.524 34.65 363.386 33.96 363.11 33.552C362.846 33.132 362.522 32.922 362.138 32.922C361.754 32.922 361.424 33.132 361.148 33.552C360.884 33.96 360.752 34.65 360.752 35.622C360.752 36.606 360.884 37.314 361.148 37.746C361.424 38.166 361.754 38.376 362.138 38.376ZM362.57 45.252L369.824 31.428H371.39L364.154 45.252H362.57ZM371.84 45.252C371.204 45.252 370.64 45.084 370.148 44.748C369.668 44.412 369.284 43.926 368.996 43.29C368.72 42.654 368.582 41.892 368.582 41.004C368.582 40.104 368.72 39.342 368.996 38.718C369.284 38.094 369.668 37.62 370.148 37.296C370.64 36.96 371.204 36.792 371.84 36.792C372.464 36.792 373.016 36.96 373.496 37.296C373.988 37.62 374.372 38.094 374.648 38.718C374.936 39.342 375.08 40.104 375.08 41.004C375.08 41.892 374.936 42.654 374.648 43.29C374.372 43.926 373.988 44.412 373.496 44.748C373.016 45.084 372.464 45.252 371.84 45.252ZM371.84 43.74C372.224 43.74 372.548 43.53 372.812 43.11C373.076 42.678 373.208 41.976 373.208 41.004C373.208 40.008 373.076 39.312 372.812 38.916C372.548 38.508 372.224 38.304 371.84 38.304C371.444 38.304 371.114 38.508 370.85 38.916C370.586 39.312 370.454 40.008 370.454 41.004C370.454 41.976 370.586 42.678 370.85 43.11C371.114 43.53 371.444 43.74 371.84 43.74Z" fill="#0095CC"/>
<path d="M12.24 163.845H8.01C7.515 165.645 6.72 167.055 5.58 168.075C5.385 167.895 4.905 167.535 4.635 167.37C6.225 166.125 7.005 164.055 7.32 161.445L8.46 161.595C8.4 162.015 8.34 162.42 8.25 162.81H13.425C13.425 162.81 13.41 163.125 13.38 163.29C13.2 165.885 13.005 166.92 12.615 167.34C12.345 167.625 12.06 167.7 11.625 167.73C11.235 167.76 10.5 167.76 9.735 167.715C9.705 167.4 9.57 166.965 9.39 166.695C10.14 166.755 10.875 166.77 11.16 166.77C11.415 166.77 11.55 166.755 11.685 166.635C11.94 166.395 12.105 165.645 12.24 163.845ZM4.785 163.215L4.125 164.1C3.555 163.56 2.385 162.825 1.425 162.375L2.04 161.58C3 161.985 4.185 162.66 4.785 163.215ZM4.005 167.1L3.39 168.03C2.79 167.52 1.605 166.83 0.63 166.395L1.23 165.585C2.19 165.96 3.405 166.605 4.005 167.1ZM3.78 169.41L4.605 170.115C3.87 171.69 2.88 173.55 2.055 174.93L1.11 174.21C1.875 173.055 2.955 171.105 3.78 169.41ZM11.94 169.425H7.485C8.01 170.4 8.745 171.27 9.675 172.005C10.62 171.315 11.4 170.445 11.94 169.425ZM12.735 168.375L13.455 168.69C12.855 170.355 11.85 171.645 10.59 172.65C11.7 173.34 12.99 173.85 14.415 174.15C14.16 174.375 13.845 174.84 13.695 175.14C12.18 174.75 10.815 174.135 9.645 173.31C8.25 174.18 6.645 174.765 4.965 175.125C4.875 174.84 4.62 174.375 4.41 174.135C5.955 173.865 7.455 173.355 8.76 172.605C7.815 171.78 7.035 170.805 6.45 169.68L7.185 169.425H5.445V168.42H12.525L12.735 168.375ZM26.205 168.69V167.175H19.95V168.69H26.205ZM19.905 171.225H26.205V169.65H19.95V170.115C19.95 170.475 19.935 170.835 19.905 171.225ZM29.055 164.43H20.955C20.67 165.015 20.37 165.615 20.04 166.17H27.3V173.745C27.3 174.42 27.15 174.75 26.67 174.93C26.175 175.11 25.335 175.125 24.06 175.125C24.015 174.795 23.85 174.345 23.685 174.03C24.69 174.075 25.59 174.06 25.86 174.06C26.115 174.045 26.205 173.97 26.205 173.745V172.185H19.77C19.575 173.28 19.125 174.405 18.24 175.23C18.105 174.99 17.7 174.525 17.46 174.36C18.705 173.16 18.84 171.51 18.84 170.085V167.895C18.135 168.75 17.325 169.545 16.41 170.19C16.26 169.95 15.915 169.545 15.705 169.32C17.46 168.135 18.81 166.365 19.74 164.43H16.005V163.38H20.22C20.475 162.735 20.7 162.09 20.88 161.445L21.99 161.715C21.825 162.27 21.63 162.84 21.405 163.38H29.055V164.43ZM42.435 164.55V163.155H38.715V164.55H42.435ZM42.435 166.815V165.42H38.715V166.815H42.435ZM42.435 169.11V167.685H38.715V169.11H42.435ZM43.5 162.24V170.025H37.68V162.24H43.5ZM36.225 170.475L37.005 169.905C37.695 170.535 38.625 171.465 39.075 172.02L38.265 172.68C37.83 172.11 36.915 171.15 36.225 170.475ZM31.725 174.36L30.75 173.865C31.35 173.07 31.86 171.795 32.16 170.82L33.135 171.195C32.805 172.2 32.325 173.535 31.725 174.36ZM34.665 170.175H33.6V166.23C32.94 167.46 32.1 168.6 31.26 169.29C31.08 169.035 30.765 168.69 30.54 168.51C31.635 167.73 32.745 166.185 33.405 164.655H30.87V163.68H33.6V161.49H34.665V163.68H37.035V164.655H34.665V165.495C35.235 165.855 36.765 166.995 37.155 167.295L36.555 168.195C36.165 167.82 35.325 167.085 34.665 166.53V170.175ZM36.39 173.82H39.345C40.065 173.82 40.185 173.61 40.245 172.08C40.5 172.275 40.95 172.44 41.265 172.5C41.115 174.375 40.77 174.825 39.42 174.825H36.315C34.695 174.825 34.275 174.525 34.275 173.37V170.985H35.37V173.355C35.37 173.745 35.52 173.82 36.39 173.82ZM41.475 170.955L42.435 170.52C43.05 171.465 43.86 172.755 44.235 173.52L43.2 174.03C42.855 173.25 42.075 171.945 41.475 170.955ZM47.31 163.065V165.675H50.19V163.065H47.31ZM51.345 171.975L51.465 172.95C49.47 173.475 47.385 174.06 45.84 174.465L45.57 173.43L46.35 173.25V168.075H47.28V173.025L48.45 172.725V166.65H46.335V162.09H51.21V166.65H49.455V168.72H51.27V169.71H49.455V172.455C50.07 172.305 50.7 172.14 51.345 171.975ZM52.995 165.825V167.685H57.39V165.825H52.995ZM57.39 163.11H52.995V164.895H57.39V163.11ZM58.545 169.14L59.25 169.92C58.5 170.535 57.495 171.21 56.67 171.69C57.39 172.755 58.32 173.595 59.475 174.09C59.22 174.3 58.89 174.735 58.74 175.035C56.49 173.925 55.155 171.63 54.435 168.675H52.995V173.595L55.65 172.95C55.65 173.28 55.665 173.73 55.71 173.97C52.635 174.81 52.17 174.96 51.885 175.155C51.795 174.915 51.555 174.465 51.375 174.24C51.615 174.12 51.93 173.805 51.93 173.19V162.12H58.41V168.675H55.365C55.575 169.47 55.86 170.22 56.22 170.895C57.015 170.385 57.945 169.695 58.545 169.14ZM62.505 163.14V166.02H66.315V163.14H62.505ZM64.05 168.615H67.47C67.47 168.615 67.455 168.96 67.455 169.095C67.275 172.83 67.125 174.195 66.72 174.66C66.465 174.96 66.21 175.05 65.76 175.08C65.385 175.125 64.65 175.11 63.93 175.08C63.9 174.78 63.795 174.36 63.615 174.105C64.35 174.18 65.055 174.18 65.325 174.18C65.58 174.18 65.7 174.15 65.835 174.015C66.105 173.715 66.255 172.575 66.39 169.62H63.93C63.6 171.795 62.895 173.865 61.32 175.17C61.17 174.93 60.825 174.57 60.555 174.405C62.595 172.785 62.955 169.725 63.105 167.01H61.47V162.135H67.365V167.01H64.185C64.155 167.535 64.11 168.075 64.05 168.615ZM69.975 163.245V171.495H68.895V163.245H69.975ZM72.54 161.745H73.65V173.67C73.65 174.42 73.44 174.765 72.975 174.96C72.48 175.14 71.64 175.155 70.275 175.155C70.215 174.855 70.05 174.345 69.87 174.03C70.92 174.075 71.865 174.06 72.15 174.045C72.42 174.045 72.54 173.955 72.54 173.67V161.745ZM81.87 161.505H83.1C83.085 162.045 83.07 162.795 82.995 163.68C83.22 165.465 84.12 171.735 89.415 174.09C89.1 174.345 88.77 174.72 88.605 175.035C84.855 173.28 83.25 169.575 82.53 166.785C81.84 169.785 80.25 173.145 76.59 175.095C76.395 174.795 76.035 174.45 75.69 174.225C81.915 171.075 81.825 163.785 81.87 161.505ZM103.92 163.515V164.61H91.05V163.515H97.275C97.065 162.99 96.645 162.255 96.285 161.67L97.32 161.31C97.74 161.91 98.22 162.735 98.43 163.245L97.755 163.515H103.92ZM99.27 165.69L100.125 165.045C101.49 165.975 103.17 167.325 103.98 168.285L103.065 169.005C102.315 168.06 100.65 166.635 99.27 165.69ZM94.8 165.075L95.865 165.495C94.86 166.77 93.285 168.105 91.965 168.96C91.77 168.735 91.35 168.315 91.11 168.12C92.43 167.37 93.9 166.215 94.8 165.075ZM99.75 167.595L100.89 167.91C100.275 169.44 99.435 170.7 98.385 171.705C99.93 172.875 101.91 173.67 104.31 174.045C104.07 174.285 103.77 174.735 103.62 175.05C101.145 174.57 99.135 173.715 97.545 172.425C95.895 173.73 93.84 174.57 91.425 175.185C91.305 174.915 90.975 174.42 90.75 174.18C93.15 173.685 95.175 172.89 96.735 171.69C95.7 170.685 94.905 169.44 94.305 167.985L95.295 167.685C95.805 168.96 96.57 170.085 97.545 171C98.505 170.085 99.255 168.96 99.75 167.595ZM115.53 163.815L114.45 164.235C114.255 163.59 113.715 162.525 113.22 161.745L114.225 161.385C114.735 162.15 115.305 163.17 115.53 163.815ZM108.765 161.49L109.83 161.88C108.975 163.185 107.595 164.58 106.32 165.465C106.185 165.21 105.9 164.775 105.735 164.565C106.875 163.8 108.135 162.54 108.765 161.49ZM109.08 164.805L110.055 165.18C109.71 165.81 109.275 166.455 108.825 167.055V175.155H107.715V168.405C107.205 168.99 106.65 169.5 106.125 169.95C106.02 169.695 105.72 169.125 105.525 168.855C106.845 167.865 108.225 166.35 109.08 164.805ZM115.185 173.625H119.31V174.69H109.83V173.625H114.03V169.77H110.775V168.705H114.03V165.36H110.25V164.295H118.935V165.36H115.185V168.705H118.455V169.77H115.185V173.625ZM127.32 162.855V166.575H128.775V164.07H131.445V162.855H127.32ZM129.645 166.575H131.445V164.85H129.645V166.575ZM126.18 167.46V173.055H125.19V166.575H126.33V161.985H132.465V166.575H133.65V171.945C133.65 172.47 133.56 172.725 133.17 172.89C132.825 173.055 132.24 173.055 131.355 173.055C131.31 172.785 131.175 172.41 131.055 172.155C131.67 172.17 132.24 172.17 132.39 172.17C132.57 172.155 132.63 172.095 132.63 171.945V167.46H126.18ZM130.47 170.805V169.215H128.31V170.805H130.47ZM131.34 168.435V171.585H128.31V172.185H127.455V168.435H131.34ZM123.93 163.77L123.045 164.355C122.685 163.725 121.905 162.675 121.29 161.925L122.145 161.46C122.79 162.195 123.54 163.155 123.93 163.77ZM123.915 168.57L124.41 168.78C124.215 170.01 123.93 171.105 123.555 172.02C124.515 173.7 126.42 173.94 129.255 173.94C130.83 173.94 133.005 173.88 134.52 173.745C134.355 173.985 134.205 174.48 134.16 174.78C132.75 174.87 130.875 174.9 129.24 174.9C126.195 174.9 124.305 174.6 123.135 172.905C122.625 173.88 121.965 174.63 121.245 175.17C121.11 174.945 120.735 174.555 120.51 174.405C121.86 173.475 122.835 171.825 123.3 169.515H121.845C121.47 169.515 121.08 169.605 120.975 169.725C120.9 169.455 120.675 168.945 120.555 168.705C120.78 168.645 121.02 168.555 121.26 168.285C121.605 167.925 122.475 166.74 123.105 165.825H120.75V164.91H123.78L123.96 164.835L124.695 165.165C124.08 166.05 122.985 167.595 122.16 168.6H123.72L123.915 168.57Z" fill="black"/>
<path d="M4.914 200.252C4.218 200.252 3.594 200.168 3.042 200C2.49 199.844 1.998 199.628 1.566 199.352C1.146 199.064 0.78 198.746 0.468 198.398L1.71 196.724C2.118 197.096 2.562 197.42 3.042 197.696C3.534 197.96 4.08 198.092 4.68 198.092C5.136 198.092 5.532 198.02 5.868 197.876C6.216 197.732 6.48 197.522 6.66 197.246C6.852 196.97 6.948 196.634 6.948 196.238C6.948 195.794 6.84 195.416 6.624 195.104C6.42 194.78 6.054 194.534 5.526 194.366C4.998 194.198 4.254 194.114 3.294 194.114V192.206C4.11 192.206 4.752 192.122 5.22 191.954C5.688 191.774 6.018 191.534 6.21 191.234C6.414 190.922 6.516 190.568 6.516 190.172C6.516 189.656 6.36 189.254 6.048 188.966C5.736 188.666 5.298 188.516 4.734 188.516C4.266 188.516 3.828 188.624 3.42 188.84C3.024 189.044 2.628 189.326 2.232 189.686L0.864 188.048C1.452 187.556 2.07 187.166 2.718 186.878C3.366 186.578 4.08 186.428 4.86 186.428C5.712 186.428 6.462 186.566 7.11 186.842C7.77 187.118 8.28 187.52 8.64 188.048C9 188.576 9.18 189.218 9.18 189.974C9.18 190.694 8.988 191.312 8.604 191.828C8.22 192.344 7.674 192.74 6.966 193.016V193.106C7.458 193.238 7.902 193.454 8.298 193.754C8.706 194.042 9.024 194.408 9.252 194.852C9.492 195.296 9.612 195.812 9.612 196.4C9.612 197.204 9.396 197.894 8.964 198.47C8.544 199.046 7.974 199.49 7.254 199.802C6.546 200.102 5.766 200.252 4.914 200.252ZM13.5512 200.252C13.0712 200.252 12.6752 200.084 12.3632 199.748C12.0512 199.412 11.8952 199.004 11.8952 198.524C11.8952 198.02 12.0512 197.606 12.3632 197.282C12.6752 196.958 13.0712 196.796 13.5512 196.796C14.0192 196.796 14.4092 196.958 14.7212 197.282C15.0332 197.606 15.1892 198.02 15.1892 198.524C15.1892 199.004 15.0332 199.412 14.7212 199.748C14.4092 200.084 14.0192 200.252 13.5512 200.252ZM19.8187 200C19.8787 198.848 19.9807 197.786 20.1247 196.814C20.2687 195.83 20.4727 194.906 20.7367 194.042C21.0007 193.166 21.3427 192.308 21.7627 191.468C22.1947 190.628 22.7287 189.77 23.3647 188.894H17.3707V186.662H26.2267V188.282C25.4587 189.218 24.8347 190.118 24.3547 190.982C23.8867 191.846 23.5267 192.722 23.2747 193.61C23.0347 194.498 22.8547 195.458 22.7347 196.49C22.6267 197.522 22.5427 198.692 22.4827 200H19.8187ZM32.3979 200.252C31.5459 200.252 30.7839 200.102 30.1119 199.802C29.4399 199.502 28.9059 199.082 28.5099 198.542C28.1259 198.002 27.9339 197.384 27.9339 196.688C27.9339 196.112 28.0359 195.608 28.2399 195.176C28.4559 194.732 28.7379 194.348 29.0859 194.024C29.4339 193.7 29.8119 193.43 30.2199 193.214V193.124C29.7159 192.764 29.2959 192.326 28.9599 191.81C28.6239 191.282 28.4559 190.67 28.4559 189.974C28.4559 189.254 28.6299 188.63 28.9779 188.102C29.3259 187.574 29.7999 187.166 30.3999 186.878C31.0119 186.59 31.7019 186.446 32.4699 186.446C33.2619 186.446 33.9459 186.596 34.5219 186.896C35.0979 187.184 35.5419 187.592 35.8539 188.12C36.1779 188.648 36.3399 189.272 36.3399 189.992C36.3399 190.424 36.2559 190.832 36.0879 191.216C35.9319 191.6 35.7219 191.948 35.4579 192.26C35.2059 192.56 34.9299 192.818 34.6299 193.034V193.124C35.0499 193.34 35.4279 193.61 35.7639 193.934C36.0999 194.258 36.3699 194.648 36.5739 195.104C36.7779 195.548 36.8799 196.076 36.8799 196.688C36.8799 197.36 36.6879 197.966 36.3039 198.506C35.9319 199.046 35.4099 199.472 34.7379 199.784C34.0659 200.096 33.2859 200.252 32.3979 200.252ZM33.2259 192.386C33.5499 192.038 33.7899 191.678 33.9459 191.306C34.1019 190.934 34.1799 190.55 34.1799 190.154C34.1799 189.794 34.1079 189.476 33.9639 189.2C33.8319 188.912 33.6339 188.69 33.3699 188.534C33.1059 188.378 32.7879 188.3 32.4159 188.3C31.9599 188.3 31.5759 188.444 31.2639 188.732C30.9519 189.02 30.7959 189.434 30.7959 189.974C30.7959 190.382 30.8979 190.736 31.1019 191.036C31.3179 191.324 31.6119 191.576 31.9839 191.792C32.3559 191.996 32.7699 192.194 33.2259 192.386ZM32.4519 198.38C32.8359 198.38 33.1719 198.314 33.4599 198.182C33.7599 198.038 33.9939 197.834 34.1619 197.57C34.3299 197.294 34.4139 196.97 34.4139 196.598C34.4139 196.25 34.3359 195.95 34.1799 195.698C34.0359 195.434 33.8319 195.206 33.5679 195.014C33.3039 194.81 32.9919 194.624 32.6319 194.456C32.2719 194.288 31.8759 194.108 31.4439 193.916C31.0839 194.216 30.7899 194.582 30.5619 195.014C30.3339 195.434 30.2199 195.896 30.2199 196.4C30.2199 196.796 30.3159 197.144 30.5079 197.444C30.7119 197.732 30.9819 197.96 31.3179 198.128C31.6539 198.296 32.0319 198.38 32.4519 198.38ZM41.5211 194.87C40.8971 194.87 40.3391 194.702 39.8471 194.366C39.3551 194.03 38.9711 193.544 38.6951 192.908C38.4191 192.272 38.2811 191.51 38.2811 190.622C38.2811 189.734 38.4191 188.978 38.6951 188.354C38.9711 187.73 39.3551 187.256 39.8471 186.932C40.3391 186.596 40.8971 186.428 41.5211 186.428C42.1691 186.428 42.7331 186.596 43.2131 186.932C43.7051 187.256 44.0891 187.73 44.3651 188.354C44.6411 188.978 44.7791 189.734 44.7791 190.622C44.7791 191.51 44.6411 192.272 44.3651 192.908C44.0891 193.544 43.7051 194.03 43.2131 194.366C42.7331 194.702 42.1691 194.87 41.5211 194.87ZM41.5211 193.376C41.9051 193.376 42.2291 193.166 42.4931 192.746C42.7691 192.314 42.9071 191.606 42.9071 190.622C42.9071 189.65 42.7691 188.96 42.4931 188.552C42.2291 188.132 41.9051 187.922 41.5211 187.922C41.1371 187.922 40.8071 188.132 40.5311 188.552C40.2671 188.96 40.1351 189.65 40.1351 190.622C40.1351 191.606 40.2671 192.314 40.5311 192.746C40.8071 193.166 41.1371 193.376 41.5211 193.376ZM41.9531 200.252L49.2071 186.428H50.7731L43.5371 200.252H41.9531ZM51.2231 200.252C50.5871 200.252 50.0231 200.084 49.5311 199.748C49.0511 199.412 48.6671 198.926 48.3791 198.29C48.1031 197.654 47.9651 196.892 47.9651 196.004C47.9651 195.104 48.1031 194.342 48.3791 193.718C48.6671 193.094 49.0511 192.62 49.5311 192.296C50.0231 191.96 50.5871 191.792 51.2231 191.792C51.8471 191.792 52.3991 191.96 52.8791 192.296C53.3711 192.62 53.7551 193.094 54.0311 193.718C54.3191 194.342 54.4631 195.104 54.4631 196.004C54.4631 196.892 54.3191 197.654 54.0311 198.29C53.7551 198.926 53.3711 199.412 52.8791 199.748C52.3991 200.084 51.8471 200.252 51.2231 200.252ZM51.2231 198.74C51.6071 198.74 51.9311 198.53 52.1951 198.11C52.4591 197.678 52.5911 196.976 52.5911 196.004C52.5911 195.008 52.4591 194.312 52.1951 193.916C51.9311 193.508 51.6071 193.304 51.2231 193.304C50.8271 193.304 50.4971 193.508 50.2331 193.916C49.9691 194.312 49.8371 195.008 49.8371 196.004C49.8371 196.976 49.9691 197.678 50.2331 198.11C50.4971 198.53 50.8271 198.74 51.2231 198.74Z" fill="black"/>
<path d="M124 73L124 48" stroke="black"/>
<path d="M343 73L343 48" stroke="black"/>
<path d="M478 156.5L478 125" stroke="black"/>
<path d="M13.998 156.5L13.9977 125" stroke="black"/>
<path d="M637 156.5L637 125" stroke="black"/>
</svg>
