<svg width="640" height="234" viewBox="0 0 640 234" fill="none" xmlns="http://www.w3.org/2000/svg">
<path d="M0.66 18V17.19C4.11 14.175 5.7 11.985 5.7 10.095C5.7 8.835 5.04 7.92 3.675 7.92C2.775 7.92 1.995 8.475 1.395 9.195L0.6 8.415C1.5 7.44 2.445 6.795 3.84 6.795C5.805 6.795 7.035 8.085 7.035 10.05C7.035 12.24 5.31 14.475 2.73 16.92C3.3 16.875 3.975 16.815 4.53 16.815H7.575V18H0.66ZM12.2353 18.195C10.5253 18.195 9.47531 17.475 8.74031 16.74L9.41531 15.84C10.0453 16.47 10.8403 17.055 12.1153 17.055C13.4053 17.055 14.4553 16.065 14.4553 14.46C14.4553 12.885 13.5553 11.955 12.1753 11.955C11.4403 11.955 10.9753 12.18 10.3453 12.6L9.61031 12.15L9.95531 6.99H15.3103V8.175H11.1553L10.8853 11.355C11.3803 11.085 11.8603 10.92 12.5203 10.92C14.3503 10.92 15.8353 12 15.8353 14.415C15.8353 16.83 14.0953 18.195 12.2353 18.195ZM17.3306 14.325V13.275H21.1706V14.325H17.3306ZM22.5008 18V17.19C25.9508 14.175 27.5408 11.985 27.5408 10.095C27.5408 8.835 26.8808 7.92 25.5158 7.92C24.6158 7.92 23.8358 8.475 23.2358 9.195L22.4408 8.415C23.3408 7.44 24.2858 6.795 25.6808 6.795C27.6458 6.795 28.8758 8.085 28.8758 10.05C28.8758 12.24 27.1508 14.475 24.5708 16.92C25.1408 16.875 25.8158 16.815 26.3708 16.815H29.4158V18H22.5008ZM32.1111 10.365C32.1111 11.85 32.7711 12.81 34.0761 12.81C34.8261 12.81 35.6661 12.375 36.3711 11.34C36.2211 9.075 35.3811 7.875 33.9711 7.875C32.9211 7.875 32.1111 8.865 32.1111 10.365ZM33.6711 18.195C32.4861 18.195 31.6461 17.715 31.0311 17.07L31.7961 16.215C32.2461 16.74 32.9211 17.055 33.6261 17.055C35.0511 17.055 36.2811 15.885 36.3861 12.48C35.7111 13.305 34.7661 13.83 33.8511 13.83C32.0211 13.83 30.8211 12.645 30.8211 10.365C30.8211 8.235 32.2611 6.795 33.9711 6.795C36.0861 6.795 37.6611 8.535 37.6611 12.03C37.6611 16.485 35.7411 18.195 33.6711 18.195ZM46.1164 14.43L47.0314 14.58C46.3714 16.68 44.6164 18.315 42.0814 19.08C41.9764 18.885 41.7364 18.57 41.6014 18.405C42.8464 18.045 43.9114 17.46 44.7064 16.725H43.9564V13.695H42.0064V12.87H46.7614V13.695H44.8864V16.545C45.4714 15.945 45.9064 15.225 46.1164 14.43ZM42.4864 14.31L43.3414 14.49C43.1014 15.405 42.6364 16.32 42.1564 16.95C41.9914 16.815 41.6464 16.575 41.4364 16.47C41.9314 15.9 42.2914 15.105 42.4864 14.31ZM49.2364 9.765H48.2314C48.2464 10.2 48.2764 10.65 48.3064 11.07H50.6164C50.1814 10.74 49.4914 10.335 48.9064 10.08L49.2364 9.765ZM50.4364 12.675L51.4564 12.915C50.9764 14.235 50.3314 15.405 49.5214 16.395C50.0464 17.46 50.6464 18.075 51.2764 18.075C51.6214 18.075 51.7714 17.505 51.8464 16.095C52.0714 16.29 52.4164 16.485 52.6864 16.575C52.5214 18.51 52.1464 19.065 51.2014 19.065C50.2564 19.065 49.4464 18.375 48.8164 17.19C48.0664 17.97 47.2264 18.615 46.2964 19.155C46.1464 18.945 45.7714 18.57 45.5464 18.375C46.6264 17.82 47.5864 17.1 48.3814 16.215C47.9164 15.06 47.5864 13.62 47.3914 12.015H41.3164V13.56C41.3164 15.225 41.1214 17.58 40.0114 19.185C39.8314 19.02 39.3514 18.735 39.0964 18.63C40.1464 17.115 40.2814 15.06 40.2814 13.56V11.07H47.2864C47.2564 10.65 47.2264 10.2 47.2114 9.765H39.4414V8.82H41.8264V6.135H42.8764V8.82H45.5764V5.46H46.6714V6.72L51.1714 6.72V7.605L46.6714 7.605V8.82H52.5514V9.765H50.0164C50.5114 10.02 51.0064 10.305 51.3214 10.575L50.8414 11.07H52.4014V12.015H48.3964C48.5464 13.275 48.7864 14.385 49.1014 15.33C49.6564 14.535 50.1064 13.65 50.4364 12.675Z" fill="black"/>
<rect y="26" width="640" height="21" fill="#B73418"/>
<path d="M587.31 44.252C586.458 44.252 585.696 44.102 585.024 43.802C584.352 43.502 583.818 43.082 583.422 42.542C583.038 42.002 582.846 41.384 582.846 40.688C582.846 40.112 582.948 39.608 583.152 39.176C583.368 38.732 583.65 38.348 583.998 38.024C584.346 37.7 584.724 37.43 585.132 37.214V37.124C584.628 36.764 584.208 36.326 583.872 35.81C583.536 35.282 583.368 34.67 583.368 33.974C583.368 33.254 583.542 32.63 583.89 32.102C584.238 31.574 584.712 31.166 585.312 30.878C585.924 30.59 586.614 30.446 587.382 30.446C588.174 30.446 588.858 30.596 589.434 30.896C590.01 31.184 590.454 31.592 590.766 32.12C591.09 32.648 591.252 33.272 591.252 33.992C591.252 34.424 591.168 34.832 591 35.216C590.844 35.6 590.634 35.948 590.37 36.26C590.118 36.56 589.842 36.818 589.542 37.034V37.124C589.962 37.34 590.34 37.61 590.676 37.934C591.012 38.258 591.282 38.648 591.486 39.104C591.69 39.548 591.792 40.076 591.792 40.688C591.792 41.36 591.6 41.966 591.216 42.506C590.844 43.046 590.322 43.472 589.65 43.784C588.978 44.096 588.198 44.252 587.31 44.252ZM588.138 36.386C588.462 36.038 588.702 35.678 588.858 35.306C589.014 34.934 589.092 34.55 589.092 34.154C589.092 33.794 589.02 33.476 588.876 33.2C588.744 32.912 588.546 32.69 588.282 32.534C588.018 32.378 587.7 32.3 587.328 32.3C586.872 32.3 586.488 32.444 586.176 32.732C585.864 33.02 585.708 33.434 585.708 33.974C585.708 34.382 585.81 34.736 586.014 35.036C586.23 35.324 586.524 35.576 586.896 35.792C587.268 35.996 587.682 36.194 588.138 36.386ZM587.364 42.38C587.748 42.38 588.084 42.314 588.372 42.182C588.672 42.038 588.906 41.834 589.074 41.57C589.242 41.294 589.326 40.97 589.326 40.598C589.326 40.25 589.248 39.95 589.092 39.698C588.948 39.434 588.744 39.206 588.48 39.014C588.216 38.81 587.904 38.624 587.544 38.456C587.184 38.288 586.788 38.108 586.356 37.916C585.996 38.216 585.702 38.582 585.474 39.014C585.246 39.434 585.132 39.896 585.132 40.4C585.132 40.796 585.228 41.144 585.42 41.444C585.624 41.732 585.894 41.96 586.23 42.128C586.566 42.296 586.944 42.38 587.364 42.38ZM597.531 44.252C596.835 44.252 596.211 44.168 595.659 44C595.107 43.844 594.615 43.628 594.183 43.352C593.763 43.064 593.397 42.746 593.085 42.398L594.327 40.724C594.735 41.096 595.179 41.42 595.659 41.696C596.151 41.96 596.697 42.092 597.297 42.092C597.753 42.092 598.149 42.02 598.485 41.876C598.833 41.732 599.097 41.522 599.277 41.246C599.469 40.97 599.565 40.634 599.565 40.238C599.565 39.794 599.457 39.416 599.241 39.104C599.037 38.78 598.671 38.534 598.143 38.366C597.615 38.198 596.871 38.114 595.911 38.114V36.206C596.727 36.206 597.369 36.122 597.837 35.954C598.305 35.774 598.635 35.534 598.827 35.234C599.031 34.922 599.133 34.568 599.133 34.172C599.133 33.656 598.977 33.254 598.665 32.966C598.353 32.666 597.915 32.516 597.351 32.516C596.883 32.516 596.445 32.624 596.037 32.84C595.641 33.044 595.245 33.326 594.849 33.686L593.481 32.048C594.069 31.556 594.687 31.166 595.335 30.878C595.983 30.578 596.697 30.428 597.477 30.428C598.329 30.428 599.079 30.566 599.727 30.842C600.387 31.118 600.897 31.52 601.257 32.048C601.617 32.576 601.797 33.218 601.797 33.974C601.797 34.694 601.605 35.312 601.221 35.828C600.837 36.344 600.291 36.74 599.583 37.016V37.106C600.075 37.238 600.519 37.454 600.915 37.754C601.323 38.042 601.641 38.408 601.869 38.852C602.109 39.296 602.229 39.812 602.229 40.4C602.229 41.204 602.013 41.894 601.581 42.47C601.161 43.046 600.591 43.49 599.871 43.802C599.163 44.102 598.383 44.252 597.531 44.252ZM606.168 44.252C605.688 44.252 605.292 44.084 604.98 43.748C604.668 43.412 604.512 43.004 604.512 42.524C604.512 42.02 604.668 41.606 604.98 41.282C605.292 40.958 605.688 40.796 606.168 40.796C606.636 40.796 607.026 40.958 607.338 41.282C607.65 41.606 607.806 42.02 607.806 42.524C607.806 43.004 607.65 43.412 607.338 43.748C607.026 44.084 606.636 44.252 606.168 44.252ZM614.398 44.252C613.546 44.252 612.784 44.102 612.112 43.802C611.44 43.502 610.906 43.082 610.51 42.542C610.126 42.002 609.934 41.384 609.934 40.688C609.934 40.112 610.036 39.608 610.24 39.176C610.456 38.732 610.738 38.348 611.086 38.024C611.434 37.7 611.812 37.43 612.22 37.214V37.124C611.716 36.764 611.296 36.326 610.96 35.81C610.624 35.282 610.456 34.67 610.456 33.974C610.456 33.254 610.63 32.63 610.978 32.102C611.326 31.574 611.8 31.166 612.4 30.878C613.012 30.59 613.702 30.446 614.47 30.446C615.262 30.446 615.946 30.596 616.522 30.896C617.098 31.184 617.542 31.592 617.854 32.12C618.178 32.648 618.34 33.272 618.34 33.992C618.34 34.424 618.256 34.832 618.088 35.216C617.932 35.6 617.722 35.948 617.458 36.26C617.206 36.56 616.93 36.818 616.63 37.034V37.124C617.05 37.34 617.428 37.61 617.764 37.934C618.1 38.258 618.37 38.648 618.574 39.104C618.778 39.548 618.88 40.076 618.88 40.688C618.88 41.36 618.688 41.966 618.304 42.506C617.932 43.046 617.41 43.472 616.738 43.784C616.066 44.096 615.286 44.252 614.398 44.252ZM615.226 36.386C615.55 36.038 615.79 35.678 615.946 35.306C616.102 34.934 616.18 34.55 616.18 34.154C616.18 33.794 616.108 33.476 615.964 33.2C615.832 32.912 615.634 32.69 615.37 32.534C615.106 32.378 614.788 32.3 614.416 32.3C613.96 32.3 613.576 32.444 613.264 32.732C612.952 33.02 612.796 33.434 612.796 33.974C612.796 34.382 612.898 34.736 613.102 35.036C613.318 35.324 613.612 35.576 613.984 35.792C614.356 35.996 614.77 36.194 615.226 36.386ZM614.452 42.38C614.836 42.38 615.172 42.314 615.46 42.182C615.76 42.038 615.994 41.834 616.162 41.57C616.33 41.294 616.414 40.97 616.414 40.598C616.414 40.25 616.336 39.95 616.18 39.698C616.036 39.434 615.832 39.206 615.568 39.014C615.304 38.81 614.992 38.624 614.632 38.456C614.272 38.288 613.876 38.108 613.444 37.916C613.084 38.216 612.79 38.582 612.562 39.014C612.334 39.434 612.22 39.896 612.22 40.4C612.22 40.796 612.316 41.144 612.508 41.444C612.712 41.732 612.982 41.96 613.318 42.128C613.654 42.296 614.032 42.38 614.452 42.38Z" fill="white"/>
<rect y="51" width="582.633" height="21" fill="#FFA59B"/>
<path d="M528.348 69C528.408 67.848 528.51 66.786 528.654 65.814C528.798 64.83 529.002 63.906 529.266 63.042C529.53 62.166 529.872 61.308 530.292 60.468C530.724 59.628 531.258 58.77 531.894 57.894H525.9V55.662H534.756V57.282C533.988 58.218 533.364 59.118 532.884 59.982C532.416 60.846 532.056 61.722 531.804 62.61C531.564 63.498 531.384 64.458 531.264 65.49C531.156 66.522 531.072 67.692 531.012 69H528.348ZM541.305 69.252C540.681 69.252 540.075 69.12 539.487 68.856C538.911 68.592 538.401 68.19 537.957 67.65C537.513 67.098 537.159 66.402 536.895 65.562C536.643 64.71 536.517 63.696 536.517 62.52C536.517 61.284 536.655 60.216 536.931 59.316C537.219 58.416 537.603 57.684 538.083 57.12C538.563 56.544 539.109 56.118 539.721 55.842C540.345 55.566 540.999 55.428 541.683 55.428C542.499 55.428 543.201 55.578 543.789 55.878C544.389 56.166 544.887 56.52 545.283 56.94L543.879 58.524C543.651 58.26 543.351 58.032 542.979 57.84C542.607 57.648 542.229 57.552 541.845 57.552C541.305 57.552 540.813 57.708 540.369 58.02C539.937 58.332 539.589 58.848 539.325 59.568C539.061 60.288 538.929 61.272 538.929 62.52C538.929 63.672 539.031 64.596 539.235 65.292C539.451 65.976 539.733 66.474 540.081 66.786C540.429 67.098 540.819 67.254 541.251 67.254C541.587 67.254 541.887 67.164 542.151 66.984C542.427 66.792 542.649 66.516 542.817 66.156C542.985 65.784 543.069 65.328 543.069 64.788C543.069 64.26 542.985 63.828 542.817 63.492C542.661 63.156 542.439 62.904 542.151 62.736C541.875 62.568 541.545 62.484 541.161 62.484C540.801 62.484 540.423 62.598 540.027 62.826C539.631 63.042 539.265 63.426 538.929 63.978L538.803 62.196C539.043 61.86 539.325 61.572 539.649 61.332C539.985 61.092 540.327 60.912 540.675 60.792C541.035 60.672 541.359 60.612 541.647 60.612C542.391 60.612 543.051 60.762 543.627 61.062C544.215 61.362 544.671 61.818 544.995 62.43C545.319 63.042 545.481 63.828 545.481 64.788C545.481 65.7 545.289 66.492 544.905 67.164C544.533 67.824 544.029 68.34 543.393 68.712C542.757 69.072 542.061 69.252 541.305 69.252ZM549.168 69.252C548.688 69.252 548.292 69.084 547.98 68.748C547.668 68.412 547.512 68.004 547.512 67.524C547.512 67.02 547.668 66.606 547.98 66.282C548.292 65.958 548.688 65.796 549.168 65.796C549.636 65.796 550.026 65.958 550.338 66.282C550.65 66.606 550.806 67.02 550.806 67.524C550.806 68.004 550.65 68.412 550.338 68.748C550.026 69.084 549.636 69.252 549.168 69.252ZM558.154 69V60.81C558.154 60.426 558.166 59.97 558.19 59.442C558.214 58.902 558.238 58.434 558.262 58.038H558.172C558.016 58.398 557.848 58.758 557.668 59.118C557.488 59.478 557.302 59.844 557.11 60.216L555.04 63.528H562.204V65.544H552.466V63.744L557.434 55.662H560.62V69H558.154Z" fill="white"/>
<path d="M0.66 99V98.19C4.11 95.175 5.7 92.985 5.7 91.095C5.7 89.835 5.04 88.92 3.675 88.92C2.775 88.92 1.995 89.475 1.395 90.195L0.6 89.415C1.5 88.44 2.445 87.795 3.84 87.795C5.805 87.795 7.035 89.085 7.035 91.05C7.035 93.24 5.31 95.475 2.73 97.92C3.3 97.875 3.975 97.815 4.53 97.815H7.575V99H0.66ZM12.2353 99.195C10.5253 99.195 9.47531 98.475 8.74031 97.74L9.41531 96.84C10.0453 97.47 10.8403 98.055 12.1153 98.055C13.4053 98.055 14.4553 97.065 14.4553 95.46C14.4553 93.885 13.5553 92.955 12.1753 92.955C11.4403 92.955 10.9753 93.18 10.3453 93.6L9.61031 93.15L9.95531 87.99H15.3103V89.175H11.1553L10.8853 92.355C11.3803 92.085 11.8603 91.92 12.5203 91.92C14.3503 91.92 15.8353 93 15.8353 95.415C15.8353 97.83 14.0953 99.195 12.2353 99.195ZM17.3306 95.325V94.275H21.1706V95.325H17.3306ZM22.5008 99V98.19C25.9508 95.175 27.5408 92.985 27.5408 91.095C27.5408 89.835 26.8808 88.92 25.5158 88.92C24.6158 88.92 23.8358 89.475 23.2358 90.195L22.4408 89.415C23.3408 88.44 24.2858 87.795 25.6808 87.795C27.6458 87.795 28.8758 89.085 28.8758 91.05C28.8758 93.24 27.1508 95.475 24.5708 97.92C25.1408 97.875 25.8158 97.815 26.3708 97.815H29.4158V99H22.5008ZM32.1111 91.365C32.1111 92.85 32.7711 93.81 34.0761 93.81C34.8261 93.81 35.6661 93.375 36.3711 92.34C36.2211 90.075 35.3811 88.875 33.9711 88.875C32.9211 88.875 32.1111 89.865 32.1111 91.365ZM33.6711 99.195C32.4861 99.195 31.6461 98.715 31.0311 98.07L31.7961 97.215C32.2461 97.74 32.9211 98.055 33.6261 98.055C35.0511 98.055 36.2811 96.885 36.3861 93.48C35.7111 94.305 34.7661 94.83 33.8511 94.83C32.0211 94.83 30.8211 93.645 30.8211 91.365C30.8211 89.235 32.2611 87.795 33.9711 87.795C36.0861 87.795 37.6611 89.535 37.6611 93.03C37.6611 97.485 35.7411 99.195 33.6711 99.195ZM46.1164 95.43L47.0314 95.58C46.3714 97.68 44.6164 99.315 42.0814 100.08C41.9764 99.885 41.7364 99.57 41.6014 99.405C42.8464 99.045 43.9114 98.46 44.7064 97.725H43.9564V94.695H42.0064V93.87H46.7614V94.695H44.8864V97.545C45.4714 96.945 45.9064 96.225 46.1164 95.43ZM42.4864 95.31L43.3414 95.49C43.1014 96.405 42.6364 97.32 42.1564 97.95C41.9914 97.815 41.6464 97.575 41.4364 97.47C41.9314 96.9 42.2914 96.105 42.4864 95.31ZM49.2364 90.765H48.2314C48.2464 91.2 48.2764 91.65 48.3064 92.07H50.6164C50.1814 91.74 49.4914 91.335 48.9064 91.08L49.2364 90.765ZM50.4364 93.675L51.4564 93.915C50.9764 95.235 50.3314 96.405 49.5214 97.395C50.0464 98.46 50.6464 99.075 51.2764 99.075C51.6214 99.075 51.7714 98.505 51.8464 97.095C52.0714 97.29 52.4164 97.485 52.6864 97.575C52.5214 99.51 52.1464 100.065 51.2014 100.065C50.2564 100.065 49.4464 99.375 48.8164 98.19C48.0664 98.97 47.2264 99.615 46.2964 100.155C46.1464 99.945 45.7714 99.57 45.5464 99.375C46.6264 98.82 47.5864 98.1 48.3814 97.215C47.9164 96.06 47.5864 94.62 47.3914 93.015H41.3164V94.56C41.3164 96.225 41.1214 98.58 40.0114 100.185C39.8314 100.02 39.3514 99.735 39.0964 99.63C40.1464 98.115 40.2814 96.06 40.2814 94.56V92.07H47.2864C47.2564 91.65 47.2264 91.2 47.2114 90.765H39.4414V89.82H41.8264V87.135H42.8764V89.82H45.5764V86.46H46.6714V87.72H51.1714V88.605H46.6714V89.82H52.5514V90.765H50.0164C50.5114 91.02 51.0064 91.305 51.3214 91.575L50.8414 92.07H52.4014V93.015H48.3964C48.5464 94.275 48.7864 95.385 49.1014 96.33C49.6564 95.535 50.1064 94.65 50.4364 93.675Z" fill="black"/>
<rect y="107" width="464.314" height="21" fill="#B73418"/>
<path d="M411.688 125.252C411.064 125.252 410.458 125.12 409.87 124.856C409.294 124.592 408.784 124.19 408.34 123.65C407.896 123.098 407.542 122.402 407.278 121.562C407.026 120.71 406.9 119.696 406.9 118.52C406.9 117.284 407.038 116.216 407.314 115.316C407.602 114.416 407.986 113.684 408.466 113.12C408.946 112.544 409.492 112.118 410.104 111.842C410.728 111.566 411.382 111.428 412.066 111.428C412.882 111.428 413.584 111.578 414.172 111.878C414.772 112.166 415.27 112.52 415.666 112.94L414.262 114.524C414.034 114.26 413.734 114.032 413.362 113.84C412.99 113.648 412.612 113.552 412.228 113.552C411.688 113.552 411.196 113.708 410.752 114.02C410.32 114.332 409.972 114.848 409.708 115.568C409.444 116.288 409.312 117.272 409.312 118.52C409.312 119.672 409.414 120.596 409.618 121.292C409.834 121.976 410.116 122.474 410.464 122.786C410.812 123.098 411.202 123.254 411.634 123.254C411.97 123.254 412.27 123.164 412.534 122.984C412.81 122.792 413.032 122.516 413.2 122.156C413.368 121.784 413.452 121.328 413.452 120.788C413.452 120.26 413.368 119.828 413.2 119.492C413.044 119.156 412.822 118.904 412.534 118.736C412.258 118.568 411.928 118.484 411.544 118.484C411.184 118.484 410.806 118.598 410.41 118.826C410.014 119.042 409.648 119.426 409.312 119.978L409.186 118.196C409.426 117.86 409.708 117.572 410.032 117.332C410.368 117.092 410.71 116.912 411.058 116.792C411.418 116.672 411.742 116.612 412.03 116.612C412.774 116.612 413.434 116.762 414.01 117.062C414.598 117.362 415.054 117.818 415.378 118.43C415.702 119.042 415.864 119.828 415.864 120.788C415.864 121.7 415.672 122.492 415.288 123.164C414.916 123.824 414.412 124.34 413.776 124.712C413.14 125.072 412.444 125.252 411.688 125.252ZM421.927 125.252C421.027 125.252 420.235 124.994 419.551 124.478C418.879 123.95 418.351 123.17 417.967 122.138C417.595 121.094 417.409 119.804 417.409 118.268C417.409 116.744 417.595 115.478 417.967 114.47C418.351 113.45 418.879 112.688 419.551 112.184C420.235 111.68 421.027 111.428 421.927 111.428C422.839 111.428 423.631 111.686 424.303 112.202C424.975 112.706 425.497 113.462 425.869 114.47C426.253 115.478 426.445 116.744 426.445 118.268C426.445 119.804 426.253 121.094 425.869 122.138C425.497 123.17 424.975 123.95 424.303 124.478C423.631 124.994 422.839 125.252 421.927 125.252ZM421.927 123.182C422.323 123.182 422.671 123.032 422.971 122.732C423.271 122.432 423.505 121.928 423.673 121.22C423.841 120.5 423.925 119.516 423.925 118.268C423.925 117.032 423.841 116.066 423.673 115.37C423.505 114.662 423.271 114.17 422.971 113.894C422.671 113.606 422.323 113.462 421.927 113.462C421.555 113.462 421.213 113.606 420.901 113.894C420.601 114.17 420.361 114.662 420.181 115.37C420.001 116.066 419.911 117.032 419.911 118.268C419.911 119.516 420.001 120.5 420.181 121.22C420.361 121.928 420.601 122.432 420.901 122.732C421.213 123.032 421.555 123.182 421.927 123.182ZM430.168 125.252C429.688 125.252 429.292 125.084 428.98 124.748C428.668 124.412 428.512 124.004 428.512 123.524C428.512 123.02 428.668 122.606 428.98 122.282C429.292 121.958 429.688 121.796 430.168 121.796C430.636 121.796 431.026 121.958 431.338 122.282C431.65 122.606 431.806 123.02 431.806 123.524C431.806 124.004 431.65 124.412 431.338 124.748C431.026 125.084 430.636 125.252 430.168 125.252ZM436.436 125C436.496 123.848 436.598 122.786 436.742 121.814C436.886 120.83 437.09 119.906 437.354 119.042C437.618 118.166 437.96 117.308 438.38 116.468C438.812 115.628 439.346 114.77 439.982 113.894H433.988V111.662H442.844V113.282C442.076 114.218 441.452 115.118 440.972 115.982C440.504 116.846 440.144 117.722 439.892 118.61C439.652 119.498 439.472 120.458 439.352 121.49C439.244 122.522 439.16 123.692 439.1 125H436.436Z" fill="white"/>
<rect y="132" width="337.031" height="21" fill="#FFA59B"/>
<path d="M285.066 150V141.81C285.066 141.426 285.078 140.97 285.102 140.442C285.126 139.902 285.15 139.434 285.174 139.038H285.084C284.928 139.398 284.76 139.758 284.58 140.118C284.4 140.478 284.214 140.844 284.022 141.216L281.952 144.528H289.116V146.544H279.378V144.744L284.346 136.662H287.532V150H285.066ZM295.683 150V141.81C295.683 141.426 295.695 140.97 295.719 140.442C295.743 139.902 295.767 139.434 295.791 139.038H295.701C295.545 139.398 295.377 139.758 295.197 140.118C295.017 140.478 294.831 140.844 294.639 141.216L292.569 144.528H299.733V146.544H289.995V144.744L294.963 136.662H298.149V150H295.683ZM303.168 150.252C302.688 150.252 302.292 150.084 301.98 149.748C301.668 149.412 301.512 149.004 301.512 148.524C301.512 148.02 301.668 147.606 301.98 147.282C302.292 146.958 302.688 146.796 303.168 146.796C303.636 146.796 304.026 146.958 304.338 147.282C304.65 147.606 304.806 148.02 304.806 148.524C304.806 149.004 304.65 149.412 304.338 149.748C304.026 150.084 303.636 150.252 303.168 150.252ZM307.564 150V147.84H310.444V139.434H308.014V137.778C308.686 137.658 309.262 137.514 309.742 137.346C310.234 137.166 310.69 136.938 311.11 136.662H313.072V147.84H315.574V150H307.564Z" fill="white"/>
<path d="M0.66 180V179.19C4.11 176.175 5.7 173.985 5.7 172.095C5.7 170.835 5.04 169.92 3.675 169.92C2.775 169.92 1.995 170.475 1.395 171.195L0.6 170.415C1.5 169.44 2.445 168.795 3.84 168.795C5.805 168.795 7.035 170.085 7.035 172.05C7.035 174.24 5.31 176.475 2.73 178.92C3.3 178.875 3.975 178.815 4.53 178.815H7.575V180H0.66ZM12.2353 180.195C10.5253 180.195 9.47531 179.475 8.74031 178.74L9.41531 177.84C10.0453 178.47 10.8403 179.055 12.1153 179.055C13.4053 179.055 14.4553 178.065 14.4553 176.46C14.4553 174.885 13.5553 173.955 12.1753 173.955C11.4403 173.955 10.9753 174.18 10.3453 174.6L9.61031 174.15L9.95531 168.99H15.3103V170.175H11.1553L10.8853 173.355C11.3803 173.085 11.8603 172.92 12.5203 172.92C14.3503 172.92 15.8353 174 15.8353 176.415C15.8353 178.83 14.0953 180.195 12.2353 180.195ZM17.3306 176.325V175.275H21.1706V176.325H17.3306ZM22.5008 180V179.19C25.9508 176.175 27.5408 173.985 27.5408 172.095C27.5408 170.835 26.8808 169.92 25.5158 169.92C24.6158 169.92 23.8358 170.475 23.2358 171.195L22.4408 170.415C23.3408 169.44 24.2858 168.795 25.6808 168.795C27.6458 168.795 28.8758 170.085 28.8758 172.05C28.8758 174.24 27.1508 176.475 24.5708 178.92C25.1408 178.875 25.8158 178.815 26.3708 178.815H29.4158V180H22.5008ZM32.1111 172.365C32.1111 173.85 32.7711 174.81 34.0761 174.81C34.8261 174.81 35.6661 174.375 36.3711 173.34C36.2211 171.075 35.3811 169.875 33.9711 169.875C32.9211 169.875 32.1111 170.865 32.1111 172.365ZM33.6711 180.195C32.4861 180.195 31.6461 179.715 31.0311 179.07L31.7961 178.215C32.2461 178.74 32.9211 179.055 33.6261 179.055C35.0511 179.055 36.2811 177.885 36.3861 174.48C35.7111 175.305 34.7661 175.83 33.8511 175.83C32.0211 175.83 30.8211 174.645 30.8211 172.365C30.8211 170.235 32.2611 168.795 33.9711 168.795C36.0861 168.795 37.6611 170.535 37.6611 174.03C37.6611 178.485 35.7411 180.195 33.6711 180.195ZM46.1164 176.43L47.0314 176.58C46.3714 178.68 44.6164 180.315 42.0814 181.08C41.9764 180.885 41.7364 180.57 41.6014 180.405C42.8464 180.045 43.9114 179.46 44.7064 178.725H43.9564V175.695H42.0064V174.87H46.7614V175.695H44.8864V178.545C45.4714 177.945 45.9064 177.225 46.1164 176.43ZM42.4864 176.31L43.3414 176.49C43.1014 177.405 42.6364 178.32 42.1564 178.95C41.9914 178.815 41.6464 178.575 41.4364 178.47C41.9314 177.9 42.2914 177.105 42.4864 176.31ZM49.2364 171.765H48.2314C48.2464 172.2 48.2764 172.65 48.3064 173.07H50.6164C50.1814 172.74 49.4914 172.335 48.9064 172.08L49.2364 171.765ZM50.4364 174.675L51.4564 174.915C50.9764 176.235 50.3314 177.405 49.5214 178.395C50.0464 179.46 50.6464 180.075 51.2764 180.075C51.6214 180.075 51.7714 179.505 51.8464 178.095C52.0714 178.29 52.4164 178.485 52.6864 178.575C52.5214 180.51 52.1464 181.065 51.2014 181.065C50.2564 181.065 49.4464 180.375 48.8164 179.19C48.0664 179.97 47.2264 180.615 46.2964 181.155C46.1464 180.945 45.7714 180.57 45.5464 180.375C46.6264 179.82 47.5864 179.1 48.3814 178.215C47.9164 177.06 47.5864 175.62 47.3914 174.015H41.3164V175.56C41.3164 177.225 41.1214 179.58 40.0114 181.185C39.8314 181.02 39.3514 180.735 39.0964 180.63C40.1464 179.115 40.2814 177.06 40.2814 175.56V173.07H47.2864C47.2564 172.65 47.2264 172.2 47.2114 171.765H39.4414V170.82H41.8264V168.135H42.8764V170.82H45.5764V167.46H46.6714V168.72H51.1714V169.605H46.6714V170.82H52.5514V171.765H50.0164C50.5114 172.02 51.0064 172.305 51.3214 172.575L50.8414 173.07H52.4014V174.015H48.3964C48.5464 175.275 48.7864 176.385 49.1014 177.33C49.6564 176.535 50.1064 175.65 50.4364 174.675Z" fill="black"/>
<rect y="188" width="315.949" height="21" fill="#B73418"/>
<path d="M264.066 206V197.81C264.066 197.426 264.078 196.97 264.102 196.442C264.126 195.902 264.15 195.434 264.174 195.038H264.084C263.928 195.398 263.76 195.758 263.58 196.118C263.4 196.478 263.214 196.844 263.022 197.216L260.952 200.528H268.116V202.544H258.378V200.744L263.346 192.662H266.532V206H264.066ZM270.093 206V203.84H272.973V195.434H270.543V193.778C271.215 193.658 271.791 193.514 272.271 193.346C272.763 193.166 273.219 192.938 273.639 192.662H275.601V203.84H278.103V206H270.093ZM282.168 206.252C281.688 206.252 281.292 206.084 280.98 205.748C280.668 205.412 280.512 205.004 280.512 204.524C280.512 204.02 280.668 203.606 280.98 203.282C281.292 202.958 281.688 202.796 282.168 202.796C282.636 202.796 283.026 202.958 283.338 203.282C283.65 203.606 283.806 204.02 283.806 204.524C283.806 205.004 283.65 205.412 283.338 205.748C283.026 206.084 282.636 206.252 282.168 206.252ZM291.154 206V197.81C291.154 197.426 291.166 196.97 291.19 196.442C291.214 195.902 291.238 195.434 291.262 195.038H291.172C291.016 195.398 290.848 195.758 290.668 196.118C290.488 196.478 290.302 196.844 290.11 197.216L288.04 200.528H295.204V202.544H285.466V200.744L290.434 192.662H293.62V206H291.154Z" fill="white"/>
<rect y="213" width="180.253" height="21" fill="#FFA59B"/>
<path d="M122.774 231V229.47C123.986 228.39 125.018 227.388 125.87 226.464C126.734 225.54 127.394 224.682 127.85 223.89C128.306 223.086 128.534 222.342 128.534 221.658C128.534 221.226 128.456 220.848 128.3 220.524C128.144 220.2 127.916 219.954 127.616 219.786C127.328 219.606 126.968 219.516 126.536 219.516C126.056 219.516 125.612 219.654 125.204 219.93C124.808 220.194 124.442 220.512 124.106 220.884L122.63 219.462C123.254 218.79 123.89 218.286 124.538 217.95C125.198 217.602 125.978 217.428 126.878 217.428C127.718 217.428 128.45 217.602 129.074 217.95C129.71 218.286 130.202 218.76 130.55 219.372C130.898 219.984 131.072 220.704 131.072 221.532C131.072 222.336 130.868 223.158 130.46 223.998C130.064 224.826 129.53 225.654 128.858 226.482C128.186 227.31 127.442 228.126 126.626 228.93C126.974 228.882 127.346 228.846 127.742 228.822C128.15 228.786 128.51 228.768 128.822 228.768H131.702V231H122.774ZM137.531 231.252C136.835 231.252 136.211 231.168 135.659 231C135.107 230.844 134.615 230.628 134.183 230.352C133.763 230.064 133.397 229.746 133.085 229.398L134.327 227.724C134.735 228.096 135.179 228.42 135.659 228.696C136.151 228.96 136.697 229.092 137.297 229.092C137.753 229.092 138.149 229.02 138.485 228.876C138.833 228.732 139.097 228.522 139.277 228.246C139.469 227.97 139.565 227.634 139.565 227.238C139.565 226.794 139.457 226.416 139.241 226.104C139.037 225.78 138.671 225.534 138.143 225.366C137.615 225.198 136.871 225.114 135.911 225.114V223.206C136.727 223.206 137.369 223.122 137.837 222.954C138.305 222.774 138.635 222.534 138.827 222.234C139.031 221.922 139.133 221.568 139.133 221.172C139.133 220.656 138.977 220.254 138.665 219.966C138.353 219.666 137.915 219.516 137.351 219.516C136.883 219.516 136.445 219.624 136.037 219.84C135.641 220.044 135.245 220.326 134.849 220.686L133.481 219.048C134.069 218.556 134.687 218.166 135.335 217.878C135.983 217.578 136.697 217.428 137.477 217.428C138.329 217.428 139.079 217.566 139.727 217.842C140.387 218.118 140.897 218.52 141.257 219.048C141.617 219.576 141.797 220.218 141.797 220.974C141.797 221.694 141.605 222.312 141.221 222.828C140.837 223.344 140.291 223.74 139.583 224.016V224.106C140.075 224.238 140.519 224.454 140.915 224.754C141.323 225.042 141.641 225.408 141.869 225.852C142.109 226.296 142.229 226.812 142.229 227.4C142.229 228.204 142.013 228.894 141.581 229.47C141.161 230.046 140.591 230.49 139.871 230.802C139.163 231.102 138.383 231.252 137.531 231.252ZM146.168 231.252C145.688 231.252 145.292 231.084 144.98 230.748C144.668 230.412 144.512 230.004 144.512 229.524C144.512 229.02 144.668 228.606 144.98 228.282C145.292 227.958 145.688 227.796 146.168 227.796C146.636 227.796 147.026 227.958 147.338 228.282C147.65 228.606 147.806 229.02 147.806 229.524C147.806 230.004 147.65 230.412 147.338 230.748C147.026 231.084 146.636 231.252 146.168 231.252ZM154.398 231.252C153.546 231.252 152.784 231.102 152.112 230.802C151.44 230.502 150.906 230.082 150.51 229.542C150.126 229.002 149.934 228.384 149.934 227.688C149.934 227.112 150.036 226.608 150.24 226.176C150.456 225.732 150.738 225.348 151.086 225.024C151.434 224.7 151.812 224.43 152.22 224.214V224.124C151.716 223.764 151.296 223.326 150.96 222.81C150.624 222.282 150.456 221.67 150.456 220.974C150.456 220.254 150.63 219.63 150.978 219.102C151.326 218.574 151.8 218.166 152.4 217.878C153.012 217.59 153.702 217.446 154.47 217.446C155.262 217.446 155.946 217.596 156.522 217.896C157.098 218.184 157.542 218.592 157.854 219.12C158.178 219.648 158.34 220.272 158.34 220.992C158.34 221.424 158.256 221.832 158.088 222.216C157.932 222.6 157.722 222.948 157.458 223.26C157.206 223.56 156.93 223.818 156.63 224.034V224.124C157.05 224.34 157.428 224.61 157.764 224.934C158.1 225.258 158.37 225.648 158.574 226.104C158.778 226.548 158.88 227.076 158.88 227.688C158.88 228.36 158.688 228.966 158.304 229.506C157.932 230.046 157.41 230.472 156.738 230.784C156.066 231.096 155.286 231.252 154.398 231.252ZM155.226 223.386C155.55 223.038 155.79 222.678 155.946 222.306C156.102 221.934 156.18 221.55 156.18 221.154C156.18 220.794 156.108 220.476 155.964 220.2C155.832 219.912 155.634 219.69 155.37 219.534C155.106 219.378 154.788 219.3 154.416 219.3C153.96 219.3 153.576 219.444 153.264 219.732C152.952 220.02 152.796 220.434 152.796 220.974C152.796 221.382 152.898 221.736 153.102 222.036C153.318 222.324 153.612 222.576 153.984 222.792C154.356 222.996 154.77 223.194 155.226 223.386ZM154.452 229.38C154.836 229.38 155.172 229.314 155.46 229.182C155.76 229.038 155.994 228.834 156.162 228.57C156.33 228.294 156.414 227.97 156.414 227.598C156.414 227.25 156.336 226.95 156.18 226.698C156.036 226.434 155.832 226.206 155.568 226.014C155.304 225.81 154.992 225.624 154.632 225.456C154.272 225.288 153.876 225.108 153.444 224.916C153.084 225.216 152.79 225.582 152.562 226.014C152.334 226.434 152.22 226.896 152.22 227.4C152.22 227.796 152.316 228.144 152.508 228.444C152.712 228.732 152.982 228.96 153.318 229.128C153.654 229.296 154.032 229.38 154.452 229.38Z" fill="white"/>
<path d="M589.66 198V197.19C593.11 194.175 594.7 191.985 594.7 190.095C594.7 188.835 594.04 187.92 592.675 187.92C591.775 187.92 590.995 188.475 590.395 189.195L589.6 188.415C590.5 187.44 591.445 186.795 592.84 186.795C594.805 186.795 596.035 188.085 596.035 190.05C596.035 192.24 594.31 194.475 591.73 196.92C592.3 196.875 592.975 196.815 593.53 196.815H596.575V198H589.66ZM601.49 198.195C599.39 198.195 598.055 196.29 598.055 192.465C598.055 188.64 599.39 186.795 601.49 186.795C603.575 186.795 604.91 188.655 604.91 192.465C604.91 196.29 603.575 198.195 601.49 198.195ZM601.49 197.1C602.735 197.1 603.575 195.705 603.575 192.465C603.575 189.255 602.735 187.89 601.49 187.89C600.23 187.89 599.39 189.255 599.39 192.465C599.39 195.705 600.23 197.1 601.49 197.1ZM606.301 198V197.19C609.751 194.175 611.341 191.985 611.341 190.095C611.341 188.835 610.681 187.92 609.316 187.92C608.416 187.92 607.636 188.475 607.036 189.195L606.241 188.415C607.141 187.44 608.086 186.795 609.481 186.795C611.446 186.795 612.676 188.085 612.676 190.05C612.676 192.24 610.951 194.475 608.371 196.92C608.941 196.875 609.616 196.815 610.171 196.815H613.216V198H606.301ZM615.686 193.875H619.061V190.5C619.061 189.96 619.106 189.075 619.136 188.505H619.076C618.806 189.045 618.506 189.585 618.191 190.125L615.686 193.875ZM619.061 198V194.97H614.261V194.07L618.836 186.99H620.351V193.875H621.806V194.97H620.351V198H619.061ZM626.616 194.64H629.976V191.67H626.616V194.64ZM636.531 194.64V195.72H631.101V199.155H629.976V195.72H623.046V194.64H625.506V190.62H629.976V188.34H626.331C625.656 189.495 624.861 190.515 624.051 191.295C623.841 191.115 623.376 190.74 623.091 190.59C624.501 189.36 625.761 187.425 626.466 185.415L627.591 185.685C627.381 186.21 627.141 186.75 626.901 187.26H635.841V188.34H631.101V190.62H635.496V191.67H631.101V194.64H636.531Z" fill="black"/>
<rect x="567" y="185" width="14" height="14" fill="#BA533D"/>
<path d="M589.66 228V227.19C593.11 224.175 594.7 221.985 594.7 220.095C594.7 218.835 594.04 217.92 592.675 217.92C591.775 217.92 590.995 218.475 590.395 219.195L589.6 218.415C590.5 217.44 591.445 216.795 592.84 216.795C594.805 216.795 596.035 218.085 596.035 220.05C596.035 222.24 594.31 224.475 591.73 226.92C592.3 226.875 592.975 226.815 593.53 226.815H596.575V228H589.66ZM601.49 228.195C599.39 228.195 598.055 226.29 598.055 222.465C598.055 218.64 599.39 216.795 601.49 216.795C603.575 216.795 604.91 218.655 604.91 222.465C604.91 226.29 603.575 228.195 601.49 228.195ZM601.49 227.1C602.735 227.1 603.575 225.705 603.575 222.465C603.575 219.255 602.735 217.89 601.49 217.89C600.23 217.89 599.39 219.255 599.39 222.465C599.39 225.705 600.23 227.1 601.49 227.1ZM609.811 228.195C607.711 228.195 606.376 226.29 606.376 222.465C606.376 218.64 607.711 216.795 609.811 216.795C611.896 216.795 613.231 218.655 613.231 222.465C613.231 226.29 611.896 228.195 609.811 228.195ZM609.811 227.1C611.056 227.1 611.896 225.705 611.896 222.465C611.896 219.255 611.056 217.89 609.811 217.89C608.551 217.89 607.711 219.255 607.711 222.465C607.711 225.705 608.551 227.1 609.811 227.1ZM615.911 220.365C615.911 221.85 616.571 222.81 617.876 222.81C618.626 222.81 619.466 222.375 620.171 221.34C620.021 219.075 619.181 217.875 617.771 217.875C616.721 217.875 615.911 218.865 615.911 220.365ZM617.471 228.195C616.286 228.195 615.446 227.715 614.831 227.07L615.596 226.215C616.046 226.74 616.721 227.055 617.426 227.055C618.851 227.055 620.081 225.885 620.186 222.48C619.511 223.305 618.566 223.83 617.651 223.83C615.821 223.83 614.621 222.645 614.621 220.365C614.621 218.235 616.061 216.795 617.771 216.795C619.886 216.795 621.461 218.535 621.461 222.03C621.461 226.485 619.541 228.195 617.471 228.195ZM626.616 224.64H629.976V221.67H626.616V224.64ZM636.531 224.64V225.72H631.101V229.155H629.976V225.72H623.046V224.64H625.506V220.62H629.976V218.34H626.331C625.656 219.495 624.861 220.515 624.051 221.295C623.841 221.115 623.376 220.74 623.091 220.59C624.501 219.36 625.761 217.425 626.466 215.415L627.591 215.685C627.381 216.21 627.141 216.75 626.901 217.26H635.841V218.34H631.101V220.62H635.496V221.67H631.101V224.64H636.531Z" fill="black"/>
<rect x="567" y="215" width="14" height="14" fill="#FFA59B"/>
</svg>
