<svg width="494" height="112" viewBox="0 0 494 112" fill="none" xmlns="http://www.w3.org/2000/svg">
<path d="M38.95 39.0913H40.81C41.13 39.0913 41.37 38.8814 41.52 38.4615C41.67 38.0415 41.77 37.1318 41.84 35.7321C41.87 35.1122 42.16 34.6623 42.72 34.3624C43.01 34.2024 43.31 34.1224 43.6 34.1224C43.86 34.1224 44.12 34.1724 44.38 34.2724C45.16 34.6023 45.78 35.1022 46.24 35.7821C46.6 36.3319 46.78 36.9218 46.78 37.5417C46.78 37.7016 46.76 37.8516 46.73 37.9816C46.4 40.491 45.85 42.1906 45.07 43.1104C44.29 44.0202 43.08 44.4801 41.46 44.4801H37.94C35.69 44.4801 34.21 44.0002 33.5 43.0404C32.78 42.0807 32.43 40.2811 32.43 37.6416V28.2237C32.43 27.9938 32.3 27.8838 32.04 27.8838H30.18C29.92 27.8838 29.79 27.9938 29.79 28.2237C29.5 32.0629 28.81 35.2122 27.71 37.6716C26.62 40.1311 24.76 42.1506 22.12 43.7503C21.7 43.9802 21.26 44.0902 20.8 44.0902C20.51 44.0902 20.21 44.0402 19.92 43.9402C19.2 43.6803 18.59 43.2204 18.06 42.5705C17.77 42.1506 17.46 41.7607 17.13 41.4008C17.1 41.3308 17.04 41.3108 16.96 41.3308C16.88 41.3508 16.84 41.4008 16.84 41.5008C16.58 42.5705 16.04 43.3704 15.23 43.8903C14.38 44.4401 13.16 44.7801 11.57 44.92H11.33C10.65 44.92 10.03 44.6901 9.47 44.2402C8.82 43.7203 8.38 43.0304 8.15 42.1906V42.0907C8.08 41.8907 8.05 41.7007 8.05 41.5008C8.05 41.0809 8.2 40.671 8.49 40.2811C8.88 39.7312 9.4 39.4512 10.05 39.4512H10.98C11.5 39.4512 11.76 39.1713 11.76 38.6214V29.3935C11.76 29.1335 11.63 29.0036 11.37 29.0036H7.51C7.25 29.0036 7.12 29.1335 7.12 29.3935C6.73 34.6323 5.96 39.0413 4.83 42.6205C4.63 43.2704 4.2 43.6903 3.51 43.8903C3.28 43.9902 3.05 44.0402 2.83 44.0402C2.41 44.0402 2.02 43.9302 1.66 43.7003C1.01 43.3104 0.54 42.7705 0.24 42.0907C0.08 41.7007 0 41.3108 0 40.9209C0 40.591 0.05 40.291 0.15 39.9911C0.77 37.9416 1.25 35.5221 1.59 32.7427C1.93 29.9633 2.13 27.5839 2.2 25.6143C2.26 23.6447 2.3 21.2753 2.3 18.5159V3.50922C2.3 2.6994 2.58 2.00955 3.15 1.45968C3.72 0.909798 4.4 0.62986 5.18 0.62986H14.21C15.02 0.62986 15.71 0.909798 16.26 1.45968C16.81 2.00955 17.09 2.6994 17.09 3.50922V11.9573C17.09 12.0273 17.12 12.0673 17.19 12.1073C17.25 12.1373 17.32 12.1273 17.39 12.0573C19.15 10.4977 20.56 8.57809 21.64 6.2986C21.9 5.74872 22.31 5.31882 22.86 5.02888C23.25 4.82893 23.62 4.73895 23.98 4.73895C24.18 4.73895 24.37 4.75894 24.57 4.78894C24.77 4.85892 24.86 4.78894 24.86 4.58898V2.87936C24.86 2.09953 25.14 1.41968 25.69 0.849811C26.24 0.279938 26.93 0 27.74 0H36.29C37.14 0 37.91 0.249945 38.61 0.759831C39.31 1.25972 39.84 1.90958 40.2 2.6894C41.44 5.32882 42.98 7.6483 44.84 9.66785C45.26 10.1577 45.47 10.6976 45.47 11.2775V11.5174C45.4 12.2373 45.08 12.8072 44.49 13.2271C43.97 13.617 43.5 14.0069 43.07 14.3968C42.91 14.5568 42.83 14.7767 42.83 15.0267V24.9844C42.83 25.7643 42.54 26.4441 41.97 27.014C41.4 27.5839 40.73 27.8638 39.94 27.8638H38.48C38.22 27.8638 38.09 27.9738 38.09 28.2037V37.5817C38.09 38.2315 38.15 38.6514 38.26 38.8314C38.37 39.0113 38.61 39.1013 38.97 39.1013L38.95 39.0913ZM7.45 23.1249C7.45 23.3848 7.56 23.5148 7.79 23.5148H11.35C11.61 23.5148 11.74 23.3848 11.74 23.1249V17.7061C11.74 17.4761 11.61 17.3661 11.35 17.3661H7.83C7.6 17.3661 7.49 17.4761 7.49 17.7061V18.4859C7.49 20.5054 7.47 22.0451 7.44 23.1249H7.45ZM11.75 6.33859C11.75 6.07865 11.62 5.94868 11.36 5.94868H7.84C7.61 5.94868 7.5 6.07865 7.5 6.33859V11.6074C7.5 11.8374 7.61 11.9473 7.84 11.9473H11.36C11.62 11.9473 11.75 11.8374 11.75 11.6074V6.33859ZM17.36 14.1968C17.29 14.1369 17.23 14.1169 17.16 14.1469C17.09 14.1769 17.06 14.2468 17.06 14.3468V39.3913C17.06 39.4912 17.09 39.5512 17.16 39.5912C17.22 39.6212 17.29 39.6212 17.36 39.5912C19.67 38.4815 21.27 37.0418 22.15 35.2722C23.03 33.5026 23.57 31.1431 23.76 28.2137C23.76 27.9838 23.65 27.8738 23.42 27.8738C22.64 27.8738 21.98 27.5939 21.44 27.044C20.9 26.4941 20.63 25.8443 20.63 25.0944V16.6463C20.63 16.6463 20.61 16.6163 20.58 16.6463C20.45 16.7763 20.32 16.7563 20.19 16.5963C19.41 15.8465 18.46 15.0467 17.36 14.2068V14.1968ZM35.53 5.69873C35.43 5.46878 35.25 5.35881 34.99 5.35881H27.08V5.4088C27.41 5.47878 27.64 5.65874 27.79 5.96867C27.94 6.2786 27.94 6.57854 27.81 6.86847C26.93 8.75805 25.91 10.4977 24.73 12.0873C24.7 12.1573 24.7 12.2173 24.73 12.2873C24.76 12.3573 24.81 12.3872 24.88 12.3872H39.24C39.3 12.3872 39.35 12.3573 39.39 12.2873C39.42 12.2273 39.41 12.1773 39.34 12.1373C37.88 10.1877 36.61 8.03821 35.53 5.68874V5.69873ZM36.7 22.9849C36.96 22.9849 37.09 22.8549 37.09 22.595V17.7661C37.09 17.5361 36.96 17.4261 36.7 17.4261H26.35C26.09 17.4261 25.96 17.5361 25.96 17.7661V22.595C25.96 22.8549 26.09 22.9849 26.35 22.9849H36.7Z" fill="black"/>
<path d="M92.6099 33.5725C93.3299 33.5725 93.9399 33.8125 94.4399 34.3024C94.9399 34.7923 95.1999 35.3821 95.1999 36.082C95.1999 36.7818 94.9499 37.3817 94.4399 37.8916C93.9299 38.4015 93.3199 38.6514 92.6099 38.6514H76.1099C75.8499 38.6514 75.7199 38.7814 75.7199 39.0413V42.1206C75.7199 42.9305 75.4399 43.6203 74.8899 44.1702C74.3399 44.7201 73.6499 45 72.8399 45H72.4999C71.7199 45 71.0399 44.7201 70.4699 44.1702C69.8999 43.6203 69.6199 42.9305 69.6199 42.1206V39.0413C69.6199 38.7814 69.5099 38.6514 69.2799 38.6514H53.2199C52.4999 38.6514 51.8899 38.4015 51.3899 37.8916C50.8899 37.3917 50.6299 36.7818 50.6299 36.082C50.6299 35.3821 50.8799 34.7923 51.3899 34.3024C51.8899 33.8125 52.4999 33.5725 53.2199 33.5725H69.2799C69.5099 33.5725 69.6199 33.4426 69.6199 33.1826V31.323C69.6199 31.0631 69.5099 30.9331 69.2799 30.9331H58.2899C57.4799 30.9331 56.7899 30.6532 56.2399 30.1033C55.6899 29.5534 55.4099 28.8636 55.4099 28.0538V15.0667C55.4099 14.2868 55.6899 13.607 56.2399 13.0371C56.7899 12.4672 57.4799 12.1873 58.2899 12.1873H87.9799C88.7599 12.1873 89.4399 12.4772 90.0099 13.0371C90.5799 13.607 90.8599 14.2868 90.8599 15.0667V28.0538C90.8599 28.8636 90.5699 29.5534 90.0099 30.1033C89.4399 30.6532 88.7599 30.9331 87.9799 30.9331H76.1099C75.8499 30.9331 75.7199 31.0631 75.7199 31.323V33.1826C75.7199 33.4426 75.8499 33.5725 76.1099 33.5725H92.6099ZM68.5399 0.279938C69.3499 0.279938 70.0399 0.559875 70.5899 1.10975C71.1399 1.65963 71.4199 2.34948 71.4199 3.1593V7.35837C71.4199 8.16818 71.1399 8.85803 70.5899 9.40791C70.0399 9.95779 69.3499 10.2377 68.5399 10.2377H56.4799C55.6699 10.2377 54.9799 9.95779 54.4299 9.40791C53.8799 8.85803 53.5999 8.16818 53.5999 7.35837V3.1593C53.5999 2.34948 53.8799 1.65963 54.4299 1.10975C54.9799 0.559875 55.6699 0.279938 56.4799 0.279938H68.5399ZM65.5099 6.7285C65.7699 6.7285 65.8999 6.59853 65.8999 6.33859V4.18907C65.8999 3.92913 65.7699 3.79916 65.5099 3.79916H59.2599C58.9999 3.79916 58.8699 3.92913 58.8699 4.18907V6.33859C58.8699 6.59853 58.9999 6.7285 59.2599 6.7285H65.5099ZM61.5499 16.8363C61.2899 16.8363 61.1599 16.9462 61.1599 17.1762V19.0758C61.1599 19.3357 61.2899 19.4657 61.5499 19.4657H69.2599C69.4899 19.4657 69.5999 19.3357 69.5999 19.0758V17.1762C69.5999 16.9462 69.4899 16.8363 69.2599 16.8363H61.5499ZM61.1599 26.0542C61.1599 26.2842 61.2899 26.3941 61.5499 26.3941H69.2599C69.4899 26.3941 69.5999 26.2842 69.5999 26.0542V24.0547C69.5999 23.8247 69.4899 23.7147 69.2599 23.7147H61.5499C61.2899 23.7147 61.1599 23.8247 61.1599 24.0547V26.0542ZM89.5299 0.279938C90.3399 0.279938 91.0299 0.559875 91.5799 1.10975C92.1299 1.65963 92.4099 2.34948 92.4099 3.1593V7.35837C92.4099 8.16818 92.1299 8.85803 91.5799 9.40791C91.0299 9.95779 90.3399 10.2377 89.5299 10.2377H77.3699C76.5599 10.2377 75.8699 9.95779 75.3199 9.40791C74.7699 8.85803 74.4899 8.16818 74.4899 7.35837V3.1593C74.4899 2.34948 74.7699 1.65963 75.3199 1.10975C75.8699 0.559875 76.5599 0.279938 77.3699 0.279938H89.5299ZM84.3599 19.4657C84.6199 19.4657 84.7499 19.3357 84.7499 19.0758V17.1762C84.7499 16.9462 84.6199 16.8363 84.3599 16.8363H76.1099C75.8499 16.8363 75.7199 16.9462 75.7199 17.1762V19.0758C75.7199 19.3357 75.8499 19.4657 76.1099 19.4657H84.3599ZM84.3599 26.4041C84.6199 26.4041 84.7499 26.2942 84.7499 26.0642V24.0647C84.7499 23.8347 84.6199 23.7247 84.3599 23.7247H76.1099C75.8499 23.7247 75.7199 23.8347 75.7199 24.0647V26.0642C75.7199 26.2942 75.8499 26.4041 76.1099 26.4041H84.3599ZM86.4999 6.7285C86.7599 6.7285 86.8899 6.59853 86.8899 6.33859V4.18907C86.8899 3.92913 86.7599 3.79916 86.4999 3.79916H80.0999C79.8399 3.79916 79.7099 3.92913 79.7099 4.18907V6.33859C79.7099 6.59853 79.8399 6.7285 80.0999 6.7285H86.4999Z" fill="black"/>
<path d="M138.707 24.4959C140.412 22.7356 141.396 20.2644 141.168 17.5677C140.81 13.3089 137.369 9.8704 133.125 9.53202C130.419 9.31327 127.945 10.3284 126.195 12.075C124.452 10.3284 121.978 9.31327 119.272 9.52861C115.031 9.8704 111.59 13.3055 111.233 17.5642C111.005 20.261 111.985 22.7288 113.69 24.489L113.694 24.4959L123.554 34.3977C125.017 35.8674 127.386 35.8674 128.85 34.3977C128.85 34.3977 138.707 24.4959 138.71 24.4925L138.707 24.4959Z" fill="#FE7152"/>
<path d="M167.76 19.9807C167.76 20.0771 167.79 20.1445 167.86 20.1927C167.92 20.2409 168.01 20.2505 168.1 20.212L168.34 20.1156C168.73 19.9615 169.12 19.8844 169.51 19.8844C169.87 19.8844 170.24 19.9518 170.63 20.0771C171.41 20.3565 171.95 20.8574 172.24 21.58C172.53 22.1773 172.78 22.7457 172.97 23.2755C173.03 23.4971 173.07 23.7187 173.07 23.9306C173.07 24.21 173 24.5087 172.87 24.8266C172.61 25.2987 172.22 25.6551 171.7 25.9056C171.24 26.0983 170.79 26.079 170.33 25.8574C169.87 25.6358 169.56 25.289 169.4 24.8266C168.98 23.5742 168.47 22.3025 167.89 21.0116C167.89 20.9827 167.87 20.9634 167.82 20.9634C167.77 20.9634 167.75 20.9827 167.75 21.0116V27.6879C167.75 28.3141 167.52 28.8536 167.07 29.2871C166.62 29.7206 166.07 29.9422 165.43 29.9422C164.79 29.9422 164.25 29.7206 163.79 29.2871C163.33 28.8439 163.11 28.3141 163.11 27.6879V21.5222C163.11 21.5222 163.09 21.474 163.06 21.474C163.03 21.474 163.01 21.4933 163.01 21.5222C162.55 23.6513 161.94 25.5877 161.15 27.3121C160.92 27.7842 160.52 28.0829 159.93 28.2081C159.77 28.237 159.62 28.2563 159.49 28.2563C159.1 28.2563 158.74 28.1503 158.42 27.9287C157.93 27.6493 157.61 27.2351 157.44 26.7052C157.37 26.4836 157.34 26.262 157.34 26.0501C157.34 25.7322 157.4 25.4432 157.54 25.1542C157.93 24.2486 158.29 23.1792 158.61 21.9557C158.77 21.2042 159.18 20.6262 159.83 20.212C160.32 19.894 160.84 19.7399 161.39 19.7399C161.59 19.7399 161.78 19.7592 161.98 19.7881L162.71 19.9326C162.97 20 163.1 19.9037 163.1 19.6532V18.2466C163.1 18.0251 162.97 17.9191 162.71 17.9191L159.59 18.0636H159.44C158.92 18.0636 158.43 17.8902 157.98 17.5434C157.52 17.1676 157.26 16.6956 157.2 16.1368V15.9056C157.2 15.4335 157.36 15.0289 157.69 14.6821C158.05 14.2775 158.52 14.0752 159.11 14.0752H159.65C159.88 14.0752 160.07 13.9788 160.24 13.7958C160.76 13.2659 161.35 12.6012 162 11.8208C162.13 11.6281 162.11 11.4644 161.95 11.3006C161.07 10.5491 160.01 9.74953 158.78 8.90174C158.32 8.55492 158.05 8.12139 157.95 7.58189C157.92 7.45665 157.9 7.33141 157.9 7.20617C157.9 6.83045 158.01 6.474 158.24 6.12717L158.78 5.32756C158.98 5.10598 159.22 4.96147 159.51 4.8844C159.8 4.80733 160.08 4.86513 160.34 5.04818C160.4 5.07708 160.47 5.06744 160.54 5.00001C161.16 4.02698 161.73 3.04432 162.25 2.03276C162.58 1.46436 163.05 1.05974 163.67 0.809255C164 0.684015 164.32 0.616577 164.65 0.616577C164.94 0.616577 165.22 0.664747 165.48 0.761086C166.07 0.953764 166.44 1.31022 166.6 1.84008C166.66 2.03276 166.7 2.21581 166.7 2.40848C166.7 2.75531 166.6 3.06359 166.41 3.35261C165.34 4.8555 164.46 6.03084 163.77 6.87862C163.64 7.0713 163.67 7.24471 163.87 7.39885C164.16 7.62043 164.41 7.80347 164.6 7.96725C164.8 8.12139 164.96 8.09249 165.09 7.87091C165.42 7.42775 165.68 7.05203 165.87 6.74374C166.26 6.17534 166.78 5.79962 167.43 5.61658C167.69 5.52024 167.97 5.47207 168.26 5.47207C168.62 5.47207 168.98 5.53951 169.33 5.66475C169.88 5.88633 170.22 6.27168 170.36 6.84008C170.42 6.99423 170.46 7.158 170.46 7.31215C170.46 7.68787 170.31 8.03469 170.02 8.34297C168.29 10.4143 166.72 12.2158 165.28 13.7572C165.21 13.8247 165.2 13.8825 165.23 13.9499C165.26 14.0173 165.31 14.0463 165.38 14.0463L167.97 13.9981C168.1 13.9981 168.13 13.9403 168.07 13.8054C167.87 13.4586 167.84 13.1021 167.97 12.7264C168.1 12.3507 168.34 12.0809 168.7 11.9268L169.04 11.7823C169.53 11.5607 170.02 11.5222 170.53 11.6667C171.03 11.8112 171.43 12.1098 171.73 12.5819C172.32 13.5549 172.82 14.5087 173.24 15.4528C173.34 15.7033 173.39 15.9538 173.39 16.2042C173.39 16.4547 173.34 16.7052 173.24 16.9557C173.01 17.4567 172.64 17.8324 172.12 18.0829L171.53 18.3622C171.2 18.5164 170.88 18.526 170.55 18.3815C170.22 18.237 170 18.0154 169.87 17.6975C169.84 17.5723 169.76 17.5241 169.63 17.553L168.12 17.6493C167.89 17.6493 167.78 17.7746 167.78 18.0251V20L167.76 19.9807ZM164 42.842C163.41 43.343 162.76 43.5935 162.05 43.5935H161.85C161.04 43.526 160.32 43.2177 159.7 42.6493C159.21 42.2447 158.97 41.7437 158.97 41.1464C158.97 40.395 159.26 39.7399 159.85 39.1715C161.18 37.948 162.19 36.4162 162.88 34.5568C163.14 33.9017 163.58 33.4104 164.2 33.1021C164.59 32.8805 165 32.7746 165.42 32.7746C165.65 32.7746 165.88 32.8035 166.1 32.8709C166.82 33.0925 167.35 33.4971 167.71 34.0944C167.94 34.499 168.05 34.9133 168.05 35.3179C168.05 35.5395 168.02 35.7707 167.95 36.0212C167.04 38.9114 165.72 41.1753 163.99 42.842H164ZM178.35 39.5472H184.7C185.29 39.5472 185.72 39.4701 185.99 39.316C186.27 39.1619 186.47 38.8439 186.6 38.3719C186.76 37.8035 187.12 37.3796 187.67 37.1002C187.96 36.9461 188.27 36.869 188.6 36.869C188.83 36.869 189.07 36.8979 189.33 36.9653C190.08 37.2447 190.65 37.6879 191.04 38.2852C191.33 38.7283 191.48 39.1619 191.48 39.605C191.48 39.8266 191.46 40.0289 191.43 40.212C190.97 41.7823 190.28 42.8516 189.35 43.4297C188.42 44.0077 187.03 44.2967 185.18 44.2967H177.71C174.78 44.2967 172.82 43.8632 171.83 43.0058C170.84 42.1387 170.34 40.5395 170.34 38.1888V34.7592C170.34 34.0366 170.61 33.42 171.15 32.8998C171.69 32.3796 172.34 32.1195 173.1 32.1195C173.86 32.1195 174.52 32.3796 175.05 32.8998C175.58 33.42 175.86 34.0366 175.86 34.7592V38.1503C175.86 38.7765 176.01 39.1715 176.3 39.3256C176.59 39.4798 177.28 39.5568 178.35 39.5568V39.5472ZM199.93 17.6301C199.86 17.5048 199.78 17.4567 199.69 17.4856L197.54 17.5819C197.28 17.5819 197.15 17.7071 197.15 17.9576V27.6975C197.15 28.3237 196.92 28.8632 196.47 29.2967C196.01 29.7399 195.47 29.9518 194.83 29.9518C194.19 29.9518 193.66 29.7303 193.22 29.2967C192.78 28.8536 192.56 28.3237 192.56 27.6975V20.9249H192.46C191.97 22.9962 191.39 24.8266 190.7 26.4258C190.37 27.0809 189.84 27.5048 189.09 27.6975C188.83 27.7649 188.59 27.7938 188.36 27.7938C187.87 27.7938 187.4 27.6493 186.94 27.3699C186.74 27.2447 186.55 27.1484 186.35 27.0906C186.28 27.0328 186.25 27.0424 186.25 27.1387C186.25 27.4181 186.14 27.6686 185.93 27.8709C185.72 28.0732 185.47 28.1792 185.17 28.1792H182.58C182.38 28.1792 182.21 28.1118 182.07 27.9673C181.93 27.8227 181.85 27.6493 181.85 27.4278C181.85 27.3699 181.82 27.3314 181.75 27.3314H178.19C177.96 27.3314 177.85 27.4567 177.85 27.7071V27.7553C177.85 28.0058 177.96 28.1792 178.19 28.2755C180.63 29.3064 182.81 30.501 184.73 31.8497C185.35 32.2543 185.66 32.8227 185.66 33.5453C185.66 34.1715 185.42 34.7206 184.93 35.1927C184.44 35.6647 183.84 35.9152 183.12 35.9441H183.02C182.34 35.9441 181.72 35.7418 181.16 35.3372C179.83 34.3642 178.29 33.4104 176.57 32.4663C175.95 32.1195 175.59 31.6185 175.5 30.9634C175.47 30.8382 175.45 30.7129 175.45 30.5877C175.45 30.0578 175.66 29.5954 176.08 29.2197L176.86 28.4682C176.92 28.4393 176.94 28.3911 176.91 28.3237C176.88 28.2659 176.83 28.2274 176.76 28.2274H176.47C175.66 28.2274 174.97 27.9576 174.42 27.4085C173.87 26.8594 173.59 26.2042 173.59 25.4528V21.8305C173.59 21.079 173.87 20.4239 174.42 19.8748C174.97 19.3256 175.66 19.0559 176.47 19.0559H183.35C184.13 19.0559 184.81 19.3353 185.38 19.8748C185.95 20.4239 186.23 21.079 186.23 21.8305V25.8285C186.23 25.896 186.25 25.9249 186.3 25.9249C186.35 25.9249 186.37 25.9056 186.37 25.8767C186.96 24.8073 187.44 23.5453 187.83 22.0617C188.03 21.3102 188.45 20.7322 189.1 20.3179C189.59 20 190.09 19.8459 190.61 19.8459C190.81 19.8459 191.02 19.8651 191.24 19.894L192.17 20.0867C192.4 20.1542 192.51 20.0578 192.51 19.8073V18.2563C192.51 18.0347 192.38 17.9287 192.12 17.9287C190.95 17.9962 189.87 18.0347 188.9 18.0732H188.8C188.25 18.0732 187.74 17.8998 187.29 17.553C186.83 17.1773 186.57 16.7052 186.51 16.1464V15.9152C186.51 15.4432 186.67 15.0385 187 14.6917C187.36 14.2871 187.83 14.0848 188.42 14.0848H188.91C189.14 14.0848 189.33 14.0077 189.5 13.8536C190.09 13.2563 190.74 12.5723 191.45 11.7823C191.61 11.5896 191.6 11.4258 191.4 11.262C190.33 10.3179 188.99 9.316 187.4 8.25627C187.33 8.22737 187.3 8.237 187.3 8.30444C187.3 8.49712 187.23 8.66089 187.08 8.79577C186.93 8.93064 186.76 9.00771 186.57 9.00771H174.02C173.53 9.00771 173.12 8.84394 172.77 8.51639C172.42 8.18883 172.26 7.78421 172.26 7.31215C172.26 6.84008 172.43 6.44509 172.77 6.10791C173.11 5.77072 173.53 5.61658 174.02 5.61658H186.23C186.52 5.61658 186.77 5.72255 186.99 5.94413C187.2 6.16571 187.31 6.41619 187.31 6.69558C187.31 6.72448 187.34 6.74374 187.41 6.74374L188.39 5.28902C188.55 5.06744 188.78 4.93257 189.07 4.86513C189.36 4.80733 189.62 4.84586 189.85 5.00964C189.95 5.03854 190.01 5.02891 190.05 4.96147C190.73 3.95954 191.34 2.98652 191.86 2.0424C192.18 1.474 192.66 1.06937 193.28 0.818889C193.6 0.693648 193.93 0.626211 194.26 0.626211C194.55 0.626211 194.85 0.674381 195.14 0.77072C195.69 0.963398 196.05 1.31985 196.21 1.84972C196.27 2.0424 196.31 2.21581 196.31 2.36995C196.31 2.71677 196.19 3.04432 195.97 3.36224C194.93 4.80733 194.05 5.95376 193.33 6.79191C193.17 6.98459 193.18 7.158 193.38 7.31215C193.74 7.59153 194 7.79384 194.16 7.91908C194.36 8.07322 194.52 8.06359 194.65 7.87091C195.01 7.42775 195.32 7.02313 195.58 6.64741C196 6.079 196.52 5.70328 197.14 5.52024C197.43 5.46243 197.71 5.4239 197.97 5.4239C198.33 5.4239 198.68 5.49134 199.04 5.61658C199.59 5.86706 199.95 6.27168 200.11 6.84008C200.14 6.96532 200.16 7.10983 200.16 7.26398C200.16 7.6397 200.01 8.00579 199.72 8.34297C197.93 10.3854 196.25 12.1869 194.69 13.7572C194.66 13.8247 194.65 13.8825 194.66 13.9499C194.68 14.0173 194.72 14.0463 194.78 14.0463L197.76 13.9981C197.89 13.9981 197.92 13.9403 197.86 13.8054C197.63 13.4297 197.58 13.0251 197.71 12.6012C197.84 12.1773 198.12 11.869 198.54 11.6859L198.69 11.5896C198.98 11.4644 199.29 11.3969 199.62 11.3969C199.82 11.3969 200.01 11.4162 200.21 11.4451C200.76 11.5992 201.19 11.8979 201.48 12.341C202.16 13.343 202.75 14.3353 203.24 15.3083C203.37 15.5877 203.44 15.8863 203.44 16.2042C203.44 16.4258 203.39 16.657 203.29 16.9075C203.09 17.4085 202.74 17.8035 202.22 18.0829L201.68 18.3141C201.35 18.5068 201.01 18.526 200.65 18.3815C200.29 18.237 200.05 17.9962 199.92 17.6493L199.93 17.6301ZM184.26 10.3372C184.72 10.3372 185.1 10.4913 185.41 10.7804C185.72 11.079 185.87 11.4355 185.87 11.8401C185.87 12.2447 185.71 12.6012 185.41 12.8998C185.11 13.1985 184.72 13.343 184.26 13.343H175.62C175.2 13.343 174.83 13.1985 174.52 12.8998C174.21 12.6012 174.06 12.2543 174.06 11.8401C174.06 11.4258 174.21 11.079 174.52 10.7804C174.83 10.4817 175.19 10.3372 175.62 10.3372H184.26ZM175.62 17.7264C175.2 17.7264 174.83 17.5819 174.52 17.2832C174.21 16.9846 174.06 16.6281 174.06 16.2042C174.06 15.7804 174.21 15.4239 174.52 15.1252C174.83 14.8266 175.19 14.6821 175.62 14.6821H184.26C184.72 14.6821 185.1 14.8362 185.41 15.1252C185.72 15.4239 185.87 15.7804 185.87 16.2042C185.87 16.6281 185.71 16.9846 185.41 17.2832C185.11 17.5819 184.72 17.7264 184.26 17.7264H175.62ZM184.11 1.21388C184.57 1.21388 184.95 1.36802 185.26 1.65704C185.57 1.95569 185.72 2.31215 185.72 2.73604C185.72 3.15993 185.56 3.51638 185.26 3.81504C184.96 4.11369 184.57 4.2582 184.11 4.2582H175.71C175.29 4.2582 174.92 4.11369 174.61 3.81504C174.3 3.51638 174.15 3.15993 174.15 2.73604C174.15 2.31215 174.3 1.95569 174.61 1.65704C174.92 1.35839 175.28 1.21388 175.71 1.21388H184.11ZM177.86 23.8825C177.86 24.133 177.97 24.2582 178.2 24.2582H181.47C181.73 24.2582 181.86 24.133 181.86 23.8825V22.4759C181.86 22.2543 181.73 22.1484 181.47 22.1484H178.2C177.97 22.1484 177.86 22.2543 177.86 22.4759V23.8825ZM191.78 36.1657C191.39 35.79 191.19 35.3468 191.19 34.8459V34.5665C191.25 33.9403 191.57 33.4586 192.14 33.131C192.71 32.8035 193.3 32.6397 193.92 32.6397C194.05 32.6397 194.18 32.659 194.31 32.6879C195.09 32.7553 195.76 33.054 196.31 33.5838C198.46 35.5588 200.18 37.4566 201.49 39.2775C201.78 39.7206 201.93 40.1734 201.93 40.6455C201.93 40.896 201.9 41.1272 201.83 41.3488C201.63 42.1002 201.18 42.6782 200.46 43.0925C200.04 43.3141 199.6 43.42 199.14 43.42C198.88 43.42 198.63 43.3911 198.41 43.3237C197.69 43.131 197.12 42.7264 196.7 42.1002C195.43 40.183 193.79 38.2081 191.77 36.1753L191.78 36.1657ZM197.93 22.1965C197.73 21.7245 197.73 21.2524 197.93 20.79C198.13 20.3276 198.47 20.0096 198.96 19.8459C199.22 19.7206 199.48 19.6532 199.74 19.6532C200 19.6532 200.24 19.7014 200.47 19.7977C200.99 19.9904 201.38 20.3276 201.64 20.8285C202.29 22.1773 202.86 23.4586 203.35 24.6821C203.45 24.9037 203.5 25.1349 203.5 25.3854C203.5 25.6647 203.43 25.9538 203.3 26.2331C203.04 26.763 202.63 27.1387 202.08 27.3603C201.85 27.4856 201.62 27.553 201.37 27.553C201.12 27.553 200.87 27.4952 200.61 27.3603C200.09 27.1387 199.75 26.7823 199.58 26.2813C199.09 24.9615 198.54 23.6031 197.92 22.1869L197.93 22.1965Z" fill="black"/>
<path d="M215.02 15.4624C214.76 15.4624 214.63 15.5877 214.63 15.8381V17.158C214.63 17.9094 214.36 18.5549 213.82 19.0848C213.28 19.6146 212.62 19.8844 211.84 19.8844C211.06 19.8844 210.39 19.6146 209.84 19.0848C209.29 18.5549 209.01 17.9094 209.01 17.158V13.8632C209.01 13.1117 209.29 12.4566 209.84 11.9075C210.39 11.3584 211.08 11.0886 211.89 11.0886H217.21C217.31 11.0886 217.38 11.0597 217.43 10.9923C217.48 10.9345 217.49 10.8478 217.45 10.7611C216.86 9.6339 216.16 8.50673 215.35 7.36993C215.15 7.09055 215.22 6.88824 215.55 6.763V6.71483C214.77 6.74373 214.18 6.763 213.79 6.763H213.69C213.1 6.763 212.58 6.57032 212.13 6.1946C211.64 5.81887 211.3 5.31791 211.1 4.69171C210.97 4.19074 211.06 3.71868 211.37 3.28516C211.68 2.842 212.09 2.63005 212.62 2.63005C225.09 2.31213 235.1 1.57995 242.65 0.423884C243.01 0.366081 243.35 0.327545 243.68 0.327545C245.11 0.327545 246.35 0.828508 247.39 1.83044C247.68 2.10982 247.83 2.43737 247.83 2.82273C247.83 2.94797 247.8 3.09248 247.73 3.24662C247.57 3.81502 247.19 4.14257 246.61 4.23891C245.63 4.39306 244.54 4.56647 243.34 4.75914C243.27 4.75914 243.24 4.77841 243.24 4.82658C243.24 4.87475 243.26 4.89402 243.29 4.89402L244.71 5.31791C245.39 5.53949 245.85 5.96338 246.08 6.58959C246.14 6.84007 246.18 7.07128 246.18 7.29286C246.18 7.66859 246.05 8.04431 245.79 8.42003C245.14 9.29672 244.52 10.0963 243.93 10.8189C243.9 10.8863 243.9 10.9441 243.93 11.0116C243.96 11.079 244.01 11.1079 244.08 11.1079H248.87C249.68 11.1079 250.37 11.3873 250.92 11.9268C251.47 12.4759 251.75 13.131 251.75 13.8825V17.7842C251.75 18.5356 251.47 19.1907 250.92 19.7399C250.37 20.289 249.68 20.5588 248.87 20.5588H247.31C247.24 20.5588 247.2 20.5877 247.19 20.6551C247.17 20.7225 247.19 20.7611 247.21 20.7996C247.67 21.2042 248.09 21.6185 248.48 22.0231C248.9 22.4663 249.11 22.9672 249.11 23.526C249.11 23.6512 249.09 23.7572 249.06 23.8536C248.96 24.5761 248.62 25.1349 248.03 25.5491C247.57 25.8959 247.07 26.0694 246.52 26.0694C246.39 26.0694 246.24 26.0501 246.08 26.0212C245.4 25.9248 244.81 25.5973 244.32 25.0289C243.15 23.6801 241.75 22.3121 240.12 20.9345C239.7 20.5588 239.49 20.0867 239.49 19.5279C239.49 18.9017 239.75 18.4104 240.27 18.0732C240.82 17.6686 241.46 17.4663 242.17 17.4663H242.22C242.97 17.4952 243.62 17.736 244.17 18.1695C244.59 18.5164 245.06 18.9114 245.59 19.3449C245.62 19.3738 245.67 19.3738 245.74 19.3449C245.8 19.316 245.84 19.2678 245.84 19.2004V15.8574C245.84 15.6069 245.73 15.4817 245.5 15.4817H232.61C232.61 15.4817 232.55 15.501 232.54 15.5491C232.52 15.5973 232.54 15.6358 232.56 15.6647C233.02 15.8863 233.44 16.1175 233.83 16.368C234.42 16.7148 234.71 17.2351 234.71 17.9191C234.71 18.3911 234.53 18.815 234.17 19.1907C233.75 19.6339 233.23 19.8844 232.61 19.9422H232.37C231.85 19.9422 231.36 19.788 230.91 19.4701C229.7 18.6898 228.35 17.948 226.86 17.264C226.57 17.1098 226.38 16.8593 226.3 16.5125C226.22 16.1657 226.3 15.867 226.57 15.6166C226.54 15.5202 226.5 15.4721 226.47 15.4721H215.04L215.02 15.4624ZM238.8 28.3044C240.43 28.3044 241.78 28.632 242.85 29.2967C243.37 29.6146 243.68 30.0482 243.78 30.6166C243.81 30.7418 243.83 30.867 243.83 30.9923C243.83 31.3969 243.7 31.7726 243.44 32.1194C241.75 34.1907 239.63 36.0116 237.09 37.5722C237.06 37.6397 237.04 37.6975 237.04 37.7649C237.04 37.8324 237.07 37.8613 237.14 37.8613C241.01 38.7669 245.41 39.4027 250.32 39.7399C250.91 39.7688 251.33 40.0578 251.59 40.5877C251.69 40.8381 251.74 41.0694 251.74 41.2909C251.74 41.5703 251.66 41.8593 251.5 42.1387C251.4 42.2929 251.3 42.4374 251.21 42.5626C250.72 43.3141 250.1 43.8825 249.35 44.2582C248.73 44.605 248.08 44.7784 247.4 44.7784C247.27 44.7784 247.12 44.7591 246.96 44.7302C240.68 44.0077 235.22 42.7842 230.6 41.0597C230.37 40.9634 230.14 40.9634 229.92 41.0597C225.36 42.6879 220.01 43.9114 213.86 44.7302C213.7 44.7591 213.52 44.7784 213.32 44.7784C212.7 44.7784 212.08 44.6243 211.46 44.3063C210.71 43.9017 210.11 43.3333 209.65 42.6108H209.6C209.44 42.3314 209.36 42.0327 209.36 41.7148C209.36 41.4932 209.41 41.262 209.51 41.0116C209.77 40.4817 210.21 40.183 210.83 40.1156C215.75 39.6724 220.09 38.9692 223.87 37.9961C223.93 37.9672 223.98 37.9191 223.99 37.8516C224.01 37.7938 223.99 37.7457 223.92 37.7071C222.46 36.763 221.14 35.7803 219.96 34.7399C219.8 34.5857 219.6 34.5472 219.37 34.6435C218.07 35.3372 216.83 35.9441 215.66 36.474C215.14 36.6956 214.62 36.8015 214.1 36.8015C213.81 36.8015 213.53 36.7726 213.27 36.7052C212.42 36.5125 211.69 36.1272 211.07 35.5299C210.74 35.2119 210.58 34.8362 210.58 34.4027V34.027C210.71 33.4586 211.07 33.0732 211.65 32.8516C216.83 31.0019 220.89 28.6994 223.86 25.9345C223.89 25.8767 223.9 25.7996 223.88 25.7225C223.86 25.6455 223.82 25.5877 223.76 25.5588C222.82 25.2408 222.17 24.7302 221.83 24.0077C221.49 23.2852 221.32 22.2543 221.32 20.9056V20.2023C221.32 19.4798 221.58 18.8632 222.1 18.343C222.62 17.8227 223.26 17.5626 224.03 17.5626C224.8 17.5626 225.44 17.8227 225.96 18.343C226.48 18.8632 226.74 19.4798 226.74 20.2023V20.9056C226.74 21.4354 226.86 21.7726 227.11 21.9171C227.36 22.0616 227.9 22.1291 228.75 22.1291H234.02C234.7 22.1291 235.14 21.9749 235.34 21.657C235.86 20.9056 236.43 20.5299 237.05 20.5299C237.21 20.5299 237.38 20.5588 237.54 20.6262C237.67 20.6551 237.82 20.7033 237.98 20.7707C238.66 20.9923 239.18 21.368 239.54 21.8979C239.77 22.2447 239.88 22.5915 239.88 22.9287C239.88 23.1503 239.83 23.3719 239.73 23.5838C239.34 24.5279 238.75 25.1734 237.97 25.5395C237.19 25.9056 236.08 26.079 234.65 26.079H230.11C230.27 26.1464 230.29 26.2331 230.16 26.3584C229.64 26.9846 229.13 27.553 228.65 28.0539C228.62 28.0828 228.61 28.131 228.63 28.1984C228.65 28.2659 228.69 28.2948 228.75 28.2948H238.81L238.8 28.3044ZM216.58 26.0019C216.03 26.474 215.37 26.7052 214.63 26.7052H214.53C213.78 26.7052 213.08 26.4547 212.43 25.9537C211.97 25.578 211.75 25.106 211.75 24.5472C211.75 23.8921 212.03 23.343 212.58 22.8998C213.72 21.9557 214.71 20.8574 215.56 19.605C215.95 19.0366 216.45 18.6512 217.07 18.4297C217.36 18.3333 217.67 18.2852 218 18.2852C218.33 18.2852 218.65 18.3526 218.98 18.4778C219.6 18.7283 220.02 19.1522 220.25 19.7495C220.35 20 220.4 20.2505 220.4 20.501C220.4 20.8478 220.32 21.1753 220.16 21.4932C219.12 23.2852 217.93 24.788 216.6 26.0116L216.58 26.0019ZM221.76 11.0405C221.76 11.0405 221.78 11.0886 221.81 11.0886H228.01C228.07 11.0886 228.14 11.0597 228.21 10.9923C228.28 10.9248 228.29 10.8478 228.26 10.7611C227.8 9.44122 227.14 8.04431 226.26 6.57032C226.13 6.37764 225.93 6.29094 225.67 6.29094L221.32 6.57032C221.25 6.57032 221.2 6.59922 221.15 6.66666C221.1 6.7341 221.11 6.7919 221.17 6.85934C221.76 7.70712 222.23 8.47783 222.59 9.16184C222.75 9.53756 222.75 9.90365 222.59 10.2697C222.43 10.6358 222.15 10.8863 221.76 11.0501V11.0405ZM235.77 32.4952C235.83 32.4374 235.85 32.3796 235.82 32.3314C235.79 32.2832 235.74 32.264 235.67 32.264H224.49C224.42 32.264 224.38 32.2832 224.34 32.3314C224.31 32.3796 224.32 32.4181 224.39 32.447C225.89 33.6127 227.76 34.6724 230.01 35.6455C230.24 35.7418 230.47 35.7225 230.69 35.5973C232.64 34.6917 234.34 33.6512 235.77 32.4952ZM231.28 11.0019C231.28 11.0694 231.3 11.0983 231.33 11.0983H237.48C237.74 11.0983 237.94 11.0019 238.07 10.8189C239.18 9.12331 240.2 7.29286 241.15 5.31791C241.18 5.26011 241.17 5.19267 241.13 5.12523C241.08 5.06743 241.02 5.02889 240.96 5.02889C238.88 5.27938 235.9 5.57803 232.02 5.92485C231.95 5.92485 231.9 5.96338 231.85 6.04045C231.8 6.11753 231.79 6.1946 231.83 6.2524C232.19 6.8208 232.5 7.36993 232.76 7.8998C232.92 8.21772 233 8.51637 233 8.81502C233 9.11367 232.92 9.42196 232.76 9.73024C232.47 10.3275 231.98 10.7514 231.3 11.0019H231.28Z" fill="black"/>
<path d="M271.571 9.53757C273.431 9.53757 274.631 9.58574 275.181 9.68208C275.671 9.74951 276.071 9.97109 276.401 10.3661C276.731 10.7611 276.871 11.2042 276.841 11.7052C276.221 19.4798 274.901 25.8767 272.881 30.8959C272.781 31.1175 272.831 31.3006 273.031 31.4643C274.271 32.4374 275.321 33.343 276.201 34.1907C276.851 34.788 277.181 35.5202 277.181 36.3969C277.181 37.1773 276.941 37.8709 276.451 38.4682L276.301 38.6609C275.881 39.1907 275.311 39.4798 274.591 39.5087H274.491C273.811 39.5087 273.221 39.2582 272.731 38.7572C272.081 38.1021 271.311 37.3603 270.441 36.5511C270.241 36.3969 270.081 36.4065 269.951 36.5992C268.131 39.3256 265.951 41.6474 263.411 43.5645C262.951 43.8825 262.471 44.0366 261.951 44.0366C261.751 44.0366 261.561 44.0173 261.361 43.9884C260.581 43.8343 259.961 43.4393 259.501 42.8131C259.471 42.7457 259.431 42.7071 259.401 42.6686C259.041 42.2254 258.861 41.7437 258.861 41.2139C258.861 41.0597 258.881 40.9152 258.911 40.79C259.011 40.0963 259.351 39.5376 259.941 39.0944C262.061 37.5626 263.901 35.5202 265.461 32.9769C265.591 32.7842 265.561 32.6204 265.361 32.4566C264.841 32.052 264.091 31.5029 263.111 30.8092C263.011 30.7514 262.951 30.7803 262.911 30.9056C262.811 31.2235 262.601 31.4451 262.281 31.5896C261.951 31.7341 261.631 31.7245 261.301 31.5703L260.131 31.0019C259.411 30.6262 258.891 30.0963 258.571 29.4027C258.371 28.9595 258.281 28.5067 258.281 28.0347C258.281 27.7553 258.311 27.4663 258.381 27.1869C259.231 23.9595 260.151 19.9422 261.161 15.1445C261.221 14.9229 261.131 14.817 260.871 14.817H260.091C259.341 14.817 258.701 14.5568 258.161 14.0366C257.621 13.5164 257.351 12.8998 257.351 12.1773C257.351 11.4547 257.621 10.8381 258.161 10.3179C258.701 9.79768 259.341 9.53757 260.091 9.53757H261.951C262.181 9.53757 262.321 9.43159 262.391 9.21001C262.851 6.763 263.241 4.58574 263.561 2.66859C263.691 1.94605 264.061 1.34874 264.681 0.876681C265.231 0.472057 265.851 0.269745 266.541 0.269745H266.781C267.561 0.337182 268.181 0.645467 268.641 1.21387C269.001 1.68593 269.181 2.18689 269.181 2.71676C269.181 2.842 269.161 2.99614 269.131 3.18882C268.771 5.06743 268.361 7.08092 267.911 9.21001C267.881 9.43159 267.991 9.53757 268.251 9.53757H271.571ZM270.981 15.183C271.011 14.9326 270.901 14.8073 270.641 14.8073H267.081C266.821 14.8073 266.671 14.9133 266.641 15.1349C266.091 17.8035 265.341 21.0983 264.391 25.0096C264.321 25.2312 264.411 25.4046 264.631 25.5299C266.221 26.5607 267.251 27.2351 267.711 27.553C267.911 27.7071 268.051 27.659 268.151 27.4085C269.421 24.0559 270.361 19.9807 270.981 15.1734V15.183ZM300.961 19.0462C301.741 19.0462 302.401 19.316 302.941 19.8459C303.481 20.3757 303.751 21.0116 303.751 21.7534C303.751 22.4952 303.481 23.1214 302.941 23.6609C302.401 24.1907 301.741 24.4605 300.961 24.4605H293.101C292.871 24.4605 292.761 24.5665 292.761 24.788V38.5742C292.761 40.0771 292.581 41.2331 292.221 42.0327C291.861 42.8324 291.211 43.4489 290.271 43.8921C288.971 44.4605 287.151 44.788 284.801 44.8844C284.731 44.9133 284.691 44.9326 284.651 44.9326C283.871 44.9326 283.171 44.7013 282.551 44.2293C281.871 43.7283 281.381 43.0636 281.091 42.2543C281.021 42.1291 280.981 41.9846 280.941 41.8304C280.841 41.6089 280.791 41.3776 280.791 41.1272C280.791 40.8092 280.891 40.4817 281.081 40.1349C281.441 39.6339 281.941 39.3834 282.591 39.3834H282.641C283.491 39.4123 284.191 39.4316 284.741 39.4316C285.201 39.4316 285.541 39.4123 285.771 39.3834C286.191 39.3834 286.481 39.3256 286.621 39.2196C286.771 39.1137 286.841 38.8825 286.841 38.5356V24.7977C286.841 24.5761 286.731 24.4701 286.501 24.4701H279.081C278.331 24.4701 277.681 24.2004 277.131 23.6705C276.581 23.1406 276.301 22.5048 276.301 21.763C276.301 21.0212 276.581 20.395 277.131 19.8555C277.681 19.316 278.331 19.0559 279.081 19.0559H286.501C286.731 19.0559 286.841 18.9499 286.841 18.7283V15.0578C286.841 14.6146 287.001 14.2389 287.331 13.9306C287.661 13.6223 288.051 13.4586 288.501 13.4586C288.631 13.4586 288.741 13.4104 288.841 13.3141C290.401 11.7437 291.881 9.97109 293.281 7.99614C293.311 7.93834 293.311 7.8709 293.281 7.80346C293.251 7.74566 293.201 7.70712 293.131 7.70712H280.681C279.931 7.70712 279.291 7.44701 278.751 6.92678C278.211 6.40655 277.941 5.78034 277.941 5.04816C277.941 4.31599 278.211 3.68015 278.751 3.16955C279.291 2.65895 279.931 2.38921 280.681 2.38921H297.331C297.431 2.38921 297.531 2.36994 297.621 2.34104C297.851 2.28323 298.061 2.2447 298.251 2.2447C298.741 2.2447 299.181 2.38921 299.571 2.66859L300.641 3.4682C301.191 3.87283 301.521 4.39306 301.621 5.01926C301.651 5.17341 301.671 5.31791 301.671 5.44315C301.671 5.94412 301.511 6.39691 301.181 6.81117C298.411 10.5106 295.681 13.6031 292.981 16.079C292.821 16.2331 292.741 16.4258 292.741 16.6474V18.7187C292.741 18.9403 292.851 19.0462 293.081 19.0462H300.941H300.961Z" fill="black"/>
<path d="M351.06 37.5241C351.81 37.5241 352.44 37.7842 352.96 38.3044C353.48 38.8247 353.74 39.4412 353.74 40.1638C353.74 40.8863 353.48 41.4933 352.96 41.9942C352.44 42.4952 351.8 42.7457 351.06 42.7457H338.07C337.91 42.7457 337.83 42.8227 337.83 42.9769C337.83 43.5453 337.63 44.0173 337.22 44.4123C336.81 44.8073 336.32 45 335.73 45H335.14C334.39 45 333.76 44.7495 333.24 44.2486C332.72 43.7476 332.46 43.131 332.46 42.4181V20.4528C332.46 20.4528 332.41 20.4239 332.41 20.4528C332.28 20.6069 332.1 20.6936 331.87 20.7129C331.64 20.7322 331.45 20.6744 331.28 20.5491C330.73 19.9807 330.07 19.422 329.33 18.8536C329.26 18.7958 329.2 18.7765 329.13 18.8054C329.06 18.8343 329.03 18.8825 329.03 18.9499V19.7013C329.03 20.4528 328.75 21.1079 328.2 21.657C327.65 22.2062 326.96 22.4759 326.15 22.4759H321.9C321.67 22.4759 321.56 22.5819 321.56 22.8035V23.9788C321.56 24.2293 321.67 24.3545 321.9 24.3545H326.93C327.52 24.3545 328.02 24.5568 328.44 24.9615C328.86 25.3661 329.07 25.867 329.07 26.4451C329.07 27.0231 328.86 27.5241 328.44 27.9287C328.02 28.3333 327.51 28.5356 326.93 28.5356H321.9C321.67 28.5356 321.56 28.6416 321.56 28.8632C321.56 29.4316 321.54 29.8651 321.51 30.183C321.51 30.4335 321.62 30.5588 321.85 30.5588H328C328.65 30.5588 329.2 30.7803 329.66 31.2139C330.12 31.657 330.34 32.1773 330.34 32.7938C330.34 33.4104 330.11 33.9306 329.66 34.3738C329.21 34.817 328.65 35.0289 328 35.0289H321.46C321.46 35.0289 321.4 35.0482 321.39 35.0963C321.37 35.1445 321.39 35.183 321.41 35.2119C323.33 36.2428 325.33 37.3796 327.42 38.6031C328.07 38.9788 328.48 39.5472 328.64 40.2986C328.67 40.4913 328.69 40.6647 328.69 40.8189C328.69 41.3487 328.53 41.8497 328.2 42.3218L328.1 42.4663C327.64 43.0636 327.04 43.4104 326.29 43.4971H325.9C325.28 43.4971 324.73 43.3044 324.24 42.9287C322.48 41.5511 320.71 40.2312 318.92 38.9788C318.72 38.8536 318.56 38.8825 318.43 39.0751C317.03 40.9923 315.09 42.6204 312.62 43.9692C312.16 44.1908 311.69 44.2967 311.2 44.2967C310.94 44.2967 310.7 44.2678 310.47 44.2004C309.72 44.0077 309.09 43.6223 308.57 43.025C308.21 42.6782 308.03 42.2736 308.03 41.8015C308.03 41.7052 308.05 41.5992 308.08 41.474C308.18 40.8767 308.5 40.4432 309.06 40.1541C311.44 38.9017 313.21 37.3025 314.38 35.3565C314.41 35.2601 314.4 35.183 314.36 35.1252C314.31 35.0674 314.25 35.0289 314.19 35.0289H309.36C308.74 35.0289 308.2 34.8073 307.75 34.3738C307.29 33.9306 307.07 33.4104 307.07 32.7938C307.07 32.1773 307.3 31.657 307.75 31.2139C308.2 30.7707 308.74 30.5588 309.36 30.5588H315.61C315.84 30.5588 315.97 30.4335 316 30.183C316.03 29.6532 316.05 29.21 316.05 28.8632C316.05 28.6416 315.94 28.5356 315.71 28.5356H311.02C310.43 28.5356 309.93 28.3333 309.51 27.9287C309.09 27.5241 308.88 27.0231 308.88 26.4451C308.88 25.867 309.09 25.3757 309.51 24.9615C309.93 24.5472 310.44 24.3545 311.02 24.3545H315.71C315.94 24.3545 316.05 24.2293 316.05 23.9788V22.8035C316.05 22.5819 315.94 22.4759 315.71 22.4759H311.56C310.75 22.4759 310.06 22.2062 309.51 21.657C308.96 21.1079 308.68 20.4528 308.68 19.7013V14.4798C308.68 13.6994 308.96 13.0347 309.51 12.5048C310.06 11.975 310.75 11.7052 311.56 11.7052H326.16C326.97 11.7052 327.66 11.975 328.21 12.5048C328.76 13.0347 329.04 13.6994 329.04 14.4798V15.0867C329.04 15.1541 329.07 15.183 329.14 15.183C329.21 15.183 329.24 15.1638 329.24 15.1349C331.42 11.8112 333.26 7.63969 334.76 2.62042C334.99 1.89788 335.44 1.33911 336.13 0.924855C336.59 0.645472 337.07 0.500963 337.59 0.500963C337.82 0.500963 338.03 0.529865 338.22 0.597302C338.97 0.751445 339.54 1.14644 339.93 1.77264C340.19 2.17726 340.32 2.60116 340.32 3.04432C340.32 3.2659 340.29 3.49711 340.22 3.74759C339.7 5.37572 339.11 6.99422 338.46 8.59345C338.46 8.68979 338.48 8.76686 338.53 8.82466C338.58 8.8921 338.64 8.921 338.7 8.921H341.78C342.04 8.921 342.2 8.81503 342.27 8.59345C342.95 6.93642 343.59 5.11561 344.17 3.14065C344.4 2.38921 344.85 1.81118 345.54 1.39692C346.03 1.11753 346.53 0.973025 347.05 0.973025C347.25 0.973025 347.47 1.00193 347.73 1.06936H347.78C348.53 1.26204 349.08 1.66667 349.44 2.29287C349.67 2.66859 349.78 3.04432 349.78 3.42004C349.78 3.69942 349.71 3.99807 349.58 4.31599C348.9 6.01156 348.29 7.43738 347.77 8.59345C347.74 8.68979 347.75 8.76686 347.79 8.82466C347.84 8.8921 347.91 8.921 348.01 8.921H350.6C351.32 8.921 351.93 9.17148 352.46 9.67245C352.98 10.1734 353.24 10.7803 353.24 11.4836C353.24 12.1869 352.98 12.7938 352.46 13.2948C351.94 13.7958 351.32 14.0462 350.6 14.0462H347.77C347.51 14.0462 347.38 14.1522 347.38 14.3738V18.1407C347.38 18.3911 347.51 18.5164 347.77 18.5164H350.36C351.04 18.5164 351.63 18.7476 352.12 19.2197C352.61 19.6917 352.85 20.2505 352.85 20.9152C352.85 21.58 352.61 22.1387 352.12 22.6108C351.63 23.0828 351.05 23.3141 350.36 23.3141H347.77C347.51 23.3141 347.38 23.4393 347.38 23.6898V27.5915C347.38 27.842 347.51 27.9672 347.77 27.9672H350.36C351.04 27.9672 351.63 28.1985 352.12 28.6705C352.61 29.1426 352.85 29.7013 352.85 30.3661C352.85 31.0308 352.61 31.5896 352.12 32.0617C351.63 32.5337 351.05 32.7649 350.36 32.7649H347.77C347.51 32.7649 347.38 32.8902 347.38 33.1407V37.1869C347.38 37.4085 347.51 37.5145 347.77 37.5145H351.04L351.06 37.5241ZM313.8 10.8092C313.18 10.8092 312.64 10.5877 312.19 10.1541C311.73 9.71098 311.51 9.20038 311.51 8.60308C311.51 8.4104 311.41 8.3237 311.22 8.3237H309.76C309.14 8.3237 308.6 8.10212 308.15 7.66859C307.69 7.22543 307.47 6.7052 307.47 6.08863C307.47 5.47206 307.7 4.96146 308.15 4.53757C308.61 4.11368 309.14 3.90173 309.76 3.90173H311.13C311.39 3.90173 311.52 3.77649 311.52 3.52601V2.44701C311.52 1.79191 311.77 1.21387 312.28 0.732177C312.79 0.250482 313.39 0 314.11 0C314.83 0 315.43 0.240848 315.92 0.732177C316.41 1.21387 316.65 1.79191 316.65 2.44701V3.52601C316.65 3.77649 316.78 3.90173 317.04 3.90173H321C321.26 3.90173 321.39 3.77649 321.39 3.52601V2.44701C321.39 1.75337 321.63 1.17534 322.12 0.703276C322.61 0.231214 323.21 0 323.93 0C324.65 0 325.25 0.231214 325.74 0.703276C326.23 1.17534 326.47 1.75337 326.47 2.44701V3.52601C326.47 3.77649 326.6 3.90173 326.86 3.90173H328.13C328.75 3.90173 329.29 4.11368 329.74 4.53757C330.2 4.96146 330.42 5.48169 330.42 6.08863C330.42 6.69557 330.19 7.22543 329.74 7.66859C329.29 8.11175 328.75 8.3237 328.13 8.3237H326.76C326.56 8.3237 326.47 8.42004 326.47 8.60308C326.47 9.20038 326.24 9.72062 325.79 10.1541C325.34 10.5877 324.8 10.8092 324.18 10.8092H323.69C323.04 10.8092 322.49 10.5877 322.05 10.1541C321.61 9.71098 321.39 9.20038 321.39 8.60308C321.39 8.4104 321.29 8.3237 321.1 8.3237H316.95C316.75 8.3237 316.66 8.42004 316.66 8.60308C316.66 9.20038 316.44 9.72062 316 10.1541C315.56 10.5973 315.01 10.8092 314.36 10.8092H313.82H313.8ZM313.46 15.3276C313.23 15.3276 313.12 15.4528 313.12 15.7033V18.4297C313.12 18.6513 313.23 18.7572 313.46 18.7572H315.95C316.18 18.7572 316.29 18.6513 316.29 18.4297V15.7033C316.29 15.4528 316.18 15.3276 315.95 15.3276H313.46ZM324.01 18.7572C324.24 18.7572 324.35 18.6513 324.35 18.4297V15.7033C324.35 15.4528 324.24 15.3276 324.01 15.3276H321.42C321.19 15.3276 321.08 15.4528 321.08 15.7033V18.4297C321.08 18.6513 321.19 18.7572 321.42 18.7572H324.01ZM341.73 18.526C341.99 18.526 342.12 18.4008 342.12 18.1503V14.3834C342.12 14.1618 341.99 14.0559 341.73 14.0559H338.17C337.94 14.0559 337.83 14.1618 337.83 14.3834V18.1503C337.83 18.4008 337.94 18.526 338.17 18.526H341.73ZM341.73 27.9769C341.99 27.9769 342.12 27.8516 342.12 27.6012V23.6994C342.12 23.4489 341.99 23.3237 341.73 23.3237H338.17C337.94 23.3237 337.83 23.4489 337.83 23.6994V27.6012C337.83 27.8516 337.94 27.9769 338.17 27.9769H341.73ZM338.17 32.7746C337.94 32.7746 337.83 32.8998 337.83 33.1503V37.1965C337.83 37.4181 337.94 37.5241 338.17 37.5241H341.73C341.99 37.5241 342.12 37.4181 342.12 37.1965V33.1503C342.12 32.8998 341.99 32.7746 341.73 32.7746H338.17Z" fill="black"/>
<path d="M371.571 9.53757C373.431 9.53757 374.631 9.58574 375.181 9.68208C375.671 9.74951 376.071 9.97109 376.401 10.3661C376.731 10.7611 376.871 11.2042 376.841 11.7052C376.221 19.4798 374.901 25.8767 372.881 30.8959C372.781 31.1175 372.831 31.3006 373.031 31.4643C374.271 32.4374 375.321 33.343 376.201 34.1907C376.851 34.788 377.181 35.5202 377.181 36.3969C377.181 37.1773 376.941 37.8709 376.451 38.4682L376.301 38.6609C375.881 39.1907 375.311 39.4798 374.591 39.5087H374.491C373.811 39.5087 373.221 39.2582 372.731 38.7572C372.081 38.1021 371.311 37.3603 370.441 36.5511C370.241 36.3969 370.081 36.4065 369.951 36.5992C368.131 39.3256 365.951 41.6474 363.411 43.5645C362.951 43.8825 362.471 44.0366 361.951 44.0366C361.751 44.0366 361.561 44.0173 361.361 43.9884C360.581 43.8343 359.961 43.4393 359.501 42.8131C359.471 42.7457 359.431 42.7071 359.401 42.6686C359.041 42.2254 358.861 41.7437 358.861 41.2139C358.861 41.0597 358.881 40.9152 358.911 40.79C359.011 40.0963 359.351 39.5376 359.941 39.0944C362.061 37.5626 363.901 35.5202 365.461 32.9769C365.591 32.7842 365.561 32.6204 365.361 32.4566C364.841 32.052 364.091 31.5029 363.111 30.8092C363.011 30.7514 362.951 30.7803 362.911 30.9056C362.811 31.2235 362.601 31.4451 362.281 31.5896C361.951 31.7341 361.631 31.7245 361.301 31.5703L360.131 31.0019C359.411 30.6262 358.891 30.0963 358.571 29.4027C358.371 28.9595 358.281 28.5067 358.281 28.0347C358.281 27.7553 358.311 27.4663 358.381 27.1869C359.231 23.9595 360.151 19.9422 361.161 15.1445C361.221 14.9229 361.131 14.817 360.871 14.817H360.091C359.341 14.817 358.701 14.5568 358.161 14.0366C357.621 13.5164 357.351 12.8998 357.351 12.1773C357.351 11.4547 357.621 10.8381 358.161 10.3179C358.701 9.79768 359.341 9.53757 360.091 9.53757H361.951C362.181 9.53757 362.321 9.43159 362.391 9.21001C362.851 6.763 363.241 4.58574 363.561 2.66859C363.691 1.94605 364.061 1.34874 364.681 0.876681C365.231 0.472057 365.851 0.269745 366.541 0.269745H366.781C367.561 0.337182 368.181 0.645467 368.641 1.21387C369.001 1.68593 369.181 2.18689 369.181 2.71676C369.181 2.842 369.161 2.99614 369.131 3.18882C368.771 5.06743 368.361 7.08092 367.911 9.21001C367.881 9.43159 367.991 9.53757 368.251 9.53757H371.571ZM370.981 15.183C371.011 14.9326 370.901 14.8073 370.641 14.8073H367.081C366.821 14.8073 366.671 14.9133 366.641 15.1349C366.091 17.8035 365.341 21.0983 364.391 25.0096C364.321 25.2312 364.411 25.4046 364.631 25.5299C366.221 26.5607 367.251 27.2351 367.711 27.553C367.911 27.7071 368.051 27.659 368.151 27.4085C369.421 24.0559 370.361 19.9807 370.981 15.1734V15.183ZM400.961 19.0462C401.741 19.0462 402.401 19.316 402.941 19.8459C403.481 20.3757 403.751 21.0116 403.751 21.7534C403.751 22.4952 403.481 23.1214 402.941 23.6609C402.401 24.1907 401.741 24.4605 400.961 24.4605H393.101C392.871 24.4605 392.761 24.5665 392.761 24.788V38.5742C392.761 40.0771 392.581 41.2331 392.221 42.0327C391.861 42.8324 391.211 43.4489 390.271 43.8921C388.971 44.4605 387.151 44.788 384.801 44.8844C384.731 44.9133 384.691 44.9326 384.651 44.9326C383.871 44.9326 383.171 44.7013 382.551 44.2293C381.871 43.7283 381.381 43.0636 381.091 42.2543C381.021 42.1291 380.981 41.9846 380.941 41.8304C380.841 41.6089 380.791 41.3776 380.791 41.1272C380.791 40.8092 380.891 40.4817 381.081 40.1349C381.441 39.6339 381.941 39.3834 382.591 39.3834H382.641C383.491 39.4123 384.191 39.4316 384.741 39.4316C385.201 39.4316 385.541 39.4123 385.771 39.3834C386.191 39.3834 386.481 39.3256 386.621 39.2196C386.771 39.1137 386.841 38.8825 386.841 38.5356V24.7977C386.841 24.5761 386.731 24.4701 386.501 24.4701H379.081C378.331 24.4701 377.681 24.2004 377.131 23.6705C376.581 23.1406 376.301 22.5048 376.301 21.763C376.301 21.0212 376.581 20.395 377.131 19.8555C377.681 19.316 378.331 19.0559 379.081 19.0559H386.501C386.731 19.0559 386.841 18.9499 386.841 18.7283V15.0578C386.841 14.6146 387.001 14.2389 387.331 13.9306C387.661 13.6223 388.051 13.4586 388.501 13.4586C388.631 13.4586 388.741 13.4104 388.841 13.3141C390.401 11.7437 391.881 9.97109 393.281 7.99614C393.311 7.93834 393.311 7.8709 393.281 7.80346C393.251 7.74566 393.201 7.70712 393.131 7.70712H380.681C379.931 7.70712 379.291 7.44701 378.751 6.92678C378.211 6.40655 377.941 5.78034 377.941 5.04816C377.941 4.31599 378.211 3.68015 378.751 3.16955C379.291 2.65895 379.931 2.38921 380.681 2.38921H397.331C397.431 2.38921 397.531 2.36994 397.621 2.34104C397.851 2.28323 398.061 2.2447 398.251 2.2447C398.741 2.2447 399.181 2.38921 399.571 2.66859L400.641 3.4682C401.191 3.87283 401.521 4.39306 401.621 5.01926C401.651 5.17341 401.671 5.31791 401.671 5.44315C401.671 5.94412 401.511 6.39691 401.181 6.81117C398.411 10.5106 395.681 13.6031 392.981 16.079C392.821 16.2331 392.741 16.4258 392.741 16.6474V18.7187C392.741 18.9403 392.851 19.0462 393.081 19.0462H400.941H400.961Z" fill="black"/>
<path d="M450.961 31.6474C451.451 32.052 451.691 32.5433 451.691 33.1021C451.691 33.8825 451.351 34.499 450.661 34.9325C450.111 35.2505 449.521 35.4046 448.901 35.4046H448.461C447.681 35.3083 447.001 35 446.411 34.4605H446.361C446.201 34.3063 445.981 34.2293 445.731 34.2293C444.361 34.2582 442.311 34.316 439.581 34.393C436.851 34.4701 434.831 34.5279 433.531 34.5568C433.271 34.5568 433.141 34.6628 433.141 34.8844V42.1772C433.141 42.9576 432.861 43.6223 432.311 44.1522C431.761 44.6821 431.071 44.9518 430.261 44.9518H430.211C429.401 44.9518 428.711 44.6821 428.161 44.1522C427.611 43.6223 427.331 42.9576 427.331 42.1772V35.0289C427.331 34.8073 427.201 34.7013 426.941 34.7013C425.961 34.7302 420.691 34.8266 411.121 34.9807H411.071C410.421 34.9807 409.861 34.7784 409.411 34.3738C408.921 33.9017 408.681 33.343 408.681 32.6782C408.681 32.1098 408.891 31.6088 409.311 31.1753C409.771 30.7322 410.321 30.5202 410.971 30.5202C412.211 30.4913 414.521 30.4624 417.901 30.4239C418.131 30.4239 418.361 30.3757 418.581 30.2794C419.071 30.0578 419.701 29.7591 420.481 29.3834C420.541 29.3256 420.591 29.2485 420.601 29.1715C420.621 29.0944 420.581 29.0366 420.481 29.0077C418.691 27.6878 416.621 26.3873 414.281 25.106C413.691 24.7591 413.401 24.2582 413.401 23.6031C413.401 23.0732 413.631 22.6493 414.081 22.3314C414.701 21.8593 415.411 21.5992 416.231 21.5318H416.571C417.221 21.5318 417.861 21.6763 418.471 21.9557C418.571 22.0231 418.681 22.0809 418.811 22.1483C419.041 22.2736 419.251 22.2543 419.441 22.1002C420.551 21.3487 421.721 20.4431 422.961 19.3738C422.991 19.3449 423.001 19.2967 422.981 19.2293C422.961 19.1715 422.921 19.1329 422.861 19.1329H414.711C413.931 19.1329 413.251 18.8632 412.681 18.3333C412.111 17.8035 411.831 17.1387 411.831 16.3584V4.18111C411.831 3.42966 412.111 2.77456 412.681 2.22542C413.251 1.67629 413.931 1.40654 414.711 1.40654H446.201C446.981 1.40654 447.661 1.68592 448.231 2.22542C448.801 2.77456 449.081 3.42966 449.081 4.18111V16.368C449.081 17.1483 448.791 17.8131 448.231 18.343C447.661 18.8728 446.981 19.1426 446.201 19.1426H430.431V19.1907C430.561 19.2196 430.631 19.2967 430.651 19.422C430.671 19.5472 430.631 19.6435 430.531 19.7013C428.321 21.368 425.961 22.948 423.451 24.4509C423.381 24.4798 423.351 24.5472 423.351 24.6435C423.351 24.7399 423.381 24.7977 423.451 24.8362C424.431 25.4624 425.171 25.9537 425.701 26.2909C425.901 26.4162 426.091 26.4162 426.291 26.2909C429.351 24.5665 432.131 22.842 434.641 21.1175C435.361 20.6166 436.151 20.3372 437.031 20.2697H437.321C438.071 20.2697 438.781 20.4431 439.471 20.79L439.521 20.8381C440.141 21.1561 440.451 21.657 440.451 22.341C440.451 22.9383 440.191 23.4104 439.671 23.7476C436.151 25.9441 432.261 28.0732 428.001 30.1445C427.971 30.1734 427.961 30.2119 427.981 30.2601C428.001 30.3083 428.021 30.3275 428.051 30.3275L440.351 30.183C440.411 30.183 440.461 30.1541 440.471 30.0867C440.491 30.0289 440.471 29.9807 440.451 29.9422C440.031 29.6628 439.601 29.3931 439.181 29.1426C438.691 28.8246 438.451 28.3911 438.451 27.8227C438.451 27.2543 438.691 26.8304 439.181 26.551C439.861 26.1464 440.601 25.9441 441.381 25.9441H441.431C442.181 25.9441 442.881 26.1368 443.531 26.5125C446.431 28.237 448.901 29.9422 450.951 31.6378L450.961 31.6474ZM416.541 36.9171C417.581 36.2235 418.621 35.8863 419.661 35.8863C420.281 35.8863 420.881 36.0115 421.471 36.262C422.091 36.4836 422.461 36.9075 422.591 37.5337C422.621 37.6589 422.641 37.7649 422.641 37.8613C422.641 38.3333 422.431 38.7379 422.011 39.0848C419.861 40.684 417.391 42.1772 414.591 43.5549C414.041 43.8054 413.471 43.9306 412.881 43.9306C412.651 43.9306 412.411 43.9114 412.151 43.8825C411.341 43.7572 410.601 43.4008 409.951 42.8035C409.921 42.8035 409.881 42.7842 409.851 42.7553C409.491 42.4085 409.311 42.0135 409.311 41.5799V41.2524C409.411 40.6551 409.751 40.2312 410.341 39.9807C412.721 39.0366 414.781 38.025 416.541 36.9268V36.9171ZM417.761 5.78034C417.531 5.78034 417.421 5.88631 417.421 6.10789V7.8998C417.421 8.15028 417.531 8.27552 417.761 8.27552H426.941C427.201 8.27552 427.331 8.15028 427.331 7.8998V6.10789C427.331 5.88631 427.201 5.78034 426.941 5.78034H417.761ZM417.761 12.3121C417.531 12.3121 417.421 12.4181 417.421 12.6397V14.4701C417.421 14.6917 417.531 14.7977 417.761 14.7977H426.941C427.201 14.7977 427.331 14.6917 427.331 14.4701V12.6397C427.331 12.4181 427.201 12.3121 426.941 12.3121H417.761ZM442.901 8.26588C443.131 8.26588 443.241 8.14064 443.241 7.89016V6.09825C443.241 5.87667 443.131 5.7707 442.901 5.7707H433.381C433.121 5.7707 432.991 5.87667 432.991 6.09825V7.89016C432.991 8.14064 433.121 8.26588 433.381 8.26588H442.901ZM442.901 14.8073C443.131 14.8073 443.241 14.7013 443.241 14.4798V12.6493C443.241 12.4277 443.131 12.3218 442.901 12.3218H433.381C433.121 12.3218 432.991 12.4277 432.991 12.6493V14.4798C432.991 14.7013 433.121 14.8073 433.381 14.8073H442.901ZM438.561 38.9884C438.011 38.6705 437.731 38.2081 437.731 37.5819C437.731 37.0809 437.961 36.6763 438.411 36.3584C439.061 35.9152 439.791 35.6647 440.611 35.6069C440.741 35.578 440.851 35.5588 440.951 35.5588C441.631 35.5588 442.281 35.7129 442.901 36.0308C445.571 37.3796 447.931 38.6609 449.981 39.8844C450.571 40.2601 450.861 40.79 450.861 41.4836C450.861 42.1772 450.581 42.6589 450.031 43.0347C449.351 43.5067 448.601 43.7379 447.781 43.7379H447.731C446.881 43.709 446.101 43.4682 445.391 43.0347C443.311 41.657 441.031 40.3083 438.551 38.9884H438.561Z" fill="black"/>
<path d="M483.381 25.6744C482.601 27.4952 481.511 28.4008 480.111 28.4008H479.431C478.581 28.4008 477.871 28.1214 477.281 27.553C476.861 27.1484 476.651 26.6956 476.651 26.185C476.651 25.9923 476.671 25.8092 476.701 25.6166C476.961 24.6435 477.471 23.709 478.241 22.8131C479.001 21.9171 479.821 21.1561 480.681 20.5106C481.541 19.8651 482.391 19.2293 483.221 18.6031C484.051 17.9769 484.741 17.3121 485.301 16.5992C485.851 15.8959 486.131 15.1638 486.131 14.4123C486.131 12.9672 485.571 11.8593 484.451 11.0694C483.331 10.289 481.791 9.89402 479.841 9.89402C477.661 9.89402 475.671 10.5395 473.881 11.8208C473.231 12.2929 472.531 12.5433 471.781 12.5722H471.681C470.961 12.5722 470.331 12.341 469.781 11.869C469.161 11.3006 468.851 10.6262 468.851 9.84585C468.851 9.15221 469.131 8.57417 469.681 8.10211C472.841 5.47205 476.481 4.15221 480.621 4.15221C484.401 4.15221 487.431 4.98072 489.731 6.64739C492.021 8.31406 493.171 10.6936 493.171 13.7958C493.171 14.894 492.901 15.9152 492.361 16.8497C491.821 17.7842 491.131 18.6031 490.281 19.2967C489.431 19.9904 488.571 20.6455 487.691 21.2717C486.811 21.8979 485.961 22.5915 485.151 23.343C484.341 24.0944 483.751 24.8651 483.391 25.6455L483.381 25.6744ZM476.061 39.8555C475.081 38.9595 474.601 37.8227 474.601 36.4451C474.601 35.0674 475.091 33.9306 476.061 33.0347C477.031 32.1387 478.281 31.6956 479.801 31.6956C481.321 31.6956 482.561 32.1387 483.541 33.0347C484.521 33.9306 485.001 35.0674 485.001 36.4451C485.001 37.8227 484.511 38.9595 483.541 39.8555C482.571 40.7514 481.321 41.1946 479.801 41.1946C478.281 41.1946 477.041 40.7514 476.061 39.8555Z" fill="black"/>
<rect x="61.585" y="65" width="370" height="47" rx="23.5" fill="black"/>
<path d="M121.453 89.424C122.704 89.1627 124.188 88.8267 125.905 88.416C127.622 88.0053 129.349 87.5853 131.085 87.156L131.477 90.236C129.909 90.6653 128.322 91.0947 126.717 91.524C125.112 91.9533 123.646 92.3267 122.321 92.644L121.453 89.424ZM121.817 80.548H131.421V83.656H121.817V80.548ZM125.177 75.2H128.565V97.768C128.565 98.5893 128.472 99.224 128.285 99.672C128.117 100.139 127.79 100.503 127.305 100.764C126.838 101.025 126.26 101.193 125.569 101.268C124.897 101.343 124.076 101.38 123.105 101.38C123.049 100.932 122.928 100.4 122.741 99.784C122.554 99.1867 122.349 98.664 122.125 98.216C122.648 98.2347 123.152 98.2533 123.637 98.272C124.141 98.272 124.486 98.272 124.673 98.272C124.86 98.272 124.99 98.2347 125.065 98.16C125.14 98.0667 125.177 97.9267 125.177 97.74V75.2ZM134.249 83.964H147.213V87.128H134.249V83.964ZM139.793 85.784H143.125V101.492H139.793V85.784ZM143.741 75.256L146.821 77.804C145.533 78.252 144.124 78.6627 142.593 79.036C141.062 79.4093 139.504 79.736 137.917 80.016C136.33 80.296 134.79 80.5293 133.297 80.716C133.222 80.3427 133.073 79.876 132.849 79.316C132.644 78.756 132.438 78.2987 132.233 77.944C133.633 77.7387 135.042 77.496 136.461 77.216C137.88 76.936 139.224 76.628 140.493 76.292C141.762 75.956 142.845 75.6107 143.741 75.256ZM132.233 77.944H135.677V87.352C135.677 88.4347 135.63 89.6107 135.537 90.88C135.462 92.1493 135.304 93.428 135.061 94.716C134.818 96.004 134.473 97.2453 134.025 98.44C133.596 99.616 133.008 100.671 132.261 101.604C132.093 101.38 131.832 101.119 131.477 100.82C131.122 100.54 130.758 100.26 130.385 99.98C130.03 99.7187 129.722 99.5227 129.461 99.392C130.32 98.272 130.945 97.0213 131.337 95.64C131.729 94.2587 131.972 92.8493 132.065 91.412C132.177 89.956 132.233 88.6027 132.233 87.352V77.944ZM140.241 90.936L142.173 88.892C142.733 89.4333 143.358 90.0307 144.049 90.684C144.74 91.3187 145.402 91.944 146.037 92.56C146.672 93.1573 147.185 93.6893 147.577 94.156L145.533 96.536C145.16 96.0507 144.665 95.4813 144.049 94.828C143.433 94.1747 142.789 93.5027 142.117 92.812C141.445 92.1213 140.82 91.496 140.241 90.936ZM152.561 82.424H160.345V84.888H152.561V82.424ZM152.561 86.988H160.345V89.368H152.561V86.988ZM152.561 91.692H160.345V94.156H152.561V91.692ZM164.713 88.5H175.241V91.328H164.713V88.5ZM153.961 77.804H158.385V80.352H153.961V77.804ZM162.585 76.628H173.001V79.4H162.585V76.628ZM162.613 93.876H175.801V96.76H162.613V93.876ZM167.821 85.98H171.013V101.408H167.821V85.98ZM155.613 83.712H157.825V92.616H155.613V83.712ZM172.105 76.628H175.073C175.073 76.628 175.064 76.768 175.045 77.048C175.045 77.3093 175.036 77.5333 175.017 77.72C174.98 79.1947 174.924 80.4173 174.849 81.388C174.774 82.3587 174.672 83.124 174.541 83.684C174.41 84.244 174.242 84.6453 174.037 84.888C173.813 85.168 173.561 85.3733 173.281 85.504C173.001 85.6347 172.684 85.7373 172.329 85.812C172.012 85.8493 171.601 85.8773 171.097 85.896C170.593 85.896 170.052 85.8867 169.473 85.868C169.454 85.4387 169.38 84.972 169.249 84.468C169.118 83.9453 168.941 83.5067 168.717 83.152C169.165 83.1893 169.566 83.2173 169.921 83.236C170.276 83.2547 170.546 83.264 170.733 83.264C170.901 83.264 171.041 83.2547 171.153 83.236C171.284 83.1987 171.396 83.1147 171.489 82.984C171.601 82.8533 171.694 82.5827 171.769 82.172C171.844 81.7427 171.909 81.1173 171.965 80.296C172.021 79.4747 172.068 78.392 172.105 77.048V76.628ZM164.125 86.176L166.869 86.736C166.626 88.0053 166.281 89.2467 165.833 90.46C165.404 91.6733 164.918 92.6907 164.377 93.512C164.19 93.3813 163.948 93.232 163.649 93.064C163.35 92.896 163.042 92.7373 162.725 92.588C162.408 92.4387 162.137 92.3173 161.913 92.224C162.454 91.4773 162.912 90.5627 163.285 89.48C163.658 88.3973 163.938 87.296 164.125 86.176ZM153.289 75.172L156.285 75.844C155.93 77.1133 155.51 78.364 155.025 79.596C154.54 80.828 153.998 81.976 153.401 83.04C152.822 84.104 152.197 85.0373 151.525 85.84C151.357 85.672 151.124 85.4667 150.825 85.224C150.526 84.9627 150.228 84.7107 149.929 84.468C149.63 84.2067 149.36 84.0107 149.117 83.88C150.069 82.8347 150.909 81.5467 151.637 80.016C152.365 78.4667 152.916 76.852 153.289 75.172ZM151.329 82.424H154.017V89.844C154.017 90.74 153.98 91.7013 153.905 92.728C153.849 93.7547 153.737 94.8 153.569 95.864C153.42 96.9093 153.186 97.9267 152.869 98.916C152.552 99.8867 152.132 100.773 151.609 101.576C151.46 101.408 151.236 101.221 150.937 101.016C150.657 100.829 150.358 100.643 150.041 100.456C149.742 100.288 149.481 100.157 149.257 100.064C149.892 99.0933 150.358 98.02 150.657 96.844C150.956 95.6493 151.142 94.4453 151.217 93.232C151.292 92 151.329 90.8613 151.329 89.816V82.424ZM159.421 82.424H162.193V98.272C162.193 98.944 162.118 99.4947 161.969 99.924C161.82 100.353 161.53 100.689 161.101 100.932C160.672 101.175 160.158 101.324 159.561 101.38C158.964 101.455 158.226 101.492 157.349 101.492C157.312 101.081 157.19 100.596 156.985 100.036C156.798 99.476 156.602 99.0093 156.397 98.636C156.957 98.6547 157.48 98.6733 157.965 98.692C158.45 98.692 158.786 98.692 158.973 98.692C159.141 98.692 159.253 98.664 159.309 98.608C159.384 98.5333 159.421 98.4027 159.421 98.216V82.424ZM165.973 77.552H168.969C168.857 78.9147 168.633 80.1747 168.297 81.332C167.98 82.4707 167.448 83.488 166.701 84.384C165.954 85.28 164.89 86.036 163.509 86.652C163.341 86.2973 163.08 85.8867 162.725 85.42C162.389 84.9533 162.062 84.5987 161.745 84.356C162.865 83.8893 163.705 83.32 164.265 82.648C164.844 81.976 165.245 81.2107 165.469 80.352C165.712 79.4933 165.88 78.56 165.973 77.552ZM157.573 77.804H158.217L158.637 77.692L160.569 78.868C160.252 79.764 159.85 80.716 159.365 81.724C158.88 82.7133 158.422 83.5627 157.993 84.272C157.713 84.0667 157.368 83.8427 156.957 83.6C156.565 83.3573 156.22 83.1613 155.921 83.012C156.145 82.564 156.36 82.0693 156.565 81.528C156.789 80.968 156.985 80.408 157.153 79.848C157.34 79.2693 157.48 78.7653 157.573 78.336V77.804ZM193.329 84.468H203.689V87.576H193.329V84.468ZM178.069 78H190.697V80.716H178.069V78ZM177.817 89.144H190.669V91.972H177.817V89.144ZM177.649 84.244H191.145V86.988H177.649V84.244ZM197.809 85.84H201.057V101.38H197.809V85.84ZM179.553 81.276L182.241 80.632C182.446 81.1173 182.633 81.64 182.801 82.2C182.969 82.76 183.09 83.2453 183.165 83.656L180.393 84.412C180.337 83.9827 180.225 83.4787 180.057 82.9C179.908 82.3027 179.74 81.7613 179.553 81.276ZM186.441 80.604L189.465 81.164C189.166 81.9107 188.877 82.6387 188.597 83.348C188.317 84.0387 188.046 84.6267 187.785 85.112L185.069 84.552C185.218 84.1787 185.377 83.768 185.545 83.32C185.732 82.8533 185.9 82.3773 186.049 81.892C186.217 81.4067 186.348 80.9773 186.441 80.604ZM200.609 75.452L203.185 77.944C202.214 78.3173 201.15 78.6627 199.993 78.98C198.854 79.2973 197.688 79.5773 196.493 79.82C195.317 80.044 194.178 80.24 193.077 80.408C193.002 80.0533 192.862 79.6333 192.657 79.148C192.452 78.644 192.256 78.224 192.069 77.888C193.114 77.6827 194.16 77.4587 195.205 77.216C196.25 76.9733 197.24 76.7027 198.173 76.404C199.106 76.0867 199.918 75.7693 200.609 75.452ZM182.045 75.76L185.405 74.948C185.685 75.5453 185.965 76.208 186.245 76.936C186.544 77.6453 186.768 78.2613 186.917 78.784L183.361 79.708C183.268 79.1853 183.09 78.5507 182.829 77.804C182.568 77.0573 182.306 76.376 182.045 75.76ZM192.069 77.888H195.205V87.912C195.205 88.9387 195.168 90.0493 195.093 91.244C195.037 92.4387 194.906 93.652 194.701 94.884C194.514 96.0973 194.234 97.2733 193.861 98.412C193.506 99.532 193.03 100.54 192.433 101.436C192.265 101.231 192.013 100.997 191.677 100.736C191.36 100.475 191.033 100.223 190.697 99.98C190.361 99.7373 190.072 99.56 189.829 99.448C190.52 98.384 191.024 97.1893 191.341 95.864C191.658 94.5387 191.854 93.1853 191.929 91.804C192.022 90.4227 192.069 89.1253 192.069 87.912V77.888ZM186.889 93.736L189.073 92.532C189.521 93.148 189.95 93.8387 190.361 94.604C190.79 95.3507 191.126 95.9947 191.369 96.536L189.073 97.936C188.849 97.376 188.522 96.704 188.093 95.92C187.682 95.1173 187.281 94.3893 186.889 93.736ZM179.777 92.84L182.353 93.624C182.017 94.5947 181.578 95.612 181.037 96.676C180.514 97.74 180.01 98.636 179.525 99.364C179.264 99.1587 178.9 98.8973 178.433 98.58C177.985 98.2627 177.612 98.02 177.313 97.852C177.798 97.18 178.256 96.396 178.685 95.5C179.133 94.604 179.497 93.7173 179.777 92.84ZM183.053 85.784H186.301V101.296H183.053V85.784ZM216.541 83.796H230.877V86.708H216.541V83.796ZM215.645 78.196H231.661V81.136H215.645V78.196ZM215.701 88.892H231.521V91.832H215.701V88.892ZM221.973 75.172H225.305V85.476H221.973V75.172ZM225.529 86.372H228.833V97.964C228.833 98.7667 228.73 99.392 228.525 99.84C228.32 100.307 227.946 100.671 227.405 100.932C226.864 101.175 226.201 101.324 225.417 101.38C224.652 101.455 223.746 101.492 222.701 101.492C222.626 101.025 222.486 100.484 222.281 99.868C222.076 99.2707 221.861 98.7573 221.637 98.328C222.328 98.3467 223 98.3653 223.653 98.384C224.306 98.384 224.745 98.384 224.969 98.384C225.174 98.384 225.314 98.356 225.389 98.3C225.482 98.2253 225.529 98.0853 225.529 97.88V86.372ZM216.821 93.736L219.593 92.196C219.966 92.644 220.368 93.148 220.797 93.708C221.245 94.2493 221.656 94.7907 222.029 95.332C222.421 95.8547 222.738 96.3213 222.981 96.732L220.013 98.468C219.808 98.0387 219.518 97.5533 219.145 97.012C218.79 96.4707 218.408 95.9107 217.997 95.332C217.586 94.7533 217.194 94.2213 216.821 93.736ZM207.945 76.936H215.141V96.088H207.945V93.092H212.033V79.932H207.945V76.936ZM208.113 84.888H213.545V87.828H208.113V84.888ZM206.349 76.936H209.457V98.58H206.349V76.936ZM242.105 84.664L259.129 82.396L259.605 85.56L242.581 87.884L242.105 84.664ZM252.633 76.992L255.153 75.424C255.638 75.8533 256.142 76.3387 256.665 76.88C257.188 77.4213 257.673 77.9627 258.121 78.504C258.569 79.0267 258.924 79.512 259.185 79.96L256.469 81.668C256.245 81.2387 255.918 80.7533 255.489 80.212C255.06 79.652 254.593 79.092 254.089 78.532C253.604 77.972 253.118 77.4587 252.633 76.992ZM240.537 75.452L243.757 76.488C243.048 78.1493 242.208 79.8013 241.237 81.444C240.285 83.0867 239.249 84.6267 238.129 86.064C237.028 87.5013 235.889 88.7613 234.713 89.844C234.62 89.564 234.461 89.2093 234.237 88.78C234.013 88.3507 233.77 87.9213 233.509 87.492C233.266 87.0627 233.042 86.708 232.837 86.428C233.864 85.5693 234.853 84.552 235.805 83.376C236.757 82.2 237.644 80.94 238.465 79.596C239.286 78.2333 239.977 76.852 240.537 75.452ZM237.653 83.488L241.069 80.044L241.125 80.1V101.464H237.653V83.488ZM247.341 75.648H250.757C250.794 78.6347 250.925 81.4253 251.149 84.02C251.392 86.596 251.728 88.864 252.157 90.824C252.586 92.784 253.118 94.3427 253.753 95.5C254.388 96.6387 255.125 97.264 255.965 97.376C256.282 97.3947 256.534 97.04 256.721 96.312C256.908 95.584 257.057 94.4453 257.169 92.896C257.374 93.12 257.654 93.3627 258.009 93.624C258.364 93.8853 258.718 94.128 259.073 94.352C259.428 94.5573 259.708 94.716 259.913 94.828C259.67 96.6387 259.344 98.0293 258.933 99C258.541 99.9707 258.102 100.624 257.617 100.96C257.132 101.315 256.628 101.473 256.105 101.436C254.78 101.305 253.641 100.82 252.689 99.98C251.737 99.14 250.934 97.9733 250.281 96.48C249.646 94.9867 249.124 93.204 248.713 91.132C248.321 89.06 248.022 86.7267 247.817 84.132C247.612 81.5187 247.453 78.6907 247.341 75.648ZM267.557 93.624H270.665V97.264C270.665 97.656 270.786 97.908 271.029 98.02C271.272 98.132 271.794 98.188 272.597 98.188C272.765 98.188 273.008 98.188 273.325 98.188C273.642 98.188 273.997 98.188 274.389 98.188C274.8 98.188 275.21 98.188 275.621 98.188C276.032 98.188 276.414 98.188 276.769 98.188C277.124 98.188 277.404 98.188 277.609 98.188C278.057 98.188 278.393 98.1227 278.617 97.992C278.841 97.8613 279 97.5813 279.093 97.152C279.186 96.7227 279.261 96.0693 279.317 95.192C279.653 95.4347 280.101 95.6587 280.661 95.864C281.221 96.0693 281.716 96.2093 282.145 96.284C282.014 97.5347 281.8 98.4867 281.501 99.14C281.221 99.812 280.792 100.269 280.213 100.512C279.634 100.773 278.841 100.904 277.833 100.904C277.684 100.904 277.413 100.904 277.021 100.904C276.648 100.904 276.228 100.904 275.761 100.904C275.313 100.904 274.846 100.904 274.361 100.904C273.894 100.904 273.474 100.904 273.101 100.904C272.746 100.904 272.485 100.904 272.317 100.904C271.066 100.904 270.086 100.792 269.377 100.568C268.686 100.363 268.21 99.9987 267.949 99.476C267.688 98.9533 267.557 98.2253 267.557 97.292V93.624ZM272.261 93.764L274.641 92.476C274.977 92.8307 275.332 93.2227 275.705 93.652C276.097 94.0813 276.461 94.5107 276.797 94.94C277.133 95.3507 277.413 95.7147 277.637 96.032L275.117 97.488C274.93 97.152 274.669 96.7693 274.333 96.34C274.016 95.9107 273.67 95.472 273.297 95.024C272.942 94.5573 272.597 94.1373 272.261 93.764ZM281.753 94.324L284.413 93.204C284.768 93.8013 285.15 94.4547 285.561 95.164C285.99 95.8733 286.382 96.5733 286.737 97.264C287.11 97.936 287.409 98.5147 287.633 99L284.805 100.344C284.618 99.8213 284.348 99.2147 283.993 98.524C283.657 97.8147 283.293 97.096 282.901 96.368C282.509 95.6213 282.126 94.94 281.753 94.324ZM264.141 93.652L266.773 94.828C266.53 95.4067 266.269 96.032 265.989 96.704C265.709 97.376 265.41 98.0387 265.093 98.692C264.794 99.3267 264.486 99.9053 264.169 100.428L261.425 99.084C261.761 98.58 262.088 98.02 262.405 97.404C262.741 96.788 263.058 96.1533 263.357 95.5C263.656 94.8467 263.917 94.2307 264.141 93.652ZM270.553 80.744H278.505V82.76H270.553V80.744ZM270.553 83.712H278.505V85.756H270.553V83.712ZM270.161 77.496H278.981V79.708H270.161V77.496ZM273.045 88.584V90.656H276.013V88.584H273.045ZM270.693 86.708H278.477V92.532H270.693V86.708ZM267.109 82.788L268.901 82.312C269.218 83.04 269.517 83.852 269.797 84.748C270.077 85.644 270.273 86.3813 270.385 86.96L268.481 87.576C268.388 86.96 268.201 86.204 267.921 85.308C267.66 84.3933 267.389 83.5533 267.109 82.788ZM262.461 82.312C262.405 82.0693 262.293 81.724 262.125 81.276C261.976 80.828 261.836 80.4547 261.705 80.156C261.91 80.1187 262.106 80.0253 262.293 79.876C262.48 79.708 262.666 79.5027 262.853 79.26C263.002 79.092 263.208 78.8027 263.469 78.392C263.749 77.9627 264.048 77.4587 264.365 76.88C264.682 76.2827 264.962 75.676 265.205 75.06L267.501 75.816C267.034 76.7867 266.493 77.748 265.877 78.7C265.261 79.6333 264.664 80.4173 264.085 81.052V81.108C264.085 81.108 264.001 81.1453 263.833 81.22C263.665 81.2947 263.469 81.3973 263.245 81.528C263.04 81.6587 262.853 81.7893 262.685 81.92C262.536 82.0507 262.461 82.1813 262.461 82.312ZM262.461 82.312L262.433 80.688L263.497 80.072L267.697 79.876C267.641 80.156 267.585 80.4827 267.529 80.856C267.473 81.2107 267.436 81.5093 267.417 81.752C266.166 81.8267 265.205 81.9013 264.533 81.976C263.88 82.032 263.404 82.088 263.105 82.144C262.825 82.1813 262.61 82.2373 262.461 82.312ZM262.741 87.408C262.666 87.1653 262.554 86.82 262.405 86.372C262.274 85.924 262.144 85.5507 262.013 85.252C262.274 85.196 262.536 85.056 262.797 84.832C263.077 84.608 263.376 84.3187 263.693 83.964C263.917 83.74 264.262 83.32 264.729 82.704C265.214 82.088 265.737 81.3693 266.297 80.548C266.876 79.708 267.389 78.8587 267.837 78L270.021 78.924C269.2 80.268 268.294 81.584 267.305 82.872C266.334 84.1413 265.364 85.2427 264.393 86.176V86.204C264.393 86.204 264.309 86.2413 264.141 86.316C263.973 86.3907 263.777 86.4933 263.553 86.624C263.348 86.736 263.161 86.8667 262.993 87.016C262.825 87.1467 262.741 87.2773 262.741 87.408ZM262.741 87.408L262.657 85.728L263.749 85.056L269.713 84.496C269.657 84.776 269.61 85.0933 269.573 85.448C269.554 85.8027 269.545 86.092 269.545 86.316C268.201 86.484 267.109 86.624 266.269 86.736C265.429 86.848 264.776 86.9413 264.309 87.016C263.842 87.0907 263.497 87.1653 263.273 87.24C263.049 87.296 262.872 87.352 262.741 87.408ZM264.925 88.22L266.717 87.856C266.848 88.584 266.96 89.3773 267.053 90.236C267.146 91.076 267.202 91.8133 267.221 92.448L265.345 92.84C265.326 92.2053 265.27 91.4587 265.177 90.6C265.102 89.7413 265.018 88.948 264.925 88.22ZM262.433 87.912L264.393 88.388C264.262 89.2093 264.085 90.068 263.861 90.964C263.637 91.8413 263.413 92.588 263.189 93.204C262.984 93.0733 262.704 92.9147 262.349 92.728C261.994 92.5413 261.696 92.392 261.453 92.28C261.677 91.664 261.873 90.9733 262.041 90.208C262.209 89.424 262.34 88.6587 262.433 87.912ZM267.473 88.052L269.153 87.576C269.377 88.248 269.592 88.9947 269.797 89.816C270.021 90.6373 270.18 91.3373 270.273 91.916L268.509 92.504C268.434 91.9067 268.294 91.1973 268.089 90.376C267.902 89.536 267.697 88.7613 267.473 88.052ZM272.653 75.704L275.313 75.172C275.574 75.6387 275.817 76.1427 276.041 76.684C276.265 77.2253 276.414 77.7013 276.489 78.112L273.661 78.728C273.605 78.3173 273.474 77.832 273.269 77.272C273.082 76.712 272.877 76.1893 272.653 75.704ZM284.469 82.844L286.401 82.312C286.681 83.0587 286.97 83.8707 287.269 84.748C287.568 85.6067 287.782 86.3347 287.913 86.932L285.841 87.604C285.729 87.0067 285.533 86.2507 285.253 85.336C284.992 84.4213 284.73 83.5907 284.469 82.844ZM279.653 82.536C279.597 82.2933 279.485 81.9573 279.317 81.528C279.168 81.08 279.028 80.6973 278.897 80.38C279.102 80.3427 279.289 80.2493 279.457 80.1C279.644 79.932 279.83 79.7267 280.017 79.484C280.166 79.316 280.372 79.0173 280.633 78.588C280.894 78.14 281.174 77.6267 281.473 77.048C281.772 76.4507 282.033 75.844 282.257 75.228L284.525 76.012C284.096 76.9827 283.582 77.944 282.985 78.896C282.406 79.848 281.837 80.6413 281.277 81.276V81.332C281.277 81.332 281.193 81.3693 281.025 81.444C280.876 81.5187 280.689 81.6213 280.465 81.752C280.26 81.864 280.073 81.9947 279.905 82.144C279.737 82.2747 279.653 82.4053 279.653 82.536ZM279.653 82.536V80.912L280.717 80.296L284.917 80.128C284.861 80.408 284.805 80.7347 284.749 81.108C284.693 81.4627 284.656 81.7613 284.637 82.004C283.386 82.06 282.425 82.1253 281.753 82.2C281.1 82.256 280.624 82.312 280.325 82.368C280.045 82.4053 279.821 82.4613 279.653 82.536ZM279.933 87.436C279.858 87.212 279.746 86.876 279.597 86.428C279.466 85.98 279.336 85.6067 279.205 85.308C279.466 85.252 279.737 85.1213 280.017 84.916C280.297 84.692 280.586 84.4027 280.885 84.048C281.109 83.8053 281.454 83.3853 281.921 82.788C282.406 82.1907 282.929 81.4813 283.489 80.66C284.049 79.82 284.553 78.9707 285.001 78.112L287.185 79.008C286.364 80.352 285.468 81.6587 284.497 82.928C283.526 84.1973 282.556 85.2987 281.585 86.232V86.26C281.585 86.26 281.501 86.2973 281.333 86.372C281.165 86.4467 280.969 86.5493 280.745 86.68C280.54 86.792 280.353 86.9227 280.185 87.072C280.017 87.2027 279.933 87.324 279.933 87.436ZM279.933 87.436L279.877 85.756L280.997 85.084L286.345 84.664C286.289 84.9813 286.233 85.3267 286.177 85.7C286.121 86.0547 286.093 86.3533 286.093 86.596C284.898 86.708 283.918 86.8107 283.153 86.904C282.406 86.9787 281.818 87.044 281.389 87.1C280.96 87.156 280.633 87.212 280.409 87.268C280.204 87.324 280.045 87.38 279.933 87.436ZM282.201 88.248L284.049 87.884C284.18 88.612 284.292 89.4147 284.385 90.292C284.478 91.1693 284.534 91.9253 284.553 92.56L282.621 92.98C282.621 92.3453 282.574 91.5893 282.481 90.712C282.406 89.816 282.313 88.9947 282.201 88.248ZM279.681 87.996L281.669 88.472C281.594 89.2933 281.464 90.152 281.277 91.048C281.09 91.944 280.913 92.7187 280.745 93.372C280.54 93.2227 280.26 93.0547 279.905 92.868C279.55 92.6627 279.252 92.504 279.009 92.392C279.177 91.776 279.317 91.076 279.429 90.292C279.541 89.508 279.625 88.7427 279.681 87.996ZM284.749 88.136L286.429 87.66C286.672 88.3507 286.896 89.1067 287.101 89.928C287.306 90.7307 287.446 91.4307 287.521 92.028L285.757 92.56C285.701 91.9813 285.57 91.272 285.365 90.432C285.16 89.592 284.954 88.8267 284.749 88.136ZM290.573 81.724H314.625V87.268H311.293V84.272H293.765V86.876H290.573V81.724ZM311.041 75.172L313.281 77.412C311.844 77.7107 310.257 77.972 308.521 78.196C306.785 78.4013 304.984 78.5787 303.117 78.728C301.25 78.8587 299.365 78.9707 297.461 79.064C295.576 79.1387 293.756 79.1947 292.001 79.232C291.964 78.8587 291.88 78.4293 291.749 77.944C291.618 77.4587 291.478 77.0667 291.329 76.768C293.065 76.7307 294.848 76.6747 296.677 76.6C298.506 76.5067 300.298 76.3947 302.053 76.264C303.808 76.1333 305.45 75.984 306.981 75.816C308.53 75.6293 309.884 75.4147 311.041 75.172ZM294.017 79.736L296.677 78.644C297.013 79.0173 297.33 79.4467 297.629 79.932C297.946 80.4173 298.17 80.8467 298.301 81.22L295.473 82.424C295.38 82.0507 295.193 81.612 294.913 81.108C294.633 80.604 294.334 80.1467 294.017 79.736ZM300.093 79.428L302.753 78.448C303.07 78.8587 303.36 79.3067 303.621 79.792C303.901 80.2773 304.078 80.716 304.153 81.108L301.325 82.144C301.25 81.7707 301.092 81.332 300.849 80.828C300.625 80.3053 300.373 79.8387 300.093 79.428ZM307.037 86.568L309.277 84.972C309.837 85.3827 310.397 85.84 310.957 86.344C311.536 86.8293 312.068 87.3333 312.553 87.856C313.057 88.36 313.449 88.836 313.729 89.284L311.321 91.076C311.06 90.628 310.696 90.1427 310.229 89.62C309.762 89.0787 309.249 88.5467 308.689 88.024C308.129 87.4827 307.578 86.9973 307.037 86.568ZM299.869 84.972L301.465 83.264C302.174 83.5253 302.921 83.8707 303.705 84.3C304.489 84.7293 305.105 85.1307 305.553 85.504L303.873 87.38C303.444 87.0067 302.846 86.5867 302.081 86.12C301.334 85.6533 300.597 85.2707 299.869 84.972ZM308.913 77.776L312.189 78.84C311.685 79.5867 311.172 80.3147 310.649 81.024C310.145 81.7147 309.669 82.3027 309.221 82.788L306.729 81.836C306.972 81.4627 307.233 81.0427 307.513 80.576C307.793 80.0907 308.054 79.6053 308.297 79.12C308.54 78.616 308.745 78.168 308.913 77.776ZM308.269 91.776H308.913L309.473 91.664L311.601 93.064C310.686 94.4453 309.52 95.6307 308.101 96.62C306.682 97.6093 305.096 98.44 303.341 99.112C301.586 99.784 299.701 100.307 297.685 100.68C295.669 101.072 293.597 101.38 291.469 101.604C291.376 101.343 291.236 101.035 291.049 100.68C290.862 100.344 290.648 99.9987 290.405 99.644C290.181 99.308 289.966 99.0373 289.761 98.832C291.833 98.7013 293.83 98.4867 295.753 98.188C297.676 97.8893 299.449 97.488 301.073 96.984C302.716 96.4613 304.144 95.808 305.357 95.024C306.589 94.24 307.56 93.316 308.269 92.252V91.776ZM294.493 90.656C295.706 92.28 297.33 93.6333 299.365 94.716C301.418 95.7987 303.808 96.6387 306.533 97.236C309.277 97.8333 312.301 98.2253 315.605 98.412C315.4 98.6547 315.176 98.9627 314.933 99.336C314.69 99.7093 314.466 100.083 314.261 100.456C314.056 100.848 313.878 101.203 313.729 101.52C311.209 101.296 308.857 100.951 306.673 100.484C304.489 100.017 302.482 99.392 300.653 98.608C298.824 97.8053 297.172 96.844 295.697 95.724C294.222 94.5853 292.934 93.26 291.833 91.748L294.493 90.656ZM299.701 89.508L302.613 90.516C301.829 91.4867 300.896 92.392 299.813 93.232C298.749 94.072 297.62 94.8187 296.425 95.472C295.23 96.1253 294.026 96.6853 292.813 97.152C292.645 96.9653 292.421 96.732 292.141 96.452C291.88 96.172 291.6 95.9013 291.301 95.64C291.021 95.36 290.769 95.136 290.545 94.968C291.777 94.5947 292.962 94.1373 294.101 93.596C295.258 93.036 296.322 92.42 297.293 91.748C298.264 91.0573 299.066 90.3107 299.701 89.508ZM297.461 85.504H300.569V87.436C300.569 87.772 300.634 87.9773 300.765 88.052C300.914 88.1267 301.232 88.164 301.717 88.164C301.81 88.164 301.988 88.164 302.249 88.164C302.51 88.164 302.8 88.164 303.117 88.164C303.434 88.164 303.733 88.164 304.013 88.164C304.293 88.164 304.498 88.164 304.629 88.164C304.872 88.164 305.058 88.136 305.189 88.08C305.32 88.0053 305.413 87.8747 305.469 87.688C305.544 87.5013 305.6 87.2213 305.637 86.848C305.936 87.016 306.337 87.184 306.841 87.352C307.345 87.52 307.793 87.6413 308.185 87.716C308.092 88.444 307.924 89.0133 307.681 89.424C307.457 89.816 307.13 90.096 306.701 90.264C306.272 90.4133 305.712 90.488 305.021 90.488C304.872 90.488 304.676 90.488 304.433 90.488C304.19 90.488 303.91 90.488 303.593 90.488C303.294 90.488 302.986 90.488 302.669 90.488C302.37 90.488 302.1 90.488 301.857 90.488C301.614 90.488 301.418 90.488 301.269 90.488C300.261 90.488 299.477 90.404 298.917 90.236C298.357 90.0493 297.974 89.7413 297.769 89.312C297.564 88.864 297.461 88.248 297.461 87.464V85.504ZM294.689 85.224L297.237 86.316C296.938 87.1373 296.546 87.9493 296.061 88.752C295.594 89.5547 294.988 90.236 294.241 90.796L291.889 89.004C292.524 88.556 293.084 87.996 293.569 87.324C294.054 86.6333 294.428 85.9333 294.689 85.224ZM299.001 91.776H308.941V94.212H296.565L299.001 91.776ZM327.953 89.396H343.241V92.336H327.953V89.396ZM337.893 91.132C338.341 91.972 338.901 92.812 339.573 93.652C340.245 94.492 340.973 95.276 341.757 96.004C342.56 96.7133 343.344 97.3107 344.109 97.796C343.885 97.9827 343.624 98.2253 343.325 98.524C343.026 98.8227 342.746 99.1307 342.485 99.448C342.224 99.7653 342.009 100.055 341.841 100.316C341.038 99.7 340.245 98.944 339.461 98.048C338.677 97.152 337.94 96.1813 337.249 95.136C336.577 94.0907 335.998 93.0547 335.513 92.028L337.893 91.132ZM331.761 83.264V85.084H339.489V83.264H331.761ZM331.761 78.924V80.716H339.489V78.924H331.761ZM328.793 76.264H342.597V87.744H328.793V76.264ZM333.385 90.936L335.905 91.776C335.401 92.9333 334.794 94.0627 334.085 95.164C333.376 96.2467 332.592 97.2453 331.733 98.16C330.874 99.0747 329.969 99.84 329.017 100.456C328.849 100.195 328.634 99.896 328.373 99.56C328.112 99.2427 327.841 98.9347 327.561 98.636C327.281 98.3187 327.02 98.0573 326.777 97.852C327.673 97.3853 328.541 96.788 329.381 96.06C330.221 95.3133 330.986 94.5013 331.677 93.624C332.368 92.728 332.937 91.832 333.385 90.936ZM334.141 77.608H337.025V86.484H337.221V101.492H333.945V86.484H334.141V77.608ZM318.685 83.768H327.309V86.288H318.685V83.768ZM318.685 87.548H327.309V90.096H318.685V87.548ZM317.453 79.848H328.233V82.508H317.453V79.848ZM320.085 91.44H327.505V99.952H320.085V97.264H324.593V94.1H320.085V91.44ZM318.601 91.44H321.457V101.156H318.601V91.44ZM320.505 76.32L323.081 75.088C323.454 75.6667 323.837 76.3107 324.229 77.02C324.621 77.7107 324.929 78.3173 325.153 78.84L322.465 80.296C322.278 79.7733 321.989 79.1387 321.597 78.392C321.224 77.6267 320.86 76.936 320.505 76.32ZM350.045 82.004V83.32H354.049V82.004H350.045ZM350.045 78.56V79.876H354.049V78.56H350.045ZM347.077 76.292H357.157V85.588H347.077V76.292ZM345.789 87.212H358.417V89.648H345.789V87.212ZM358.305 76.376H371.213V78.756H358.305V76.376ZM350.997 87.968H353.825V99.224L350.997 97.628V87.968ZM352.481 91.916H357.885V94.352H352.481V91.916ZM363.709 76.964L366.761 77.608C366.406 78.392 366.052 79.1853 365.697 79.988C365.361 80.772 365.053 81.4347 364.773 81.976L362.365 81.332C362.608 80.716 362.86 79.9973 363.121 79.176C363.382 78.3547 363.578 77.6173 363.709 76.964ZM362.141 85.952V87.268H367.265V85.952H362.141ZM362.141 89.424V90.74H367.265V89.424H362.141ZM362.141 82.508V83.824H367.265V82.508H362.141ZM359.173 80.24H370.373V93.036H359.173V80.24ZM361.441 93.232L364.185 94.1C363.606 94.884 362.86 95.6493 361.945 96.396C361.049 97.124 360.162 97.7307 359.285 98.216C359.117 98.048 358.902 97.8427 358.641 97.6C358.38 97.3387 358.109 97.0867 357.829 96.844C357.568 96.6013 357.325 96.4053 357.101 96.256C357.941 95.9013 358.753 95.4533 359.537 94.912C360.321 94.3707 360.956 93.8107 361.441 93.232ZM347.049 90.768H349.765C349.709 92.1867 349.606 93.5773 349.457 94.94C349.308 96.284 349.046 97.5347 348.673 98.692C348.318 99.8307 347.786 100.829 347.077 101.688C346.872 101.333 346.573 100.923 346.181 100.456C345.808 99.9893 345.453 99.6347 345.117 99.392C345.64 98.7387 346.032 97.9547 346.293 97.04C346.573 96.1253 346.76 95.136 346.853 94.072C346.965 92.9893 347.03 91.888 347.049 90.768ZM349.289 93.092C349.7 94.268 350.222 95.2013 350.857 95.892C351.492 96.5827 352.248 97.1053 353.125 97.46C354.021 97.8147 355.048 98.048 356.205 98.16C357.362 98.2533 358.65 98.3 360.069 98.3C360.461 98.3 361.04 98.3 361.805 98.3C362.57 98.3 363.438 98.3 364.409 98.3C365.38 98.3 366.36 98.3 367.349 98.3C368.338 98.2813 369.244 98.2627 370.065 98.244C370.886 98.2253 371.53 98.216 371.997 98.216C371.773 98.5147 371.549 98.944 371.325 99.504C371.12 100.064 370.98 100.549 370.905 100.96H368.749H360.069C358.352 100.96 356.812 100.876 355.449 100.708C354.086 100.54 352.882 100.204 351.837 99.7C350.81 99.2147 349.924 98.4867 349.177 97.516C348.43 96.5453 347.805 95.276 347.301 93.708L349.289 93.092ZM365.389 94.268L367.713 93.064C368.217 93.3813 368.73 93.7547 369.253 94.184C369.776 94.5947 370.261 95.0147 370.709 95.444C371.176 95.8547 371.549 96.2373 371.829 96.592L369.421 98.02C369.122 97.6467 368.749 97.236 368.301 96.788C367.853 96.34 367.368 95.892 366.845 95.444C366.341 94.996 365.856 94.604 365.389 94.268Z" fill="#D6F2FA"/>
</svg>
