<svg width="500" height="258" viewBox="0 0 500 258" fill="none" xmlns="http://www.w3.org/2000/svg">
<circle cx="106" cy="35" r="35" fill="#0095CC"/>
<path d="M99.224 30.852V32.84H112.608V30.852H99.224ZM99.224 26.372V28.276H112.608V26.372H99.224ZM95.864 23.6H116.108V35.612H95.864V23.6ZM104.18 24.916H107.568V34.212H104.18V24.916ZM93.988 37.572H115.156V40.568H93.988V37.572ZM113.644 37.572H117.06C117.06 37.572 117.051 37.656 117.032 37.824C117.032 37.9733 117.023 38.1507 117.004 38.356C117.004 38.5613 116.995 38.7387 116.976 38.888C116.827 40.6053 116.659 42.024 116.472 43.144C116.285 44.264 116.071 45.16 115.828 45.832C115.604 46.4853 115.333 46.9613 115.016 47.26C114.643 47.6333 114.232 47.8947 113.784 48.044C113.355 48.212 112.841 48.3147 112.244 48.352C111.74 48.3893 111.087 48.408 110.284 48.408C109.481 48.408 108.641 48.3987 107.764 48.38C107.727 47.9133 107.605 47.3907 107.4 46.812C107.213 46.2333 106.971 45.7293 106.672 45.3C107.531 45.3747 108.361 45.4213 109.164 45.44C109.967 45.4587 110.555 45.468 110.928 45.468C111.208 45.468 111.441 45.4587 111.628 45.44C111.833 45.4027 112.011 45.3187 112.16 45.188C112.384 45.0013 112.58 44.6373 112.748 44.096C112.935 43.536 113.093 42.7613 113.224 41.772C113.373 40.7827 113.504 39.532 113.616 38.02L113.644 37.572ZM103.676 35.052H107.204C107.055 36.3213 106.849 37.5347 106.588 38.692C106.327 39.8307 105.935 40.8947 105.412 41.884C104.889 42.8733 104.171 43.788 103.256 44.628C102.36 45.4493 101.203 46.1867 99.784 46.84C98.3653 47.4933 96.62 48.044 94.548 48.492C94.4547 48.1933 94.3053 47.8667 94.1 47.512C93.9133 47.1573 93.708 46.8027 93.484 46.448C93.26 46.0933 93.0267 45.7947 92.784 45.552C94.6693 45.1973 96.2373 44.768 97.488 44.264C98.7387 43.76 99.7467 43.1907 100.512 42.556C101.296 41.9213 101.893 41.2213 102.304 40.456C102.715 39.672 103.023 38.832 103.228 37.936C103.433 37.0213 103.583 36.06 103.676 35.052Z" fill="white"/>
<circle cx="395" cy="35" r="35" fill="#FFA59B"/>
<path d="M382.54 28.444H407.6V32.056H382.54V28.444ZM400.88 25.672L404.464 26.512C404.035 29.2747 403.456 31.7293 402.728 33.876C402 36.004 401.095 37.8613 400.012 39.448C398.948 41.0347 397.669 42.3973 396.176 43.536C394.683 44.6747 392.937 45.636 390.94 46.42C388.943 47.204 386.647 47.848 384.052 48.352C383.865 47.8667 383.585 47.3067 383.212 46.672C382.839 46.056 382.456 45.5333 382.064 45.104C384.509 44.6933 386.665 44.1613 388.532 43.508C390.399 42.836 392.013 42.0147 393.376 41.044C394.757 40.0547 395.933 38.8507 396.904 37.432C397.875 35.9947 398.677 34.3147 399.312 32.392C399.965 30.4507 400.488 28.2107 400.88 25.672ZM385.256 38.664C385.872 37.5813 386.497 36.368 387.132 35.024C387.767 33.68 388.383 32.2707 388.98 30.796C389.577 29.3213 390.128 27.8373 390.632 26.344C391.136 24.8507 391.565 23.4133 391.92 22.032L395.532 22.536C395.177 23.9547 394.757 25.42 394.272 26.932C393.787 28.4253 393.264 29.9 392.704 31.356C392.163 32.7933 391.612 34.1653 391.052 35.472C390.511 36.76 389.997 37.9173 389.512 38.944L385.256 38.664ZM385.256 38.664L387.496 35.92C389.344 36.6293 391.201 37.3947 393.068 38.216C394.935 39.0373 396.745 39.868 398.5 40.708C400.273 41.5293 401.925 42.3413 403.456 43.144C404.987 43.9467 406.321 44.6747 407.46 45.328L404.8 48.548C403.699 47.8387 402.411 47.064 400.936 46.224C399.461 45.384 397.865 44.5253 396.148 43.648C394.449 42.752 392.676 41.884 390.828 41.044C388.98 40.1853 387.123 39.392 385.256 38.664Z" fill="white"/>
<rect x="211" y="122" width="211" height="40" transform="rotate(180 211 122)" fill="#E8FDFF"/>
<rect x="211" y="122" width="117.767" height="40" transform="rotate(180 211 122)" fill="#0095CC"/>
<path d="M150.54 110.28C149.753 110.28 149.053 110.187 148.44 110C147.827 109.813 147.28 109.567 146.8 109.26C146.32 108.953 145.893 108.62 145.52 108.26L146.88 106.38C147.16 106.66 147.46 106.913 147.78 107.14C148.113 107.367 148.473 107.547 148.86 107.68C149.26 107.813 149.687 107.88 150.14 107.88C150.647 107.88 151.093 107.773 151.48 107.56C151.88 107.347 152.193 107.04 152.42 106.64C152.647 106.227 152.76 105.733 152.76 105.16C152.76 104.307 152.527 103.647 152.06 103.18C151.607 102.713 151.007 102.48 150.26 102.48C149.833 102.48 149.467 102.54 149.16 102.66C148.853 102.767 148.48 102.96 148.04 103.24L146.7 102.38L147.1 95.18H155.02V97.66H149.64L149.36 100.8C149.653 100.667 149.94 100.567 150.22 100.5C150.5 100.433 150.807 100.4 151.14 100.4C151.967 100.4 152.727 100.567 153.42 100.9C154.113 101.22 154.667 101.727 155.08 102.42C155.493 103.113 155.7 104 155.7 105.08C155.7 106.173 155.453 107.113 154.96 107.9C154.48 108.673 153.847 109.267 153.06 109.68C152.287 110.08 151.447 110.28 150.54 110.28ZM163.117 110.28C162.424 110.28 161.75 110.133 161.097 109.84C160.457 109.547 159.89 109.1 159.397 108.5C158.904 107.887 158.51 107.113 158.217 106.18C157.937 105.233 157.797 104.107 157.797 102.8C157.797 101.427 157.95 100.24 158.257 99.24C158.577 98.24 159.004 97.4267 159.537 96.8C160.07 96.16 160.677 95.6867 161.357 95.38C162.05 95.0733 162.777 94.92 163.537 94.92C164.444 94.92 165.224 95.0867 165.877 95.42C166.544 95.74 167.097 96.1333 167.537 96.6L165.977 98.36C165.724 98.0667 165.39 97.8133 164.977 97.6C164.564 97.3867 164.144 97.28 163.717 97.28C163.117 97.28 162.57 97.4533 162.077 97.8C161.597 98.1467 161.21 98.72 160.917 99.52C160.624 100.32 160.477 101.413 160.477 102.8C160.477 104.08 160.59 105.107 160.817 105.88C161.057 106.64 161.37 107.193 161.757 107.54C162.144 107.887 162.577 108.06 163.057 108.06C163.43 108.06 163.764 107.96 164.057 107.76C164.364 107.547 164.61 107.24 164.797 106.84C164.984 106.427 165.077 105.92 165.077 105.32C165.077 104.733 164.984 104.253 164.797 103.88C164.624 103.507 164.377 103.227 164.057 103.04C163.75 102.853 163.384 102.76 162.957 102.76C162.557 102.76 162.137 102.887 161.697 103.14C161.257 103.38 160.85 103.807 160.477 104.42L160.337 102.44C160.604 102.067 160.917 101.747 161.277 101.48C161.65 101.213 162.03 101.013 162.417 100.88C162.817 100.747 163.177 100.68 163.497 100.68C164.324 100.68 165.057 100.847 165.697 101.18C166.35 101.513 166.857 102.02 167.217 102.7C167.577 103.38 167.757 104.253 167.757 105.32C167.757 106.333 167.544 107.213 167.117 107.96C166.704 108.693 166.144 109.267 165.437 109.68C164.73 110.08 163.957 110.28 163.117 110.28ZM171.854 110.28C171.32 110.28 170.88 110.093 170.534 109.72C170.187 109.347 170.014 108.893 170.014 108.36C170.014 107.8 170.187 107.34 170.534 106.98C170.88 106.62 171.32 106.44 171.854 106.44C172.374 106.44 172.807 106.62 173.154 106.98C173.5 107.34 173.674 107.8 173.674 108.36C173.674 108.893 173.5 109.347 173.154 109.72C172.807 110.093 172.374 110.28 171.854 110.28ZM180.998 110.28C179.998 110.28 179.118 109.993 178.358 109.42C177.611 108.833 177.024 107.967 176.598 106.82C176.184 105.66 175.978 104.227 175.978 102.52C175.978 100.827 176.184 99.42 176.598 98.3C177.024 97.1667 177.611 96.32 178.358 95.76C179.118 95.2 179.998 94.92 180.998 94.92C182.011 94.92 182.891 95.2067 183.638 95.78C184.384 96.34 184.964 97.18 185.378 98.3C185.804 99.42 186.018 100.827 186.018 102.52C186.018 104.227 185.804 105.66 185.378 106.82C184.964 107.967 184.384 108.833 183.638 109.42C182.891 109.993 182.011 110.28 180.998 110.28ZM180.998 107.98C181.438 107.98 181.824 107.813 182.158 107.48C182.491 107.147 182.751 106.587 182.938 105.8C183.124 105 183.218 103.907 183.218 102.52C183.218 101.147 183.124 100.073 182.938 99.3C182.751 98.5133 182.491 97.9667 182.158 97.66C181.824 97.34 181.438 97.18 180.998 97.18C180.584 97.18 180.204 97.34 179.858 97.66C179.524 97.9667 179.258 98.5133 179.058 99.3C178.858 100.073 178.758 101.147 178.758 102.52C178.758 103.907 178.858 105 179.058 105.8C179.258 106.587 179.524 107.147 179.858 107.48C180.204 107.813 180.584 107.98 180.998 107.98ZM188.535 110V107.6H191.735V98.26H189.035V96.42C189.781 96.2867 190.421 96.1267 190.955 95.94C191.501 95.74 192.008 95.4867 192.475 95.18H194.655V107.6H197.435V110H188.535Z" fill="white"/>
<rect x="211" y="190" width="211" height="40" transform="rotate(180 211 190)" fill="#E8FDFF"/>
<rect x="211" y="190" width="93.2326" height="40" transform="rotate(180 211 190)" fill="#0095CC"/>
<path d="M151.74 178V168.9C151.74 168.473 151.753 167.967 151.78 167.38C151.807 166.78 151.833 166.26 151.86 165.82H151.76C151.587 166.22 151.4 166.62 151.2 167.02C151 167.42 150.793 167.827 150.58 168.24L148.28 171.92H156.24V174.16H145.42V172.16L150.94 163.18H154.48V178H151.74ZM163.537 178V168.9C163.537 168.473 163.55 167.967 163.577 167.38C163.604 166.78 163.63 166.26 163.657 165.82H163.557C163.384 166.22 163.197 166.62 162.997 167.02C162.797 167.42 162.59 167.827 162.377 168.24L160.077 171.92H168.037V174.16H157.217V172.16L162.737 163.18H166.277V178H163.537ZM171.854 178.28C171.32 178.28 170.88 178.093 170.534 177.72C170.187 177.347 170.014 176.893 170.014 176.36C170.014 175.8 170.187 175.34 170.534 174.98C170.88 174.62 171.32 174.44 171.854 174.44C172.374 174.44 172.807 174.62 173.154 174.98C173.5 175.34 173.674 175.8 173.674 176.36C173.674 176.893 173.5 177.347 173.154 177.72C172.807 178.093 172.374 178.28 171.854 178.28ZM180.998 178.28C179.998 178.28 179.118 177.993 178.358 177.42C177.611 176.833 177.024 175.967 176.598 174.82C176.184 173.66 175.978 172.227 175.978 170.52C175.978 168.827 176.184 167.42 176.598 166.3C177.024 165.167 177.611 164.32 178.358 163.76C179.118 163.2 179.998 162.92 180.998 162.92C182.011 162.92 182.891 163.207 183.638 163.78C184.384 164.34 184.964 165.18 185.378 166.3C185.804 167.42 186.018 168.827 186.018 170.52C186.018 172.227 185.804 173.66 185.378 174.82C184.964 175.967 184.384 176.833 183.638 177.42C182.891 177.993 182.011 178.28 180.998 178.28ZM180.998 175.98C181.438 175.98 181.824 175.813 182.158 175.48C182.491 175.147 182.751 174.587 182.938 173.8C183.124 173 183.218 171.907 183.218 170.52C183.218 169.147 183.124 168.073 182.938 167.3C182.751 166.513 182.491 165.967 182.158 165.66C181.824 165.34 181.438 165.18 180.998 165.18C180.584 165.18 180.204 165.34 179.858 165.66C179.524 165.967 179.258 166.513 179.058 167.3C178.858 168.073 178.758 169.147 178.758 170.52C178.758 171.907 178.858 173 179.058 173.8C179.258 174.587 179.524 175.147 179.858 175.48C180.204 175.813 180.584 175.98 180.998 175.98ZM193.215 178.28C192.521 178.28 191.848 178.133 191.195 177.84C190.555 177.547 189.988 177.1 189.495 176.5C189.001 175.887 188.608 175.113 188.315 174.18C188.035 173.233 187.895 172.107 187.895 170.8C187.895 169.427 188.048 168.24 188.355 167.24C188.675 166.24 189.101 165.427 189.635 164.8C190.168 164.16 190.775 163.687 191.455 163.38C192.148 163.073 192.875 162.92 193.635 162.92C194.541 162.92 195.321 163.087 195.975 163.42C196.641 163.74 197.195 164.133 197.635 164.6L196.075 166.36C195.821 166.067 195.488 165.813 195.075 165.6C194.661 165.387 194.241 165.28 193.815 165.28C193.215 165.28 192.668 165.453 192.175 165.8C191.695 166.147 191.308 166.72 191.015 167.52C190.721 168.32 190.575 169.413 190.575 170.8C190.575 172.08 190.688 173.107 190.915 173.88C191.155 174.64 191.468 175.193 191.855 175.54C192.241 175.887 192.675 176.06 193.155 176.06C193.528 176.06 193.861 175.96 194.155 175.76C194.461 175.547 194.708 175.24 194.895 174.84C195.081 174.427 195.175 173.92 195.175 173.32C195.175 172.733 195.081 172.253 194.895 171.88C194.721 171.507 194.475 171.227 194.155 171.04C193.848 170.853 193.481 170.76 193.055 170.76C192.655 170.76 192.235 170.887 191.795 171.14C191.355 171.38 190.948 171.807 190.575 172.42L190.435 170.44C190.701 170.067 191.015 169.747 191.375 169.48C191.748 169.213 192.128 169.013 192.515 168.88C192.915 168.747 193.275 168.68 193.595 168.68C194.421 168.68 195.155 168.847 195.795 169.18C196.448 169.513 196.955 170.02 197.315 170.7C197.675 171.38 197.855 172.253 197.855 173.32C197.855 174.333 197.641 175.213 197.215 175.96C196.801 176.693 196.241 177.267 195.535 177.68C194.828 178.08 194.055 178.28 193.215 178.28Z" fill="white"/>
<rect x="211" y="258" width="211" height="40" transform="rotate(-180 211 258)" fill="#E8FDFF"/>
<rect x="211" y="258" width="93.2326" height="40" transform="rotate(-180 211 258)" fill="#0095CC"/>
<path d="M163.74 244V234.9C163.74 234.473 163.753 233.967 163.78 233.38C163.807 232.78 163.833 232.26 163.86 231.82H163.76C163.587 232.22 163.4 232.62 163.2 233.02C163 233.42 162.793 233.827 162.58 234.24L160.28 237.92H168.24V240.16H157.42V238.16L162.94 229.18H166.48V244H163.74ZM175.537 244V234.9C175.537 234.473 175.55 233.967 175.577 233.38C175.604 232.78 175.63 232.26 175.657 231.82H175.557C175.384 232.22 175.197 232.62 174.997 233.02C174.797 233.42 174.59 233.827 174.377 234.24L172.077 237.92H180.037V240.16H169.217V238.16L174.737 229.18H178.277V244H175.537ZM183.854 244.28C183.32 244.28 182.88 244.093 182.534 243.72C182.187 243.347 182.014 242.893 182.014 242.36C182.014 241.8 182.187 241.34 182.534 240.98C182.88 240.62 183.32 240.44 183.854 240.44C184.374 240.44 184.807 240.62 185.154 240.98C185.5 241.34 185.674 241.8 185.674 242.36C185.674 242.893 185.5 243.347 185.154 243.72C184.807 244.093 184.374 244.28 183.854 244.28ZM188.738 244V241.6H191.938V232.26H189.238V230.42C189.984 230.287 190.624 230.127 191.158 229.94C191.704 229.74 192.211 229.487 192.678 229.18H194.858V241.6H197.638V244H188.738Z" fill="white"/>
<path d="M226.96 111.195C225.235 111.195 224.155 110.475 223.435 109.695L224.125 108.795C224.77 109.47 225.61 110.055 226.855 110.055C228.16 110.055 229.09 109.275 229.09 108C229.09 106.695 228.205 105.81 225.67 105.81V104.76C227.935 104.76 228.715 103.845 228.715 102.66C228.715 101.61 227.995 100.92 226.855 100.92C225.97 100.92 225.19 101.355 224.575 101.985L223.84 101.115C224.665 100.35 225.64 99.7951 226.915 99.7951C228.76 99.7951 230.11 100.815 230.11 102.555C230.11 103.89 229.315 104.775 228.16 105.21V105.27C229.45 105.57 230.485 106.56 230.485 108.06C230.485 110.025 228.91 111.195 226.96 111.195ZM235.715 105.195C235.025 105.195 234.14 105.6 233.465 106.605C233.63 108.885 234.455 110.13 235.835 110.13C236.885 110.13 237.71 109.125 237.71 107.625C237.71 106.14 237.05 105.195 235.715 105.195ZM235.835 111.195C233.72 111.195 232.16 109.38 232.16 105.75C232.16 101.445 234.095 99.7951 236.225 99.7951C237.365 99.7951 238.19 100.275 238.79 100.92L238.04 101.775C237.605 101.25 236.945 100.935 236.27 100.935C234.77 100.935 233.495 102.09 233.435 105.51C234.11 104.685 235.07 104.175 235.94 104.175C237.8 104.175 238.985 105.33 238.985 107.625C238.985 109.755 237.545 111.195 235.835 111.195ZM240.331 107.325V106.275H244.171V107.325H240.331ZM246.566 106.875H249.941V103.5C249.941 102.96 249.986 102.075 250.016 101.505H249.956C249.686 102.045 249.386 102.585 249.071 103.125L246.566 106.875ZM249.941 111V107.97H245.141V107.07L249.716 99.9901H251.231V106.875H252.686V107.97H251.231V111H249.941ZM257.076 111.195C255.366 111.195 254.316 110.475 253.581 109.74L254.256 108.84C254.886 109.47 255.681 110.055 256.956 110.055C258.246 110.055 259.296 109.065 259.296 107.46C259.296 105.885 258.396 104.955 257.016 104.955C256.281 104.955 255.816 105.18 255.186 105.6L254.451 105.15L254.796 99.9901H260.151V101.175H255.996L255.726 104.355C256.221 104.085 256.701 103.92 257.361 103.92C259.191 103.92 260.676 105 260.676 107.415C260.676 109.83 258.936 111.195 257.076 111.195ZM269.116 107.43L270.031 107.58C269.371 109.68 267.616 111.315 265.081 112.08C264.976 111.885 264.736 111.57 264.601 111.405C265.846 111.045 266.911 110.46 267.706 109.725H266.956V106.695H265.006V105.87H269.761V106.695H267.886V109.545C268.471 108.945 268.906 108.225 269.116 107.43ZM265.486 107.31L266.341 107.49C266.101 108.405 265.636 109.32 265.156 109.95C264.991 109.815 264.646 109.575 264.436 109.47C264.931 108.9 265.291 108.105 265.486 107.31ZM272.236 102.765H271.231C271.246 103.2 271.276 103.65 271.306 104.07H273.616C273.181 103.74 272.491 103.335 271.906 103.08L272.236 102.765ZM273.436 105.675L274.456 105.915C273.976 107.235 273.331 108.405 272.521 109.395C273.046 110.46 273.646 111.075 274.276 111.075C274.621 111.075 274.771 110.505 274.846 109.095C275.071 109.29 275.416 109.485 275.686 109.575C275.521 111.51 275.146 112.065 274.201 112.065C273.256 112.065 272.446 111.375 271.816 110.19C271.066 110.97 270.226 111.615 269.296 112.155C269.146 111.945 268.771 111.57 268.546 111.375C269.626 110.82 270.586 110.1 271.381 109.215C270.916 108.06 270.586 106.62 270.391 105.015H264.316V106.56C264.316 108.225 264.121 110.58 263.011 112.185C262.831 112.02 262.351 111.735 262.096 111.63C263.146 110.115 263.281 108.06 263.281 106.56V104.07H270.286C270.256 103.65 270.226 103.2 270.211 102.765H262.441V101.82H264.826V99.1351H265.876V101.82H268.576V98.4601H269.671V99.7201H274.171V100.605H269.671V101.82H275.551V102.765H273.016C273.511 103.02 274.006 103.305 274.321 103.575L273.841 104.07H275.401V105.015H271.396C271.546 106.275 271.786 107.385 272.101 108.33C272.656 107.535 273.106 106.65 273.436 105.675Z" fill="black"/>
<path d="M223.66 177V176.19C227.11 173.175 228.7 170.985 228.7 169.095C228.7 167.835 228.04 166.92 226.675 166.92C225.775 166.92 224.995 167.475 224.395 168.195L223.6 167.415C224.5 166.44 225.445 165.795 226.84 165.795C228.805 165.795 230.035 167.085 230.035 169.05C230.035 171.24 228.31 173.475 225.73 175.92C226.3 175.875 226.975 175.815 227.53 175.815H230.575V177H223.66ZM235.715 171.195C235.025 171.195 234.14 171.6 233.465 172.605C233.63 174.885 234.455 176.13 235.835 176.13C236.885 176.13 237.71 175.125 237.71 173.625C237.71 172.14 237.05 171.195 235.715 171.195ZM235.835 177.195C233.72 177.195 232.16 175.38 232.16 171.75C232.16 167.445 234.095 165.795 236.225 165.795C237.365 165.795 238.19 166.275 238.79 166.92L238.04 167.775C237.605 167.25 236.945 166.935 236.27 166.935C234.77 166.935 233.495 168.09 233.435 171.51C234.11 170.685 235.07 170.175 235.94 170.175C237.8 170.175 238.985 171.33 238.985 173.625C238.985 175.755 237.545 177.195 235.835 177.195ZM240.331 173.325V172.275H244.171V173.325H240.331ZM248.801 177.195C247.076 177.195 245.996 176.475 245.276 175.695L245.966 174.795C246.611 175.47 247.451 176.055 248.696 176.055C250.001 176.055 250.931 175.275 250.931 174C250.931 172.695 250.046 171.81 247.511 171.81V170.76C249.776 170.76 250.556 169.845 250.556 168.66C250.556 167.61 249.836 166.92 248.696 166.92C247.811 166.92 247.031 167.355 246.416 167.985L245.681 167.115C246.506 166.35 247.481 165.795 248.756 165.795C250.601 165.795 251.951 166.815 251.951 168.555C251.951 169.89 251.156 170.775 250.001 171.21V171.27C251.291 171.57 252.326 172.56 252.326 174.06C252.326 176.025 250.751 177.195 248.801 177.195ZM257.076 177.195C255.366 177.195 254.316 176.475 253.581 175.74L254.256 174.84C254.886 175.47 255.681 176.055 256.956 176.055C258.246 176.055 259.296 175.065 259.296 173.46C259.296 171.885 258.396 170.955 257.016 170.955C256.281 170.955 255.816 171.18 255.186 171.6L254.451 171.15L254.796 165.99H260.151V167.175H255.996L255.726 170.355C256.221 170.085 256.701 169.92 257.361 169.92C259.191 169.92 260.676 171 260.676 173.415C260.676 175.83 258.936 177.195 257.076 177.195ZM269.116 173.43L270.031 173.58C269.371 175.68 267.616 177.315 265.081 178.08C264.976 177.885 264.736 177.57 264.601 177.405C265.846 177.045 266.911 176.46 267.706 175.725H266.956V172.695H265.006V171.87H269.761V172.695H267.886V175.545C268.471 174.945 268.906 174.225 269.116 173.43ZM265.486 173.31L266.341 173.49C266.101 174.405 265.636 175.32 265.156 175.95C264.991 175.815 264.646 175.575 264.436 175.47C264.931 174.9 265.291 174.105 265.486 173.31ZM272.236 168.765H271.231C271.246 169.2 271.276 169.65 271.306 170.07H273.616C273.181 169.74 272.491 169.335 271.906 169.08L272.236 168.765ZM273.436 171.675L274.456 171.915C273.976 173.235 273.331 174.405 272.521 175.395C273.046 176.46 273.646 177.075 274.276 177.075C274.621 177.075 274.771 176.505 274.846 175.095C275.071 175.29 275.416 175.485 275.686 175.575C275.521 177.51 275.146 178.065 274.201 178.065C273.256 178.065 272.446 177.375 271.816 176.19C271.066 176.97 270.226 177.615 269.296 178.155C269.146 177.945 268.771 177.57 268.546 177.375C269.626 176.82 270.586 176.1 271.381 175.215C270.916 174.06 270.586 172.62 270.391 171.015H264.316V172.56C264.316 174.225 264.121 176.58 263.011 178.185C262.831 178.02 262.351 177.735 262.096 177.63C263.146 176.115 263.281 174.06 263.281 172.56V170.07H270.286C270.256 169.65 270.226 169.2 270.211 168.765H262.441V167.82H264.826V165.135H265.876V167.82H268.576V164.46H269.671V165.72H274.171V166.605H269.671V167.82H275.551V168.765H273.016C273.511 169.02 274.006 169.305 274.321 169.575L273.841 170.07H275.401V171.015H271.396C271.546 172.275 271.786 173.385 272.101 174.33C272.656 173.535 273.106 172.65 273.436 171.675Z" fill="black"/>
<path d="M224.32 243V241.86H226.765V233.655H224.815V232.785C225.79 232.605 226.495 232.35 227.095 231.99H228.145V241.86H230.35V243H224.32ZM235.715 237.195C235.025 237.195 234.14 237.6 233.465 238.605C233.63 240.885 234.455 242.13 235.835 242.13C236.885 242.13 237.71 241.125 237.71 239.625C237.71 238.14 237.05 237.195 235.715 237.195ZM235.835 243.195C233.72 243.195 232.16 241.38 232.16 237.75C232.16 233.445 234.095 231.795 236.225 231.795C237.365 231.795 238.19 232.275 238.79 232.92L238.04 233.775C237.605 233.25 236.945 232.935 236.27 232.935C234.77 232.935 233.495 234.09 233.435 237.51C234.11 236.685 235.07 236.175 235.94 236.175C237.8 236.175 238.985 237.33 238.985 239.625C238.985 241.755 237.545 243.195 235.835 243.195ZM240.331 239.325V238.275H244.171V239.325H240.331ZM245.501 243V242.19C248.951 239.175 250.541 236.985 250.541 235.095C250.541 233.835 249.881 232.92 248.516 232.92C247.616 232.92 246.836 233.475 246.236 234.195L245.441 233.415C246.341 232.44 247.286 231.795 248.681 231.795C250.646 231.795 251.876 233.085 251.876 235.05C251.876 237.24 250.151 239.475 247.571 241.92C248.141 241.875 248.816 241.815 249.371 241.815H252.416V243H245.501ZM257.076 243.195C255.366 243.195 254.316 242.475 253.581 241.74L254.256 240.84C254.886 241.47 255.681 242.055 256.956 242.055C258.246 242.055 259.296 241.065 259.296 239.46C259.296 237.885 258.396 236.955 257.016 236.955C256.281 236.955 255.816 237.18 255.186 237.6L254.451 237.15L254.796 231.99H260.151V233.175H255.996L255.726 236.355C256.221 236.085 256.701 235.92 257.361 235.92C259.191 235.92 260.676 237 260.676 239.415C260.676 241.83 258.936 243.195 257.076 243.195ZM269.116 239.43L270.031 239.58C269.371 241.68 267.616 243.315 265.081 244.08C264.976 243.885 264.736 243.57 264.601 243.405C265.846 243.045 266.911 242.46 267.706 241.725H266.956V238.695H265.006V237.87H269.761V238.695H267.886V241.545C268.471 240.945 268.906 240.225 269.116 239.43ZM265.486 239.31L266.341 239.49C266.101 240.405 265.636 241.32 265.156 241.95C264.991 241.815 264.646 241.575 264.436 241.47C264.931 240.9 265.291 240.105 265.486 239.31ZM272.236 234.765H271.231C271.246 235.2 271.276 235.65 271.306 236.07H273.616C273.181 235.74 272.491 235.335 271.906 235.08L272.236 234.765ZM273.436 237.675L274.456 237.915C273.976 239.235 273.331 240.405 272.521 241.395C273.046 242.46 273.646 243.075 274.276 243.075C274.621 243.075 274.771 242.505 274.846 241.095C275.071 241.29 275.416 241.485 275.686 241.575C275.521 243.51 275.146 244.065 274.201 244.065C273.256 244.065 272.446 243.375 271.816 242.19C271.066 242.97 270.226 243.615 269.296 244.155C269.146 243.945 268.771 243.57 268.546 243.375C269.626 242.82 270.586 242.1 271.381 241.215C270.916 240.06 270.586 238.62 270.391 237.015H264.316V238.56C264.316 240.225 264.121 242.58 263.011 244.185C262.831 244.02 262.351 243.735 262.096 243.63C263.146 242.115 263.281 240.06 263.281 238.56V236.07H270.286C270.256 235.65 270.226 235.2 270.211 234.765H262.441V233.82H264.826V231.135H265.876V233.82H268.576V230.46H269.671V231.72H274.171V232.605H269.671V233.82H275.551V234.765H273.016C273.511 235.02 274.006 235.305 274.321 235.575L273.841 236.07H275.401V237.015H271.396C271.546 238.275 271.786 239.385 272.101 240.33C272.656 239.535 273.106 238.65 273.436 237.675Z" fill="black"/>
<rect x="289" y="82.0001" width="211" height="40" fill="#FFEDED"/>
<rect x="289" y="82.0001" width="160.458" height="40" fill="#FFA59B"/>
<path d="M304.72 112C304.787 110.72 304.9 109.54 305.06 108.46C305.22 107.367 305.447 106.34 305.74 105.38C306.033 104.407 306.413 103.453 306.88 102.52C307.36 101.587 307.953 100.633 308.66 99.6601H302V97.1801H311.84V98.9801C310.987 100.02 310.293 101.02 309.76 101.98C309.24 102.94 308.84 103.913 308.56 104.9C308.293 105.887 308.093 106.953 307.96 108.1C307.84 109.247 307.747 110.547 307.68 112H304.72ZM319.117 112.28C318.424 112.28 317.75 112.133 317.097 111.84C316.457 111.547 315.89 111.1 315.397 110.5C314.904 109.887 314.51 109.113 314.217 108.18C313.937 107.233 313.797 106.107 313.797 104.8C313.797 103.427 313.95 102.24 314.257 101.24C314.577 100.24 315.004 99.4267 315.537 98.8001C316.07 98.1601 316.677 97.6867 317.357 97.3801C318.05 97.0734 318.777 96.9201 319.537 96.9201C320.444 96.9201 321.224 97.0867 321.877 97.4201C322.544 97.7401 323.097 98.1334 323.537 98.6001L321.977 100.36C321.724 100.067 321.39 99.8134 320.977 99.6001C320.564 99.3867 320.144 99.2801 319.717 99.2801C319.117 99.2801 318.57 99.4534 318.077 99.8001C317.597 100.147 317.21 100.72 316.917 101.52C316.624 102.32 316.477 103.413 316.477 104.8C316.477 106.08 316.59 107.107 316.817 107.88C317.057 108.64 317.37 109.193 317.757 109.54C318.144 109.887 318.577 110.06 319.057 110.06C319.43 110.06 319.764 109.96 320.057 109.76C320.364 109.547 320.61 109.24 320.797 108.84C320.984 108.427 321.077 107.92 321.077 107.32C321.077 106.733 320.984 106.253 320.797 105.88C320.624 105.507 320.377 105.227 320.057 105.04C319.75 104.853 319.384 104.76 318.957 104.76C318.557 104.76 318.137 104.887 317.697 105.14C317.257 105.38 316.85 105.807 316.477 106.42L316.337 104.44C316.604 104.067 316.917 103.747 317.277 103.48C317.65 103.213 318.03 103.013 318.417 102.88C318.817 102.747 319.177 102.68 319.497 102.68C320.324 102.68 321.057 102.847 321.697 103.18C322.35 103.513 322.857 104.02 323.217 104.7C323.577 105.38 323.757 106.253 323.757 107.32C323.757 108.333 323.544 109.213 323.117 109.96C322.704 110.693 322.144 111.267 321.437 111.68C320.73 112.08 319.957 112.28 319.117 112.28ZM327.854 112.28C327.32 112.28 326.88 112.093 326.534 111.72C326.187 111.347 326.014 110.893 326.014 110.36C326.014 109.8 326.187 109.34 326.534 108.98C326.88 108.62 327.32 108.44 327.854 108.44C328.374 108.44 328.807 108.62 329.154 108.98C329.5 109.34 329.674 109.8 329.674 110.36C329.674 110.893 329.5 111.347 329.154 111.72C328.807 112.093 328.374 112.28 327.854 112.28ZM337.838 112V102.9C337.838 102.473 337.851 101.967 337.878 101.38C337.904 100.78 337.931 100.26 337.958 99.8201H337.858C337.684 100.22 337.498 100.62 337.298 101.02C337.098 101.42 336.891 101.827 336.678 102.24L334.378 105.92H342.338V108.16H331.518V106.16L337.038 97.1801H340.578V112H337.838ZM344.535 112V109.6H347.735V100.26H345.035V98.4201C345.781 98.2867 346.421 98.1267 346.955 97.9401C347.501 97.7401 348.008 97.4867 348.475 97.1801H350.655V109.6H353.435V112H344.535Z" fill="white"/>
<rect x="289" y="150" width="211" height="40" fill="#FFEDED"/>
<rect x="289" y="150" width="130.035" height="40" fill="#FFA59B"/>
<path d="M307.32 179.28C306.627 179.28 305.953 179.133 305.3 178.84C304.66 178.547 304.093 178.1 303.6 177.5C303.107 176.887 302.713 176.113 302.42 175.18C302.14 174.233 302 173.107 302 171.8C302 170.427 302.153 169.24 302.46 168.24C302.78 167.24 303.207 166.427 303.74 165.8C304.273 165.16 304.88 164.687 305.56 164.38C306.253 164.073 306.98 163.92 307.74 163.92C308.647 163.92 309.427 164.087 310.08 164.42C310.747 164.74 311.3 165.133 311.74 165.6L310.18 167.36C309.927 167.067 309.593 166.813 309.18 166.6C308.767 166.387 308.347 166.28 307.92 166.28C307.32 166.28 306.773 166.453 306.28 166.8C305.8 167.147 305.413 167.72 305.12 168.52C304.827 169.32 304.68 170.413 304.68 171.8C304.68 173.08 304.793 174.107 305.02 174.88C305.26 175.64 305.573 176.193 305.96 176.54C306.347 176.887 306.78 177.06 307.26 177.06C307.633 177.06 307.967 176.96 308.26 176.76C308.567 176.547 308.813 176.24 309 175.84C309.187 175.427 309.28 174.92 309.28 174.32C309.28 173.733 309.187 173.253 309 172.88C308.827 172.507 308.58 172.227 308.26 172.04C307.953 171.853 307.587 171.76 307.16 171.76C306.76 171.76 306.34 171.887 305.9 172.14C305.46 172.38 305.053 172.807 304.68 173.42L304.54 171.44C304.807 171.067 305.12 170.747 305.48 170.48C305.853 170.213 306.233 170.013 306.62 169.88C307.02 169.747 307.38 169.68 307.7 169.68C308.527 169.68 309.26 169.847 309.9 170.18C310.553 170.513 311.06 171.02 311.42 171.7C311.78 172.38 311.96 173.253 311.96 174.32C311.96 175.333 311.747 176.213 311.32 176.96C310.907 177.693 310.347 178.267 309.64 178.68C308.933 179.08 308.16 179.28 307.32 179.28ZM314.437 179V176.6H317.637V167.26H314.937V165.42C315.684 165.287 316.324 165.127 316.857 164.94C317.404 164.74 317.91 164.487 318.377 164.18H320.557V176.6H323.337V179H314.437ZM327.854 179.28C327.32 179.28 326.88 179.093 326.534 178.72C326.187 178.347 326.014 177.893 326.014 177.36C326.014 176.8 326.187 176.34 326.534 175.98C326.88 175.62 327.32 175.44 327.854 175.44C328.374 175.44 328.807 175.62 329.154 175.98C329.5 176.34 329.674 176.8 329.674 177.36C329.674 177.893 329.5 178.347 329.154 178.72C328.807 179.093 328.374 179.28 327.854 179.28ZM336.198 179.28C335.278 179.28 334.478 179.113 333.798 178.78C333.131 178.447 332.578 178.053 332.138 177.6L333.698 175.82C333.964 176.127 334.311 176.38 334.738 176.58C335.164 176.78 335.598 176.88 336.038 176.88C336.464 176.88 336.871 176.787 337.258 176.6C337.644 176.4 337.978 176.087 338.258 175.66C338.551 175.22 338.778 174.64 338.938 173.92C339.111 173.2 339.198 172.313 339.198 171.26C339.198 169.993 339.078 168.987 338.838 168.24C338.611 167.493 338.304 166.96 337.918 166.64C337.531 166.307 337.091 166.14 336.598 166.14C336.238 166.14 335.904 166.24 335.598 166.44C335.291 166.64 335.044 166.94 334.858 167.34C334.684 167.74 334.598 168.247 334.598 168.86C334.598 169.433 334.684 169.913 334.858 170.3C335.031 170.673 335.271 170.953 335.578 171.14C335.898 171.327 336.271 171.42 336.698 171.42C337.111 171.42 337.538 171.293 337.978 171.04C338.418 170.787 338.818 170.36 339.178 169.76L339.318 171.74C339.064 172.1 338.751 172.413 338.378 172.68C338.018 172.947 337.644 173.153 337.258 173.3C336.871 173.447 336.498 173.52 336.138 173.52C335.324 173.52 334.598 173.353 333.958 173.02C333.318 172.673 332.811 172.16 332.438 171.48C332.078 170.787 331.898 169.913 331.898 168.86C331.898 167.847 332.111 166.973 332.538 166.24C332.964 165.493 333.531 164.92 334.238 164.52C334.944 164.12 335.718 163.92 336.558 163.92C337.264 163.92 337.931 164.067 338.558 164.36C339.198 164.64 339.764 165.08 340.258 165.68C340.764 166.267 341.158 167.027 341.438 167.96C341.731 168.88 341.878 169.98 341.878 171.26C341.878 172.66 341.724 173.867 341.418 174.88C341.111 175.88 340.684 176.707 340.138 177.36C339.604 178.013 338.998 178.5 338.318 178.82C337.638 179.127 336.931 179.28 336.198 179.28ZM348.795 179.28C347.848 179.28 347.001 179.113 346.255 178.78C345.508 178.447 344.915 177.98 344.475 177.38C344.048 176.78 343.835 176.093 343.835 175.32C343.835 174.68 343.948 174.12 344.175 173.64C344.415 173.147 344.728 172.72 345.115 172.36C345.501 172 345.921 171.7 346.375 171.46V171.36C345.815 170.96 345.348 170.473 344.975 169.9C344.601 169.313 344.415 168.633 344.415 167.86C344.415 167.06 344.608 166.367 344.995 165.78C345.381 165.193 345.908 164.74 346.575 164.42C347.255 164.1 348.021 163.94 348.875 163.94C349.755 163.94 350.515 164.107 351.155 164.44C351.795 164.76 352.288 165.213 352.635 165.8C352.995 166.387 353.175 167.08 353.175 167.88C353.175 168.36 353.081 168.813 352.895 169.24C352.721 169.667 352.488 170.053 352.195 170.4C351.915 170.733 351.608 171.02 351.275 171.26V171.36C351.741 171.6 352.161 171.9 352.535 172.26C352.908 172.62 353.208 173.053 353.435 173.56C353.661 174.053 353.775 174.64 353.775 175.32C353.775 176.067 353.561 176.74 353.135 177.34C352.721 177.94 352.141 178.413 351.395 178.76C350.648 179.107 349.781 179.28 348.795 179.28ZM349.715 170.54C350.075 170.153 350.341 169.753 350.515 169.34C350.688 168.927 350.775 168.5 350.775 168.06C350.775 167.66 350.695 167.307 350.535 167C350.388 166.68 350.168 166.433 349.875 166.26C349.581 166.087 349.228 166 348.815 166C348.308 166 347.881 166.16 347.535 166.48C347.188 166.8 347.015 167.26 347.015 167.86C347.015 168.313 347.128 168.707 347.355 169.04C347.595 169.36 347.921 169.64 348.335 169.88C348.748 170.107 349.208 170.327 349.715 170.54ZM348.855 177.2C349.281 177.2 349.655 177.127 349.975 176.98C350.308 176.82 350.568 176.593 350.755 176.3C350.941 175.993 351.035 175.633 351.035 175.22C351.035 174.833 350.948 174.5 350.775 174.22C350.615 173.927 350.388 173.673 350.095 173.46C349.801 173.233 349.455 173.027 349.055 172.84C348.655 172.653 348.215 172.453 347.735 172.24C347.335 172.573 347.008 172.98 346.755 173.46C346.501 173.927 346.375 174.44 346.375 175C346.375 175.44 346.481 175.827 346.695 176.16C346.921 176.48 347.221 176.733 347.595 176.92C347.968 177.107 348.388 177.2 348.855 177.2Z" fill="white"/>
<rect x="289" y="218" width="211" height="40" fill="#FFEDED"/>
<rect x="289" y="218" width="111.879" height="40" fill="#FFA59B"/>
<path d="M306.54 245.28C305.753 245.28 305.053 245.187 304.44 245C303.827 244.813 303.28 244.567 302.8 244.26C302.32 243.953 301.893 243.62 301.52 243.26L302.88 241.38C303.16 241.66 303.46 241.913 303.78 242.14C304.113 242.367 304.473 242.547 304.86 242.68C305.26 242.813 305.687 242.88 306.14 242.88C306.647 242.88 307.093 242.773 307.48 242.56C307.88 242.347 308.193 242.04 308.42 241.64C308.647 241.227 308.76 240.733 308.76 240.16C308.76 239.307 308.527 238.647 308.06 238.18C307.607 237.713 307.007 237.48 306.26 237.48C305.833 237.48 305.467 237.54 305.16 237.66C304.853 237.767 304.48 237.96 304.04 238.24L302.7 237.38L303.1 230.18H311.02V232.66H305.64L305.36 235.8C305.653 235.667 305.94 235.567 306.22 235.5C306.5 235.433 306.807 235.4 307.14 235.4C307.967 235.4 308.727 235.567 309.42 235.9C310.113 236.22 310.667 236.727 311.08 237.42C311.493 238.113 311.7 239 311.7 240.08C311.7 241.173 311.453 242.113 310.96 242.9C310.48 243.673 309.847 244.267 309.06 244.68C308.287 245.08 307.447 245.28 306.54 245.28ZM318.257 245.28C317.484 245.28 316.79 245.187 316.177 245C315.564 244.827 315.017 244.587 314.537 244.28C314.07 243.96 313.664 243.607 313.317 243.22L314.697 241.36C315.15 241.773 315.644 242.133 316.177 242.44C316.724 242.733 317.33 242.88 317.997 242.88C318.504 242.88 318.944 242.8 319.317 242.64C319.704 242.48 319.997 242.247 320.197 241.94C320.41 241.633 320.517 241.26 320.517 240.82C320.517 240.327 320.397 239.907 320.157 239.56C319.93 239.2 319.524 238.927 318.937 238.74C318.35 238.553 317.524 238.46 316.457 238.46V236.34C317.364 236.34 318.077 236.247 318.597 236.06C319.117 235.86 319.484 235.593 319.697 235.26C319.924 234.913 320.037 234.52 320.037 234.08C320.037 233.507 319.864 233.06 319.517 232.74C319.17 232.407 318.684 232.24 318.057 232.24C317.537 232.24 317.05 232.36 316.597 232.6C316.157 232.827 315.717 233.14 315.277 233.54L313.757 231.72C314.41 231.173 315.097 230.74 315.817 230.42C316.537 230.087 317.33 229.92 318.197 229.92C319.144 229.92 319.977 230.073 320.697 230.38C321.43 230.687 321.997 231.133 322.397 231.72C322.797 232.307 322.997 233.02 322.997 233.86C322.997 234.66 322.784 235.347 322.357 235.92C321.93 236.493 321.324 236.933 320.537 237.24V237.34C321.084 237.487 321.577 237.727 322.017 238.06C322.47 238.38 322.824 238.787 323.077 239.28C323.344 239.773 323.477 240.347 323.477 241C323.477 241.893 323.237 242.66 322.757 243.3C322.29 243.94 321.657 244.433 320.857 244.78C320.07 245.113 319.204 245.28 318.257 245.28ZM327.854 245.28C327.32 245.28 326.88 245.093 326.534 244.72C326.187 244.347 326.014 243.893 326.014 243.36C326.014 242.8 326.187 242.34 326.534 241.98C326.88 241.62 327.32 241.44 327.854 241.44C328.374 241.44 328.807 241.62 329.154 241.98C329.5 242.34 329.674 242.8 329.674 243.36C329.674 243.893 329.5 244.347 329.154 244.72C328.807 245.093 328.374 245.28 327.854 245.28ZM331.958 245V243.3C333.304 242.1 334.451 240.987 335.398 239.96C336.358 238.933 337.091 237.98 337.598 237.1C338.104 236.207 338.358 235.38 338.358 234.62C338.358 234.14 338.271 233.72 338.098 233.36C337.924 233 337.671 232.727 337.338 232.54C337.018 232.34 336.618 232.24 336.138 232.24C335.604 232.24 335.111 232.393 334.658 232.7C334.218 232.993 333.811 233.347 333.438 233.76L331.798 232.18C332.491 231.433 333.198 230.873 333.918 230.5C334.651 230.113 335.518 229.92 336.518 229.92C337.451 229.92 338.264 230.113 338.958 230.5C339.664 230.873 340.211 231.4 340.598 232.08C340.984 232.76 341.178 233.56 341.178 234.48C341.178 235.373 340.951 236.287 340.498 237.22C340.058 238.14 339.464 239.06 338.718 239.98C337.971 240.9 337.144 241.807 336.238 242.7C336.624 242.647 337.038 242.607 337.478 242.58C337.931 242.54 338.331 242.52 338.678 242.52H341.878V245H331.958ZM347.995 245.28C347.075 245.28 346.275 245.113 345.595 244.78C344.928 244.447 344.375 244.053 343.935 243.6L345.495 241.82C345.761 242.127 346.108 242.38 346.535 242.58C346.961 242.78 347.395 242.88 347.835 242.88C348.261 242.88 348.668 242.787 349.055 242.6C349.441 242.4 349.775 242.087 350.055 241.66C350.348 241.22 350.575 240.64 350.735 239.92C350.908 239.2 350.995 238.313 350.995 237.26C350.995 235.993 350.875 234.987 350.635 234.24C350.408 233.493 350.101 232.96 349.715 232.64C349.328 232.307 348.888 232.14 348.395 232.14C348.035 232.14 347.701 232.24 347.395 232.44C347.088 232.64 346.841 232.94 346.655 233.34C346.481 233.74 346.395 234.247 346.395 234.86C346.395 235.433 346.481 235.913 346.655 236.3C346.828 236.673 347.068 236.953 347.375 237.14C347.695 237.327 348.068 237.42 348.495 237.42C348.908 237.42 349.335 237.293 349.775 237.04C350.215 236.787 350.615 236.36 350.975 235.76L351.115 237.74C350.861 238.1 350.548 238.413 350.175 238.68C349.815 238.947 349.441 239.153 349.055 239.3C348.668 239.447 348.295 239.52 347.935 239.52C347.121 239.52 346.395 239.353 345.755 239.02C345.115 238.673 344.608 238.16 344.235 237.48C343.875 236.787 343.695 235.913 343.695 234.86C343.695 233.847 343.908 232.973 344.335 232.24C344.761 231.493 345.328 230.92 346.035 230.52C346.741 230.12 347.515 229.92 348.355 229.92C349.061 229.92 349.728 230.067 350.355 230.36C350.995 230.64 351.561 231.08 352.055 231.68C352.561 232.267 352.955 233.027 353.235 233.96C353.528 234.88 353.675 235.98 353.675 237.26C353.675 238.66 353.521 239.867 353.215 240.88C352.908 241.88 352.481 242.707 351.935 243.36C351.401 244.013 350.795 244.5 350.115 244.82C349.435 245.127 348.728 245.28 347.995 245.28Z" fill="white"/>
<path d="M241.585 67.94C240.895 66.82 240.355 65.645 239.965 64.415C239.575 63.175 239.38 61.815 239.38 60.335C239.38 58.865 239.575 57.51 239.965 56.27C240.355 55.03 240.895 53.85 241.585 52.73L242.425 53.12C241.785 54.19 241.305 55.345 240.985 56.585C240.675 57.815 240.52 59.065 240.52 60.335C240.52 61.615 240.675 62.875 240.985 64.115C241.305 65.345 241.785 66.495 242.425 67.565L241.585 67.94ZM246.143 60.74C245.643 60.74 245.203 60.605 244.823 60.335C244.453 60.055 244.163 59.655 243.953 59.135C243.753 58.615 243.653 57.985 243.653 57.245C243.653 56.505 243.753 55.88 243.953 55.37C244.163 54.86 244.453 54.475 244.823 54.215C245.203 53.945 245.643 53.81 246.143 53.81C246.653 53.81 247.093 53.945 247.463 54.215C247.843 54.475 248.133 54.86 248.333 55.37C248.543 55.88 248.648 56.505 248.648 57.245C248.648 57.985 248.543 58.615 248.333 59.135C248.133 59.655 247.843 60.055 247.463 60.335C247.093 60.605 246.653 60.74 246.143 60.74ZM246.143 59.9C246.583 59.9 246.933 59.68 247.193 59.24C247.463 58.79 247.598 58.125 247.598 57.245C247.598 56.365 247.463 55.715 247.193 55.295C246.933 54.865 246.583 54.65 246.143 54.65C245.713 54.65 245.363 54.865 245.093 55.295C244.823 55.715 244.688 56.365 244.688 57.245C244.688 58.125 244.823 58.79 245.093 59.24C245.363 59.68 245.713 59.9 246.143 59.9ZM246.458 65.195L252.533 53.81H253.463L247.388 65.195H246.458ZM253.808 65.195C253.308 65.195 252.868 65.06 252.488 64.79C252.118 64.52 251.828 64.125 251.618 63.605C251.418 63.085 251.318 62.455 251.318 61.715C251.318 60.975 251.418 60.35 251.618 59.84C251.828 59.33 252.118 58.94 252.488 58.67C252.868 58.4 253.308 58.265 253.808 58.265C254.308 58.265 254.743 58.4 255.113 58.67C255.493 58.94 255.783 59.33 255.983 59.84C256.193 60.35 256.298 60.975 256.298 61.715C256.298 62.455 256.193 63.085 255.983 63.605C255.783 64.125 255.493 64.52 255.113 64.79C254.743 65.06 254.308 65.195 253.808 65.195ZM253.808 64.355C254.238 64.355 254.588 64.135 254.858 63.695C255.138 63.255 255.278 62.595 255.278 61.715C255.278 60.835 255.138 60.18 254.858 59.75C254.588 59.32 254.238 59.105 253.808 59.105C253.378 59.105 253.023 59.32 252.743 59.75C252.473 60.18 252.338 60.835 252.338 61.715C252.338 62.595 252.473 63.255 252.743 63.695C253.023 64.135 253.378 64.355 253.808 64.355ZM258.367 67.94L257.512 67.565C258.162 66.495 258.647 65.345 258.967 64.115C259.287 62.875 259.447 61.615 259.447 60.335C259.447 59.065 259.287 57.815 258.967 56.585C258.647 55.345 258.162 54.19 257.512 53.12L258.367 52.73C259.067 53.85 259.607 55.03 259.987 56.27C260.377 57.51 260.572 58.865 260.572 60.335C260.572 61.815 260.377 63.175 259.987 64.415C259.607 65.645 259.067 66.82 258.367 67.94Z" fill="#4C4C4C"/>
</svg>
