<svg width="316" height="240" viewBox="0 0 316 240" fill="none" xmlns="http://www.w3.org/2000/svg">
<rect x="316" y="143" width="18.5506" height="45.9999" transform="rotate(-180 316 143)" fill="#F5F5F5"/>
<rect x="12.7935" y="143" width="12.7935" height="45.9999" transform="rotate(-180 12.7935 143)" fill="#3A5F70"/>
<rect x="297.449" y="143" width="84.4372" height="45.9999" transform="rotate(-180 297.449 143)" fill="#E3E3E3"/>
<rect x="213" y="143" width="98" height="45.9999" transform="rotate(-180 213 143)" fill="#4FC1F2"/>
<rect x="115" y="143" width="102.348" height="45.9999" transform="rotate(-180 115 143)" fill="#189FD9"/>
<path d="M247.21 198.15H255.19V199.17H247.21V198.15ZM247.54 205.92H254.725V206.94H247.54V205.92ZM246.7 209.805H255.325V210.855H246.7V209.805ZM250.54 206.4H251.665V210.45H250.54V206.4ZM248.635 199.665L249.625 199.92C249.425 200.3 249.19 200.715 248.92 201.165C248.65 201.605 248.39 202.015 248.14 202.395C248.47 202.835 248.785 203.295 249.085 203.775C249.395 204.255 249.63 204.665 249.79 205.005L248.86 205.41C248.7 205.02 248.455 204.555 248.125 204.015C247.795 203.475 247.435 202.945 247.045 202.425C247.245 202.115 247.445 201.795 247.645 201.465C247.845 201.125 248.03 200.8 248.2 200.49C248.38 200.17 248.525 199.895 248.635 199.665ZM251.245 199.665L252.235 199.935C252.025 200.305 251.78 200.715 251.5 201.165C251.22 201.605 250.96 202.015 250.72 202.395C250.94 202.675 251.16 202.975 251.38 203.295C251.6 203.605 251.8 203.905 251.98 204.195C252.17 204.485 252.315 204.74 252.415 204.96L251.5 205.38C251.33 204.99 251.075 204.525 250.735 203.985C250.395 203.445 250.015 202.92 249.595 202.41C249.815 202.1 250.025 201.78 250.225 201.45C250.435 201.12 250.63 200.8 250.81 200.49C250.99 200.18 251.135 199.905 251.245 199.665ZM253.84 199.665L254.83 199.92C254.61 200.3 254.36 200.715 254.08 201.165C253.8 201.605 253.535 202.015 253.285 202.395C253.525 202.675 253.755 202.975 253.975 203.295C254.205 203.605 254.42 203.905 254.62 204.195C254.82 204.485 254.975 204.745 255.085 204.975L254.17 205.41C253.99 205.02 253.715 204.555 253.345 204.015C252.975 203.465 252.575 202.935 252.145 202.425C252.365 202.115 252.58 201.795 252.79 201.465C253 201.125 253.195 200.8 253.375 200.49C253.565 200.17 253.72 199.895 253.84 199.665ZM245.185 203.31L246.04 203.07C246.18 203.4 246.315 203.76 246.445 204.15C246.585 204.53 246.705 204.9 246.805 205.26C246.915 205.61 246.995 205.915 247.045 206.175L246.115 206.49C246.075 206.22 246.005 205.905 245.905 205.545C245.805 205.175 245.69 204.795 245.56 204.405C245.44 204.015 245.315 203.65 245.185 203.31ZM243.82 207.18L244.69 207.03C244.78 207.54 244.865 208.09 244.945 208.68C245.025 209.27 245.075 209.78 245.095 210.21L244.195 210.375C244.175 209.945 244.13 209.435 244.06 208.845C243.99 208.245 243.91 207.69 243.82 207.18ZM242.26 207.045L243.22 207.21C243.14 207.88 243.03 208.555 242.89 209.235C242.76 209.905 242.615 210.475 242.455 210.945C242.385 210.905 242.29 210.865 242.17 210.825C242.06 210.785 241.945 210.74 241.825 210.69C241.705 210.65 241.605 210.62 241.525 210.6C241.705 210.14 241.855 209.59 241.975 208.95C242.095 208.31 242.19 207.675 242.26 207.045ZM241.885 203.01C241.865 202.94 241.835 202.845 241.795 202.725C241.755 202.595 241.71 202.465 241.66 202.335C241.62 202.205 241.58 202.095 241.54 202.005C241.67 201.975 241.8 201.89 241.93 201.75C242.07 201.6 242.215 201.41 242.365 201.18C242.485 201.03 242.66 200.76 242.89 200.37C243.13 199.97 243.38 199.51 243.64 198.99C243.91 198.46 244.15 197.92 244.36 197.37L245.365 197.805C244.975 198.635 244.535 199.465 244.045 200.295C243.565 201.115 243.075 201.825 242.575 202.425V202.44C242.575 202.44 242.54 202.46 242.47 202.5C242.4 202.54 242.315 202.59 242.215 202.65C242.125 202.71 242.045 202.77 241.975 202.83C241.915 202.89 241.885 202.95 241.885 203.01ZM241.885 203.01L241.855 202.185L242.395 201.87L245.065 201.63C245.035 201.77 245.01 201.93 244.99 202.11C244.98 202.29 244.975 202.435 244.975 202.545C244.365 202.615 243.87 202.675 243.49 202.725C243.12 202.765 242.825 202.805 242.605 202.845C242.395 202.875 242.235 202.905 242.125 202.935C242.025 202.955 241.945 202.98 241.885 203.01ZM241.99 206.4C241.97 206.32 241.94 206.22 241.9 206.1C241.86 205.97 241.815 205.84 241.765 205.71C241.715 205.57 241.67 205.455 241.63 205.365C241.79 205.325 241.955 205.22 242.125 205.05C242.305 204.87 242.51 204.64 242.74 204.36C242.85 204.22 243.02 203.995 243.25 203.685C243.48 203.375 243.74 203.005 244.03 202.575C244.32 202.145 244.61 201.68 244.9 201.18C245.2 200.68 245.47 200.18 245.71 199.68L246.67 200.235C246.3 200.915 245.895 201.59 245.455 202.26C245.025 202.93 244.575 203.57 244.105 204.18C243.635 204.78 243.165 205.325 242.695 205.815V205.845C242.695 205.845 242.66 205.865 242.59 205.905C242.52 205.935 242.435 205.98 242.335 206.04C242.245 206.09 242.165 206.15 242.095 206.22C242.025 206.28 241.99 206.34 241.99 206.4ZM241.99 206.4L241.945 205.56L242.485 205.215L246.175 204.735C246.155 204.875 246.14 205.035 246.13 205.215C246.12 205.385 246.12 205.525 246.13 205.635C245.29 205.765 244.61 205.87 244.09 205.95C243.58 206.03 243.185 206.1 242.905 206.16C242.625 206.21 242.42 206.255 242.29 206.295C242.16 206.325 242.06 206.36 241.99 206.4ZM245.26 206.88L246.07 206.625C246.22 207.025 246.37 207.465 246.52 207.945C246.68 208.415 246.795 208.825 246.865 209.175L246.01 209.46C245.95 209.11 245.845 208.695 245.695 208.215C245.555 207.735 245.41 207.29 245.26 206.88ZM263.11 204.705H264.265V211.2H263.11V204.705ZM260.695 202.635V204.105H266.38V202.635H260.695ZM259.615 201.78H267.52V204.96H259.615V201.78ZM258.28 206.205H268.315V207.225H259.405V210.525H258.28V206.205ZM267.76 206.205H268.9V209.355C268.9 209.645 268.86 209.87 268.78 210.03C268.71 210.2 268.555 210.33 268.315 210.42C268.075 210.5 267.76 210.545 267.37 210.555C266.98 210.575 266.495 210.585 265.915 210.585C265.885 210.435 265.83 210.265 265.75 210.075C265.68 209.885 265.605 209.715 265.525 209.565C265.825 209.575 266.105 209.585 266.365 209.595C266.635 209.595 266.865 209.595 267.055 209.595C267.245 209.595 267.38 209.595 267.46 209.595C267.58 209.575 267.66 209.55 267.7 209.52C267.74 209.49 267.76 209.43 267.76 209.34V206.205ZM263.02 197.385H264.16V200.13H263.02V197.385ZM257.29 199.725H269.815V202.95H268.705V200.715H258.37V202.95H257.29V199.725ZM258.52 197.955L259.54 197.535C259.78 197.805 260.015 198.105 260.245 198.435C260.485 198.765 260.67 199.05 260.8 199.29L259.735 199.8C259.625 199.54 259.45 199.235 259.21 198.885C258.98 198.535 258.75 198.225 258.52 197.955ZM267.445 197.52L268.615 197.925C268.365 198.245 268.105 198.57 267.835 198.9C267.565 199.22 267.32 199.495 267.1 199.725L266.17 199.35C266.32 199.19 266.47 199 266.62 198.78C266.78 198.56 266.93 198.34 267.07 198.12C267.22 197.89 267.345 197.69 267.445 197.52ZM271.945 199.35H285.085V200.4H271.945V199.35ZM275.5 204.705H282.64V205.665H275.5V204.705ZM282.22 202.14H283.33V209.79C283.33 210.12 283.285 210.375 283.195 210.555C283.105 210.745 282.935 210.89 282.685 210.99C282.435 211.07 282.095 211.115 281.665 211.125C281.245 211.145 280.715 211.155 280.075 211.155C280.045 211.005 279.995 210.825 279.925 210.615C279.855 210.405 279.78 210.225 279.7 210.075C280.03 210.085 280.34 210.09 280.63 210.09C280.93 210.1 281.19 210.1 281.41 210.09C281.63 210.09 281.79 210.09 281.89 210.09C282.02 210.09 282.105 210.065 282.145 210.015C282.195 209.975 282.22 209.895 282.22 209.775V202.14ZM276.865 197.4L278.005 197.67C277.665 198.75 277.235 199.82 276.715 200.88C276.205 201.93 275.59 202.915 274.87 203.835C274.15 204.745 273.32 205.535 272.38 206.205C272.33 206.115 272.26 206.02 272.17 205.92C272.08 205.81 271.99 205.705 271.9 205.605C271.81 205.505 271.725 205.415 271.645 205.335C272.315 204.885 272.925 204.36 273.475 203.76C274.025 203.15 274.515 202.495 274.945 201.795C275.375 201.095 275.75 200.375 276.07 199.635C276.39 198.885 276.655 198.14 276.865 197.4ZM275.395 207.24H282.625V208.215H275.395V207.24ZM275.41 202.14H282.55V203.16H275.41V202.14ZM274.81 202.14H275.935V206.13C275.935 206.54 275.915 206.975 275.875 207.435C275.835 207.895 275.75 208.355 275.62 208.815C275.5 209.275 275.325 209.71 275.095 210.12C274.875 210.54 274.58 210.925 274.21 211.275C274.17 211.195 274.1 211.095 274 210.975C273.9 210.865 273.795 210.755 273.685 210.645C273.585 210.535 273.495 210.455 273.415 210.405C273.845 209.995 274.155 209.55 274.345 209.07C274.545 208.59 274.67 208.095 274.72 207.585C274.78 207.075 274.81 206.585 274.81 206.115V202.14ZM286.735 200.295H290.515V201.345H286.735V200.295ZM288.325 197.4H289.3V211.185H288.325V197.4ZM288.31 200.925L288.895 201.18C288.815 201.76 288.705 202.37 288.565 203.01C288.425 203.65 288.265 204.28 288.085 204.9C287.915 205.51 287.73 206.08 287.53 206.61C287.34 207.14 287.135 207.59 286.915 207.96C286.885 207.85 286.84 207.73 286.78 207.6C286.72 207.46 286.655 207.325 286.585 207.195C286.525 207.065 286.465 206.955 286.405 206.865C286.605 206.535 286.8 206.14 286.99 205.68C287.18 205.21 287.36 204.71 287.53 204.18C287.7 203.64 287.85 203.09 287.98 202.53C288.12 201.97 288.23 201.435 288.31 200.925ZM289.21 202.2C289.28 202.29 289.38 202.45 289.51 202.68C289.65 202.9 289.8 203.14 289.96 203.4C290.12 203.66 290.265 203.905 290.395 204.135C290.525 204.355 290.62 204.52 290.68 204.63L290.11 205.455C290.05 205.285 289.96 205.07 289.84 204.81C289.72 204.55 289.59 204.28 289.45 204C289.32 203.72 289.19 203.46 289.06 203.22C288.94 202.97 288.84 202.78 288.76 202.65L289.21 202.2ZM290.83 205.155H300.04V206.07H290.83V205.155ZM292.135 207.15L292.81 206.55C293.07 206.74 293.335 206.95 293.605 207.18C293.885 207.41 294.15 207.64 294.4 207.87C294.65 208.09 294.855 208.285 295.015 208.455L294.31 209.13C294.15 208.95 293.945 208.745 293.695 208.515C293.455 208.285 293.2 208.05 292.93 207.81C292.66 207.56 292.395 207.34 292.135 207.15ZM297.04 204.195L297.625 203.655C297.895 203.805 298.18 203.985 298.48 204.195C298.78 204.405 299.015 204.585 299.185 204.735L298.6 205.35C298.43 205.18 298.195 204.985 297.895 204.765C297.605 204.545 297.32 204.355 297.04 204.195ZM298.405 206.22L299.365 206.58C298.865 207.6 298.155 208.495 297.235 209.265C296.315 210.025 295.265 210.64 294.085 211.11C294.025 211.01 293.93 210.89 293.8 210.75C293.68 210.61 293.57 210.495 293.47 210.405C294.61 209.965 295.61 209.385 296.47 208.665C297.33 207.945 297.975 207.13 298.405 206.22ZM294.595 197.505H295.57C295.61 199.285 295.705 200.93 295.855 202.44C296.005 203.95 296.215 205.27 296.485 206.4C296.765 207.52 297.115 208.4 297.535 209.04C297.965 209.68 298.48 210.03 299.08 210.09C299.24 210.1 299.37 209.965 299.47 209.685C299.57 209.405 299.65 208.995 299.71 208.455C299.78 208.525 299.86 208.6 299.95 208.68C300.05 208.75 300.145 208.815 300.235 208.875C300.325 208.935 300.405 208.98 300.475 209.01C300.375 209.57 300.255 210.01 300.115 210.33C299.985 210.65 299.835 210.875 299.665 211.005C299.505 211.135 299.32 211.195 299.11 211.185C298.44 211.145 297.86 210.895 297.37 210.435C296.89 209.975 296.48 209.335 296.14 208.515C295.81 207.695 295.54 206.725 295.33 205.605C295.12 204.485 294.955 203.245 294.835 201.885C294.725 200.515 294.645 199.055 294.595 197.505ZM293.275 202.02L293.995 201.825C294.155 202.185 294.305 202.58 294.445 203.01C294.595 203.43 294.7 203.78 294.76 204.06L294.01 204.315C293.95 204.015 293.85 203.65 293.71 203.22C293.58 202.79 293.435 202.39 293.275 202.02ZM290.995 201.615C290.975 201.525 290.935 201.39 290.875 201.21C290.825 201.03 290.775 200.885 290.725 200.775C290.815 200.755 290.905 200.7 290.995 200.61C291.095 200.51 291.195 200.385 291.295 200.235C291.365 200.135 291.475 199.95 291.625 199.68C291.775 199.41 291.935 199.095 292.105 198.735C292.285 198.375 292.435 198.005 292.555 197.625L293.41 197.91C293.15 198.51 292.855 199.1 292.525 199.68C292.195 200.25 291.865 200.73 291.535 201.12V201.15C291.535 201.15 291.49 201.175 291.4 201.225C291.31 201.275 291.22 201.335 291.13 201.405C291.04 201.475 290.995 201.545 290.995 201.615ZM290.995 201.615L290.98 200.955L291.43 200.685L293.545 200.46C293.485 200.58 293.425 200.715 293.365 200.865C293.315 201.015 293.275 201.13 293.245 201.21C292.675 201.28 292.235 201.34 291.925 201.39C291.625 201.44 291.41 201.485 291.28 201.525C291.16 201.555 291.065 201.585 290.995 201.615ZM291.13 204.195C291.13 204.125 291.11 204.04 291.07 203.94C291.04 203.84 291.005 203.735 290.965 203.625C290.925 203.505 290.89 203.41 290.86 203.34C290.98 203.31 291.1 203.24 291.22 203.13C291.35 203.01 291.485 202.855 291.625 202.665C291.725 202.545 291.89 202.325 292.12 202.005C292.36 201.675 292.615 201.29 292.885 200.85C293.155 200.41 293.395 199.96 293.605 199.5L294.43 199.815C294.02 200.545 293.57 201.255 293.08 201.945C292.6 202.635 292.125 203.22 291.655 203.7V203.715C291.655 203.715 291.61 203.74 291.52 203.79C291.44 203.84 291.355 203.905 291.265 203.985C291.175 204.055 291.13 204.125 291.13 204.195ZM291.13 204.195L291.115 203.49L291.535 203.22L294.025 202.92C294.035 203.03 294.06 203.155 294.1 203.295C294.14 203.435 294.175 203.55 294.205 203.64C293.585 203.73 293.085 203.805 292.705 203.865C292.325 203.915 292.03 203.96 291.82 204C291.61 204.04 291.455 204.075 291.355 204.105C291.265 204.135 291.19 204.165 291.13 204.195ZM298.675 201.765L299.365 201.555C299.535 201.915 299.7 202.31 299.86 202.74C300.02 203.16 300.13 203.51 300.19 203.79L299.47 204.06C299.4 203.77 299.29 203.405 299.14 202.965C298.99 202.525 298.835 202.125 298.675 201.765ZM296.38 201.315C296.36 201.225 296.32 201.09 296.26 200.91C296.2 200.73 296.145 200.585 296.095 200.475C296.185 200.455 296.27 200.405 296.35 200.325C296.44 200.235 296.525 200.12 296.605 199.98C296.675 199.88 296.775 199.71 296.905 199.47C297.035 199.23 297.175 198.945 297.325 198.615C297.475 198.275 297.605 197.935 297.715 197.595L298.54 197.865C298.32 198.425 298.06 198.97 297.76 199.5C297.47 200.02 297.185 200.46 296.905 200.82V200.835C296.905 200.835 296.86 200.865 296.77 200.925C296.69 200.975 296.605 201.035 296.515 201.105C296.425 201.175 296.38 201.245 296.38 201.315ZM296.38 201.315L296.365 200.655L296.8 200.37L298.81 200.175C298.76 200.295 298.705 200.43 298.645 200.58C298.595 200.72 298.555 200.835 298.525 200.925C297.985 200.995 297.565 201.055 297.265 201.105C296.975 201.155 296.77 201.195 296.65 201.225C296.53 201.255 296.44 201.285 296.38 201.315ZM296.53 203.895C296.52 203.835 296.495 203.755 296.455 203.655C296.425 203.545 296.39 203.435 296.35 203.325C296.32 203.205 296.29 203.105 296.26 203.025C296.37 202.995 296.485 202.925 296.605 202.815C296.725 202.695 296.85 202.54 296.98 202.35C297.09 202.22 297.255 201.995 297.475 201.675C297.695 201.345 297.935 200.96 298.195 200.52C298.455 200.07 298.68 199.62 298.87 199.17L299.725 199.5C299.345 200.23 298.92 200.94 298.45 201.63C297.99 202.32 297.53 202.91 297.07 203.4V203.415C297.07 203.415 297.025 203.445 296.935 203.505C296.855 203.555 296.765 203.62 296.665 203.7C296.575 203.77 296.53 203.835 296.53 203.895ZM296.53 203.895L296.515 203.22L296.935 202.935L299.41 202.635C299.43 202.745 299.455 202.87 299.485 203.01C299.525 203.14 299.56 203.25 299.59 203.34C298.97 203.43 298.47 203.505 298.09 203.565C297.71 203.625 297.415 203.675 297.205 203.715C297.005 203.755 296.855 203.79 296.755 203.82C296.665 203.84 296.59 203.865 296.53 203.895ZM291.97 205.5H292.945V206.295C292.945 206.785 292.875 207.325 292.735 207.915C292.605 208.495 292.37 209.07 292.03 209.64C291.69 210.21 291.205 210.735 290.575 211.215C290.525 211.135 290.45 211.05 290.35 210.96C290.26 210.88 290.165 210.795 290.065 210.705C289.975 210.625 289.895 210.565 289.825 210.525C290.415 210.095 290.86 209.635 291.16 209.145C291.47 208.645 291.68 208.145 291.79 207.645C291.91 207.145 291.97 206.685 291.97 206.265V205.5ZM304.42 202.485V204.735H312.535V202.485H304.42ZM303.445 201.705H313.555V205.5H303.445V201.705ZM305.905 200.13H311.14V200.94H305.905V200.13ZM307.975 201.99H308.935V205.125H307.975V201.99ZM305.32 202.935L306.145 202.65C306.335 202.92 306.51 203.215 306.67 203.535C306.84 203.845 306.96 204.12 307.03 204.36L306.175 204.675C306.115 204.435 306.005 204.15 305.845 203.82C305.685 203.49 305.51 203.195 305.32 202.935ZM310.735 202.59L311.695 202.905C311.525 203.225 311.35 203.545 311.17 203.865C310.99 204.185 310.825 204.455 310.675 204.675L309.88 204.405C310.02 204.155 310.175 203.855 310.345 203.505C310.515 203.155 310.645 202.85 310.735 202.59ZM304.33 206.22H312.82V211.14H311.68V207.03H305.44V211.185H304.33V206.22ZM304.99 208.035H312.16V208.845H304.99V208.035ZM305.005 209.88H312.175V210.675H305.005V209.88ZM308.395 197.34L309.385 197.715C308.865 198.395 308.22 199.015 307.45 199.575C306.68 200.125 305.845 200.61 304.945 201.03C304.045 201.45 303.135 201.81 302.215 202.11C302.175 202.03 302.115 201.935 302.035 201.825C301.965 201.715 301.885 201.605 301.795 201.495C301.715 201.385 301.64 201.295 301.57 201.225C302.48 200.975 303.365 200.665 304.225 200.295C305.095 199.925 305.89 199.49 306.61 198.99C307.33 198.49 307.925 197.94 308.395 197.34ZM309.04 197.85C309.39 198.21 309.81 198.56 310.3 198.9C310.8 199.23 311.34 199.54 311.92 199.83C312.5 200.11 313.1 200.36 313.72 200.58C314.35 200.8 314.97 200.98 315.58 201.12C315.45 201.22 315.315 201.36 315.175 201.54C315.045 201.71 314.935 201.865 314.845 202.005C314.245 201.835 313.63 201.625 313 201.375C312.37 201.115 311.755 200.82 311.155 200.49C310.565 200.16 310.015 199.805 309.505 199.425C308.995 199.045 308.55 198.645 308.17 198.225L309.04 197.85Z" fill="black"/>
<path d="M264.986 237.252C264.278 237.252 263.648 237.168 263.096 237C262.544 236.832 262.052 236.61 261.62 236.334C261.188 236.058 260.804 235.758 260.468 235.434L261.692 233.742C261.944 233.994 262.214 234.222 262.502 234.426C262.802 234.63 263.126 234.792 263.474 234.912C263.834 235.032 264.218 235.092 264.626 235.092C265.082 235.092 265.484 234.996 265.832 234.804C266.192 234.612 266.474 234.336 266.678 233.976C266.882 233.604 266.984 233.16 266.984 232.644C266.984 231.876 266.774 231.282 266.354 230.862C265.946 230.442 265.406 230.232 264.734 230.232C264.35 230.232 264.02 230.286 263.744 230.394C263.468 230.49 263.132 230.664 262.736 230.916L261.53 230.142L261.89 223.662H269.018V225.894H264.176L263.924 228.72C264.188 228.6 264.446 228.51 264.698 228.45C264.95 228.39 265.226 228.36 265.526 228.36C266.27 228.36 266.954 228.51 267.578 228.81C268.202 229.098 268.7 229.554 269.072 230.178C269.444 230.802 269.63 231.6 269.63 232.572C269.63 233.556 269.408 234.402 268.964 235.11C268.532 235.806 267.962 236.34 267.254 236.712C266.558 237.072 265.802 237.252 264.986 237.252ZM273.551 237.252C273.071 237.252 272.675 237.084 272.363 236.748C272.051 236.412 271.895 236.004 271.895 235.524C271.895 235.02 272.051 234.606 272.363 234.282C272.675 233.958 273.071 233.796 273.551 233.796C274.019 233.796 274.409 233.958 274.721 234.282C275.033 234.606 275.189 235.02 275.189 235.524C275.189 236.004 275.033 236.412 274.721 236.748C274.409 237.084 274.019 237.252 273.551 237.252ZM281.061 237.252C280.233 237.252 279.513 237.102 278.901 236.802C278.301 236.502 277.803 236.148 277.407 235.74L278.811 234.138C279.051 234.414 279.363 234.642 279.747 234.822C280.131 235.002 280.521 235.092 280.917 235.092C281.301 235.092 281.667 235.008 282.015 234.84C282.363 234.66 282.663 234.378 282.915 233.994C283.179 233.598 283.383 233.076 283.527 232.428C283.683 231.78 283.761 230.982 283.761 230.034C283.761 228.894 283.653 227.988 283.437 227.316C283.233 226.644 282.957 226.164 282.609 225.876C282.261 225.576 281.865 225.426 281.421 225.426C281.097 225.426 280.797 225.516 280.521 225.696C280.245 225.876 280.023 226.146 279.855 226.506C279.699 226.866 279.621 227.322 279.621 227.874C279.621 228.39 279.699 228.822 279.855 229.17C280.011 229.506 280.227 229.758 280.503 229.926C280.791 230.094 281.127 230.178 281.511 230.178C281.883 230.178 282.267 230.064 282.663 229.836C283.059 229.608 283.419 229.224 283.743 228.684L283.869 230.466C283.641 230.79 283.359 231.072 283.023 231.312C282.699 231.552 282.363 231.738 282.015 231.87C281.667 232.002 281.331 232.068 281.007 232.068C280.275 232.068 279.621 231.918 279.045 231.618C278.469 231.306 278.013 230.844 277.677 230.232C277.353 229.608 277.191 228.822 277.191 227.874C277.191 226.962 277.383 226.176 277.767 225.516C278.151 224.844 278.661 224.328 279.297 223.968C279.933 223.608 280.629 223.428 281.385 223.428C282.021 223.428 282.621 223.56 283.185 223.824C283.761 224.076 284.271 224.472 284.715 225.012C285.171 225.54 285.525 226.224 285.777 227.064C286.041 227.892 286.173 228.882 286.173 230.034C286.173 231.294 286.035 232.38 285.759 233.292C285.483 234.192 285.099 234.936 284.607 235.524C284.127 236.112 283.581 236.55 282.969 236.838C282.357 237.114 281.721 237.252 281.061 237.252ZM292.074 237.252C291.366 237.252 290.736 237.168 290.184 237C289.632 236.832 289.14 236.61 288.708 236.334C288.276 236.058 287.892 235.758 287.556 235.434L288.78 233.742C289.032 233.994 289.302 234.222 289.59 234.426C289.89 234.63 290.214 234.792 290.562 234.912C290.922 235.032 291.306 235.092 291.714 235.092C292.17 235.092 292.572 234.996 292.92 234.804C293.28 234.612 293.562 234.336 293.766 233.976C293.97 233.604 294.072 233.16 294.072 232.644C294.072 231.876 293.862 231.282 293.442 230.862C293.034 230.442 292.494 230.232 291.822 230.232C291.438 230.232 291.108 230.286 290.832 230.394C290.556 230.49 290.22 230.664 289.824 230.916L288.618 230.142L288.978 223.662H296.106V225.894H291.264L291.012 228.72C291.276 228.6 291.534 228.51 291.786 228.45C292.038 228.39 292.314 228.36 292.614 228.36C293.358 228.36 294.042 228.51 294.666 228.81C295.29 229.098 295.788 229.554 296.16 230.178C296.532 230.802 296.718 231.6 296.718 232.572C296.718 233.556 296.496 234.402 296.052 235.11C295.62 235.806 295.05 236.34 294.342 236.712C293.646 237.072 292.89 237.252 292.074 237.252ZM301.521 231.87C300.897 231.87 300.339 231.702 299.847 231.366C299.355 231.03 298.971 230.544 298.695 229.908C298.419 229.272 298.281 228.51 298.281 227.622C298.281 226.734 298.419 225.978 298.695 225.354C298.971 224.73 299.355 224.256 299.847 223.932C300.339 223.596 300.897 223.428 301.521 223.428C302.169 223.428 302.733 223.596 303.213 223.932C303.705 224.256 304.089 224.73 304.365 225.354C304.641 225.978 304.779 226.734 304.779 227.622C304.779 228.51 304.641 229.272 304.365 229.908C304.089 230.544 303.705 231.03 303.213 231.366C302.733 231.702 302.169 231.87 301.521 231.87ZM301.521 230.376C301.905 230.376 302.229 230.166 302.493 229.746C302.769 229.314 302.907 228.606 302.907 227.622C302.907 226.65 302.769 225.96 302.493 225.552C302.229 225.132 301.905 224.922 301.521 224.922C301.137 224.922 300.807 225.132 300.531 225.552C300.267 225.96 300.135 226.65 300.135 227.622C300.135 228.606 300.267 229.314 300.531 229.746C300.807 230.166 301.137 230.376 301.521 230.376ZM301.953 237.252L309.207 223.428H310.773L303.537 237.252H301.953ZM311.223 237.252C310.587 237.252 310.023 237.084 309.531 236.748C309.051 236.412 308.667 235.926 308.379 235.29C308.103 234.654 307.965 233.892 307.965 233.004C307.965 232.104 308.103 231.342 308.379 230.718C308.667 230.094 309.051 229.62 309.531 229.296C310.023 228.96 310.587 228.792 311.223 228.792C311.847 228.792 312.399 228.96 312.879 229.296C313.371 229.62 313.755 230.094 314.031 230.718C314.319 231.342 314.463 232.104 314.463 233.004C314.463 233.892 314.319 234.654 314.031 235.29C313.755 235.926 313.371 236.412 312.879 236.748C312.399 237.084 311.847 237.252 311.223 237.252ZM311.223 235.74C311.607 235.74 311.931 235.53 312.195 235.11C312.459 234.678 312.591 233.976 312.591 233.004C312.591 232.008 312.459 231.312 312.195 230.916C311.931 230.508 311.607 230.304 311.223 230.304C310.827 230.304 310.497 230.508 310.233 230.916C309.969 231.312 309.837 232.008 309.837 233.004C309.837 233.976 309.969 234.678 310.233 235.11C310.497 235.53 310.827 235.74 311.223 235.74Z" fill="black"/>
<path d="M159.615 201.315V202.8H165.375V201.315H159.615ZM159.615 199.005V200.46H165.375V199.005H159.615ZM158.565 198.12H166.455V203.685H158.565V198.12ZM166.035 204.87H167.085V210.015C167.085 210.305 167.045 210.53 166.965 210.69C166.885 210.85 166.735 210.97 166.515 211.05C166.295 211.13 165.995 211.18 165.615 211.2C165.235 211.22 164.755 211.225 164.175 211.215C164.155 211.085 164.11 210.93 164.04 210.75C163.98 210.57 163.915 210.41 163.845 210.27C164.285 210.28 164.68 210.285 165.03 210.285C165.39 210.285 165.625 210.28 165.735 210.27C165.855 210.27 165.935 210.25 165.975 210.21C166.015 210.18 166.035 210.115 166.035 210.015V204.87ZM161.955 198.465H162.96V208.215L161.955 208.32V198.465ZM159.405 208.035C160.105 207.985 160.94 207.92 161.91 207.84C162.89 207.75 163.885 207.655 164.895 207.555L164.925 208.425C163.985 208.535 163.05 208.645 162.12 208.755C161.2 208.855 160.365 208.95 159.615 209.04L159.405 208.035ZM163.8 206.58L164.46 206.355C164.65 206.665 164.83 206.995 165 207.345C165.17 207.695 165.325 208.035 165.465 208.365C165.615 208.695 165.73 208.985 165.81 209.235L165.105 209.505C165.025 209.255 164.915 208.96 164.775 208.62C164.645 208.28 164.495 207.935 164.325 207.585C164.155 207.225 163.98 206.89 163.8 206.58ZM156.99 197.46L158.07 197.775C157.75 198.625 157.38 199.465 156.96 200.295C156.55 201.115 156.1 201.89 155.61 202.62C155.13 203.34 154.63 203.985 154.11 204.555C154.07 204.465 154.01 204.35 153.93 204.21C153.86 204.07 153.78 203.93 153.69 203.79C153.61 203.64 153.535 203.525 153.465 203.445C153.935 202.955 154.385 202.39 154.815 201.75C155.255 201.11 155.66 200.425 156.03 199.695C156.41 198.955 156.73 198.21 156.99 197.46ZM155.43 201.345L156.495 200.28L156.51 200.295V211.185H155.43V201.345ZM157.365 204.87H166.485V205.83H157.365V204.87ZM157.875 204.24H158.94V211.2H157.875V204.24ZM174.93 198.6H176.025V211.125H174.93V198.6ZM169.95 201.36H180.6V202.305H171.015V211.2H169.95V201.36ZM180.12 201.36H181.2V209.955C181.2 210.255 181.155 210.485 181.065 210.645C180.985 210.815 180.84 210.94 180.63 211.02C180.41 211.1 180.105 211.15 179.715 211.17C179.335 211.19 178.86 211.2 178.29 211.2C178.27 211.07 178.225 210.91 178.155 210.72C178.085 210.53 178.015 210.37 177.945 210.24C178.375 210.25 178.765 210.255 179.115 210.255C179.475 210.265 179.715 210.265 179.835 210.255C179.945 210.245 180.02 210.22 180.06 210.18C180.1 210.14 180.12 210.065 180.12 209.955V201.36ZM172.11 199.35L173.13 199.71C172.81 200.05 172.435 200.385 172.005 200.715C171.585 201.035 171.145 201.335 170.685 201.615C170.225 201.895 169.78 202.14 169.35 202.35C169.29 202.28 169.205 202.2 169.095 202.11C168.995 202.01 168.89 201.915 168.78 201.825C168.68 201.725 168.585 201.65 168.495 201.6C169.165 201.33 169.825 201 170.475 200.61C171.135 200.21 171.68 199.79 172.11 199.35ZM177.705 199.875L178.53 199.23C178.99 199.43 179.465 199.665 179.955 199.935C180.445 200.195 180.91 200.46 181.35 200.73C181.8 200.99 182.175 201.23 182.475 201.45L181.635 202.17C181.345 201.94 180.975 201.69 180.525 201.42C180.085 201.14 179.62 200.865 179.13 200.595C178.64 200.315 178.165 200.075 177.705 199.875ZM173.565 202.635L174.285 202.815C173.995 203.425 173.635 204.02 173.205 204.6C172.785 205.17 172.35 205.655 171.9 206.055C171.84 205.995 171.745 205.92 171.615 205.83C171.485 205.73 171.375 205.66 171.285 205.62C171.735 205.24 172.16 204.79 172.56 204.27C172.97 203.74 173.305 203.195 173.565 202.635ZM171.54 203.7L171.99 203.16C172.3 203.31 172.61 203.485 172.92 203.685C173.24 203.885 173.535 204.09 173.805 204.3C174.085 204.5 174.31 204.685 174.48 204.855L174.015 205.47C173.835 205.28 173.61 205.08 173.34 204.87C173.07 204.65 172.775 204.44 172.455 204.24C172.145 204.03 171.84 203.85 171.54 203.7ZM173.565 206.13L174.315 206.31C174.035 207.03 173.675 207.71 173.235 208.35C172.795 208.98 172.33 209.515 171.84 209.955C171.77 209.895 171.67 209.815 171.54 209.715C171.41 209.615 171.295 209.54 171.195 209.49C171.695 209.08 172.15 208.58 172.56 207.99C172.98 207.4 173.315 206.78 173.565 206.13ZM171.51 207.195L171.96 206.655C172.28 206.825 172.605 207.03 172.935 207.27C173.265 207.5 173.57 207.735 173.85 207.975C174.14 208.205 174.37 208.415 174.54 208.605L174.09 209.22C173.9 209.01 173.665 208.785 173.385 208.545C173.105 208.305 172.8 208.065 172.47 207.825C172.15 207.585 171.83 207.375 171.51 207.195ZM178.56 202.635L179.28 202.815C178.99 203.445 178.625 204.05 178.185 204.63C177.755 205.2 177.315 205.685 176.865 206.085C176.805 206.035 176.71 205.965 176.58 205.875C176.45 205.775 176.335 205.7 176.235 205.65C176.715 205.27 177.155 204.815 177.555 204.285C177.965 203.755 178.3 203.205 178.56 202.635ZM176.475 203.64L176.925 203.115C177.245 203.275 177.57 203.46 177.9 203.67C178.23 203.88 178.54 204.095 178.83 204.315C179.12 204.525 179.35 204.725 179.52 204.915L179.055 205.515C178.865 205.325 178.625 205.115 178.335 204.885C178.055 204.655 177.75 204.43 177.42 204.21C177.1 203.99 176.785 203.8 176.475 203.64ZM178.62 206.115L179.37 206.295C179.08 207.005 178.71 207.675 178.26 208.305C177.81 208.935 177.335 209.465 176.835 209.895C176.765 209.835 176.665 209.755 176.535 209.655C176.405 209.555 176.295 209.48 176.205 209.43C176.715 209.03 177.18 208.54 177.6 207.96C178.03 207.38 178.37 206.765 178.62 206.115ZM176.52 207.15L176.97 206.595C177.3 206.765 177.63 206.965 177.96 207.195C178.3 207.415 178.62 207.64 178.92 207.87C179.22 208.09 179.46 208.3 179.64 208.5L179.19 209.115C179 208.915 178.755 208.7 178.455 208.47C178.165 208.23 177.85 207.995 177.51 207.765C177.17 207.525 176.84 207.32 176.52 207.15ZM168.96 198.3H182.13V199.32H168.96V198.3ZM183.945 199.35H197.085V200.4H183.945V199.35ZM187.5 204.705H194.64V205.665H187.5V204.705ZM194.22 202.14H195.33V209.79C195.33 210.12 195.285 210.375 195.195 210.555C195.105 210.745 194.935 210.89 194.685 210.99C194.435 211.07 194.095 211.115 193.665 211.125C193.245 211.145 192.715 211.155 192.075 211.155C192.045 211.005 191.995 210.825 191.925 210.615C191.855 210.405 191.78 210.225 191.7 210.075C192.03 210.085 192.34 210.09 192.63 210.09C192.93 210.1 193.19 210.1 193.41 210.09C193.63 210.09 193.79 210.09 193.89 210.09C194.02 210.09 194.105 210.065 194.145 210.015C194.195 209.975 194.22 209.895 194.22 209.775V202.14ZM188.865 197.4L190.005 197.67C189.665 198.75 189.235 199.82 188.715 200.88C188.205 201.93 187.59 202.915 186.87 203.835C186.15 204.745 185.32 205.535 184.38 206.205C184.33 206.115 184.26 206.02 184.17 205.92C184.08 205.81 183.99 205.705 183.9 205.605C183.81 205.505 183.725 205.415 183.645 205.335C184.315 204.885 184.925 204.36 185.475 203.76C186.025 203.15 186.515 202.495 186.945 201.795C187.375 201.095 187.75 200.375 188.07 199.635C188.39 198.885 188.655 198.14 188.865 197.4ZM187.395 207.24H194.625V208.215H187.395V207.24ZM187.41 202.14H194.55V203.16H187.41V202.14ZM186.81 202.14H187.935V206.13C187.935 206.54 187.915 206.975 187.875 207.435C187.835 207.895 187.75 208.355 187.62 208.815C187.5 209.275 187.325 209.71 187.095 210.12C186.875 210.54 186.58 210.925 186.21 211.275C186.17 211.195 186.1 211.095 186 210.975C185.9 210.865 185.795 210.755 185.685 210.645C185.585 210.535 185.495 210.455 185.415 210.405C185.845 209.995 186.155 209.55 186.345 209.07C186.545 208.59 186.67 208.095 186.72 207.585C186.78 207.075 186.81 206.585 186.81 206.115V202.14ZM198.735 200.295H202.515V201.345H198.735V200.295ZM200.325 197.4H201.3V211.185H200.325V197.4ZM200.31 200.925L200.895 201.18C200.815 201.76 200.705 202.37 200.565 203.01C200.425 203.65 200.265 204.28 200.085 204.9C199.915 205.51 199.73 206.08 199.53 206.61C199.34 207.14 199.135 207.59 198.915 207.96C198.885 207.85 198.84 207.73 198.78 207.6C198.72 207.46 198.655 207.325 198.585 207.195C198.525 207.065 198.465 206.955 198.405 206.865C198.605 206.535 198.8 206.14 198.99 205.68C199.18 205.21 199.36 204.71 199.53 204.18C199.7 203.64 199.85 203.09 199.98 202.53C200.12 201.97 200.23 201.435 200.31 200.925ZM201.21 202.2C201.28 202.29 201.38 202.45 201.51 202.68C201.65 202.9 201.8 203.14 201.96 203.4C202.12 203.66 202.265 203.905 202.395 204.135C202.525 204.355 202.62 204.52 202.68 204.63L202.11 205.455C202.05 205.285 201.96 205.07 201.84 204.81C201.72 204.55 201.59 204.28 201.45 204C201.32 203.72 201.19 203.46 201.06 203.22C200.94 202.97 200.84 202.78 200.76 202.65L201.21 202.2ZM202.83 205.155H212.04V206.07H202.83V205.155ZM204.135 207.15L204.81 206.55C205.07 206.74 205.335 206.95 205.605 207.18C205.885 207.41 206.15 207.64 206.4 207.87C206.65 208.09 206.855 208.285 207.015 208.455L206.31 209.13C206.15 208.95 205.945 208.745 205.695 208.515C205.455 208.285 205.2 208.05 204.93 207.81C204.66 207.56 204.395 207.34 204.135 207.15ZM209.04 204.195L209.625 203.655C209.895 203.805 210.18 203.985 210.48 204.195C210.78 204.405 211.015 204.585 211.185 204.735L210.6 205.35C210.43 205.18 210.195 204.985 209.895 204.765C209.605 204.545 209.32 204.355 209.04 204.195ZM210.405 206.22L211.365 206.58C210.865 207.6 210.155 208.495 209.235 209.265C208.315 210.025 207.265 210.64 206.085 211.11C206.025 211.01 205.93 210.89 205.8 210.75C205.68 210.61 205.57 210.495 205.47 210.405C206.61 209.965 207.61 209.385 208.47 208.665C209.33 207.945 209.975 207.13 210.405 206.22ZM206.595 197.505H207.57C207.61 199.285 207.705 200.93 207.855 202.44C208.005 203.95 208.215 205.27 208.485 206.4C208.765 207.52 209.115 208.4 209.535 209.04C209.965 209.68 210.48 210.03 211.08 210.09C211.24 210.1 211.37 209.965 211.47 209.685C211.57 209.405 211.65 208.995 211.71 208.455C211.78 208.525 211.86 208.6 211.95 208.68C212.05 208.75 212.145 208.815 212.235 208.875C212.325 208.935 212.405 208.98 212.475 209.01C212.375 209.57 212.255 210.01 212.115 210.33C211.985 210.65 211.835 210.875 211.665 211.005C211.505 211.135 211.32 211.195 211.11 211.185C210.44 211.145 209.86 210.895 209.37 210.435C208.89 209.975 208.48 209.335 208.14 208.515C207.81 207.695 207.54 206.725 207.33 205.605C207.12 204.485 206.955 203.245 206.835 201.885C206.725 200.515 206.645 199.055 206.595 197.505ZM205.275 202.02L205.995 201.825C206.155 202.185 206.305 202.58 206.445 203.01C206.595 203.43 206.7 203.78 206.76 204.06L206.01 204.315C205.95 204.015 205.85 203.65 205.71 203.22C205.58 202.79 205.435 202.39 205.275 202.02ZM202.995 201.615C202.975 201.525 202.935 201.39 202.875 201.21C202.825 201.03 202.775 200.885 202.725 200.775C202.815 200.755 202.905 200.7 202.995 200.61C203.095 200.51 203.195 200.385 203.295 200.235C203.365 200.135 203.475 199.95 203.625 199.68C203.775 199.41 203.935 199.095 204.105 198.735C204.285 198.375 204.435 198.005 204.555 197.625L205.41 197.91C205.15 198.51 204.855 199.1 204.525 199.68C204.195 200.25 203.865 200.73 203.535 201.12V201.15C203.535 201.15 203.49 201.175 203.4 201.225C203.31 201.275 203.22 201.335 203.13 201.405C203.04 201.475 202.995 201.545 202.995 201.615ZM202.995 201.615L202.98 200.955L203.43 200.685L205.545 200.46C205.485 200.58 205.425 200.715 205.365 200.865C205.315 201.015 205.275 201.13 205.245 201.21C204.675 201.28 204.235 201.34 203.925 201.39C203.625 201.44 203.41 201.485 203.28 201.525C203.16 201.555 203.065 201.585 202.995 201.615ZM203.13 204.195C203.13 204.125 203.11 204.04 203.07 203.94C203.04 203.84 203.005 203.735 202.965 203.625C202.925 203.505 202.89 203.41 202.86 203.34C202.98 203.31 203.1 203.24 203.22 203.13C203.35 203.01 203.485 202.855 203.625 202.665C203.725 202.545 203.89 202.325 204.12 202.005C204.36 201.675 204.615 201.29 204.885 200.85C205.155 200.41 205.395 199.96 205.605 199.5L206.43 199.815C206.02 200.545 205.57 201.255 205.08 201.945C204.6 202.635 204.125 203.22 203.655 203.7V203.715C203.655 203.715 203.61 203.74 203.52 203.79C203.44 203.84 203.355 203.905 203.265 203.985C203.175 204.055 203.13 204.125 203.13 204.195ZM203.13 204.195L203.115 203.49L203.535 203.22L206.025 202.92C206.035 203.03 206.06 203.155 206.1 203.295C206.14 203.435 206.175 203.55 206.205 203.64C205.585 203.73 205.085 203.805 204.705 203.865C204.325 203.915 204.03 203.96 203.82 204C203.61 204.04 203.455 204.075 203.355 204.105C203.265 204.135 203.19 204.165 203.13 204.195ZM210.675 201.765L211.365 201.555C211.535 201.915 211.7 202.31 211.86 202.74C212.02 203.16 212.13 203.51 212.19 203.79L211.47 204.06C211.4 203.77 211.29 203.405 211.14 202.965C210.99 202.525 210.835 202.125 210.675 201.765ZM208.38 201.315C208.36 201.225 208.32 201.09 208.26 200.91C208.2 200.73 208.145 200.585 208.095 200.475C208.185 200.455 208.27 200.405 208.35 200.325C208.44 200.235 208.525 200.12 208.605 199.98C208.675 199.88 208.775 199.71 208.905 199.47C209.035 199.23 209.175 198.945 209.325 198.615C209.475 198.275 209.605 197.935 209.715 197.595L210.54 197.865C210.32 198.425 210.06 198.97 209.76 199.5C209.47 200.02 209.185 200.46 208.905 200.82V200.835C208.905 200.835 208.86 200.865 208.77 200.925C208.69 200.975 208.605 201.035 208.515 201.105C208.425 201.175 208.38 201.245 208.38 201.315ZM208.38 201.315L208.365 200.655L208.8 200.37L210.81 200.175C210.76 200.295 210.705 200.43 210.645 200.58C210.595 200.72 210.555 200.835 210.525 200.925C209.985 200.995 209.565 201.055 209.265 201.105C208.975 201.155 208.77 201.195 208.65 201.225C208.53 201.255 208.44 201.285 208.38 201.315ZM208.53 203.895C208.52 203.835 208.495 203.755 208.455 203.655C208.425 203.545 208.39 203.435 208.35 203.325C208.32 203.205 208.29 203.105 208.26 203.025C208.37 202.995 208.485 202.925 208.605 202.815C208.725 202.695 208.85 202.54 208.98 202.35C209.09 202.22 209.255 201.995 209.475 201.675C209.695 201.345 209.935 200.96 210.195 200.52C210.455 200.07 210.68 199.62 210.87 199.17L211.725 199.5C211.345 200.23 210.92 200.94 210.45 201.63C209.99 202.32 209.53 202.91 209.07 203.4V203.415C209.07 203.415 209.025 203.445 208.935 203.505C208.855 203.555 208.765 203.62 208.665 203.7C208.575 203.77 208.53 203.835 208.53 203.895ZM208.53 203.895L208.515 203.22L208.935 202.935L211.41 202.635C211.43 202.745 211.455 202.87 211.485 203.01C211.525 203.14 211.56 203.25 211.59 203.34C210.97 203.43 210.47 203.505 210.09 203.565C209.71 203.625 209.415 203.675 209.205 203.715C209.005 203.755 208.855 203.79 208.755 203.82C208.665 203.84 208.59 203.865 208.53 203.895ZM203.97 205.5H204.945V206.295C204.945 206.785 204.875 207.325 204.735 207.915C204.605 208.495 204.37 209.07 204.03 209.64C203.69 210.21 203.205 210.735 202.575 211.215C202.525 211.135 202.45 211.05 202.35 210.96C202.26 210.88 202.165 210.795 202.065 210.705C201.975 210.625 201.895 210.565 201.825 210.525C202.415 210.095 202.86 209.635 203.16 209.145C203.47 208.645 203.68 208.145 203.79 207.645C203.91 207.145 203.97 206.685 203.97 206.265V205.5ZM216.42 202.485V204.735H224.535V202.485H216.42ZM215.445 201.705H225.555V205.5H215.445V201.705ZM217.905 200.13H223.14V200.94H217.905V200.13ZM219.975 201.99H220.935V205.125H219.975V201.99ZM217.32 202.935L218.145 202.65C218.335 202.92 218.51 203.215 218.67 203.535C218.84 203.845 218.96 204.12 219.03 204.36L218.175 204.675C218.115 204.435 218.005 204.15 217.845 203.82C217.685 203.49 217.51 203.195 217.32 202.935ZM222.735 202.59L223.695 202.905C223.525 203.225 223.35 203.545 223.17 203.865C222.99 204.185 222.825 204.455 222.675 204.675L221.88 204.405C222.02 204.155 222.175 203.855 222.345 203.505C222.515 203.155 222.645 202.85 222.735 202.59ZM216.33 206.22H224.82V211.14H223.68V207.03H217.44V211.185H216.33V206.22ZM216.99 208.035H224.16V208.845H216.99V208.035ZM217.005 209.88H224.175V210.675H217.005V209.88ZM220.395 197.34L221.385 197.715C220.865 198.395 220.22 199.015 219.45 199.575C218.68 200.125 217.845 200.61 216.945 201.03C216.045 201.45 215.135 201.81 214.215 202.11C214.175 202.03 214.115 201.935 214.035 201.825C213.965 201.715 213.885 201.605 213.795 201.495C213.715 201.385 213.64 201.295 213.57 201.225C214.48 200.975 215.365 200.665 216.225 200.295C217.095 199.925 217.89 199.49 218.61 198.99C219.33 198.49 219.925 197.94 220.395 197.34ZM221.04 197.85C221.39 198.21 221.81 198.56 222.3 198.9C222.8 199.23 223.34 199.54 223.92 199.83C224.5 200.11 225.1 200.36 225.72 200.58C226.35 200.8 226.97 200.98 227.58 201.12C227.45 201.22 227.315 201.36 227.175 201.54C227.045 201.71 226.935 201.865 226.845 202.005C226.245 201.835 225.63 201.625 225 201.375C224.37 201.115 223.755 200.82 223.155 200.49C222.565 200.16 222.015 199.805 221.505 199.425C220.995 199.045 220.55 198.645 220.17 198.225L221.04 197.85Z" fill="black"/>
<path d="M172.774 237V235.47C173.986 234.39 175.018 233.388 175.87 232.464C176.734 231.54 177.394 230.682 177.85 229.89C178.306 229.086 178.534 228.342 178.534 227.658C178.534 227.226 178.456 226.848 178.3 226.524C178.144 226.2 177.916 225.954 177.616 225.786C177.328 225.606 176.968 225.516 176.536 225.516C176.056 225.516 175.612 225.654 175.204 225.93C174.808 226.194 174.442 226.512 174.106 226.884L172.63 225.462C173.254 224.79 173.89 224.286 174.538 223.95C175.198 223.602 175.978 223.428 176.878 223.428C177.718 223.428 178.45 223.602 179.074 223.95C179.71 224.286 180.202 224.76 180.55 225.372C180.898 225.984 181.072 226.704 181.072 227.532C181.072 228.336 180.868 229.158 180.46 229.998C180.064 230.826 179.53 231.654 178.858 232.482C178.186 233.31 177.442 234.126 176.626 234.93C176.974 234.882 177.346 234.846 177.742 234.822C178.15 234.786 178.51 234.768 178.822 234.768H181.702V237H172.774ZM185.965 237C186.025 235.848 186.127 234.786 186.271 233.814C186.415 232.83 186.619 231.906 186.883 231.042C187.147 230.166 187.489 229.308 187.909 228.468C188.341 227.628 188.875 226.77 189.511 225.894H183.517V223.662H192.373V225.282C191.605 226.218 190.981 227.118 190.501 227.982C190.033 228.846 189.673 229.722 189.421 230.61C189.181 231.498 189.001 232.458 188.881 233.49C188.773 234.522 188.689 235.692 188.629 237H185.965ZM196.168 237.252C195.688 237.252 195.292 237.084 194.98 236.748C194.668 236.412 194.512 236.004 194.512 235.524C194.512 235.02 194.668 234.606 194.98 234.282C195.292 233.958 195.688 233.796 196.168 233.796C196.636 233.796 197.026 233.958 197.338 234.282C197.65 234.606 197.806 235.02 197.806 235.524C197.806 236.004 197.65 236.412 197.338 236.748C197.026 237.084 196.636 237.252 196.168 237.252ZM204.002 237.252C203.306 237.252 202.682 237.168 202.13 237C201.578 236.844 201.086 236.628 200.654 236.352C200.234 236.064 199.868 235.746 199.556 235.398L200.798 233.724C201.206 234.096 201.65 234.42 202.13 234.696C202.622 234.96 203.168 235.092 203.768 235.092C204.224 235.092 204.62 235.02 204.956 234.876C205.304 234.732 205.568 234.522 205.748 234.246C205.94 233.97 206.036 233.634 206.036 233.238C206.036 232.794 205.928 232.416 205.712 232.104C205.508 231.78 205.142 231.534 204.614 231.366C204.086 231.198 203.342 231.114 202.382 231.114V229.206C203.198 229.206 203.84 229.122 204.308 228.954C204.776 228.774 205.106 228.534 205.298 228.234C205.502 227.922 205.604 227.568 205.604 227.172C205.604 226.656 205.448 226.254 205.136 225.966C204.824 225.666 204.386 225.516 203.822 225.516C203.354 225.516 202.916 225.624 202.508 225.84C202.112 226.044 201.716 226.326 201.32 226.686L199.952 225.048C200.54 224.556 201.158 224.166 201.806 223.878C202.454 223.578 203.168 223.428 203.948 223.428C204.8 223.428 205.55 223.566 206.198 223.842C206.858 224.118 207.368 224.52 207.728 225.048C208.088 225.576 208.268 226.218 208.268 226.974C208.268 227.694 208.076 228.312 207.692 228.828C207.308 229.344 206.762 229.74 206.054 230.016V230.106C206.546 230.238 206.99 230.454 207.386 230.754C207.794 231.042 208.112 231.408 208.34 231.852C208.58 232.296 208.7 232.812 208.7 233.4C208.7 234.204 208.484 234.894 208.052 235.47C207.632 236.046 207.062 236.49 206.342 236.802C205.634 237.102 204.854 237.252 204.002 237.252ZM213.521 231.87C212.897 231.87 212.339 231.702 211.847 231.366C211.355 231.03 210.971 230.544 210.695 229.908C210.419 229.272 210.281 228.51 210.281 227.622C210.281 226.734 210.419 225.978 210.695 225.354C210.971 224.73 211.355 224.256 211.847 223.932C212.339 223.596 212.897 223.428 213.521 223.428C214.169 223.428 214.733 223.596 215.213 223.932C215.705 224.256 216.089 224.73 216.365 225.354C216.641 225.978 216.779 226.734 216.779 227.622C216.779 228.51 216.641 229.272 216.365 229.908C216.089 230.544 215.705 231.03 215.213 231.366C214.733 231.702 214.169 231.87 213.521 231.87ZM213.521 230.376C213.905 230.376 214.229 230.166 214.493 229.746C214.769 229.314 214.907 228.606 214.907 227.622C214.907 226.65 214.769 225.96 214.493 225.552C214.229 225.132 213.905 224.922 213.521 224.922C213.137 224.922 212.807 225.132 212.531 225.552C212.267 225.96 212.135 226.65 212.135 227.622C212.135 228.606 212.267 229.314 212.531 229.746C212.807 230.166 213.137 230.376 213.521 230.376ZM213.953 237.252L221.207 223.428H222.773L215.537 237.252H213.953ZM223.223 237.252C222.587 237.252 222.023 237.084 221.531 236.748C221.051 236.412 220.667 235.926 220.379 235.29C220.103 234.654 219.965 233.892 219.965 233.004C219.965 232.104 220.103 231.342 220.379 230.718C220.667 230.094 221.051 229.62 221.531 229.296C222.023 228.96 222.587 228.792 223.223 228.792C223.847 228.792 224.399 228.96 224.879 229.296C225.371 229.62 225.755 230.094 226.031 230.718C226.319 231.342 226.463 232.104 226.463 233.004C226.463 233.892 226.319 234.654 226.031 235.29C225.755 235.926 225.371 236.412 224.879 236.748C224.399 237.084 223.847 237.252 223.223 237.252ZM223.223 235.74C223.607 235.74 223.931 235.53 224.195 235.11C224.459 234.678 224.591 233.976 224.591 233.004C224.591 232.008 224.459 231.312 224.195 230.916C223.931 230.508 223.607 230.304 223.223 230.304C222.827 230.304 222.497 230.508 222.233 230.916C221.969 231.312 221.837 232.008 221.837 233.004C221.837 233.976 221.969 234.678 222.233 235.11C222.497 235.53 222.827 235.74 223.223 235.74Z" fill="black"/>
<path d="M128.05 8.745L129.07 9.15C128.74 9.75 128.35 10.34 127.9 10.92C127.46 11.5 126.995 12.05 126.505 12.57C126.025 13.09 125.54 13.55 125.05 13.95C125.02 13.86 124.965 13.745 124.885 13.605C124.815 13.465 124.735 13.325 124.645 13.185C124.565 13.045 124.49 12.93 124.42 12.84C124.88 12.51 125.33 12.125 125.77 11.685C126.22 11.245 126.64 10.775 127.03 10.275C127.43 9.775 127.77 9.265 128.05 8.745ZM127.795 5.445L128.875 5.865C128.575 6.295 128.225 6.73 127.825 7.17C127.435 7.61 127.015 8.03 126.565 8.43C126.125 8.82 125.685 9.165 125.245 9.465C125.205 9.375 125.15 9.275 125.08 9.165C125.01 9.045 124.935 8.93 124.855 8.82C124.775 8.7 124.705 8.605 124.645 8.535C125.045 8.275 125.445 7.975 125.845 7.635C126.245 7.285 126.615 6.92 126.955 6.54C127.305 6.16 127.585 5.795 127.795 5.445ZM126.715 11.46L127.78 10.41L127.825 10.44V19.2H126.715V11.46ZM130.57 6.06H137.065V12.66H130.57V11.67H135.955V7.05H130.57V6.06ZM130.6 8.865H136.315V9.81H130.6V8.865ZM133.405 12.075C133.655 13.035 134.005 13.915 134.455 14.715C134.905 15.515 135.46 16.205 136.12 16.785C136.79 17.365 137.57 17.81 138.46 18.12C138.37 18.19 138.275 18.285 138.175 18.405C138.085 18.525 137.995 18.64 137.905 18.75C137.815 18.87 137.74 18.985 137.68 19.095C136.77 18.715 135.975 18.2 135.295 17.55C134.615 16.9 134.04 16.13 133.57 15.24C133.11 14.34 132.745 13.35 132.475 12.27L133.405 12.075ZM137.095 13.14L137.86 13.935C137.41 14.295 136.915 14.655 136.375 15.015C135.835 15.375 135.345 15.675 134.905 15.915L134.29 15.21C134.58 15.03 134.895 14.825 135.235 14.595C135.585 14.355 135.925 14.11 136.255 13.86C136.585 13.6 136.865 13.36 137.095 13.14ZM129.955 19.2L129.865 18.21L130.405 17.79L133.75 16.98C133.75 17.14 133.755 17.32 133.765 17.52C133.775 17.71 133.79 17.87 133.81 18C133.03 18.21 132.4 18.38 131.92 18.51C131.45 18.65 131.085 18.76 130.825 18.84C130.565 18.92 130.37 18.985 130.24 19.035C130.12 19.095 130.025 19.15 129.955 19.2ZM129.955 19.2C129.925 19.11 129.88 19.01 129.82 18.9C129.76 18.79 129.695 18.675 129.625 18.555C129.565 18.435 129.505 18.34 129.445 18.27C129.565 18.2 129.685 18.085 129.805 17.925C129.935 17.765 130 17.525 130 17.205V6.06H131.095V18.09C131.095 18.09 131.055 18.115 130.975 18.165C130.905 18.225 130.81 18.295 130.69 18.375C130.58 18.455 130.465 18.54 130.345 18.63C130.235 18.73 130.14 18.83 130.06 18.93C129.99 19.03 129.955 19.12 129.955 19.2ZM142.42 7.77L143.485 8.07C143.245 8.66 142.975 9.26 142.675 9.87C142.375 10.48 142.06 11.06 141.73 11.61C141.41 12.15 141.09 12.63 140.77 13.05C140.71 13 140.615 12.94 140.485 12.87C140.365 12.8 140.245 12.735 140.125 12.675C140.005 12.605 139.895 12.55 139.795 12.51C140.135 12.1 140.46 11.635 140.77 11.115C141.09 10.595 141.39 10.05 141.67 9.48C141.95 8.9 142.2 8.33 142.42 7.77ZM149.545 8.205L150.46 7.755C150.8 8.235 151.15 8.76 151.51 9.33C151.88 9.89 152.22 10.435 152.53 10.965C152.85 11.495 153.105 11.965 153.295 12.375L152.335 12.93C152.145 12.51 151.895 12.03 151.585 11.49C151.275 10.94 150.94 10.38 150.58 9.81C150.23 9.23 149.885 8.695 149.545 8.205ZM150.43 13.17L151.45 13.635C150.77 14.715 149.875 15.63 148.765 16.38C147.655 17.12 146.365 17.715 144.895 18.165C143.425 18.615 141.805 18.955 140.035 19.185C139.985 19.025 139.91 18.84 139.81 18.63C139.71 18.43 139.605 18.255 139.495 18.105C141.215 17.915 142.78 17.625 144.19 17.235C145.6 16.835 146.835 16.305 147.895 15.645C148.955 14.975 149.8 14.15 150.43 13.17ZM145.735 5.4H146.845V14.655H145.735V5.4ZM154.945 7.35H168.085V8.4L154.945 8.4V7.35ZM158.5 12.705H165.64V13.665H158.5V12.705ZM165.22 10.14H166.33V17.79C166.33 18.12 166.285 18.375 166.195 18.555C166.105 18.745 165.935 18.89 165.685 18.99C165.435 19.07 165.095 19.115 164.665 19.125C164.245 19.145 163.715 19.155 163.075 19.155C163.045 19.005 162.995 18.825 162.925 18.615C162.855 18.405 162.78 18.225 162.7 18.075C163.03 18.085 163.34 18.09 163.63 18.09C163.93 18.1 164.19 18.1 164.41 18.09C164.63 18.09 164.79 18.09 164.89 18.09C165.02 18.09 165.105 18.065 165.145 18.015C165.195 17.975 165.22 17.895 165.22 17.775V10.14ZM159.865 5.4L161.005 5.67C160.665 6.75 160.235 7.82 159.715 8.88C159.205 9.93 158.59 10.915 157.87 11.835C157.15 12.745 156.32 13.535 155.38 14.205C155.33 14.115 155.26 14.02 155.17 13.92C155.08 13.81 154.99 13.705 154.9 13.605C154.81 13.505 154.725 13.415 154.645 13.335C155.315 12.885 155.925 12.36 156.475 11.76C157.025 11.15 157.515 10.495 157.945 9.795C158.375 9.095 158.75 8.375 159.07 7.635C159.39 6.885 159.655 6.14 159.865 5.4ZM158.395 15.24H165.625V16.215H158.395V15.24ZM158.41 10.14H165.55V11.16H158.41V10.14ZM157.81 10.14H158.935V14.13C158.935 14.54 158.915 14.975 158.875 15.435C158.835 15.895 158.75 16.355 158.62 16.815C158.5 17.275 158.325 17.71 158.095 18.12C157.875 18.54 157.58 18.925 157.21 19.275C157.17 19.195 157.1 19.095 157 18.975C156.9 18.865 156.795 18.755 156.685 18.645C156.585 18.535 156.495 18.455 156.415 18.405C156.845 17.995 157.155 17.55 157.345 17.07C157.545 16.59 157.67 16.095 157.72 15.585C157.78 15.075 157.81 14.585 157.81 14.115V10.14ZM169.735 8.295H173.515V9.345H169.735V8.295ZM171.325 5.4L172.3 5.4V19.185H171.325V5.4ZM171.31 8.925L171.895 9.18C171.815 9.76 171.705 10.37 171.565 11.01C171.425 11.65 171.265 12.28 171.085 12.9C170.915 13.51 170.73 14.08 170.53 14.61C170.34 15.14 170.135 15.59 169.915 15.96C169.885 15.85 169.84 15.73 169.78 15.6C169.72 15.46 169.655 15.325 169.585 15.195C169.525 15.065 169.465 14.955 169.405 14.865C169.605 14.535 169.8 14.14 169.99 13.68C170.18 13.21 170.36 12.71 170.53 12.18C170.7 11.64 170.85 11.09 170.98 10.53C171.12 9.97 171.23 9.435 171.31 8.925ZM172.21 10.2C172.28 10.29 172.38 10.45 172.51 10.68C172.65 10.9 172.8 11.14 172.96 11.4C173.12 11.66 173.265 11.905 173.395 12.135C173.525 12.355 173.62 12.52 173.68 12.63L173.11 13.455C173.05 13.285 172.96 13.07 172.84 12.81C172.72 12.55 172.59 12.28 172.45 12C172.32 11.72 172.19 11.46 172.06 11.22C171.94 10.97 171.84 10.78 171.76 10.65L172.21 10.2ZM173.83 13.155H183.04V14.07H173.83V13.155ZM175.135 15.15L175.81 14.55C176.07 14.74 176.335 14.95 176.605 15.18C176.885 15.41 177.15 15.64 177.4 15.87C177.65 16.09 177.855 16.285 178.015 16.455L177.31 17.13C177.15 16.95 176.945 16.745 176.695 16.515C176.455 16.285 176.2 16.05 175.93 15.81C175.66 15.56 175.395 15.34 175.135 15.15ZM180.04 12.195L180.625 11.655C180.895 11.805 181.18 11.985 181.48 12.195C181.78 12.405 182.015 12.585 182.185 12.735L181.6 13.35C181.43 13.18 181.195 12.985 180.895 12.765C180.605 12.545 180.32 12.355 180.04 12.195ZM181.405 14.22L182.365 14.58C181.865 15.6 181.155 16.495 180.235 17.265C179.315 18.025 178.265 18.64 177.085 19.11C177.025 19.01 176.93 18.89 176.8 18.75C176.68 18.61 176.57 18.495 176.47 18.405C177.61 17.965 178.61 17.385 179.47 16.665C180.33 15.945 180.975 15.13 181.405 14.22ZM177.595 5.505H178.57C178.61 7.285 178.705 8.93 178.855 10.44C179.005 11.95 179.215 13.27 179.485 14.4C179.765 15.52 180.115 16.4 180.535 17.04C180.965 17.68 181.48 18.03 182.08 18.09C182.24 18.1 182.37 17.965 182.47 17.685C182.57 17.405 182.65 16.995 182.71 16.455C182.78 16.525 182.86 16.6 182.95 16.68C183.05 16.75 183.145 16.815 183.235 16.875C183.325 16.935 183.405 16.98 183.475 17.01C183.375 17.57 183.255 18.01 183.115 18.33C182.985 18.65 182.835 18.875 182.665 19.005C182.505 19.135 182.32 19.195 182.11 19.185C181.44 19.145 180.86 18.895 180.37 18.435C179.89 17.975 179.48 17.335 179.14 16.515C178.81 15.695 178.54 14.725 178.33 13.605C178.12 12.485 177.955 11.245 177.835 9.885C177.725 8.515 177.645 7.055 177.595 5.505ZM176.275 10.02L176.995 9.825C177.155 10.185 177.305 10.58 177.445 11.01C177.595 11.43 177.7 11.78 177.76 12.06L177.01 12.315C176.95 12.015 176.85 11.65 176.71 11.22C176.58 10.79 176.435 10.39 176.275 10.02ZM173.995 9.615C173.975 9.525 173.935 9.39 173.875 9.21C173.825 9.03 173.775 8.885 173.725 8.775C173.815 8.755 173.905 8.7 173.995 8.61C174.095 8.51 174.195 8.385 174.295 8.235C174.365 8.135 174.475 7.95 174.625 7.68C174.775 7.41 174.935 7.095 175.105 6.735C175.285 6.375 175.435 6.005 175.555 5.625L176.41 5.91C176.15 6.51 175.855 7.1 175.525 7.68C175.195 8.25 174.865 8.73 174.535 9.12V9.15C174.535 9.15 174.49 9.175 174.4 9.225C174.31 9.275 174.22 9.335 174.13 9.405C174.04 9.475 173.995 9.545 173.995 9.615ZM173.995 9.615L173.98 8.955L174.43 8.685L176.545 8.46C176.485 8.58 176.425 8.715 176.365 8.865C176.315 9.015 176.275 9.13 176.245 9.21C175.675 9.28 175.235 9.34 174.925 9.39C174.625 9.44 174.41 9.485 174.28 9.525C174.16 9.555 174.065 9.585 173.995 9.615ZM174.13 12.195C174.13 12.125 174.11 12.04 174.07 11.94C174.04 11.84 174.005 11.735 173.965 11.625C173.925 11.505 173.89 11.41 173.86 11.34C173.98 11.31 174.1 11.24 174.22 11.13C174.35 11.01 174.485 10.855 174.625 10.665C174.725 10.545 174.89 10.325 175.12 10.005C175.36 9.675 175.615 9.29 175.885 8.85C176.155 8.41 176.395 7.96 176.605 7.5L177.43 7.815C177.02 8.545 176.57 9.255 176.08 9.945C175.6 10.635 175.125 11.22 174.655 11.7V11.715C174.655 11.715 174.61 11.74 174.52 11.79C174.44 11.84 174.355 11.905 174.265 11.985C174.175 12.055 174.13 12.125 174.13 12.195ZM174.13 12.195L174.115 11.49L174.535 11.22L177.025 10.92C177.035 11.03 177.06 11.155 177.1 11.295C177.14 11.435 177.175 11.55 177.205 11.64C176.585 11.73 176.085 11.805 175.705 11.865C175.325 11.915 175.03 11.96 174.82 12C174.61 12.04 174.455 12.075 174.355 12.105C174.265 12.135 174.19 12.165 174.13 12.195ZM181.675 9.765L182.365 9.555C182.535 9.915 182.7 10.31 182.86 10.74C183.02 11.16 183.13 11.51 183.19 11.79L182.47 12.06C182.4 11.77 182.29 11.405 182.14 10.965C181.99 10.525 181.835 10.125 181.675 9.765ZM179.38 9.315C179.36 9.225 179.32 9.09 179.26 8.91C179.2 8.73 179.145 8.585 179.095 8.475C179.185 8.455 179.27 8.405 179.35 8.325C179.44 8.235 179.525 8.12 179.605 7.98C179.675 7.88 179.775 7.71 179.905 7.47C180.035 7.23 180.175 6.945 180.325 6.615C180.475 6.275 180.605 5.935 180.715 5.595L181.54 5.865C181.32 6.425 181.06 6.97 180.76 7.5C180.47 8.02 180.185 8.46 179.905 8.82V8.835C179.905 8.835 179.86 8.865 179.77 8.925C179.69 8.975 179.605 9.035 179.515 9.105C179.425 9.175 179.38 9.245 179.38 9.315ZM179.38 9.315L179.365 8.655L179.8 8.37L181.81 8.175C181.76 8.295 181.705 8.43 181.645 8.58C181.595 8.72 181.555 8.835 181.525 8.925C180.985 8.995 180.565 9.055 180.265 9.105C179.975 9.155 179.77 9.195 179.65 9.225C179.53 9.255 179.44 9.285 179.38 9.315ZM179.53 11.895C179.52 11.835 179.495 11.755 179.455 11.655C179.425 11.545 179.39 11.435 179.35 11.325C179.32 11.205 179.29 11.105 179.26 11.025C179.37 10.995 179.485 10.925 179.605 10.815C179.725 10.695 179.85 10.54 179.98 10.35C180.09 10.22 180.255 9.995 180.475 9.675C180.695 9.345 180.935 8.96 181.195 8.52C181.455 8.07 181.68 7.62 181.87 7.17L182.725 7.5C182.345 8.23 181.92 8.94 181.45 9.63C180.99 10.32 180.53 10.91 180.07 11.4V11.415C180.07 11.415 180.025 11.445 179.935 11.505C179.855 11.555 179.765 11.62 179.665 11.7C179.575 11.77 179.53 11.835 179.53 11.895ZM179.53 11.895L179.515 11.22L179.935 10.935L182.41 10.635C182.43 10.745 182.455 10.87 182.485 11.01C182.525 11.14 182.56 11.25 182.59 11.34C181.97 11.43 181.47 11.505 181.09 11.565C180.71 11.625 180.415 11.675 180.205 11.715C180.005 11.755 179.855 11.79 179.755 11.82C179.665 11.84 179.59 11.865 179.53 11.895ZM174.97 13.5H175.945V14.295C175.945 14.785 175.875 15.325 175.735 15.915C175.605 16.495 175.37 17.07 175.03 17.64C174.69 18.21 174.205 18.735 173.575 19.215C173.525 19.135 173.45 19.05 173.35 18.96C173.26 18.88 173.165 18.795 173.065 18.705C172.975 18.625 172.895 18.565 172.825 18.525C173.415 18.095 173.86 17.635 174.16 17.145C174.47 16.645 174.68 16.145 174.79 15.645C174.91 15.145 174.97 14.685 174.97 14.265V13.5ZM187.42 10.485V12.735H195.535V10.485H187.42ZM186.445 9.705H196.555V13.5H186.445V9.705ZM188.905 8.13H194.14V8.94H188.905V8.13ZM190.975 9.99H191.935V13.125H190.975V9.99ZM188.32 10.935L189.145 10.65C189.335 10.92 189.51 11.215 189.67 11.535C189.84 11.845 189.96 12.12 190.03 12.36L189.175 12.675C189.115 12.435 189.005 12.15 188.845 11.82C188.685 11.49 188.51 11.195 188.32 10.935ZM193.735 10.59L194.695 10.905C194.525 11.225 194.35 11.545 194.17 11.865C193.99 12.185 193.825 12.455 193.675 12.675L192.88 12.405C193.02 12.155 193.175 11.855 193.345 11.505C193.515 11.155 193.645 10.85 193.735 10.59ZM187.33 14.22H195.82V19.14H194.68V15.03H188.44V19.185L187.33 19.185V14.22ZM187.99 16.035L195.16 16.035V16.845L187.99 16.845V16.035ZM188.005 17.88H195.175V18.675H188.005V17.88ZM191.395 5.34L192.385 5.715C191.865 6.395 191.22 7.015 190.45 7.575C189.68 8.125 188.845 8.61 187.945 9.03C187.045 9.45 186.135 9.81 185.215 10.11C185.175 10.03 185.115 9.935 185.035 9.825C184.965 9.715 184.885 9.605 184.795 9.495C184.715 9.385 184.64 9.295 184.57 9.225C185.48 8.975 186.365 8.665 187.225 8.295C188.095 7.925 188.89 7.49 189.61 6.99C190.33 6.49 190.925 5.94 191.395 5.34ZM192.04 5.85C192.39 6.21 192.81 6.56 193.3 6.9C193.8 7.23 194.34 7.54 194.92 7.83C195.5 8.11 196.1 8.36 196.72 8.58C197.35 8.8 197.97 8.98 198.58 9.12C198.45 9.22 198.315 9.36 198.175 9.54C198.045 9.71 197.935 9.865 197.845 10.005C197.245 9.835 196.63 9.625 196 9.375C195.37 9.115 194.755 8.82 194.155 8.49C193.565 8.16 193.015 7.805 192.505 7.425C191.995 7.045 191.55 6.645 191.17 6.225L192.04 5.85Z" fill="black"/>
<path d="M128.914 45.252C128.218 45.252 127.594 45.168 127.042 45C126.49 44.844 125.998 44.628 125.566 44.352C125.146 44.064 124.78 43.746 124.468 43.398L125.71 41.724C126.118 42.096 126.562 42.42 127.042 42.696C127.534 42.96 128.08 43.092 128.68 43.092C129.136 43.092 129.532 43.02 129.868 42.876C130.216 42.732 130.48 42.522 130.66 42.246C130.852 41.97 130.948 41.634 130.948 41.238C130.948 40.794 130.84 40.416 130.624 40.104C130.42 39.78 130.054 39.534 129.526 39.366C128.998 39.198 128.254 39.114 127.294 39.114V37.206C128.11 37.206 128.752 37.122 129.22 36.954C129.688 36.774 130.018 36.534 130.21 36.234C130.414 35.922 130.516 35.568 130.516 35.172C130.516 34.656 130.36 34.254 130.048 33.966C129.736 33.666 129.298 33.516 128.734 33.516C128.266 33.516 127.828 33.624 127.42 33.84C127.024 34.044 126.628 34.326 126.232 34.686L124.864 33.048C125.452 32.556 126.07 32.166 126.718 31.878C127.366 31.578 128.08 31.428 128.86 31.428C129.712 31.428 130.462 31.566 131.11 31.842C131.77 32.118 132.28 32.52 132.64 33.048C133 33.576 133.18 34.218 133.18 34.974C133.18 35.694 132.988 36.312 132.604 36.828C132.22 37.344 131.674 37.74 130.966 38.016V38.106C131.458 38.238 131.902 38.454 132.298 38.754C132.706 39.042 133.024 39.408 133.252 39.852C133.492 40.296 133.612 40.812 133.612 41.4C133.612 42.204 133.396 42.894 132.964 43.47C132.544 44.046 131.974 44.49 131.254 44.802C130.546 45.102 129.766 45.252 128.914 45.252ZM139.927 45.252C139.027 45.252 138.235 44.994 137.551 44.478C136.879 43.95 136.351 43.17 135.967 42.138C135.595 41.094 135.409 39.804 135.409 38.268C135.409 36.744 135.595 35.478 135.967 34.47C136.351 33.45 136.879 32.688 137.551 32.184C138.235 31.68 139.027 31.428 139.927 31.428C140.839 31.428 141.631 31.686 142.303 32.202C142.975 32.706 143.497 33.462 143.869 34.47C144.253 35.478 144.445 36.744 144.445 38.268C144.445 39.804 144.253 41.094 143.869 42.138C143.497 43.17 142.975 43.95 142.303 44.478C141.631 44.994 140.839 45.252 139.927 45.252ZM139.927 43.182C140.323 43.182 140.671 43.032 140.971 42.732C141.271 42.432 141.505 41.928 141.673 41.22C141.841 40.5 141.925 39.516 141.925 38.268C141.925 37.032 141.841 36.066 141.673 35.37C141.505 34.662 141.271 34.17 140.971 33.894C140.671 33.606 140.323 33.462 139.927 33.462C139.555 33.462 139.213 33.606 138.901 33.894C138.601 34.17 138.361 34.662 138.181 35.37C138.001 36.066 137.911 37.032 137.911 38.268C137.911 39.516 138.001 40.5 138.181 41.22C138.361 41.928 138.601 42.432 138.901 42.732C139.213 43.032 139.555 43.182 139.927 43.182ZM148.168 45.252C147.688 45.252 147.292 45.084 146.98 44.748C146.668 44.412 146.512 44.004 146.512 43.524C146.512 43.02 146.668 42.606 146.98 42.282C147.292 41.958 147.688 41.796 148.168 41.796C148.636 41.796 149.026 41.958 149.338 42.282C149.65 42.606 149.806 43.02 149.806 43.524C149.806 44.004 149.65 44.412 149.338 44.748C149.026 45.084 148.636 45.252 148.168 45.252ZM156.074 45.252C155.366 45.252 154.736 45.168 154.184 45C153.632 44.832 153.14 44.61 152.708 44.334C152.276 44.058 151.892 43.758 151.556 43.434L152.78 41.742C153.032 41.994 153.302 42.222 153.59 42.426C153.89 42.63 154.214 42.792 154.562 42.912C154.922 43.032 155.306 43.092 155.714 43.092C156.17 43.092 156.572 42.996 156.92 42.804C157.28 42.612 157.562 42.336 157.766 41.976C157.97 41.604 158.072 41.16 158.072 40.644C158.072 39.876 157.862 39.282 157.442 38.862C157.034 38.442 156.494 38.232 155.822 38.232C155.438 38.232 155.108 38.286 154.832 38.394C154.556 38.49 154.22 38.664 153.824 38.916L152.618 38.142L152.978 31.662H160.106V33.894H155.264L155.012 36.72C155.276 36.6 155.534 36.51 155.786 36.45C156.038 36.39 156.314 36.36 156.614 36.36C157.358 36.36 158.042 36.51 158.666 36.81C159.29 37.098 159.788 37.554 160.16 38.178C160.532 38.802 160.718 39.6 160.718 40.572C160.718 41.556 160.496 42.402 160.052 43.11C159.62 43.806 159.05 44.34 158.342 44.712C157.646 45.072 156.89 45.252 156.074 45.252ZM162.479 45V43.47C163.691 42.39 164.723 41.388 165.575 40.464C166.439 39.54 167.099 38.682 167.555 37.89C168.011 37.086 168.239 36.342 168.239 35.658C168.239 35.226 168.161 34.848 168.005 34.524C167.849 34.2 167.621 33.954 167.321 33.786C167.033 33.606 166.673 33.516 166.241 33.516C165.761 33.516 165.317 33.654 164.909 33.93C164.513 34.194 164.147 34.512 163.811 34.884L162.335 33.462C162.959 32.79 163.595 32.286 164.243 31.95C164.903 31.602 165.683 31.428 166.583 31.428C167.423 31.428 168.155 31.602 168.779 31.95C169.415 32.286 169.907 32.76 170.255 33.372C170.603 33.984 170.777 34.704 170.777 35.532C170.777 36.336 170.573 37.158 170.165 37.998C169.769 38.826 169.235 39.654 168.563 40.482C167.891 41.31 167.147 42.126 166.331 42.93C166.679 42.882 167.051 42.846 167.447 42.822C167.855 42.786 168.215 42.768 168.527 42.768H171.407V45H162.479ZM176.138 39.87C175.514 39.87 174.956 39.702 174.464 39.366C173.972 39.03 173.588 38.544 173.312 37.908C173.036 37.272 172.898 36.51 172.898 35.622C172.898 34.734 173.036 33.978 173.312 33.354C173.588 32.73 173.972 32.256 174.464 31.932C174.956 31.596 175.514 31.428 176.138 31.428C176.786 31.428 177.35 31.596 177.83 31.932C178.322 32.256 178.706 32.73 178.982 33.354C179.258 33.978 179.396 34.734 179.396 35.622C179.396 36.51 179.258 37.272 178.982 37.908C178.706 38.544 178.322 39.03 177.83 39.366C177.35 39.702 176.786 39.87 176.138 39.87ZM176.138 38.376C176.522 38.376 176.846 38.166 177.11 37.746C177.386 37.314 177.524 36.606 177.524 35.622C177.524 34.65 177.386 33.96 177.11 33.552C176.846 33.132 176.522 32.922 176.138 32.922C175.754 32.922 175.424 33.132 175.148 33.552C174.884 33.96 174.752 34.65 174.752 35.622C174.752 36.606 174.884 37.314 175.148 37.746C175.424 38.166 175.754 38.376 176.138 38.376ZM176.57 45.252L183.824 31.428H185.39L178.154 45.252H176.57ZM185.84 45.252C185.204 45.252 184.64 45.084 184.148 44.748C183.668 44.412 183.284 43.926 182.996 43.29C182.72 42.654 182.582 41.892 182.582 41.004C182.582 40.104 182.72 39.342 182.996 38.718C183.284 38.094 183.668 37.62 184.148 37.296C184.64 36.96 185.204 36.792 185.84 36.792C186.464 36.792 187.016 36.96 187.496 37.296C187.988 37.62 188.372 38.094 188.648 38.718C188.936 39.342 189.08 40.104 189.08 41.004C189.08 41.892 188.936 42.654 188.648 43.29C188.372 43.926 187.988 44.412 187.496 44.748C187.016 45.084 186.464 45.252 185.84 45.252ZM185.84 43.74C186.224 43.74 186.548 43.53 186.812 43.11C187.076 42.678 187.208 41.976 187.208 41.004C187.208 40.008 187.076 39.312 186.812 38.916C186.548 38.508 186.224 38.304 185.84 38.304C185.444 38.304 185.114 38.508 184.85 38.916C184.586 39.312 184.454 40.008 184.454 41.004C184.454 41.976 184.586 42.678 184.85 43.11C185.114 43.53 185.444 43.74 185.84 43.74Z" fill="#0095CC"/>
<path d="M6.69 12L5.865 12.345C5.82 12.135 5.73 11.925 5.64 11.67C2.175 12.015 1.755 12.09 1.455 12.225C1.425 12.03 1.275 11.58 1.17 11.325C1.455 11.295 1.77 11.04 2.16 10.65C2.355 10.485 2.745 10.065 3.225 9.54C1.8 9.69 1.5 9.765 1.335 9.855C1.275 9.645 1.155 9.21 1.065 8.985C1.26 8.94 1.5 8.715 1.74 8.4C1.995 8.085 2.865 6.84 3.39 5.625L4.245 5.955C3.675 7.005 2.985 8.04 2.325 8.85L3.9 8.715C4.245 8.28 4.59 7.8 4.89 7.32L5.745 7.695C4.8 9 3.735 10.215 2.685 11.145L5.31 10.935C5.13 10.56 4.92 10.215 4.725 9.9L5.52 9.615C6.015 10.35 6.525 11.355 6.69 12ZM11.37 14.16L12.39 14.475C11.91 15.33 11.25 16.08 10.485 16.725C11.13 17.52 11.85 17.955 12.63 17.955C13.2 17.955 13.38 17.565 13.5 16.035C13.74 16.275 14.1 16.47 14.385 16.575C14.145 18.495 13.755 19.02 12.585 19.02C11.445 19.02 10.455 18.42 9.615 17.37C8.58 18.09 7.365 18.66 6.15 19.095C6 18.885 5.64 18.465 5.415 18.255C6.735 17.85 8.01 17.31 9.075 16.575C8.625 15.825 8.22 14.94 7.89 13.935H4.41C4.38 14.265 4.335 14.625 4.275 14.955C5.13 15.435 6.12 16.11 6.63 16.605L5.895 17.34C5.505 16.935 4.77 16.365 4.035 15.9C3.63 17.28 2.835 18.51 1.5 19.2C1.35 18.99 0.975 18.63 0.75 18.465C2.565 17.58 3.195 15.705 3.3 13.935H0.84V12.975H7.605C7.005 10.77 6.675 8.145 6.645 5.46H7.74C7.74 8.25 8.1 10.875 8.73 12.975H11.475C11.07 12.66 10.47 12.285 9.975 12.045L10.455 11.565C9.435 11.7 9.195 11.76 9.015 11.82C8.985 11.64 8.85 11.19 8.745 10.95C9.015 10.905 9.33 10.635 9.705 10.26C9.9 10.095 10.29 9.675 10.74 9.15C9.345 9.3 9.06 9.39 8.88 9.465C8.835 9.27 8.715 8.82 8.61 8.595C8.805 8.565 9 8.37 9.24 8.055C9.465 7.77 10.26 6.615 10.71 5.52L11.565 5.835C11.055 6.795 10.455 7.74 9.855 8.475L11.385 8.355C11.745 7.905 12.09 7.41 12.405 6.93L13.245 7.305C12.315 8.595 11.28 9.795 10.26 10.755L12.54 10.53C12.36 10.185 12.15 9.855 11.94 9.555L12.72 9.21C13.29 9.975 13.86 10.995 14.04 11.67L13.215 12.045C13.155 11.835 13.05 11.565 12.915 11.28C11.94 11.385 11.22 11.475 10.695 11.535C11.28 11.82 11.925 12.21 12.285 12.54L11.85 12.975H14.205V13.935H9.03C9.3 14.685 9.6 15.345 9.93 15.915C10.515 15.39 11.01 14.82 11.37 14.16ZM29.175 12.495V13.62H23.22V17.64C23.22 18.45 22.98 18.795 22.41 18.96C21.855 19.155 20.895 19.17 19.32 19.17C19.23 18.855 19.02 18.345 18.825 18.03C20.085 18.075 21.255 18.06 21.6 18.06C21.93 18.045 22.05 17.94 22.05 17.625V13.62H15.87V12.495H22.05V7.53C20.37 7.68 18.66 7.77 17.1 7.815C17.07 7.5 16.935 7.08 16.83 6.81C20.415 6.675 24.81 6.315 27.255 5.67L27.84 6.675C26.58 6.99 24.96 7.245 23.22 7.41V12.495H29.175ZM17.52 8.625L18.495 8.295C19.095 9.315 19.725 10.68 19.95 11.535L18.93 11.94C18.72 11.085 18.105 9.69 17.52 8.625ZM25.98 11.91L25.08 11.535C25.635 10.605 26.34 9.09 26.7 8.025L27.885 8.43C27.285 9.615 26.565 11.025 25.98 11.91ZM42.24 7.845H38.01C37.515 9.645 36.72 11.055 35.58 12.075C35.385 11.895 34.905 11.535 34.635 11.37C36.225 10.125 37.005 8.055 37.32 5.445L38.46 5.595C38.4 6.015 38.34 6.42 38.25 6.81H43.425C43.425 6.81 43.41 7.125 43.38 7.29C43.2 9.885 43.005 10.92 42.615 11.34C42.345 11.625 42.06 11.7 41.625 11.73C41.235 11.76 40.5 11.76 39.735 11.715C39.705 11.4 39.57 10.965 39.39 10.695C40.14 10.755 40.875 10.77 41.16 10.77C41.415 10.77 41.55 10.755 41.685 10.635C41.94 10.395 42.105 9.645 42.24 7.845ZM34.785 7.215L34.125 8.1C33.555 7.56 32.385 6.825 31.425 6.375L32.04 5.58C33 5.985 34.185 6.66 34.785 7.215ZM34.005 11.1L33.39 12.03C32.79 11.52 31.605 10.83 30.63 10.395L31.23 9.585C32.19 9.96 33.405 10.605 34.005 11.1ZM33.78 13.41L34.605 14.115C33.87 15.69 32.88 17.55 32.055 18.93L31.11 18.21C31.875 17.055 32.955 15.105 33.78 13.41ZM41.94 13.425H37.485C38.01 14.4 38.745 15.27 39.675 16.005C40.62 15.315 41.4 14.445 41.94 13.425ZM42.735 12.375L43.455 12.69C42.855 14.355 41.85 15.645 40.59 16.65C41.7 17.34 42.99 17.85 44.415 18.15C44.16 18.375 43.845 18.84 43.695 19.14C42.18 18.75 40.815 18.135 39.645 17.31C38.25 18.18 36.645 18.765 34.965 19.125C34.875 18.84 34.62 18.375 34.41 18.135C35.955 17.865 37.455 17.355 38.76 16.605C37.815 15.78 37.035 14.805 36.45 13.68L37.185 13.425H35.445V12.42H42.525L42.735 12.375ZM56.205 12.69V11.175H49.95V12.69H56.205ZM49.905 15.225H56.205V13.65H49.95V14.115C49.95 14.475 49.935 14.835 49.905 15.225ZM59.055 8.43H50.955C50.67 9.015 50.37 9.615 50.04 10.17H57.3V17.745C57.3 18.42 57.15 18.75 56.67 18.93C56.175 19.11 55.335 19.125 54.06 19.125C54.015 18.795 53.85 18.345 53.685 18.03C54.69 18.075 55.59 18.06 55.86 18.06C56.115 18.045 56.205 17.97 56.205 17.745V16.185H49.77C49.575 17.28 49.125 18.405 48.24 19.23C48.105 18.99 47.7 18.525 47.46 18.36C48.705 17.16 48.84 15.51 48.84 14.085V11.895C48.135 12.75 47.325 13.545 46.41 14.19C46.26 13.95 45.915 13.545 45.705 13.32C47.46 12.135 48.81 10.365 49.74 8.43H46.005V7.38L50.22 7.38C50.475 6.735 50.7 6.09 50.88 5.445L51.99 5.715C51.825 6.27 51.63 6.84 51.405 7.38H59.055V8.43ZM74.145 11.805L73.425 12.06C73.38 11.88 73.32 11.64 73.23 11.385C71.07 11.73 70.695 11.805 70.515 11.91C70.455 11.73 70.32 11.265 70.23 11.04C70.455 10.995 70.68 10.74 70.95 10.38C71.115 10.185 71.46 9.69 71.865 9.045C70.755 9.195 70.5 9.27 70.35 9.345C70.305 9.15 70.17 8.745 70.065 8.505C70.245 8.49 70.41 8.295 70.59 8.01C70.74 7.755 71.37 6.66 71.685 5.655L72.495 5.91C72.135 6.795 71.67 7.68 71.205 8.37L72.3 8.25C72.495 7.92 72.675 7.56 72.825 7.215L73.665 7.53C73.035 8.76 72.24 9.96 71.475 10.89L72.99 10.68C72.87 10.38 72.75 10.065 72.63 9.78L73.305 9.585C73.635 10.29 73.995 11.25 74.145 11.805ZM68.745 12.06L68.01 12.315C67.965 12.135 67.905 11.925 67.845 11.685C65.7 12.015 65.355 12.075 65.145 12.195C65.115 12.015 64.995 11.58 64.89 11.355C65.1 11.295 65.355 11.055 65.64 10.68C65.805 10.5 66.195 9.975 66.615 9.33C65.445 9.495 65.16 9.57 65.01 9.645C64.98 9.465 64.845 9.045 64.755 8.82C64.935 8.775 65.1 8.58 65.31 8.28C65.52 7.98 66.21 6.825 66.57 5.685L67.41 5.955C66.99 6.93 66.45 7.92 65.91 8.67L67.095 8.55C67.275 8.22 67.455 7.89 67.605 7.545L68.415 7.86C67.755 9.06 66.96 10.245 66.165 11.175L67.635 10.98C67.515 10.65 67.395 10.335 67.275 10.035L67.98 9.84C68.31 10.56 68.61 11.505 68.745 12.06ZM64.695 12.63L64.14 13.455C63.99 13.05 63.66 12.33 63.345 11.7V19.14H62.37V12.015C61.995 13.56 61.485 15.03 60.975 15.93C60.855 15.615 60.615 15.12 60.45 14.85C61.2 13.635 61.92 11.34 62.28 9.375H60.78V8.325H62.37V5.445H63.345V8.325H64.53V9.375H63.345V10.35C63.675 10.875 64.485 12.255 64.695 12.63ZM72.36 14.22L73.32 14.565C72.855 15.465 72.24 16.26 71.475 16.965C71.91 17.625 72.435 17.985 73.035 18.045C73.35 18.075 73.545 17.505 73.665 16.425C73.845 16.635 74.22 16.89 74.415 16.995C74.13 18.63 73.665 19.185 73.065 19.14C72.09 19.08 71.31 18.54 70.695 17.61C69.915 18.18 69.03 18.675 68.07 19.065C67.95 18.87 67.68 18.54 67.47 18.36C68.505 17.955 69.465 17.43 70.26 16.8C69.915 16.035 69.63 15.105 69.39 14.055H66.945V14.28C66.945 14.385 66.945 14.505 66.93 14.625C67.65 15.18 68.55 15.945 69 16.41L68.31 17.085C67.965 16.71 67.38 16.155 66.795 15.66C66.54 16.86 65.91 18.165 64.59 19.17C64.44 18.96 64.065 18.615 63.855 18.495C65.61 17.205 65.985 15.525 65.985 14.265V14.055H64.845V13.155H69.225C68.865 11.025 68.67 8.43 68.58 5.565H69.54C69.615 8.49 69.825 11.1 70.2 13.155H72.345C71.985 12.84 71.445 12.465 71.01 12.195L71.58 11.67C72.105 11.97 72.795 12.435 73.14 12.75L72.75 13.155H73.995V14.055H70.38C70.575 14.85 70.77 15.54 71.025 16.11C71.58 15.54 72.045 14.895 72.36 14.22ZM85.665 15H79.455V16.02H85.665V15ZM79.455 17.835H85.665V16.815H79.455V17.835ZM78.36 19.125V14.205H86.79V19.08H85.665V18.63H79.455V19.125H78.36ZM84.645 12.675L83.895 12.405C84.165 11.91 84.555 11.115 84.72 10.605L85.665 10.905C85.335 11.55 84.96 12.225 84.645 12.675ZM79.35 10.92L80.145 10.665C80.535 11.19 80.91 11.88 81.045 12.36L80.19 12.675C80.07 12.195 79.725 11.475 79.35 10.92ZM78.45 10.5V12.735H81.99V10.5H78.45ZM86.505 12.735V10.5H82.935V12.735H86.505ZM77.49 13.5V9.72H87.51V13.5H77.49ZM80.625 8.175H84.54C83.82 7.725 83.145 7.215 82.575 6.675C82.005 7.23 81.345 7.74 80.625 8.175ZM82.41 5.4L83.385 5.76C83.31 5.85 83.25 5.955 83.175 6.045C84.585 7.41 87.18 8.625 89.52 9.165C89.28 9.375 88.98 9.765 88.815 10.035C87.6 9.69 86.31 9.18 85.14 8.52V8.985H79.935V8.565C78.795 9.21 77.52 9.72 76.26 10.11C76.14 9.9 75.825 9.465 75.63 9.255C78.345 8.535 81 7.215 82.41 5.4Z" fill="black"/>
<path d="M4.914 45.252C4.218 45.252 3.594 45.168 3.042 45C2.49 44.844 1.998 44.628 1.566 44.352C1.146 44.064 0.78 43.746 0.468 43.398L1.71 41.724C2.118 42.096 2.562 42.42 3.042 42.696C3.534 42.96 4.08 43.092 4.68 43.092C5.136 43.092 5.532 43.02 5.868 42.876C6.216 42.732 6.48 42.522 6.66 42.246C6.852 41.97 6.948 41.634 6.948 41.238C6.948 40.794 6.84 40.416 6.624 40.104C6.42 39.78 6.054 39.534 5.526 39.366C4.998 39.198 4.254 39.114 3.294 39.114V37.206C4.11 37.206 4.752 37.122 5.22 36.954C5.688 36.774 6.018 36.534 6.21 36.234C6.414 35.922 6.516 35.568 6.516 35.172C6.516 34.656 6.36 34.254 6.048 33.966C5.736 33.666 5.298 33.516 4.734 33.516C4.266 33.516 3.828 33.624 3.42 33.84C3.024 34.044 2.628 34.326 2.232 34.686L0.864 33.048C1.452 32.556 2.07 32.166 2.718 31.878C3.366 31.578 4.08 31.428 4.86 31.428C5.712 31.428 6.462 31.566 7.11 31.842C7.77 32.118 8.28 32.52 8.64 33.048C9 33.576 9.18 34.218 9.18 34.974C9.18 35.694 8.988 36.312 8.604 36.828C8.22 37.344 7.674 37.74 6.966 38.016V38.106C7.458 38.238 7.902 38.454 8.298 38.754C8.706 39.042 9.024 39.408 9.252 39.852C9.492 40.296 9.612 40.812 9.612 41.4C9.612 42.204 9.396 42.894 8.964 43.47C8.544 44.046 7.974 44.49 7.254 44.802C6.546 45.102 5.766 45.252 4.914 45.252ZM11.3912 45V43.47C12.6032 42.39 13.6352 41.388 14.4872 40.464C15.3512 39.54 16.0112 38.682 16.4672 37.89C16.9232 37.086 17.1512 36.342 17.1512 35.658C17.1512 35.226 17.0732 34.848 16.9172 34.524C16.7612 34.2 16.5332 33.954 16.2332 33.786C15.9452 33.606 15.5852 33.516 15.1532 33.516C14.6732 33.516 14.2292 33.654 13.8212 33.93C13.4252 34.194 13.0592 34.512 12.7232 34.884L11.2472 33.462C11.8712 32.79 12.5072 32.286 13.1552 31.95C13.8152 31.602 14.5952 31.428 15.4952 31.428C16.3352 31.428 17.0672 31.602 17.6912 31.95C18.3272 32.286 18.8192 32.76 19.1672 33.372C19.5152 33.984 19.6892 34.704 19.6892 35.532C19.6892 36.336 19.4852 37.158 19.0772 37.998C18.6812 38.826 18.1472 39.654 17.4752 40.482C16.8032 41.31 16.0592 42.126 15.2432 42.93C15.5912 42.882 15.9632 42.846 16.3592 42.822C16.7672 42.786 17.1272 42.768 17.4392 42.768H20.3192V45H11.3912ZM24.1684 45.252C23.6884 45.252 23.2924 45.084 22.9804 44.748C22.6684 44.412 22.5124 44.004 22.5124 43.524C22.5124 43.02 22.6684 42.606 22.9804 42.282C23.2924 41.958 23.6884 41.796 24.1684 41.796C24.6364 41.796 25.0264 41.958 25.3384 42.282C25.6504 42.606 25.8064 43.02 25.8064 43.524C25.8064 44.004 25.6504 44.412 25.3384 44.748C25.0264 45.084 24.6364 45.252 24.1684 45.252ZM33.1539 45V36.81C33.1539 36.426 33.1659 35.97 33.1899 35.442C33.2139 34.902 33.2379 34.434 33.2619 34.038H33.1719C33.0159 34.398 32.8479 34.758 32.6679 35.118C32.4879 35.478 32.3019 35.844 32.1099 36.216L30.0399 39.528H37.2039V41.544H27.4659V39.744L32.4339 31.662H35.6199V45H33.1539ZM42.6911 45.252C41.9831 45.252 41.3531 45.168 40.8011 45C40.2491 44.832 39.7571 44.61 39.3251 44.334C38.8931 44.058 38.5091 43.758 38.1731 43.434L39.3971 41.742C39.6491 41.994 39.9191 42.222 40.2071 42.426C40.5071 42.63 40.8311 42.792 41.1791 42.912C41.5391 43.032 41.9231 43.092 42.3311 43.092C42.7871 43.092 43.1891 42.996 43.5371 42.804C43.8971 42.612 44.1791 42.336 44.3831 41.976C44.5871 41.604 44.6891 41.16 44.6891 40.644C44.6891 39.876 44.4791 39.282 44.0591 38.862C43.6511 38.442 43.1111 38.232 42.4391 38.232C42.0551 38.232 41.7251 38.286 41.4491 38.394C41.1731 38.49 40.8371 38.664 40.4411 38.916L39.2351 38.142L39.5951 31.662H46.7231V33.894H41.8811L41.6291 36.72C41.8931 36.6 42.1511 36.51 42.4031 36.45C42.6551 36.39 42.9311 36.36 43.2311 36.36C43.9751 36.36 44.6591 36.51 45.2831 36.81C45.9071 37.098 46.4051 37.554 46.7771 38.178C47.1491 38.802 47.3351 39.6 47.3351 40.572C47.3351 41.556 47.1131 42.402 46.6691 43.11C46.2371 43.806 45.6671 44.34 44.9591 44.712C44.2631 45.072 43.5071 45.252 42.6911 45.252ZM52.1383 39.87C51.5143 39.87 50.9563 39.702 50.4643 39.366C49.9723 39.03 49.5883 38.544 49.3123 37.908C49.0363 37.272 48.8983 36.51 48.8983 35.622C48.8983 34.734 49.0363 33.978 49.3123 33.354C49.5883 32.73 49.9723 32.256 50.4643 31.932C50.9563 31.596 51.5143 31.428 52.1383 31.428C52.7863 31.428 53.3503 31.596 53.8303 31.932C54.3223 32.256 54.7063 32.73 54.9823 33.354C55.2583 33.978 55.3963 34.734 55.3963 35.622C55.3963 36.51 55.2583 37.272 54.9823 37.908C54.7063 38.544 54.3223 39.03 53.8303 39.366C53.3503 39.702 52.7863 39.87 52.1383 39.87ZM52.1383 38.376C52.5223 38.376 52.8463 38.166 53.1103 37.746C53.3863 37.314 53.5243 36.606 53.5243 35.622C53.5243 34.65 53.3863 33.96 53.1103 33.552C52.8463 33.132 52.5223 32.922 52.1383 32.922C51.7543 32.922 51.4243 33.132 51.1483 33.552C50.8843 33.96 50.7523 34.65 50.7523 35.622C50.7523 36.606 50.8843 37.314 51.1483 37.746C51.4243 38.166 51.7543 38.376 52.1383 38.376ZM52.5703 45.252L59.8243 31.428H61.3903L54.1543 45.252H52.5703ZM61.8403 45.252C61.2043 45.252 60.6403 45.084 60.1483 44.748C59.6683 44.412 59.2843 43.926 58.9963 43.29C58.7203 42.654 58.5823 41.892 58.5823 41.004C58.5823 40.104 58.7203 39.342 58.9963 38.718C59.2843 38.094 59.6683 37.62 60.1483 37.296C60.6403 36.96 61.2043 36.792 61.8403 36.792C62.4643 36.792 63.0163 36.96 63.4963 37.296C63.9883 37.62 64.3723 38.094 64.6483 38.718C64.9363 39.342 65.0803 40.104 65.0803 41.004C65.0803 41.892 64.9363 42.654 64.6483 43.29C64.3723 43.926 63.9883 44.412 63.4963 44.748C63.0163 45.084 62.4643 45.252 61.8403 45.252ZM61.8403 43.74C62.2243 43.74 62.5483 43.53 62.8123 43.11C63.0763 42.678 63.2083 41.976 63.2083 41.004C63.2083 40.008 63.0763 39.312 62.8123 38.916C62.5483 38.508 62.2243 38.304 61.8403 38.304C61.4443 38.304 61.1143 38.508 60.8503 38.916C60.5863 39.312 60.4543 40.008 60.4543 41.004C60.4543 41.976 60.5863 42.678 60.8503 43.11C61.1143 43.53 61.4443 43.74 61.8403 43.74Z" fill="#0095CC"/>
<path d="M12.24 177.845H8.01C7.515 179.645 6.72 181.055 5.58 182.075C5.385 181.895 4.905 181.535 4.635 181.37C6.225 180.125 7.005 178.055 7.32 175.445L8.46 175.595C8.4 176.015 8.34 176.42 8.25 176.81H13.425C13.425 176.81 13.41 177.125 13.38 177.29C13.2 179.885 13.005 180.92 12.615 181.34C12.345 181.625 12.06 181.7 11.625 181.73C11.235 181.76 10.5 181.76 9.735 181.715C9.705 181.4 9.57 180.965 9.39 180.695C10.14 180.755 10.875 180.77 11.16 180.77C11.415 180.77 11.55 180.755 11.685 180.635C11.94 180.395 12.105 179.645 12.24 177.845ZM4.785 177.215L4.125 178.1C3.555 177.56 2.385 176.825 1.425 176.375L2.04 175.58C3 175.985 4.185 176.66 4.785 177.215ZM4.005 181.1L3.39 182.03C2.79 181.52 1.605 180.83 0.63 180.395L1.23 179.585C2.19 179.96 3.405 180.605 4.005 181.1ZM3.78 183.41L4.605 184.115C3.87 185.69 2.88 187.55 2.055 188.93L1.11 188.21C1.875 187.055 2.955 185.105 3.78 183.41ZM11.94 183.425H7.485C8.01 184.4 8.745 185.27 9.675 186.005C10.62 185.315 11.4 184.445 11.94 183.425ZM12.735 182.375L13.455 182.69C12.855 184.355 11.85 185.645 10.59 186.65C11.7 187.34 12.99 187.85 14.415 188.15C14.16 188.375 13.845 188.84 13.695 189.14C12.18 188.75 10.815 188.135 9.645 187.31C8.25 188.18 6.645 188.765 4.965 189.125C4.875 188.84 4.62 188.375 4.41 188.135C5.955 187.865 7.455 187.355 8.76 186.605C7.815 185.78 7.035 184.805 6.45 183.68L7.185 183.425H5.445V182.42H12.525L12.735 182.375ZM26.205 182.69V181.175H19.95V182.69H26.205ZM19.905 185.225H26.205V183.65H19.95V184.115C19.95 184.475 19.935 184.835 19.905 185.225ZM29.055 178.43H20.955C20.67 179.015 20.37 179.615 20.04 180.17H27.3V187.745C27.3 188.42 27.15 188.75 26.67 188.93C26.175 189.11 25.335 189.125 24.06 189.125C24.015 188.795 23.85 188.345 23.685 188.03C24.69 188.075 25.59 188.06 25.86 188.06C26.115 188.045 26.205 187.97 26.205 187.745V186.185H19.77C19.575 187.28 19.125 188.405 18.24 189.23C18.105 188.99 17.7 188.525 17.46 188.36C18.705 187.16 18.84 185.51 18.84 184.085V181.895C18.135 182.75 17.325 183.545 16.41 184.19C16.26 183.95 15.915 183.545 15.705 183.32C17.46 182.135 18.81 180.365 19.74 178.43H16.005V177.38H20.22C20.475 176.735 20.7 176.09 20.88 175.445L21.99 175.715C21.825 176.27 21.63 176.84 21.405 177.38H29.055V178.43ZM42.435 178.55V177.155H38.715V178.55H42.435ZM42.435 180.815V179.42H38.715V180.815H42.435ZM42.435 183.11V181.685H38.715V183.11H42.435ZM43.5 176.24V184.025H37.68V176.24H43.5ZM36.225 184.475L37.005 183.905C37.695 184.535 38.625 185.465 39.075 186.02L38.265 186.68C37.83 186.11 36.915 185.15 36.225 184.475ZM31.725 188.36L30.75 187.865C31.35 187.07 31.86 185.795 32.16 184.82L33.135 185.195C32.805 186.2 32.325 187.535 31.725 188.36ZM34.665 184.175H33.6V180.23C32.94 181.46 32.1 182.6 31.26 183.29C31.08 183.035 30.765 182.69 30.54 182.51C31.635 181.73 32.745 180.185 33.405 178.655H30.87V177.68H33.6V175.49H34.665V177.68H37.035V178.655H34.665V179.495C35.235 179.855 36.765 180.995 37.155 181.295L36.555 182.195C36.165 181.82 35.325 181.085 34.665 180.53V184.175ZM36.39 187.82H39.345C40.065 187.82 40.185 187.61 40.245 186.08C40.5 186.275 40.95 186.44 41.265 186.5C41.115 188.375 40.77 188.825 39.42 188.825H36.315C34.695 188.825 34.275 188.525 34.275 187.37V184.985H35.37V187.355C35.37 187.745 35.52 187.82 36.39 187.82ZM41.475 184.955L42.435 184.52C43.05 185.465 43.86 186.755 44.235 187.52L43.2 188.03C42.855 187.25 42.075 185.945 41.475 184.955ZM47.31 177.065V179.675H50.19V177.065H47.31ZM51.345 185.975L51.465 186.95C49.47 187.475 47.385 188.06 45.84 188.465L45.57 187.43L46.35 187.25V182.075H47.28V187.025L48.45 186.725V180.65H46.335V176.09H51.21V180.65H49.455V182.72H51.27V183.71H49.455V186.455C50.07 186.305 50.7 186.14 51.345 185.975ZM52.995 179.825V181.685H57.39V179.825H52.995ZM57.39 177.11H52.995V178.895H57.39V177.11ZM58.545 183.14L59.25 183.92C58.5 184.535 57.495 185.21 56.67 185.69C57.39 186.755 58.32 187.595 59.475 188.09C59.22 188.3 58.89 188.735 58.74 189.035C56.49 187.925 55.155 185.63 54.435 182.675H52.995V187.595L55.65 186.95C55.65 187.28 55.665 187.73 55.71 187.97C52.635 188.81 52.17 188.96 51.885 189.155C51.795 188.915 51.555 188.465 51.375 188.24C51.615 188.12 51.93 187.805 51.93 187.19V176.12H58.41V182.675H55.365C55.575 183.47 55.86 184.22 56.22 184.895C57.015 184.385 57.945 183.695 58.545 183.14ZM2.505 199.14V202.02H6.315V199.14H2.505ZM4.05 204.615H7.47C7.47 204.615 7.455 204.96 7.455 205.095C7.275 208.83 7.125 210.195 6.72 210.66C6.465 210.96 6.21 211.05 5.76 211.08C5.385 211.125 4.65 211.11 3.93 211.08C3.9 210.78 3.795 210.36 3.615 210.105C4.35 210.18 5.055 210.18 5.325 210.18C5.58 210.18 5.7 210.15 5.835 210.015C6.105 209.715 6.255 208.575 6.39 205.62H3.93C3.6 207.795 2.895 209.865 1.32 211.17C1.17 210.93 0.825 210.57 0.555 210.405C2.595 208.785 2.955 205.725 3.105 203.01H1.47V198.135H7.365V203.01H4.185C4.155 203.535 4.11 204.075 4.05 204.615ZM9.975 199.245L9.975 207.495H8.895L8.895 199.245H9.975ZM12.54 197.745H13.65L13.65 209.67C13.65 210.42 13.44 210.765 12.975 210.96C12.48 211.14 11.64 211.155 10.275 211.155C10.215 210.855 10.05 210.345 9.87 210.03C10.92 210.075 11.865 210.06 12.15 210.045C12.42 210.045 12.54 209.955 12.54 209.67L12.54 197.745ZM21.87 197.505H23.1C23.085 198.045 23.07 198.795 22.995 199.68C23.22 201.465 24.12 207.735 29.415 210.09C29.1 210.345 28.77 210.72 28.605 211.035C24.855 209.28 23.25 205.575 22.53 202.785C21.84 205.785 20.25 209.145 16.59 211.095C16.395 210.795 16.035 210.45 15.69 210.225C21.915 207.075 21.825 199.785 21.87 197.505ZM43.92 199.515V200.61H31.05V199.515H37.275C37.065 198.99 36.645 198.255 36.285 197.67L37.32 197.31C37.74 197.91 38.22 198.735 38.43 199.245L37.755 199.515H43.92ZM39.27 201.69L40.125 201.045C41.49 201.975 43.17 203.325 43.98 204.285L43.065 205.005C42.315 204.06 40.65 202.635 39.27 201.69ZM34.8 201.075L35.865 201.495C34.86 202.77 33.285 204.105 31.965 204.96C31.77 204.735 31.35 204.315 31.11 204.12C32.43 203.37 33.9 202.215 34.8 201.075ZM39.75 203.595L40.89 203.91C40.275 205.44 39.435 206.7 38.385 207.705C39.93 208.875 41.91 209.67 44.31 210.045C44.07 210.285 43.77 210.735 43.62 211.05C41.145 210.57 39.135 209.715 37.545 208.425C35.895 209.73 33.84 210.57 31.425 211.185C31.305 210.915 30.975 210.42 30.75 210.18C33.15 209.685 35.175 208.89 36.735 207.69C35.7 206.685 34.905 205.44 34.305 203.985L35.295 203.685C35.805 204.96 36.57 206.085 37.545 207C38.505 206.085 39.255 204.96 39.75 203.595ZM55.53 199.815L54.45 200.235C54.255 199.59 53.715 198.525 53.22 197.745L54.225 197.385C54.735 198.15 55.305 199.17 55.53 199.815ZM48.765 197.49L49.83 197.88C48.975 199.185 47.595 200.58 46.32 201.465C46.185 201.21 45.9 200.775 45.735 200.565C46.875 199.8 48.135 198.54 48.765 197.49ZM49.08 200.805L50.055 201.18C49.71 201.81 49.275 202.455 48.825 203.055V211.155H47.715V204.405C47.205 204.99 46.65 205.5 46.125 205.95C46.02 205.695 45.72 205.125 45.525 204.855C46.845 203.865 48.225 202.35 49.08 200.805ZM55.185 209.625H59.31V210.69H49.83V209.625H54.03V205.77H50.775V204.705H54.03V201.36H50.25V200.295H58.935V201.36H55.185V204.705H58.455V205.77H55.185V209.625ZM67.32 198.855V202.575H68.775V200.07H71.445V198.855H67.32ZM69.645 202.575H71.445V200.85H69.645V202.575ZM66.18 203.46V209.055H65.19V202.575H66.33V197.985H72.465V202.575H73.65V207.945C73.65 208.47 73.56 208.725 73.17 208.89C72.825 209.055 72.24 209.055 71.355 209.055C71.31 208.785 71.175 208.41 71.055 208.155C71.67 208.17 72.24 208.17 72.39 208.17C72.57 208.155 72.63 208.095 72.63 207.945V203.46H66.18ZM70.47 206.805V205.215H68.31V206.805H70.47ZM71.34 204.435V207.585H68.31V208.185H67.455V204.435H71.34ZM63.93 199.77L63.045 200.355C62.685 199.725 61.905 198.675 61.29 197.925L62.145 197.46C62.79 198.195 63.54 199.155 63.93 199.77ZM63.915 204.57L64.41 204.78C64.215 206.01 63.93 207.105 63.555 208.02C64.515 209.7 66.42 209.94 69.255 209.94C70.83 209.94 73.005 209.88 74.52 209.745C74.355 209.985 74.205 210.48 74.16 210.78C72.75 210.87 70.875 210.9 69.24 210.9C66.195 210.9 64.305 210.6 63.135 208.905C62.625 209.88 61.965 210.63 61.245 211.17C61.11 210.945 60.735 210.555 60.51 210.405C61.86 209.475 62.835 207.825 63.3 205.515H61.845C61.47 205.515 61.08 205.605 60.975 205.725C60.9 205.455 60.675 204.945 60.555 204.705C60.78 204.645 61.02 204.555 61.26 204.285C61.605 203.925 62.475 202.74 63.105 201.825H60.75V200.91H63.78L63.96 200.835L64.695 201.165C64.08 202.05 62.985 203.595 62.16 204.6H63.72L63.915 204.57Z" fill="black"/>
<path d="M4.914 236.252C4.218 236.252 3.594 236.168 3.042 236C2.49 235.844 1.998 235.628 1.566 235.352C1.146 235.064 0.78 234.746 0.468 234.398L1.71 232.724C2.118 233.096 2.562 233.42 3.042 233.696C3.534 233.96 4.08 234.092 4.68 234.092C5.136 234.092 5.532 234.02 5.868 233.876C6.216 233.732 6.48 233.522 6.66 233.246C6.852 232.97 6.948 232.634 6.948 232.238C6.948 231.794 6.84 231.416 6.624 231.104C6.42 230.78 6.054 230.534 5.526 230.366C4.998 230.198 4.254 230.114 3.294 230.114V228.206C4.11 228.206 4.752 228.122 5.22 227.954C5.688 227.774 6.018 227.534 6.21 227.234C6.414 226.922 6.516 226.568 6.516 226.172C6.516 225.656 6.36 225.254 6.048 224.966C5.736 224.666 5.298 224.516 4.734 224.516C4.266 224.516 3.828 224.624 3.42 224.84C3.024 225.044 2.628 225.326 2.232 225.686L0.864 224.048C1.452 223.556 2.07 223.166 2.718 222.878C3.366 222.578 4.08 222.428 4.86 222.428C5.712 222.428 6.462 222.566 7.11 222.842C7.77 223.118 8.28 223.52 8.64 224.048C9 224.576 9.18 225.218 9.18 225.974C9.18 226.694 8.988 227.312 8.604 227.828C8.22 228.344 7.674 228.74 6.966 229.016V229.106C7.458 229.238 7.902 229.454 8.298 229.754C8.706 230.042 9.024 230.408 9.252 230.852C9.492 231.296 9.612 231.812 9.612 232.4C9.612 233.204 9.396 233.894 8.964 234.47C8.544 235.046 7.974 235.49 7.254 235.802C6.546 236.102 5.766 236.252 4.914 236.252ZM13.5512 236.252C13.0712 236.252 12.6752 236.084 12.3632 235.748C12.0512 235.412 11.8952 235.004 11.8952 234.524C11.8952 234.02 12.0512 233.606 12.3632 233.282C12.6752 232.958 13.0712 232.796 13.5512 232.796C14.0192 232.796 14.4092 232.958 14.7212 233.282C15.0332 233.606 15.1892 234.02 15.1892 234.524C15.1892 235.004 15.0332 235.412 14.7212 235.748C14.4092 236.084 14.0192 236.252 13.5512 236.252ZM19.8187 236C19.8787 234.848 19.9807 233.786 20.1247 232.814C20.2687 231.83 20.4727 230.906 20.7367 230.042C21.0007 229.166 21.3427 228.308 21.7627 227.468C22.1947 226.628 22.7287 225.77 23.3647 224.894H17.3707V222.662H26.2267V224.282C25.4587 225.218 24.8347 226.118 24.3547 226.982C23.8867 227.846 23.5267 228.722 23.2747 229.61C23.0347 230.498 22.8547 231.458 22.7347 232.49C22.6267 233.522 22.5427 234.692 22.4827 236H19.8187ZM32.3979 236.252C31.5459 236.252 30.7839 236.102 30.1119 235.802C29.4399 235.502 28.9059 235.082 28.5099 234.542C28.1259 234.002 27.9339 233.384 27.9339 232.688C27.9339 232.112 28.0359 231.608 28.2399 231.176C28.4559 230.732 28.7379 230.348 29.0859 230.024C29.4339 229.7 29.8119 229.43 30.2199 229.214V229.124C29.7159 228.764 29.2959 228.326 28.9599 227.81C28.6239 227.282 28.4559 226.67 28.4559 225.974C28.4559 225.254 28.6299 224.63 28.9779 224.102C29.3259 223.574 29.7999 223.166 30.3999 222.878C31.0119 222.59 31.7019 222.446 32.4699 222.446C33.2619 222.446 33.9459 222.596 34.5219 222.896C35.0979 223.184 35.5419 223.592 35.8539 224.12C36.1779 224.648 36.3399 225.272 36.3399 225.992C36.3399 226.424 36.2559 226.832 36.0879 227.216C35.9319 227.6 35.7219 227.948 35.4579 228.26C35.2059 228.56 34.9299 228.818 34.6299 229.034V229.124C35.0499 229.34 35.4279 229.61 35.7639 229.934C36.0999 230.258 36.3699 230.648 36.5739 231.104C36.7779 231.548 36.8799 232.076 36.8799 232.688C36.8799 233.36 36.6879 233.966 36.3039 234.506C35.9319 235.046 35.4099 235.472 34.7379 235.784C34.0659 236.096 33.2859 236.252 32.3979 236.252ZM33.2259 228.386C33.5499 228.038 33.7899 227.678 33.9459 227.306C34.1019 226.934 34.1799 226.55 34.1799 226.154C34.1799 225.794 34.1079 225.476 33.9639 225.2C33.8319 224.912 33.6339 224.69 33.3699 224.534C33.1059 224.378 32.7879 224.3 32.4159 224.3C31.9599 224.3 31.5759 224.444 31.2639 224.732C30.9519 225.02 30.7959 225.434 30.7959 225.974C30.7959 226.382 30.8979 226.736 31.1019 227.036C31.3179 227.324 31.6119 227.576 31.9839 227.792C32.3559 227.996 32.7699 228.194 33.2259 228.386ZM32.4519 234.38C32.8359 234.38 33.1719 234.314 33.4599 234.182C33.7599 234.038 33.9939 233.834 34.1619 233.57C34.3299 233.294 34.4139 232.97 34.4139 232.598C34.4139 232.25 34.3359 231.95 34.1799 231.698C34.0359 231.434 33.8319 231.206 33.5679 231.014C33.3039 230.81 32.9919 230.624 32.6319 230.456C32.2719 230.288 31.8759 230.108 31.4439 229.916C31.0839 230.216 30.7899 230.582 30.5619 231.014C30.3339 231.434 30.2199 231.896 30.2199 232.4C30.2199 232.796 30.3159 233.144 30.5079 233.444C30.7119 233.732 30.9819 233.96 31.3179 234.128C31.6539 234.296 32.0319 234.38 32.4519 234.38ZM41.5211 230.87C40.8971 230.87 40.3391 230.702 39.8471 230.366C39.3551 230.03 38.9711 229.544 38.6951 228.908C38.4191 228.272 38.2811 227.51 38.2811 226.622C38.2811 225.734 38.4191 224.978 38.6951 224.354C38.9711 223.73 39.3551 223.256 39.8471 222.932C40.3391 222.596 40.8971 222.428 41.5211 222.428C42.1691 222.428 42.7331 222.596 43.2131 222.932C43.7051 223.256 44.0891 223.73 44.3651 224.354C44.6411 224.978 44.7791 225.734 44.7791 226.622C44.7791 227.51 44.6411 228.272 44.3651 228.908C44.0891 229.544 43.7051 230.03 43.2131 230.366C42.7331 230.702 42.1691 230.87 41.5211 230.87ZM41.5211 229.376C41.9051 229.376 42.2291 229.166 42.4931 228.746C42.7691 228.314 42.9071 227.606 42.9071 226.622C42.9071 225.65 42.7691 224.96 42.4931 224.552C42.2291 224.132 41.9051 223.922 41.5211 223.922C41.1371 223.922 40.8071 224.132 40.5311 224.552C40.2671 224.96 40.1351 225.65 40.1351 226.622C40.1351 227.606 40.2671 228.314 40.5311 228.746C40.8071 229.166 41.1371 229.376 41.5211 229.376ZM41.9531 236.252L49.2071 222.428H50.7731L43.5371 236.252H41.9531ZM51.2231 236.252C50.5871 236.252 50.0231 236.084 49.5311 235.748C49.0511 235.412 48.6671 234.926 48.3791 234.29C48.1031 233.654 47.9651 232.892 47.9651 232.004C47.9651 231.104 48.1031 230.342 48.3791 229.718C48.6671 229.094 49.0511 228.62 49.5311 228.296C50.0231 227.96 50.5871 227.792 51.2231 227.792C51.8471 227.792 52.3991 227.96 52.8791 228.296C53.3711 228.62 53.7551 229.094 54.0311 229.718C54.3191 230.342 54.4631 231.104 54.4631 232.004C54.4631 232.892 54.3191 233.654 54.0311 234.29C53.7551 234.926 53.3711 235.412 52.8791 235.748C52.3991 236.084 51.8471 236.252 51.2231 236.252ZM51.2231 234.74C51.6071 234.74 51.9311 234.53 52.1951 234.11C52.4591 233.678 52.5911 232.976 52.5911 232.004C52.5911 231.008 52.4591 230.312 52.1951 229.916C51.9311 229.508 51.6071 229.304 51.2231 229.304C50.8271 229.304 50.4971 229.508 50.2331 229.916C49.9691 230.312 49.8371 231.008 49.8371 232.004C49.8371 232.976 49.9691 233.678 50.2331 234.11C50.4971 234.53 50.8271 234.74 51.2231 234.74Z" fill="black"/>
<path d="M6 142L6 168" stroke="black"/>
<path d="M38 51L38 97" stroke="black"/>
<path d="M156 51L156 97" stroke="black"/>
<path d="M222 143L222 193.5" stroke="black"/>
<path d="M307 143L307 193.5" stroke="black"/>
</svg>
