<svg width="500" height="262" viewBox="0 0 500 262" fill="none" xmlns="http://www.w3.org/2000/svg">
<rect x="500" y="176" width="29.3523" height="89.9999" transform="rotate(-180 500 176)" fill="#E2E2E2"/>
<rect x="20.2432" y="176" width="20.2429" height="89.9999" transform="rotate(-180 20.2432 176)" fill="#3A5F70"/>
<rect x="470.647" y="176" width="133.603" height="89.9999" transform="rotate(-180 470.647 176)" fill="#F5F5F5"/>
<rect x="337" y="176" width="155.064" height="89.9999" transform="rotate(-180 337 176)" fill="#3CB2E4"/>
<rect x="181.961" y="176" width="161.944" height="89.9999" transform="rotate(-180 181.961 176)" fill="#0A8FC8"/>
<path d="M323.21 220.15H331.19V221.17H323.21V220.15ZM323.54 227.92H330.725V228.94H323.54V227.92ZM322.7 231.805H331.325V232.855H322.7V231.805ZM326.54 228.4H327.665V232.45H326.54V228.4ZM324.635 221.665L325.625 221.92C325.425 222.3 325.19 222.715 324.92 223.165C324.65 223.605 324.39 224.015 324.14 224.395C324.47 224.835 324.785 225.295 325.085 225.775C325.395 226.255 325.63 226.665 325.79 227.005L324.86 227.41C324.7 227.02 324.455 226.555 324.125 226.015C323.795 225.475 323.435 224.945 323.045 224.425C323.245 224.115 323.445 223.795 323.645 223.465C323.845 223.125 324.03 222.8 324.2 222.49C324.38 222.17 324.525 221.895 324.635 221.665ZM327.245 221.665L328.235 221.935C328.025 222.305 327.78 222.715 327.5 223.165C327.22 223.605 326.96 224.015 326.72 224.395C326.94 224.675 327.16 224.975 327.38 225.295C327.6 225.605 327.8 225.905 327.98 226.195C328.17 226.485 328.315 226.74 328.415 226.96L327.5 227.38C327.33 226.99 327.075 226.525 326.735 225.985C326.395 225.445 326.015 224.92 325.595 224.41C325.815 224.1 326.025 223.78 326.225 223.45C326.435 223.12 326.63 222.8 326.81 222.49C326.99 222.18 327.135 221.905 327.245 221.665ZM329.84 221.665L330.83 221.92C330.61 222.3 330.36 222.715 330.08 223.165C329.8 223.605 329.535 224.015 329.285 224.395C329.525 224.675 329.755 224.975 329.975 225.295C330.205 225.605 330.42 225.905 330.62 226.195C330.82 226.485 330.975 226.745 331.085 226.975L330.17 227.41C329.99 227.02 329.715 226.555 329.345 226.015C328.975 225.465 328.575 224.935 328.145 224.425C328.365 224.115 328.58 223.795 328.79 223.465C329 223.125 329.195 222.8 329.375 222.49C329.565 222.17 329.72 221.895 329.84 221.665ZM321.185 225.31L322.04 225.07C322.18 225.4 322.315 225.76 322.445 226.15C322.585 226.53 322.705 226.9 322.805 227.26C322.915 227.61 322.995 227.915 323.045 228.175L322.115 228.49C322.075 228.22 322.005 227.905 321.905 227.545C321.805 227.175 321.69 226.795 321.56 226.405C321.44 226.015 321.315 225.65 321.185 225.31ZM319.82 229.18L320.69 229.03C320.78 229.54 320.865 230.09 320.945 230.68C321.025 231.27 321.075 231.78 321.095 232.21L320.195 232.375C320.175 231.945 320.13 231.435 320.06 230.845C319.99 230.245 319.91 229.69 319.82 229.18ZM318.26 229.045L319.22 229.21C319.14 229.88 319.03 230.555 318.89 231.235C318.76 231.905 318.615 232.475 318.455 232.945C318.385 232.905 318.29 232.865 318.17 232.825C318.06 232.785 317.945 232.74 317.825 232.69C317.705 232.65 317.605 232.62 317.525 232.6C317.705 232.14 317.855 231.59 317.975 230.95C318.095 230.31 318.19 229.675 318.26 229.045ZM317.885 225.01C317.865 224.94 317.835 224.845 317.795 224.725C317.755 224.595 317.71 224.465 317.66 224.335C317.62 224.205 317.58 224.095 317.54 224.005C317.67 223.975 317.8 223.89 317.93 223.75C318.07 223.6 318.215 223.41 318.365 223.18C318.485 223.03 318.66 222.76 318.89 222.37C319.13 221.97 319.38 221.51 319.64 220.99C319.91 220.46 320.15 219.92 320.36 219.37L321.365 219.805C320.975 220.635 320.535 221.465 320.045 222.295C319.565 223.115 319.075 223.825 318.575 224.425V224.44C318.575 224.44 318.54 224.46 318.47 224.5C318.4 224.54 318.315 224.59 318.215 224.65C318.125 224.71 318.045 224.77 317.975 224.83C317.915 224.89 317.885 224.95 317.885 225.01ZM317.885 225.01L317.855 224.185L318.395 223.87L321.065 223.63C321.035 223.77 321.01 223.93 320.99 224.11C320.98 224.29 320.975 224.435 320.975 224.545C320.365 224.615 319.87 224.675 319.49 224.725C319.12 224.765 318.825 224.805 318.605 224.845C318.395 224.875 318.235 224.905 318.125 224.935C318.025 224.955 317.945 224.98 317.885 225.01ZM317.99 228.4C317.97 228.32 317.94 228.22 317.9 228.1C317.86 227.97 317.815 227.84 317.765 227.71C317.715 227.57 317.67 227.455 317.63 227.365C317.79 227.325 317.955 227.22 318.125 227.05C318.305 226.87 318.51 226.64 318.74 226.36C318.85 226.22 319.02 225.995 319.25 225.685C319.48 225.375 319.74 225.005 320.03 224.575C320.32 224.145 320.61 223.68 320.9 223.18C321.2 222.68 321.47 222.18 321.71 221.68L322.67 222.235C322.3 222.915 321.895 223.59 321.455 224.26C321.025 224.93 320.575 225.57 320.105 226.18C319.635 226.78 319.165 227.325 318.695 227.815V227.845C318.695 227.845 318.66 227.865 318.59 227.905C318.52 227.935 318.435 227.98 318.335 228.04C318.245 228.09 318.165 228.15 318.095 228.22C318.025 228.28 317.99 228.34 317.99 228.4ZM317.99 228.4L317.945 227.56L318.485 227.215L322.175 226.735C322.155 226.875 322.14 227.035 322.13 227.215C322.12 227.385 322.12 227.525 322.13 227.635C321.29 227.765 320.61 227.87 320.09 227.95C319.58 228.03 319.185 228.1 318.905 228.16C318.625 228.21 318.42 228.255 318.29 228.295C318.16 228.325 318.06 228.36 317.99 228.4ZM321.26 228.88L322.07 228.625C322.22 229.025 322.37 229.465 322.52 229.945C322.68 230.415 322.795 230.825 322.865 231.175L322.01 231.46C321.95 231.11 321.845 230.695 321.695 230.215C321.555 229.735 321.41 229.29 321.26 228.88ZM339.11 226.705H340.265V233.2H339.11V226.705ZM336.695 224.635V226.105H342.38V224.635H336.695ZM335.615 223.78H343.52V226.96H335.615V223.78ZM334.28 228.205H344.315V229.225H335.405V232.525H334.28V228.205ZM343.76 228.205H344.9V231.355C344.9 231.645 344.86 231.87 344.78 232.03C344.71 232.2 344.555 232.33 344.315 232.42C344.075 232.5 343.76 232.545 343.37 232.555C342.98 232.575 342.495 232.585 341.915 232.585C341.885 232.435 341.83 232.265 341.75 232.075C341.68 231.885 341.605 231.715 341.525 231.565C341.825 231.575 342.105 231.585 342.365 231.595C342.635 231.595 342.865 231.595 343.055 231.595C343.245 231.595 343.38 231.595 343.46 231.595C343.58 231.575 343.66 231.55 343.7 231.52C343.74 231.49 343.76 231.43 343.76 231.34V228.205ZM339.02 219.385H340.16V222.13H339.02V219.385ZM333.29 221.725H345.815V224.95H344.705V222.715H334.37V224.95H333.29V221.725ZM334.52 219.955L335.54 219.535C335.78 219.805 336.015 220.105 336.245 220.435C336.485 220.765 336.67 221.05 336.8 221.29L335.735 221.8C335.625 221.54 335.45 221.235 335.21 220.885C334.98 220.535 334.75 220.225 334.52 219.955ZM343.445 219.52L344.615 219.925C344.365 220.245 344.105 220.57 343.835 220.9C343.565 221.22 343.32 221.495 343.1 221.725L342.17 221.35C342.32 221.19 342.47 221 342.62 220.78C342.78 220.56 342.93 220.34 343.07 220.12C343.22 219.89 343.345 219.69 343.445 219.52ZM347.945 221.35H361.085V222.4H347.945V221.35ZM351.5 226.705H358.64V227.665H351.5V226.705ZM358.22 224.14H359.33V231.79C359.33 232.12 359.285 232.375 359.195 232.555C359.105 232.745 358.935 232.89 358.685 232.99C358.435 233.07 358.095 233.115 357.665 233.125C357.245 233.145 356.715 233.155 356.075 233.155C356.045 233.005 355.995 232.825 355.925 232.615C355.855 232.405 355.78 232.225 355.7 232.075C356.03 232.085 356.34 232.09 356.63 232.09C356.93 232.1 357.19 232.1 357.41 232.09C357.63 232.09 357.79 232.09 357.89 232.09C358.02 232.09 358.105 232.065 358.145 232.015C358.195 231.975 358.22 231.895 358.22 231.775V224.14ZM352.865 219.4L354.005 219.67C353.665 220.75 353.235 221.82 352.715 222.88C352.205 223.93 351.59 224.915 350.87 225.835C350.15 226.745 349.32 227.535 348.38 228.205C348.33 228.115 348.26 228.02 348.17 227.92C348.08 227.81 347.99 227.705 347.9 227.605C347.81 227.505 347.725 227.415 347.645 227.335C348.315 226.885 348.925 226.36 349.475 225.76C350.025 225.15 350.515 224.495 350.945 223.795C351.375 223.095 351.75 222.375 352.07 221.635C352.39 220.885 352.655 220.14 352.865 219.4ZM351.395 229.24H358.625V230.215H351.395V229.24ZM351.41 224.14H358.55V225.16H351.41V224.14ZM350.81 224.14H351.935V228.13C351.935 228.54 351.915 228.975 351.875 229.435C351.835 229.895 351.75 230.355 351.62 230.815C351.5 231.275 351.325 231.71 351.095 232.12C350.875 232.54 350.58 232.925 350.21 233.275C350.17 233.195 350.1 233.095 350 232.975C349.9 232.865 349.795 232.755 349.685 232.645C349.585 232.535 349.495 232.455 349.415 232.405C349.845 231.995 350.155 231.55 350.345 231.07C350.545 230.59 350.67 230.095 350.72 229.585C350.78 229.075 350.81 228.585 350.81 228.115V224.14ZM362.735 222.295H366.515V223.345H362.735V222.295ZM364.325 219.4H365.3V233.185H364.325V219.4ZM364.31 222.925L364.895 223.18C364.815 223.76 364.705 224.37 364.565 225.01C364.425 225.65 364.265 226.28 364.085 226.9C363.915 227.51 363.73 228.08 363.53 228.61C363.34 229.14 363.135 229.59 362.915 229.96C362.885 229.85 362.84 229.73 362.78 229.6C362.72 229.46 362.655 229.325 362.585 229.195C362.525 229.065 362.465 228.955 362.405 228.865C362.605 228.535 362.8 228.14 362.99 227.68C363.18 227.21 363.36 226.71 363.53 226.18C363.7 225.64 363.85 225.09 363.98 224.53C364.12 223.97 364.23 223.435 364.31 222.925ZM365.21 224.2C365.28 224.29 365.38 224.45 365.51 224.68C365.65 224.9 365.8 225.14 365.96 225.4C366.12 225.66 366.265 225.905 366.395 226.135C366.525 226.355 366.62 226.52 366.68 226.63L366.11 227.455C366.05 227.285 365.96 227.07 365.84 226.81C365.72 226.55 365.59 226.28 365.45 226C365.32 225.72 365.19 225.46 365.06 225.22C364.94 224.97 364.84 224.78 364.76 224.65L365.21 224.2ZM366.83 227.155H376.04V228.07H366.83V227.155ZM368.135 229.15L368.81 228.55C369.07 228.74 369.335 228.95 369.605 229.18C369.885 229.41 370.15 229.64 370.4 229.87C370.65 230.09 370.855 230.285 371.015 230.455L370.31 231.13C370.15 230.95 369.945 230.745 369.695 230.515C369.455 230.285 369.2 230.05 368.93 229.81C368.66 229.56 368.395 229.34 368.135 229.15ZM373.04 226.195L373.625 225.655C373.895 225.805 374.18 225.985 374.48 226.195C374.78 226.405 375.015 226.585 375.185 226.735L374.6 227.35C374.43 227.18 374.195 226.985 373.895 226.765C373.605 226.545 373.32 226.355 373.04 226.195ZM374.405 228.22L375.365 228.58C374.865 229.6 374.155 230.495 373.235 231.265C372.315 232.025 371.265 232.64 370.085 233.11C370.025 233.01 369.93 232.89 369.8 232.75C369.68 232.61 369.57 232.495 369.47 232.405C370.61 231.965 371.61 231.385 372.47 230.665C373.33 229.945 373.975 229.13 374.405 228.22ZM370.595 219.505H371.57C371.61 221.285 371.705 222.93 371.855 224.44C372.005 225.95 372.215 227.27 372.485 228.4C372.765 229.52 373.115 230.4 373.535 231.04C373.965 231.68 374.48 232.03 375.08 232.09C375.24 232.1 375.37 231.965 375.47 231.685C375.57 231.405 375.65 230.995 375.71 230.455C375.78 230.525 375.86 230.6 375.95 230.68C376.05 230.75 376.145 230.815 376.235 230.875C376.325 230.935 376.405 230.98 376.475 231.01C376.375 231.57 376.255 232.01 376.115 232.33C375.985 232.65 375.835 232.875 375.665 233.005C375.505 233.135 375.32 233.195 375.11 233.185C374.44 233.145 373.86 232.895 373.37 232.435C372.89 231.975 372.48 231.335 372.14 230.515C371.81 229.695 371.54 228.725 371.33 227.605C371.12 226.485 370.955 225.245 370.835 223.885C370.725 222.515 370.645 221.055 370.595 219.505ZM369.275 224.02L369.995 223.825C370.155 224.185 370.305 224.58 370.445 225.01C370.595 225.43 370.7 225.78 370.76 226.06L370.01 226.315C369.95 226.015 369.85 225.65 369.71 225.22C369.58 224.79 369.435 224.39 369.275 224.02ZM366.995 223.615C366.975 223.525 366.935 223.39 366.875 223.21C366.825 223.03 366.775 222.885 366.725 222.775C366.815 222.755 366.905 222.7 366.995 222.61C367.095 222.51 367.195 222.385 367.295 222.235C367.365 222.135 367.475 221.95 367.625 221.68C367.775 221.41 367.935 221.095 368.105 220.735C368.285 220.375 368.435 220.005 368.555 219.625L369.41 219.91C369.15 220.51 368.855 221.1 368.525 221.68C368.195 222.25 367.865 222.73 367.535 223.12V223.15C367.535 223.15 367.49 223.175 367.4 223.225C367.31 223.275 367.22 223.335 367.13 223.405C367.04 223.475 366.995 223.545 366.995 223.615ZM366.995 223.615L366.98 222.955L367.43 222.685L369.545 222.46C369.485 222.58 369.425 222.715 369.365 222.865C369.315 223.015 369.275 223.13 369.245 223.21C368.675 223.28 368.235 223.34 367.925 223.39C367.625 223.44 367.41 223.485 367.28 223.525C367.16 223.555 367.065 223.585 366.995 223.615ZM367.13 226.195C367.13 226.125 367.11 226.04 367.07 225.94C367.04 225.84 367.005 225.735 366.965 225.625C366.925 225.505 366.89 225.41 366.86 225.34C366.98 225.31 367.1 225.24 367.22 225.13C367.35 225.01 367.485 224.855 367.625 224.665C367.725 224.545 367.89 224.325 368.12 224.005C368.36 223.675 368.615 223.29 368.885 222.85C369.155 222.41 369.395 221.96 369.605 221.5L370.43 221.815C370.02 222.545 369.57 223.255 369.08 223.945C368.6 224.635 368.125 225.22 367.655 225.7V225.715C367.655 225.715 367.61 225.74 367.52 225.79C367.44 225.84 367.355 225.905 367.265 225.985C367.175 226.055 367.13 226.125 367.13 226.195ZM367.13 226.195L367.115 225.49L367.535 225.22L370.025 224.92C370.035 225.03 370.06 225.155 370.1 225.295C370.14 225.435 370.175 225.55 370.205 225.64C369.585 225.73 369.085 225.805 368.705 225.865C368.325 225.915 368.03 225.96 367.82 226C367.61 226.04 367.455 226.075 367.355 226.105C367.265 226.135 367.19 226.165 367.13 226.195ZM374.675 223.765L375.365 223.555C375.535 223.915 375.7 224.31 375.86 224.74C376.02 225.16 376.13 225.51 376.19 225.79L375.47 226.06C375.4 225.77 375.29 225.405 375.14 224.965C374.99 224.525 374.835 224.125 374.675 223.765ZM372.38 223.315C372.36 223.225 372.32 223.09 372.26 222.91C372.2 222.73 372.145 222.585 372.095 222.475C372.185 222.455 372.27 222.405 372.35 222.325C372.44 222.235 372.525 222.12 372.605 221.98C372.675 221.88 372.775 221.71 372.905 221.47C373.035 221.23 373.175 220.945 373.325 220.615C373.475 220.275 373.605 219.935 373.715 219.595L374.54 219.865C374.32 220.425 374.06 220.97 373.76 221.5C373.47 222.02 373.185 222.46 372.905 222.82V222.835C372.905 222.835 372.86 222.865 372.77 222.925C372.69 222.975 372.605 223.035 372.515 223.105C372.425 223.175 372.38 223.245 372.38 223.315ZM372.38 223.315L372.365 222.655L372.8 222.37L374.81 222.175C374.76 222.295 374.705 222.43 374.645 222.58C374.595 222.72 374.555 222.835 374.525 222.925C373.985 222.995 373.565 223.055 373.265 223.105C372.975 223.155 372.77 223.195 372.65 223.225C372.53 223.255 372.44 223.285 372.38 223.315ZM372.53 225.895C372.52 225.835 372.495 225.755 372.455 225.655C372.425 225.545 372.39 225.435 372.35 225.325C372.32 225.205 372.29 225.105 372.26 225.025C372.37 224.995 372.485 224.925 372.605 224.815C372.725 224.695 372.85 224.54 372.98 224.35C373.09 224.22 373.255 223.995 373.475 223.675C373.695 223.345 373.935 222.96 374.195 222.52C374.455 222.07 374.68 221.62 374.87 221.17L375.725 221.5C375.345 222.23 374.92 222.94 374.45 223.63C373.99 224.32 373.53 224.91 373.07 225.4V225.415C373.07 225.415 373.025 225.445 372.935 225.505C372.855 225.555 372.765 225.62 372.665 225.7C372.575 225.77 372.53 225.835 372.53 225.895ZM372.53 225.895L372.515 225.22L372.935 224.935L375.41 224.635C375.43 224.745 375.455 224.87 375.485 225.01C375.525 225.14 375.56 225.25 375.59 225.34C374.97 225.43 374.47 225.505 374.09 225.565C373.71 225.625 373.415 225.675 373.205 225.715C373.005 225.755 372.855 225.79 372.755 225.82C372.665 225.84 372.59 225.865 372.53 225.895ZM367.97 227.5H368.945V228.295C368.945 228.785 368.875 229.325 368.735 229.915C368.605 230.495 368.37 231.07 368.03 231.64C367.69 232.21 367.205 232.735 366.575 233.215C366.525 233.135 366.45 233.05 366.35 232.96C366.26 232.88 366.165 232.795 366.065 232.705C365.975 232.625 365.895 232.565 365.825 232.525C366.415 232.095 366.86 231.635 367.16 231.145C367.47 230.645 367.68 230.145 367.79 229.645C367.91 229.145 367.97 228.685 367.97 228.265V227.5ZM380.42 224.485V226.735H388.535V224.485H380.42ZM379.445 223.705H389.555V227.5H379.445V223.705ZM381.905 222.13H387.14V222.94H381.905V222.13ZM383.975 223.99H384.935V227.125H383.975V223.99ZM381.32 224.935L382.145 224.65C382.335 224.92 382.51 225.215 382.67 225.535C382.84 225.845 382.96 226.12 383.03 226.36L382.175 226.675C382.115 226.435 382.005 226.15 381.845 225.82C381.685 225.49 381.51 225.195 381.32 224.935ZM386.735 224.59L387.695 224.905C387.525 225.225 387.35 225.545 387.17 225.865C386.99 226.185 386.825 226.455 386.675 226.675L385.88 226.405C386.02 226.155 386.175 225.855 386.345 225.505C386.515 225.155 386.645 224.85 386.735 224.59ZM380.33 228.22H388.82V233.14H387.68V229.03H381.44V233.185H380.33V228.22ZM380.99 230.035H388.16V230.845H380.99V230.035ZM381.005 231.88H388.175V232.675H381.005V231.88ZM384.395 219.34L385.385 219.715C384.865 220.395 384.22 221.015 383.45 221.575C382.68 222.125 381.845 222.61 380.945 223.03C380.045 223.45 379.135 223.81 378.215 224.11C378.175 224.03 378.115 223.935 378.035 223.825C377.965 223.715 377.885 223.605 377.795 223.495C377.715 223.385 377.64 223.295 377.57 223.225C378.48 222.975 379.365 222.665 380.225 222.295C381.095 221.925 381.89 221.49 382.61 220.99C383.33 220.49 383.925 219.94 384.395 219.34ZM385.04 219.85C385.39 220.21 385.81 220.56 386.3 220.9C386.8 221.23 387.34 221.54 387.92 221.83C388.5 222.11 389.1 222.36 389.72 222.58C390.35 222.8 390.97 222.98 391.58 223.12C391.45 223.22 391.315 223.36 391.175 223.54C391.045 223.71 390.935 223.865 390.845 224.005C390.245 223.835 389.63 223.625 389 223.375C388.37 223.115 387.755 222.82 387.155 222.49C386.565 222.16 386.015 221.805 385.505 221.425C384.995 221.045 384.55 220.645 384.17 220.225L385.04 219.85Z" fill="black"/>
<path d="M340.986 259.252C340.278 259.252 339.648 259.168 339.096 259C338.544 258.832 338.052 258.61 337.62 258.334C337.188 258.058 336.804 257.758 336.468 257.434L337.692 255.742C337.944 255.994 338.214 256.222 338.502 256.426C338.802 256.63 339.126 256.792 339.474 256.912C339.834 257.032 340.218 257.092 340.626 257.092C341.082 257.092 341.484 256.996 341.832 256.804C342.192 256.612 342.474 256.336 342.678 255.976C342.882 255.604 342.984 255.16 342.984 254.644C342.984 253.876 342.774 253.282 342.354 252.862C341.946 252.442 341.406 252.232 340.734 252.232C340.35 252.232 340.02 252.286 339.744 252.394C339.468 252.49 339.132 252.664 338.736 252.916L337.53 252.142L337.89 245.662H345.018V247.894H340.176L339.924 250.72C340.188 250.6 340.446 250.51 340.698 250.45C340.95 250.39 341.226 250.36 341.526 250.36C342.27 250.36 342.954 250.51 343.578 250.81C344.202 251.098 344.7 251.554 345.072 252.178C345.444 252.802 345.63 253.6 345.63 254.572C345.63 255.556 345.408 256.402 344.964 257.11C344.532 257.806 343.962 258.34 343.254 258.712C342.558 259.072 341.802 259.252 340.986 259.252ZM349.551 259.252C349.071 259.252 348.675 259.084 348.363 258.748C348.051 258.412 347.895 258.004 347.895 257.524C347.895 257.02 348.051 256.606 348.363 256.282C348.675 255.958 349.071 255.796 349.551 255.796C350.019 255.796 350.409 255.958 350.721 256.282C351.033 256.606 351.189 257.02 351.189 257.524C351.189 258.004 351.033 258.412 350.721 258.748C350.409 259.084 350.019 259.252 349.551 259.252ZM357.061 259.252C356.233 259.252 355.513 259.102 354.901 258.802C354.301 258.502 353.803 258.148 353.407 257.74L354.811 256.138C355.051 256.414 355.363 256.642 355.747 256.822C356.131 257.002 356.521 257.092 356.917 257.092C357.301 257.092 357.667 257.008 358.015 256.84C358.363 256.66 358.663 256.378 358.915 255.994C359.179 255.598 359.383 255.076 359.527 254.428C359.683 253.78 359.761 252.982 359.761 252.034C359.761 250.894 359.653 249.988 359.437 249.316C359.233 248.644 358.957 248.164 358.609 247.876C358.261 247.576 357.865 247.426 357.421 247.426C357.097 247.426 356.797 247.516 356.521 247.696C356.245 247.876 356.023 248.146 355.855 248.506C355.699 248.866 355.621 249.322 355.621 249.874C355.621 250.39 355.699 250.822 355.855 251.17C356.011 251.506 356.227 251.758 356.503 251.926C356.791 252.094 357.127 252.178 357.511 252.178C357.883 252.178 358.267 252.064 358.663 251.836C359.059 251.608 359.419 251.224 359.743 250.684L359.869 252.466C359.641 252.79 359.359 253.072 359.023 253.312C358.699 253.552 358.363 253.738 358.015 253.87C357.667 254.002 357.331 254.068 357.007 254.068C356.275 254.068 355.621 253.918 355.045 253.618C354.469 253.306 354.013 252.844 353.677 252.232C353.353 251.608 353.191 250.822 353.191 249.874C353.191 248.962 353.383 248.176 353.767 247.516C354.151 246.844 354.661 246.328 355.297 245.968C355.933 245.608 356.629 245.428 357.385 245.428C358.021 245.428 358.621 245.56 359.185 245.824C359.761 246.076 360.271 246.472 360.715 247.012C361.171 247.54 361.525 248.224 361.777 249.064C362.041 249.892 362.173 250.882 362.173 252.034C362.173 253.294 362.035 254.38 361.759 255.292C361.483 256.192 361.099 256.936 360.607 257.524C360.127 258.112 359.581 258.55 358.969 258.838C358.357 259.114 357.721 259.252 357.061 259.252ZM368.074 259.252C367.366 259.252 366.736 259.168 366.184 259C365.632 258.832 365.14 258.61 364.708 258.334C364.276 258.058 363.892 257.758 363.556 257.434L364.78 255.742C365.032 255.994 365.302 256.222 365.59 256.426C365.89 256.63 366.214 256.792 366.562 256.912C366.922 257.032 367.306 257.092 367.714 257.092C368.17 257.092 368.572 256.996 368.92 256.804C369.28 256.612 369.562 256.336 369.766 255.976C369.97 255.604 370.072 255.16 370.072 254.644C370.072 253.876 369.862 253.282 369.442 252.862C369.034 252.442 368.494 252.232 367.822 252.232C367.438 252.232 367.108 252.286 366.832 252.394C366.556 252.49 366.22 252.664 365.824 252.916L364.618 252.142L364.978 245.662H372.106V247.894H367.264L367.012 250.72C367.276 250.6 367.534 250.51 367.786 250.45C368.038 250.39 368.314 250.36 368.614 250.36C369.358 250.36 370.042 250.51 370.666 250.81C371.29 251.098 371.788 251.554 372.16 252.178C372.532 252.802 372.718 253.6 372.718 254.572C372.718 255.556 372.496 256.402 372.052 257.11C371.62 257.806 371.05 258.34 370.342 258.712C369.646 259.072 368.89 259.252 368.074 259.252ZM377.521 253.87C376.897 253.87 376.339 253.702 375.847 253.366C375.355 253.03 374.971 252.544 374.695 251.908C374.419 251.272 374.281 250.51 374.281 249.622C374.281 248.734 374.419 247.978 374.695 247.354C374.971 246.73 375.355 246.256 375.847 245.932C376.339 245.596 376.897 245.428 377.521 245.428C378.169 245.428 378.733 245.596 379.213 245.932C379.705 246.256 380.089 246.73 380.365 247.354C380.641 247.978 380.779 248.734 380.779 249.622C380.779 250.51 380.641 251.272 380.365 251.908C380.089 252.544 379.705 253.03 379.213 253.366C378.733 253.702 378.169 253.87 377.521 253.87ZM377.521 252.376C377.905 252.376 378.229 252.166 378.493 251.746C378.769 251.314 378.907 250.606 378.907 249.622C378.907 248.65 378.769 247.96 378.493 247.552C378.229 247.132 377.905 246.922 377.521 246.922C377.137 246.922 376.807 247.132 376.531 247.552C376.267 247.96 376.135 248.65 376.135 249.622C376.135 250.606 376.267 251.314 376.531 251.746C376.807 252.166 377.137 252.376 377.521 252.376ZM377.953 259.252L385.207 245.428H386.773L379.537 259.252H377.953ZM387.223 259.252C386.587 259.252 386.023 259.084 385.531 258.748C385.051 258.412 384.667 257.926 384.379 257.29C384.103 256.654 383.965 255.892 383.965 255.004C383.965 254.104 384.103 253.342 384.379 252.718C384.667 252.094 385.051 251.62 385.531 251.296C386.023 250.96 386.587 250.792 387.223 250.792C387.847 250.792 388.399 250.96 388.879 251.296C389.371 251.62 389.755 252.094 390.031 252.718C390.319 253.342 390.463 254.104 390.463 255.004C390.463 255.892 390.319 256.654 390.031 257.29C389.755 257.926 389.371 258.412 388.879 258.748C388.399 259.084 387.847 259.252 387.223 259.252ZM387.223 257.74C387.607 257.74 387.931 257.53 388.195 257.11C388.459 256.678 388.591 255.976 388.591 255.004C388.591 254.008 388.459 253.312 388.195 252.916C387.931 252.508 387.607 252.304 387.223 252.304C386.827 252.304 386.497 252.508 386.233 252.916C385.969 253.312 385.837 254.008 385.837 255.004C385.837 255.976 385.969 256.678 386.233 257.11C386.497 257.53 386.827 257.74 387.223 257.74Z" fill="black"/>
<path d="M431.615 223.315V224.8H437.375V223.315H431.615ZM431.615 221.005V222.46H437.375V221.005H431.615ZM430.565 220.12H438.455V225.685H430.565V220.12ZM438.035 226.87H439.085V232.015C439.085 232.305 439.045 232.53 438.965 232.69C438.885 232.85 438.735 232.97 438.515 233.05C438.295 233.13 437.995 233.18 437.615 233.2C437.235 233.22 436.755 233.225 436.175 233.215C436.155 233.085 436.11 232.93 436.04 232.75C435.98 232.57 435.915 232.41 435.845 232.27C436.285 232.28 436.68 232.285 437.03 232.285C437.39 232.285 437.625 232.28 437.735 232.27C437.855 232.27 437.935 232.25 437.975 232.21C438.015 232.18 438.035 232.115 438.035 232.015V226.87ZM433.955 220.465H434.96V230.215L433.955 230.32V220.465ZM431.405 230.035C432.105 229.985 432.94 229.92 433.91 229.84C434.89 229.75 435.885 229.655 436.895 229.555L436.925 230.425C435.985 230.535 435.05 230.645 434.12 230.755C433.2 230.855 432.365 230.95 431.615 231.04L431.405 230.035ZM435.8 228.58L436.46 228.355C436.65 228.665 436.83 228.995 437 229.345C437.17 229.695 437.325 230.035 437.465 230.365C437.615 230.695 437.73 230.985 437.81 231.235L437.105 231.505C437.025 231.255 436.915 230.96 436.775 230.62C436.645 230.28 436.495 229.935 436.325 229.585C436.155 229.225 435.98 228.89 435.8 228.58ZM428.99 219.46L430.07 219.775C429.75 220.625 429.38 221.465 428.96 222.295C428.55 223.115 428.1 223.89 427.61 224.62C427.13 225.34 426.63 225.985 426.11 226.555C426.07 226.465 426.01 226.35 425.93 226.21C425.86 226.07 425.78 225.93 425.69 225.79C425.61 225.64 425.535 225.525 425.465 225.445C425.935 224.955 426.385 224.39 426.815 223.75C427.255 223.11 427.66 222.425 428.03 221.695C428.41 220.955 428.73 220.21 428.99 219.46ZM427.43 223.345L428.495 222.28L428.51 222.295V233.185H427.43V223.345ZM429.365 226.87H438.485V227.83H429.365V226.87ZM429.875 226.24H430.94V233.2H429.875V226.24ZM446.93 220.6H448.025V233.125H446.93V220.6ZM441.95 223.36H452.6V224.305H443.015V233.2H441.95V223.36ZM452.12 223.36H453.2V231.955C453.2 232.255 453.155 232.485 453.065 232.645C452.985 232.815 452.84 232.94 452.63 233.02C452.41 233.1 452.105 233.15 451.715 233.17C451.335 233.19 450.86 233.2 450.29 233.2C450.27 233.07 450.225 232.91 450.155 232.72C450.085 232.53 450.015 232.37 449.945 232.24C450.375 232.25 450.765 232.255 451.115 232.255C451.475 232.265 451.715 232.265 451.835 232.255C451.945 232.245 452.02 232.22 452.06 232.18C452.1 232.14 452.12 232.065 452.12 231.955V223.36ZM444.11 221.35L445.13 221.71C444.81 222.05 444.435 222.385 444.005 222.715C443.585 223.035 443.145 223.335 442.685 223.615C442.225 223.895 441.78 224.14 441.35 224.35C441.29 224.28 441.205 224.2 441.095 224.11C440.995 224.01 440.89 223.915 440.78 223.825C440.68 223.725 440.585 223.65 440.495 223.6C441.165 223.33 441.825 223 442.475 222.61C443.135 222.21 443.68 221.79 444.11 221.35ZM449.705 221.875L450.53 221.23C450.99 221.43 451.465 221.665 451.955 221.935C452.445 222.195 452.91 222.46 453.35 222.73C453.8 222.99 454.175 223.23 454.475 223.45L453.635 224.17C453.345 223.94 452.975 223.69 452.525 223.42C452.085 223.14 451.62 222.865 451.13 222.595C450.64 222.315 450.165 222.075 449.705 221.875ZM445.565 224.635L446.285 224.815C445.995 225.425 445.635 226.02 445.205 226.6C444.785 227.17 444.35 227.655 443.9 228.055C443.84 227.995 443.745 227.92 443.615 227.83C443.485 227.73 443.375 227.66 443.285 227.62C443.735 227.24 444.16 226.79 444.56 226.27C444.97 225.74 445.305 225.195 445.565 224.635ZM443.54 225.7L443.99 225.16C444.3 225.31 444.61 225.485 444.92 225.685C445.24 225.885 445.535 226.09 445.805 226.3C446.085 226.5 446.31 226.685 446.48 226.855L446.015 227.47C445.835 227.28 445.61 227.08 445.34 226.87C445.07 226.65 444.775 226.44 444.455 226.24C444.145 226.03 443.84 225.85 443.54 225.7ZM445.565 228.13L446.315 228.31C446.035 229.03 445.675 229.71 445.235 230.35C444.795 230.98 444.33 231.515 443.84 231.955C443.77 231.895 443.67 231.815 443.54 231.715C443.41 231.615 443.295 231.54 443.195 231.49C443.695 231.08 444.15 230.58 444.56 229.99C444.98 229.4 445.315 228.78 445.565 228.13ZM443.51 229.195L443.96 228.655C444.28 228.825 444.605 229.03 444.935 229.27C445.265 229.5 445.57 229.735 445.85 229.975C446.14 230.205 446.37 230.415 446.54 230.605L446.09 231.22C445.9 231.01 445.665 230.785 445.385 230.545C445.105 230.305 444.8 230.065 444.47 229.825C444.15 229.585 443.83 229.375 443.51 229.195ZM450.56 224.635L451.28 224.815C450.99 225.445 450.625 226.05 450.185 226.63C449.755 227.2 449.315 227.685 448.865 228.085C448.805 228.035 448.71 227.965 448.58 227.875C448.45 227.775 448.335 227.7 448.235 227.65C448.715 227.27 449.155 226.815 449.555 226.285C449.965 225.755 450.3 225.205 450.56 224.635ZM448.475 225.64L448.925 225.115C449.245 225.275 449.57 225.46 449.9 225.67C450.23 225.88 450.54 226.095 450.83 226.315C451.12 226.525 451.35 226.725 451.52 226.915L451.055 227.515C450.865 227.325 450.625 227.115 450.335 226.885C450.055 226.655 449.75 226.43 449.42 226.21C449.1 225.99 448.785 225.8 448.475 225.64ZM450.62 228.115L451.37 228.295C451.08 229.005 450.71 229.675 450.26 230.305C449.81 230.935 449.335 231.465 448.835 231.895C448.765 231.835 448.665 231.755 448.535 231.655C448.405 231.555 448.295 231.48 448.205 231.43C448.715 231.03 449.18 230.54 449.6 229.96C450.03 229.38 450.37 228.765 450.62 228.115ZM448.52 229.15L448.97 228.595C449.3 228.765 449.63 228.965 449.96 229.195C450.3 229.415 450.62 229.64 450.92 229.87C451.22 230.09 451.46 230.3 451.64 230.5L451.19 231.115C451 230.915 450.755 230.7 450.455 230.47C450.165 230.23 449.85 229.995 449.51 229.765C449.17 229.525 448.84 229.32 448.52 229.15ZM440.96 220.3H454.13V221.32H440.96V220.3ZM455.945 221.35H469.085V222.4H455.945V221.35ZM459.5 226.705H466.64V227.665H459.5V226.705ZM466.22 224.14H467.33V231.79C467.33 232.12 467.285 232.375 467.195 232.555C467.105 232.745 466.935 232.89 466.685 232.99C466.435 233.07 466.095 233.115 465.665 233.125C465.245 233.145 464.715 233.155 464.075 233.155C464.045 233.005 463.995 232.825 463.925 232.615C463.855 232.405 463.78 232.225 463.7 232.075C464.03 232.085 464.34 232.09 464.63 232.09C464.93 232.1 465.19 232.1 465.41 232.09C465.63 232.09 465.79 232.09 465.89 232.09C466.02 232.09 466.105 232.065 466.145 232.015C466.195 231.975 466.22 231.895 466.22 231.775V224.14ZM460.865 219.4L462.005 219.67C461.665 220.75 461.235 221.82 460.715 222.88C460.205 223.93 459.59 224.915 458.87 225.835C458.15 226.745 457.32 227.535 456.38 228.205C456.33 228.115 456.26 228.02 456.17 227.92C456.08 227.81 455.99 227.705 455.9 227.605C455.81 227.505 455.725 227.415 455.645 227.335C456.315 226.885 456.925 226.36 457.475 225.76C458.025 225.15 458.515 224.495 458.945 223.795C459.375 223.095 459.75 222.375 460.07 221.635C460.39 220.885 460.655 220.14 460.865 219.4ZM459.395 229.24H466.625V230.215H459.395V229.24ZM459.41 224.14H466.55V225.16H459.41V224.14ZM458.81 224.14H459.935V228.13C459.935 228.54 459.915 228.975 459.875 229.435C459.835 229.895 459.75 230.355 459.62 230.815C459.5 231.275 459.325 231.71 459.095 232.12C458.875 232.54 458.58 232.925 458.21 233.275C458.17 233.195 458.1 233.095 458 232.975C457.9 232.865 457.795 232.755 457.685 232.645C457.585 232.535 457.495 232.455 457.415 232.405C457.845 231.995 458.155 231.55 458.345 231.07C458.545 230.59 458.67 230.095 458.72 229.585C458.78 229.075 458.81 228.585 458.81 228.115V224.14ZM470.735 222.295H474.515V223.345H470.735V222.295ZM472.325 219.4H473.3V233.185H472.325V219.4ZM472.31 222.925L472.895 223.18C472.815 223.76 472.705 224.37 472.565 225.01C472.425 225.65 472.265 226.28 472.085 226.9C471.915 227.51 471.73 228.08 471.53 228.61C471.34 229.14 471.135 229.59 470.915 229.96C470.885 229.85 470.84 229.73 470.78 229.6C470.72 229.46 470.655 229.325 470.585 229.195C470.525 229.065 470.465 228.955 470.405 228.865C470.605 228.535 470.8 228.14 470.99 227.68C471.18 227.21 471.36 226.71 471.53 226.18C471.7 225.64 471.85 225.09 471.98 224.53C472.12 223.97 472.23 223.435 472.31 222.925ZM473.21 224.2C473.28 224.29 473.38 224.45 473.51 224.68C473.65 224.9 473.8 225.14 473.96 225.4C474.12 225.66 474.265 225.905 474.395 226.135C474.525 226.355 474.62 226.52 474.68 226.63L474.11 227.455C474.05 227.285 473.96 227.07 473.84 226.81C473.72 226.55 473.59 226.28 473.45 226C473.32 225.72 473.19 225.46 473.06 225.22C472.94 224.97 472.84 224.78 472.76 224.65L473.21 224.2ZM474.83 227.155H484.04V228.07H474.83V227.155ZM476.135 229.15L476.81 228.55C477.07 228.74 477.335 228.95 477.605 229.18C477.885 229.41 478.15 229.64 478.4 229.87C478.65 230.09 478.855 230.285 479.015 230.455L478.31 231.13C478.15 230.95 477.945 230.745 477.695 230.515C477.455 230.285 477.2 230.05 476.93 229.81C476.66 229.56 476.395 229.34 476.135 229.15ZM481.04 226.195L481.625 225.655C481.895 225.805 482.18 225.985 482.48 226.195C482.78 226.405 483.015 226.585 483.185 226.735L482.6 227.35C482.43 227.18 482.195 226.985 481.895 226.765C481.605 226.545 481.32 226.355 481.04 226.195ZM482.405 228.22L483.365 228.58C482.865 229.6 482.155 230.495 481.235 231.265C480.315 232.025 479.265 232.64 478.085 233.11C478.025 233.01 477.93 232.89 477.8 232.75C477.68 232.61 477.57 232.495 477.47 232.405C478.61 231.965 479.61 231.385 480.47 230.665C481.33 229.945 481.975 229.13 482.405 228.22ZM478.595 219.505H479.57C479.61 221.285 479.705 222.93 479.855 224.44C480.005 225.95 480.215 227.27 480.485 228.4C480.765 229.52 481.115 230.4 481.535 231.04C481.965 231.68 482.48 232.03 483.08 232.09C483.24 232.1 483.37 231.965 483.47 231.685C483.57 231.405 483.65 230.995 483.71 230.455C483.78 230.525 483.86 230.6 483.95 230.68C484.05 230.75 484.145 230.815 484.235 230.875C484.325 230.935 484.405 230.98 484.475 231.01C484.375 231.57 484.255 232.01 484.115 232.33C483.985 232.65 483.835 232.875 483.665 233.005C483.505 233.135 483.32 233.195 483.11 233.185C482.44 233.145 481.86 232.895 481.37 232.435C480.89 231.975 480.48 231.335 480.14 230.515C479.81 229.695 479.54 228.725 479.33 227.605C479.12 226.485 478.955 225.245 478.835 223.885C478.725 222.515 478.645 221.055 478.595 219.505ZM477.275 224.02L477.995 223.825C478.155 224.185 478.305 224.58 478.445 225.01C478.595 225.43 478.7 225.78 478.76 226.06L478.01 226.315C477.95 226.015 477.85 225.65 477.71 225.22C477.58 224.79 477.435 224.39 477.275 224.02ZM474.995 223.615C474.975 223.525 474.935 223.39 474.875 223.21C474.825 223.03 474.775 222.885 474.725 222.775C474.815 222.755 474.905 222.7 474.995 222.61C475.095 222.51 475.195 222.385 475.295 222.235C475.365 222.135 475.475 221.95 475.625 221.68C475.775 221.41 475.935 221.095 476.105 220.735C476.285 220.375 476.435 220.005 476.555 219.625L477.41 219.91C477.15 220.51 476.855 221.1 476.525 221.68C476.195 222.25 475.865 222.73 475.535 223.12V223.15C475.535 223.15 475.49 223.175 475.4 223.225C475.31 223.275 475.22 223.335 475.13 223.405C475.04 223.475 474.995 223.545 474.995 223.615ZM474.995 223.615L474.98 222.955L475.43 222.685L477.545 222.46C477.485 222.58 477.425 222.715 477.365 222.865C477.315 223.015 477.275 223.13 477.245 223.21C476.675 223.28 476.235 223.34 475.925 223.39C475.625 223.44 475.41 223.485 475.28 223.525C475.16 223.555 475.065 223.585 474.995 223.615ZM475.13 226.195C475.13 226.125 475.11 226.04 475.07 225.94C475.04 225.84 475.005 225.735 474.965 225.625C474.925 225.505 474.89 225.41 474.86 225.34C474.98 225.31 475.1 225.24 475.22 225.13C475.35 225.01 475.485 224.855 475.625 224.665C475.725 224.545 475.89 224.325 476.12 224.005C476.36 223.675 476.615 223.29 476.885 222.85C477.155 222.41 477.395 221.96 477.605 221.5L478.43 221.815C478.02 222.545 477.57 223.255 477.08 223.945C476.6 224.635 476.125 225.22 475.655 225.7V225.715C475.655 225.715 475.61 225.74 475.52 225.79C475.44 225.84 475.355 225.905 475.265 225.985C475.175 226.055 475.13 226.125 475.13 226.195ZM475.13 226.195L475.115 225.49L475.535 225.22L478.025 224.92C478.035 225.03 478.06 225.155 478.1 225.295C478.14 225.435 478.175 225.55 478.205 225.64C477.585 225.73 477.085 225.805 476.705 225.865C476.325 225.915 476.03 225.96 475.82 226C475.61 226.04 475.455 226.075 475.355 226.105C475.265 226.135 475.19 226.165 475.13 226.195ZM482.675 223.765L483.365 223.555C483.535 223.915 483.7 224.31 483.86 224.74C484.02 225.16 484.13 225.51 484.19 225.79L483.47 226.06C483.4 225.77 483.29 225.405 483.14 224.965C482.99 224.525 482.835 224.125 482.675 223.765ZM480.38 223.315C480.36 223.225 480.32 223.09 480.26 222.91C480.2 222.73 480.145 222.585 480.095 222.475C480.185 222.455 480.27 222.405 480.35 222.325C480.44 222.235 480.525 222.12 480.605 221.98C480.675 221.88 480.775 221.71 480.905 221.47C481.035 221.23 481.175 220.945 481.325 220.615C481.475 220.275 481.605 219.935 481.715 219.595L482.54 219.865C482.32 220.425 482.06 220.97 481.76 221.5C481.47 222.02 481.185 222.46 480.905 222.82V222.835C480.905 222.835 480.86 222.865 480.77 222.925C480.69 222.975 480.605 223.035 480.515 223.105C480.425 223.175 480.38 223.245 480.38 223.315ZM480.38 223.315L480.365 222.655L480.8 222.37L482.81 222.175C482.76 222.295 482.705 222.43 482.645 222.58C482.595 222.72 482.555 222.835 482.525 222.925C481.985 222.995 481.565 223.055 481.265 223.105C480.975 223.155 480.77 223.195 480.65 223.225C480.53 223.255 480.44 223.285 480.38 223.315ZM480.53 225.895C480.52 225.835 480.495 225.755 480.455 225.655C480.425 225.545 480.39 225.435 480.35 225.325C480.32 225.205 480.29 225.105 480.26 225.025C480.37 224.995 480.485 224.925 480.605 224.815C480.725 224.695 480.85 224.54 480.98 224.35C481.09 224.22 481.255 223.995 481.475 223.675C481.695 223.345 481.935 222.96 482.195 222.52C482.455 222.07 482.68 221.62 482.87 221.17L483.725 221.5C483.345 222.23 482.92 222.94 482.45 223.63C481.99 224.32 481.53 224.91 481.07 225.4V225.415C481.07 225.415 481.025 225.445 480.935 225.505C480.855 225.555 480.765 225.62 480.665 225.7C480.575 225.77 480.53 225.835 480.53 225.895ZM480.53 225.895L480.515 225.22L480.935 224.935L483.41 224.635C483.43 224.745 483.455 224.87 483.485 225.01C483.525 225.14 483.56 225.25 483.59 225.34C482.97 225.43 482.47 225.505 482.09 225.565C481.71 225.625 481.415 225.675 481.205 225.715C481.005 225.755 480.855 225.79 480.755 225.82C480.665 225.84 480.59 225.865 480.53 225.895ZM475.97 227.5H476.945V228.295C476.945 228.785 476.875 229.325 476.735 229.915C476.605 230.495 476.37 231.07 476.03 231.64C475.69 232.21 475.205 232.735 474.575 233.215C474.525 233.135 474.45 233.05 474.35 232.96C474.26 232.88 474.165 232.795 474.065 232.705C473.975 232.625 473.895 232.565 473.825 232.525C474.415 232.095 474.86 231.635 475.16 231.145C475.47 230.645 475.68 230.145 475.79 229.645C475.91 229.145 475.97 228.685 475.97 228.265V227.5ZM488.42 224.485V226.735H496.535V224.485H488.42ZM487.445 223.705H497.555V227.5H487.445V223.705ZM489.905 222.13H495.14V222.94H489.905V222.13ZM491.975 223.99H492.935V227.125H491.975V223.99ZM489.32 224.935L490.145 224.65C490.335 224.92 490.51 225.215 490.67 225.535C490.84 225.845 490.96 226.12 491.03 226.36L490.175 226.675C490.115 226.435 490.005 226.15 489.845 225.82C489.685 225.49 489.51 225.195 489.32 224.935ZM494.735 224.59L495.695 224.905C495.525 225.225 495.35 225.545 495.17 225.865C494.99 226.185 494.825 226.455 494.675 226.675L493.88 226.405C494.02 226.155 494.175 225.855 494.345 225.505C494.515 225.155 494.645 224.85 494.735 224.59ZM488.33 228.22H496.82V233.14H495.68V229.03H489.44V233.185H488.33V228.22ZM488.99 230.035H496.16V230.845H488.99V230.035ZM489.005 231.88H496.175V232.675H489.005V231.88ZM492.395 219.34L493.385 219.715C492.865 220.395 492.22 221.015 491.45 221.575C490.68 222.125 489.845 222.61 488.945 223.03C488.045 223.45 487.135 223.81 486.215 224.11C486.175 224.03 486.115 223.935 486.035 223.825C485.965 223.715 485.885 223.605 485.795 223.495C485.715 223.385 485.64 223.295 485.57 223.225C486.48 222.975 487.365 222.665 488.225 222.295C489.095 221.925 489.89 221.49 490.61 220.99C491.33 220.49 491.925 219.94 492.395 219.34ZM493.04 219.85C493.39 220.21 493.81 220.56 494.3 220.9C494.8 221.23 495.34 221.54 495.92 221.83C496.5 222.11 497.1 222.36 497.72 222.58C498.35 222.8 498.97 222.98 499.58 223.12C499.45 223.22 499.315 223.36 499.175 223.54C499.045 223.71 498.935 223.865 498.845 224.005C498.245 223.835 497.63 223.625 497 223.375C496.37 223.115 495.755 222.82 495.155 222.49C494.565 222.16 494.015 221.805 493.505 221.425C492.995 221.045 492.55 220.645 492.17 220.225L493.04 219.85Z" fill="black"/>
<path d="M444.774 259V257.47C445.986 256.39 447.018 255.388 447.87 254.464C448.734 253.54 449.394 252.682 449.85 251.89C450.306 251.086 450.534 250.342 450.534 249.658C450.534 249.226 450.456 248.848 450.3 248.524C450.144 248.2 449.916 247.954 449.616 247.786C449.328 247.606 448.968 247.516 448.536 247.516C448.056 247.516 447.612 247.654 447.204 247.93C446.808 248.194 446.442 248.512 446.106 248.884L444.63 247.462C445.254 246.79 445.89 246.286 446.538 245.95C447.198 245.602 447.978 245.428 448.878 245.428C449.718 245.428 450.45 245.602 451.074 245.95C451.71 246.286 452.202 246.76 452.55 247.372C452.898 247.984 453.072 248.704 453.072 249.532C453.072 250.336 452.868 251.158 452.46 251.998C452.064 252.826 451.53 253.654 450.858 254.482C450.186 255.31 449.442 256.126 448.626 256.93C448.974 256.882 449.346 256.846 449.742 256.822C450.15 256.786 450.51 256.768 450.822 256.768H453.702V259H444.774ZM457.965 259C458.025 257.848 458.127 256.786 458.271 255.814C458.415 254.83 458.619 253.906 458.883 253.042C459.147 252.166 459.489 251.308 459.909 250.468C460.341 249.628 460.875 248.77 461.511 247.894H455.517V245.662H464.373V247.282C463.605 248.218 462.981 249.118 462.501 249.982C462.033 250.846 461.673 251.722 461.421 252.61C461.181 253.498 461.001 254.458 460.881 255.49C460.773 256.522 460.689 257.692 460.629 259H457.965ZM468.168 259.252C467.688 259.252 467.292 259.084 466.98 258.748C466.668 258.412 466.512 258.004 466.512 257.524C466.512 257.02 466.668 256.606 466.98 256.282C467.292 255.958 467.688 255.796 468.168 255.796C468.636 255.796 469.026 255.958 469.338 256.282C469.65 256.606 469.806 257.02 469.806 257.524C469.806 258.004 469.65 258.412 469.338 258.748C469.026 259.084 468.636 259.252 468.168 259.252ZM476.002 259.252C475.306 259.252 474.682 259.168 474.13 259C473.578 258.844 473.086 258.628 472.654 258.352C472.234 258.064 471.868 257.746 471.556 257.398L472.798 255.724C473.206 256.096 473.65 256.42 474.13 256.696C474.622 256.96 475.168 257.092 475.768 257.092C476.224 257.092 476.62 257.02 476.956 256.876C477.304 256.732 477.568 256.522 477.748 256.246C477.94 255.97 478.036 255.634 478.036 255.238C478.036 254.794 477.928 254.416 477.712 254.104C477.508 253.78 477.142 253.534 476.614 253.366C476.086 253.198 475.342 253.114 474.382 253.114V251.206C475.198 251.206 475.84 251.122 476.308 250.954C476.776 250.774 477.106 250.534 477.298 250.234C477.502 249.922 477.604 249.568 477.604 249.172C477.604 248.656 477.448 248.254 477.136 247.966C476.824 247.666 476.386 247.516 475.822 247.516C475.354 247.516 474.916 247.624 474.508 247.84C474.112 248.044 473.716 248.326 473.32 248.686L471.952 247.048C472.54 246.556 473.158 246.166 473.806 245.878C474.454 245.578 475.168 245.428 475.948 245.428C476.8 245.428 477.55 245.566 478.198 245.842C478.858 246.118 479.368 246.52 479.728 247.048C480.088 247.576 480.268 248.218 480.268 248.974C480.268 249.694 480.076 250.312 479.692 250.828C479.308 251.344 478.762 251.74 478.054 252.016V252.106C478.546 252.238 478.99 252.454 479.386 252.754C479.794 253.042 480.112 253.408 480.34 253.852C480.58 254.296 480.7 254.812 480.7 255.4C480.7 256.204 480.484 256.894 480.052 257.47C479.632 258.046 479.062 258.49 478.342 258.802C477.634 259.102 476.854 259.252 476.002 259.252ZM485.521 253.87C484.897 253.87 484.339 253.702 483.847 253.366C483.355 253.03 482.971 252.544 482.695 251.908C482.419 251.272 482.281 250.51 482.281 249.622C482.281 248.734 482.419 247.978 482.695 247.354C482.971 246.73 483.355 246.256 483.847 245.932C484.339 245.596 484.897 245.428 485.521 245.428C486.169 245.428 486.733 245.596 487.213 245.932C487.705 246.256 488.089 246.73 488.365 247.354C488.641 247.978 488.779 248.734 488.779 249.622C488.779 250.51 488.641 251.272 488.365 251.908C488.089 252.544 487.705 253.03 487.213 253.366C486.733 253.702 486.169 253.87 485.521 253.87ZM485.521 252.376C485.905 252.376 486.229 252.166 486.493 251.746C486.769 251.314 486.907 250.606 486.907 249.622C486.907 248.65 486.769 247.96 486.493 247.552C486.229 247.132 485.905 246.922 485.521 246.922C485.137 246.922 484.807 247.132 484.531 247.552C484.267 247.96 484.135 248.65 484.135 249.622C484.135 250.606 484.267 251.314 484.531 251.746C484.807 252.166 485.137 252.376 485.521 252.376ZM485.953 259.252L493.207 245.428H494.773L487.537 259.252H485.953ZM495.223 259.252C494.587 259.252 494.023 259.084 493.531 258.748C493.051 258.412 492.667 257.926 492.379 257.29C492.103 256.654 491.965 255.892 491.965 255.004C491.965 254.104 492.103 253.342 492.379 252.718C492.667 252.094 493.051 251.62 493.531 251.296C494.023 250.96 494.587 250.792 495.223 250.792C495.847 250.792 496.399 250.96 496.879 251.296C497.371 251.62 497.755 252.094 498.031 252.718C498.319 253.342 498.463 254.104 498.463 255.004C498.463 255.892 498.319 256.654 498.031 257.29C497.755 257.926 497.371 258.412 496.879 258.748C496.399 259.084 495.847 259.252 495.223 259.252ZM495.223 257.74C495.607 257.74 495.931 257.53 496.195 257.11C496.459 256.678 496.591 255.976 496.591 255.004C496.591 254.008 496.459 253.312 496.195 252.916C495.931 252.508 495.607 252.304 495.223 252.304C494.827 252.304 494.497 252.508 494.233 252.916C493.969 253.312 493.837 254.008 493.837 255.004C493.837 255.976 493.969 256.678 494.233 257.11C494.497 257.53 494.827 257.74 495.223 257.74Z" fill="black"/>
<path d="M75.69 12L74.865 12.345C74.82 12.135 74.73 11.925 74.64 11.67C71.175 12.015 70.755 12.09 70.455 12.225C70.425 12.03 70.275 11.58 70.17 11.325C70.455 11.295 70.77 11.04 71.16 10.65C71.355 10.485 71.745 10.065 72.225 9.54C70.8 9.69 70.5 9.765 70.335 9.855C70.275 9.645 70.155 9.21 70.065 8.985C70.26 8.94 70.5 8.715 70.74 8.4C70.995 8.085 71.865 6.84 72.39 5.625L73.245 5.955C72.675 7.005 71.985 8.04 71.325 8.85L72.9 8.715C73.245 8.28 73.59 7.8 73.89 7.32L74.745 7.695C73.8 9 72.735 10.215 71.685 11.145L74.31 10.935C74.13 10.56 73.92 10.215 73.725 9.9L74.52 9.615C75.015 10.35 75.525 11.355 75.69 12ZM80.37 14.16L81.39 14.475C80.91 15.33 80.25 16.08 79.485 16.725C80.13 17.52 80.85 17.955 81.63 17.955C82.2 17.955 82.38 17.565 82.5 16.035C82.74 16.275 83.1 16.47 83.385 16.575C83.145 18.495 82.755 19.02 81.585 19.02C80.445 19.02 79.455 18.42 78.615 17.37C77.58 18.09 76.365 18.66 75.15 19.095C75 18.885 74.64 18.465 74.415 18.255C75.735 17.85 77.01 17.31 78.075 16.575C77.625 15.825 77.22 14.94 76.89 13.935H73.41C73.38 14.265 73.335 14.625 73.275 14.955C74.13 15.435 75.12 16.11 75.63 16.605L74.895 17.34C74.505 16.935 73.77 16.365 73.035 15.9C72.63 17.28 71.835 18.51 70.5 19.2C70.35 18.99 69.975 18.63 69.75 18.465C71.565 17.58 72.195 15.705 72.3 13.935H69.84V12.975H76.605C76.005 10.77 75.675 8.145 75.645 5.46H76.74C76.74 8.25 77.1 10.875 77.73 12.975H80.475C80.07 12.66 79.47 12.285 78.975 12.045L79.455 11.565C78.435 11.7 78.195 11.76 78.015 11.82C77.985 11.64 77.85 11.19 77.745 10.95C78.015 10.905 78.33 10.635 78.705 10.26C78.9 10.095 79.29 9.675 79.74 9.15C78.345 9.3 78.06 9.39 77.88 9.465C77.835 9.27 77.715 8.82 77.61 8.595C77.805 8.565 78 8.37 78.24 8.055C78.465 7.77 79.26 6.615 79.71 5.52L80.565 5.835C80.055 6.795 79.455 7.74 78.855 8.475L80.385 8.355C80.745 7.905 81.09 7.41 81.405 6.93L82.245 7.305C81.315 8.595 80.28 9.795 79.26 10.755L81.54 10.53C81.36 10.185 81.15 9.855 80.94 9.555L81.72 9.21C82.29 9.975 82.86 10.995 83.04 11.67L82.215 12.045C82.155 11.835 82.05 11.565 81.915 11.28C80.94 11.385 80.22 11.475 79.695 11.535C80.28 11.82 80.925 12.21 81.285 12.54L80.85 12.975H83.205V13.935H78.03C78.3 14.685 78.6 15.345 78.93 15.915C79.515 15.39 80.01 14.82 80.37 14.16ZM98.175 12.495V13.62H92.22V17.64C92.22 18.45 91.98 18.795 91.41 18.96C90.855 19.155 89.895 19.17 88.32 19.17C88.23 18.855 88.02 18.345 87.825 18.03C89.085 18.075 90.255 18.06 90.6 18.06C90.93 18.045 91.05 17.94 91.05 17.625V13.62H84.87V12.495H91.05V7.53C89.37 7.68 87.66 7.77 86.1 7.815C86.07 7.5 85.935 7.08 85.83 6.81C89.415 6.675 93.81 6.315 96.255 5.67L96.84 6.675C95.58 6.99 93.96 7.245 92.22 7.41V12.495H98.175ZM86.52 8.625L87.495 8.295C88.095 9.315 88.725 10.68 88.95 11.535L87.93 11.94C87.72 11.085 87.105 9.69 86.52 8.625ZM94.98 11.91L94.08 11.535C94.635 10.605 95.34 9.09 95.7 8.025L96.885 8.43C96.285 9.615 95.565 11.025 94.98 11.91ZM111.24 7.845H107.01C106.515 9.645 105.72 11.055 104.58 12.075C104.385 11.895 103.905 11.535 103.635 11.37C105.225 10.125 106.005 8.055 106.32 5.445L107.46 5.595C107.4 6.015 107.34 6.42 107.25 6.81H112.425C112.425 6.81 112.41 7.125 112.38 7.29C112.2 9.885 112.005 10.92 111.615 11.34C111.345 11.625 111.06 11.7 110.625 11.73C110.235 11.76 109.5 11.76 108.735 11.715C108.705 11.4 108.57 10.965 108.39 10.695C109.14 10.755 109.875 10.77 110.16 10.77C110.415 10.77 110.55 10.755 110.685 10.635C110.94 10.395 111.105 9.645 111.24 7.845ZM103.785 7.215L103.125 8.1C102.555 7.56 101.385 6.825 100.425 6.375L101.04 5.58C102 5.985 103.185 6.66 103.785 7.215ZM103.005 11.1L102.39 12.03C101.79 11.52 100.605 10.83 99.63 10.395L100.23 9.585C101.19 9.96 102.405 10.605 103.005 11.1ZM102.78 13.41L103.605 14.115C102.87 15.69 101.88 17.55 101.055 18.93L100.11 18.21C100.875 17.055 101.955 15.105 102.78 13.41ZM110.94 13.425H106.485C107.01 14.4 107.745 15.27 108.675 16.005C109.62 15.315 110.4 14.445 110.94 13.425ZM111.735 12.375L112.455 12.69C111.855 14.355 110.85 15.645 109.59 16.65C110.7 17.34 111.99 17.85 113.415 18.15C113.16 18.375 112.845 18.84 112.695 19.14C111.18 18.75 109.815 18.135 108.645 17.31C107.25 18.18 105.645 18.765 103.965 19.125C103.875 18.84 103.62 18.375 103.41 18.135C104.955 17.865 106.455 17.355 107.76 16.605C106.815 15.78 106.035 14.805 105.45 13.68L106.185 13.425H104.445V12.42H111.525L111.735 12.375ZM125.205 12.69V11.175H118.95V12.69H125.205ZM118.905 15.225H125.205V13.65H118.95V14.115C118.95 14.475 118.935 14.835 118.905 15.225ZM128.055 8.43H119.955C119.67 9.015 119.37 9.615 119.04 10.17H126.3V17.745C126.3 18.42 126.15 18.75 125.67 18.93C125.175 19.11 124.335 19.125 123.06 19.125C123.015 18.795 122.85 18.345 122.685 18.03C123.69 18.075 124.59 18.06 124.86 18.06C125.115 18.045 125.205 17.97 125.205 17.745V16.185H118.77C118.575 17.28 118.125 18.405 117.24 19.23C117.105 18.99 116.7 18.525 116.46 18.36C117.705 17.16 117.84 15.51 117.84 14.085V11.895C117.135 12.75 116.325 13.545 115.41 14.19C115.26 13.95 114.915 13.545 114.705 13.32C116.46 12.135 117.81 10.365 118.74 8.43H115.005V7.38L119.22 7.38C119.475 6.735 119.7 6.09 119.88 5.445L120.99 5.715C120.825 6.27 120.63 6.84 120.405 7.38H128.055V8.43ZM143.145 11.805L142.425 12.06C142.38 11.88 142.32 11.64 142.23 11.385C140.07 11.73 139.695 11.805 139.515 11.91C139.455 11.73 139.32 11.265 139.23 11.04C139.455 10.995 139.68 10.74 139.95 10.38C140.115 10.185 140.46 9.69 140.865 9.045C139.755 9.195 139.5 9.27 139.35 9.345C139.305 9.15 139.17 8.745 139.065 8.505C139.245 8.49 139.41 8.295 139.59 8.01C139.74 7.755 140.37 6.66 140.685 5.655L141.495 5.91C141.135 6.795 140.67 7.68 140.205 8.37L141.3 8.25C141.495 7.92 141.675 7.56 141.825 7.215L142.665 7.53C142.035 8.76 141.24 9.96 140.475 10.89L141.99 10.68C141.87 10.38 141.75 10.065 141.63 9.78L142.305 9.585C142.635 10.29 142.995 11.25 143.145 11.805ZM137.745 12.06L137.01 12.315C136.965 12.135 136.905 11.925 136.845 11.685C134.7 12.015 134.355 12.075 134.145 12.195C134.115 12.015 133.995 11.58 133.89 11.355C134.1 11.295 134.355 11.055 134.64 10.68C134.805 10.5 135.195 9.975 135.615 9.33C134.445 9.495 134.16 9.57 134.01 9.645C133.98 9.465 133.845 9.045 133.755 8.82C133.935 8.775 134.1 8.58 134.31 8.28C134.52 7.98 135.21 6.825 135.57 5.685L136.41 5.955C135.99 6.93 135.45 7.92 134.91 8.67L136.095 8.55C136.275 8.22 136.455 7.89 136.605 7.545L137.415 7.86C136.755 9.06 135.96 10.245 135.165 11.175L136.635 10.98C136.515 10.65 136.395 10.335 136.275 10.035L136.98 9.84C137.31 10.56 137.61 11.505 137.745 12.06ZM133.695 12.63L133.14 13.455C132.99 13.05 132.66 12.33 132.345 11.7V19.14H131.37V12.015C130.995 13.56 130.485 15.03 129.975 15.93C129.855 15.615 129.615 15.12 129.45 14.85C130.2 13.635 130.92 11.34 131.28 9.375H129.78V8.325H131.37V5.445H132.345V8.325H133.53V9.375H132.345V10.35C132.675 10.875 133.485 12.255 133.695 12.63ZM141.36 14.22L142.32 14.565C141.855 15.465 141.24 16.26 140.475 16.965C140.91 17.625 141.435 17.985 142.035 18.045C142.35 18.075 142.545 17.505 142.665 16.425C142.845 16.635 143.22 16.89 143.415 16.995C143.13 18.63 142.665 19.185 142.065 19.14C141.09 19.08 140.31 18.54 139.695 17.61C138.915 18.18 138.03 18.675 137.07 19.065C136.95 18.87 136.68 18.54 136.47 18.36C137.505 17.955 138.465 17.43 139.26 16.8C138.915 16.035 138.63 15.105 138.39 14.055H135.945V14.28C135.945 14.385 135.945 14.505 135.93 14.625C136.65 15.18 137.55 15.945 138 16.41L137.31 17.085C136.965 16.71 136.38 16.155 135.795 15.66C135.54 16.86 134.91 18.165 133.59 19.17C133.44 18.96 133.065 18.615 132.855 18.495C134.61 17.205 134.985 15.525 134.985 14.265V14.055H133.845V13.155H138.225C137.865 11.025 137.67 8.43 137.58 5.565H138.54C138.615 8.49 138.825 11.1 139.2 13.155H141.345C140.985 12.84 140.445 12.465 140.01 12.195L140.58 11.67C141.105 11.97 141.795 12.435 142.14 12.75L141.75 13.155H142.995V14.055H139.38C139.575 14.85 139.77 15.54 140.025 16.11C140.58 15.54 141.045 14.895 141.36 14.22ZM154.665 15H148.455V16.02H154.665V15ZM148.455 17.835H154.665V16.815H148.455V17.835ZM147.36 19.125V14.205H155.79V19.08H154.665V18.63H148.455V19.125H147.36ZM153.645 12.675L152.895 12.405C153.165 11.91 153.555 11.115 153.72 10.605L154.665 10.905C154.335 11.55 153.96 12.225 153.645 12.675ZM148.35 10.92L149.145 10.665C149.535 11.19 149.91 11.88 150.045 12.36L149.19 12.675C149.07 12.195 148.725 11.475 148.35 10.92ZM147.45 10.5V12.735H150.99V10.5H147.45ZM155.505 12.735V10.5H151.935V12.735H155.505ZM146.49 13.5V9.72H156.51V13.5H146.49ZM149.625 8.175H153.54C152.82 7.725 152.145 7.215 151.575 6.675C151.005 7.23 150.345 7.74 149.625 8.175ZM151.41 5.4L152.385 5.76C152.31 5.85 152.25 5.955 152.175 6.045C153.585 7.41 156.18 8.625 158.52 9.165C158.28 9.375 157.98 9.765 157.815 10.035C156.6 9.69 155.31 9.18 154.14 8.52V8.985H148.935V8.565C147.795 9.21 146.52 9.72 145.26 10.11C145.14 9.9 144.825 9.465 144.63 9.255C147.345 8.535 150 7.215 151.41 5.4Z" fill="black"/>
<path d="M73.914 45.252C73.218 45.252 72.594 45.168 72.042 45C71.49 44.844 70.998 44.628 70.566 44.352C70.146 44.064 69.78 43.746 69.468 43.398L70.71 41.724C71.118 42.096 71.562 42.42 72.042 42.696C72.534 42.96 73.08 43.092 73.68 43.092C74.136 43.092 74.532 43.02 74.868 42.876C75.216 42.732 75.48 42.522 75.66 42.246C75.852 41.97 75.948 41.634 75.948 41.238C75.948 40.794 75.84 40.416 75.624 40.104C75.42 39.78 75.054 39.534 74.526 39.366C73.998 39.198 73.254 39.114 72.294 39.114V37.206C73.11 37.206 73.752 37.122 74.22 36.954C74.688 36.774 75.018 36.534 75.21 36.234C75.414 35.922 75.516 35.568 75.516 35.172C75.516 34.656 75.36 34.254 75.048 33.966C74.736 33.666 74.298 33.516 73.734 33.516C73.266 33.516 72.828 33.624 72.42 33.84C72.024 34.044 71.628 34.326 71.232 34.686L69.864 33.048C70.452 32.556 71.07 32.166 71.718 31.878C72.366 31.578 73.08 31.428 73.86 31.428C74.712 31.428 75.462 31.566 76.11 31.842C76.77 32.118 77.28 32.52 77.64 33.048C78 33.576 78.18 34.218 78.18 34.974C78.18 35.694 77.988 36.312 77.604 36.828C77.22 37.344 76.674 37.74 75.966 38.016V38.106C76.458 38.238 76.902 38.454 77.298 38.754C77.706 39.042 78.024 39.408 78.252 39.852C78.492 40.296 78.612 40.812 78.612 41.4C78.612 42.204 78.396 42.894 77.964 43.47C77.544 44.046 76.974 44.49 76.254 44.802C75.546 45.102 74.766 45.252 73.914 45.252ZM80.3912 45V43.47C81.6032 42.39 82.6352 41.388 83.4872 40.464C84.3512 39.54 85.0112 38.682 85.4672 37.89C85.9232 37.086 86.1512 36.342 86.1512 35.658C86.1512 35.226 86.0732 34.848 85.9172 34.524C85.7612 34.2 85.5332 33.954 85.2332 33.786C84.9452 33.606 84.5852 33.516 84.1532 33.516C83.6732 33.516 83.2292 33.654 82.8212 33.93C82.4252 34.194 82.0592 34.512 81.7232 34.884L80.2472 33.462C80.8712 32.79 81.5072 32.286 82.1552 31.95C82.8152 31.602 83.5952 31.428 84.4952 31.428C85.3352 31.428 86.0672 31.602 86.6912 31.95C87.3272 32.286 87.8192 32.76 88.1672 33.372C88.5152 33.984 88.6892 34.704 88.6892 35.532C88.6892 36.336 88.4852 37.158 88.0772 37.998C87.6812 38.826 87.1472 39.654 86.4752 40.482C85.8032 41.31 85.0592 42.126 84.2432 42.93C84.5912 42.882 84.9632 42.846 85.3592 42.822C85.7672 42.786 86.1272 42.768 86.4392 42.768H89.3192V45H80.3912ZM93.1684 45.252C92.6884 45.252 92.2924 45.084 91.9804 44.748C91.6684 44.412 91.5124 44.004 91.5124 43.524C91.5124 43.02 91.6684 42.606 91.9804 42.282C92.2924 41.958 92.6884 41.796 93.1684 41.796C93.6364 41.796 94.0264 41.958 94.3384 42.282C94.6504 42.606 94.8064 43.02 94.8064 43.524C94.8064 44.004 94.6504 44.412 94.3384 44.748C94.0264 45.084 93.6364 45.252 93.1684 45.252ZM102.154 45V36.81C102.154 36.426 102.166 35.97 102.19 35.442C102.214 34.902 102.238 34.434 102.262 34.038H102.172C102.016 34.398 101.848 34.758 101.668 35.118C101.488 35.478 101.302 35.844 101.11 36.216L99.0399 39.528H106.204V41.544H96.4659V39.744L101.434 31.662H104.62V45H102.154ZM111.691 45.252C110.983 45.252 110.353 45.168 109.801 45C109.249 44.832 108.757 44.61 108.325 44.334C107.893 44.058 107.509 43.758 107.173 43.434L108.397 41.742C108.649 41.994 108.919 42.222 109.207 42.426C109.507 42.63 109.831 42.792 110.179 42.912C110.539 43.032 110.923 43.092 111.331 43.092C111.787 43.092 112.189 42.996 112.537 42.804C112.897 42.612 113.179 42.336 113.383 41.976C113.587 41.604 113.689 41.16 113.689 40.644C113.689 39.876 113.479 39.282 113.059 38.862C112.651 38.442 112.111 38.232 111.439 38.232C111.055 38.232 110.725 38.286 110.449 38.394C110.173 38.49 109.837 38.664 109.441 38.916L108.235 38.142L108.595 31.662H115.723V33.894H110.881L110.629 36.72C110.893 36.6 111.151 36.51 111.403 36.45C111.655 36.39 111.931 36.36 112.231 36.36C112.975 36.36 113.659 36.51 114.283 36.81C114.907 37.098 115.405 37.554 115.777 38.178C116.149 38.802 116.335 39.6 116.335 40.572C116.335 41.556 116.113 42.402 115.669 43.11C115.237 43.806 114.667 44.34 113.959 44.712C113.263 45.072 112.507 45.252 111.691 45.252ZM121.138 39.87C120.514 39.87 119.956 39.702 119.464 39.366C118.972 39.03 118.588 38.544 118.312 37.908C118.036 37.272 117.898 36.51 117.898 35.622C117.898 34.734 118.036 33.978 118.312 33.354C118.588 32.73 118.972 32.256 119.464 31.932C119.956 31.596 120.514 31.428 121.138 31.428C121.786 31.428 122.35 31.596 122.83 31.932C123.322 32.256 123.706 32.73 123.982 33.354C124.258 33.978 124.396 34.734 124.396 35.622C124.396 36.51 124.258 37.272 123.982 37.908C123.706 38.544 123.322 39.03 122.83 39.366C122.35 39.702 121.786 39.87 121.138 39.87ZM121.138 38.376C121.522 38.376 121.846 38.166 122.11 37.746C122.386 37.314 122.524 36.606 122.524 35.622C122.524 34.65 122.386 33.96 122.11 33.552C121.846 33.132 121.522 32.922 121.138 32.922C120.754 32.922 120.424 33.132 120.148 33.552C119.884 33.96 119.752 34.65 119.752 35.622C119.752 36.606 119.884 37.314 120.148 37.746C120.424 38.166 120.754 38.376 121.138 38.376ZM121.57 45.252L128.824 31.428H130.39L123.154 45.252H121.57ZM130.84 45.252C130.204 45.252 129.64 45.084 129.148 44.748C128.668 44.412 128.284 43.926 127.996 43.29C127.72 42.654 127.582 41.892 127.582 41.004C127.582 40.104 127.72 39.342 127.996 38.718C128.284 38.094 128.668 37.62 129.148 37.296C129.64 36.96 130.204 36.792 130.84 36.792C131.464 36.792 132.016 36.96 132.496 37.296C132.988 37.62 133.372 38.094 133.648 38.718C133.936 39.342 134.08 40.104 134.08 41.004C134.08 41.892 133.936 42.654 133.648 43.29C133.372 43.926 132.988 44.412 132.496 44.748C132.016 45.084 131.464 45.252 130.84 45.252ZM130.84 43.74C131.224 43.74 131.548 43.53 131.812 43.11C132.076 42.678 132.208 41.976 132.208 41.004C132.208 40.008 132.076 39.312 131.812 38.916C131.548 38.508 131.224 38.304 130.84 38.304C130.444 38.304 130.114 38.508 129.85 38.916C129.586 39.312 129.454 40.008 129.454 41.004C129.454 41.976 129.586 42.678 129.85 43.11C130.114 43.53 130.444 43.74 130.84 43.74Z" fill="#0095CC"/>
<path d="M224.825 5.505L225.89 5.895C225.02 7.2 223.595 8.595 222.29 9.465C222.155 9.225 221.885 8.775 221.69 8.565C222.86 7.8 224.18 6.57 224.825 5.505ZM225.095 8.775L226.085 9.18C225.74 9.81 225.305 10.44 224.84 11.055V19.155H223.76V12.33C223.22 12.945 222.65 13.485 222.08 13.935C221.975 13.695 221.675 13.11 221.48 12.855C222.815 11.865 224.24 10.32 225.095 8.775ZM228.095 9.825V11.685H232.94V9.825H228.095ZM232.94 7.095H228.095V8.895H232.94V7.095ZM234.065 13.14L234.815 13.92C234.02 14.565 232.97 15.255 232.13 15.765C232.97 16.815 234.05 17.61 235.4 18.09C235.145 18.315 234.815 18.75 234.65 19.05C232.01 17.985 230.435 15.705 229.565 12.66H228.095V17.595L230.735 16.95C230.735 17.28 230.75 17.73 230.795 17.97C227.705 18.81 227.255 18.96 226.97 19.155C226.88 18.9 226.64 18.45 226.46 18.24C226.685 18.12 227.015 17.805 227.015 17.19V6.105H234.02V12.66H230.54C230.81 13.515 231.17 14.295 231.605 15C232.415 14.475 233.45 13.725 234.065 13.14ZM239.45 7.83L240.5 8.115C239.78 9.9 238.745 11.805 237.83 13.05C237.605 12.9 237.125 12.645 236.855 12.51C237.845 11.325 238.805 9.495 239.45 7.83ZM246.515 8.25L247.43 7.815C248.45 9.27 249.65 11.175 250.22 12.375L249.29 12.945C248.705 11.7 247.52 9.72 246.515 8.25ZM247.4 13.17L248.405 13.65C246.38 16.845 242.36 18.465 237.095 19.14C236.99 18.81 236.765 18.36 236.555 18.075C241.64 17.52 245.525 16.095 247.4 13.17ZM242.735 5.475H243.83V14.64H242.735V5.475ZM262.205 12.69V11.175H255.95V12.69H262.205ZM255.905 15.225H262.205V13.65H255.95V14.115C255.95 14.475 255.935 14.835 255.905 15.225ZM265.055 8.43H256.955C256.67 9.015 256.37 9.615 256.04 10.17H263.3V17.745C263.3 18.42 263.15 18.75 262.67 18.93C262.175 19.11 261.335 19.125 260.06 19.125C260.015 18.795 259.85 18.345 259.685 18.03C260.69 18.075 261.59 18.06 261.86 18.06C262.115 18.045 262.205 17.97 262.205 17.745V16.185H255.77C255.575 17.28 255.125 18.405 254.24 19.23C254.105 18.99 253.7 18.525 253.46 18.36C254.705 17.16 254.84 15.51 254.84 14.085V11.895C254.135 12.75 253.325 13.545 252.41 14.19C252.26 13.95 251.915 13.545 251.705 13.32C253.46 12.135 254.81 10.365 255.74 8.43L252.005 8.43V7.38H256.22C256.475 6.735 256.7 6.09 256.88 5.445L257.99 5.715C257.825 6.27 257.63 6.84 257.405 7.38H265.055V8.43ZM280.145 11.805L279.425 12.06C279.38 11.88 279.32 11.64 279.23 11.385C277.07 11.73 276.695 11.805 276.515 11.91C276.455 11.73 276.32 11.265 276.23 11.04C276.455 10.995 276.68 10.74 276.95 10.38C277.115 10.185 277.46 9.69 277.865 9.045C276.755 9.195 276.5 9.27 276.35 9.345C276.305 9.15 276.17 8.745 276.065 8.505C276.245 8.49 276.41 8.295 276.59 8.01C276.74 7.755 277.37 6.66 277.685 5.655L278.495 5.91C278.135 6.795 277.67 7.68 277.205 8.37L278.3 8.25C278.495 7.92 278.675 7.56 278.825 7.215L279.665 7.53C279.035 8.76 278.24 9.96 277.475 10.89L278.99 10.68C278.87 10.38 278.75 10.065 278.63 9.78L279.305 9.585C279.635 10.29 279.995 11.25 280.145 11.805ZM274.745 12.06L274.01 12.315C273.965 12.135 273.905 11.925 273.845 11.685C271.7 12.015 271.355 12.075 271.145 12.195C271.115 12.015 270.995 11.58 270.89 11.355C271.1 11.295 271.355 11.055 271.64 10.68C271.805 10.5 272.195 9.975 272.615 9.33C271.445 9.495 271.16 9.57 271.01 9.645C270.98 9.465 270.845 9.045 270.755 8.82C270.935 8.775 271.1 8.58 271.31 8.28C271.52 7.98 272.21 6.825 272.57 5.685L273.41 5.955C272.99 6.93 272.45 7.92 271.91 8.67L273.095 8.55C273.275 8.22 273.455 7.89 273.605 7.545L274.415 7.86C273.755 9.06 272.96 10.245 272.165 11.175L273.635 10.98C273.515 10.65 273.395 10.335 273.275 10.035L273.98 9.84C274.31 10.56 274.61 11.505 274.745 12.06ZM270.695 12.63L270.14 13.455C269.99 13.05 269.66 12.33 269.345 11.7V19.14H268.37V12.015C267.995 13.56 267.485 15.03 266.975 15.93C266.855 15.615 266.615 15.12 266.45 14.85C267.2 13.635 267.92 11.34 268.28 9.375H266.78V8.325H268.37V5.445L269.345 5.445V8.325H270.53V9.375H269.345V10.35C269.675 10.875 270.485 12.255 270.695 12.63ZM278.36 14.22L279.32 14.565C278.855 15.465 278.24 16.26 277.475 16.965C277.91 17.625 278.435 17.985 279.035 18.045C279.35 18.075 279.545 17.505 279.665 16.425C279.845 16.635 280.22 16.89 280.415 16.995C280.13 18.63 279.665 19.185 279.065 19.14C278.09 19.08 277.31 18.54 276.695 17.61C275.915 18.18 275.03 18.675 274.07 19.065C273.95 18.87 273.68 18.54 273.47 18.36C274.505 17.955 275.465 17.43 276.26 16.8C275.915 16.035 275.63 15.105 275.39 14.055H272.945V14.28C272.945 14.385 272.945 14.505 272.93 14.625C273.65 15.18 274.55 15.945 275 16.41L274.31 17.085C273.965 16.71 273.38 16.155 272.795 15.66C272.54 16.86 271.91 18.165 270.59 19.17C270.44 18.96 270.065 18.615 269.855 18.495C271.61 17.205 271.985 15.525 271.985 14.265V14.055H270.845V13.155H275.225C274.865 11.025 274.67 8.43 274.58 5.565H275.54C275.615 8.49 275.825 11.1 276.2 13.155H278.345C277.985 12.84 277.445 12.465 277.01 12.195L277.58 11.67C278.105 11.97 278.795 12.435 279.14 12.75L278.75 13.155H279.995V14.055H276.38C276.575 14.85 276.77 15.54 277.025 16.11C277.58 15.54 278.045 14.895 278.36 14.22ZM291.665 15H285.455V16.02H291.665V15ZM285.455 17.835H291.665V16.815H285.455V17.835ZM284.36 19.125V14.205H292.79V19.08H291.665V18.63H285.455V19.125L284.36 19.125ZM290.645 12.675L289.895 12.405C290.165 11.91 290.555 11.115 290.72 10.605L291.665 10.905C291.335 11.55 290.96 12.225 290.645 12.675ZM285.35 10.92L286.145 10.665C286.535 11.19 286.91 11.88 287.045 12.36L286.19 12.675C286.07 12.195 285.725 11.475 285.35 10.92ZM284.45 10.5V12.735H287.99V10.5H284.45ZM292.505 12.735V10.5H288.935V12.735H292.505ZM283.49 13.5V9.72H293.51V13.5H283.49ZM286.625 8.175H290.54C289.82 7.725 289.145 7.215 288.575 6.675C288.005 7.23 287.345 7.74 286.625 8.175ZM288.41 5.4L289.385 5.76C289.31 5.85 289.25 5.955 289.175 6.045C290.585 7.41 293.18 8.625 295.52 9.165C295.28 9.375 294.98 9.765 294.815 10.035C293.6 9.69 292.31 9.18 291.14 8.52V8.985H285.935V8.565C284.795 9.21 283.52 9.72 282.26 10.11C282.14 9.9 281.825 9.465 281.63 9.255C284.345 8.535 287 7.215 288.41 5.4Z" fill="black"/>
<path d="M225.914 45.252C225.218 45.252 224.594 45.168 224.042 45C223.49 44.844 222.998 44.628 222.566 44.352C222.146 44.064 221.78 43.746 221.468 43.398L222.71 41.724C223.118 42.096 223.562 42.42 224.042 42.696C224.534 42.96 225.08 43.092 225.68 43.092C226.136 43.092 226.532 43.02 226.868 42.876C227.216 42.732 227.48 42.522 227.66 42.246C227.852 41.97 227.948 41.634 227.948 41.238C227.948 40.794 227.84 40.416 227.624 40.104C227.42 39.78 227.054 39.534 226.526 39.366C225.998 39.198 225.254 39.114 224.294 39.114V37.206C225.11 37.206 225.752 37.122 226.22 36.954C226.688 36.774 227.018 36.534 227.21 36.234C227.414 35.922 227.516 35.568 227.516 35.172C227.516 34.656 227.36 34.254 227.048 33.966C226.736 33.666 226.298 33.516 225.734 33.516C225.266 33.516 224.828 33.624 224.42 33.84C224.024 34.044 223.628 34.326 223.232 34.686L221.864 33.048C222.452 32.556 223.07 32.166 223.718 31.878C224.366 31.578 225.08 31.428 225.86 31.428C226.712 31.428 227.462 31.566 228.11 31.842C228.77 32.118 229.28 32.52 229.64 33.048C230 33.576 230.18 34.218 230.18 34.974C230.18 35.694 229.988 36.312 229.604 36.828C229.22 37.344 228.674 37.74 227.966 38.016V38.106C228.458 38.238 228.902 38.454 229.298 38.754C229.706 39.042 230.024 39.408 230.252 39.852C230.492 40.296 230.612 40.812 230.612 41.4C230.612 42.204 230.396 42.894 229.964 43.47C229.544 44.046 228.974 44.49 228.254 44.802C227.546 45.102 226.766 45.252 225.914 45.252ZM236.927 45.252C236.027 45.252 235.235 44.994 234.551 44.478C233.879 43.95 233.351 43.17 232.967 42.138C232.595 41.094 232.409 39.804 232.409 38.268C232.409 36.744 232.595 35.478 232.967 34.47C233.351 33.45 233.879 32.688 234.551 32.184C235.235 31.68 236.027 31.428 236.927 31.428C237.839 31.428 238.631 31.686 239.303 32.202C239.975 32.706 240.497 33.462 240.869 34.47C241.253 35.478 241.445 36.744 241.445 38.268C241.445 39.804 241.253 41.094 240.869 42.138C240.497 43.17 239.975 43.95 239.303 44.478C238.631 44.994 237.839 45.252 236.927 45.252ZM236.927 43.182C237.323 43.182 237.671 43.032 237.971 42.732C238.271 42.432 238.505 41.928 238.673 41.22C238.841 40.5 238.925 39.516 238.925 38.268C238.925 37.032 238.841 36.066 238.673 35.37C238.505 34.662 238.271 34.17 237.971 33.894C237.671 33.606 237.323 33.462 236.927 33.462C236.555 33.462 236.213 33.606 235.901 33.894C235.601 34.17 235.361 34.662 235.181 35.37C235.001 36.066 234.911 37.032 234.911 38.268C234.911 39.516 235.001 40.5 235.181 41.22C235.361 41.928 235.601 42.432 235.901 42.732C236.213 43.032 236.555 43.182 236.927 43.182ZM245.168 45.252C244.688 45.252 244.292 45.084 243.98 44.748C243.668 44.412 243.512 44.004 243.512 43.524C243.512 43.02 243.668 42.606 243.98 42.282C244.292 41.958 244.688 41.796 245.168 41.796C245.636 41.796 246.026 41.958 246.338 42.282C246.65 42.606 246.806 43.02 246.806 43.524C246.806 44.004 246.65 44.412 246.338 44.748C246.026 45.084 245.636 45.252 245.168 45.252ZM253.074 45.252C252.366 45.252 251.736 45.168 251.184 45C250.632 44.832 250.14 44.61 249.708 44.334C249.276 44.058 248.892 43.758 248.556 43.434L249.78 41.742C250.032 41.994 250.302 42.222 250.59 42.426C250.89 42.63 251.214 42.792 251.562 42.912C251.922 43.032 252.306 43.092 252.714 43.092C253.17 43.092 253.572 42.996 253.92 42.804C254.28 42.612 254.562 42.336 254.766 41.976C254.97 41.604 255.072 41.16 255.072 40.644C255.072 39.876 254.862 39.282 254.442 38.862C254.034 38.442 253.494 38.232 252.822 38.232C252.438 38.232 252.108 38.286 251.832 38.394C251.556 38.49 251.22 38.664 250.824 38.916L249.618 38.142L249.978 31.662H257.106V33.894H252.264L252.012 36.72C252.276 36.6 252.534 36.51 252.786 36.45C253.038 36.39 253.314 36.36 253.614 36.36C254.358 36.36 255.042 36.51 255.666 36.81C256.29 37.098 256.788 37.554 257.16 38.178C257.532 38.802 257.718 39.6 257.718 40.572C257.718 41.556 257.496 42.402 257.052 43.11C256.62 43.806 256.05 44.34 255.342 44.712C254.646 45.072 253.89 45.252 253.074 45.252ZM259.479 45V43.47C260.691 42.39 261.723 41.388 262.575 40.464C263.439 39.54 264.099 38.682 264.555 37.89C265.011 37.086 265.239 36.342 265.239 35.658C265.239 35.226 265.161 34.848 265.005 34.524C264.849 34.2 264.621 33.954 264.321 33.786C264.033 33.606 263.673 33.516 263.241 33.516C262.761 33.516 262.317 33.654 261.909 33.93C261.513 34.194 261.147 34.512 260.811 34.884L259.335 33.462C259.959 32.79 260.595 32.286 261.243 31.95C261.903 31.602 262.683 31.428 263.583 31.428C264.423 31.428 265.155 31.602 265.779 31.95C266.415 32.286 266.907 32.76 267.255 33.372C267.603 33.984 267.777 34.704 267.777 35.532C267.777 36.336 267.573 37.158 267.165 37.998C266.769 38.826 266.235 39.654 265.563 40.482C264.891 41.31 264.147 42.126 263.331 42.93C263.679 42.882 264.051 42.846 264.447 42.822C264.855 42.786 265.215 42.768 265.527 42.768H268.407V45H259.479ZM273.138 39.87C272.514 39.87 271.956 39.702 271.464 39.366C270.972 39.03 270.588 38.544 270.312 37.908C270.036 37.272 269.898 36.51 269.898 35.622C269.898 34.734 270.036 33.978 270.312 33.354C270.588 32.73 270.972 32.256 271.464 31.932C271.956 31.596 272.514 31.428 273.138 31.428C273.786 31.428 274.35 31.596 274.83 31.932C275.322 32.256 275.706 32.73 275.982 33.354C276.258 33.978 276.396 34.734 276.396 35.622C276.396 36.51 276.258 37.272 275.982 37.908C275.706 38.544 275.322 39.03 274.83 39.366C274.35 39.702 273.786 39.87 273.138 39.87ZM273.138 38.376C273.522 38.376 273.846 38.166 274.11 37.746C274.386 37.314 274.524 36.606 274.524 35.622C274.524 34.65 274.386 33.96 274.11 33.552C273.846 33.132 273.522 32.922 273.138 32.922C272.754 32.922 272.424 33.132 272.148 33.552C271.884 33.96 271.752 34.65 271.752 35.622C271.752 36.606 271.884 37.314 272.148 37.746C272.424 38.166 272.754 38.376 273.138 38.376ZM273.57 45.252L280.824 31.428H282.39L275.154 45.252H273.57ZM282.84 45.252C282.204 45.252 281.64 45.084 281.148 44.748C280.668 44.412 280.284 43.926 279.996 43.29C279.72 42.654 279.582 41.892 279.582 41.004C279.582 40.104 279.72 39.342 279.996 38.718C280.284 38.094 280.668 37.62 281.148 37.296C281.64 36.96 282.204 36.792 282.84 36.792C283.464 36.792 284.016 36.96 284.496 37.296C284.988 37.62 285.372 38.094 285.648 38.718C285.936 39.342 286.08 40.104 286.08 41.004C286.08 41.892 285.936 42.654 285.648 43.29C285.372 43.926 284.988 44.412 284.496 44.748C284.016 45.084 283.464 45.252 282.84 45.252ZM282.84 43.74C283.224 43.74 283.548 43.53 283.812 43.11C284.076 42.678 284.208 41.976 284.208 41.004C284.208 40.008 284.076 39.312 283.812 38.916C283.548 38.508 283.224 38.304 282.84 38.304C282.444 38.304 282.114 38.508 281.85 38.916C281.586 39.312 281.454 40.008 281.454 41.004C281.454 41.976 281.586 42.678 281.85 43.11C282.114 43.53 282.444 43.74 282.84 43.74Z" fill="#0095CC"/>
<path d="M7.485 220.78H12.765V221.8H7.485V220.78ZM5.43 226.42H12.72V227.455H5.43V226.42ZM12.33 220.78H13.47C13.47 220.78 13.465 220.84 13.455 220.96C13.455 221.07 13.445 221.165 13.425 221.245C13.375 222.125 13.315 222.84 13.245 223.39C13.175 223.94 13.09 224.365 12.99 224.665C12.9 224.965 12.79 225.19 12.66 225.34C12.52 225.47 12.375 225.565 12.225 225.625C12.075 225.685 11.885 225.72 11.655 225.73C11.465 225.75 11.195 225.76 10.845 225.76C10.505 225.75 10.14 225.735 9.75 225.715C9.73 225.555 9.69 225.38 9.63 225.19C9.58 224.99 9.505 224.815 9.405 224.665C9.785 224.705 10.14 224.73 10.47 224.74C10.81 224.75 11.05 224.755 11.19 224.755C11.32 224.755 11.42 224.75 11.49 224.74C11.57 224.72 11.645 224.68 11.715 224.62C11.805 224.52 11.885 224.34 11.955 224.08C12.035 223.81 12.105 223.425 12.165 222.925C12.225 222.415 12.28 221.75 12.33 220.93V220.78ZM7.32 219.4L8.46 219.535C8.27 220.985 7.94 222.26 7.47 223.36C7.01 224.45 6.375 225.355 5.565 226.075C5.505 226.015 5.415 225.94 5.295 225.85C5.185 225.75 5.065 225.655 4.935 225.565C4.815 225.475 4.705 225.405 4.605 225.355C5.405 224.725 6.015 223.905 6.435 222.895C6.865 221.875 7.16 220.71 7.32 219.4ZM12.345 226.42H12.57L12.78 226.375L13.5 226.69C13.15 227.64 12.685 228.475 12.105 229.195C11.535 229.905 10.87 230.525 10.11 231.055C9.36 231.575 8.545 232.005 7.665 232.345C6.795 232.695 5.89 232.975 4.95 233.185C4.92 233.085 4.875 232.97 4.815 232.84C4.755 232.72 4.685 232.6 4.605 232.48C4.525 232.36 4.45 232.26 4.38 232.18C5.27 232.02 6.125 231.79 6.945 231.49C7.775 231.18 8.54 230.8 9.24 230.35C9.95 229.89 10.57 229.35 11.1 228.73C11.64 228.1 12.055 227.39 12.345 226.6V226.42ZM7.455 227.35C7.865 228.15 8.415 228.875 9.105 229.525C9.795 230.165 10.595 230.715 11.505 231.175C12.415 231.625 13.405 231.965 14.475 232.195C14.395 232.275 14.305 232.37 14.205 232.48C14.115 232.6 14.025 232.72 13.935 232.84C13.855 232.97 13.785 233.09 13.725 233.2C12.635 232.92 11.625 232.52 10.695 232C9.775 231.49 8.955 230.875 8.235 230.155C7.515 229.425 6.92 228.605 6.45 227.695L7.455 227.35ZM1.38 220.33L2.01 219.52C2.34 219.66 2.675 219.825 3.015 220.015C3.365 220.195 3.695 220.385 4.005 220.585C4.315 220.785 4.565 220.975 4.755 221.155L4.095 222.085C3.905 221.895 3.655 221.695 3.345 221.485C3.045 221.275 2.725 221.07 2.385 220.87C2.045 220.66 1.71 220.48 1.38 220.33ZM0.57 224.395L1.17 223.555C1.5 223.685 1.84 223.84 2.19 224.02C2.55 224.19 2.885 224.37 3.195 224.56C3.515 224.75 3.775 224.93 3.975 225.1L3.345 226.03C3.145 225.86 2.89 225.675 2.58 225.475C2.27 225.275 1.94 225.08 1.59 224.89C1.24 224.7 0.9 224.535 0.57 224.395ZM1.065 232.255C1.325 231.855 1.61 231.39 1.92 230.86C2.23 230.32 2.545 229.755 2.865 229.165C3.185 228.565 3.48 227.98 3.75 227.41L4.59 228.13C4.35 228.66 4.08 229.21 3.78 229.78C3.49 230.35 3.19 230.915 2.88 231.475C2.58 232.025 2.295 232.53 2.025 232.99L1.065 232.255ZM15.945 221.35H29.085V222.4H15.945V221.35ZM19.5 226.705H26.64V227.665H19.5V226.705ZM26.22 224.14H27.33V231.79C27.33 232.12 27.285 232.375 27.195 232.555C27.105 232.745 26.935 232.89 26.685 232.99C26.435 233.07 26.095 233.115 25.665 233.125C25.245 233.145 24.715 233.155 24.075 233.155C24.045 233.005 23.995 232.825 23.925 232.615C23.855 232.405 23.78 232.225 23.7 232.075C24.03 232.085 24.34 232.09 24.63 232.09C24.93 232.1 25.19 232.1 25.41 232.09C25.63 232.09 25.79 232.09 25.89 232.09C26.02 232.09 26.105 232.065 26.145 232.015C26.195 231.975 26.22 231.895 26.22 231.775V224.14ZM20.865 219.4L22.005 219.67C21.665 220.75 21.235 221.82 20.715 222.88C20.205 223.93 19.59 224.915 18.87 225.835C18.15 226.745 17.32 227.535 16.38 228.205C16.33 228.115 16.26 228.02 16.17 227.92C16.08 227.81 15.99 227.705 15.9 227.605C15.81 227.505 15.725 227.415 15.645 227.335C16.315 226.885 16.925 226.36 17.475 225.76C18.025 225.15 18.515 224.495 18.945 223.795C19.375 223.095 19.75 222.375 20.07 221.635C20.39 220.885 20.655 220.14 20.865 219.4ZM19.395 229.24H26.625V230.215H19.395V229.24ZM19.41 224.14H26.55V225.16H19.41V224.14ZM18.81 224.14H19.935V228.13C19.935 228.54 19.915 228.975 19.875 229.435C19.835 229.895 19.75 230.355 19.62 230.815C19.5 231.275 19.325 231.71 19.095 232.12C18.875 232.54 18.58 232.925 18.21 233.275C18.17 233.195 18.1 233.095 18 232.975C17.9 232.865 17.795 232.755 17.685 232.645C17.585 232.535 17.495 232.455 17.415 232.405C17.845 231.995 18.155 231.55 18.345 231.07C18.545 230.59 18.67 230.095 18.72 229.585C18.78 229.075 18.81 228.585 18.81 228.115V224.14ZM34.245 229H35.34V231.385C35.34 231.585 35.4 231.715 35.52 231.775C35.65 231.825 35.935 231.85 36.375 231.85C36.475 231.85 36.655 231.85 36.915 231.85C37.185 231.85 37.48 231.85 37.8 231.85C38.13 231.85 38.435 231.85 38.715 231.85C39.005 231.85 39.22 231.85 39.36 231.85C39.61 231.85 39.795 231.815 39.915 231.745C40.035 231.665 40.12 231.505 40.17 231.265C40.22 231.015 40.255 230.63 40.275 230.11C40.355 230.18 40.455 230.245 40.575 230.305C40.695 230.355 40.82 230.4 40.95 230.44C41.08 230.48 41.195 230.51 41.295 230.53C41.245 231.16 41.16 231.645 41.04 231.985C40.93 232.325 40.75 232.56 40.5 232.69C40.25 232.82 39.895 232.885 39.435 232.885C39.365 232.885 39.225 232.885 39.015 232.885C38.805 232.885 38.56 232.885 38.28 232.885C38.01 232.885 37.735 232.885 37.455 232.885C37.175 232.885 36.93 232.885 36.72 232.885C36.51 232.885 36.375 232.885 36.315 232.885C35.765 232.885 35.34 232.84 35.04 232.75C34.74 232.67 34.53 232.52 34.41 232.3C34.3 232.09 34.245 231.79 34.245 231.4V229ZM36.21 228.49L36.99 227.905C37.23 228.115 37.48 228.35 37.74 228.61C38.01 228.87 38.265 229.125 38.505 229.375C38.745 229.625 38.94 229.845 39.09 230.035L38.265 230.71C38.115 230.52 37.925 230.295 37.695 230.035C37.465 229.775 37.22 229.51 36.96 229.24C36.7 228.96 36.45 228.71 36.21 228.49ZM41.505 228.985L42.495 228.55C42.705 228.86 42.925 229.2 43.155 229.57C43.385 229.94 43.6 230.3 43.8 230.65C44.01 231 44.175 231.305 44.295 231.565L43.245 232.075C43.125 231.815 42.965 231.51 42.765 231.16C42.575 230.8 42.365 230.43 42.135 230.05C41.915 229.67 41.705 229.315 41.505 228.985ZM32.115 228.82L33.09 229.21C32.99 229.55 32.87 229.915 32.73 230.305C32.59 230.695 32.43 231.075 32.25 231.445C32.08 231.805 31.89 232.13 31.68 232.42L30.69 231.91C30.9 231.64 31.095 231.33 31.275 230.98C31.455 230.63 31.615 230.265 31.755 229.885C31.905 229.505 32.025 229.15 32.115 228.82ZM30.825 221.65H37.035V222.625H30.825V221.65ZM33.57 219.43H34.65V228.175H33.57V219.43ZM33.525 222.25L34.32 222.52C34.1 223.14 33.82 223.75 33.48 224.35C33.15 224.95 32.79 225.505 32.4 226.015C32.02 226.525 31.63 226.955 31.23 227.305C31.14 227.175 31.02 227.03 30.87 226.87C30.73 226.71 30.6 226.585 30.48 226.495C30.88 226.215 31.27 225.85 31.65 225.4C32.04 224.94 32.395 224.44 32.715 223.9C33.045 223.35 33.315 222.8 33.525 222.25ZM34.545 223.405C34.675 223.485 34.86 223.61 35.1 223.78C35.35 223.95 35.61 224.135 35.88 224.335C36.16 224.535 36.415 224.725 36.645 224.905C36.875 225.075 37.045 225.2 37.155 225.28L36.54 226.195C36.4 226.065 36.215 225.9 35.985 225.7C35.765 225.49 35.525 225.275 35.265 225.055C35.005 224.825 34.76 224.615 34.53 224.425C34.3 224.235 34.11 224.085 33.96 223.975L34.545 223.405ZM38.715 223.39V224.8H42.465V223.39H38.715ZM38.715 225.685V227.11H42.465V225.685H38.715ZM38.715 221.125V222.505H42.465V221.125H38.715ZM37.68 220.195H43.545V228.025H37.68V220.195ZM47.28 221.02V223.66H50.175V221.02H47.28ZM46.29 220.045H51.195V224.635H46.29V220.045ZM48.42 224.185H49.44V231.055H48.42V224.185ZM46.305 226.06H47.235V231.505H46.305V226.06ZM45.525 231.445C46.005 231.335 46.56 231.205 47.19 231.055C47.82 230.895 48.49 230.725 49.2 230.545C49.91 230.365 50.62 230.18 51.33 229.99L51.45 230.98C50.45 231.25 49.45 231.52 48.45 231.79C47.45 232.06 46.565 232.3 45.795 232.51L45.525 231.445ZM48.78 226.735H51.285V227.725H48.78V226.735ZM52.53 220.075H58.47V226.66H52.53V225.67H57.42V221.065H52.53V220.075ZM52.545 222.865H57.885V223.81H52.545V222.865ZM55.245 226.075C55.455 227.005 55.75 227.87 56.13 228.67C56.51 229.47 56.98 230.165 57.54 230.755C58.11 231.335 58.77 231.79 59.52 232.12C59.44 232.19 59.35 232.28 59.25 232.39C59.16 232.51 59.075 232.63 58.995 232.75C58.915 232.87 58.845 232.985 58.785 233.095C57.995 232.695 57.31 232.165 56.73 231.505C56.16 230.835 55.68 230.055 55.29 229.165C54.9 228.275 54.585 227.305 54.345 226.255L55.245 226.075ZM58.59 227.14L59.295 227.935C59.005 228.165 58.685 228.405 58.335 228.655C57.995 228.895 57.65 229.125 57.3 229.345C56.96 229.555 56.64 229.745 56.34 229.915L55.74 229.21C56.04 229.03 56.36 228.825 56.7 228.595C57.05 228.355 57.39 228.11 57.72 227.86C58.06 227.6 58.35 227.36 58.59 227.14ZM51.87 233.2L51.795 232.21L52.32 231.79L55.68 230.98C55.67 231.14 55.67 231.32 55.68 231.52C55.69 231.71 55.705 231.87 55.725 232C54.955 232.21 54.33 232.38 53.85 232.51C53.38 232.65 53.01 232.76 52.74 232.84C52.48 232.92 52.29 232.985 52.17 233.035C52.05 233.095 51.95 233.15 51.87 233.2ZM51.87 233.2C51.85 233.11 51.81 233.01 51.75 232.9C51.69 232.79 51.625 232.675 51.555 232.555C51.485 232.435 51.42 232.34 51.36 232.27C51.48 232.2 51.605 232.085 51.735 231.925C51.865 231.765 51.93 231.53 51.93 231.22V220.075H52.995V232.12C52.995 232.12 52.955 232.14 52.875 232.18C52.805 232.23 52.715 232.295 52.605 232.375C52.495 232.455 52.38 232.54 52.26 232.63C52.15 232.73 52.055 232.83 51.975 232.93C51.905 233.03 51.87 233.12 51.87 233.2ZM68.895 221.2H69.99V229.525H68.895V221.2ZM72.57 219.685H73.695V231.7C73.695 232.09 73.64 232.38 73.53 232.57C73.43 232.76 73.26 232.905 73.02 233.005C72.77 233.095 72.425 233.15 71.985 233.17C71.555 233.2 70.995 233.215 70.305 233.215C70.285 233.115 70.25 232.995 70.2 232.855C70.15 232.715 70.1 232.575 70.05 232.435C70 232.295 69.945 232.175 69.885 232.075C70.415 232.085 70.895 232.09 71.325 232.09C71.755 232.1 72.04 232.1 72.18 232.09C72.32 232.08 72.42 232.05 72.48 232C72.54 231.94 72.57 231.84 72.57 231.7V219.685ZM63.345 226.63H66.885V227.635H63.345V226.63ZM66.42 226.63H67.47C67.47 226.63 67.465 226.66 67.455 226.72C67.455 226.77 67.455 226.835 67.455 226.915C67.455 226.985 67.455 227.045 67.455 227.095C67.405 228.355 67.345 229.37 67.275 230.14C67.215 230.9 67.14 231.48 67.05 231.88C66.97 232.27 66.86 232.545 66.72 232.705C66.6 232.865 66.46 232.97 66.3 233.02C66.15 233.08 65.965 233.12 65.745 233.14C65.555 233.16 65.29 233.17 64.95 233.17C64.62 233.17 64.27 233.16 63.9 233.14C63.89 232.99 63.855 232.82 63.795 232.63C63.745 232.44 63.675 232.275 63.585 232.135C63.965 232.175 64.31 232.195 64.62 232.195C64.94 232.205 65.165 232.21 65.295 232.21C65.425 232.21 65.53 232.2 65.61 232.18C65.69 232.17 65.76 232.125 65.82 232.045C65.92 231.945 66.005 231.71 66.075 231.34C66.145 230.97 66.205 230.425 66.255 229.705C66.315 228.975 66.37 228.01 66.42 226.81V226.63ZM62.46 221.095V223.99H66.285V221.095H62.46ZM61.425 220.09H67.365V225.01H61.425V220.09ZM63.075 224.62H64.185C64.145 225.41 64.075 226.215 63.975 227.035C63.885 227.845 63.74 228.635 63.54 229.405C63.34 230.165 63.055 230.875 62.685 231.535C62.325 232.185 61.86 232.75 61.29 233.23C61.2 233.1 61.075 232.96 60.915 232.81C60.765 232.66 60.625 232.545 60.495 232.465C61.035 232.025 61.465 231.505 61.785 230.905C62.115 230.305 62.365 229.655 62.535 228.955C62.715 228.245 62.84 227.525 62.91 226.795C62.99 226.055 63.045 225.33 63.075 224.62ZM81.855 219.445H83.115C83.105 219.895 83.08 220.46 83.04 221.14C83 221.82 82.92 222.58 82.8 223.42C82.68 224.25 82.48 225.115 82.2 226.015C81.93 226.915 81.555 227.805 81.075 228.685C80.595 229.555 79.985 230.375 79.245 231.145C78.515 231.915 77.62 232.58 76.56 233.14C76.46 233 76.325 232.845 76.155 232.675C75.985 232.515 75.815 232.375 75.645 232.255C76.685 231.725 77.56 231.1 78.27 230.38C78.99 229.65 79.575 228.87 80.025 228.04C80.475 227.21 80.825 226.375 81.075 225.535C81.325 224.685 81.5 223.87 81.6 223.09C81.71 222.31 81.78 221.605 81.81 220.975C81.84 220.345 81.855 219.835 81.855 219.445ZM82.965 221.305C82.995 221.475 83.04 221.8 83.1 222.28C83.16 222.76 83.27 223.335 83.43 224.005C83.59 224.675 83.815 225.39 84.105 226.15C84.405 226.91 84.79 227.665 85.26 228.415C85.73 229.165 86.31 229.865 87 230.515C87.7 231.165 88.525 231.705 89.475 232.135C89.315 232.255 89.16 232.405 89.01 232.585C88.86 232.765 88.74 232.93 88.65 233.08C87.67 232.62 86.82 232.045 86.1 231.355C85.39 230.665 84.79 229.92 84.3 229.12C83.82 228.32 83.43 227.515 83.13 226.705C82.83 225.885 82.595 225.115 82.425 224.395C82.265 223.675 82.145 223.055 82.065 222.535C81.985 222.005 81.93 221.63 81.9 221.41L82.965 221.305ZM99.765 225.595L100.905 225.91C100.365 227.29 99.64 228.455 98.73 229.405C97.82 230.345 96.75 231.125 95.52 231.745C94.29 232.355 92.915 232.85 91.395 233.23C91.355 233.14 91.295 233.03 91.215 232.9C91.135 232.78 91.05 232.655 90.96 232.525C90.87 232.395 90.785 232.29 90.705 232.21C92.215 231.9 93.565 231.465 94.755 230.905C95.945 230.345 96.96 229.635 97.8 228.775C98.65 227.905 99.305 226.845 99.765 225.595ZM94.77 223.045L95.865 223.465C95.525 223.895 95.13 224.325 94.68 224.755C94.24 225.185 93.78 225.59 93.3 225.97C92.83 226.34 92.375 226.67 91.935 226.96C91.875 226.88 91.79 226.79 91.68 226.69C91.57 226.58 91.46 226.475 91.35 226.375C91.24 226.265 91.14 226.18 91.05 226.12C91.49 225.87 91.94 225.58 92.4 225.25C92.86 224.91 93.295 224.555 93.705 224.185C94.125 223.805 94.48 223.425 94.77 223.045ZM95.28 225.67C95.98 227.4 97.095 228.81 98.625 229.9C100.155 230.98 102.07 231.705 104.37 232.075C104.29 232.155 104.205 232.255 104.115 232.375C104.025 232.495 103.94 232.62 103.86 232.75C103.78 232.88 103.71 233 103.65 233.11C102.08 232.81 100.69 232.35 99.48 231.73C98.27 231.1 97.235 230.31 96.375 229.36C95.515 228.4 94.815 227.275 94.275 225.985L95.28 225.67ZM91.005 221.485H103.965V222.58H91.005V221.485ZM99.27 223.675L100.155 223.03C100.605 223.34 101.075 223.685 101.565 224.065C102.065 224.445 102.53 224.83 102.96 225.22C103.4 225.6 103.76 225.95 104.04 226.27L103.095 227.02C102.845 226.69 102.505 226.33 102.075 225.94C101.655 225.54 101.2 225.145 100.71 224.755C100.22 224.355 99.74 223.995 99.27 223.675ZM96.27 219.625L97.335 219.265C97.545 219.555 97.755 219.89 97.965 220.27C98.175 220.64 98.33 220.955 98.43 221.215L97.335 221.65C97.235 221.38 97.085 221.055 96.885 220.675C96.685 220.295 96.48 219.945 96.27 219.625ZM109.035 222.775L110.04 223.165C109.72 223.755 109.34 224.345 108.9 224.935C108.46 225.515 108 226.065 107.52 226.585C107.04 227.105 106.56 227.565 106.08 227.965C106.05 227.875 105.995 227.76 105.915 227.62C105.845 227.48 105.77 227.34 105.69 227.2C105.61 227.06 105.535 226.945 105.465 226.855C105.905 226.525 106.345 226.14 106.785 225.7C107.235 225.26 107.655 224.79 108.045 224.29C108.435 223.79 108.765 223.285 109.035 222.775ZM108.735 219.43L109.8 219.85C109.52 220.28 109.185 220.715 108.795 221.155C108.405 221.595 107.99 222.015 107.55 222.415C107.12 222.805 106.69 223.15 106.26 223.45C106.22 223.36 106.165 223.26 106.095 223.15C106.025 223.03 105.95 222.915 105.87 222.805C105.79 222.685 105.72 222.59 105.66 222.52C106.05 222.26 106.44 221.96 106.83 221.62C107.22 221.27 107.58 220.91 107.91 220.54C108.25 220.16 108.525 219.79 108.735 219.43ZM107.655 225.55L108.765 224.44L108.81 224.485V233.2H107.655V225.55ZM110.775 226.705H118.5V227.785H110.775V226.705ZM109.8 231.655H119.37V232.735H109.8V231.655ZM110.235 222.265H118.98V223.33H110.235V222.265ZM114.045 222.865H115.215V232.18H114.045V222.865ZM113.22 219.715L114.24 219.34C114.5 219.72 114.755 220.14 115.005 220.6C115.255 221.05 115.44 221.44 115.56 221.77L114.465 222.205C114.365 221.875 114.195 221.475 113.955 221.005C113.725 220.535 113.48 220.105 113.22 219.715ZM125.175 224.56H133.305V225.46H126.18V231.085H125.175V224.56ZM126.315 219.925H132.51V224.965H131.475V220.795H127.32V224.965H126.315V219.925ZM127.98 226.42H131.37V229.6H127.98V228.82H130.485V227.215H127.98V226.42ZM132.66 224.56H133.695V229.96C133.695 230.22 133.665 230.425 133.605 230.575C133.545 230.725 133.42 230.84 133.23 230.92C133.05 230.99 132.805 231.035 132.495 231.055C132.195 231.075 131.825 231.085 131.385 231.085C131.365 230.945 131.325 230.79 131.265 230.62C131.205 230.45 131.145 230.295 131.085 230.155C131.395 230.165 131.675 230.175 131.925 230.185C132.175 230.185 132.345 230.18 132.435 230.17C132.585 230.17 132.66 230.1 132.66 229.96V224.56ZM127.455 226.42H128.325V230.2H127.455V226.42ZM128.79 222.025H131.985V222.82H129.66V225.04H128.79V222.025ZM121.245 219.895L122.1 219.4C122.44 219.77 122.78 220.175 123.12 220.615C123.46 221.045 123.72 221.42 123.9 221.74L123.015 222.325C122.895 222.105 122.735 221.855 122.535 221.575C122.335 221.295 122.12 221.01 121.89 220.72C121.67 220.42 121.455 220.145 121.245 219.895ZM120.69 222.865H123.945V223.81H120.69V222.865ZM123.375 229.735C123.685 230.395 124.105 230.885 124.635 231.205C125.175 231.525 125.83 231.735 126.6 231.835C127.37 231.925 128.255 231.975 129.255 231.985C129.785 231.985 130.36 231.975 130.98 231.955C131.61 231.935 132.235 231.915 132.855 231.895C133.485 231.865 134.06 231.825 134.58 231.775C134.52 231.855 134.465 231.955 134.415 232.075C134.375 232.205 134.335 232.34 134.295 232.48C134.255 232.62 134.225 232.74 134.205 232.84C133.735 232.86 133.22 232.88 132.66 232.9C132.11 232.93 131.54 232.945 130.95 232.945C130.37 232.955 129.8 232.96 129.24 232.96C128.36 232.96 127.57 232.925 126.87 232.855C126.18 232.785 125.565 232.65 125.025 232.45C124.495 232.25 124.03 231.96 123.63 231.58C123.24 231.2 122.905 230.7 122.625 230.08L123.375 229.735ZM123.375 226.6H123.69L123.885 226.585L124.395 226.78C124.165 228.36 123.77 229.685 123.21 230.755C122.66 231.825 121.995 232.645 121.215 233.215C121.165 233.135 121.09 233.045 120.99 232.945C120.9 232.855 120.805 232.76 120.705 232.66C120.615 232.57 120.53 232.5 120.45 232.45C121.19 231.93 121.815 231.195 122.325 230.245C122.835 229.295 123.185 228.145 123.375 226.795V226.6ZM120.915 227.74V226.87L121.455 226.6H123.825V227.515H121.8C121.62 227.515 121.44 227.54 121.26 227.59C121.09 227.63 120.975 227.68 120.915 227.74ZM120.915 227.74C120.895 227.65 120.855 227.54 120.795 227.41C120.745 227.28 120.695 227.15 120.645 227.02C120.595 226.89 120.545 226.79 120.495 226.72C120.615 226.69 120.735 226.645 120.855 226.585C120.975 226.515 121.095 226.41 121.215 226.27C121.335 226.16 121.5 225.965 121.71 225.685C121.92 225.405 122.145 225.095 122.385 224.755C122.635 224.405 122.865 224.07 123.075 223.75C123.295 223.43 123.47 223.17 123.6 222.97V222.94L123.93 222.79L124.665 223.135C124.495 223.385 124.285 223.685 124.035 224.035C123.795 224.375 123.54 224.73 123.27 225.1C123 225.47 122.735 225.825 122.475 226.165C122.215 226.505 121.98 226.795 121.77 227.035C121.77 227.035 121.725 227.06 121.635 227.11C121.555 227.15 121.455 227.21 121.335 227.29C121.225 227.36 121.125 227.435 121.035 227.515C120.955 227.585 120.915 227.66 120.915 227.74Z" fill="black"/>
<path d="M4.986 259.252C4.278 259.252 3.648 259.168 3.096 259C2.544 258.832 2.052 258.61 1.62 258.334C1.188 258.058 0.804 257.758 0.468 257.434L1.692 255.742C1.944 255.994 2.214 256.222 2.502 256.426C2.802 256.63 3.126 256.792 3.474 256.912C3.834 257.032 4.218 257.092 4.626 257.092C5.082 257.092 5.484 256.996 5.832 256.804C6.192 256.612 6.474 256.336 6.678 255.976C6.882 255.604 6.984 255.16 6.984 254.644C6.984 253.876 6.774 253.282 6.354 252.862C5.946 252.442 5.406 252.232 4.734 252.232C4.35 252.232 4.02 252.286 3.744 252.394C3.468 252.49 3.132 252.664 2.736 252.916L1.53 252.142L1.89 245.662H9.018V247.894H4.176L3.924 250.72C4.188 250.6 4.446 250.51 4.698 250.45C4.95 250.39 5.226 250.36 5.526 250.36C6.27 250.36 6.954 250.51 7.578 250.81C8.202 251.098 8.7 251.554 9.072 252.178C9.444 252.802 9.63 253.6 9.63 254.572C9.63 255.556 9.408 256.402 8.964 257.11C8.532 257.806 7.962 258.34 7.254 258.712C6.558 259.072 5.802 259.252 4.986 259.252ZM13.5512 259.252C13.0712 259.252 12.6752 259.084 12.3632 258.748C12.0512 258.412 11.8952 258.004 11.8952 257.524C11.8952 257.02 12.0512 256.606 12.3632 256.282C12.6752 255.958 13.0712 255.796 13.5512 255.796C14.0192 255.796 14.4092 255.958 14.7212 256.282C15.0332 256.606 15.1892 257.02 15.1892 257.524C15.1892 258.004 15.0332 258.412 14.7212 258.748C14.4092 259.084 14.0192 259.252 13.5512 259.252ZM21.0607 259.252C20.2327 259.252 19.5127 259.102 18.9007 258.802C18.3007 258.502 17.8027 258.148 17.4067 257.74L18.8107 256.138C19.0507 256.414 19.3627 256.642 19.7467 256.822C20.1307 257.002 20.5207 257.092 20.9167 257.092C21.3007 257.092 21.6667 257.008 22.0147 256.84C22.3627 256.66 22.6627 256.378 22.9147 255.994C23.1787 255.598 23.3827 255.076 23.5267 254.428C23.6827 253.78 23.7607 252.982 23.7607 252.034C23.7607 250.894 23.6527 249.988 23.4367 249.316C23.2327 248.644 22.9567 248.164 22.6087 247.876C22.2607 247.576 21.8647 247.426 21.4207 247.426C21.0967 247.426 20.7967 247.516 20.5207 247.696C20.2447 247.876 20.0227 248.146 19.8547 248.506C19.6987 248.866 19.6207 249.322 19.6207 249.874C19.6207 250.39 19.6987 250.822 19.8547 251.17C20.0107 251.506 20.2267 251.758 20.5027 251.926C20.7907 252.094 21.1267 252.178 21.5107 252.178C21.8827 252.178 22.2667 252.064 22.6627 251.836C23.0587 251.608 23.4187 251.224 23.7427 250.684L23.8687 252.466C23.6407 252.79 23.3587 253.072 23.0227 253.312C22.6987 253.552 22.3627 253.738 22.0147 253.87C21.6667 254.002 21.3307 254.068 21.0067 254.068C20.2747 254.068 19.6207 253.918 19.0447 253.618C18.4687 253.306 18.0127 252.844 17.6767 252.232C17.3527 251.608 17.1907 250.822 17.1907 249.874C17.1907 248.962 17.3827 248.176 17.7667 247.516C18.1507 246.844 18.6607 246.328 19.2967 245.968C19.9327 245.608 20.6287 245.428 21.3847 245.428C22.0207 245.428 22.6207 245.56 23.1847 245.824C23.7607 246.076 24.2707 246.472 24.7147 247.012C25.1707 247.54 25.5247 248.224 25.7767 249.064C26.0407 249.892 26.1727 250.882 26.1727 252.034C26.1727 253.294 26.0347 254.38 25.7587 255.292C25.4827 256.192 25.0987 256.936 24.6067 257.524C24.1267 258.112 23.5807 258.55 22.9687 258.838C22.3567 259.114 21.7207 259.252 21.0607 259.252ZM32.0739 259.252C31.3659 259.252 30.7359 259.168 30.1839 259C29.6319 258.832 29.1399 258.61 28.7079 258.334C28.2759 258.058 27.8919 257.758 27.5559 257.434L28.7799 255.742C29.0319 255.994 29.3019 256.222 29.5899 256.426C29.8899 256.63 30.2139 256.792 30.5619 256.912C30.9219 257.032 31.3059 257.092 31.7139 257.092C32.1699 257.092 32.5719 256.996 32.9199 256.804C33.2799 256.612 33.5619 256.336 33.7659 255.976C33.9699 255.604 34.0719 255.16 34.0719 254.644C34.0719 253.876 33.8619 253.282 33.4419 252.862C33.0339 252.442 32.4939 252.232 31.8219 252.232C31.4379 252.232 31.1079 252.286 30.8319 252.394C30.5559 252.49 30.2199 252.664 29.8239 252.916L28.6179 252.142L28.9779 245.662H36.1059V247.894H31.2639L31.0119 250.72C31.2759 250.6 31.5339 250.51 31.7859 250.45C32.0379 250.39 32.3139 250.36 32.6139 250.36C33.3579 250.36 34.0419 250.51 34.6659 250.81C35.2899 251.098 35.7879 251.554 36.1599 252.178C36.5319 252.802 36.7179 253.6 36.7179 254.572C36.7179 255.556 36.4959 256.402 36.0519 257.11C35.6199 257.806 35.0499 258.34 34.3419 258.712C33.6459 259.072 32.8899 259.252 32.0739 259.252ZM41.5211 253.87C40.8971 253.87 40.3391 253.702 39.8471 253.366C39.3551 253.03 38.9711 252.544 38.6951 251.908C38.4191 251.272 38.2811 250.51 38.2811 249.622C38.2811 248.734 38.4191 247.978 38.6951 247.354C38.9711 246.73 39.3551 246.256 39.8471 245.932C40.3391 245.596 40.8971 245.428 41.5211 245.428C42.1691 245.428 42.7331 245.596 43.2131 245.932C43.7051 246.256 44.0891 246.73 44.3651 247.354C44.6411 247.978 44.7791 248.734 44.7791 249.622C44.7791 250.51 44.6411 251.272 44.3651 251.908C44.0891 252.544 43.7051 253.03 43.2131 253.366C42.7331 253.702 42.1691 253.87 41.5211 253.87ZM41.5211 252.376C41.9051 252.376 42.2291 252.166 42.4931 251.746C42.7691 251.314 42.9071 250.606 42.9071 249.622C42.9071 248.65 42.7691 247.96 42.4931 247.552C42.2291 247.132 41.9051 246.922 41.5211 246.922C41.1371 246.922 40.8071 247.132 40.5311 247.552C40.2671 247.96 40.1351 248.65 40.1351 249.622C40.1351 250.606 40.2671 251.314 40.5311 251.746C40.8071 252.166 41.1371 252.376 41.5211 252.376ZM41.9531 259.252L49.2071 245.428H50.7731L43.5371 259.252H41.9531ZM51.2231 259.252C50.5871 259.252 50.0231 259.084 49.5311 258.748C49.0511 258.412 48.6671 257.926 48.3791 257.29C48.1031 256.654 47.9651 255.892 47.9651 255.004C47.9651 254.104 48.1031 253.342 48.3791 252.718C48.6671 252.094 49.0511 251.62 49.5311 251.296C50.0231 250.96 50.5871 250.792 51.2231 250.792C51.8471 250.792 52.3991 250.96 52.8791 251.296C53.3711 251.62 53.7551 252.094 54.0311 252.718C54.3191 253.342 54.4631 254.104 54.4631 255.004C54.4631 255.892 54.3191 256.654 54.0311 257.29C53.7551 257.926 53.3711 258.412 52.8791 258.748C52.3991 259.084 51.8471 259.252 51.2231 259.252ZM51.2231 257.74C51.6071 257.74 51.9311 257.53 52.1951 257.11C52.4591 256.678 52.5911 255.976 52.5911 255.004C52.5911 254.008 52.4591 253.312 52.1951 252.916C51.9311 252.508 51.6071 252.304 51.2231 252.304C50.8271 252.304 50.4971 252.508 50.2331 252.916C49.9691 253.312 49.8371 254.008 49.8371 255.004C49.8371 255.976 49.9691 256.678 50.2331 257.11C50.4971 257.53 50.8271 257.74 51.2231 257.74Z" fill="black"/>
<path d="M355 214L355 176" stroke="black"/>
<path d="M10 214L10 176" stroke="black"/>
<path d="M485 214L485 176" stroke="black"/>
<path d="M102 86L102 50" stroke="black"/>
<path d="M255 86L255 50" stroke="black"/>
</svg>
