<svg width="656" height="204" viewBox="0 0 656 204" fill="none" xmlns="http://www.w3.org/2000/svg">
<rect x="656" y="125" width="38.5101" height="52" transform="rotate(-180 656 125)" fill="#E2E2E2"/>
<rect x="26.5586" y="125" width="26.5587" height="52" transform="rotate(-180 26.5586 125)" fill="#3A5F70"/>
<rect x="617.486" y="125" width="175.287" height="52" transform="rotate(-180 617.486 125)" fill="#F5F5F5"/>
<rect x="442.145" y="125" width="203.443" height="52" transform="rotate(-180 442.145 125)" fill="#3CB2E4"/>
<rect x="238.734" y="125" width="212.47" height="52" transform="rotate(-180 238.734 125)" fill="#0A8FC8"/>
<path d="M435.115 162.195V163.215H427.21V162.195H435.115ZM435.025 168.975L434.125 169.41C433.75 168.63 432.955 167.46 432.115 166.455C432.745 165.54 433.435 164.4 433.78 163.695L434.77 163.965C434.335 164.73 433.735 165.675 433.225 166.425C433.93 167.265 434.665 168.3 435.025 168.975ZM431.215 163.71L432.19 163.965C431.77 164.715 431.185 165.675 430.69 166.41C431.35 167.265 432.04 168.3 432.385 168.96L431.455 169.38C431.14 168.6 430.405 167.445 429.595 166.44C430.21 165.54 430.87 164.415 431.215 163.71ZM429.775 169.02L428.845 169.41C428.53 168.63 427.825 167.475 427.06 166.455C427.645 165.54 428.29 164.4 428.635 163.695L429.61 163.95C429.205 164.715 428.635 165.675 428.125 166.425C428.785 167.295 429.445 168.345 429.775 169.02ZM427.045 170.175L426.13 170.475C426.1 170.25 426.04 169.965 425.965 169.665C422.785 170.145 422.335 170.25 422.035 170.4C421.975 170.175 421.81 169.635 421.675 169.365C422.005 169.29 422.35 168.915 422.785 168.375C423.01 168.105 423.475 167.475 424.015 166.68C422.47 166.86 422.155 166.92 421.945 167.025C421.885 166.8 421.72 166.32 421.6 166.035C421.855 165.975 422.11 165.675 422.425 165.21C422.74 164.775 423.79 163.05 424.405 161.445L425.395 161.85C424.735 163.26 423.925 164.7 423.115 165.84L424.66 165.705C425.035 165.075 425.425 164.4 425.74 163.71L426.7 164.28C425.74 165.99 424.57 167.73 423.37 169.11L425.725 168.81C425.56 168.3 425.395 167.79 425.215 167.34L426.07 167.1C426.475 168.09 426.895 169.395 427.045 170.175ZM422.32 171.045L423.25 171.195C423.1 172.5 422.815 173.94 422.485 174.885C422.29 174.78 421.825 174.63 421.6 174.54C421.945 173.61 422.17 172.275 422.32 171.045ZM423.85 171.15L424.705 171.015C424.9 172.005 425.08 173.295 425.125 174.165L424.225 174.315C424.195 173.475 424.03 172.17 423.85 171.15ZM425.305 170.88L426.1 170.625C426.4 171.42 426.745 172.455 426.865 173.13L426.04 173.415C425.905 172.725 425.59 171.675 425.305 170.88ZM431.62 173.775H435.265V174.795H426.7V173.775H430.525V170.925H427.54V169.92H434.665V170.925H431.62V173.775ZM440.71 166.65V168.12H446.365V166.65H440.71ZM448.855 170.19V173.325C448.855 173.91 448.735 174.21 448.27 174.375C447.805 174.555 447.055 174.555 445.9 174.555C445.84 174.24 445.66 173.835 445.51 173.535C446.41 173.565 447.205 173.565 447.43 173.55C447.655 173.535 447.73 173.49 447.73 173.31V171.21H444.25V175.155H443.125V171.21H439.42V174.48H438.31V170.19H443.125V168.96H439.645V165.81H447.475V168.96H444.25V170.19H448.855ZM447.4 161.565L448.555 161.97C448.06 162.63 447.49 163.32 447.055 163.77L446.155 163.395C446.575 162.9 447.115 162.105 447.4 161.565ZM449.77 163.77V166.965H448.675V164.745H438.4V166.965H437.335V163.77H439.735C439.51 163.275 439.015 162.54 438.565 162L439.555 161.595C440.05 162.12 440.575 162.855 440.83 163.35L439.9 163.77H443.035V161.445H444.16V163.77H449.77ZM462.205 168.69V167.175H455.95V168.69H462.205ZM455.905 171.225H462.205V169.65H455.95V170.115C455.95 170.475 455.935 170.835 455.905 171.225ZM465.055 164.43H456.955C456.67 165.015 456.37 165.615 456.04 166.17H463.3V173.745C463.3 174.42 463.15 174.75 462.67 174.93C462.175 175.11 461.335 175.125 460.06 175.125C460.015 174.795 459.85 174.345 459.685 174.03C460.69 174.075 461.59 174.06 461.86 174.06C462.115 174.045 462.205 173.97 462.205 173.745V172.185H455.77C455.575 173.28 455.125 174.405 454.24 175.23C454.105 174.99 453.7 174.525 453.46 174.36C454.705 173.16 454.84 171.51 454.84 170.085V167.895C454.135 168.75 453.325 169.545 452.41 170.19C452.26 169.95 451.915 169.545 451.705 169.32C453.46 168.135 454.81 166.365 455.74 164.43H452.005V163.38H456.22C456.475 162.735 456.7 162.09 456.88 161.445L457.99 161.715C457.825 162.27 457.63 162.84 457.405 163.38H465.055V164.43ZM480.145 167.805L479.425 168.06C479.38 167.88 479.32 167.64 479.23 167.385C477.07 167.73 476.695 167.805 476.515 167.91C476.455 167.73 476.32 167.265 476.23 167.04C476.455 166.995 476.68 166.74 476.95 166.38C477.115 166.185 477.46 165.69 477.865 165.045C476.755 165.195 476.5 165.27 476.35 165.345C476.305 165.15 476.17 164.745 476.065 164.505C476.245 164.49 476.41 164.295 476.59 164.01C476.74 163.755 477.37 162.66 477.685 161.655L478.495 161.91C478.135 162.795 477.67 163.68 477.205 164.37L478.3 164.25C478.495 163.92 478.675 163.56 478.825 163.215L479.665 163.53C479.035 164.76 478.24 165.96 477.475 166.89L478.99 166.68C478.87 166.38 478.75 166.065 478.63 165.78L479.305 165.585C479.635 166.29 479.995 167.25 480.145 167.805ZM474.745 168.06L474.01 168.315C473.965 168.135 473.905 167.925 473.845 167.685C471.7 168.015 471.355 168.075 471.145 168.195C471.115 168.015 470.995 167.58 470.89 167.355C471.1 167.295 471.355 167.055 471.64 166.68C471.805 166.5 472.195 165.975 472.615 165.33C471.445 165.495 471.16 165.57 471.01 165.645C470.98 165.465 470.845 165.045 470.755 164.82C470.935 164.775 471.1 164.58 471.31 164.28C471.52 163.98 472.21 162.825 472.57 161.685L473.41 161.955C472.99 162.93 472.45 163.92 471.91 164.67L473.095 164.55C473.275 164.22 473.455 163.89 473.605 163.545L474.415 163.86C473.755 165.06 472.96 166.245 472.165 167.175L473.635 166.98C473.515 166.65 473.395 166.335 473.275 166.035L473.98 165.84C474.31 166.56 474.61 167.505 474.745 168.06ZM470.695 168.63L470.14 169.455C469.99 169.05 469.66 168.33 469.345 167.7V175.14H468.37V168.015C467.995 169.56 467.485 171.03 466.975 171.93C466.855 171.615 466.615 171.12 466.45 170.85C467.2 169.635 467.92 167.34 468.28 165.375H466.78V164.325H468.37V161.445H469.345V164.325H470.53V165.375H469.345V166.35C469.675 166.875 470.485 168.255 470.695 168.63ZM478.36 170.22L479.32 170.565C478.855 171.465 478.24 172.26 477.475 172.965C477.91 173.625 478.435 173.985 479.035 174.045C479.35 174.075 479.545 173.505 479.665 172.425C479.845 172.635 480.22 172.89 480.415 172.995C480.13 174.63 479.665 175.185 479.065 175.14C478.09 175.08 477.31 174.54 476.695 173.61C475.915 174.18 475.03 174.675 474.07 175.065C473.95 174.87 473.68 174.54 473.47 174.36C474.505 173.955 475.465 173.43 476.26 172.8C475.915 172.035 475.63 171.105 475.39 170.055H472.945V170.28C472.945 170.385 472.945 170.505 472.93 170.625C473.65 171.18 474.55 171.945 475 172.41L474.31 173.085C473.965 172.71 473.38 172.155 472.795 171.66C472.54 172.86 471.91 174.165 470.59 175.17C470.44 174.96 470.065 174.615 469.855 174.495C471.61 173.205 471.985 171.525 471.985 170.265V170.055H470.845V169.155H475.225C474.865 167.025 474.67 164.43 474.58 161.565H475.54C475.615 164.49 475.825 167.1 476.2 169.155H478.345C477.985 168.84 477.445 168.465 477.01 168.195L477.58 167.67C478.105 167.97 478.795 168.435 479.14 168.75L478.75 169.155H479.995V170.055H476.38C476.575 170.85 476.77 171.54 477.025 172.11C477.58 171.54 478.045 170.895 478.36 170.22ZM491.665 171H485.455V172.02H491.665V171ZM485.455 173.835H491.665V172.815H485.455V173.835ZM484.36 175.125V170.205H492.79V175.08H491.665V174.63H485.455V175.125H484.36ZM490.645 168.675L489.895 168.405C490.165 167.91 490.555 167.115 490.72 166.605L491.665 166.905C491.335 167.55 490.96 168.225 490.645 168.675ZM485.35 166.92L486.145 166.665C486.535 167.19 486.91 167.88 487.045 168.36L486.19 168.675C486.07 168.195 485.725 167.475 485.35 166.92ZM484.45 166.5V168.735H487.99V166.5H484.45ZM492.505 168.735V166.5H488.935V168.735H492.505ZM483.49 169.5V165.72H493.51V169.5H483.49ZM486.625 164.175H490.54C489.82 163.725 489.145 163.215 488.575 162.675C488.005 163.23 487.345 163.74 486.625 164.175ZM488.41 161.4L489.385 161.76C489.31 161.85 489.25 161.955 489.175 162.045C490.585 163.41 493.18 164.625 495.52 165.165C495.28 165.375 494.98 165.765 494.815 166.035C493.6 165.69 492.31 165.18 491.14 164.52V164.985H485.935V164.565C484.795 165.21 483.52 165.72 482.26 166.11C482.14 165.9 481.825 165.465 481.63 165.255C484.345 164.535 487 163.215 488.41 161.4Z" fill="black"/>
<path d="M444.986 201.252C444.278 201.252 443.648 201.168 443.096 201C442.544 200.832 442.052 200.61 441.62 200.334C441.188 200.058 440.804 199.758 440.468 199.434L441.692 197.742C441.944 197.994 442.214 198.222 442.502 198.426C442.802 198.63 443.126 198.792 443.474 198.912C443.834 199.032 444.218 199.092 444.626 199.092C445.082 199.092 445.484 198.996 445.832 198.804C446.192 198.612 446.474 198.336 446.678 197.976C446.882 197.604 446.984 197.16 446.984 196.644C446.984 195.876 446.774 195.282 446.354 194.862C445.946 194.442 445.406 194.232 444.734 194.232C444.35 194.232 444.02 194.286 443.744 194.394C443.468 194.49 443.132 194.664 442.736 194.916L441.53 194.142L441.89 187.662H449.018V189.894H444.176L443.924 192.72C444.188 192.6 444.446 192.51 444.698 192.45C444.95 192.39 445.226 192.36 445.526 192.36C446.27 192.36 446.954 192.51 447.578 192.81C448.202 193.098 448.7 193.554 449.072 194.178C449.444 194.802 449.63 195.6 449.63 196.572C449.63 197.556 449.408 198.402 448.964 199.11C448.532 199.806 447.962 200.34 447.254 200.712C446.558 201.072 445.802 201.252 444.986 201.252ZM453.551 201.252C453.071 201.252 452.675 201.084 452.363 200.748C452.051 200.412 451.895 200.004 451.895 199.524C451.895 199.02 452.051 198.606 452.363 198.282C452.675 197.958 453.071 197.796 453.551 197.796C454.019 197.796 454.409 197.958 454.721 198.282C455.033 198.606 455.189 199.02 455.189 199.524C455.189 200.004 455.033 200.412 454.721 200.748C454.409 201.084 454.019 201.252 453.551 201.252ZM461.061 201.252C460.233 201.252 459.513 201.102 458.901 200.802C458.301 200.502 457.803 200.148 457.407 199.74L458.811 198.138C459.051 198.414 459.363 198.642 459.747 198.822C460.131 199.002 460.521 199.092 460.917 199.092C461.301 199.092 461.667 199.008 462.015 198.84C462.363 198.66 462.663 198.378 462.915 197.994C463.179 197.598 463.383 197.076 463.527 196.428C463.683 195.78 463.761 194.982 463.761 194.034C463.761 192.894 463.653 191.988 463.437 191.316C463.233 190.644 462.957 190.164 462.609 189.876C462.261 189.576 461.865 189.426 461.421 189.426C461.097 189.426 460.797 189.516 460.521 189.696C460.245 189.876 460.023 190.146 459.855 190.506C459.699 190.866 459.621 191.322 459.621 191.874C459.621 192.39 459.699 192.822 459.855 193.17C460.011 193.506 460.227 193.758 460.503 193.926C460.791 194.094 461.127 194.178 461.511 194.178C461.883 194.178 462.267 194.064 462.663 193.836C463.059 193.608 463.419 193.224 463.743 192.684L463.869 194.466C463.641 194.79 463.359 195.072 463.023 195.312C462.699 195.552 462.363 195.738 462.015 195.87C461.667 196.002 461.331 196.068 461.007 196.068C460.275 196.068 459.621 195.918 459.045 195.618C458.469 195.306 458.013 194.844 457.677 194.232C457.353 193.608 457.191 192.822 457.191 191.874C457.191 190.962 457.383 190.176 457.767 189.516C458.151 188.844 458.661 188.328 459.297 187.968C459.933 187.608 460.629 187.428 461.385 187.428C462.021 187.428 462.621 187.56 463.185 187.824C463.761 188.076 464.271 188.472 464.715 189.012C465.171 189.54 465.525 190.224 465.777 191.064C466.041 191.892 466.173 192.882 466.173 194.034C466.173 195.294 466.035 196.38 465.759 197.292C465.483 198.192 465.099 198.936 464.607 199.524C464.127 200.112 463.581 200.55 462.969 200.838C462.357 201.114 461.721 201.252 461.061 201.252ZM472.074 201.252C471.366 201.252 470.736 201.168 470.184 201C469.632 200.832 469.14 200.61 468.708 200.334C468.276 200.058 467.892 199.758 467.556 199.434L468.78 197.742C469.032 197.994 469.302 198.222 469.59 198.426C469.89 198.63 470.214 198.792 470.562 198.912C470.922 199.032 471.306 199.092 471.714 199.092C472.17 199.092 472.572 198.996 472.92 198.804C473.28 198.612 473.562 198.336 473.766 197.976C473.97 197.604 474.072 197.16 474.072 196.644C474.072 195.876 473.862 195.282 473.442 194.862C473.034 194.442 472.494 194.232 471.822 194.232C471.438 194.232 471.108 194.286 470.832 194.394C470.556 194.49 470.22 194.664 469.824 194.916L468.618 194.142L468.978 187.662H476.106V189.894H471.264L471.012 192.72C471.276 192.6 471.534 192.51 471.786 192.45C472.038 192.39 472.314 192.36 472.614 192.36C473.358 192.36 474.042 192.51 474.666 192.81C475.29 193.098 475.788 193.554 476.16 194.178C476.532 194.802 476.718 195.6 476.718 196.572C476.718 197.556 476.496 198.402 476.052 199.11C475.62 199.806 475.05 200.34 474.342 200.712C473.646 201.072 472.89 201.252 472.074 201.252ZM481.521 195.87C480.897 195.87 480.339 195.702 479.847 195.366C479.355 195.03 478.971 194.544 478.695 193.908C478.419 193.272 478.281 192.51 478.281 191.622C478.281 190.734 478.419 189.978 478.695 189.354C478.971 188.73 479.355 188.256 479.847 187.932C480.339 187.596 480.897 187.428 481.521 187.428C482.169 187.428 482.733 187.596 483.213 187.932C483.705 188.256 484.089 188.73 484.365 189.354C484.641 189.978 484.779 190.734 484.779 191.622C484.779 192.51 484.641 193.272 484.365 193.908C484.089 194.544 483.705 195.03 483.213 195.366C482.733 195.702 482.169 195.87 481.521 195.87ZM481.521 194.376C481.905 194.376 482.229 194.166 482.493 193.746C482.769 193.314 482.907 192.606 482.907 191.622C482.907 190.65 482.769 189.96 482.493 189.552C482.229 189.132 481.905 188.922 481.521 188.922C481.137 188.922 480.807 189.132 480.531 189.552C480.267 189.96 480.135 190.65 480.135 191.622C480.135 192.606 480.267 193.314 480.531 193.746C480.807 194.166 481.137 194.376 481.521 194.376ZM481.953 201.252L489.207 187.428H490.773L483.537 201.252H481.953ZM491.223 201.252C490.587 201.252 490.023 201.084 489.531 200.748C489.051 200.412 488.667 199.926 488.379 199.29C488.103 198.654 487.965 197.892 487.965 197.004C487.965 196.104 488.103 195.342 488.379 194.718C488.667 194.094 489.051 193.62 489.531 193.296C490.023 192.96 490.587 192.792 491.223 192.792C491.847 192.792 492.399 192.96 492.879 193.296C493.371 193.62 493.755 194.094 494.031 194.718C494.319 195.342 494.463 196.104 494.463 197.004C494.463 197.892 494.319 198.654 494.031 199.29C493.755 199.926 493.371 200.412 492.879 200.748C492.399 201.084 491.847 201.252 491.223 201.252ZM491.223 199.74C491.607 199.74 491.931 199.53 492.195 199.11C492.459 198.678 492.591 197.976 492.591 197.004C492.591 196.008 492.459 195.312 492.195 194.916C491.931 194.508 491.607 194.304 491.223 194.304C490.827 194.304 490.497 194.508 490.233 194.916C489.969 195.312 489.837 196.008 489.837 197.004C489.837 197.976 489.969 198.678 490.233 199.11C490.497 199.53 490.827 199.74 491.223 199.74Z" fill="black"/>
<path d="M585.035 161.505L586.07 161.82C585.65 162.96 585.14 164.115 584.54 165.18V175.14H583.475V166.875C583.055 167.49 582.605 168.06 582.155 168.555C582.05 168.285 581.72 167.715 581.525 167.46C582.92 166.005 584.24 163.77 585.035 161.505ZM587.615 166.815H589.94V165.345H587.615V166.815ZM587.615 163.05V164.505H589.94V163.05H587.615ZM593.33 164.505V163.05H590.945V164.505H593.33ZM593.33 166.815V165.345H590.945V166.815H593.33ZM595.025 168.87V173.985C595.025 174.57 594.905 174.84 594.47 175.005C594.02 175.17 593.285 175.185 592.145 175.17C592.1 174.885 591.965 174.495 591.83 174.225C592.7 174.27 593.48 174.255 593.69 174.24C593.915 174.225 593.99 174.18 593.99 173.97V169.815H590.945V171.705L592.31 171.6C592.13 171.225 591.95 170.88 591.785 170.565L592.43 170.34C592.97 171.255 593.525 172.455 593.75 173.19L593.075 173.475C592.985 173.175 592.835 172.815 592.67 172.425C590.87 172.62 589.025 172.83 587.615 172.995L587.405 172.02C588.11 171.96 588.98 171.885 589.94 171.81V169.815H586.94V175.155H585.875V169.815H585.38V168.87H585.875V168.255H586.94V168.87H589.94V167.7H586.565V162.165H594.41V167.7H590.945V168.87H595.025ZM601.58 170.115L602.33 170.295C602.135 170.79 601.88 171.285 601.61 171.735C601.985 172.035 602.33 172.335 602.555 172.575L602.09 173.175C601.88 172.935 601.565 172.65 601.22 172.35C600.8 172.95 600.335 173.49 599.855 173.91C599.72 173.79 599.42 173.55 599.24 173.46C599.75 173.025 600.23 172.5 600.635 171.9C600.275 171.63 599.9 171.375 599.54 171.18L599.99 170.625C600.32 170.82 600.68 171.045 601.01 171.285C601.235 170.91 601.43 170.52 601.58 170.115ZM602.48 168.855L602.015 169.455C601.805 169.23 601.49 168.96 601.145 168.69C600.755 169.2 600.35 169.665 599.93 170.025C599.795 169.905 599.495 169.695 599.315 169.605C599.765 169.23 600.185 168.78 600.575 168.285C600.23 168.075 599.885 167.865 599.57 167.7L600.02 167.175C600.335 167.325 600.665 167.505 600.98 167.715C601.205 167.37 601.415 167.01 601.58 166.65L602.285 166.83C602.075 167.265 601.835 167.7 601.565 168.105C601.94 168.375 602.255 168.63 602.48 168.855ZM607.61 172.47L607.16 173.07C606.935 172.83 606.605 172.545 606.23 172.26C605.795 172.875 605.315 173.415 604.805 173.85C604.685 173.73 604.385 173.505 604.19 173.4C604.73 172.98 605.225 172.44 605.645 171.84C605.27 171.57 604.88 171.33 604.52 171.12L604.955 170.58C605.315 170.76 605.69 170.985 606.05 171.225C606.26 170.865 606.455 170.49 606.605 170.1L607.34 170.28C607.145 170.745 606.905 171.21 606.65 171.645C607.04 171.945 607.37 172.23 607.61 172.47ZM607.505 168.915L607.025 169.5C606.8 169.26 606.47 168.975 606.11 168.705C605.705 169.23 605.27 169.695 604.835 170.07C604.715 169.95 604.43 169.74 604.235 169.65C604.7 169.275 605.135 168.81 605.54 168.285C605.18 168.045 604.805 167.82 604.46 167.64L604.91 167.13C605.24 167.295 605.6 167.505 605.945 167.715C606.17 167.37 606.38 167.01 606.545 166.65L607.25 166.83C607.055 167.265 606.8 167.7 606.53 168.105C606.92 168.39 607.265 168.675 607.505 168.915ZM604.01 165.39H608.45C607.595 164.865 606.575 164.295 605.69 163.905L606.44 163.335H604.01V165.39ZM610.415 165.465L609.59 166.17C609.455 166.065 609.305 165.96 609.14 165.84V173.91C609.14 174.51 609.005 174.81 608.585 174.975C608.15 175.14 607.4 175.14 606.275 175.14C606.215 174.885 606.065 174.465 605.93 174.21C606.8 174.24 607.55 174.225 607.79 174.21C608.03 174.195 608.105 174.135 608.105 173.91V166.305H604.01V175.08H602.945V166.305H599.03V175.14H597.995V166.05C597.785 166.155 597.575 166.26 597.38 166.35C597.215 166.17 596.795 165.795 596.555 165.615C597.875 165.09 599.3 164.265 600.155 163.38L601.145 163.74C600.59 164.325 599.87 164.895 599.105 165.39H602.945V163.335H597.005V162.345H610.07V163.335H606.65C607.955 163.95 609.56 164.835 610.415 165.465ZM622.205 168.69V167.175H615.95V168.69H622.205ZM615.905 171.225H622.205V169.65H615.95V170.115C615.95 170.475 615.935 170.835 615.905 171.225ZM625.055 164.43H616.955C616.67 165.015 616.37 165.615 616.04 166.17H623.3V173.745C623.3 174.42 623.15 174.75 622.67 174.93C622.175 175.11 621.335 175.125 620.06 175.125C620.015 174.795 619.85 174.345 619.685 174.03C620.69 174.075 621.59 174.06 621.86 174.06C622.115 174.045 622.205 173.97 622.205 173.745V172.185H615.77C615.575 173.28 615.125 174.405 614.24 175.23C614.105 174.99 613.7 174.525 613.46 174.36C614.705 173.16 614.84 171.51 614.84 170.085V167.895C614.135 168.75 613.325 169.545 612.41 170.19C612.26 169.95 611.915 169.545 611.705 169.32C613.46 168.135 614.81 166.365 615.74 164.43H612.005V163.38H616.22C616.475 162.735 616.7 162.09 616.88 161.445L617.99 161.715C617.825 162.27 617.63 162.84 617.405 163.38H625.055V164.43ZM640.145 167.805L639.425 168.06C639.38 167.88 639.32 167.64 639.23 167.385C637.07 167.73 636.695 167.805 636.515 167.91C636.455 167.73 636.32 167.265 636.23 167.04C636.455 166.995 636.68 166.74 636.95 166.38C637.115 166.185 637.46 165.69 637.865 165.045C636.755 165.195 636.5 165.27 636.35 165.345C636.305 165.15 636.17 164.745 636.065 164.505C636.245 164.49 636.41 164.295 636.59 164.01C636.74 163.755 637.37 162.66 637.685 161.655L638.495 161.91C638.135 162.795 637.67 163.68 637.205 164.37L638.3 164.25C638.495 163.92 638.675 163.56 638.825 163.215L639.665 163.53C639.035 164.76 638.24 165.96 637.475 166.89L638.99 166.68C638.87 166.38 638.75 166.065 638.63 165.78L639.305 165.585C639.635 166.29 639.995 167.25 640.145 167.805ZM634.745 168.06L634.01 168.315C633.965 168.135 633.905 167.925 633.845 167.685C631.7 168.015 631.355 168.075 631.145 168.195C631.115 168.015 630.995 167.58 630.89 167.355C631.1 167.295 631.355 167.055 631.64 166.68C631.805 166.5 632.195 165.975 632.615 165.33C631.445 165.495 631.16 165.57 631.01 165.645C630.98 165.465 630.845 165.045 630.755 164.82C630.935 164.775 631.1 164.58 631.31 164.28C631.52 163.98 632.21 162.825 632.57 161.685L633.41 161.955C632.99 162.93 632.45 163.92 631.91 164.67L633.095 164.55C633.275 164.22 633.455 163.89 633.605 163.545L634.415 163.86C633.755 165.06 632.96 166.245 632.165 167.175L633.635 166.98C633.515 166.65 633.395 166.335 633.275 166.035L633.98 165.84C634.31 166.56 634.61 167.505 634.745 168.06ZM630.695 168.63L630.14 169.455C629.99 169.05 629.66 168.33 629.345 167.7V175.14H628.37V168.015C627.995 169.56 627.485 171.03 626.975 171.93C626.855 171.615 626.615 171.12 626.45 170.85C627.2 169.635 627.92 167.34 628.28 165.375H626.78V164.325H628.37V161.445H629.345V164.325H630.53V165.375H629.345V166.35C629.675 166.875 630.485 168.255 630.695 168.63ZM638.36 170.22L639.32 170.565C638.855 171.465 638.24 172.26 637.475 172.965C637.91 173.625 638.435 173.985 639.035 174.045C639.35 174.075 639.545 173.505 639.665 172.425C639.845 172.635 640.22 172.89 640.415 172.995C640.13 174.63 639.665 175.185 639.065 175.14C638.09 175.08 637.31 174.54 636.695 173.61C635.915 174.18 635.03 174.675 634.07 175.065C633.95 174.87 633.68 174.54 633.47 174.36C634.505 173.955 635.465 173.43 636.26 172.8C635.915 172.035 635.63 171.105 635.39 170.055H632.945V170.28C632.945 170.385 632.945 170.505 632.93 170.625C633.65 171.18 634.55 171.945 635 172.41L634.31 173.085C633.965 172.71 633.38 172.155 632.795 171.66C632.54 172.86 631.91 174.165 630.59 175.17C630.44 174.96 630.065 174.615 629.855 174.495C631.61 173.205 631.985 171.525 631.985 170.265V170.055H630.845V169.155H635.225C634.865 167.025 634.67 164.43 634.58 161.565H635.54C635.615 164.49 635.825 167.1 636.2 169.155H638.345C637.985 168.84 637.445 168.465 637.01 168.195L637.58 167.67C638.105 167.97 638.795 168.435 639.14 168.75L638.75 169.155H639.995V170.055H636.38C636.575 170.85 636.77 171.54 637.025 172.11C637.58 171.54 638.045 170.895 638.36 170.22ZM651.665 171H645.455V172.02H651.665V171ZM645.455 173.835H651.665V172.815H645.455V173.835ZM644.36 175.125V170.205H652.79V175.08H651.665V174.63H645.455V175.125H644.36ZM650.645 168.675L649.895 168.405C650.165 167.91 650.555 167.115 650.72 166.605L651.665 166.905C651.335 167.55 650.96 168.225 650.645 168.675ZM645.35 166.92L646.145 166.665C646.535 167.19 646.91 167.88 647.045 168.36L646.19 168.675C646.07 168.195 645.725 167.475 645.35 166.92ZM644.45 166.5V168.735H647.99V166.5H644.45ZM652.505 168.735V166.5H648.935V168.735H652.505ZM643.49 169.5V165.72H653.51V169.5H643.49ZM646.625 164.175H650.54C649.82 163.725 649.145 163.215 648.575 162.675C648.005 163.23 647.345 163.74 646.625 164.175ZM648.41 161.4L649.385 161.76C649.31 161.85 649.25 161.955 649.175 162.045C650.585 163.41 653.18 164.625 655.52 165.165C655.28 165.375 654.98 165.765 654.815 166.035C653.6 165.69 652.31 165.18 651.14 164.52V164.985H645.935V164.565C644.795 165.21 643.52 165.72 642.26 166.11C642.14 165.9 641.825 165.465 641.63 165.255C644.345 164.535 647 163.215 648.41 161.4Z" fill="black"/>
<path d="M600.774 201V199.47C601.986 198.39 603.018 197.388 603.87 196.464C604.734 195.54 605.394 194.682 605.85 193.89C606.306 193.086 606.534 192.342 606.534 191.658C606.534 191.226 606.456 190.848 606.3 190.524C606.144 190.2 605.916 189.954 605.616 189.786C605.328 189.606 604.968 189.516 604.536 189.516C604.056 189.516 603.612 189.654 603.204 189.93C602.808 190.194 602.442 190.512 602.106 190.884L600.63 189.462C601.254 188.79 601.89 188.286 602.538 187.95C603.198 187.602 603.978 187.428 604.878 187.428C605.718 187.428 606.45 187.602 607.074 187.95C607.71 188.286 608.202 188.76 608.55 189.372C608.898 189.984 609.072 190.704 609.072 191.532C609.072 192.336 608.868 193.158 608.46 193.998C608.064 194.826 607.53 195.654 606.858 196.482C606.186 197.31 605.442 198.126 604.626 198.93C604.974 198.882 605.346 198.846 605.742 198.822C606.15 198.786 606.51 198.768 606.822 198.768H609.702V201H600.774ZM613.965 201C614.025 199.848 614.127 198.786 614.271 197.814C614.415 196.83 614.619 195.906 614.883 195.042C615.147 194.166 615.489 193.308 615.909 192.468C616.341 191.628 616.875 190.77 617.511 189.894H611.517V187.662H620.373V189.282C619.605 190.218 618.981 191.118 618.501 191.982C618.033 192.846 617.673 193.722 617.421 194.61C617.181 195.498 617.001 196.458 616.881 197.49C616.773 198.522 616.689 199.692 616.629 201H613.965ZM624.168 201.252C623.688 201.252 623.292 201.084 622.98 200.748C622.668 200.412 622.512 200.004 622.512 199.524C622.512 199.02 622.668 198.606 622.98 198.282C623.292 197.958 623.688 197.796 624.168 197.796C624.636 197.796 625.026 197.958 625.338 198.282C625.65 198.606 625.806 199.02 625.806 199.524C625.806 200.004 625.65 200.412 625.338 200.748C625.026 201.084 624.636 201.252 624.168 201.252ZM632.002 201.252C631.306 201.252 630.682 201.168 630.13 201C629.578 200.844 629.086 200.628 628.654 200.352C628.234 200.064 627.868 199.746 627.556 199.398L628.798 197.724C629.206 198.096 629.65 198.42 630.13 198.696C630.622 198.96 631.168 199.092 631.768 199.092C632.224 199.092 632.62 199.02 632.956 198.876C633.304 198.732 633.568 198.522 633.748 198.246C633.94 197.97 634.036 197.634 634.036 197.238C634.036 196.794 633.928 196.416 633.712 196.104C633.508 195.78 633.142 195.534 632.614 195.366C632.086 195.198 631.342 195.114 630.382 195.114V193.206C631.198 193.206 631.84 193.122 632.308 192.954C632.776 192.774 633.106 192.534 633.298 192.234C633.502 191.922 633.604 191.568 633.604 191.172C633.604 190.656 633.448 190.254 633.136 189.966C632.824 189.666 632.386 189.516 631.822 189.516C631.354 189.516 630.916 189.624 630.508 189.84C630.112 190.044 629.716 190.326 629.32 190.686L627.952 189.048C628.54 188.556 629.158 188.166 629.806 187.878C630.454 187.578 631.168 187.428 631.948 187.428C632.8 187.428 633.55 187.566 634.198 187.842C634.858 188.118 635.368 188.52 635.728 189.048C636.088 189.576 636.268 190.218 636.268 190.974C636.268 191.694 636.076 192.312 635.692 192.828C635.308 193.344 634.762 193.74 634.054 194.016V194.106C634.546 194.238 634.99 194.454 635.386 194.754C635.794 195.042 636.112 195.408 636.34 195.852C636.58 196.296 636.7 196.812 636.7 197.4C636.7 198.204 636.484 198.894 636.052 199.47C635.632 200.046 635.062 200.49 634.342 200.802C633.634 201.102 632.854 201.252 632.002 201.252ZM641.521 195.87C640.897 195.87 640.339 195.702 639.847 195.366C639.355 195.03 638.971 194.544 638.695 193.908C638.419 193.272 638.281 192.51 638.281 191.622C638.281 190.734 638.419 189.978 638.695 189.354C638.971 188.73 639.355 188.256 639.847 187.932C640.339 187.596 640.897 187.428 641.521 187.428C642.169 187.428 642.733 187.596 643.213 187.932C643.705 188.256 644.089 188.73 644.365 189.354C644.641 189.978 644.779 190.734 644.779 191.622C644.779 192.51 644.641 193.272 644.365 193.908C644.089 194.544 643.705 195.03 643.213 195.366C642.733 195.702 642.169 195.87 641.521 195.87ZM641.521 194.376C641.905 194.376 642.229 194.166 642.493 193.746C642.769 193.314 642.907 192.606 642.907 191.622C642.907 190.65 642.769 189.96 642.493 189.552C642.229 189.132 641.905 188.922 641.521 188.922C641.137 188.922 640.807 189.132 640.531 189.552C640.267 189.96 640.135 190.65 640.135 191.622C640.135 192.606 640.267 193.314 640.531 193.746C640.807 194.166 641.137 194.376 641.521 194.376ZM641.953 201.252L649.207 187.428H650.773L643.537 201.252H641.953ZM651.223 201.252C650.587 201.252 650.023 201.084 649.531 200.748C649.051 200.412 648.667 199.926 648.379 199.29C648.103 198.654 647.965 197.892 647.965 197.004C647.965 196.104 648.103 195.342 648.379 194.718C648.667 194.094 649.051 193.62 649.531 193.296C650.023 192.96 650.587 192.792 651.223 192.792C651.847 192.792 652.399 192.96 652.879 193.296C653.371 193.62 653.755 194.094 654.031 194.718C654.319 195.342 654.463 196.104 654.463 197.004C654.463 197.892 654.319 198.654 654.031 199.29C653.755 199.926 653.371 200.412 652.879 200.748C652.399 201.084 651.847 201.252 651.223 201.252ZM651.223 199.74C651.607 199.74 651.931 199.53 652.195 199.11C652.459 198.678 652.591 197.976 652.591 197.004C652.591 196.008 652.459 195.312 652.195 194.916C651.931 194.508 651.607 194.304 651.223 194.304C650.827 194.304 650.497 194.508 650.233 194.916C649.969 195.312 649.837 196.008 649.837 197.004C649.837 197.976 649.969 198.678 650.233 199.11C650.497 199.53 650.827 199.74 651.223 199.74Z" fill="black"/>
<path d="M85.69 12L84.865 12.345C84.82 12.135 84.73 11.925 84.64 11.67C81.175 12.015 80.755 12.09 80.455 12.225C80.425 12.03 80.275 11.58 80.17 11.325C80.455 11.295 80.77 11.04 81.16 10.65C81.355 10.485 81.745 10.065 82.225 9.54C80.8 9.69 80.5 9.765 80.335 9.855C80.275 9.645 80.155 9.21 80.065 8.985C80.26 8.94 80.5 8.715 80.74 8.4C80.995 8.085 81.865 6.84 82.39 5.625L83.245 5.955C82.675 7.005 81.985 8.04 81.325 8.85L82.9 8.715C83.245 8.28 83.59 7.8 83.89 7.32L84.745 7.695C83.8 9 82.735 10.215 81.685 11.145L84.31 10.935C84.13 10.56 83.92 10.215 83.725 9.9L84.52 9.615C85.015 10.35 85.525 11.355 85.69 12ZM90.37 14.16L91.39 14.475C90.91 15.33 90.25 16.08 89.485 16.725C90.13 17.52 90.85 17.955 91.63 17.955C92.2 17.955 92.38 17.565 92.5 16.035C92.74 16.275 93.1 16.47 93.385 16.575C93.145 18.495 92.755 19.02 91.585 19.02C90.445 19.02 89.455 18.42 88.615 17.37C87.58 18.09 86.365 18.66 85.15 19.095C85 18.885 84.64 18.465 84.415 18.255C85.735 17.85 87.01 17.31 88.075 16.575C87.625 15.825 87.22 14.94 86.89 13.935H83.41C83.38 14.265 83.335 14.625 83.275 14.955C84.13 15.435 85.12 16.11 85.63 16.605L84.895 17.34C84.505 16.935 83.77 16.365 83.035 15.9C82.63 17.28 81.835 18.51 80.5 19.2C80.35 18.99 79.975 18.63 79.75 18.465C81.565 17.58 82.195 15.705 82.3 13.935H79.84V12.975H86.605C86.005 10.77 85.675 8.145 85.645 5.46H86.74C86.74 8.25 87.1 10.875 87.73 12.975H90.475C90.07 12.66 89.47 12.285 88.975 12.045L89.455 11.565C88.435 11.7 88.195 11.76 88.015 11.82C87.985 11.64 87.85 11.19 87.745 10.95C88.015 10.905 88.33 10.635 88.705 10.26C88.9 10.095 89.29 9.675 89.74 9.15C88.345 9.3 88.06 9.39 87.88 9.465C87.835 9.27 87.715 8.82 87.61 8.595C87.805 8.565 88 8.37 88.24 8.055C88.465 7.77 89.26 6.615 89.71 5.52L90.565 5.835C90.055 6.795 89.455 7.74 88.855 8.475L90.385 8.355C90.745 7.905 91.09 7.41 91.405 6.93L92.245 7.305C91.315 8.595 90.28 9.795 89.26 10.755L91.54 10.53C91.36 10.185 91.15 9.855 90.94 9.555L91.72 9.21C92.29 9.975 92.86 10.995 93.04 11.67L92.215 12.045C92.155 11.835 92.05 11.565 91.915 11.28C90.94 11.385 90.22 11.475 89.695 11.535C90.28 11.82 90.925 12.21 91.285 12.54L90.85 12.975H93.205V13.935H88.03C88.3 14.685 88.6 15.345 88.93 15.915C89.515 15.39 90.01 14.82 90.37 14.16ZM108.175 12.495V13.62H102.22V17.64C102.22 18.45 101.98 18.795 101.41 18.96C100.855 19.155 99.895 19.17 98.32 19.17C98.23 18.855 98.02 18.345 97.825 18.03C99.085 18.075 100.255 18.06 100.6 18.06C100.93 18.045 101.05 17.94 101.05 17.625V13.62H94.87V12.495H101.05V7.53C99.37 7.68 97.66 7.77 96.1 7.815C96.07 7.5 95.935 7.08 95.83 6.81C99.415 6.675 103.81 6.315 106.255 5.67L106.84 6.675C105.58 6.99 103.96 7.245 102.22 7.41V12.495H108.175ZM96.52 8.625L97.495 8.295C98.095 9.315 98.725 10.68 98.95 11.535L97.93 11.94C97.72 11.085 97.105 9.69 96.52 8.625ZM104.98 11.91L104.08 11.535C104.635 10.605 105.34 9.09 105.7 8.025L106.885 8.43C106.285 9.615 105.565 11.025 104.98 11.91ZM121.24 7.845H117.01C116.515 9.645 115.72 11.055 114.58 12.075C114.385 11.895 113.905 11.535 113.635 11.37C115.225 10.125 116.005 8.055 116.32 5.445L117.46 5.595C117.4 6.015 117.34 6.42 117.25 6.81H122.425C122.425 6.81 122.41 7.125 122.38 7.29C122.2 9.885 122.005 10.92 121.615 11.34C121.345 11.625 121.06 11.7 120.625 11.73C120.235 11.76 119.5 11.76 118.735 11.715C118.705 11.4 118.57 10.965 118.39 10.695C119.14 10.755 119.875 10.77 120.16 10.77C120.415 10.77 120.55 10.755 120.685 10.635C120.94 10.395 121.105 9.645 121.24 7.845ZM113.785 7.215L113.125 8.1C112.555 7.56 111.385 6.825 110.425 6.375L111.04 5.58C112 5.985 113.185 6.66 113.785 7.215ZM113.005 11.1L112.39 12.03C111.79 11.52 110.605 10.83 109.63 10.395L110.23 9.585C111.19 9.96 112.405 10.605 113.005 11.1ZM112.78 13.41L113.605 14.115C112.87 15.69 111.88 17.55 111.055 18.93L110.11 18.21C110.875 17.055 111.955 15.105 112.78 13.41ZM120.94 13.425H116.485C117.01 14.4 117.745 15.27 118.675 16.005C119.62 15.315 120.4 14.445 120.94 13.425ZM121.735 12.375L122.455 12.69C121.855 14.355 120.85 15.645 119.59 16.65C120.7 17.34 121.99 17.85 123.415 18.15C123.16 18.375 122.845 18.84 122.695 19.14C121.18 18.75 119.815 18.135 118.645 17.31C117.25 18.18 115.645 18.765 113.965 19.125C113.875 18.84 113.62 18.375 113.41 18.135C114.955 17.865 116.455 17.355 117.76 16.605C116.815 15.78 116.035 14.805 115.45 13.68L116.185 13.425H114.445V12.42H121.525L121.735 12.375ZM135.205 12.69V11.175H128.95V12.69H135.205ZM128.905 15.225H135.205V13.65H128.95V14.115C128.95 14.475 128.935 14.835 128.905 15.225ZM138.055 8.43H129.955C129.67 9.015 129.37 9.615 129.04 10.17H136.3V17.745C136.3 18.42 136.15 18.75 135.67 18.93C135.175 19.11 134.335 19.125 133.06 19.125C133.015 18.795 132.85 18.345 132.685 18.03C133.69 18.075 134.59 18.06 134.86 18.06C135.115 18.045 135.205 17.97 135.205 17.745V16.185H128.77C128.575 17.28 128.125 18.405 127.24 19.23C127.105 18.99 126.7 18.525 126.46 18.36C127.705 17.16 127.84 15.51 127.84 14.085V11.895C127.135 12.75 126.325 13.545 125.41 14.19C125.26 13.95 124.915 13.545 124.705 13.32C126.46 12.135 127.81 10.365 128.74 8.43H125.005V7.38L129.22 7.38C129.475 6.735 129.7 6.09 129.88 5.445L130.99 5.715C130.825 6.27 130.63 6.84 130.405 7.38H138.055V8.43ZM153.145 11.805L152.425 12.06C152.38 11.88 152.32 11.64 152.23 11.385C150.07 11.73 149.695 11.805 149.515 11.91C149.455 11.73 149.32 11.265 149.23 11.04C149.455 10.995 149.68 10.74 149.95 10.38C150.115 10.185 150.46 9.69 150.865 9.045C149.755 9.195 149.5 9.27 149.35 9.345C149.305 9.15 149.17 8.745 149.065 8.505C149.245 8.49 149.41 8.295 149.59 8.01C149.74 7.755 150.37 6.66 150.685 5.655L151.495 5.91C151.135 6.795 150.67 7.68 150.205 8.37L151.3 8.25C151.495 7.92 151.675 7.56 151.825 7.215L152.665 7.53C152.035 8.76 151.24 9.96 150.475 10.89L151.99 10.68C151.87 10.38 151.75 10.065 151.63 9.78L152.305 9.585C152.635 10.29 152.995 11.25 153.145 11.805ZM147.745 12.06L147.01 12.315C146.965 12.135 146.905 11.925 146.845 11.685C144.7 12.015 144.355 12.075 144.145 12.195C144.115 12.015 143.995 11.58 143.89 11.355C144.1 11.295 144.355 11.055 144.64 10.68C144.805 10.5 145.195 9.975 145.615 9.33C144.445 9.495 144.16 9.57 144.01 9.645C143.98 9.465 143.845 9.045 143.755 8.82C143.935 8.775 144.1 8.58 144.31 8.28C144.52 7.98 145.21 6.825 145.57 5.685L146.41 5.955C145.99 6.93 145.45 7.92 144.91 8.67L146.095 8.55C146.275 8.22 146.455 7.89 146.605 7.545L147.415 7.86C146.755 9.06 145.96 10.245 145.165 11.175L146.635 10.98C146.515 10.65 146.395 10.335 146.275 10.035L146.98 9.84C147.31 10.56 147.61 11.505 147.745 12.06ZM143.695 12.63L143.14 13.455C142.99 13.05 142.66 12.33 142.345 11.7V19.14H141.37V12.015C140.995 13.56 140.485 15.03 139.975 15.93C139.855 15.615 139.615 15.12 139.45 14.85C140.2 13.635 140.92 11.34 141.28 9.375H139.78V8.325H141.37V5.445H142.345V8.325H143.53V9.375H142.345V10.35C142.675 10.875 143.485 12.255 143.695 12.63ZM151.36 14.22L152.32 14.565C151.855 15.465 151.24 16.26 150.475 16.965C150.91 17.625 151.435 17.985 152.035 18.045C152.35 18.075 152.545 17.505 152.665 16.425C152.845 16.635 153.22 16.89 153.415 16.995C153.13 18.63 152.665 19.185 152.065 19.14C151.09 19.08 150.31 18.54 149.695 17.61C148.915 18.18 148.03 18.675 147.07 19.065C146.95 18.87 146.68 18.54 146.47 18.36C147.505 17.955 148.465 17.43 149.26 16.8C148.915 16.035 148.63 15.105 148.39 14.055H145.945V14.28C145.945 14.385 145.945 14.505 145.93 14.625C146.65 15.18 147.55 15.945 148 16.41L147.31 17.085C146.965 16.71 146.38 16.155 145.795 15.66C145.54 16.86 144.91 18.165 143.59 19.17C143.44 18.96 143.065 18.615 142.855 18.495C144.61 17.205 144.985 15.525 144.985 14.265V14.055H143.845V13.155H148.225C147.865 11.025 147.67 8.43 147.58 5.565H148.54C148.615 8.49 148.825 11.1 149.2 13.155H151.345C150.985 12.84 150.445 12.465 150.01 12.195L150.58 11.67C151.105 11.97 151.795 12.435 152.14 12.75L151.75 13.155H152.995V14.055H149.38C149.575 14.85 149.77 15.54 150.025 16.11C150.58 15.54 151.045 14.895 151.36 14.22ZM164.665 15H158.455V16.02H164.665V15ZM158.455 17.835H164.665V16.815H158.455V17.835ZM157.36 19.125V14.205H165.79V19.08H164.665V18.63H158.455V19.125H157.36ZM163.645 12.675L162.895 12.405C163.165 11.91 163.555 11.115 163.72 10.605L164.665 10.905C164.335 11.55 163.96 12.225 163.645 12.675ZM158.35 10.92L159.145 10.665C159.535 11.19 159.91 11.88 160.045 12.36L159.19 12.675C159.07 12.195 158.725 11.475 158.35 10.92ZM157.45 10.5V12.735H160.99V10.5H157.45ZM165.505 12.735V10.5H161.935V12.735H165.505ZM156.49 13.5V9.72H166.51V13.5H156.49ZM159.625 8.175H163.54C162.82 7.725 162.145 7.215 161.575 6.675C161.005 7.23 160.345 7.74 159.625 8.175ZM161.41 5.4L162.385 5.76C162.31 5.85 162.25 5.955 162.175 6.045C163.585 7.41 166.18 8.625 168.52 9.165C168.28 9.375 167.98 9.765 167.815 10.035C166.6 9.69 165.31 9.18 164.14 8.52V8.985H158.935V8.565C157.795 9.21 156.52 9.72 155.26 10.11C155.14 9.9 154.825 9.465 154.63 9.255C157.345 8.535 160 7.215 161.41 5.4Z" fill="black"/>
<path d="M83.914 45.252C83.218 45.252 82.594 45.168 82.042 45C81.49 44.844 80.998 44.628 80.566 44.352C80.146 44.064 79.78 43.746 79.468 43.398L80.71 41.724C81.118 42.096 81.562 42.42 82.042 42.696C82.534 42.96 83.08 43.092 83.68 43.092C84.136 43.092 84.532 43.02 84.868 42.876C85.216 42.732 85.48 42.522 85.66 42.246C85.852 41.97 85.948 41.634 85.948 41.238C85.948 40.794 85.84 40.416 85.624 40.104C85.42 39.78 85.054 39.534 84.526 39.366C83.998 39.198 83.254 39.114 82.294 39.114V37.206C83.11 37.206 83.752 37.122 84.22 36.954C84.688 36.774 85.018 36.534 85.21 36.234C85.414 35.922 85.516 35.568 85.516 35.172C85.516 34.656 85.36 34.254 85.048 33.966C84.736 33.666 84.298 33.516 83.734 33.516C83.266 33.516 82.828 33.624 82.42 33.84C82.024 34.044 81.628 34.326 81.232 34.686L79.864 33.048C80.452 32.556 81.07 32.166 81.718 31.878C82.366 31.578 83.08 31.428 83.86 31.428C84.712 31.428 85.462 31.566 86.11 31.842C86.77 32.118 87.28 32.52 87.64 33.048C88 33.576 88.18 34.218 88.18 34.974C88.18 35.694 87.988 36.312 87.604 36.828C87.22 37.344 86.674 37.74 85.966 38.016V38.106C86.458 38.238 86.902 38.454 87.298 38.754C87.706 39.042 88.024 39.408 88.252 39.852C88.492 40.296 88.612 40.812 88.612 41.4C88.612 42.204 88.396 42.894 87.964 43.47C87.544 44.046 86.974 44.49 86.254 44.802C85.546 45.102 84.766 45.252 83.914 45.252ZM90.3912 45V43.47C91.6032 42.39 92.6352 41.388 93.4872 40.464C94.3512 39.54 95.0112 38.682 95.4672 37.89C95.9232 37.086 96.1512 36.342 96.1512 35.658C96.1512 35.226 96.0732 34.848 95.9172 34.524C95.7612 34.2 95.5332 33.954 95.2332 33.786C94.9452 33.606 94.5852 33.516 94.1532 33.516C93.6732 33.516 93.2292 33.654 92.8212 33.93C92.4252 34.194 92.0592 34.512 91.7232 34.884L90.2472 33.462C90.8712 32.79 91.5072 32.286 92.1552 31.95C92.8152 31.602 93.5952 31.428 94.4952 31.428C95.3352 31.428 96.0672 31.602 96.6912 31.95C97.3272 32.286 97.8192 32.76 98.1672 33.372C98.5152 33.984 98.6892 34.704 98.6892 35.532C98.6892 36.336 98.4852 37.158 98.0772 37.998C97.6812 38.826 97.1472 39.654 96.4752 40.482C95.8032 41.31 95.0592 42.126 94.2432 42.93C94.5912 42.882 94.9632 42.846 95.3592 42.822C95.7672 42.786 96.1272 42.768 96.4392 42.768H99.3192V45H90.3912ZM103.168 45.252C102.688 45.252 102.292 45.084 101.98 44.748C101.668 44.412 101.512 44.004 101.512 43.524C101.512 43.02 101.668 42.606 101.98 42.282C102.292 41.958 102.688 41.796 103.168 41.796C103.636 41.796 104.026 41.958 104.338 42.282C104.65 42.606 104.806 43.02 104.806 43.524C104.806 44.004 104.65 44.412 104.338 44.748C104.026 45.084 103.636 45.252 103.168 45.252ZM112.154 45V36.81C112.154 36.426 112.166 35.97 112.19 35.442C112.214 34.902 112.238 34.434 112.262 34.038H112.172C112.016 34.398 111.848 34.758 111.668 35.118C111.488 35.478 111.302 35.844 111.11 36.216L109.04 39.528H116.204V41.544H106.466V39.744L111.434 31.662H114.62V45H112.154ZM121.691 45.252C120.983 45.252 120.353 45.168 119.801 45C119.249 44.832 118.757 44.61 118.325 44.334C117.893 44.058 117.509 43.758 117.173 43.434L118.397 41.742C118.649 41.994 118.919 42.222 119.207 42.426C119.507 42.63 119.831 42.792 120.179 42.912C120.539 43.032 120.923 43.092 121.331 43.092C121.787 43.092 122.189 42.996 122.537 42.804C122.897 42.612 123.179 42.336 123.383 41.976C123.587 41.604 123.689 41.16 123.689 40.644C123.689 39.876 123.479 39.282 123.059 38.862C122.651 38.442 122.111 38.232 121.439 38.232C121.055 38.232 120.725 38.286 120.449 38.394C120.173 38.49 119.837 38.664 119.441 38.916L118.235 38.142L118.595 31.662H125.723V33.894H120.881L120.629 36.72C120.893 36.6 121.151 36.51 121.403 36.45C121.655 36.39 121.931 36.36 122.231 36.36C122.975 36.36 123.659 36.51 124.283 36.81C124.907 37.098 125.405 37.554 125.777 38.178C126.149 38.802 126.335 39.6 126.335 40.572C126.335 41.556 126.113 42.402 125.669 43.11C125.237 43.806 124.667 44.34 123.959 44.712C123.263 45.072 122.507 45.252 121.691 45.252ZM131.138 39.87C130.514 39.87 129.956 39.702 129.464 39.366C128.972 39.03 128.588 38.544 128.312 37.908C128.036 37.272 127.898 36.51 127.898 35.622C127.898 34.734 128.036 33.978 128.312 33.354C128.588 32.73 128.972 32.256 129.464 31.932C129.956 31.596 130.514 31.428 131.138 31.428C131.786 31.428 132.35 31.596 132.83 31.932C133.322 32.256 133.706 32.73 133.982 33.354C134.258 33.978 134.396 34.734 134.396 35.622C134.396 36.51 134.258 37.272 133.982 37.908C133.706 38.544 133.322 39.03 132.83 39.366C132.35 39.702 131.786 39.87 131.138 39.87ZM131.138 38.376C131.522 38.376 131.846 38.166 132.11 37.746C132.386 37.314 132.524 36.606 132.524 35.622C132.524 34.65 132.386 33.96 132.11 33.552C131.846 33.132 131.522 32.922 131.138 32.922C130.754 32.922 130.424 33.132 130.148 33.552C129.884 33.96 129.752 34.65 129.752 35.622C129.752 36.606 129.884 37.314 130.148 37.746C130.424 38.166 130.754 38.376 131.138 38.376ZM131.57 45.252L138.824 31.428H140.39L133.154 45.252H131.57ZM140.84 45.252C140.204 45.252 139.64 45.084 139.148 44.748C138.668 44.412 138.284 43.926 137.996 43.29C137.72 42.654 137.582 41.892 137.582 41.004C137.582 40.104 137.72 39.342 137.996 38.718C138.284 38.094 138.668 37.62 139.148 37.296C139.64 36.96 140.204 36.792 140.84 36.792C141.464 36.792 142.016 36.96 142.496 37.296C142.988 37.62 143.372 38.094 143.648 38.718C143.936 39.342 144.08 40.104 144.08 41.004C144.08 41.892 143.936 42.654 143.648 43.29C143.372 43.926 142.988 44.412 142.496 44.748C142.016 45.084 141.464 45.252 140.84 45.252ZM140.84 43.74C141.224 43.74 141.548 43.53 141.812 43.11C142.076 42.678 142.208 41.976 142.208 41.004C142.208 40.008 142.076 39.312 141.812 38.916C141.548 38.508 141.224 38.304 140.84 38.304C140.444 38.304 140.114 38.508 139.85 38.916C139.586 39.312 139.454 40.008 139.454 41.004C139.454 41.976 139.586 42.678 139.85 43.11C140.114 43.53 140.444 43.74 140.84 43.74Z" fill="#0095CC"/>
<path d="M313.825 5.505L314.89 5.895C314.02 7.2 312.595 8.595 311.29 9.465C311.155 9.225 310.885 8.775 310.69 8.565C311.86 7.8 313.18 6.57 313.825 5.505ZM314.095 8.775L315.085 9.18C314.74 9.81 314.305 10.44 313.84 11.055V19.155H312.76V12.33C312.22 12.945 311.65 13.485 311.08 13.935C310.975 13.695 310.675 13.11 310.48 12.855C311.815 11.865 313.24 10.32 314.095 8.775ZM317.095 9.825V11.685H321.94V9.825H317.095ZM321.94 7.095H317.095V8.895H321.94V7.095ZM323.065 13.14L323.815 13.92C323.02 14.565 321.97 15.255 321.13 15.765C321.97 16.815 323.05 17.61 324.4 18.09C324.145 18.315 323.815 18.75 323.65 19.05C321.01 17.985 319.435 15.705 318.565 12.66H317.095V17.595L319.735 16.95C319.735 17.28 319.75 17.73 319.795 17.97C316.705 18.81 316.255 18.96 315.97 19.155C315.88 18.9 315.64 18.45 315.46 18.24C315.685 18.12 316.015 17.805 316.015 17.19V6.105H323.02V12.66H319.54C319.81 13.515 320.17 14.295 320.605 15C321.415 14.475 322.45 13.725 323.065 13.14ZM328.45 7.83L329.5 8.115C328.78 9.9 327.745 11.805 326.83 13.05C326.605 12.9 326.125 12.645 325.855 12.51C326.845 11.325 327.805 9.495 328.45 7.83ZM335.515 8.25L336.43 7.815C337.45 9.27 338.65 11.175 339.22 12.375L338.29 12.945C337.705 11.7 336.52 9.72 335.515 8.25ZM336.4 13.17L337.405 13.65C335.38 16.845 331.36 18.465 326.095 19.14C325.99 18.81 325.765 18.36 325.555 18.075C330.64 17.52 334.525 16.095 336.4 13.17ZM331.735 5.475H332.83V14.64H331.735V5.475ZM351.205 12.69V11.175H344.95V12.69H351.205ZM344.905 15.225H351.205V13.65H344.95V14.115C344.95 14.475 344.935 14.835 344.905 15.225ZM354.055 8.43H345.955C345.67 9.015 345.37 9.615 345.04 10.17H352.3V17.745C352.3 18.42 352.15 18.75 351.67 18.93C351.175 19.11 350.335 19.125 349.06 19.125C349.015 18.795 348.85 18.345 348.685 18.03C349.69 18.075 350.59 18.06 350.86 18.06C351.115 18.045 351.205 17.97 351.205 17.745V16.185H344.77C344.575 17.28 344.125 18.405 343.24 19.23C343.105 18.99 342.7 18.525 342.46 18.36C343.705 17.16 343.84 15.51 343.84 14.085V11.895C343.135 12.75 342.325 13.545 341.41 14.19C341.26 13.95 340.915 13.545 340.705 13.32C342.46 12.135 343.81 10.365 344.74 8.43L341.005 8.43V7.38H345.22C345.475 6.735 345.7 6.09 345.88 5.445L346.99 5.715C346.825 6.27 346.63 6.84 346.405 7.38H354.055V8.43ZM369.145 11.805L368.425 12.06C368.38 11.88 368.32 11.64 368.23 11.385C366.07 11.73 365.695 11.805 365.515 11.91C365.455 11.73 365.32 11.265 365.23 11.04C365.455 10.995 365.68 10.74 365.95 10.38C366.115 10.185 366.46 9.69 366.865 9.045C365.755 9.195 365.5 9.27 365.35 9.345C365.305 9.15 365.17 8.745 365.065 8.505C365.245 8.49 365.41 8.295 365.59 8.01C365.74 7.755 366.37 6.66 366.685 5.655L367.495 5.91C367.135 6.795 366.67 7.68 366.205 8.37L367.3 8.25C367.495 7.92 367.675 7.56 367.825 7.215L368.665 7.53C368.035 8.76 367.24 9.96 366.475 10.89L367.99 10.68C367.87 10.38 367.75 10.065 367.63 9.78L368.305 9.585C368.635 10.29 368.995 11.25 369.145 11.805ZM363.745 12.06L363.01 12.315C362.965 12.135 362.905 11.925 362.845 11.685C360.7 12.015 360.355 12.075 360.145 12.195C360.115 12.015 359.995 11.58 359.89 11.355C360.1 11.295 360.355 11.055 360.64 10.68C360.805 10.5 361.195 9.975 361.615 9.33C360.445 9.495 360.16 9.57 360.01 9.645C359.98 9.465 359.845 9.045 359.755 8.82C359.935 8.775 360.1 8.58 360.31 8.28C360.52 7.98 361.21 6.825 361.57 5.685L362.41 5.955C361.99 6.93 361.45 7.92 360.91 8.67L362.095 8.55C362.275 8.22 362.455 7.89 362.605 7.545L363.415 7.86C362.755 9.06 361.96 10.245 361.165 11.175L362.635 10.98C362.515 10.65 362.395 10.335 362.275 10.035L362.98 9.84C363.31 10.56 363.61 11.505 363.745 12.06ZM359.695 12.63L359.14 13.455C358.99 13.05 358.66 12.33 358.345 11.7V19.14H357.37V12.015C356.995 13.56 356.485 15.03 355.975 15.93C355.855 15.615 355.615 15.12 355.45 14.85C356.2 13.635 356.92 11.34 357.28 9.375H355.78V8.325H357.37V5.445L358.345 5.445V8.325H359.53V9.375H358.345V10.35C358.675 10.875 359.485 12.255 359.695 12.63ZM367.36 14.22L368.32 14.565C367.855 15.465 367.24 16.26 366.475 16.965C366.91 17.625 367.435 17.985 368.035 18.045C368.35 18.075 368.545 17.505 368.665 16.425C368.845 16.635 369.22 16.89 369.415 16.995C369.13 18.63 368.665 19.185 368.065 19.14C367.09 19.08 366.31 18.54 365.695 17.61C364.915 18.18 364.03 18.675 363.07 19.065C362.95 18.87 362.68 18.54 362.47 18.36C363.505 17.955 364.465 17.43 365.26 16.8C364.915 16.035 364.63 15.105 364.39 14.055H361.945V14.28C361.945 14.385 361.945 14.505 361.93 14.625C362.65 15.18 363.55 15.945 364 16.41L363.31 17.085C362.965 16.71 362.38 16.155 361.795 15.66C361.54 16.86 360.91 18.165 359.59 19.17C359.44 18.96 359.065 18.615 358.855 18.495C360.61 17.205 360.985 15.525 360.985 14.265V14.055H359.845V13.155H364.225C363.865 11.025 363.67 8.43 363.58 5.565H364.54C364.615 8.49 364.825 11.1 365.2 13.155H367.345C366.985 12.84 366.445 12.465 366.01 12.195L366.58 11.67C367.105 11.97 367.795 12.435 368.14 12.75L367.75 13.155H368.995V14.055H365.38C365.575 14.85 365.77 15.54 366.025 16.11C366.58 15.54 367.045 14.895 367.36 14.22ZM380.665 15H374.455V16.02H380.665V15ZM374.455 17.835H380.665V16.815H374.455V17.835ZM373.36 19.125V14.205H381.79V19.08H380.665V18.63H374.455V19.125L373.36 19.125ZM379.645 12.675L378.895 12.405C379.165 11.91 379.555 11.115 379.72 10.605L380.665 10.905C380.335 11.55 379.96 12.225 379.645 12.675ZM374.35 10.92L375.145 10.665C375.535 11.19 375.91 11.88 376.045 12.36L375.19 12.675C375.07 12.195 374.725 11.475 374.35 10.92ZM373.45 10.5V12.735H376.99V10.5H373.45ZM381.505 12.735V10.5H377.935V12.735H381.505ZM372.49 13.5V9.72H382.51V13.5H372.49ZM375.625 8.175H379.54C378.82 7.725 378.145 7.215 377.575 6.675C377.005 7.23 376.345 7.74 375.625 8.175ZM377.41 5.4L378.385 5.76C378.31 5.85 378.25 5.955 378.175 6.045C379.585 7.41 382.18 8.625 384.52 9.165C384.28 9.375 383.98 9.765 383.815 10.035C382.6 9.69 381.31 9.18 380.14 8.52V8.985H374.935V8.565C373.795 9.21 372.52 9.72 371.26 10.11C371.14 9.9 370.825 9.465 370.63 9.255C373.345 8.535 376 7.215 377.41 5.4Z" fill="black"/>
<path d="M314.914 45.252C314.218 45.252 313.594 45.168 313.042 45C312.49 44.844 311.998 44.628 311.566 44.352C311.146 44.064 310.78 43.746 310.468 43.398L311.71 41.724C312.118 42.096 312.562 42.42 313.042 42.696C313.534 42.96 314.08 43.092 314.68 43.092C315.136 43.092 315.532 43.02 315.868 42.876C316.216 42.732 316.48 42.522 316.66 42.246C316.852 41.97 316.948 41.634 316.948 41.238C316.948 40.794 316.84 40.416 316.624 40.104C316.42 39.78 316.054 39.534 315.526 39.366C314.998 39.198 314.254 39.114 313.294 39.114V37.206C314.11 37.206 314.752 37.122 315.22 36.954C315.688 36.774 316.018 36.534 316.21 36.234C316.414 35.922 316.516 35.568 316.516 35.172C316.516 34.656 316.36 34.254 316.048 33.966C315.736 33.666 315.298 33.516 314.734 33.516C314.266 33.516 313.828 33.624 313.42 33.84C313.024 34.044 312.628 34.326 312.232 34.686L310.864 33.048C311.452 32.556 312.07 32.166 312.718 31.878C313.366 31.578 314.08 31.428 314.86 31.428C315.712 31.428 316.462 31.566 317.11 31.842C317.77 32.118 318.28 32.52 318.64 33.048C319 33.576 319.18 34.218 319.18 34.974C319.18 35.694 318.988 36.312 318.604 36.828C318.22 37.344 317.674 37.74 316.966 38.016V38.106C317.458 38.238 317.902 38.454 318.298 38.754C318.706 39.042 319.024 39.408 319.252 39.852C319.492 40.296 319.612 40.812 319.612 41.4C319.612 42.204 319.396 42.894 318.964 43.47C318.544 44.046 317.974 44.49 317.254 44.802C316.546 45.102 315.766 45.252 314.914 45.252ZM325.927 45.252C325.027 45.252 324.235 44.994 323.551 44.478C322.879 43.95 322.351 43.17 321.967 42.138C321.595 41.094 321.409 39.804 321.409 38.268C321.409 36.744 321.595 35.478 321.967 34.47C322.351 33.45 322.879 32.688 323.551 32.184C324.235 31.68 325.027 31.428 325.927 31.428C326.839 31.428 327.631 31.686 328.303 32.202C328.975 32.706 329.497 33.462 329.869 34.47C330.253 35.478 330.445 36.744 330.445 38.268C330.445 39.804 330.253 41.094 329.869 42.138C329.497 43.17 328.975 43.95 328.303 44.478C327.631 44.994 326.839 45.252 325.927 45.252ZM325.927 43.182C326.323 43.182 326.671 43.032 326.971 42.732C327.271 42.432 327.505 41.928 327.673 41.22C327.841 40.5 327.925 39.516 327.925 38.268C327.925 37.032 327.841 36.066 327.673 35.37C327.505 34.662 327.271 34.17 326.971 33.894C326.671 33.606 326.323 33.462 325.927 33.462C325.555 33.462 325.213 33.606 324.901 33.894C324.601 34.17 324.361 34.662 324.181 35.37C324.001 36.066 323.911 37.032 323.911 38.268C323.911 39.516 324.001 40.5 324.181 41.22C324.361 41.928 324.601 42.432 324.901 42.732C325.213 43.032 325.555 43.182 325.927 43.182ZM334.168 45.252C333.688 45.252 333.292 45.084 332.98 44.748C332.668 44.412 332.512 44.004 332.512 43.524C332.512 43.02 332.668 42.606 332.98 42.282C333.292 41.958 333.688 41.796 334.168 41.796C334.636 41.796 335.026 41.958 335.338 42.282C335.65 42.606 335.806 43.02 335.806 43.524C335.806 44.004 335.65 44.412 335.338 44.748C335.026 45.084 334.636 45.252 334.168 45.252ZM342.074 45.252C341.366 45.252 340.736 45.168 340.184 45C339.632 44.832 339.14 44.61 338.708 44.334C338.276 44.058 337.892 43.758 337.556 43.434L338.78 41.742C339.032 41.994 339.302 42.222 339.59 42.426C339.89 42.63 340.214 42.792 340.562 42.912C340.922 43.032 341.306 43.092 341.714 43.092C342.17 43.092 342.572 42.996 342.92 42.804C343.28 42.612 343.562 42.336 343.766 41.976C343.97 41.604 344.072 41.16 344.072 40.644C344.072 39.876 343.862 39.282 343.442 38.862C343.034 38.442 342.494 38.232 341.822 38.232C341.438 38.232 341.108 38.286 340.832 38.394C340.556 38.49 340.22 38.664 339.824 38.916L338.618 38.142L338.978 31.662H346.106V33.894H341.264L341.012 36.72C341.276 36.6 341.534 36.51 341.786 36.45C342.038 36.39 342.314 36.36 342.614 36.36C343.358 36.36 344.042 36.51 344.666 36.81C345.29 37.098 345.788 37.554 346.16 38.178C346.532 38.802 346.718 39.6 346.718 40.572C346.718 41.556 346.496 42.402 346.052 43.11C345.62 43.806 345.05 44.34 344.342 44.712C343.646 45.072 342.89 45.252 342.074 45.252ZM348.479 45V43.47C349.691 42.39 350.723 41.388 351.575 40.464C352.439 39.54 353.099 38.682 353.555 37.89C354.011 37.086 354.239 36.342 354.239 35.658C354.239 35.226 354.161 34.848 354.005 34.524C353.849 34.2 353.621 33.954 353.321 33.786C353.033 33.606 352.673 33.516 352.241 33.516C351.761 33.516 351.317 33.654 350.909 33.93C350.513 34.194 350.147 34.512 349.811 34.884L348.335 33.462C348.959 32.79 349.595 32.286 350.243 31.95C350.903 31.602 351.683 31.428 352.583 31.428C353.423 31.428 354.155 31.602 354.779 31.95C355.415 32.286 355.907 32.76 356.255 33.372C356.603 33.984 356.777 34.704 356.777 35.532C356.777 36.336 356.573 37.158 356.165 37.998C355.769 38.826 355.235 39.654 354.563 40.482C353.891 41.31 353.147 42.126 352.331 42.93C352.679 42.882 353.051 42.846 353.447 42.822C353.855 42.786 354.215 42.768 354.527 42.768H357.407V45H348.479ZM362.138 39.87C361.514 39.87 360.956 39.702 360.464 39.366C359.972 39.03 359.588 38.544 359.312 37.908C359.036 37.272 358.898 36.51 358.898 35.622C358.898 34.734 359.036 33.978 359.312 33.354C359.588 32.73 359.972 32.256 360.464 31.932C360.956 31.596 361.514 31.428 362.138 31.428C362.786 31.428 363.35 31.596 363.83 31.932C364.322 32.256 364.706 32.73 364.982 33.354C365.258 33.978 365.396 34.734 365.396 35.622C365.396 36.51 365.258 37.272 364.982 37.908C364.706 38.544 364.322 39.03 363.83 39.366C363.35 39.702 362.786 39.87 362.138 39.87ZM362.138 38.376C362.522 38.376 362.846 38.166 363.11 37.746C363.386 37.314 363.524 36.606 363.524 35.622C363.524 34.65 363.386 33.96 363.11 33.552C362.846 33.132 362.522 32.922 362.138 32.922C361.754 32.922 361.424 33.132 361.148 33.552C360.884 33.96 360.752 34.65 360.752 35.622C360.752 36.606 360.884 37.314 361.148 37.746C361.424 38.166 361.754 38.376 362.138 38.376ZM362.57 45.252L369.824 31.428H371.39L364.154 45.252H362.57ZM371.84 45.252C371.204 45.252 370.64 45.084 370.148 44.748C369.668 44.412 369.284 43.926 368.996 43.29C368.72 42.654 368.582 41.892 368.582 41.004C368.582 40.104 368.72 39.342 368.996 38.718C369.284 38.094 369.668 37.62 370.148 37.296C370.64 36.96 371.204 36.792 371.84 36.792C372.464 36.792 373.016 36.96 373.496 37.296C373.988 37.62 374.372 38.094 374.648 38.718C374.936 39.342 375.08 40.104 375.08 41.004C375.08 41.892 374.936 42.654 374.648 43.29C374.372 43.926 373.988 44.412 373.496 44.748C373.016 45.084 372.464 45.252 371.84 45.252ZM371.84 43.74C372.224 43.74 372.548 43.53 372.812 43.11C373.076 42.678 373.208 41.976 373.208 41.004C373.208 40.008 373.076 39.312 372.812 38.916C372.548 38.508 372.224 38.304 371.84 38.304C371.444 38.304 371.114 38.508 370.85 38.916C370.586 39.312 370.454 40.008 370.454 41.004C370.454 41.976 370.586 42.678 370.85 43.11C371.114 43.53 371.444 43.74 371.84 43.74Z" fill="#0095CC"/>
<path d="M12.24 163.845H8.01C7.515 165.645 6.72 167.055 5.58 168.075C5.385 167.895 4.905 167.535 4.635 167.37C6.225 166.125 7.005 164.055 7.32 161.445L8.46 161.595C8.4 162.015 8.34 162.42 8.25 162.81H13.425C13.425 162.81 13.41 163.125 13.38 163.29C13.2 165.885 13.005 166.92 12.615 167.34C12.345 167.625 12.06 167.7 11.625 167.73C11.235 167.76 10.5 167.76 9.735 167.715C9.705 167.4 9.57 166.965 9.39 166.695C10.14 166.755 10.875 166.77 11.16 166.77C11.415 166.77 11.55 166.755 11.685 166.635C11.94 166.395 12.105 165.645 12.24 163.845ZM4.785 163.215L4.125 164.1C3.555 163.56 2.385 162.825 1.425 162.375L2.04 161.58C3 161.985 4.185 162.66 4.785 163.215ZM4.005 167.1L3.39 168.03C2.79 167.52 1.605 166.83 0.63 166.395L1.23 165.585C2.19 165.96 3.405 166.605 4.005 167.1ZM3.78 169.41L4.605 170.115C3.87 171.69 2.88 173.55 2.055 174.93L1.11 174.21C1.875 173.055 2.955 171.105 3.78 169.41ZM11.94 169.425H7.485C8.01 170.4 8.745 171.27 9.675 172.005C10.62 171.315 11.4 170.445 11.94 169.425ZM12.735 168.375L13.455 168.69C12.855 170.355 11.85 171.645 10.59 172.65C11.7 173.34 12.99 173.85 14.415 174.15C14.16 174.375 13.845 174.84 13.695 175.14C12.18 174.75 10.815 174.135 9.645 173.31C8.25 174.18 6.645 174.765 4.965 175.125C4.875 174.84 4.62 174.375 4.41 174.135C5.955 173.865 7.455 173.355 8.76 172.605C7.815 171.78 7.035 170.805 6.45 169.68L7.185 169.425H5.445V168.42H12.525L12.735 168.375ZM26.205 168.69V167.175H19.95V168.69H26.205ZM19.905 171.225H26.205V169.65H19.95V170.115C19.95 170.475 19.935 170.835 19.905 171.225ZM29.055 164.43H20.955C20.67 165.015 20.37 165.615 20.04 166.17H27.3V173.745C27.3 174.42 27.15 174.75 26.67 174.93C26.175 175.11 25.335 175.125 24.06 175.125C24.015 174.795 23.85 174.345 23.685 174.03C24.69 174.075 25.59 174.06 25.86 174.06C26.115 174.045 26.205 173.97 26.205 173.745V172.185H19.77C19.575 173.28 19.125 174.405 18.24 175.23C18.105 174.99 17.7 174.525 17.46 174.36C18.705 173.16 18.84 171.51 18.84 170.085V167.895C18.135 168.75 17.325 169.545 16.41 170.19C16.26 169.95 15.915 169.545 15.705 169.32C17.46 168.135 18.81 166.365 19.74 164.43H16.005V163.38H20.22C20.475 162.735 20.7 162.09 20.88 161.445L21.99 161.715C21.825 162.27 21.63 162.84 21.405 163.38H29.055V164.43ZM42.435 164.55V163.155H38.715V164.55H42.435ZM42.435 166.815V165.42H38.715V166.815H42.435ZM42.435 169.11V167.685H38.715V169.11H42.435ZM43.5 162.24V170.025H37.68V162.24H43.5ZM36.225 170.475L37.005 169.905C37.695 170.535 38.625 171.465 39.075 172.02L38.265 172.68C37.83 172.11 36.915 171.15 36.225 170.475ZM31.725 174.36L30.75 173.865C31.35 173.07 31.86 171.795 32.16 170.82L33.135 171.195C32.805 172.2 32.325 173.535 31.725 174.36ZM34.665 170.175H33.6V166.23C32.94 167.46 32.1 168.6 31.26 169.29C31.08 169.035 30.765 168.69 30.54 168.51C31.635 167.73 32.745 166.185 33.405 164.655H30.87V163.68H33.6V161.49H34.665V163.68H37.035V164.655H34.665V165.495C35.235 165.855 36.765 166.995 37.155 167.295L36.555 168.195C36.165 167.82 35.325 167.085 34.665 166.53V170.175ZM36.39 173.82H39.345C40.065 173.82 40.185 173.61 40.245 172.08C40.5 172.275 40.95 172.44 41.265 172.5C41.115 174.375 40.77 174.825 39.42 174.825H36.315C34.695 174.825 34.275 174.525 34.275 173.37V170.985H35.37V173.355C35.37 173.745 35.52 173.82 36.39 173.82ZM41.475 170.955L42.435 170.52C43.05 171.465 43.86 172.755 44.235 173.52L43.2 174.03C42.855 173.25 42.075 171.945 41.475 170.955ZM47.31 163.065V165.675H50.19V163.065H47.31ZM51.345 171.975L51.465 172.95C49.47 173.475 47.385 174.06 45.84 174.465L45.57 173.43L46.35 173.25V168.075H47.28V173.025L48.45 172.725V166.65H46.335V162.09H51.21V166.65H49.455V168.72H51.27V169.71H49.455V172.455C50.07 172.305 50.7 172.14 51.345 171.975ZM52.995 165.825V167.685H57.39V165.825H52.995ZM57.39 163.11H52.995V164.895H57.39V163.11ZM58.545 169.14L59.25 169.92C58.5 170.535 57.495 171.21 56.67 171.69C57.39 172.755 58.32 173.595 59.475 174.09C59.22 174.3 58.89 174.735 58.74 175.035C56.49 173.925 55.155 171.63 54.435 168.675H52.995V173.595L55.65 172.95C55.65 173.28 55.665 173.73 55.71 173.97C52.635 174.81 52.17 174.96 51.885 175.155C51.795 174.915 51.555 174.465 51.375 174.24C51.615 174.12 51.93 173.805 51.93 173.19V162.12H58.41V168.675H55.365C55.575 169.47 55.86 170.22 56.22 170.895C57.015 170.385 57.945 169.695 58.545 169.14ZM62.505 163.14V166.02H66.315V163.14H62.505ZM64.05 168.615H67.47C67.47 168.615 67.455 168.96 67.455 169.095C67.275 172.83 67.125 174.195 66.72 174.66C66.465 174.96 66.21 175.05 65.76 175.08C65.385 175.125 64.65 175.11 63.93 175.08C63.9 174.78 63.795 174.36 63.615 174.105C64.35 174.18 65.055 174.18 65.325 174.18C65.58 174.18 65.7 174.15 65.835 174.015C66.105 173.715 66.255 172.575 66.39 169.62H63.93C63.6 171.795 62.895 173.865 61.32 175.17C61.17 174.93 60.825 174.57 60.555 174.405C62.595 172.785 62.955 169.725 63.105 167.01H61.47V162.135H67.365V167.01H64.185C64.155 167.535 64.11 168.075 64.05 168.615ZM69.975 163.245V171.495H68.895V163.245H69.975ZM72.54 161.745H73.65V173.67C73.65 174.42 73.44 174.765 72.975 174.96C72.48 175.14 71.64 175.155 70.275 175.155C70.215 174.855 70.05 174.345 69.87 174.03C70.92 174.075 71.865 174.06 72.15 174.045C72.42 174.045 72.54 173.955 72.54 173.67V161.745ZM81.87 161.505H83.1C83.085 162.045 83.07 162.795 82.995 163.68C83.22 165.465 84.12 171.735 89.415 174.09C89.1 174.345 88.77 174.72 88.605 175.035C84.855 173.28 83.25 169.575 82.53 166.785C81.84 169.785 80.25 173.145 76.59 175.095C76.395 174.795 76.035 174.45 75.69 174.225C81.915 171.075 81.825 163.785 81.87 161.505ZM103.92 163.515V164.61H91.05V163.515H97.275C97.065 162.99 96.645 162.255 96.285 161.67L97.32 161.31C97.74 161.91 98.22 162.735 98.43 163.245L97.755 163.515H103.92ZM99.27 165.69L100.125 165.045C101.49 165.975 103.17 167.325 103.98 168.285L103.065 169.005C102.315 168.06 100.65 166.635 99.27 165.69ZM94.8 165.075L95.865 165.495C94.86 166.77 93.285 168.105 91.965 168.96C91.77 168.735 91.35 168.315 91.11 168.12C92.43 167.37 93.9 166.215 94.8 165.075ZM99.75 167.595L100.89 167.91C100.275 169.44 99.435 170.7 98.385 171.705C99.93 172.875 101.91 173.67 104.31 174.045C104.07 174.285 103.77 174.735 103.62 175.05C101.145 174.57 99.135 173.715 97.545 172.425C95.895 173.73 93.84 174.57 91.425 175.185C91.305 174.915 90.975 174.42 90.75 174.18C93.15 173.685 95.175 172.89 96.735 171.69C95.7 170.685 94.905 169.44 94.305 167.985L95.295 167.685C95.805 168.96 96.57 170.085 97.545 171C98.505 170.085 99.255 168.96 99.75 167.595ZM115.53 163.815L114.45 164.235C114.255 163.59 113.715 162.525 113.22 161.745L114.225 161.385C114.735 162.15 115.305 163.17 115.53 163.815ZM108.765 161.49L109.83 161.88C108.975 163.185 107.595 164.58 106.32 165.465C106.185 165.21 105.9 164.775 105.735 164.565C106.875 163.8 108.135 162.54 108.765 161.49ZM109.08 164.805L110.055 165.18C109.71 165.81 109.275 166.455 108.825 167.055V175.155H107.715V168.405C107.205 168.99 106.65 169.5 106.125 169.95C106.02 169.695 105.72 169.125 105.525 168.855C106.845 167.865 108.225 166.35 109.08 164.805ZM115.185 173.625H119.31V174.69H109.83V173.625H114.03V169.77H110.775V168.705H114.03V165.36H110.25V164.295H118.935V165.36H115.185V168.705H118.455V169.77H115.185V173.625ZM127.32 162.855V166.575H128.775V164.07H131.445V162.855H127.32ZM129.645 166.575H131.445V164.85H129.645V166.575ZM126.18 167.46V173.055H125.19V166.575H126.33V161.985H132.465V166.575H133.65V171.945C133.65 172.47 133.56 172.725 133.17 172.89C132.825 173.055 132.24 173.055 131.355 173.055C131.31 172.785 131.175 172.41 131.055 172.155C131.67 172.17 132.24 172.17 132.39 172.17C132.57 172.155 132.63 172.095 132.63 171.945V167.46H126.18ZM130.47 170.805V169.215H128.31V170.805H130.47ZM131.34 168.435V171.585H128.31V172.185H127.455V168.435H131.34ZM123.93 163.77L123.045 164.355C122.685 163.725 121.905 162.675 121.29 161.925L122.145 161.46C122.79 162.195 123.54 163.155 123.93 163.77ZM123.915 168.57L124.41 168.78C124.215 170.01 123.93 171.105 123.555 172.02C124.515 173.7 126.42 173.94 129.255 173.94C130.83 173.94 133.005 173.88 134.52 173.745C134.355 173.985 134.205 174.48 134.16 174.78C132.75 174.87 130.875 174.9 129.24 174.9C126.195 174.9 124.305 174.6 123.135 172.905C122.625 173.88 121.965 174.63 121.245 175.17C121.11 174.945 120.735 174.555 120.51 174.405C121.86 173.475 122.835 171.825 123.3 169.515H121.845C121.47 169.515 121.08 169.605 120.975 169.725C120.9 169.455 120.675 168.945 120.555 168.705C120.78 168.645 121.02 168.555 121.26 168.285C121.605 167.925 122.475 166.74 123.105 165.825H120.75V164.91H123.78L123.96 164.835L124.695 165.165C124.08 166.05 122.985 167.595 122.16 168.6H123.72L123.915 168.57Z" fill="black"/>
<path d="M4.986 201.252C4.278 201.252 3.648 201.168 3.096 201C2.544 200.832 2.052 200.61 1.62 200.334C1.188 200.058 0.804 199.758 0.468 199.434L1.692 197.742C1.944 197.994 2.214 198.222 2.502 198.426C2.802 198.63 3.126 198.792 3.474 198.912C3.834 199.032 4.218 199.092 4.626 199.092C5.082 199.092 5.484 198.996 5.832 198.804C6.192 198.612 6.474 198.336 6.678 197.976C6.882 197.604 6.984 197.16 6.984 196.644C6.984 195.876 6.774 195.282 6.354 194.862C5.946 194.442 5.406 194.232 4.734 194.232C4.35 194.232 4.02 194.286 3.744 194.394C3.468 194.49 3.132 194.664 2.736 194.916L1.53 194.142L1.89 187.662H9.018V189.894H4.176L3.924 192.72C4.188 192.6 4.446 192.51 4.698 192.45C4.95 192.39 5.226 192.36 5.526 192.36C6.27 192.36 6.954 192.51 7.578 192.81C8.202 193.098 8.7 193.554 9.072 194.178C9.444 194.802 9.63 195.6 9.63 196.572C9.63 197.556 9.408 198.402 8.964 199.11C8.532 199.806 7.962 200.34 7.254 200.712C6.558 201.072 5.802 201.252 4.986 201.252ZM13.5512 201.252C13.0712 201.252 12.6752 201.084 12.3632 200.748C12.0512 200.412 11.8952 200.004 11.8952 199.524C11.8952 199.02 12.0512 198.606 12.3632 198.282C12.6752 197.958 13.0712 197.796 13.5512 197.796C14.0192 197.796 14.4092 197.958 14.7212 198.282C15.0332 198.606 15.1892 199.02 15.1892 199.524C15.1892 200.004 15.0332 200.412 14.7212 200.748C14.4092 201.084 14.0192 201.252 13.5512 201.252ZM21.0607 201.252C20.2327 201.252 19.5127 201.102 18.9007 200.802C18.3007 200.502 17.8027 200.148 17.4067 199.74L18.8107 198.138C19.0507 198.414 19.3627 198.642 19.7467 198.822C20.1307 199.002 20.5207 199.092 20.9167 199.092C21.3007 199.092 21.6667 199.008 22.0147 198.84C22.3627 198.66 22.6627 198.378 22.9147 197.994C23.1787 197.598 23.3827 197.076 23.5267 196.428C23.6827 195.78 23.7607 194.982 23.7607 194.034C23.7607 192.894 23.6527 191.988 23.4367 191.316C23.2327 190.644 22.9567 190.164 22.6087 189.876C22.2607 189.576 21.8647 189.426 21.4207 189.426C21.0967 189.426 20.7967 189.516 20.5207 189.696C20.2447 189.876 20.0227 190.146 19.8547 190.506C19.6987 190.866 19.6207 191.322 19.6207 191.874C19.6207 192.39 19.6987 192.822 19.8547 193.17C20.0107 193.506 20.2267 193.758 20.5027 193.926C20.7907 194.094 21.1267 194.178 21.5107 194.178C21.8827 194.178 22.2667 194.064 22.6627 193.836C23.0587 193.608 23.4187 193.224 23.7427 192.684L23.8687 194.466C23.6407 194.79 23.3587 195.072 23.0227 195.312C22.6987 195.552 22.3627 195.738 22.0147 195.87C21.6667 196.002 21.3307 196.068 21.0067 196.068C20.2747 196.068 19.6207 195.918 19.0447 195.618C18.4687 195.306 18.0127 194.844 17.6767 194.232C17.3527 193.608 17.1907 192.822 17.1907 191.874C17.1907 190.962 17.3827 190.176 17.7667 189.516C18.1507 188.844 18.6607 188.328 19.2967 187.968C19.9327 187.608 20.6287 187.428 21.3847 187.428C22.0207 187.428 22.6207 187.56 23.1847 187.824C23.7607 188.076 24.2707 188.472 24.7147 189.012C25.1707 189.54 25.5247 190.224 25.7767 191.064C26.0407 191.892 26.1727 192.882 26.1727 194.034C26.1727 195.294 26.0347 196.38 25.7587 197.292C25.4827 198.192 25.0987 198.936 24.6067 199.524C24.1267 200.112 23.5807 200.55 22.9687 200.838C22.3567 201.114 21.7207 201.252 21.0607 201.252ZM32.0739 201.252C31.3659 201.252 30.7359 201.168 30.1839 201C29.6319 200.832 29.1399 200.61 28.7079 200.334C28.2759 200.058 27.8919 199.758 27.5559 199.434L28.7799 197.742C29.0319 197.994 29.3019 198.222 29.5899 198.426C29.8899 198.63 30.2139 198.792 30.5619 198.912C30.9219 199.032 31.3059 199.092 31.7139 199.092C32.1699 199.092 32.5719 198.996 32.9199 198.804C33.2799 198.612 33.5619 198.336 33.7659 197.976C33.9699 197.604 34.0719 197.16 34.0719 196.644C34.0719 195.876 33.8619 195.282 33.4419 194.862C33.0339 194.442 32.4939 194.232 31.8219 194.232C31.4379 194.232 31.1079 194.286 30.8319 194.394C30.5559 194.49 30.2199 194.664 29.8239 194.916L28.6179 194.142L28.9779 187.662H36.1059V189.894H31.2639L31.0119 192.72C31.2759 192.6 31.5339 192.51 31.7859 192.45C32.0379 192.39 32.3139 192.36 32.6139 192.36C33.3579 192.36 34.0419 192.51 34.6659 192.81C35.2899 193.098 35.7879 193.554 36.1599 194.178C36.5319 194.802 36.7179 195.6 36.7179 196.572C36.7179 197.556 36.4959 198.402 36.0519 199.11C35.6199 199.806 35.0499 200.34 34.3419 200.712C33.6459 201.072 32.8899 201.252 32.0739 201.252ZM41.5211 195.87C40.8971 195.87 40.3391 195.702 39.8471 195.366C39.3551 195.03 38.9711 194.544 38.6951 193.908C38.4191 193.272 38.2811 192.51 38.2811 191.622C38.2811 190.734 38.4191 189.978 38.6951 189.354C38.9711 188.73 39.3551 188.256 39.8471 187.932C40.3391 187.596 40.8971 187.428 41.5211 187.428C42.1691 187.428 42.7331 187.596 43.2131 187.932C43.7051 188.256 44.0891 188.73 44.3651 189.354C44.6411 189.978 44.7791 190.734 44.7791 191.622C44.7791 192.51 44.6411 193.272 44.3651 193.908C44.0891 194.544 43.7051 195.03 43.2131 195.366C42.7331 195.702 42.1691 195.87 41.5211 195.87ZM41.5211 194.376C41.9051 194.376 42.2291 194.166 42.4931 193.746C42.7691 193.314 42.9071 192.606 42.9071 191.622C42.9071 190.65 42.7691 189.96 42.4931 189.552C42.2291 189.132 41.9051 188.922 41.5211 188.922C41.1371 188.922 40.8071 189.132 40.5311 189.552C40.2671 189.96 40.1351 190.65 40.1351 191.622C40.1351 192.606 40.2671 193.314 40.5311 193.746C40.8071 194.166 41.1371 194.376 41.5211 194.376ZM41.9531 201.252L49.2071 187.428H50.7731L43.5371 201.252H41.9531ZM51.2231 201.252C50.5871 201.252 50.0231 201.084 49.5311 200.748C49.0511 200.412 48.6671 199.926 48.3791 199.29C48.1031 198.654 47.9651 197.892 47.9651 197.004C47.9651 196.104 48.1031 195.342 48.3791 194.718C48.6671 194.094 49.0511 193.62 49.5311 193.296C50.0231 192.96 50.5871 192.792 51.2231 192.792C51.8471 192.792 52.3991 192.96 52.8791 193.296C53.3711 193.62 53.7551 194.094 54.0311 194.718C54.3191 195.342 54.4631 196.104 54.4631 197.004C54.4631 197.892 54.3191 198.654 54.0311 199.29C53.7551 199.926 53.3711 200.412 52.8791 200.748C52.3991 201.084 51.8471 201.252 51.2231 201.252ZM51.2231 199.74C51.6071 199.74 51.9311 199.53 52.1951 199.11C52.4591 198.678 52.5911 197.976 52.5911 197.004C52.5911 196.008 52.4591 195.312 52.1951 194.916C51.9311 194.508 51.6071 194.304 51.2231 194.304C50.8271 194.304 50.4971 194.508 50.2331 194.916C49.9691 195.312 49.8371 196.008 49.8371 197.004C49.8371 197.976 49.9691 198.678 50.2331 199.11C50.4971 199.53 50.8271 199.74 51.2231 199.74Z" fill="black"/>
<path d="M124 73L124 48" stroke="black"/>
<path d="M343 73L343 48" stroke="black"/>
<path d="M468 156.5L468 125" stroke="black"/>
<path d="M13.998 156.5L13.9977 125" stroke="black"/>
<path d="M637 156.5L637 125" stroke="black"/>
</svg>
