<svg width="316" height="240" viewBox="0 0 316 240" fill="none" xmlns="http://www.w3.org/2000/svg">
<rect x="316" y="143" width="18.5506" height="45.9999" transform="rotate(-180 316 143)" fill="#E2E2E2"/>
<rect x="12.7935" y="143" width="12.7935" height="45.9999" transform="rotate(-180 12.7935 143)" fill="#3A5F70"/>
<rect x="297.449" y="143" width="84.4372" height="45.9999" transform="rotate(-180 297.449 143)" fill="#F5F5F5"/>
<rect x="213" y="143" width="98" height="45.9999" transform="rotate(-180 213 143)" fill="#4FC1F2"/>
<rect x="115" y="143" width="102.348" height="45.9999" transform="rotate(-180 115 143)" fill="#189FD9"/>
<path d="M158.21 198.15H166.19V199.17H158.21V198.15ZM158.54 205.92H165.725V206.94H158.54V205.92ZM157.7 209.805H166.325V210.855H157.7V209.805ZM161.54 206.4H162.665V210.45H161.54V206.4ZM159.635 199.665L160.625 199.92C160.425 200.3 160.19 200.715 159.92 201.165C159.65 201.605 159.39 202.015 159.14 202.395C159.47 202.835 159.785 203.295 160.085 203.775C160.395 204.255 160.63 204.665 160.79 205.005L159.86 205.41C159.7 205.02 159.455 204.555 159.125 204.015C158.795 203.475 158.435 202.945 158.045 202.425C158.245 202.115 158.445 201.795 158.645 201.465C158.845 201.125 159.03 200.8 159.2 200.49C159.38 200.17 159.525 199.895 159.635 199.665ZM162.245 199.665L163.235 199.935C163.025 200.305 162.78 200.715 162.5 201.165C162.22 201.605 161.96 202.015 161.72 202.395C161.94 202.675 162.16 202.975 162.38 203.295C162.6 203.605 162.8 203.905 162.98 204.195C163.17 204.485 163.315 204.74 163.415 204.96L162.5 205.38C162.33 204.99 162.075 204.525 161.735 203.985C161.395 203.445 161.015 202.92 160.595 202.41C160.815 202.1 161.025 201.78 161.225 201.45C161.435 201.12 161.63 200.8 161.81 200.49C161.99 200.18 162.135 199.905 162.245 199.665ZM164.84 199.665L165.83 199.92C165.61 200.3 165.36 200.715 165.08 201.165C164.8 201.605 164.535 202.015 164.285 202.395C164.525 202.675 164.755 202.975 164.975 203.295C165.205 203.605 165.42 203.905 165.62 204.195C165.82 204.485 165.975 204.745 166.085 204.975L165.17 205.41C164.99 205.02 164.715 204.555 164.345 204.015C163.975 203.465 163.575 202.935 163.145 202.425C163.365 202.115 163.58 201.795 163.79 201.465C164 201.125 164.195 200.8 164.375 200.49C164.565 200.17 164.72 199.895 164.84 199.665ZM156.185 203.31L157.04 203.07C157.18 203.4 157.315 203.76 157.445 204.15C157.585 204.53 157.705 204.9 157.805 205.26C157.915 205.61 157.995 205.915 158.045 206.175L157.115 206.49C157.075 206.22 157.005 205.905 156.905 205.545C156.805 205.175 156.69 204.795 156.56 204.405C156.44 204.015 156.315 203.65 156.185 203.31ZM154.82 207.18L155.69 207.03C155.78 207.54 155.865 208.09 155.945 208.68C156.025 209.27 156.075 209.78 156.095 210.21L155.195 210.375C155.175 209.945 155.13 209.435 155.06 208.845C154.99 208.245 154.91 207.69 154.82 207.18ZM153.26 207.045L154.22 207.21C154.14 207.88 154.03 208.555 153.89 209.235C153.76 209.905 153.615 210.475 153.455 210.945C153.385 210.905 153.29 210.865 153.17 210.825C153.06 210.785 152.945 210.74 152.825 210.69C152.705 210.65 152.605 210.62 152.525 210.6C152.705 210.14 152.855 209.59 152.975 208.95C153.095 208.31 153.19 207.675 153.26 207.045ZM152.885 203.01C152.865 202.94 152.835 202.845 152.795 202.725C152.755 202.595 152.71 202.465 152.66 202.335C152.62 202.205 152.58 202.095 152.54 202.005C152.67 201.975 152.8 201.89 152.93 201.75C153.07 201.6 153.215 201.41 153.365 201.18C153.485 201.03 153.66 200.76 153.89 200.37C154.13 199.97 154.38 199.51 154.64 198.99C154.91 198.46 155.15 197.92 155.36 197.37L156.365 197.805C155.975 198.635 155.535 199.465 155.045 200.295C154.565 201.115 154.075 201.825 153.575 202.425V202.44C153.575 202.44 153.54 202.46 153.47 202.5C153.4 202.54 153.315 202.59 153.215 202.65C153.125 202.71 153.045 202.77 152.975 202.83C152.915 202.89 152.885 202.95 152.885 203.01ZM152.885 203.01L152.855 202.185L153.395 201.87L156.065 201.63C156.035 201.77 156.01 201.93 155.99 202.11C155.98 202.29 155.975 202.435 155.975 202.545C155.365 202.615 154.87 202.675 154.49 202.725C154.12 202.765 153.825 202.805 153.605 202.845C153.395 202.875 153.235 202.905 153.125 202.935C153.025 202.955 152.945 202.98 152.885 203.01ZM152.99 206.4C152.97 206.32 152.94 206.22 152.9 206.1C152.86 205.97 152.815 205.84 152.765 205.71C152.715 205.57 152.67 205.455 152.63 205.365C152.79 205.325 152.955 205.22 153.125 205.05C153.305 204.87 153.51 204.64 153.74 204.36C153.85 204.22 154.02 203.995 154.25 203.685C154.48 203.375 154.74 203.005 155.03 202.575C155.32 202.145 155.61 201.68 155.9 201.18C156.2 200.68 156.47 200.18 156.71 199.68L157.67 200.235C157.3 200.915 156.895 201.59 156.455 202.26C156.025 202.93 155.575 203.57 155.105 204.18C154.635 204.78 154.165 205.325 153.695 205.815V205.845C153.695 205.845 153.66 205.865 153.59 205.905C153.52 205.935 153.435 205.98 153.335 206.04C153.245 206.09 153.165 206.15 153.095 206.22C153.025 206.28 152.99 206.34 152.99 206.4ZM152.99 206.4L152.945 205.56L153.485 205.215L157.175 204.735C157.155 204.875 157.14 205.035 157.13 205.215C157.12 205.385 157.12 205.525 157.13 205.635C156.29 205.765 155.61 205.87 155.09 205.95C154.58 206.03 154.185 206.1 153.905 206.16C153.625 206.21 153.42 206.255 153.29 206.295C153.16 206.325 153.06 206.36 152.99 206.4ZM156.26 206.88L157.07 206.625C157.22 207.025 157.37 207.465 157.52 207.945C157.68 208.415 157.795 208.825 157.865 209.175L157.01 209.46C156.95 209.11 156.845 208.695 156.695 208.215C156.555 207.735 156.41 207.29 156.26 206.88ZM174.11 204.705H175.265V211.2H174.11V204.705ZM171.695 202.635V204.105H177.38V202.635H171.695ZM170.615 201.78H178.52V204.96H170.615V201.78ZM169.28 206.205H179.315V207.225H170.405V210.525H169.28V206.205ZM178.76 206.205H179.9V209.355C179.9 209.645 179.86 209.87 179.78 210.03C179.71 210.2 179.555 210.33 179.315 210.42C179.075 210.5 178.76 210.545 178.37 210.555C177.98 210.575 177.495 210.585 176.915 210.585C176.885 210.435 176.83 210.265 176.75 210.075C176.68 209.885 176.605 209.715 176.525 209.565C176.825 209.575 177.105 209.585 177.365 209.595C177.635 209.595 177.865 209.595 178.055 209.595C178.245 209.595 178.38 209.595 178.46 209.595C178.58 209.575 178.66 209.55 178.7 209.52C178.74 209.49 178.76 209.43 178.76 209.34V206.205ZM174.02 197.385H175.16V200.13H174.02V197.385ZM168.29 199.725H180.815V202.95H179.705V200.715H169.37V202.95H168.29V199.725ZM169.52 197.955L170.54 197.535C170.78 197.805 171.015 198.105 171.245 198.435C171.485 198.765 171.67 199.05 171.8 199.29L170.735 199.8C170.625 199.54 170.45 199.235 170.21 198.885C169.98 198.535 169.75 198.225 169.52 197.955ZM178.445 197.52L179.615 197.925C179.365 198.245 179.105 198.57 178.835 198.9C178.565 199.22 178.32 199.495 178.1 199.725L177.17 199.35C177.32 199.19 177.47 199 177.62 198.78C177.78 198.56 177.93 198.34 178.07 198.12C178.22 197.89 178.345 197.69 178.445 197.52ZM182.945 199.35H196.085V200.4H182.945V199.35ZM186.5 204.705H193.64V205.665H186.5V204.705ZM193.22 202.14H194.33V209.79C194.33 210.12 194.285 210.375 194.195 210.555C194.105 210.745 193.935 210.89 193.685 210.99C193.435 211.07 193.095 211.115 192.665 211.125C192.245 211.145 191.715 211.155 191.075 211.155C191.045 211.005 190.995 210.825 190.925 210.615C190.855 210.405 190.78 210.225 190.7 210.075C191.03 210.085 191.34 210.09 191.63 210.09C191.93 210.1 192.19 210.1 192.41 210.09C192.63 210.09 192.79 210.09 192.89 210.09C193.02 210.09 193.105 210.065 193.145 210.015C193.195 209.975 193.22 209.895 193.22 209.775V202.14ZM187.865 197.4L189.005 197.67C188.665 198.75 188.235 199.82 187.715 200.88C187.205 201.93 186.59 202.915 185.87 203.835C185.15 204.745 184.32 205.535 183.38 206.205C183.33 206.115 183.26 206.02 183.17 205.92C183.08 205.81 182.99 205.705 182.9 205.605C182.81 205.505 182.725 205.415 182.645 205.335C183.315 204.885 183.925 204.36 184.475 203.76C185.025 203.15 185.515 202.495 185.945 201.795C186.375 201.095 186.75 200.375 187.07 199.635C187.39 198.885 187.655 198.14 187.865 197.4ZM186.395 207.24H193.625V208.215H186.395V207.24ZM186.41 202.14H193.55V203.16H186.41V202.14ZM185.81 202.14H186.935V206.13C186.935 206.54 186.915 206.975 186.875 207.435C186.835 207.895 186.75 208.355 186.62 208.815C186.5 209.275 186.325 209.71 186.095 210.12C185.875 210.54 185.58 210.925 185.21 211.275C185.17 211.195 185.1 211.095 185 210.975C184.9 210.865 184.795 210.755 184.685 210.645C184.585 210.535 184.495 210.455 184.415 210.405C184.845 209.995 185.155 209.55 185.345 209.07C185.545 208.59 185.67 208.095 185.72 207.585C185.78 207.075 185.81 206.585 185.81 206.115V202.14ZM197.735 200.295H201.515V201.345H197.735V200.295ZM199.325 197.4H200.3V211.185H199.325V197.4ZM199.31 200.925L199.895 201.18C199.815 201.76 199.705 202.37 199.565 203.01C199.425 203.65 199.265 204.28 199.085 204.9C198.915 205.51 198.73 206.08 198.53 206.61C198.34 207.14 198.135 207.59 197.915 207.96C197.885 207.85 197.84 207.73 197.78 207.6C197.72 207.46 197.655 207.325 197.585 207.195C197.525 207.065 197.465 206.955 197.405 206.865C197.605 206.535 197.8 206.14 197.99 205.68C198.18 205.21 198.36 204.71 198.53 204.18C198.7 203.64 198.85 203.09 198.98 202.53C199.12 201.97 199.23 201.435 199.31 200.925ZM200.21 202.2C200.28 202.29 200.38 202.45 200.51 202.68C200.65 202.9 200.8 203.14 200.96 203.4C201.12 203.66 201.265 203.905 201.395 204.135C201.525 204.355 201.62 204.52 201.68 204.63L201.11 205.455C201.05 205.285 200.96 205.07 200.84 204.81C200.72 204.55 200.59 204.28 200.45 204C200.32 203.72 200.19 203.46 200.06 203.22C199.94 202.97 199.84 202.78 199.76 202.65L200.21 202.2ZM201.83 205.155H211.04V206.07H201.83V205.155ZM203.135 207.15L203.81 206.55C204.07 206.74 204.335 206.95 204.605 207.18C204.885 207.41 205.15 207.64 205.4 207.87C205.65 208.09 205.855 208.285 206.015 208.455L205.31 209.13C205.15 208.95 204.945 208.745 204.695 208.515C204.455 208.285 204.2 208.05 203.93 207.81C203.66 207.56 203.395 207.34 203.135 207.15ZM208.04 204.195L208.625 203.655C208.895 203.805 209.18 203.985 209.48 204.195C209.78 204.405 210.015 204.585 210.185 204.735L209.6 205.35C209.43 205.18 209.195 204.985 208.895 204.765C208.605 204.545 208.32 204.355 208.04 204.195ZM209.405 206.22L210.365 206.58C209.865 207.6 209.155 208.495 208.235 209.265C207.315 210.025 206.265 210.64 205.085 211.11C205.025 211.01 204.93 210.89 204.8 210.75C204.68 210.61 204.57 210.495 204.47 210.405C205.61 209.965 206.61 209.385 207.47 208.665C208.33 207.945 208.975 207.13 209.405 206.22ZM205.595 197.505H206.57C206.61 199.285 206.705 200.93 206.855 202.44C207.005 203.95 207.215 205.27 207.485 206.4C207.765 207.52 208.115 208.4 208.535 209.04C208.965 209.68 209.48 210.03 210.08 210.09C210.24 210.1 210.37 209.965 210.47 209.685C210.57 209.405 210.65 208.995 210.71 208.455C210.78 208.525 210.86 208.6 210.95 208.68C211.05 208.75 211.145 208.815 211.235 208.875C211.325 208.935 211.405 208.98 211.475 209.01C211.375 209.57 211.255 210.01 211.115 210.33C210.985 210.65 210.835 210.875 210.665 211.005C210.505 211.135 210.32 211.195 210.11 211.185C209.44 211.145 208.86 210.895 208.37 210.435C207.89 209.975 207.48 209.335 207.14 208.515C206.81 207.695 206.54 206.725 206.33 205.605C206.12 204.485 205.955 203.245 205.835 201.885C205.725 200.515 205.645 199.055 205.595 197.505ZM204.275 202.02L204.995 201.825C205.155 202.185 205.305 202.58 205.445 203.01C205.595 203.43 205.7 203.78 205.76 204.06L205.01 204.315C204.95 204.015 204.85 203.65 204.71 203.22C204.58 202.79 204.435 202.39 204.275 202.02ZM201.995 201.615C201.975 201.525 201.935 201.39 201.875 201.21C201.825 201.03 201.775 200.885 201.725 200.775C201.815 200.755 201.905 200.7 201.995 200.61C202.095 200.51 202.195 200.385 202.295 200.235C202.365 200.135 202.475 199.95 202.625 199.68C202.775 199.41 202.935 199.095 203.105 198.735C203.285 198.375 203.435 198.005 203.555 197.625L204.41 197.91C204.15 198.51 203.855 199.1 203.525 199.68C203.195 200.25 202.865 200.73 202.535 201.12V201.15C202.535 201.15 202.49 201.175 202.4 201.225C202.31 201.275 202.22 201.335 202.13 201.405C202.04 201.475 201.995 201.545 201.995 201.615ZM201.995 201.615L201.98 200.955L202.43 200.685L204.545 200.46C204.485 200.58 204.425 200.715 204.365 200.865C204.315 201.015 204.275 201.13 204.245 201.21C203.675 201.28 203.235 201.34 202.925 201.39C202.625 201.44 202.41 201.485 202.28 201.525C202.16 201.555 202.065 201.585 201.995 201.615ZM202.13 204.195C202.13 204.125 202.11 204.04 202.07 203.94C202.04 203.84 202.005 203.735 201.965 203.625C201.925 203.505 201.89 203.41 201.86 203.34C201.98 203.31 202.1 203.24 202.22 203.13C202.35 203.01 202.485 202.855 202.625 202.665C202.725 202.545 202.89 202.325 203.12 202.005C203.36 201.675 203.615 201.29 203.885 200.85C204.155 200.41 204.395 199.96 204.605 199.5L205.43 199.815C205.02 200.545 204.57 201.255 204.08 201.945C203.6 202.635 203.125 203.22 202.655 203.7V203.715C202.655 203.715 202.61 203.74 202.52 203.79C202.44 203.84 202.355 203.905 202.265 203.985C202.175 204.055 202.13 204.125 202.13 204.195ZM202.13 204.195L202.115 203.49L202.535 203.22L205.025 202.92C205.035 203.03 205.06 203.155 205.1 203.295C205.14 203.435 205.175 203.55 205.205 203.64C204.585 203.73 204.085 203.805 203.705 203.865C203.325 203.915 203.03 203.96 202.82 204C202.61 204.04 202.455 204.075 202.355 204.105C202.265 204.135 202.19 204.165 202.13 204.195ZM209.675 201.765L210.365 201.555C210.535 201.915 210.7 202.31 210.86 202.74C211.02 203.16 211.13 203.51 211.19 203.79L210.47 204.06C210.4 203.77 210.29 203.405 210.14 202.965C209.99 202.525 209.835 202.125 209.675 201.765ZM207.38 201.315C207.36 201.225 207.32 201.09 207.26 200.91C207.2 200.73 207.145 200.585 207.095 200.475C207.185 200.455 207.27 200.405 207.35 200.325C207.44 200.235 207.525 200.12 207.605 199.98C207.675 199.88 207.775 199.71 207.905 199.47C208.035 199.23 208.175 198.945 208.325 198.615C208.475 198.275 208.605 197.935 208.715 197.595L209.54 197.865C209.32 198.425 209.06 198.97 208.76 199.5C208.47 200.02 208.185 200.46 207.905 200.82V200.835C207.905 200.835 207.86 200.865 207.77 200.925C207.69 200.975 207.605 201.035 207.515 201.105C207.425 201.175 207.38 201.245 207.38 201.315ZM207.38 201.315L207.365 200.655L207.8 200.37L209.81 200.175C209.76 200.295 209.705 200.43 209.645 200.58C209.595 200.72 209.555 200.835 209.525 200.925C208.985 200.995 208.565 201.055 208.265 201.105C207.975 201.155 207.77 201.195 207.65 201.225C207.53 201.255 207.44 201.285 207.38 201.315ZM207.53 203.895C207.52 203.835 207.495 203.755 207.455 203.655C207.425 203.545 207.39 203.435 207.35 203.325C207.32 203.205 207.29 203.105 207.26 203.025C207.37 202.995 207.485 202.925 207.605 202.815C207.725 202.695 207.85 202.54 207.98 202.35C208.09 202.22 208.255 201.995 208.475 201.675C208.695 201.345 208.935 200.96 209.195 200.52C209.455 200.07 209.68 199.62 209.87 199.17L210.725 199.5C210.345 200.23 209.92 200.94 209.45 201.63C208.99 202.32 208.53 202.91 208.07 203.4V203.415C208.07 203.415 208.025 203.445 207.935 203.505C207.855 203.555 207.765 203.62 207.665 203.7C207.575 203.77 207.53 203.835 207.53 203.895ZM207.53 203.895L207.515 203.22L207.935 202.935L210.41 202.635C210.43 202.745 210.455 202.87 210.485 203.01C210.525 203.14 210.56 203.25 210.59 203.34C209.97 203.43 209.47 203.505 209.09 203.565C208.71 203.625 208.415 203.675 208.205 203.715C208.005 203.755 207.855 203.79 207.755 203.82C207.665 203.84 207.59 203.865 207.53 203.895ZM202.97 205.5H203.945V206.295C203.945 206.785 203.875 207.325 203.735 207.915C203.605 208.495 203.37 209.07 203.03 209.64C202.69 210.21 202.205 210.735 201.575 211.215C201.525 211.135 201.45 211.05 201.35 210.96C201.26 210.88 201.165 210.795 201.065 210.705C200.975 210.625 200.895 210.565 200.825 210.525C201.415 210.095 201.86 209.635 202.16 209.145C202.47 208.645 202.68 208.145 202.79 207.645C202.91 207.145 202.97 206.685 202.97 206.265V205.5ZM215.42 202.485V204.735H223.535V202.485H215.42ZM214.445 201.705H224.555V205.5H214.445V201.705ZM216.905 200.13H222.14V200.94H216.905V200.13ZM218.975 201.99H219.935V205.125H218.975V201.99ZM216.32 202.935L217.145 202.65C217.335 202.92 217.51 203.215 217.67 203.535C217.84 203.845 217.96 204.12 218.03 204.36L217.175 204.675C217.115 204.435 217.005 204.15 216.845 203.82C216.685 203.49 216.51 203.195 216.32 202.935ZM221.735 202.59L222.695 202.905C222.525 203.225 222.35 203.545 222.17 203.865C221.99 204.185 221.825 204.455 221.675 204.675L220.88 204.405C221.02 204.155 221.175 203.855 221.345 203.505C221.515 203.155 221.645 202.85 221.735 202.59ZM215.33 206.22H223.82V211.14H222.68V207.03H216.44V211.185H215.33V206.22ZM215.99 208.035H223.16V208.845H215.99V208.035ZM216.005 209.88H223.175V210.675H216.005V209.88ZM219.395 197.34L220.385 197.715C219.865 198.395 219.22 199.015 218.45 199.575C217.68 200.125 216.845 200.61 215.945 201.03C215.045 201.45 214.135 201.81 213.215 202.11C213.175 202.03 213.115 201.935 213.035 201.825C212.965 201.715 212.885 201.605 212.795 201.495C212.715 201.385 212.64 201.295 212.57 201.225C213.48 200.975 214.365 200.665 215.225 200.295C216.095 199.925 216.89 199.49 217.61 198.99C218.33 198.49 218.925 197.94 219.395 197.34ZM220.04 197.85C220.39 198.21 220.81 198.56 221.3 198.9C221.8 199.23 222.34 199.54 222.92 199.83C223.5 200.11 224.1 200.36 224.72 200.58C225.35 200.8 225.97 200.98 226.58 201.12C226.45 201.22 226.315 201.36 226.175 201.54C226.045 201.71 225.935 201.865 225.845 202.005C225.245 201.835 224.63 201.625 224 201.375C223.37 201.115 222.755 200.82 222.155 200.49C221.565 200.16 221.015 199.805 220.505 199.425C219.995 199.045 219.55 198.645 219.17 198.225L220.04 197.85Z" fill="black"/>
<path d="M175.986 237.252C175.278 237.252 174.648 237.168 174.096 237C173.544 236.832 173.052 236.61 172.62 236.334C172.188 236.058 171.804 235.758 171.468 235.434L172.692 233.742C172.944 233.994 173.214 234.222 173.502 234.426C173.802 234.63 174.126 234.792 174.474 234.912C174.834 235.032 175.218 235.092 175.626 235.092C176.082 235.092 176.484 234.996 176.832 234.804C177.192 234.612 177.474 234.336 177.678 233.976C177.882 233.604 177.984 233.16 177.984 232.644C177.984 231.876 177.774 231.282 177.354 230.862C176.946 230.442 176.406 230.232 175.734 230.232C175.35 230.232 175.02 230.286 174.744 230.394C174.468 230.49 174.132 230.664 173.736 230.916L172.53 230.142L172.89 223.662H180.018V225.894H175.176L174.924 228.72C175.188 228.6 175.446 228.51 175.698 228.45C175.95 228.39 176.226 228.36 176.526 228.36C177.27 228.36 177.954 228.51 178.578 228.81C179.202 229.098 179.7 229.554 180.072 230.178C180.444 230.802 180.63 231.6 180.63 232.572C180.63 233.556 180.408 234.402 179.964 235.11C179.532 235.806 178.962 236.34 178.254 236.712C177.558 237.072 176.802 237.252 175.986 237.252ZM184.551 237.252C184.071 237.252 183.675 237.084 183.363 236.748C183.051 236.412 182.895 236.004 182.895 235.524C182.895 235.02 183.051 234.606 183.363 234.282C183.675 233.958 184.071 233.796 184.551 233.796C185.019 233.796 185.409 233.958 185.721 234.282C186.033 234.606 186.189 235.02 186.189 235.524C186.189 236.004 186.033 236.412 185.721 236.748C185.409 237.084 185.019 237.252 184.551 237.252ZM192.061 237.252C191.233 237.252 190.513 237.102 189.901 236.802C189.301 236.502 188.803 236.148 188.407 235.74L189.811 234.138C190.051 234.414 190.363 234.642 190.747 234.822C191.131 235.002 191.521 235.092 191.917 235.092C192.301 235.092 192.667 235.008 193.015 234.84C193.363 234.66 193.663 234.378 193.915 233.994C194.179 233.598 194.383 233.076 194.527 232.428C194.683 231.78 194.761 230.982 194.761 230.034C194.761 228.894 194.653 227.988 194.437 227.316C194.233 226.644 193.957 226.164 193.609 225.876C193.261 225.576 192.865 225.426 192.421 225.426C192.097 225.426 191.797 225.516 191.521 225.696C191.245 225.876 191.023 226.146 190.855 226.506C190.699 226.866 190.621 227.322 190.621 227.874C190.621 228.39 190.699 228.822 190.855 229.17C191.011 229.506 191.227 229.758 191.503 229.926C191.791 230.094 192.127 230.178 192.511 230.178C192.883 230.178 193.267 230.064 193.663 229.836C194.059 229.608 194.419 229.224 194.743 228.684L194.869 230.466C194.641 230.79 194.359 231.072 194.023 231.312C193.699 231.552 193.363 231.738 193.015 231.87C192.667 232.002 192.331 232.068 192.007 232.068C191.275 232.068 190.621 231.918 190.045 231.618C189.469 231.306 189.013 230.844 188.677 230.232C188.353 229.608 188.191 228.822 188.191 227.874C188.191 226.962 188.383 226.176 188.767 225.516C189.151 224.844 189.661 224.328 190.297 223.968C190.933 223.608 191.629 223.428 192.385 223.428C193.021 223.428 193.621 223.56 194.185 223.824C194.761 224.076 195.271 224.472 195.715 225.012C196.171 225.54 196.525 226.224 196.777 227.064C197.041 227.892 197.173 228.882 197.173 230.034C197.173 231.294 197.035 232.38 196.759 233.292C196.483 234.192 196.099 234.936 195.607 235.524C195.127 236.112 194.581 236.55 193.969 236.838C193.357 237.114 192.721 237.252 192.061 237.252ZM203.074 237.252C202.366 237.252 201.736 237.168 201.184 237C200.632 236.832 200.14 236.61 199.708 236.334C199.276 236.058 198.892 235.758 198.556 235.434L199.78 233.742C200.032 233.994 200.302 234.222 200.59 234.426C200.89 234.63 201.214 234.792 201.562 234.912C201.922 235.032 202.306 235.092 202.714 235.092C203.17 235.092 203.572 234.996 203.92 234.804C204.28 234.612 204.562 234.336 204.766 233.976C204.97 233.604 205.072 233.16 205.072 232.644C205.072 231.876 204.862 231.282 204.442 230.862C204.034 230.442 203.494 230.232 202.822 230.232C202.438 230.232 202.108 230.286 201.832 230.394C201.556 230.49 201.22 230.664 200.824 230.916L199.618 230.142L199.978 223.662H207.106V225.894H202.264L202.012 228.72C202.276 228.6 202.534 228.51 202.786 228.45C203.038 228.39 203.314 228.36 203.614 228.36C204.358 228.36 205.042 228.51 205.666 228.81C206.29 229.098 206.788 229.554 207.16 230.178C207.532 230.802 207.718 231.6 207.718 232.572C207.718 233.556 207.496 234.402 207.052 235.11C206.62 235.806 206.05 236.34 205.342 236.712C204.646 237.072 203.89 237.252 203.074 237.252ZM212.521 231.87C211.897 231.87 211.339 231.702 210.847 231.366C210.355 231.03 209.971 230.544 209.695 229.908C209.419 229.272 209.281 228.51 209.281 227.622C209.281 226.734 209.419 225.978 209.695 225.354C209.971 224.73 210.355 224.256 210.847 223.932C211.339 223.596 211.897 223.428 212.521 223.428C213.169 223.428 213.733 223.596 214.213 223.932C214.705 224.256 215.089 224.73 215.365 225.354C215.641 225.978 215.779 226.734 215.779 227.622C215.779 228.51 215.641 229.272 215.365 229.908C215.089 230.544 214.705 231.03 214.213 231.366C213.733 231.702 213.169 231.87 212.521 231.87ZM212.521 230.376C212.905 230.376 213.229 230.166 213.493 229.746C213.769 229.314 213.907 228.606 213.907 227.622C213.907 226.65 213.769 225.96 213.493 225.552C213.229 225.132 212.905 224.922 212.521 224.922C212.137 224.922 211.807 225.132 211.531 225.552C211.267 225.96 211.135 226.65 211.135 227.622C211.135 228.606 211.267 229.314 211.531 229.746C211.807 230.166 212.137 230.376 212.521 230.376ZM212.953 237.252L220.207 223.428H221.773L214.537 237.252H212.953ZM222.223 237.252C221.587 237.252 221.023 237.084 220.531 236.748C220.051 236.412 219.667 235.926 219.379 235.29C219.103 234.654 218.965 233.892 218.965 233.004C218.965 232.104 219.103 231.342 219.379 230.718C219.667 230.094 220.051 229.62 220.531 229.296C221.023 228.96 221.587 228.792 222.223 228.792C222.847 228.792 223.399 228.96 223.879 229.296C224.371 229.62 224.755 230.094 225.031 230.718C225.319 231.342 225.463 232.104 225.463 233.004C225.463 233.892 225.319 234.654 225.031 235.29C224.755 235.926 224.371 236.412 223.879 236.748C223.399 237.084 222.847 237.252 222.223 237.252ZM222.223 235.74C222.607 235.74 222.931 235.53 223.195 235.11C223.459 234.678 223.591 233.976 223.591 233.004C223.591 232.008 223.459 231.312 223.195 230.916C222.931 230.508 222.607 230.304 222.223 230.304C221.827 230.304 221.497 230.508 221.233 230.916C220.969 231.312 220.837 232.008 220.837 233.004C220.837 233.976 220.969 234.678 221.233 235.11C221.497 235.53 221.827 235.74 222.223 235.74Z" fill="black"/>
<path d="M247.615 201.315V202.8H253.375V201.315H247.615ZM247.615 199.005V200.46H253.375V199.005H247.615ZM246.565 198.12H254.455V203.685H246.565V198.12ZM254.035 204.87H255.085V210.015C255.085 210.305 255.045 210.53 254.965 210.69C254.885 210.85 254.735 210.97 254.515 211.05C254.295 211.13 253.995 211.18 253.615 211.2C253.235 211.22 252.755 211.225 252.175 211.215C252.155 211.085 252.11 210.93 252.04 210.75C251.98 210.57 251.915 210.41 251.845 210.27C252.285 210.28 252.68 210.285 253.03 210.285C253.39 210.285 253.625 210.28 253.735 210.27C253.855 210.27 253.935 210.25 253.975 210.21C254.015 210.18 254.035 210.115 254.035 210.015V204.87ZM249.955 198.465H250.96V208.215L249.955 208.32V198.465ZM247.405 208.035C248.105 207.985 248.94 207.92 249.91 207.84C250.89 207.75 251.885 207.655 252.895 207.555L252.925 208.425C251.985 208.535 251.05 208.645 250.12 208.755C249.2 208.855 248.365 208.95 247.615 209.04L247.405 208.035ZM251.8 206.58L252.46 206.355C252.65 206.665 252.83 206.995 253 207.345C253.17 207.695 253.325 208.035 253.465 208.365C253.615 208.695 253.73 208.985 253.81 209.235L253.105 209.505C253.025 209.255 252.915 208.96 252.775 208.62C252.645 208.28 252.495 207.935 252.325 207.585C252.155 207.225 251.98 206.89 251.8 206.58ZM244.99 197.46L246.07 197.775C245.75 198.625 245.38 199.465 244.96 200.295C244.55 201.115 244.1 201.89 243.61 202.62C243.13 203.34 242.63 203.985 242.11 204.555C242.07 204.465 242.01 204.35 241.93 204.21C241.86 204.07 241.78 203.93 241.69 203.79C241.61 203.64 241.535 203.525 241.465 203.445C241.935 202.955 242.385 202.39 242.815 201.75C243.255 201.11 243.66 200.425 244.03 199.695C244.41 198.955 244.73 198.21 244.99 197.46ZM243.43 201.345L244.495 200.28L244.51 200.295V211.185H243.43V201.345ZM245.365 204.87H254.485V205.83H245.365V204.87ZM245.875 204.24H246.94V211.2H245.875V204.24ZM262.93 198.6H264.025V211.125H262.93V198.6ZM257.95 201.36H268.6V202.305H259.015V211.2H257.95V201.36ZM268.12 201.36H269.2V209.955C269.2 210.255 269.155 210.485 269.065 210.645C268.985 210.815 268.84 210.94 268.63 211.02C268.41 211.1 268.105 211.15 267.715 211.17C267.335 211.19 266.86 211.2 266.29 211.2C266.27 211.07 266.225 210.91 266.155 210.72C266.085 210.53 266.015 210.37 265.945 210.24C266.375 210.25 266.765 210.255 267.115 210.255C267.475 210.265 267.715 210.265 267.835 210.255C267.945 210.245 268.02 210.22 268.06 210.18C268.1 210.14 268.12 210.065 268.12 209.955V201.36ZM260.11 199.35L261.13 199.71C260.81 200.05 260.435 200.385 260.005 200.715C259.585 201.035 259.145 201.335 258.685 201.615C258.225 201.895 257.78 202.14 257.35 202.35C257.29 202.28 257.205 202.2 257.095 202.11C256.995 202.01 256.89 201.915 256.78 201.825C256.68 201.725 256.585 201.65 256.495 201.6C257.165 201.33 257.825 201 258.475 200.61C259.135 200.21 259.68 199.79 260.11 199.35ZM265.705 199.875L266.53 199.23C266.99 199.43 267.465 199.665 267.955 199.935C268.445 200.195 268.91 200.46 269.35 200.73C269.8 200.99 270.175 201.23 270.475 201.45L269.635 202.17C269.345 201.94 268.975 201.69 268.525 201.42C268.085 201.14 267.62 200.865 267.13 200.595C266.64 200.315 266.165 200.075 265.705 199.875ZM261.565 202.635L262.285 202.815C261.995 203.425 261.635 204.02 261.205 204.6C260.785 205.17 260.35 205.655 259.9 206.055C259.84 205.995 259.745 205.92 259.615 205.83C259.485 205.73 259.375 205.66 259.285 205.62C259.735 205.24 260.16 204.79 260.56 204.27C260.97 203.74 261.305 203.195 261.565 202.635ZM259.54 203.7L259.99 203.16C260.3 203.31 260.61 203.485 260.92 203.685C261.24 203.885 261.535 204.09 261.805 204.3C262.085 204.5 262.31 204.685 262.48 204.855L262.015 205.47C261.835 205.28 261.61 205.08 261.34 204.87C261.07 204.65 260.775 204.44 260.455 204.24C260.145 204.03 259.84 203.85 259.54 203.7ZM261.565 206.13L262.315 206.31C262.035 207.03 261.675 207.71 261.235 208.35C260.795 208.98 260.33 209.515 259.84 209.955C259.77 209.895 259.67 209.815 259.54 209.715C259.41 209.615 259.295 209.54 259.195 209.49C259.695 209.08 260.15 208.58 260.56 207.99C260.98 207.4 261.315 206.78 261.565 206.13ZM259.51 207.195L259.96 206.655C260.28 206.825 260.605 207.03 260.935 207.27C261.265 207.5 261.57 207.735 261.85 207.975C262.14 208.205 262.37 208.415 262.54 208.605L262.09 209.22C261.9 209.01 261.665 208.785 261.385 208.545C261.105 208.305 260.8 208.065 260.47 207.825C260.15 207.585 259.83 207.375 259.51 207.195ZM266.56 202.635L267.28 202.815C266.99 203.445 266.625 204.05 266.185 204.63C265.755 205.2 265.315 205.685 264.865 206.085C264.805 206.035 264.71 205.965 264.58 205.875C264.45 205.775 264.335 205.7 264.235 205.65C264.715 205.27 265.155 204.815 265.555 204.285C265.965 203.755 266.3 203.205 266.56 202.635ZM264.475 203.64L264.925 203.115C265.245 203.275 265.57 203.46 265.9 203.67C266.23 203.88 266.54 204.095 266.83 204.315C267.12 204.525 267.35 204.725 267.52 204.915L267.055 205.515C266.865 205.325 266.625 205.115 266.335 204.885C266.055 204.655 265.75 204.43 265.42 204.21C265.1 203.99 264.785 203.8 264.475 203.64ZM266.62 206.115L267.37 206.295C267.08 207.005 266.71 207.675 266.26 208.305C265.81 208.935 265.335 209.465 264.835 209.895C264.765 209.835 264.665 209.755 264.535 209.655C264.405 209.555 264.295 209.48 264.205 209.43C264.715 209.03 265.18 208.54 265.6 207.96C266.03 207.38 266.37 206.765 266.62 206.115ZM264.52 207.15L264.97 206.595C265.3 206.765 265.63 206.965 265.96 207.195C266.3 207.415 266.62 207.64 266.92 207.87C267.22 208.09 267.46 208.3 267.64 208.5L267.19 209.115C267 208.915 266.755 208.7 266.455 208.47C266.165 208.23 265.85 207.995 265.51 207.765C265.17 207.525 264.84 207.32 264.52 207.15ZM256.96 198.3H270.13V199.32H256.96V198.3ZM271.945 199.35H285.085V200.4H271.945V199.35ZM275.5 204.705H282.64V205.665H275.5V204.705ZM282.22 202.14H283.33V209.79C283.33 210.12 283.285 210.375 283.195 210.555C283.105 210.745 282.935 210.89 282.685 210.99C282.435 211.07 282.095 211.115 281.665 211.125C281.245 211.145 280.715 211.155 280.075 211.155C280.045 211.005 279.995 210.825 279.925 210.615C279.855 210.405 279.78 210.225 279.7 210.075C280.03 210.085 280.34 210.09 280.63 210.09C280.93 210.1 281.19 210.1 281.41 210.09C281.63 210.09 281.79 210.09 281.89 210.09C282.02 210.09 282.105 210.065 282.145 210.015C282.195 209.975 282.22 209.895 282.22 209.775V202.14ZM276.865 197.4L278.005 197.67C277.665 198.75 277.235 199.82 276.715 200.88C276.205 201.93 275.59 202.915 274.87 203.835C274.15 204.745 273.32 205.535 272.38 206.205C272.33 206.115 272.26 206.02 272.17 205.92C272.08 205.81 271.99 205.705 271.9 205.605C271.81 205.505 271.725 205.415 271.645 205.335C272.315 204.885 272.925 204.36 273.475 203.76C274.025 203.15 274.515 202.495 274.945 201.795C275.375 201.095 275.75 200.375 276.07 199.635C276.39 198.885 276.655 198.14 276.865 197.4ZM275.395 207.24H282.625V208.215H275.395V207.24ZM275.41 202.14H282.55V203.16H275.41V202.14ZM274.81 202.14H275.935V206.13C275.935 206.54 275.915 206.975 275.875 207.435C275.835 207.895 275.75 208.355 275.62 208.815C275.5 209.275 275.325 209.71 275.095 210.12C274.875 210.54 274.58 210.925 274.21 211.275C274.17 211.195 274.1 211.095 274 210.975C273.9 210.865 273.795 210.755 273.685 210.645C273.585 210.535 273.495 210.455 273.415 210.405C273.845 209.995 274.155 209.55 274.345 209.07C274.545 208.59 274.67 208.095 274.72 207.585C274.78 207.075 274.81 206.585 274.81 206.115V202.14ZM286.735 200.295H290.515V201.345H286.735V200.295ZM288.325 197.4H289.3V211.185H288.325V197.4ZM288.31 200.925L288.895 201.18C288.815 201.76 288.705 202.37 288.565 203.01C288.425 203.65 288.265 204.28 288.085 204.9C287.915 205.51 287.73 206.08 287.53 206.61C287.34 207.14 287.135 207.59 286.915 207.96C286.885 207.85 286.84 207.73 286.78 207.6C286.72 207.46 286.655 207.325 286.585 207.195C286.525 207.065 286.465 206.955 286.405 206.865C286.605 206.535 286.8 206.14 286.99 205.68C287.18 205.21 287.36 204.71 287.53 204.18C287.7 203.64 287.85 203.09 287.98 202.53C288.12 201.97 288.23 201.435 288.31 200.925ZM289.21 202.2C289.28 202.29 289.38 202.45 289.51 202.68C289.65 202.9 289.8 203.14 289.96 203.4C290.12 203.66 290.265 203.905 290.395 204.135C290.525 204.355 290.62 204.52 290.68 204.63L290.11 205.455C290.05 205.285 289.96 205.07 289.84 204.81C289.72 204.55 289.59 204.28 289.45 204C289.32 203.72 289.19 203.46 289.06 203.22C288.94 202.97 288.84 202.78 288.76 202.65L289.21 202.2ZM290.83 205.155H300.04V206.07H290.83V205.155ZM292.135 207.15L292.81 206.55C293.07 206.74 293.335 206.95 293.605 207.18C293.885 207.41 294.15 207.64 294.4 207.87C294.65 208.09 294.855 208.285 295.015 208.455L294.31 209.13C294.15 208.95 293.945 208.745 293.695 208.515C293.455 208.285 293.2 208.05 292.93 207.81C292.66 207.56 292.395 207.34 292.135 207.15ZM297.04 204.195L297.625 203.655C297.895 203.805 298.18 203.985 298.48 204.195C298.78 204.405 299.015 204.585 299.185 204.735L298.6 205.35C298.43 205.18 298.195 204.985 297.895 204.765C297.605 204.545 297.32 204.355 297.04 204.195ZM298.405 206.22L299.365 206.58C298.865 207.6 298.155 208.495 297.235 209.265C296.315 210.025 295.265 210.64 294.085 211.11C294.025 211.01 293.93 210.89 293.8 210.75C293.68 210.61 293.57 210.495 293.47 210.405C294.61 209.965 295.61 209.385 296.47 208.665C297.33 207.945 297.975 207.13 298.405 206.22ZM294.595 197.505H295.57C295.61 199.285 295.705 200.93 295.855 202.44C296.005 203.95 296.215 205.27 296.485 206.4C296.765 207.52 297.115 208.4 297.535 209.04C297.965 209.68 298.48 210.03 299.08 210.09C299.24 210.1 299.37 209.965 299.47 209.685C299.57 209.405 299.65 208.995 299.71 208.455C299.78 208.525 299.86 208.6 299.95 208.68C300.05 208.75 300.145 208.815 300.235 208.875C300.325 208.935 300.405 208.98 300.475 209.01C300.375 209.57 300.255 210.01 300.115 210.33C299.985 210.65 299.835 210.875 299.665 211.005C299.505 211.135 299.32 211.195 299.11 211.185C298.44 211.145 297.86 210.895 297.37 210.435C296.89 209.975 296.48 209.335 296.14 208.515C295.81 207.695 295.54 206.725 295.33 205.605C295.12 204.485 294.955 203.245 294.835 201.885C294.725 200.515 294.645 199.055 294.595 197.505ZM293.275 202.02L293.995 201.825C294.155 202.185 294.305 202.58 294.445 203.01C294.595 203.43 294.7 203.78 294.76 204.06L294.01 204.315C293.95 204.015 293.85 203.65 293.71 203.22C293.58 202.79 293.435 202.39 293.275 202.02ZM290.995 201.615C290.975 201.525 290.935 201.39 290.875 201.21C290.825 201.03 290.775 200.885 290.725 200.775C290.815 200.755 290.905 200.7 290.995 200.61C291.095 200.51 291.195 200.385 291.295 200.235C291.365 200.135 291.475 199.95 291.625 199.68C291.775 199.41 291.935 199.095 292.105 198.735C292.285 198.375 292.435 198.005 292.555 197.625L293.41 197.91C293.15 198.51 292.855 199.1 292.525 199.68C292.195 200.25 291.865 200.73 291.535 201.12V201.15C291.535 201.15 291.49 201.175 291.4 201.225C291.31 201.275 291.22 201.335 291.13 201.405C291.04 201.475 290.995 201.545 290.995 201.615ZM290.995 201.615L290.98 200.955L291.43 200.685L293.545 200.46C293.485 200.58 293.425 200.715 293.365 200.865C293.315 201.015 293.275 201.13 293.245 201.21C292.675 201.28 292.235 201.34 291.925 201.39C291.625 201.44 291.41 201.485 291.28 201.525C291.16 201.555 291.065 201.585 290.995 201.615ZM291.13 204.195C291.13 204.125 291.11 204.04 291.07 203.94C291.04 203.84 291.005 203.735 290.965 203.625C290.925 203.505 290.89 203.41 290.86 203.34C290.98 203.31 291.1 203.24 291.22 203.13C291.35 203.01 291.485 202.855 291.625 202.665C291.725 202.545 291.89 202.325 292.12 202.005C292.36 201.675 292.615 201.29 292.885 200.85C293.155 200.41 293.395 199.96 293.605 199.5L294.43 199.815C294.02 200.545 293.57 201.255 293.08 201.945C292.6 202.635 292.125 203.22 291.655 203.7V203.715C291.655 203.715 291.61 203.74 291.52 203.79C291.44 203.84 291.355 203.905 291.265 203.985C291.175 204.055 291.13 204.125 291.13 204.195ZM291.13 204.195L291.115 203.49L291.535 203.22L294.025 202.92C294.035 203.03 294.06 203.155 294.1 203.295C294.14 203.435 294.175 203.55 294.205 203.64C293.585 203.73 293.085 203.805 292.705 203.865C292.325 203.915 292.03 203.96 291.82 204C291.61 204.04 291.455 204.075 291.355 204.105C291.265 204.135 291.19 204.165 291.13 204.195ZM298.675 201.765L299.365 201.555C299.535 201.915 299.7 202.31 299.86 202.74C300.02 203.16 300.13 203.51 300.19 203.79L299.47 204.06C299.4 203.77 299.29 203.405 299.14 202.965C298.99 202.525 298.835 202.125 298.675 201.765ZM296.38 201.315C296.36 201.225 296.32 201.09 296.26 200.91C296.2 200.73 296.145 200.585 296.095 200.475C296.185 200.455 296.27 200.405 296.35 200.325C296.44 200.235 296.525 200.12 296.605 199.98C296.675 199.88 296.775 199.71 296.905 199.47C297.035 199.23 297.175 198.945 297.325 198.615C297.475 198.275 297.605 197.935 297.715 197.595L298.54 197.865C298.32 198.425 298.06 198.97 297.76 199.5C297.47 200.02 297.185 200.46 296.905 200.82V200.835C296.905 200.835 296.86 200.865 296.77 200.925C296.69 200.975 296.605 201.035 296.515 201.105C296.425 201.175 296.38 201.245 296.38 201.315ZM296.38 201.315L296.365 200.655L296.8 200.37L298.81 200.175C298.76 200.295 298.705 200.43 298.645 200.58C298.595 200.72 298.555 200.835 298.525 200.925C297.985 200.995 297.565 201.055 297.265 201.105C296.975 201.155 296.77 201.195 296.65 201.225C296.53 201.255 296.44 201.285 296.38 201.315ZM296.53 203.895C296.52 203.835 296.495 203.755 296.455 203.655C296.425 203.545 296.39 203.435 296.35 203.325C296.32 203.205 296.29 203.105 296.26 203.025C296.37 202.995 296.485 202.925 296.605 202.815C296.725 202.695 296.85 202.54 296.98 202.35C297.09 202.22 297.255 201.995 297.475 201.675C297.695 201.345 297.935 200.96 298.195 200.52C298.455 200.07 298.68 199.62 298.87 199.17L299.725 199.5C299.345 200.23 298.92 200.94 298.45 201.63C297.99 202.32 297.53 202.91 297.07 203.4V203.415C297.07 203.415 297.025 203.445 296.935 203.505C296.855 203.555 296.765 203.62 296.665 203.7C296.575 203.77 296.53 203.835 296.53 203.895ZM296.53 203.895L296.515 203.22L296.935 202.935L299.41 202.635C299.43 202.745 299.455 202.87 299.485 203.01C299.525 203.14 299.56 203.25 299.59 203.34C298.97 203.43 298.47 203.505 298.09 203.565C297.71 203.625 297.415 203.675 297.205 203.715C297.005 203.755 296.855 203.79 296.755 203.82C296.665 203.84 296.59 203.865 296.53 203.895ZM291.97 205.5H292.945V206.295C292.945 206.785 292.875 207.325 292.735 207.915C292.605 208.495 292.37 209.07 292.03 209.64C291.69 210.21 291.205 210.735 290.575 211.215C290.525 211.135 290.45 211.05 290.35 210.96C290.26 210.88 290.165 210.795 290.065 210.705C289.975 210.625 289.895 210.565 289.825 210.525C290.415 210.095 290.86 209.635 291.16 209.145C291.47 208.645 291.68 208.145 291.79 207.645C291.91 207.145 291.97 206.685 291.97 206.265V205.5ZM304.42 202.485V204.735H312.535V202.485H304.42ZM303.445 201.705H313.555V205.5H303.445V201.705ZM305.905 200.13H311.14V200.94H305.905V200.13ZM307.975 201.99H308.935V205.125H307.975V201.99ZM305.32 202.935L306.145 202.65C306.335 202.92 306.51 203.215 306.67 203.535C306.84 203.845 306.96 204.12 307.03 204.36L306.175 204.675C306.115 204.435 306.005 204.15 305.845 203.82C305.685 203.49 305.51 203.195 305.32 202.935ZM310.735 202.59L311.695 202.905C311.525 203.225 311.35 203.545 311.17 203.865C310.99 204.185 310.825 204.455 310.675 204.675L309.88 204.405C310.02 204.155 310.175 203.855 310.345 203.505C310.515 203.155 310.645 202.85 310.735 202.59ZM304.33 206.22H312.82V211.14H311.68V207.03H305.44V211.185H304.33V206.22ZM304.99 208.035H312.16V208.845H304.99V208.035ZM305.005 209.88H312.175V210.675H305.005V209.88ZM308.395 197.34L309.385 197.715C308.865 198.395 308.22 199.015 307.45 199.575C306.68 200.125 305.845 200.61 304.945 201.03C304.045 201.45 303.135 201.81 302.215 202.11C302.175 202.03 302.115 201.935 302.035 201.825C301.965 201.715 301.885 201.605 301.795 201.495C301.715 201.385 301.64 201.295 301.57 201.225C302.48 200.975 303.365 200.665 304.225 200.295C305.095 199.925 305.89 199.49 306.61 198.99C307.33 198.49 307.925 197.94 308.395 197.34ZM309.04 197.85C309.39 198.21 309.81 198.56 310.3 198.9C310.8 199.23 311.34 199.54 311.92 199.83C312.5 200.11 313.1 200.36 313.72 200.58C314.35 200.8 314.97 200.98 315.58 201.12C315.45 201.22 315.315 201.36 315.175 201.54C315.045 201.71 314.935 201.865 314.845 202.005C314.245 201.835 313.63 201.625 313 201.375C312.37 201.115 311.755 200.82 311.155 200.49C310.565 200.16 310.015 199.805 309.505 199.425C308.995 199.045 308.55 198.645 308.17 198.225L309.04 197.85Z" fill="black"/>
<path d="M260.774 237V235.47C261.986 234.39 263.018 233.388 263.87 232.464C264.734 231.54 265.394 230.682 265.85 229.89C266.306 229.086 266.534 228.342 266.534 227.658C266.534 227.226 266.456 226.848 266.3 226.524C266.144 226.2 265.916 225.954 265.616 225.786C265.328 225.606 264.968 225.516 264.536 225.516C264.056 225.516 263.612 225.654 263.204 225.93C262.808 226.194 262.442 226.512 262.106 226.884L260.63 225.462C261.254 224.79 261.89 224.286 262.538 223.95C263.198 223.602 263.978 223.428 264.878 223.428C265.718 223.428 266.45 223.602 267.074 223.95C267.71 224.286 268.202 224.76 268.55 225.372C268.898 225.984 269.072 226.704 269.072 227.532C269.072 228.336 268.868 229.158 268.46 229.998C268.064 230.826 267.53 231.654 266.858 232.482C266.186 233.31 265.442 234.126 264.626 234.93C264.974 234.882 265.346 234.846 265.742 234.822C266.15 234.786 266.51 234.768 266.822 234.768H269.702V237H260.774ZM273.965 237C274.025 235.848 274.127 234.786 274.271 233.814C274.415 232.83 274.619 231.906 274.883 231.042C275.147 230.166 275.489 229.308 275.909 228.468C276.341 227.628 276.875 226.77 277.511 225.894H271.517V223.662H280.373V225.282C279.605 226.218 278.981 227.118 278.501 227.982C278.033 228.846 277.673 229.722 277.421 230.61C277.181 231.498 277.001 232.458 276.881 233.49C276.773 234.522 276.689 235.692 276.629 237H273.965ZM284.168 237.252C283.688 237.252 283.292 237.084 282.98 236.748C282.668 236.412 282.512 236.004 282.512 235.524C282.512 235.02 282.668 234.606 282.98 234.282C283.292 233.958 283.688 233.796 284.168 233.796C284.636 233.796 285.026 233.958 285.338 234.282C285.65 234.606 285.806 235.02 285.806 235.524C285.806 236.004 285.65 236.412 285.338 236.748C285.026 237.084 284.636 237.252 284.168 237.252ZM292.002 237.252C291.306 237.252 290.682 237.168 290.13 237C289.578 236.844 289.086 236.628 288.654 236.352C288.234 236.064 287.868 235.746 287.556 235.398L288.798 233.724C289.206 234.096 289.65 234.42 290.13 234.696C290.622 234.96 291.168 235.092 291.768 235.092C292.224 235.092 292.62 235.02 292.956 234.876C293.304 234.732 293.568 234.522 293.748 234.246C293.94 233.97 294.036 233.634 294.036 233.238C294.036 232.794 293.928 232.416 293.712 232.104C293.508 231.78 293.142 231.534 292.614 231.366C292.086 231.198 291.342 231.114 290.382 231.114V229.206C291.198 229.206 291.84 229.122 292.308 228.954C292.776 228.774 293.106 228.534 293.298 228.234C293.502 227.922 293.604 227.568 293.604 227.172C293.604 226.656 293.448 226.254 293.136 225.966C292.824 225.666 292.386 225.516 291.822 225.516C291.354 225.516 290.916 225.624 290.508 225.84C290.112 226.044 289.716 226.326 289.32 226.686L287.952 225.048C288.54 224.556 289.158 224.166 289.806 223.878C290.454 223.578 291.168 223.428 291.948 223.428C292.8 223.428 293.55 223.566 294.198 223.842C294.858 224.118 295.368 224.52 295.728 225.048C296.088 225.576 296.268 226.218 296.268 226.974C296.268 227.694 296.076 228.312 295.692 228.828C295.308 229.344 294.762 229.74 294.054 230.016V230.106C294.546 230.238 294.99 230.454 295.386 230.754C295.794 231.042 296.112 231.408 296.34 231.852C296.58 232.296 296.7 232.812 296.7 233.4C296.7 234.204 296.484 234.894 296.052 235.47C295.632 236.046 295.062 236.49 294.342 236.802C293.634 237.102 292.854 237.252 292.002 237.252ZM301.521 231.87C300.897 231.87 300.339 231.702 299.847 231.366C299.355 231.03 298.971 230.544 298.695 229.908C298.419 229.272 298.281 228.51 298.281 227.622C298.281 226.734 298.419 225.978 298.695 225.354C298.971 224.73 299.355 224.256 299.847 223.932C300.339 223.596 300.897 223.428 301.521 223.428C302.169 223.428 302.733 223.596 303.213 223.932C303.705 224.256 304.089 224.73 304.365 225.354C304.641 225.978 304.779 226.734 304.779 227.622C304.779 228.51 304.641 229.272 304.365 229.908C304.089 230.544 303.705 231.03 303.213 231.366C302.733 231.702 302.169 231.87 301.521 231.87ZM301.521 230.376C301.905 230.376 302.229 230.166 302.493 229.746C302.769 229.314 302.907 228.606 302.907 227.622C302.907 226.65 302.769 225.96 302.493 225.552C302.229 225.132 301.905 224.922 301.521 224.922C301.137 224.922 300.807 225.132 300.531 225.552C300.267 225.96 300.135 226.65 300.135 227.622C300.135 228.606 300.267 229.314 300.531 229.746C300.807 230.166 301.137 230.376 301.521 230.376ZM301.953 237.252L309.207 223.428H310.773L303.537 237.252H301.953ZM311.223 237.252C310.587 237.252 310.023 237.084 309.531 236.748C309.051 236.412 308.667 235.926 308.379 235.29C308.103 234.654 307.965 233.892 307.965 233.004C307.965 232.104 308.103 231.342 308.379 230.718C308.667 230.094 309.051 229.62 309.531 229.296C310.023 228.96 310.587 228.792 311.223 228.792C311.847 228.792 312.399 228.96 312.879 229.296C313.371 229.62 313.755 230.094 314.031 230.718C314.319 231.342 314.463 232.104 314.463 233.004C314.463 233.892 314.319 234.654 314.031 235.29C313.755 235.926 313.371 236.412 312.879 236.748C312.399 237.084 311.847 237.252 311.223 237.252ZM311.223 235.74C311.607 235.74 311.931 235.53 312.195 235.11C312.459 234.678 312.591 233.976 312.591 233.004C312.591 232.008 312.459 231.312 312.195 230.916C311.931 230.508 311.607 230.304 311.223 230.304C310.827 230.304 310.497 230.508 310.233 230.916C309.969 231.312 309.837 232.008 309.837 233.004C309.837 233.976 309.969 234.678 310.233 235.11C310.497 235.53 310.827 235.74 311.223 235.74Z" fill="black"/>
<path d="M128.05 8.745L129.07 9.15C128.74 9.75 128.35 10.34 127.9 10.92C127.46 11.5 126.995 12.05 126.505 12.57C126.025 13.09 125.54 13.55 125.05 13.95C125.02 13.86 124.965 13.745 124.885 13.605C124.815 13.465 124.735 13.325 124.645 13.185C124.565 13.045 124.49 12.93 124.42 12.84C124.88 12.51 125.33 12.125 125.77 11.685C126.22 11.245 126.64 10.775 127.03 10.275C127.43 9.775 127.77 9.265 128.05 8.745ZM127.795 5.445L128.875 5.865C128.575 6.295 128.225 6.73 127.825 7.17C127.435 7.61 127.015 8.03 126.565 8.43C126.125 8.82 125.685 9.165 125.245 9.465C125.205 9.375 125.15 9.275 125.08 9.165C125.01 9.045 124.935 8.93 124.855 8.82C124.775 8.7 124.705 8.605 124.645 8.535C125.045 8.275 125.445 7.975 125.845 7.635C126.245 7.285 126.615 6.92 126.955 6.54C127.305 6.16 127.585 5.795 127.795 5.445ZM126.715 11.46L127.78 10.41L127.825 10.44V19.2H126.715V11.46ZM130.57 6.06H137.065V12.66H130.57V11.67H135.955V7.05H130.57V6.06ZM130.6 8.865H136.315V9.81H130.6V8.865ZM133.405 12.075C133.655 13.035 134.005 13.915 134.455 14.715C134.905 15.515 135.46 16.205 136.12 16.785C136.79 17.365 137.57 17.81 138.46 18.12C138.37 18.19 138.275 18.285 138.175 18.405C138.085 18.525 137.995 18.64 137.905 18.75C137.815 18.87 137.74 18.985 137.68 19.095C136.77 18.715 135.975 18.2 135.295 17.55C134.615 16.9 134.04 16.13 133.57 15.24C133.11 14.34 132.745 13.35 132.475 12.27L133.405 12.075ZM137.095 13.14L137.86 13.935C137.41 14.295 136.915 14.655 136.375 15.015C135.835 15.375 135.345 15.675 134.905 15.915L134.29 15.21C134.58 15.03 134.895 14.825 135.235 14.595C135.585 14.355 135.925 14.11 136.255 13.86C136.585 13.6 136.865 13.36 137.095 13.14ZM129.955 19.2L129.865 18.21L130.405 17.79L133.75 16.98C133.75 17.14 133.755 17.32 133.765 17.52C133.775 17.71 133.79 17.87 133.81 18C133.03 18.21 132.4 18.38 131.92 18.51C131.45 18.65 131.085 18.76 130.825 18.84C130.565 18.92 130.37 18.985 130.24 19.035C130.12 19.095 130.025 19.15 129.955 19.2ZM129.955 19.2C129.925 19.11 129.88 19.01 129.82 18.9C129.76 18.79 129.695 18.675 129.625 18.555C129.565 18.435 129.505 18.34 129.445 18.27C129.565 18.2 129.685 18.085 129.805 17.925C129.935 17.765 130 17.525 130 17.205V6.06H131.095V18.09C131.095 18.09 131.055 18.115 130.975 18.165C130.905 18.225 130.81 18.295 130.69 18.375C130.58 18.455 130.465 18.54 130.345 18.63C130.235 18.73 130.14 18.83 130.06 18.93C129.99 19.03 129.955 19.12 129.955 19.2ZM142.42 7.77L143.485 8.07C143.245 8.66 142.975 9.26 142.675 9.87C142.375 10.48 142.06 11.06 141.73 11.61C141.41 12.15 141.09 12.63 140.77 13.05C140.71 13 140.615 12.94 140.485 12.87C140.365 12.8 140.245 12.735 140.125 12.675C140.005 12.605 139.895 12.55 139.795 12.51C140.135 12.1 140.46 11.635 140.77 11.115C141.09 10.595 141.39 10.05 141.67 9.48C141.95 8.9 142.2 8.33 142.42 7.77ZM149.545 8.205L150.46 7.755C150.8 8.235 151.15 8.76 151.51 9.33C151.88 9.89 152.22 10.435 152.53 10.965C152.85 11.495 153.105 11.965 153.295 12.375L152.335 12.93C152.145 12.51 151.895 12.03 151.585 11.49C151.275 10.94 150.94 10.38 150.58 9.81C150.23 9.23 149.885 8.695 149.545 8.205ZM150.43 13.17L151.45 13.635C150.77 14.715 149.875 15.63 148.765 16.38C147.655 17.12 146.365 17.715 144.895 18.165C143.425 18.615 141.805 18.955 140.035 19.185C139.985 19.025 139.91 18.84 139.81 18.63C139.71 18.43 139.605 18.255 139.495 18.105C141.215 17.915 142.78 17.625 144.19 17.235C145.6 16.835 146.835 16.305 147.895 15.645C148.955 14.975 149.8 14.15 150.43 13.17ZM145.735 5.4H146.845V14.655H145.735V5.4ZM154.945 7.35H168.085V8.4L154.945 8.4V7.35ZM158.5 12.705H165.64V13.665H158.5V12.705ZM165.22 10.14H166.33V17.79C166.33 18.12 166.285 18.375 166.195 18.555C166.105 18.745 165.935 18.89 165.685 18.99C165.435 19.07 165.095 19.115 164.665 19.125C164.245 19.145 163.715 19.155 163.075 19.155C163.045 19.005 162.995 18.825 162.925 18.615C162.855 18.405 162.78 18.225 162.7 18.075C163.03 18.085 163.34 18.09 163.63 18.09C163.93 18.1 164.19 18.1 164.41 18.09C164.63 18.09 164.79 18.09 164.89 18.09C165.02 18.09 165.105 18.065 165.145 18.015C165.195 17.975 165.22 17.895 165.22 17.775V10.14ZM159.865 5.4L161.005 5.67C160.665 6.75 160.235 7.82 159.715 8.88C159.205 9.93 158.59 10.915 157.87 11.835C157.15 12.745 156.32 13.535 155.38 14.205C155.33 14.115 155.26 14.02 155.17 13.92C155.08 13.81 154.99 13.705 154.9 13.605C154.81 13.505 154.725 13.415 154.645 13.335C155.315 12.885 155.925 12.36 156.475 11.76C157.025 11.15 157.515 10.495 157.945 9.795C158.375 9.095 158.75 8.375 159.07 7.635C159.39 6.885 159.655 6.14 159.865 5.4ZM158.395 15.24H165.625V16.215H158.395V15.24ZM158.41 10.14H165.55V11.16H158.41V10.14ZM157.81 10.14H158.935V14.13C158.935 14.54 158.915 14.975 158.875 15.435C158.835 15.895 158.75 16.355 158.62 16.815C158.5 17.275 158.325 17.71 158.095 18.12C157.875 18.54 157.58 18.925 157.21 19.275C157.17 19.195 157.1 19.095 157 18.975C156.9 18.865 156.795 18.755 156.685 18.645C156.585 18.535 156.495 18.455 156.415 18.405C156.845 17.995 157.155 17.55 157.345 17.07C157.545 16.59 157.67 16.095 157.72 15.585C157.78 15.075 157.81 14.585 157.81 14.115V10.14ZM169.735 8.295H173.515V9.345H169.735V8.295ZM171.325 5.4L172.3 5.4V19.185H171.325V5.4ZM171.31 8.925L171.895 9.18C171.815 9.76 171.705 10.37 171.565 11.01C171.425 11.65 171.265 12.28 171.085 12.9C170.915 13.51 170.73 14.08 170.53 14.61C170.34 15.14 170.135 15.59 169.915 15.96C169.885 15.85 169.84 15.73 169.78 15.6C169.72 15.46 169.655 15.325 169.585 15.195C169.525 15.065 169.465 14.955 169.405 14.865C169.605 14.535 169.8 14.14 169.99 13.68C170.18 13.21 170.36 12.71 170.53 12.18C170.7 11.64 170.85 11.09 170.98 10.53C171.12 9.97 171.23 9.435 171.31 8.925ZM172.21 10.2C172.28 10.29 172.38 10.45 172.51 10.68C172.65 10.9 172.8 11.14 172.96 11.4C173.12 11.66 173.265 11.905 173.395 12.135C173.525 12.355 173.62 12.52 173.68 12.63L173.11 13.455C173.05 13.285 172.96 13.07 172.84 12.81C172.72 12.55 172.59 12.28 172.45 12C172.32 11.72 172.19 11.46 172.06 11.22C171.94 10.97 171.84 10.78 171.76 10.65L172.21 10.2ZM173.83 13.155H183.04V14.07H173.83V13.155ZM175.135 15.15L175.81 14.55C176.07 14.74 176.335 14.95 176.605 15.18C176.885 15.41 177.15 15.64 177.4 15.87C177.65 16.09 177.855 16.285 178.015 16.455L177.31 17.13C177.15 16.95 176.945 16.745 176.695 16.515C176.455 16.285 176.2 16.05 175.93 15.81C175.66 15.56 175.395 15.34 175.135 15.15ZM180.04 12.195L180.625 11.655C180.895 11.805 181.18 11.985 181.48 12.195C181.78 12.405 182.015 12.585 182.185 12.735L181.6 13.35C181.43 13.18 181.195 12.985 180.895 12.765C180.605 12.545 180.32 12.355 180.04 12.195ZM181.405 14.22L182.365 14.58C181.865 15.6 181.155 16.495 180.235 17.265C179.315 18.025 178.265 18.64 177.085 19.11C177.025 19.01 176.93 18.89 176.8 18.75C176.68 18.61 176.57 18.495 176.47 18.405C177.61 17.965 178.61 17.385 179.47 16.665C180.33 15.945 180.975 15.13 181.405 14.22ZM177.595 5.505H178.57C178.61 7.285 178.705 8.93 178.855 10.44C179.005 11.95 179.215 13.27 179.485 14.4C179.765 15.52 180.115 16.4 180.535 17.04C180.965 17.68 181.48 18.03 182.08 18.09C182.24 18.1 182.37 17.965 182.47 17.685C182.57 17.405 182.65 16.995 182.71 16.455C182.78 16.525 182.86 16.6 182.95 16.68C183.05 16.75 183.145 16.815 183.235 16.875C183.325 16.935 183.405 16.98 183.475 17.01C183.375 17.57 183.255 18.01 183.115 18.33C182.985 18.65 182.835 18.875 182.665 19.005C182.505 19.135 182.32 19.195 182.11 19.185C181.44 19.145 180.86 18.895 180.37 18.435C179.89 17.975 179.48 17.335 179.14 16.515C178.81 15.695 178.54 14.725 178.33 13.605C178.12 12.485 177.955 11.245 177.835 9.885C177.725 8.515 177.645 7.055 177.595 5.505ZM176.275 10.02L176.995 9.825C177.155 10.185 177.305 10.58 177.445 11.01C177.595 11.43 177.7 11.78 177.76 12.06L177.01 12.315C176.95 12.015 176.85 11.65 176.71 11.22C176.58 10.79 176.435 10.39 176.275 10.02ZM173.995 9.615C173.975 9.525 173.935 9.39 173.875 9.21C173.825 9.03 173.775 8.885 173.725 8.775C173.815 8.755 173.905 8.7 173.995 8.61C174.095 8.51 174.195 8.385 174.295 8.235C174.365 8.135 174.475 7.95 174.625 7.68C174.775 7.41 174.935 7.095 175.105 6.735C175.285 6.375 175.435 6.005 175.555 5.625L176.41 5.91C176.15 6.51 175.855 7.1 175.525 7.68C175.195 8.25 174.865 8.73 174.535 9.12V9.15C174.535 9.15 174.49 9.175 174.4 9.225C174.31 9.275 174.22 9.335 174.13 9.405C174.04 9.475 173.995 9.545 173.995 9.615ZM173.995 9.615L173.98 8.955L174.43 8.685L176.545 8.46C176.485 8.58 176.425 8.715 176.365 8.865C176.315 9.015 176.275 9.13 176.245 9.21C175.675 9.28 175.235 9.34 174.925 9.39C174.625 9.44 174.41 9.485 174.28 9.525C174.16 9.555 174.065 9.585 173.995 9.615ZM174.13 12.195C174.13 12.125 174.11 12.04 174.07 11.94C174.04 11.84 174.005 11.735 173.965 11.625C173.925 11.505 173.89 11.41 173.86 11.34C173.98 11.31 174.1 11.24 174.22 11.13C174.35 11.01 174.485 10.855 174.625 10.665C174.725 10.545 174.89 10.325 175.12 10.005C175.36 9.675 175.615 9.29 175.885 8.85C176.155 8.41 176.395 7.96 176.605 7.5L177.43 7.815C177.02 8.545 176.57 9.255 176.08 9.945C175.6 10.635 175.125 11.22 174.655 11.7V11.715C174.655 11.715 174.61 11.74 174.52 11.79C174.44 11.84 174.355 11.905 174.265 11.985C174.175 12.055 174.13 12.125 174.13 12.195ZM174.13 12.195L174.115 11.49L174.535 11.22L177.025 10.92C177.035 11.03 177.06 11.155 177.1 11.295C177.14 11.435 177.175 11.55 177.205 11.64C176.585 11.73 176.085 11.805 175.705 11.865C175.325 11.915 175.03 11.96 174.82 12C174.61 12.04 174.455 12.075 174.355 12.105C174.265 12.135 174.19 12.165 174.13 12.195ZM181.675 9.765L182.365 9.555C182.535 9.915 182.7 10.31 182.86 10.74C183.02 11.16 183.13 11.51 183.19 11.79L182.47 12.06C182.4 11.77 182.29 11.405 182.14 10.965C181.99 10.525 181.835 10.125 181.675 9.765ZM179.38 9.315C179.36 9.225 179.32 9.09 179.26 8.91C179.2 8.73 179.145 8.585 179.095 8.475C179.185 8.455 179.27 8.405 179.35 8.325C179.44 8.235 179.525 8.12 179.605 7.98C179.675 7.88 179.775 7.71 179.905 7.47C180.035 7.23 180.175 6.945 180.325 6.615C180.475 6.275 180.605 5.935 180.715 5.595L181.54 5.865C181.32 6.425 181.06 6.97 180.76 7.5C180.47 8.02 180.185 8.46 179.905 8.82V8.835C179.905 8.835 179.86 8.865 179.77 8.925C179.69 8.975 179.605 9.035 179.515 9.105C179.425 9.175 179.38 9.245 179.38 9.315ZM179.38 9.315L179.365 8.655L179.8 8.37L181.81 8.175C181.76 8.295 181.705 8.43 181.645 8.58C181.595 8.72 181.555 8.835 181.525 8.925C180.985 8.995 180.565 9.055 180.265 9.105C179.975 9.155 179.77 9.195 179.65 9.225C179.53 9.255 179.44 9.285 179.38 9.315ZM179.53 11.895C179.52 11.835 179.495 11.755 179.455 11.655C179.425 11.545 179.39 11.435 179.35 11.325C179.32 11.205 179.29 11.105 179.26 11.025C179.37 10.995 179.485 10.925 179.605 10.815C179.725 10.695 179.85 10.54 179.98 10.35C180.09 10.22 180.255 9.995 180.475 9.675C180.695 9.345 180.935 8.96 181.195 8.52C181.455 8.07 181.68 7.62 181.87 7.17L182.725 7.5C182.345 8.23 181.92 8.94 181.45 9.63C180.99 10.32 180.53 10.91 180.07 11.4V11.415C180.07 11.415 180.025 11.445 179.935 11.505C179.855 11.555 179.765 11.62 179.665 11.7C179.575 11.77 179.53 11.835 179.53 11.895ZM179.53 11.895L179.515 11.22L179.935 10.935L182.41 10.635C182.43 10.745 182.455 10.87 182.485 11.01C182.525 11.14 182.56 11.25 182.59 11.34C181.97 11.43 181.47 11.505 181.09 11.565C180.71 11.625 180.415 11.675 180.205 11.715C180.005 11.755 179.855 11.79 179.755 11.82C179.665 11.84 179.59 11.865 179.53 11.895ZM174.97 13.5H175.945V14.295C175.945 14.785 175.875 15.325 175.735 15.915C175.605 16.495 175.37 17.07 175.03 17.64C174.69 18.21 174.205 18.735 173.575 19.215C173.525 19.135 173.45 19.05 173.35 18.96C173.26 18.88 173.165 18.795 173.065 18.705C172.975 18.625 172.895 18.565 172.825 18.525C173.415 18.095 173.86 17.635 174.16 17.145C174.47 16.645 174.68 16.145 174.79 15.645C174.91 15.145 174.97 14.685 174.97 14.265V13.5ZM187.42 10.485V12.735H195.535V10.485H187.42ZM186.445 9.705H196.555V13.5H186.445V9.705ZM188.905 8.13H194.14V8.94H188.905V8.13ZM190.975 9.99H191.935V13.125H190.975V9.99ZM188.32 10.935L189.145 10.65C189.335 10.92 189.51 11.215 189.67 11.535C189.84 11.845 189.96 12.12 190.03 12.36L189.175 12.675C189.115 12.435 189.005 12.15 188.845 11.82C188.685 11.49 188.51 11.195 188.32 10.935ZM193.735 10.59L194.695 10.905C194.525 11.225 194.35 11.545 194.17 11.865C193.99 12.185 193.825 12.455 193.675 12.675L192.88 12.405C193.02 12.155 193.175 11.855 193.345 11.505C193.515 11.155 193.645 10.85 193.735 10.59ZM187.33 14.22H195.82V19.14H194.68V15.03H188.44V19.185L187.33 19.185V14.22ZM187.99 16.035L195.16 16.035V16.845L187.99 16.845V16.035ZM188.005 17.88H195.175V18.675H188.005V17.88ZM191.395 5.34L192.385 5.715C191.865 6.395 191.22 7.015 190.45 7.575C189.68 8.125 188.845 8.61 187.945 9.03C187.045 9.45 186.135 9.81 185.215 10.11C185.175 10.03 185.115 9.935 185.035 9.825C184.965 9.715 184.885 9.605 184.795 9.495C184.715 9.385 184.64 9.295 184.57 9.225C185.48 8.975 186.365 8.665 187.225 8.295C188.095 7.925 188.89 7.49 189.61 6.99C190.33 6.49 190.925 5.94 191.395 5.34ZM192.04 5.85C192.39 6.21 192.81 6.56 193.3 6.9C193.8 7.23 194.34 7.54 194.92 7.83C195.5 8.11 196.1 8.36 196.72 8.58C197.35 8.8 197.97 8.98 198.58 9.12C198.45 9.22 198.315 9.36 198.175 9.54C198.045 9.71 197.935 9.865 197.845 10.005C197.245 9.835 196.63 9.625 196 9.375C195.37 9.115 194.755 8.82 194.155 8.49C193.565 8.16 193.015 7.805 192.505 7.425C191.995 7.045 191.55 6.645 191.17 6.225L192.04 5.85Z" fill="black"/>
<path d="M128.914 45.252C128.218 45.252 127.594 45.168 127.042 45C126.49 44.844 125.998 44.628 125.566 44.352C125.146 44.064 124.78 43.746 124.468 43.398L125.71 41.724C126.118 42.096 126.562 42.42 127.042 42.696C127.534 42.96 128.08 43.092 128.68 43.092C129.136 43.092 129.532 43.02 129.868 42.876C130.216 42.732 130.48 42.522 130.66 42.246C130.852 41.97 130.948 41.634 130.948 41.238C130.948 40.794 130.84 40.416 130.624 40.104C130.42 39.78 130.054 39.534 129.526 39.366C128.998 39.198 128.254 39.114 127.294 39.114V37.206C128.11 37.206 128.752 37.122 129.22 36.954C129.688 36.774 130.018 36.534 130.21 36.234C130.414 35.922 130.516 35.568 130.516 35.172C130.516 34.656 130.36 34.254 130.048 33.966C129.736 33.666 129.298 33.516 128.734 33.516C128.266 33.516 127.828 33.624 127.42 33.84C127.024 34.044 126.628 34.326 126.232 34.686L124.864 33.048C125.452 32.556 126.07 32.166 126.718 31.878C127.366 31.578 128.08 31.428 128.86 31.428C129.712 31.428 130.462 31.566 131.11 31.842C131.77 32.118 132.28 32.52 132.64 33.048C133 33.576 133.18 34.218 133.18 34.974C133.18 35.694 132.988 36.312 132.604 36.828C132.22 37.344 131.674 37.74 130.966 38.016V38.106C131.458 38.238 131.902 38.454 132.298 38.754C132.706 39.042 133.024 39.408 133.252 39.852C133.492 40.296 133.612 40.812 133.612 41.4C133.612 42.204 133.396 42.894 132.964 43.47C132.544 44.046 131.974 44.49 131.254 44.802C130.546 45.102 129.766 45.252 128.914 45.252ZM139.927 45.252C139.027 45.252 138.235 44.994 137.551 44.478C136.879 43.95 136.351 43.17 135.967 42.138C135.595 41.094 135.409 39.804 135.409 38.268C135.409 36.744 135.595 35.478 135.967 34.47C136.351 33.45 136.879 32.688 137.551 32.184C138.235 31.68 139.027 31.428 139.927 31.428C140.839 31.428 141.631 31.686 142.303 32.202C142.975 32.706 143.497 33.462 143.869 34.47C144.253 35.478 144.445 36.744 144.445 38.268C144.445 39.804 144.253 41.094 143.869 42.138C143.497 43.17 142.975 43.95 142.303 44.478C141.631 44.994 140.839 45.252 139.927 45.252ZM139.927 43.182C140.323 43.182 140.671 43.032 140.971 42.732C141.271 42.432 141.505 41.928 141.673 41.22C141.841 40.5 141.925 39.516 141.925 38.268C141.925 37.032 141.841 36.066 141.673 35.37C141.505 34.662 141.271 34.17 140.971 33.894C140.671 33.606 140.323 33.462 139.927 33.462C139.555 33.462 139.213 33.606 138.901 33.894C138.601 34.17 138.361 34.662 138.181 35.37C138.001 36.066 137.911 37.032 137.911 38.268C137.911 39.516 138.001 40.5 138.181 41.22C138.361 41.928 138.601 42.432 138.901 42.732C139.213 43.032 139.555 43.182 139.927 43.182ZM148.168 45.252C147.688 45.252 147.292 45.084 146.98 44.748C146.668 44.412 146.512 44.004 146.512 43.524C146.512 43.02 146.668 42.606 146.98 42.282C147.292 41.958 147.688 41.796 148.168 41.796C148.636 41.796 149.026 41.958 149.338 42.282C149.65 42.606 149.806 43.02 149.806 43.524C149.806 44.004 149.65 44.412 149.338 44.748C149.026 45.084 148.636 45.252 148.168 45.252ZM156.074 45.252C155.366 45.252 154.736 45.168 154.184 45C153.632 44.832 153.14 44.61 152.708 44.334C152.276 44.058 151.892 43.758 151.556 43.434L152.78 41.742C153.032 41.994 153.302 42.222 153.59 42.426C153.89 42.63 154.214 42.792 154.562 42.912C154.922 43.032 155.306 43.092 155.714 43.092C156.17 43.092 156.572 42.996 156.92 42.804C157.28 42.612 157.562 42.336 157.766 41.976C157.97 41.604 158.072 41.16 158.072 40.644C158.072 39.876 157.862 39.282 157.442 38.862C157.034 38.442 156.494 38.232 155.822 38.232C155.438 38.232 155.108 38.286 154.832 38.394C154.556 38.49 154.22 38.664 153.824 38.916L152.618 38.142L152.978 31.662H160.106V33.894H155.264L155.012 36.72C155.276 36.6 155.534 36.51 155.786 36.45C156.038 36.39 156.314 36.36 156.614 36.36C157.358 36.36 158.042 36.51 158.666 36.81C159.29 37.098 159.788 37.554 160.16 38.178C160.532 38.802 160.718 39.6 160.718 40.572C160.718 41.556 160.496 42.402 160.052 43.11C159.62 43.806 159.05 44.34 158.342 44.712C157.646 45.072 156.89 45.252 156.074 45.252ZM162.479 45V43.47C163.691 42.39 164.723 41.388 165.575 40.464C166.439 39.54 167.099 38.682 167.555 37.89C168.011 37.086 168.239 36.342 168.239 35.658C168.239 35.226 168.161 34.848 168.005 34.524C167.849 34.2 167.621 33.954 167.321 33.786C167.033 33.606 166.673 33.516 166.241 33.516C165.761 33.516 165.317 33.654 164.909 33.93C164.513 34.194 164.147 34.512 163.811 34.884L162.335 33.462C162.959 32.79 163.595 32.286 164.243 31.95C164.903 31.602 165.683 31.428 166.583 31.428C167.423 31.428 168.155 31.602 168.779 31.95C169.415 32.286 169.907 32.76 170.255 33.372C170.603 33.984 170.777 34.704 170.777 35.532C170.777 36.336 170.573 37.158 170.165 37.998C169.769 38.826 169.235 39.654 168.563 40.482C167.891 41.31 167.147 42.126 166.331 42.93C166.679 42.882 167.051 42.846 167.447 42.822C167.855 42.786 168.215 42.768 168.527 42.768H171.407V45H162.479ZM176.138 39.87C175.514 39.87 174.956 39.702 174.464 39.366C173.972 39.03 173.588 38.544 173.312 37.908C173.036 37.272 172.898 36.51 172.898 35.622C172.898 34.734 173.036 33.978 173.312 33.354C173.588 32.73 173.972 32.256 174.464 31.932C174.956 31.596 175.514 31.428 176.138 31.428C176.786 31.428 177.35 31.596 177.83 31.932C178.322 32.256 178.706 32.73 178.982 33.354C179.258 33.978 179.396 34.734 179.396 35.622C179.396 36.51 179.258 37.272 178.982 37.908C178.706 38.544 178.322 39.03 177.83 39.366C177.35 39.702 176.786 39.87 176.138 39.87ZM176.138 38.376C176.522 38.376 176.846 38.166 177.11 37.746C177.386 37.314 177.524 36.606 177.524 35.622C177.524 34.65 177.386 33.96 177.11 33.552C176.846 33.132 176.522 32.922 176.138 32.922C175.754 32.922 175.424 33.132 175.148 33.552C174.884 33.96 174.752 34.65 174.752 35.622C174.752 36.606 174.884 37.314 175.148 37.746C175.424 38.166 175.754 38.376 176.138 38.376ZM176.57 45.252L183.824 31.428H185.39L178.154 45.252H176.57ZM185.84 45.252C185.204 45.252 184.64 45.084 184.148 44.748C183.668 44.412 183.284 43.926 182.996 43.29C182.72 42.654 182.582 41.892 182.582 41.004C182.582 40.104 182.72 39.342 182.996 38.718C183.284 38.094 183.668 37.62 184.148 37.296C184.64 36.96 185.204 36.792 185.84 36.792C186.464 36.792 187.016 36.96 187.496 37.296C187.988 37.62 188.372 38.094 188.648 38.718C188.936 39.342 189.08 40.104 189.08 41.004C189.08 41.892 188.936 42.654 188.648 43.29C188.372 43.926 187.988 44.412 187.496 44.748C187.016 45.084 186.464 45.252 185.84 45.252ZM185.84 43.74C186.224 43.74 186.548 43.53 186.812 43.11C187.076 42.678 187.208 41.976 187.208 41.004C187.208 40.008 187.076 39.312 186.812 38.916C186.548 38.508 186.224 38.304 185.84 38.304C185.444 38.304 185.114 38.508 184.85 38.916C184.586 39.312 184.454 40.008 184.454 41.004C184.454 41.976 184.586 42.678 184.85 43.11C185.114 43.53 185.444 43.74 185.84 43.74Z" fill="#0095CC"/>
<path d="M6.69 12L5.865 12.345C5.82 12.135 5.73 11.925 5.64 11.67C2.175 12.015 1.755 12.09 1.455 12.225C1.425 12.03 1.275 11.58 1.17 11.325C1.455 11.295 1.77 11.04 2.16 10.65C2.355 10.485 2.745 10.065 3.225 9.54C1.8 9.69 1.5 9.765 1.335 9.855C1.275 9.645 1.155 9.21 1.065 8.985C1.26 8.94 1.5 8.715 1.74 8.4C1.995 8.085 2.865 6.84 3.39 5.625L4.245 5.955C3.675 7.005 2.985 8.04 2.325 8.85L3.9 8.715C4.245 8.28 4.59 7.8 4.89 7.32L5.745 7.695C4.8 9 3.735 10.215 2.685 11.145L5.31 10.935C5.13 10.56 4.92 10.215 4.725 9.9L5.52 9.615C6.015 10.35 6.525 11.355 6.69 12ZM11.37 14.16L12.39 14.475C11.91 15.33 11.25 16.08 10.485 16.725C11.13 17.52 11.85 17.955 12.63 17.955C13.2 17.955 13.38 17.565 13.5 16.035C13.74 16.275 14.1 16.47 14.385 16.575C14.145 18.495 13.755 19.02 12.585 19.02C11.445 19.02 10.455 18.42 9.615 17.37C8.58 18.09 7.365 18.66 6.15 19.095C6 18.885 5.64 18.465 5.415 18.255C6.735 17.85 8.01 17.31 9.075 16.575C8.625 15.825 8.22 14.94 7.89 13.935H4.41C4.38 14.265 4.335 14.625 4.275 14.955C5.13 15.435 6.12 16.11 6.63 16.605L5.895 17.34C5.505 16.935 4.77 16.365 4.035 15.9C3.63 17.28 2.835 18.51 1.5 19.2C1.35 18.99 0.975 18.63 0.75 18.465C2.565 17.58 3.195 15.705 3.3 13.935H0.84V12.975H7.605C7.005 10.77 6.675 8.145 6.645 5.46H7.74C7.74 8.25 8.1 10.875 8.73 12.975H11.475C11.07 12.66 10.47 12.285 9.975 12.045L10.455 11.565C9.435 11.7 9.195 11.76 9.015 11.82C8.985 11.64 8.85 11.19 8.745 10.95C9.015 10.905 9.33 10.635 9.705 10.26C9.9 10.095 10.29 9.675 10.74 9.15C9.345 9.3 9.06 9.39 8.88 9.465C8.835 9.27 8.715 8.82 8.61 8.595C8.805 8.565 9 8.37 9.24 8.055C9.465 7.77 10.26 6.615 10.71 5.52L11.565 5.835C11.055 6.795 10.455 7.74 9.855 8.475L11.385 8.355C11.745 7.905 12.09 7.41 12.405 6.93L13.245 7.305C12.315 8.595 11.28 9.795 10.26 10.755L12.54 10.53C12.36 10.185 12.15 9.855 11.94 9.555L12.72 9.21C13.29 9.975 13.86 10.995 14.04 11.67L13.215 12.045C13.155 11.835 13.05 11.565 12.915 11.28C11.94 11.385 11.22 11.475 10.695 11.535C11.28 11.82 11.925 12.21 12.285 12.54L11.85 12.975H14.205V13.935H9.03C9.3 14.685 9.6 15.345 9.93 15.915C10.515 15.39 11.01 14.82 11.37 14.16ZM29.175 12.495V13.62H23.22V17.64C23.22 18.45 22.98 18.795 22.41 18.96C21.855 19.155 20.895 19.17 19.32 19.17C19.23 18.855 19.02 18.345 18.825 18.03C20.085 18.075 21.255 18.06 21.6 18.06C21.93 18.045 22.05 17.94 22.05 17.625V13.62H15.87V12.495H22.05V7.53C20.37 7.68 18.66 7.77 17.1 7.815C17.07 7.5 16.935 7.08 16.83 6.81C20.415 6.675 24.81 6.315 27.255 5.67L27.84 6.675C26.58 6.99 24.96 7.245 23.22 7.41V12.495H29.175ZM17.52 8.625L18.495 8.295C19.095 9.315 19.725 10.68 19.95 11.535L18.93 11.94C18.72 11.085 18.105 9.69 17.52 8.625ZM25.98 11.91L25.08 11.535C25.635 10.605 26.34 9.09 26.7 8.025L27.885 8.43C27.285 9.615 26.565 11.025 25.98 11.91ZM42.24 7.845H38.01C37.515 9.645 36.72 11.055 35.58 12.075C35.385 11.895 34.905 11.535 34.635 11.37C36.225 10.125 37.005 8.055 37.32 5.445L38.46 5.595C38.4 6.015 38.34 6.42 38.25 6.81H43.425C43.425 6.81 43.41 7.125 43.38 7.29C43.2 9.885 43.005 10.92 42.615 11.34C42.345 11.625 42.06 11.7 41.625 11.73C41.235 11.76 40.5 11.76 39.735 11.715C39.705 11.4 39.57 10.965 39.39 10.695C40.14 10.755 40.875 10.77 41.16 10.77C41.415 10.77 41.55 10.755 41.685 10.635C41.94 10.395 42.105 9.645 42.24 7.845ZM34.785 7.215L34.125 8.1C33.555 7.56 32.385 6.825 31.425 6.375L32.04 5.58C33 5.985 34.185 6.66 34.785 7.215ZM34.005 11.1L33.39 12.03C32.79 11.52 31.605 10.83 30.63 10.395L31.23 9.585C32.19 9.96 33.405 10.605 34.005 11.1ZM33.78 13.41L34.605 14.115C33.87 15.69 32.88 17.55 32.055 18.93L31.11 18.21C31.875 17.055 32.955 15.105 33.78 13.41ZM41.94 13.425H37.485C38.01 14.4 38.745 15.27 39.675 16.005C40.62 15.315 41.4 14.445 41.94 13.425ZM42.735 12.375L43.455 12.69C42.855 14.355 41.85 15.645 40.59 16.65C41.7 17.34 42.99 17.85 44.415 18.15C44.16 18.375 43.845 18.84 43.695 19.14C42.18 18.75 40.815 18.135 39.645 17.31C38.25 18.18 36.645 18.765 34.965 19.125C34.875 18.84 34.62 18.375 34.41 18.135C35.955 17.865 37.455 17.355 38.76 16.605C37.815 15.78 37.035 14.805 36.45 13.68L37.185 13.425H35.445V12.42H42.525L42.735 12.375ZM56.205 12.69V11.175H49.95V12.69H56.205ZM49.905 15.225H56.205V13.65H49.95V14.115C49.95 14.475 49.935 14.835 49.905 15.225ZM59.055 8.43H50.955C50.67 9.015 50.37 9.615 50.04 10.17H57.3V17.745C57.3 18.42 57.15 18.75 56.67 18.93C56.175 19.11 55.335 19.125 54.06 19.125C54.015 18.795 53.85 18.345 53.685 18.03C54.69 18.075 55.59 18.06 55.86 18.06C56.115 18.045 56.205 17.97 56.205 17.745V16.185H49.77C49.575 17.28 49.125 18.405 48.24 19.23C48.105 18.99 47.7 18.525 47.46 18.36C48.705 17.16 48.84 15.51 48.84 14.085V11.895C48.135 12.75 47.325 13.545 46.41 14.19C46.26 13.95 45.915 13.545 45.705 13.32C47.46 12.135 48.81 10.365 49.74 8.43H46.005V7.38L50.22 7.38C50.475 6.735 50.7 6.09 50.88 5.445L51.99 5.715C51.825 6.27 51.63 6.84 51.405 7.38H59.055V8.43ZM74.145 11.805L73.425 12.06C73.38 11.88 73.32 11.64 73.23 11.385C71.07 11.73 70.695 11.805 70.515 11.91C70.455 11.73 70.32 11.265 70.23 11.04C70.455 10.995 70.68 10.74 70.95 10.38C71.115 10.185 71.46 9.69 71.865 9.045C70.755 9.195 70.5 9.27 70.35 9.345C70.305 9.15 70.17 8.745 70.065 8.505C70.245 8.49 70.41 8.295 70.59 8.01C70.74 7.755 71.37 6.66 71.685 5.655L72.495 5.91C72.135 6.795 71.67 7.68 71.205 8.37L72.3 8.25C72.495 7.92 72.675 7.56 72.825 7.215L73.665 7.53C73.035 8.76 72.24 9.96 71.475 10.89L72.99 10.68C72.87 10.38 72.75 10.065 72.63 9.78L73.305 9.585C73.635 10.29 73.995 11.25 74.145 11.805ZM68.745 12.06L68.01 12.315C67.965 12.135 67.905 11.925 67.845 11.685C65.7 12.015 65.355 12.075 65.145 12.195C65.115 12.015 64.995 11.58 64.89 11.355C65.1 11.295 65.355 11.055 65.64 10.68C65.805 10.5 66.195 9.975 66.615 9.33C65.445 9.495 65.16 9.57 65.01 9.645C64.98 9.465 64.845 9.045 64.755 8.82C64.935 8.775 65.1 8.58 65.31 8.28C65.52 7.98 66.21 6.825 66.57 5.685L67.41 5.955C66.99 6.93 66.45 7.92 65.91 8.67L67.095 8.55C67.275 8.22 67.455 7.89 67.605 7.545L68.415 7.86C67.755 9.06 66.96 10.245 66.165 11.175L67.635 10.98C67.515 10.65 67.395 10.335 67.275 10.035L67.98 9.84C68.31 10.56 68.61 11.505 68.745 12.06ZM64.695 12.63L64.14 13.455C63.99 13.05 63.66 12.33 63.345 11.7V19.14H62.37V12.015C61.995 13.56 61.485 15.03 60.975 15.93C60.855 15.615 60.615 15.12 60.45 14.85C61.2 13.635 61.92 11.34 62.28 9.375H60.78V8.325H62.37V5.445H63.345V8.325H64.53V9.375H63.345V10.35C63.675 10.875 64.485 12.255 64.695 12.63ZM72.36 14.22L73.32 14.565C72.855 15.465 72.24 16.26 71.475 16.965C71.91 17.625 72.435 17.985 73.035 18.045C73.35 18.075 73.545 17.505 73.665 16.425C73.845 16.635 74.22 16.89 74.415 16.995C74.13 18.63 73.665 19.185 73.065 19.14C72.09 19.08 71.31 18.54 70.695 17.61C69.915 18.18 69.03 18.675 68.07 19.065C67.95 18.87 67.68 18.54 67.47 18.36C68.505 17.955 69.465 17.43 70.26 16.8C69.915 16.035 69.63 15.105 69.39 14.055H66.945V14.28C66.945 14.385 66.945 14.505 66.93 14.625C67.65 15.18 68.55 15.945 69 16.41L68.31 17.085C67.965 16.71 67.38 16.155 66.795 15.66C66.54 16.86 65.91 18.165 64.59 19.17C64.44 18.96 64.065 18.615 63.855 18.495C65.61 17.205 65.985 15.525 65.985 14.265V14.055H64.845V13.155H69.225C68.865 11.025 68.67 8.43 68.58 5.565H69.54C69.615 8.49 69.825 11.1 70.2 13.155H72.345C71.985 12.84 71.445 12.465 71.01 12.195L71.58 11.67C72.105 11.97 72.795 12.435 73.14 12.75L72.75 13.155H73.995V14.055H70.38C70.575 14.85 70.77 15.54 71.025 16.11C71.58 15.54 72.045 14.895 72.36 14.22ZM85.665 15H79.455V16.02H85.665V15ZM79.455 17.835H85.665V16.815H79.455V17.835ZM78.36 19.125V14.205H86.79V19.08H85.665V18.63H79.455V19.125H78.36ZM84.645 12.675L83.895 12.405C84.165 11.91 84.555 11.115 84.72 10.605L85.665 10.905C85.335 11.55 84.96 12.225 84.645 12.675ZM79.35 10.92L80.145 10.665C80.535 11.19 80.91 11.88 81.045 12.36L80.19 12.675C80.07 12.195 79.725 11.475 79.35 10.92ZM78.45 10.5V12.735H81.99V10.5H78.45ZM86.505 12.735V10.5H82.935V12.735H86.505ZM77.49 13.5V9.72H87.51V13.5H77.49ZM80.625 8.175H84.54C83.82 7.725 83.145 7.215 82.575 6.675C82.005 7.23 81.345 7.74 80.625 8.175ZM82.41 5.4L83.385 5.76C83.31 5.85 83.25 5.955 83.175 6.045C84.585 7.41 87.18 8.625 89.52 9.165C89.28 9.375 88.98 9.765 88.815 10.035C87.6 9.69 86.31 9.18 85.14 8.52V8.985H79.935V8.565C78.795 9.21 77.52 9.72 76.26 10.11C76.14 9.9 75.825 9.465 75.63 9.255C78.345 8.535 81 7.215 82.41 5.4Z" fill="black"/>
<path d="M4.914 45.252C4.218 45.252 3.594 45.168 3.042 45C2.49 44.844 1.998 44.628 1.566 44.352C1.146 44.064 0.78 43.746 0.468 43.398L1.71 41.724C2.118 42.096 2.562 42.42 3.042 42.696C3.534 42.96 4.08 43.092 4.68 43.092C5.136 43.092 5.532 43.02 5.868 42.876C6.216 42.732 6.48 42.522 6.66 42.246C6.852 41.97 6.948 41.634 6.948 41.238C6.948 40.794 6.84 40.416 6.624 40.104C6.42 39.78 6.054 39.534 5.526 39.366C4.998 39.198 4.254 39.114 3.294 39.114V37.206C4.11 37.206 4.752 37.122 5.22 36.954C5.688 36.774 6.018 36.534 6.21 36.234C6.414 35.922 6.516 35.568 6.516 35.172C6.516 34.656 6.36 34.254 6.048 33.966C5.736 33.666 5.298 33.516 4.734 33.516C4.266 33.516 3.828 33.624 3.42 33.84C3.024 34.044 2.628 34.326 2.232 34.686L0.864 33.048C1.452 32.556 2.07 32.166 2.718 31.878C3.366 31.578 4.08 31.428 4.86 31.428C5.712 31.428 6.462 31.566 7.11 31.842C7.77 32.118 8.28 32.52 8.64 33.048C9 33.576 9.18 34.218 9.18 34.974C9.18 35.694 8.988 36.312 8.604 36.828C8.22 37.344 7.674 37.74 6.966 38.016V38.106C7.458 38.238 7.902 38.454 8.298 38.754C8.706 39.042 9.024 39.408 9.252 39.852C9.492 40.296 9.612 40.812 9.612 41.4C9.612 42.204 9.396 42.894 8.964 43.47C8.544 44.046 7.974 44.49 7.254 44.802C6.546 45.102 5.766 45.252 4.914 45.252ZM11.3912 45V43.47C12.6032 42.39 13.6352 41.388 14.4872 40.464C15.3512 39.54 16.0112 38.682 16.4672 37.89C16.9232 37.086 17.1512 36.342 17.1512 35.658C17.1512 35.226 17.0732 34.848 16.9172 34.524C16.7612 34.2 16.5332 33.954 16.2332 33.786C15.9452 33.606 15.5852 33.516 15.1532 33.516C14.6732 33.516 14.2292 33.654 13.8212 33.93C13.4252 34.194 13.0592 34.512 12.7232 34.884L11.2472 33.462C11.8712 32.79 12.5072 32.286 13.1552 31.95C13.8152 31.602 14.5952 31.428 15.4952 31.428C16.3352 31.428 17.0672 31.602 17.6912 31.95C18.3272 32.286 18.8192 32.76 19.1672 33.372C19.5152 33.984 19.6892 34.704 19.6892 35.532C19.6892 36.336 19.4852 37.158 19.0772 37.998C18.6812 38.826 18.1472 39.654 17.4752 40.482C16.8032 41.31 16.0592 42.126 15.2432 42.93C15.5912 42.882 15.9632 42.846 16.3592 42.822C16.7672 42.786 17.1272 42.768 17.4392 42.768H20.3192V45H11.3912ZM24.1684 45.252C23.6884 45.252 23.2924 45.084 22.9804 44.748C22.6684 44.412 22.5124 44.004 22.5124 43.524C22.5124 43.02 22.6684 42.606 22.9804 42.282C23.2924 41.958 23.6884 41.796 24.1684 41.796C24.6364 41.796 25.0264 41.958 25.3384 42.282C25.6504 42.606 25.8064 43.02 25.8064 43.524C25.8064 44.004 25.6504 44.412 25.3384 44.748C25.0264 45.084 24.6364 45.252 24.1684 45.252ZM33.1539 45V36.81C33.1539 36.426 33.1659 35.97 33.1899 35.442C33.2139 34.902 33.2379 34.434 33.2619 34.038H33.1719C33.0159 34.398 32.8479 34.758 32.6679 35.118C32.4879 35.478 32.3019 35.844 32.1099 36.216L30.0399 39.528H37.2039V41.544H27.4659V39.744L32.4339 31.662H35.6199V45H33.1539ZM42.6911 45.252C41.9831 45.252 41.3531 45.168 40.8011 45C40.2491 44.832 39.7571 44.61 39.3251 44.334C38.8931 44.058 38.5091 43.758 38.1731 43.434L39.3971 41.742C39.6491 41.994 39.9191 42.222 40.2071 42.426C40.5071 42.63 40.8311 42.792 41.1791 42.912C41.5391 43.032 41.9231 43.092 42.3311 43.092C42.7871 43.092 43.1891 42.996 43.5371 42.804C43.8971 42.612 44.1791 42.336 44.3831 41.976C44.5871 41.604 44.6891 41.16 44.6891 40.644C44.6891 39.876 44.4791 39.282 44.0591 38.862C43.6511 38.442 43.1111 38.232 42.4391 38.232C42.0551 38.232 41.7251 38.286 41.4491 38.394C41.1731 38.49 40.8371 38.664 40.4411 38.916L39.2351 38.142L39.5951 31.662H46.7231V33.894H41.8811L41.6291 36.72C41.8931 36.6 42.1511 36.51 42.4031 36.45C42.6551 36.39 42.9311 36.36 43.2311 36.36C43.9751 36.36 44.6591 36.51 45.2831 36.81C45.9071 37.098 46.4051 37.554 46.7771 38.178C47.1491 38.802 47.3351 39.6 47.3351 40.572C47.3351 41.556 47.1131 42.402 46.6691 43.11C46.2371 43.806 45.6671 44.34 44.9591 44.712C44.2631 45.072 43.5071 45.252 42.6911 45.252ZM52.1383 39.87C51.5143 39.87 50.9563 39.702 50.4643 39.366C49.9723 39.03 49.5883 38.544 49.3123 37.908C49.0363 37.272 48.8983 36.51 48.8983 35.622C48.8983 34.734 49.0363 33.978 49.3123 33.354C49.5883 32.73 49.9723 32.256 50.4643 31.932C50.9563 31.596 51.5143 31.428 52.1383 31.428C52.7863 31.428 53.3503 31.596 53.8303 31.932C54.3223 32.256 54.7063 32.73 54.9823 33.354C55.2583 33.978 55.3963 34.734 55.3963 35.622C55.3963 36.51 55.2583 37.272 54.9823 37.908C54.7063 38.544 54.3223 39.03 53.8303 39.366C53.3503 39.702 52.7863 39.87 52.1383 39.87ZM52.1383 38.376C52.5223 38.376 52.8463 38.166 53.1103 37.746C53.3863 37.314 53.5243 36.606 53.5243 35.622C53.5243 34.65 53.3863 33.96 53.1103 33.552C52.8463 33.132 52.5223 32.922 52.1383 32.922C51.7543 32.922 51.4243 33.132 51.1483 33.552C50.8843 33.96 50.7523 34.65 50.7523 35.622C50.7523 36.606 50.8843 37.314 51.1483 37.746C51.4243 38.166 51.7543 38.376 52.1383 38.376ZM52.5703 45.252L59.8243 31.428H61.3903L54.1543 45.252H52.5703ZM61.8403 45.252C61.2043 45.252 60.6403 45.084 60.1483 44.748C59.6683 44.412 59.2843 43.926 58.9963 43.29C58.7203 42.654 58.5823 41.892 58.5823 41.004C58.5823 40.104 58.7203 39.342 58.9963 38.718C59.2843 38.094 59.6683 37.62 60.1483 37.296C60.6403 36.96 61.2043 36.792 61.8403 36.792C62.4643 36.792 63.0163 36.96 63.4963 37.296C63.9883 37.62 64.3723 38.094 64.6483 38.718C64.9363 39.342 65.0803 40.104 65.0803 41.004C65.0803 41.892 64.9363 42.654 64.6483 43.29C64.3723 43.926 63.9883 44.412 63.4963 44.748C63.0163 45.084 62.4643 45.252 61.8403 45.252ZM61.8403 43.74C62.2243 43.74 62.5483 43.53 62.8123 43.11C63.0763 42.678 63.2083 41.976 63.2083 41.004C63.2083 40.008 63.0763 39.312 62.8123 38.916C62.5483 38.508 62.2243 38.304 61.8403 38.304C61.4443 38.304 61.1143 38.508 60.8503 38.916C60.5863 39.312 60.4543 40.008 60.4543 41.004C60.4543 41.976 60.5863 42.678 60.8503 43.11C61.1143 43.53 61.4443 43.74 61.8403 43.74Z" fill="#0095CC"/>
<path d="M12.24 177.845H8.01C7.515 179.645 6.72 181.055 5.58 182.075C5.385 181.895 4.905 181.535 4.635 181.37C6.225 180.125 7.005 178.055 7.32 175.445L8.46 175.595C8.4 176.015 8.34 176.42 8.25 176.81H13.425C13.425 176.81 13.41 177.125 13.38 177.29C13.2 179.885 13.005 180.92 12.615 181.34C12.345 181.625 12.06 181.7 11.625 181.73C11.235 181.76 10.5 181.76 9.735 181.715C9.705 181.4 9.57 180.965 9.39 180.695C10.14 180.755 10.875 180.77 11.16 180.77C11.415 180.77 11.55 180.755 11.685 180.635C11.94 180.395 12.105 179.645 12.24 177.845ZM4.785 177.215L4.125 178.1C3.555 177.56 2.385 176.825 1.425 176.375L2.04 175.58C3 175.985 4.185 176.66 4.785 177.215ZM4.005 181.1L3.39 182.03C2.79 181.52 1.605 180.83 0.63 180.395L1.23 179.585C2.19 179.96 3.405 180.605 4.005 181.1ZM3.78 183.41L4.605 184.115C3.87 185.69 2.88 187.55 2.055 188.93L1.11 188.21C1.875 187.055 2.955 185.105 3.78 183.41ZM11.94 183.425H7.485C8.01 184.4 8.745 185.27 9.675 186.005C10.62 185.315 11.4 184.445 11.94 183.425ZM12.735 182.375L13.455 182.69C12.855 184.355 11.85 185.645 10.59 186.65C11.7 187.34 12.99 187.85 14.415 188.15C14.16 188.375 13.845 188.84 13.695 189.14C12.18 188.75 10.815 188.135 9.645 187.31C8.25 188.18 6.645 188.765 4.965 189.125C4.875 188.84 4.62 188.375 4.41 188.135C5.955 187.865 7.455 187.355 8.76 186.605C7.815 185.78 7.035 184.805 6.45 183.68L7.185 183.425H5.445V182.42H12.525L12.735 182.375ZM26.205 182.69V181.175H19.95V182.69H26.205ZM19.905 185.225H26.205V183.65H19.95V184.115C19.95 184.475 19.935 184.835 19.905 185.225ZM29.055 178.43H20.955C20.67 179.015 20.37 179.615 20.04 180.17H27.3V187.745C27.3 188.42 27.15 188.75 26.67 188.93C26.175 189.11 25.335 189.125 24.06 189.125C24.015 188.795 23.85 188.345 23.685 188.03C24.69 188.075 25.59 188.06 25.86 188.06C26.115 188.045 26.205 187.97 26.205 187.745V186.185H19.77C19.575 187.28 19.125 188.405 18.24 189.23C18.105 188.99 17.7 188.525 17.46 188.36C18.705 187.16 18.84 185.51 18.84 184.085V181.895C18.135 182.75 17.325 183.545 16.41 184.19C16.26 183.95 15.915 183.545 15.705 183.32C17.46 182.135 18.81 180.365 19.74 178.43H16.005V177.38H20.22C20.475 176.735 20.7 176.09 20.88 175.445L21.99 175.715C21.825 176.27 21.63 176.84 21.405 177.38H29.055V178.43ZM42.435 178.55V177.155H38.715V178.55H42.435ZM42.435 180.815V179.42H38.715V180.815H42.435ZM42.435 183.11V181.685H38.715V183.11H42.435ZM43.5 176.24V184.025H37.68V176.24H43.5ZM36.225 184.475L37.005 183.905C37.695 184.535 38.625 185.465 39.075 186.02L38.265 186.68C37.83 186.11 36.915 185.15 36.225 184.475ZM31.725 188.36L30.75 187.865C31.35 187.07 31.86 185.795 32.16 184.82L33.135 185.195C32.805 186.2 32.325 187.535 31.725 188.36ZM34.665 184.175H33.6V180.23C32.94 181.46 32.1 182.6 31.26 183.29C31.08 183.035 30.765 182.69 30.54 182.51C31.635 181.73 32.745 180.185 33.405 178.655H30.87V177.68H33.6V175.49H34.665V177.68H37.035V178.655H34.665V179.495C35.235 179.855 36.765 180.995 37.155 181.295L36.555 182.195C36.165 181.82 35.325 181.085 34.665 180.53V184.175ZM36.39 187.82H39.345C40.065 187.82 40.185 187.61 40.245 186.08C40.5 186.275 40.95 186.44 41.265 186.5C41.115 188.375 40.77 188.825 39.42 188.825H36.315C34.695 188.825 34.275 188.525 34.275 187.37V184.985H35.37V187.355C35.37 187.745 35.52 187.82 36.39 187.82ZM41.475 184.955L42.435 184.52C43.05 185.465 43.86 186.755 44.235 187.52L43.2 188.03C42.855 187.25 42.075 185.945 41.475 184.955ZM47.31 177.065V179.675H50.19V177.065H47.31ZM51.345 185.975L51.465 186.95C49.47 187.475 47.385 188.06 45.84 188.465L45.57 187.43L46.35 187.25V182.075H47.28V187.025L48.45 186.725V180.65H46.335V176.09H51.21V180.65H49.455V182.72H51.27V183.71H49.455V186.455C50.07 186.305 50.7 186.14 51.345 185.975ZM52.995 179.825V181.685H57.39V179.825H52.995ZM57.39 177.11H52.995V178.895H57.39V177.11ZM58.545 183.14L59.25 183.92C58.5 184.535 57.495 185.21 56.67 185.69C57.39 186.755 58.32 187.595 59.475 188.09C59.22 188.3 58.89 188.735 58.74 189.035C56.49 187.925 55.155 185.63 54.435 182.675H52.995V187.595L55.65 186.95C55.65 187.28 55.665 187.73 55.71 187.97C52.635 188.81 52.17 188.96 51.885 189.155C51.795 188.915 51.555 188.465 51.375 188.24C51.615 188.12 51.93 187.805 51.93 187.19V176.12H58.41V182.675H55.365C55.575 183.47 55.86 184.22 56.22 184.895C57.015 184.385 57.945 183.695 58.545 183.14ZM2.505 199.14V202.02H6.315V199.14H2.505ZM4.05 204.615H7.47C7.47 204.615 7.455 204.96 7.455 205.095C7.275 208.83 7.125 210.195 6.72 210.66C6.465 210.96 6.21 211.05 5.76 211.08C5.385 211.125 4.65 211.11 3.93 211.08C3.9 210.78 3.795 210.36 3.615 210.105C4.35 210.18 5.055 210.18 5.325 210.18C5.58 210.18 5.7 210.15 5.835 210.015C6.105 209.715 6.255 208.575 6.39 205.62H3.93C3.6 207.795 2.895 209.865 1.32 211.17C1.17 210.93 0.825 210.57 0.555 210.405C2.595 208.785 2.955 205.725 3.105 203.01H1.47V198.135H7.365V203.01H4.185C4.155 203.535 4.11 204.075 4.05 204.615ZM9.975 199.245L9.975 207.495H8.895L8.895 199.245H9.975ZM12.54 197.745H13.65L13.65 209.67C13.65 210.42 13.44 210.765 12.975 210.96C12.48 211.14 11.64 211.155 10.275 211.155C10.215 210.855 10.05 210.345 9.87 210.03C10.92 210.075 11.865 210.06 12.15 210.045C12.42 210.045 12.54 209.955 12.54 209.67L12.54 197.745ZM21.87 197.505H23.1C23.085 198.045 23.07 198.795 22.995 199.68C23.22 201.465 24.12 207.735 29.415 210.09C29.1 210.345 28.77 210.72 28.605 211.035C24.855 209.28 23.25 205.575 22.53 202.785C21.84 205.785 20.25 209.145 16.59 211.095C16.395 210.795 16.035 210.45 15.69 210.225C21.915 207.075 21.825 199.785 21.87 197.505ZM43.92 199.515V200.61H31.05V199.515H37.275C37.065 198.99 36.645 198.255 36.285 197.67L37.32 197.31C37.74 197.91 38.22 198.735 38.43 199.245L37.755 199.515H43.92ZM39.27 201.69L40.125 201.045C41.49 201.975 43.17 203.325 43.98 204.285L43.065 205.005C42.315 204.06 40.65 202.635 39.27 201.69ZM34.8 201.075L35.865 201.495C34.86 202.77 33.285 204.105 31.965 204.96C31.77 204.735 31.35 204.315 31.11 204.12C32.43 203.37 33.9 202.215 34.8 201.075ZM39.75 203.595L40.89 203.91C40.275 205.44 39.435 206.7 38.385 207.705C39.93 208.875 41.91 209.67 44.31 210.045C44.07 210.285 43.77 210.735 43.62 211.05C41.145 210.57 39.135 209.715 37.545 208.425C35.895 209.73 33.84 210.57 31.425 211.185C31.305 210.915 30.975 210.42 30.75 210.18C33.15 209.685 35.175 208.89 36.735 207.69C35.7 206.685 34.905 205.44 34.305 203.985L35.295 203.685C35.805 204.96 36.57 206.085 37.545 207C38.505 206.085 39.255 204.96 39.75 203.595ZM55.53 199.815L54.45 200.235C54.255 199.59 53.715 198.525 53.22 197.745L54.225 197.385C54.735 198.15 55.305 199.17 55.53 199.815ZM48.765 197.49L49.83 197.88C48.975 199.185 47.595 200.58 46.32 201.465C46.185 201.21 45.9 200.775 45.735 200.565C46.875 199.8 48.135 198.54 48.765 197.49ZM49.08 200.805L50.055 201.18C49.71 201.81 49.275 202.455 48.825 203.055V211.155H47.715V204.405C47.205 204.99 46.65 205.5 46.125 205.95C46.02 205.695 45.72 205.125 45.525 204.855C46.845 203.865 48.225 202.35 49.08 200.805ZM55.185 209.625H59.31V210.69H49.83V209.625H54.03V205.77H50.775V204.705H54.03V201.36H50.25V200.295H58.935V201.36H55.185V204.705H58.455V205.77H55.185V209.625ZM67.32 198.855V202.575H68.775V200.07H71.445V198.855H67.32ZM69.645 202.575H71.445V200.85H69.645V202.575ZM66.18 203.46V209.055H65.19V202.575H66.33V197.985H72.465V202.575H73.65V207.945C73.65 208.47 73.56 208.725 73.17 208.89C72.825 209.055 72.24 209.055 71.355 209.055C71.31 208.785 71.175 208.41 71.055 208.155C71.67 208.17 72.24 208.17 72.39 208.17C72.57 208.155 72.63 208.095 72.63 207.945V203.46H66.18ZM70.47 206.805V205.215H68.31V206.805H70.47ZM71.34 204.435V207.585H68.31V208.185H67.455V204.435H71.34ZM63.93 199.77L63.045 200.355C62.685 199.725 61.905 198.675 61.29 197.925L62.145 197.46C62.79 198.195 63.54 199.155 63.93 199.77ZM63.915 204.57L64.41 204.78C64.215 206.01 63.93 207.105 63.555 208.02C64.515 209.7 66.42 209.94 69.255 209.94C70.83 209.94 73.005 209.88 74.52 209.745C74.355 209.985 74.205 210.48 74.16 210.78C72.75 210.87 70.875 210.9 69.24 210.9C66.195 210.9 64.305 210.6 63.135 208.905C62.625 209.88 61.965 210.63 61.245 211.17C61.11 210.945 60.735 210.555 60.51 210.405C61.86 209.475 62.835 207.825 63.3 205.515H61.845C61.47 205.515 61.08 205.605 60.975 205.725C60.9 205.455 60.675 204.945 60.555 204.705C60.78 204.645 61.02 204.555 61.26 204.285C61.605 203.925 62.475 202.74 63.105 201.825H60.75V200.91H63.78L63.96 200.835L64.695 201.165C64.08 202.05 62.985 203.595 62.16 204.6H63.72L63.915 204.57Z" fill="black"/>
<path d="M4.986 237.252C4.278 237.252 3.648 237.168 3.096 237C2.544 236.832 2.052 236.61 1.62 236.334C1.188 236.058 0.804 235.758 0.468 235.434L1.692 233.742C1.944 233.994 2.214 234.222 2.502 234.426C2.802 234.63 3.126 234.792 3.474 234.912C3.834 235.032 4.218 235.092 4.626 235.092C5.082 235.092 5.484 234.996 5.832 234.804C6.192 234.612 6.474 234.336 6.678 233.976C6.882 233.604 6.984 233.16 6.984 232.644C6.984 231.876 6.774 231.282 6.354 230.862C5.946 230.442 5.406 230.232 4.734 230.232C4.35 230.232 4.02 230.286 3.744 230.394C3.468 230.49 3.132 230.664 2.736 230.916L1.53 230.142L1.89 223.662H9.018V225.894H4.176L3.924 228.72C4.188 228.6 4.446 228.51 4.698 228.45C4.95 228.39 5.226 228.36 5.526 228.36C6.27 228.36 6.954 228.51 7.578 228.81C8.202 229.098 8.7 229.554 9.072 230.178C9.444 230.802 9.63 231.6 9.63 232.572C9.63 233.556 9.408 234.402 8.964 235.11C8.532 235.806 7.962 236.34 7.254 236.712C6.558 237.072 5.802 237.252 4.986 237.252ZM13.5512 237.252C13.0712 237.252 12.6752 237.084 12.3632 236.748C12.0512 236.412 11.8952 236.004 11.8952 235.524C11.8952 235.02 12.0512 234.606 12.3632 234.282C12.6752 233.958 13.0712 233.796 13.5512 233.796C14.0192 233.796 14.4092 233.958 14.7212 234.282C15.0332 234.606 15.1892 235.02 15.1892 235.524C15.1892 236.004 15.0332 236.412 14.7212 236.748C14.4092 237.084 14.0192 237.252 13.5512 237.252ZM21.0607 237.252C20.2327 237.252 19.5127 237.102 18.9007 236.802C18.3007 236.502 17.8027 236.148 17.4067 235.74L18.8107 234.138C19.0507 234.414 19.3627 234.642 19.7467 234.822C20.1307 235.002 20.5207 235.092 20.9167 235.092C21.3007 235.092 21.6667 235.008 22.0147 234.84C22.3627 234.66 22.6627 234.378 22.9147 233.994C23.1787 233.598 23.3827 233.076 23.5267 232.428C23.6827 231.78 23.7607 230.982 23.7607 230.034C23.7607 228.894 23.6527 227.988 23.4367 227.316C23.2327 226.644 22.9567 226.164 22.6087 225.876C22.2607 225.576 21.8647 225.426 21.4207 225.426C21.0967 225.426 20.7967 225.516 20.5207 225.696C20.2447 225.876 20.0227 226.146 19.8547 226.506C19.6987 226.866 19.6207 227.322 19.6207 227.874C19.6207 228.39 19.6987 228.822 19.8547 229.17C20.0107 229.506 20.2267 229.758 20.5027 229.926C20.7907 230.094 21.1267 230.178 21.5107 230.178C21.8827 230.178 22.2667 230.064 22.6627 229.836C23.0587 229.608 23.4187 229.224 23.7427 228.684L23.8687 230.466C23.6407 230.79 23.3587 231.072 23.0227 231.312C22.6987 231.552 22.3627 231.738 22.0147 231.87C21.6667 232.002 21.3307 232.068 21.0067 232.068C20.2747 232.068 19.6207 231.918 19.0447 231.618C18.4687 231.306 18.0127 230.844 17.6767 230.232C17.3527 229.608 17.1907 228.822 17.1907 227.874C17.1907 226.962 17.3827 226.176 17.7667 225.516C18.1507 224.844 18.6607 224.328 19.2967 223.968C19.9327 223.608 20.6287 223.428 21.3847 223.428C22.0207 223.428 22.6207 223.56 23.1847 223.824C23.7607 224.076 24.2707 224.472 24.7147 225.012C25.1707 225.54 25.5247 226.224 25.7767 227.064C26.0407 227.892 26.1727 228.882 26.1727 230.034C26.1727 231.294 26.0347 232.38 25.7587 233.292C25.4827 234.192 25.0987 234.936 24.6067 235.524C24.1267 236.112 23.5807 236.55 22.9687 236.838C22.3567 237.114 21.7207 237.252 21.0607 237.252ZM32.0739 237.252C31.3659 237.252 30.7359 237.168 30.1839 237C29.6319 236.832 29.1399 236.61 28.7079 236.334C28.2759 236.058 27.8919 235.758 27.5559 235.434L28.7799 233.742C29.0319 233.994 29.3019 234.222 29.5899 234.426C29.8899 234.63 30.2139 234.792 30.5619 234.912C30.9219 235.032 31.3059 235.092 31.7139 235.092C32.1699 235.092 32.5719 234.996 32.9199 234.804C33.2799 234.612 33.5619 234.336 33.7659 233.976C33.9699 233.604 34.0719 233.16 34.0719 232.644C34.0719 231.876 33.8619 231.282 33.4419 230.862C33.0339 230.442 32.4939 230.232 31.8219 230.232C31.4379 230.232 31.1079 230.286 30.8319 230.394C30.5559 230.49 30.2199 230.664 29.8239 230.916L28.6179 230.142L28.9779 223.662H36.1059V225.894H31.2639L31.0119 228.72C31.2759 228.6 31.5339 228.51 31.7859 228.45C32.0379 228.39 32.3139 228.36 32.6139 228.36C33.3579 228.36 34.0419 228.51 34.6659 228.81C35.2899 229.098 35.7879 229.554 36.1599 230.178C36.5319 230.802 36.7179 231.6 36.7179 232.572C36.7179 233.556 36.4959 234.402 36.0519 235.11C35.6199 235.806 35.0499 236.34 34.3419 236.712C33.6459 237.072 32.8899 237.252 32.0739 237.252ZM41.5211 231.87C40.8971 231.87 40.3391 231.702 39.8471 231.366C39.3551 231.03 38.9711 230.544 38.6951 229.908C38.4191 229.272 38.2811 228.51 38.2811 227.622C38.2811 226.734 38.4191 225.978 38.6951 225.354C38.9711 224.73 39.3551 224.256 39.8471 223.932C40.3391 223.596 40.8971 223.428 41.5211 223.428C42.1691 223.428 42.7331 223.596 43.2131 223.932C43.7051 224.256 44.0891 224.73 44.3651 225.354C44.6411 225.978 44.7791 226.734 44.7791 227.622C44.7791 228.51 44.6411 229.272 44.3651 229.908C44.0891 230.544 43.7051 231.03 43.2131 231.366C42.7331 231.702 42.1691 231.87 41.5211 231.87ZM41.5211 230.376C41.9051 230.376 42.2291 230.166 42.4931 229.746C42.7691 229.314 42.9071 228.606 42.9071 227.622C42.9071 226.65 42.7691 225.96 42.4931 225.552C42.2291 225.132 41.9051 224.922 41.5211 224.922C41.1371 224.922 40.8071 225.132 40.5311 225.552C40.2671 225.96 40.1351 226.65 40.1351 227.622C40.1351 228.606 40.2671 229.314 40.5311 229.746C40.8071 230.166 41.1371 230.376 41.5211 230.376ZM41.9531 237.252L49.2071 223.428H50.7731L43.5371 237.252H41.9531ZM51.2231 237.252C50.5871 237.252 50.0231 237.084 49.5311 236.748C49.0511 236.412 48.6671 235.926 48.3791 235.29C48.1031 234.654 47.9651 233.892 47.9651 233.004C47.9651 232.104 48.1031 231.342 48.3791 230.718C48.6671 230.094 49.0511 229.62 49.5311 229.296C50.0231 228.96 50.5871 228.792 51.2231 228.792C51.8471 228.792 52.3991 228.96 52.8791 229.296C53.3711 229.62 53.7551 230.094 54.0311 230.718C54.3191 231.342 54.4631 232.104 54.4631 233.004C54.4631 233.892 54.3191 234.654 54.0311 235.29C53.7551 235.926 53.3711 236.412 52.8791 236.748C52.3991 237.084 51.8471 237.252 51.2231 237.252ZM51.2231 235.74C51.6071 235.74 51.9311 235.53 52.1951 235.11C52.4591 234.678 52.5911 233.976 52.5911 233.004C52.5911 232.008 52.4591 231.312 52.1951 230.916C51.9311 230.508 51.6071 230.304 51.2231 230.304C50.8271 230.304 50.4971 230.508 50.2331 230.916C49.9691 231.312 49.8371 232.008 49.8371 233.004C49.8371 233.976 49.9691 234.678 50.2331 235.11C50.4971 235.53 50.8271 235.74 51.2231 235.74Z" fill="black"/>
<path d="M6 142L6 168" stroke="black"/>
<path d="M38 51L38 97" stroke="black"/>
<path d="M156 51L156 97" stroke="black"/>
<path d="M222 143L222 193.5" stroke="black"/>
<path d="M307 143L307 193.5" stroke="black"/>
</svg>
