<svg width="316" height="252" viewBox="0 0 316 252" fill="none" xmlns="http://www.w3.org/2000/svg">
<path d="M0.66 17V16.19C1.81 15.18 2.755 14.26 3.495 13.43C4.245 12.6 4.8 11.83 5.16 11.12C5.52 10.4 5.7 9.725 5.7 9.095C5.7 8.675 5.625 8.3 5.475 7.97C5.335 7.64 5.115 7.385 4.815 7.205C4.515 7.015 4.135 6.92 3.675 6.92C3.225 6.92 2.805 7.04 2.415 7.28C2.035 7.52 1.695 7.825 1.395 8.195L0.6 7.415C1.04 6.925 1.515 6.535 2.025 6.245C2.535 5.955 3.14 5.81 3.84 5.81C4.5 5.81 5.065 5.945 5.535 6.215C6.015 6.475 6.385 6.85 6.645 7.34C6.915 7.82 7.05 8.385 7.05 9.035C7.05 9.765 6.865 10.505 6.495 11.255C6.135 12.005 5.63 12.77 4.98 13.55C4.34 14.32 3.59 15.11 2.73 15.92C3.02 15.9 3.32 15.88 3.63 15.86C3.95 15.83 4.25 15.815 4.53 15.815H7.575L7.575 17H0.66ZM12.2503 17.195C11.6803 17.195 11.1753 17.125 10.7353 16.985C10.3053 16.845 9.92531 16.665 9.59531 16.445C9.27531 16.225 8.98531 15.99 8.72531 15.74L9.41531 14.84C9.62531 15.05 9.85531 15.25 10.1053 15.44C10.3653 15.62 10.6603 15.77 10.9903 15.89C11.3203 16 11.6953 16.055 12.1153 16.055C12.5453 16.055 12.9353 15.95 13.2853 15.74C13.6453 15.53 13.9303 15.23 14.1403 14.84C14.3503 14.45 14.4553 13.99 14.4553 13.46C14.4553 12.68 14.2453 12.07 13.8253 11.63C13.4153 11.18 12.8653 10.955 12.1753 10.955C11.8153 10.955 11.5003 11.01 11.2303 11.12C10.9603 11.23 10.6653 11.39 10.3453 11.6L9.61031 11.135L9.97031 6.005H15.3103V7.175H11.1703L10.8853 10.355C11.1253 10.215 11.3753 10.11 11.6353 10.04C11.9053 9.96 12.2053 9.92 12.5353 9.92C13.1453 9.92 13.7003 10.045 14.2003 10.295C14.7003 10.535 15.1003 10.915 15.4003 11.435C15.7003 11.955 15.8503 12.62 15.8503 13.43C15.8503 14.23 15.6753 14.91 15.3253 15.47C14.9853 16.03 14.5403 16.46 13.9903 16.76C13.4403 17.05 12.8603 17.195 12.2503 17.195ZM17.3306 13.325V12.275H21.1856V13.325H17.3306ZM22.5008 17V16.19C23.6508 15.18 24.5958 14.26 25.3358 13.43C26.0858 12.6 26.6408 11.83 27.0008 11.12C27.3608 10.4 27.5408 9.725 27.5408 9.095C27.5408 8.675 27.4658 8.3 27.3158 7.97C27.1758 7.64 26.9558 7.385 26.6558 7.205C26.3558 7.015 25.9758 6.92 25.5158 6.92C25.0658 6.92 24.6458 7.04 24.2558 7.28C23.8758 7.52 23.5358 7.825 23.2358 8.195L22.4408 7.415C22.8808 6.925 23.3558 6.535 23.8658 6.245C24.3758 5.955 24.9808 5.81 25.6808 5.81C26.3408 5.81 26.9058 5.945 27.3758 6.215C27.8558 6.475 28.2258 6.85 28.4858 7.34C28.7558 7.82 28.8908 8.385 28.8908 9.035C28.8908 9.765 28.7058 10.505 28.3358 11.255C27.9758 12.005 27.4708 12.77 26.8208 13.55C26.1808 14.32 25.4308 15.11 24.5708 15.92C24.8608 15.9 25.1608 15.88 25.4708 15.86C25.7908 15.83 26.0908 15.815 26.3708 15.815H29.4158V17H22.5008ZM33.6861 17.195C33.0861 17.195 32.5661 17.09 32.1261 16.88C31.6961 16.66 31.3311 16.39 31.0311 16.07L31.7811 15.215C32.0211 15.475 32.3011 15.68 32.6211 15.83C32.9511 15.98 33.2911 16.055 33.6411 16.055C34.0111 16.055 34.3611 15.97 34.6911 15.8C35.0211 15.63 35.3111 15.35 35.5611 14.96C35.8211 14.56 36.0211 14.04 36.1611 13.4C36.3111 12.76 36.3861 11.97 36.3861 11.03C36.3861 10.13 36.2911 9.37 36.1011 8.75C35.9211 8.13 35.6511 7.665 35.2911 7.355C34.9311 7.035 34.4961 6.875 33.9861 6.875C33.6361 6.875 33.3211 6.98 33.0411 7.19C32.7611 7.4 32.5361 7.69 32.3661 8.06C32.1961 8.43 32.1111 8.87 32.1111 9.38C32.1111 9.87 32.1811 10.3 32.3211 10.67C32.4711 11.03 32.6911 11.31 32.9811 11.51C33.2811 11.71 33.6461 11.81 34.0761 11.81C34.4461 11.81 34.8311 11.695 35.2311 11.465C35.6411 11.225 36.0311 10.835 36.4011 10.295L36.4611 11.39C36.2411 11.67 35.9861 11.92 35.6961 12.14C35.4161 12.36 35.1161 12.53 34.7961 12.65C34.4861 12.77 34.1711 12.83 33.8511 12.83C33.2411 12.83 32.7061 12.7 32.2461 12.44C31.7961 12.18 31.4461 11.795 31.1961 11.285C30.9461 10.765 30.8211 10.13 30.8211 9.38C30.8211 8.66 30.9661 8.035 31.2561 7.505C31.5461 6.965 31.9261 6.55 32.3961 6.26C32.8761 5.96 33.4011 5.81 33.9711 5.81C34.5011 5.81 34.9911 5.92 35.4411 6.14C35.8911 6.35 36.2811 6.675 36.6111 7.115C36.9411 7.545 37.2011 8.085 37.3911 8.735C37.5811 9.385 37.6761 10.15 37.6761 11.03C37.6761 12.14 37.5661 13.09 37.3461 13.88C37.1261 14.66 36.8261 15.295 36.4461 15.785C36.0661 16.275 35.6361 16.635 35.1561 16.865C34.6861 17.085 34.1961 17.195 33.6861 17.195ZM47.2114 8.465H48.2464C48.2664 9.705 48.3614 10.85 48.5314 11.9C48.7114 12.95 48.9414 13.865 49.2214 14.645C49.5114 15.425 49.8364 16.03 50.1964 16.46C50.5564 16.89 50.9314 17.105 51.3214 17.105C51.4914 17.105 51.6164 16.95 51.6964 16.64C51.7864 16.33 51.8514 15.82 51.8914 15.11C51.9914 15.21 52.1214 15.31 52.2814 15.41C52.4514 15.5 52.6014 15.565 52.7314 15.605C52.6814 16.255 52.6014 16.76 52.4914 17.12C52.3814 17.49 52.2264 17.75 52.0264 17.9C51.8264 18.05 51.5664 18.125 51.2464 18.125C50.7764 18.125 50.3364 17.96 49.9264 17.63C49.5264 17.3 49.1664 16.84 48.8464 16.25C48.5264 15.66 48.2464 14.965 48.0064 14.165C47.7764 13.355 47.5914 12.47 47.4514 11.51C47.3214 10.54 47.2414 9.525 47.2114 8.465ZM48.9364 9.05L49.4914 8.495C49.8314 8.625 50.1764 8.79 50.5264 8.99C50.8864 9.18 51.1664 9.365 51.3664 9.545L50.7814 10.16C50.5914 9.98 50.3164 9.785 49.9564 9.575C49.6064 9.365 49.2664 9.19 48.9364 9.05ZM50.4664 11.69L51.5014 11.915C50.9914 13.335 50.2914 14.57 49.4014 15.62C48.5114 16.67 47.4814 17.53 46.3114 18.2C46.2614 18.13 46.1914 18.045 46.1014 17.945C46.0114 17.845 45.9164 17.745 45.8164 17.645C45.7164 17.555 45.6264 17.475 45.5464 17.405C46.6964 16.835 47.6964 16.06 48.5464 15.08C49.3964 14.1 50.0364 12.97 50.4664 11.69ZM42.4714 13.325L43.3264 13.505C43.1964 13.965 43.0264 14.415 42.8164 14.855C42.6064 15.295 42.3764 15.67 42.1264 15.98C42.0464 15.92 41.9314 15.84 41.7814 15.74C41.6314 15.64 41.5064 15.56 41.4064 15.5C41.6564 15.21 41.8714 14.875 42.0514 14.495C42.2314 14.115 42.3714 13.725 42.4714 13.325ZM40.8064 10.055H52.4614V11H40.8064V10.055ZM41.9764 11.87H46.7614V12.71H41.9764V11.87ZM39.3814 7.775L52.5964 7.775V8.735H39.3814V7.775ZM46.2214 5.69L51.2164 5.69V6.56L46.2214 6.56V5.69ZM40.2364 10.055H41.2864V12.575C41.2864 12.995 41.2664 13.45 41.2264 13.94C41.1964 14.43 41.1314 14.93 41.0314 15.44C40.9414 15.94 40.8114 16.43 40.6414 16.91C40.4714 17.39 40.2464 17.83 39.9664 18.23C39.9064 18.17 39.8164 18.105 39.6964 18.035C39.5864 17.965 39.4714 17.895 39.3514 17.825C39.2314 17.765 39.1264 17.72 39.0364 17.69C39.3964 17.18 39.6614 16.625 39.8314 16.025C40.0014 15.425 40.1114 14.825 40.1614 14.225C40.2114 13.625 40.2364 13.07 40.2364 12.56V10.055ZM45.5764 4.4H46.6864V8.24H45.5764V4.4ZM41.7964 5.075H42.8614V8.285H41.7964V5.075ZM46.1164 13.445L47.0464 13.595C46.7164 14.655 46.1214 15.58 45.2614 16.37C44.4014 17.16 43.3364 17.745 42.0664 18.125C42.0064 18.035 41.9264 17.915 41.8264 17.765C41.7364 17.625 41.6514 17.515 41.5714 17.435C42.7614 17.095 43.7564 16.58 44.5564 15.89C45.3564 15.19 45.8764 14.375 46.1164 13.445ZM43.9264 12.425H44.8714V15.755H43.9264V12.425Z" fill="black"/>
<rect y="30" width="316" height="21" fill="#B73418"/>
<path d="M263.31 48.252C262.458 48.252 261.696 48.102 261.024 47.802C260.352 47.502 259.818 47.082 259.422 46.542C259.038 46.002 258.846 45.384 258.846 44.688C258.846 44.112 258.948 43.608 259.152 43.176C259.368 42.732 259.65 42.348 259.998 42.024C260.346 41.7 260.724 41.43 261.132 41.214V41.124C260.628 40.764 260.208 40.326 259.872 39.81C259.536 39.282 259.368 38.67 259.368 37.974C259.368 37.254 259.542 36.63 259.89 36.102C260.238 35.574 260.712 35.166 261.312 34.878C261.924 34.59 262.614 34.446 263.382 34.446C264.174 34.446 264.858 34.596 265.434 34.896C266.01 35.184 266.454 35.592 266.766 36.12C267.09 36.648 267.252 37.272 267.252 37.992C267.252 38.424 267.168 38.832 267 39.216C266.844 39.6 266.634 39.948 266.37 40.26C266.118 40.56 265.842 40.818 265.542 41.034V41.124C265.962 41.34 266.34 41.61 266.676 41.934C267.012 42.258 267.282 42.648 267.486 43.104C267.69 43.548 267.792 44.076 267.792 44.688C267.792 45.36 267.6 45.966 267.216 46.506C266.844 47.046 266.322 47.472 265.65 47.784C264.978 48.096 264.198 48.252 263.31 48.252ZM264.138 40.386C264.462 40.038 264.702 39.678 264.858 39.306C265.014 38.934 265.092 38.55 265.092 38.154C265.092 37.794 265.02 37.476 264.876 37.2C264.744 36.912 264.546 36.69 264.282 36.534C264.018 36.378 263.7 36.3 263.328 36.3C262.872 36.3 262.488 36.444 262.176 36.732C261.864 37.02 261.708 37.434 261.708 37.974C261.708 38.382 261.81 38.736 262.014 39.036C262.23 39.324 262.524 39.576 262.896 39.792C263.268 39.996 263.682 40.194 264.138 40.386ZM263.364 46.38C263.748 46.38 264.084 46.314 264.372 46.182C264.672 46.038 264.906 45.834 265.074 45.57C265.242 45.294 265.326 44.97 265.326 44.598C265.326 44.25 265.248 43.95 265.092 43.698C264.948 43.434 264.744 43.206 264.48 43.014C264.216 42.81 263.904 42.624 263.544 42.456C263.184 42.288 262.788 42.108 262.356 41.916C261.996 42.216 261.702 42.582 261.474 43.014C261.246 43.434 261.132 43.896 261.132 44.4C261.132 44.796 261.228 45.144 261.42 45.444C261.624 45.732 261.894 45.96 262.23 46.128C262.566 46.296 262.944 46.38 263.364 46.38ZM273.531 48.252C272.835 48.252 272.211 48.168 271.659 48C271.107 47.844 270.615 47.628 270.183 47.352C269.763 47.064 269.397 46.746 269.085 46.398L270.327 44.724C270.735 45.096 271.179 45.42 271.659 45.696C272.151 45.96 272.697 46.092 273.297 46.092C273.753 46.092 274.149 46.02 274.485 45.876C274.833 45.732 275.097 45.522 275.277 45.246C275.469 44.97 275.565 44.634 275.565 44.238C275.565 43.794 275.457 43.416 275.241 43.104C275.037 42.78 274.671 42.534 274.143 42.366C273.615 42.198 272.871 42.114 271.911 42.114V40.206C272.727 40.206 273.369 40.122 273.837 39.954C274.305 39.774 274.635 39.534 274.827 39.234C275.031 38.922 275.133 38.568 275.133 38.172C275.133 37.656 274.977 37.254 274.665 36.966C274.353 36.666 273.915 36.516 273.351 36.516C272.883 36.516 272.445 36.624 272.037 36.84C271.641 37.044 271.245 37.326 270.849 37.686L269.481 36.048C270.069 35.556 270.687 35.166 271.335 34.878C271.983 34.578 272.697 34.428 273.477 34.428C274.329 34.428 275.079 34.566 275.727 34.842C276.387 35.118 276.897 35.52 277.257 36.048C277.617 36.576 277.797 37.218 277.797 37.974C277.797 38.694 277.605 39.312 277.221 39.828C276.837 40.344 276.291 40.74 275.583 41.016V41.106C276.075 41.238 276.519 41.454 276.915 41.754C277.323 42.042 277.641 42.408 277.869 42.852C278.109 43.296 278.229 43.812 278.229 44.4C278.229 45.204 278.013 45.894 277.581 46.47C277.161 47.046 276.591 47.49 275.871 47.802C275.163 48.102 274.383 48.252 273.531 48.252ZM282.168 48.252C281.688 48.252 281.292 48.084 280.98 47.748C280.668 47.412 280.512 47.004 280.512 46.524C280.512 46.02 280.668 45.606 280.98 45.282C281.292 44.958 281.688 44.796 282.168 44.796C282.636 44.796 283.026 44.958 283.338 45.282C283.65 45.606 283.806 46.02 283.806 46.524C283.806 47.004 283.65 47.412 283.338 47.748C283.026 48.084 282.636 48.252 282.168 48.252ZM290.398 48.252C289.546 48.252 288.784 48.102 288.112 47.802C287.44 47.502 286.906 47.082 286.51 46.542C286.126 46.002 285.934 45.384 285.934 44.688C285.934 44.112 286.036 43.608 286.24 43.176C286.456 42.732 286.738 42.348 287.086 42.024C287.434 41.7 287.812 41.43 288.22 41.214V41.124C287.716 40.764 287.296 40.326 286.96 39.81C286.624 39.282 286.456 38.67 286.456 37.974C286.456 37.254 286.63 36.63 286.978 36.102C287.326 35.574 287.8 35.166 288.4 34.878C289.012 34.59 289.702 34.446 290.47 34.446C291.262 34.446 291.946 34.596 292.522 34.896C293.098 35.184 293.542 35.592 293.854 36.12C294.178 36.648 294.34 37.272 294.34 37.992C294.34 38.424 294.256 38.832 294.088 39.216C293.932 39.6 293.722 39.948 293.458 40.26C293.206 40.56 292.93 40.818 292.63 41.034V41.124C293.05 41.34 293.428 41.61 293.764 41.934C294.1 42.258 294.37 42.648 294.574 43.104C294.778 43.548 294.88 44.076 294.88 44.688C294.88 45.36 294.688 45.966 294.304 46.506C293.932 47.046 293.41 47.472 292.738 47.784C292.066 48.096 291.286 48.252 290.398 48.252ZM291.226 40.386C291.55 40.038 291.79 39.678 291.946 39.306C292.102 38.934 292.18 38.55 292.18 38.154C292.18 37.794 292.108 37.476 291.964 37.2C291.832 36.912 291.634 36.69 291.37 36.534C291.106 36.378 290.788 36.3 290.416 36.3C289.96 36.3 289.576 36.444 289.264 36.732C288.952 37.02 288.796 37.434 288.796 37.974C288.796 38.382 288.898 38.736 289.102 39.036C289.318 39.324 289.612 39.576 289.984 39.792C290.356 39.996 290.77 40.194 291.226 40.386ZM290.452 46.38C290.836 46.38 291.172 46.314 291.46 46.182C291.76 46.038 291.994 45.834 292.162 45.57C292.33 45.294 292.414 44.97 292.414 44.598C292.414 44.25 292.336 43.95 292.18 43.698C292.036 43.434 291.832 43.206 291.568 43.014C291.304 42.81 290.992 42.624 290.632 42.456C290.272 42.288 289.876 42.108 289.444 41.916C289.084 42.216 288.79 42.582 288.562 43.014C288.334 43.434 288.22 43.896 288.22 44.4C288.22 44.796 288.316 45.144 288.508 45.444C288.712 45.732 288.982 45.96 289.318 46.128C289.654 46.296 290.032 46.38 290.452 46.38Z" fill="white"/>
<rect y="55" width="287.675" height="21" fill="#FFA59B"/>
<path d="M233.348 73C233.408 71.848 233.51 70.786 233.654 69.814C233.798 68.83 234.002 67.906 234.266 67.042C234.53 66.166 234.872 65.308 235.292 64.468C235.724 63.628 236.258 62.77 236.894 61.894H230.9V59.662H239.756V61.282C238.988 62.218 238.364 63.118 237.884 63.982C237.416 64.846 237.056 65.722 236.804 66.61C236.564 67.498 236.384 68.458 236.264 69.49C236.156 70.522 236.072 71.692 236.012 73H233.348ZM246.305 73.252C245.681 73.252 245.075 73.12 244.487 72.856C243.911 72.592 243.401 72.19 242.957 71.65C242.513 71.098 242.159 70.402 241.895 69.562C241.643 68.71 241.517 67.696 241.517 66.52C241.517 65.284 241.655 64.216 241.931 63.316C242.219 62.416 242.603 61.684 243.083 61.12C243.563 60.544 244.109 60.118 244.721 59.842C245.345 59.566 245.999 59.428 246.683 59.428C247.499 59.428 248.201 59.578 248.789 59.878C249.389 60.166 249.887 60.52 250.283 60.94L248.879 62.524C248.651 62.26 248.351 62.032 247.979 61.84C247.607 61.648 247.229 61.552 246.845 61.552C246.305 61.552 245.813 61.708 245.369 62.02C244.937 62.332 244.589 62.848 244.325 63.568C244.061 64.288 243.929 65.272 243.929 66.52C243.929 67.672 244.031 68.596 244.235 69.292C244.451 69.976 244.733 70.474 245.081 70.786C245.429 71.098 245.819 71.254 246.251 71.254C246.587 71.254 246.887 71.164 247.151 70.984C247.427 70.792 247.649 70.516 247.817 70.156C247.985 69.784 248.069 69.328 248.069 68.788C248.069 68.26 247.985 67.828 247.817 67.492C247.661 67.156 247.439 66.904 247.151 66.736C246.875 66.568 246.545 66.484 246.161 66.484C245.801 66.484 245.423 66.598 245.027 66.826C244.631 67.042 244.265 67.426 243.929 67.978L243.803 66.196C244.043 65.86 244.325 65.572 244.649 65.332C244.985 65.092 245.327 64.912 245.675 64.792C246.035 64.672 246.359 64.612 246.647 64.612C247.391 64.612 248.051 64.762 248.627 65.062C249.215 65.362 249.671 65.818 249.995 66.43C250.319 67.042 250.481 67.828 250.481 68.788C250.481 69.7 250.289 70.492 249.905 71.164C249.533 71.824 249.029 72.34 248.393 72.712C247.757 73.072 247.061 73.252 246.305 73.252ZM254.168 73.252C253.688 73.252 253.292 73.084 252.98 72.748C252.668 72.412 252.512 72.004 252.512 71.524C252.512 71.02 252.668 70.606 252.98 70.282C253.292 69.958 253.688 69.796 254.168 69.796C254.636 69.796 255.026 69.958 255.338 70.282C255.65 70.606 255.806 71.02 255.806 71.524C255.806 72.004 255.65 72.412 255.338 72.748C255.026 73.084 254.636 73.252 254.168 73.252ZM263.154 73V64.81C263.154 64.426 263.166 63.97 263.19 63.442C263.214 62.902 263.238 62.434 263.262 62.038H263.172C263.016 62.398 262.848 62.758 262.668 63.118C262.488 63.478 262.302 63.844 262.11 64.216L260.04 67.528H267.204V69.544H257.466V67.744L262.434 59.662H265.62V73H263.154Z" fill="white"/>
<path d="M3.945 105.195C3.375 105.195 2.87 105.125 2.43 104.985C2 104.845 1.62 104.66 1.29 104.43C0.96 104.2 0.675 103.95 0.435 103.68L1.14 102.795C1.46 103.125 1.835 103.42 2.265 103.68C2.705 103.93 3.235 104.055 3.855 104.055C4.295 104.055 4.68 103.975 5.01 103.815C5.35 103.645 5.615 103.41 5.805 103.11C5.995 102.8 6.09 102.435 6.09 102.015C6.09 101.575 5.98 101.19 5.76 100.86C5.55 100.53 5.195 100.275 4.695 100.095C4.195 99.905 3.52 99.81 2.67 99.81V98.76C3.43 98.76 4.03 98.67 4.47 98.49C4.91 98.3 5.225 98.045 5.415 97.725C5.615 97.405 5.715 97.05 5.715 96.66C5.715 96.13 5.55 95.71 5.22 95.4C4.89 95.08 4.435 94.92 3.855 94.92C3.415 94.92 3 95.02 2.61 95.22C2.23 95.42 1.885 95.675 1.575 95.985L0.84 95.115C1.26 94.735 1.715 94.425 2.205 94.185C2.705 93.935 3.27 93.81 3.9 93.81C4.52 93.81 5.07 93.92 5.55 94.14C6.04 94.35 6.42 94.66 6.69 95.07C6.97 95.48 7.11 95.975 7.11 96.555C7.11 97.225 6.93 97.78 6.57 98.22C6.21 98.66 5.74 98.985 5.16 99.195V99.27C5.59 99.37 5.98 99.545 6.33 99.795C6.68 100.045 6.96 100.36 7.17 100.74C7.38 101.12 7.485 101.56 7.485 102.06C7.485 102.71 7.325 103.27 7.005 103.74C6.685 104.21 6.26 104.57 5.73 104.82C5.2 105.07 4.605 105.195 3.945 105.195ZM12.4903 105.195C11.8003 105.195 11.1953 104.985 10.6753 104.565C10.1653 104.145 9.77031 103.51 9.49031 102.66C9.21031 101.81 9.07031 100.745 9.07031 99.465C9.07031 98.185 9.21031 97.13 9.49031 96.3C9.77031 95.46 10.1653 94.835 10.6753 94.425C11.1953 94.015 11.8003 93.81 12.4903 93.81C13.1903 93.81 13.7953 94.02 14.3053 94.44C14.8153 94.85 15.2103 95.47 15.4903 96.3C15.7703 97.13 15.9103 98.185 15.9103 99.465C15.9103 100.745 15.7703 101.81 15.4903 102.66C15.2103 103.51 14.8153 104.145 14.3053 104.565C13.7953 104.985 13.1903 105.195 12.4903 105.195ZM12.4903 104.085C12.9103 104.085 13.2753 103.925 13.5853 103.605C13.9053 103.285 14.1503 102.785 14.3203 102.105C14.5003 101.415 14.5903 100.535 14.5903 99.465C14.5903 98.395 14.5003 97.525 14.3203 96.855C14.1503 96.175 13.9053 95.68 13.5853 95.37C13.2753 95.05 12.9103 94.89 12.4903 94.89C12.0803 94.89 11.7153 95.05 11.3953 95.37C11.0753 95.68 10.8253 96.175 10.6453 96.855C10.4753 97.525 10.3903 98.395 10.3903 99.465C10.3903 100.535 10.4753 101.415 10.6453 102.105C10.8253 102.785 11.0753 103.285 11.3953 103.605C11.7153 103.925 12.0803 104.085 12.4903 104.085ZM17.3306 101.325V100.275H21.1856V101.325H17.3306ZM25.7858 105.195C25.2158 105.195 24.7108 105.125 24.2708 104.985C23.8408 104.845 23.4608 104.66 23.1308 104.43C22.8008 104.2 22.5158 103.95 22.2758 103.68L22.9808 102.795C23.3008 103.125 23.6758 103.42 24.1058 103.68C24.5458 103.93 25.0758 104.055 25.6958 104.055C26.1358 104.055 26.5208 103.975 26.8508 103.815C27.1908 103.645 27.4558 103.41 27.6458 103.11C27.8358 102.8 27.9308 102.435 27.9308 102.015C27.9308 101.575 27.8208 101.19 27.6008 100.86C27.3908 100.53 27.0358 100.275 26.5358 100.095C26.0358 99.905 25.3608 99.81 24.5108 99.81V98.76C25.2708 98.76 25.8708 98.67 26.3108 98.49C26.7508 98.3 27.0658 98.045 27.2558 97.725C27.4558 97.405 27.5558 97.05 27.5558 96.66C27.5558 96.13 27.3908 95.71 27.0608 95.4C26.7308 95.08 26.2758 94.92 25.6958 94.92C25.2558 94.92 24.8408 95.02 24.4508 95.22C24.0708 95.42 23.7258 95.675 23.4158 95.985L22.6808 95.115C23.1008 94.735 23.5558 94.425 24.0458 94.185C24.5458 93.935 25.1108 93.81 25.7408 93.81C26.3608 93.81 26.9108 93.92 27.3908 94.14C27.8808 94.35 28.2608 94.66 28.5308 95.07C28.8108 95.48 28.9508 95.975 28.9508 96.555C28.9508 97.225 28.7708 97.78 28.4108 98.22C28.0508 98.66 27.5808 98.985 27.0008 99.195V99.27C27.4308 99.37 27.8208 99.545 28.1708 99.795C28.5208 100.045 28.8008 100.36 29.0108 100.74C29.2208 101.12 29.3258 101.56 29.3258 102.06C29.3258 102.71 29.1658 103.27 28.8458 103.74C28.5258 104.21 28.1008 104.57 27.5708 104.82C27.0408 105.07 26.4458 105.195 25.7858 105.195ZM35.2611 105V97.5C35.2611 97.23 35.2711 96.9 35.2911 96.51C35.3111 96.12 35.3261 95.785 35.3361 95.505H35.2761C35.1361 95.765 34.9911 96.035 34.8411 96.315C34.7011 96.585 34.5511 96.855 34.3911 97.125L31.8861 100.875H38.0211V101.97H30.4611V101.07L35.0361 94.005H36.5511V105H35.2611ZM47.2114 96.465H48.2464C48.2664 97.705 48.3614 98.85 48.5314 99.9C48.7114 100.95 48.9414 101.865 49.2214 102.645C49.5114 103.425 49.8364 104.03 50.1964 104.46C50.5564 104.89 50.9314 105.105 51.3214 105.105C51.4914 105.105 51.6164 104.95 51.6964 104.64C51.7864 104.33 51.8514 103.82 51.8914 103.11C51.9914 103.21 52.1214 103.31 52.2814 103.41C52.4514 103.5 52.6014 103.565 52.7314 103.605C52.6814 104.255 52.6014 104.76 52.4914 105.12C52.3814 105.49 52.2264 105.75 52.0264 105.9C51.8264 106.05 51.5664 106.125 51.2464 106.125C50.7764 106.125 50.3364 105.96 49.9264 105.63C49.5264 105.3 49.1664 104.84 48.8464 104.25C48.5264 103.66 48.2464 102.965 48.0064 102.165C47.7764 101.355 47.5914 100.47 47.4514 99.51C47.3214 98.54 47.2414 97.525 47.2114 96.465ZM48.9364 97.05L49.4914 96.495C49.8314 96.625 50.1764 96.79 50.5264 96.99C50.8864 97.18 51.1664 97.365 51.3664 97.545L50.7814 98.16C50.5914 97.98 50.3164 97.785 49.9564 97.575C49.6064 97.365 49.2664 97.19 48.9364 97.05ZM50.4664 99.69L51.5014 99.915C50.9914 101.335 50.2914 102.57 49.4014 103.62C48.5114 104.67 47.4814 105.53 46.3114 106.2C46.2614 106.13 46.1914 106.045 46.1014 105.945C46.0114 105.845 45.9164 105.745 45.8164 105.645C45.7164 105.555 45.6264 105.475 45.5464 105.405C46.6964 104.835 47.6964 104.06 48.5464 103.08C49.3964 102.1 50.0364 100.97 50.4664 99.69ZM42.4714 101.325L43.3264 101.505C43.1964 101.965 43.0264 102.415 42.8164 102.855C42.6064 103.295 42.3764 103.67 42.1264 103.98C42.0464 103.92 41.9314 103.84 41.7814 103.74C41.6314 103.64 41.5064 103.56 41.4064 103.5C41.6564 103.21 41.8714 102.875 42.0514 102.495C42.2314 102.115 42.3714 101.725 42.4714 101.325ZM40.8064 98.055H52.4614V99H40.8064V98.055ZM41.9764 99.87H46.7614V100.71H41.9764V99.87ZM39.3814 95.775H52.5964V96.735H39.3814V95.775ZM46.2214 93.69H51.2164V94.56H46.2214V93.69ZM40.2364 98.055H41.2864V100.575C41.2864 100.995 41.2664 101.45 41.2264 101.94C41.1964 102.43 41.1314 102.93 41.0314 103.44C40.9414 103.94 40.8114 104.43 40.6414 104.91C40.4714 105.39 40.2464 105.83 39.9664 106.23C39.9064 106.17 39.8164 106.105 39.6964 106.035C39.5864 105.965 39.4714 105.895 39.3514 105.825C39.2314 105.765 39.1264 105.72 39.0364 105.69C39.3964 105.18 39.6614 104.625 39.8314 104.025C40.0014 103.425 40.1114 102.825 40.1614 102.225C40.2114 101.625 40.2364 101.07 40.2364 100.56V98.055ZM45.5764 92.4H46.6864V96.24H45.5764V92.4ZM41.7964 93.075H42.8614V96.285H41.7964V93.075ZM46.1164 101.445L47.0464 101.595C46.7164 102.655 46.1214 103.58 45.2614 104.37C44.4014 105.16 43.3364 105.745 42.0664 106.125C42.0064 106.035 41.9264 105.915 41.8264 105.765C41.7364 105.625 41.6514 105.515 41.5714 105.435C42.7614 105.095 43.7564 104.58 44.5564 103.89C45.3564 103.19 45.8764 102.375 46.1164 101.445ZM43.9264 100.425H44.8714V103.755H43.9264V100.425Z" fill="black"/>
<rect y="118" width="229.255" height="21" fill="#B73418"/>
<path d="M176.688 136.252C176.064 136.252 175.458 136.12 174.87 135.856C174.294 135.592 173.784 135.19 173.34 134.65C172.896 134.098 172.542 133.402 172.278 132.562C172.026 131.71 171.9 130.696 171.9 129.52C171.9 128.284 172.038 127.216 172.314 126.316C172.602 125.416 172.986 124.684 173.466 124.12C173.946 123.544 174.492 123.118 175.104 122.842C175.728 122.566 176.382 122.428 177.066 122.428C177.882 122.428 178.584 122.578 179.172 122.878C179.772 123.166 180.27 123.52 180.666 123.94L179.262 125.524C179.034 125.26 178.734 125.032 178.362 124.84C177.99 124.648 177.612 124.552 177.228 124.552C176.688 124.552 176.196 124.708 175.752 125.02C175.32 125.332 174.972 125.848 174.708 126.568C174.444 127.288 174.312 128.272 174.312 129.52C174.312 130.672 174.414 131.596 174.618 132.292C174.834 132.976 175.116 133.474 175.464 133.786C175.812 134.098 176.202 134.254 176.634 134.254C176.97 134.254 177.27 134.164 177.534 133.984C177.81 133.792 178.032 133.516 178.2 133.156C178.368 132.784 178.452 132.328 178.452 131.788C178.452 131.26 178.368 130.828 178.2 130.492C178.044 130.156 177.822 129.904 177.534 129.736C177.258 129.568 176.928 129.484 176.544 129.484C176.184 129.484 175.806 129.598 175.41 129.826C175.014 130.042 174.648 130.426 174.312 130.978L174.186 129.196C174.426 128.86 174.708 128.572 175.032 128.332C175.368 128.092 175.71 127.912 176.058 127.792C176.418 127.672 176.742 127.612 177.03 127.612C177.774 127.612 178.434 127.762 179.01 128.062C179.598 128.362 180.054 128.818 180.378 129.43C180.702 130.042 180.864 130.828 180.864 131.788C180.864 132.7 180.672 133.492 180.288 134.164C179.916 134.824 179.412 135.34 178.776 135.712C178.14 136.072 177.444 136.252 176.688 136.252ZM186.927 136.252C186.027 136.252 185.235 135.994 184.551 135.478C183.879 134.95 183.351 134.17 182.967 133.138C182.595 132.094 182.409 130.804 182.409 129.268C182.409 127.744 182.595 126.478 182.967 125.47C183.351 124.45 183.879 123.688 184.551 123.184C185.235 122.68 186.027 122.428 186.927 122.428C187.839 122.428 188.631 122.686 189.303 123.202C189.975 123.706 190.497 124.462 190.869 125.47C191.253 126.478 191.445 127.744 191.445 129.268C191.445 130.804 191.253 132.094 190.869 133.138C190.497 134.17 189.975 134.95 189.303 135.478C188.631 135.994 187.839 136.252 186.927 136.252ZM186.927 134.182C187.323 134.182 187.671 134.032 187.971 133.732C188.271 133.432 188.505 132.928 188.673 132.22C188.841 131.5 188.925 130.516 188.925 129.268C188.925 128.032 188.841 127.066 188.673 126.37C188.505 125.662 188.271 125.17 187.971 124.894C187.671 124.606 187.323 124.462 186.927 124.462C186.555 124.462 186.213 124.606 185.901 124.894C185.601 125.17 185.361 125.662 185.181 126.37C185.001 127.066 184.911 128.032 184.911 129.268C184.911 130.516 185.001 131.5 185.181 132.22C185.361 132.928 185.601 133.432 185.901 133.732C186.213 134.032 186.555 134.182 186.927 134.182ZM195.168 136.252C194.688 136.252 194.292 136.084 193.98 135.748C193.668 135.412 193.512 135.004 193.512 134.524C193.512 134.02 193.668 133.606 193.98 133.282C194.292 132.958 194.688 132.796 195.168 132.796C195.636 132.796 196.026 132.958 196.338 133.282C196.65 133.606 196.806 134.02 196.806 134.524C196.806 135.004 196.65 135.412 196.338 135.748C196.026 136.084 195.636 136.252 195.168 136.252ZM201.436 136C201.496 134.848 201.598 133.786 201.742 132.814C201.886 131.83 202.09 130.906 202.354 130.042C202.618 129.166 202.96 128.308 203.38 127.468C203.812 126.628 204.346 125.77 204.982 124.894H198.988V122.662H207.844V124.282C207.076 125.218 206.452 126.118 205.972 126.982C205.504 127.846 205.144 128.722 204.892 129.61C204.652 130.498 204.472 131.458 204.352 132.49C204.244 133.522 204.16 134.692 204.1 136H201.436Z" fill="white"/>
<rect y="143" width="166.409" height="21" fill="#FFA59B"/>
<path d="M114.066 161V152.81C114.066 152.426 114.078 151.97 114.102 151.442C114.126 150.902 114.15 150.434 114.174 150.038H114.084C113.928 150.398 113.76 150.758 113.58 151.118C113.4 151.478 113.214 151.844 113.022 152.216L110.952 155.528H118.116V157.544H108.378V155.744L113.346 147.662H116.532V161H114.066ZM124.683 161V152.81C124.683 152.426 124.695 151.97 124.719 151.442C124.743 150.902 124.767 150.434 124.791 150.038H124.701C124.545 150.398 124.377 150.758 124.197 151.118C124.017 151.478 123.831 151.844 123.639 152.216L121.569 155.528H128.733V157.544H118.995V155.744L123.963 147.662H127.149V161H124.683ZM132.168 161.252C131.688 161.252 131.292 161.084 130.98 160.748C130.668 160.412 130.512 160.004 130.512 159.524C130.512 159.02 130.668 158.606 130.98 158.282C131.292 157.958 131.688 157.796 132.168 157.796C132.636 157.796 133.026 157.958 133.338 158.282C133.65 158.606 133.806 159.02 133.806 159.524C133.806 160.004 133.65 160.412 133.338 160.748C133.026 161.084 132.636 161.252 132.168 161.252ZM136.564 161V158.84H139.444V150.434H137.014V148.778C137.686 148.658 138.262 148.514 138.742 148.346C139.234 148.166 139.69 147.938 140.11 147.662H142.072V158.84H144.574V161H136.564Z" fill="white"/>
<path d="M3.945 193.195C3.375 193.195 2.87 193.125 2.43 192.985C2 192.845 1.62 192.66 1.29 192.43C0.96 192.2 0.675 191.95 0.435 191.68L1.14 190.795C1.46 191.125 1.835 191.42 2.265 191.68C2.705 191.93 3.235 192.055 3.855 192.055C4.295 192.055 4.68 191.975 5.01 191.815C5.35 191.645 5.615 191.41 5.805 191.11C5.995 190.8 6.09 190.435 6.09 190.015C6.09 189.575 5.98 189.19 5.76 188.86C5.55 188.53 5.195 188.275 4.695 188.095C4.195 187.905 3.52 187.81 2.67 187.81V186.76C3.43 186.76 4.03 186.67 4.47 186.49C4.91 186.3 5.225 186.045 5.415 185.725C5.615 185.405 5.715 185.05 5.715 184.66C5.715 184.13 5.55 183.71 5.22 183.4C4.89 183.08 4.435 182.92 3.855 182.92C3.415 182.92 3 183.02 2.61 183.22C2.23 183.42 1.885 183.675 1.575 183.985L0.84 183.115C1.26 182.735 1.715 182.425 2.205 182.185C2.705 181.935 3.27 181.81 3.9 181.81C4.52 181.81 5.07 181.92 5.55 182.14C6.04 182.35 6.42 182.66 6.69 183.07C6.97 183.48 7.11 183.975 7.11 184.555C7.11 185.225 6.93 185.78 6.57 186.22C6.21 186.66 5.74 186.985 5.16 187.195V187.27C5.59 187.37 5.98 187.545 6.33 187.795C6.68 188.045 6.96 188.36 7.17 188.74C7.38 189.12 7.485 189.56 7.485 190.06C7.485 190.71 7.325 191.27 7.005 191.74C6.685 192.21 6.26 192.57 5.73 192.82C5.2 193.07 4.605 193.195 3.945 193.195ZM12.2503 193.195C11.6803 193.195 11.1753 193.125 10.7353 192.985C10.3053 192.845 9.92531 192.665 9.59531 192.445C9.27531 192.225 8.98531 191.99 8.72531 191.74L9.41531 190.84C9.62531 191.05 9.85531 191.25 10.1053 191.44C10.3653 191.62 10.6603 191.77 10.9903 191.89C11.3203 192 11.6953 192.055 12.1153 192.055C12.5453 192.055 12.9353 191.95 13.2853 191.74C13.6453 191.53 13.9303 191.23 14.1403 190.84C14.3503 190.45 14.4553 189.99 14.4553 189.46C14.4553 188.68 14.2453 188.07 13.8253 187.63C13.4153 187.18 12.8653 186.955 12.1753 186.955C11.8153 186.955 11.5003 187.01 11.2303 187.12C10.9603 187.23 10.6653 187.39 10.3453 187.6L9.61031 187.135L9.97031 182.005H15.3103V183.175H11.1703L10.8853 186.355C11.1253 186.215 11.3753 186.11 11.6353 186.04C11.9053 185.96 12.2053 185.92 12.5353 185.92C13.1453 185.92 13.7003 186.045 14.2003 186.295C14.7003 186.535 15.1003 186.915 15.4003 187.435C15.7003 187.955 15.8503 188.62 15.8503 189.43C15.8503 190.23 15.6753 190.91 15.3253 191.47C14.9853 192.03 14.5403 192.46 13.9903 192.76C13.4403 193.05 12.8603 193.195 12.2503 193.195ZM17.3306 189.325V188.275H21.1856V189.325H17.3306ZM25.7858 193.195C25.2158 193.195 24.7108 193.125 24.2708 192.985C23.8408 192.845 23.4608 192.66 23.1308 192.43C22.8008 192.2 22.5158 191.95 22.2758 191.68L22.9808 190.795C23.3008 191.125 23.6758 191.42 24.1058 191.68C24.5458 191.93 25.0758 192.055 25.6958 192.055C26.1358 192.055 26.5208 191.975 26.8508 191.815C27.1908 191.645 27.4558 191.41 27.6458 191.11C27.8358 190.8 27.9308 190.435 27.9308 190.015C27.9308 189.575 27.8208 189.19 27.6008 188.86C27.3908 188.53 27.0358 188.275 26.5358 188.095C26.0358 187.905 25.3608 187.81 24.5108 187.81V186.76C25.2708 186.76 25.8708 186.67 26.3108 186.49C26.7508 186.3 27.0658 186.045 27.2558 185.725C27.4558 185.405 27.5558 185.05 27.5558 184.66C27.5558 184.13 27.3908 183.71 27.0608 183.4C26.7308 183.08 26.2758 182.92 25.6958 182.92C25.2558 182.92 24.8408 183.02 24.4508 183.22C24.0708 183.42 23.7258 183.675 23.4158 183.985L22.6808 183.115C23.1008 182.735 23.5558 182.425 24.0458 182.185C24.5458 181.935 25.1108 181.81 25.7408 181.81C26.3608 181.81 26.9108 181.92 27.3908 182.14C27.8808 182.35 28.2608 182.66 28.5308 183.07C28.8108 183.48 28.9508 183.975 28.9508 184.555C28.9508 185.225 28.7708 185.78 28.4108 186.22C28.0508 186.66 27.5808 186.985 27.0008 187.195V187.27C27.4308 187.37 27.8208 187.545 28.1708 187.795C28.5208 188.045 28.8008 188.36 29.0108 188.74C29.2208 189.12 29.3258 189.56 29.3258 190.06C29.3258 190.71 29.1658 191.27 28.8458 191.74C28.5258 192.21 28.1008 192.57 27.5708 192.82C27.0408 193.07 26.4458 193.195 25.7858 193.195ZM33.6861 193.195C33.0861 193.195 32.5661 193.09 32.1261 192.88C31.6961 192.66 31.3311 192.39 31.0311 192.07L31.7811 191.215C32.0211 191.475 32.3011 191.68 32.6211 191.83C32.9511 191.98 33.2911 192.055 33.6411 192.055C34.0111 192.055 34.3611 191.97 34.6911 191.8C35.0211 191.63 35.3111 191.35 35.5611 190.96C35.8211 190.56 36.0211 190.04 36.1611 189.4C36.3111 188.76 36.3861 187.97 36.3861 187.03C36.3861 186.13 36.2911 185.37 36.1011 184.75C35.9211 184.13 35.6511 183.665 35.2911 183.355C34.9311 183.035 34.4961 182.875 33.9861 182.875C33.6361 182.875 33.3211 182.98 33.0411 183.19C32.7611 183.4 32.5361 183.69 32.3661 184.06C32.1961 184.43 32.1111 184.87 32.1111 185.38C32.1111 185.87 32.1811 186.3 32.3211 186.67C32.4711 187.03 32.6911 187.31 32.9811 187.51C33.2811 187.71 33.6461 187.81 34.0761 187.81C34.4461 187.81 34.8311 187.695 35.2311 187.465C35.6411 187.225 36.0311 186.835 36.4011 186.295L36.4611 187.39C36.2411 187.67 35.9861 187.92 35.6961 188.14C35.4161 188.36 35.1161 188.53 34.7961 188.65C34.4861 188.77 34.1711 188.83 33.8511 188.83C33.2411 188.83 32.7061 188.7 32.2461 188.44C31.7961 188.18 31.4461 187.795 31.1961 187.285C30.9461 186.765 30.8211 186.13 30.8211 185.38C30.8211 184.66 30.9661 184.035 31.2561 183.505C31.5461 182.965 31.9261 182.55 32.3961 182.26C32.8761 181.96 33.4011 181.81 33.9711 181.81C34.5011 181.81 34.9911 181.92 35.4411 182.14C35.8911 182.35 36.2811 182.675 36.6111 183.115C36.9411 183.545 37.2011 184.085 37.3911 184.735C37.5811 185.385 37.6761 186.15 37.6761 187.03C37.6761 188.14 37.5661 189.09 37.3461 189.88C37.1261 190.66 36.8261 191.295 36.4461 191.785C36.0661 192.275 35.6361 192.635 35.1561 192.865C34.6861 193.085 34.1961 193.195 33.6861 193.195ZM47.2114 184.465H48.2464C48.2664 185.705 48.3614 186.85 48.5314 187.9C48.7114 188.95 48.9414 189.865 49.2214 190.645C49.5114 191.425 49.8364 192.03 50.1964 192.46C50.5564 192.89 50.9314 193.105 51.3214 193.105C51.4914 193.105 51.6164 192.95 51.6964 192.64C51.7864 192.33 51.8514 191.82 51.8914 191.11C51.9914 191.21 52.1214 191.31 52.2814 191.41C52.4514 191.5 52.6014 191.565 52.7314 191.605C52.6814 192.255 52.6014 192.76 52.4914 193.12C52.3814 193.49 52.2264 193.75 52.0264 193.9C51.8264 194.05 51.5664 194.125 51.2464 194.125C50.7764 194.125 50.3364 193.96 49.9264 193.63C49.5264 193.3 49.1664 192.84 48.8464 192.25C48.5264 191.66 48.2464 190.965 48.0064 190.165C47.7764 189.355 47.5914 188.47 47.4514 187.51C47.3214 186.54 47.2414 185.525 47.2114 184.465ZM48.9364 185.05L49.4914 184.495C49.8314 184.625 50.1764 184.79 50.5264 184.99C50.8864 185.18 51.1664 185.365 51.3664 185.545L50.7814 186.16C50.5914 185.98 50.3164 185.785 49.9564 185.575C49.6064 185.365 49.2664 185.19 48.9364 185.05ZM50.4664 187.69L51.5014 187.915C50.9914 189.335 50.2914 190.57 49.4014 191.62C48.5114 192.67 47.4814 193.53 46.3114 194.2C46.2614 194.13 46.1914 194.045 46.1014 193.945C46.0114 193.845 45.9164 193.745 45.8164 193.645C45.7164 193.555 45.6264 193.475 45.5464 193.405C46.6964 192.835 47.6964 192.06 48.5464 191.08C49.3964 190.1 50.0364 188.97 50.4664 187.69ZM42.4714 189.325L43.3264 189.505C43.1964 189.965 43.0264 190.415 42.8164 190.855C42.6064 191.295 42.3764 191.67 42.1264 191.98C42.0464 191.92 41.9314 191.84 41.7814 191.74C41.6314 191.64 41.5064 191.56 41.4064 191.5C41.6564 191.21 41.8714 190.875 42.0514 190.495C42.2314 190.115 42.3714 189.725 42.4714 189.325ZM40.8064 186.055H52.4614V187H40.8064V186.055ZM41.9764 187.87H46.7614V188.71H41.9764V187.87ZM39.3814 183.775H52.5964V184.735H39.3814V183.775ZM46.2214 181.69H51.2164V182.56H46.2214V181.69ZM40.2364 186.055H41.2864V188.575C41.2864 188.995 41.2664 189.45 41.2264 189.94C41.1964 190.43 41.1314 190.93 41.0314 191.44C40.9414 191.94 40.8114 192.43 40.6414 192.91C40.4714 193.39 40.2464 193.83 39.9664 194.23C39.9064 194.17 39.8164 194.105 39.6964 194.035C39.5864 193.965 39.4714 193.895 39.3514 193.825C39.2314 193.765 39.1264 193.72 39.0364 193.69C39.3964 193.18 39.6614 192.625 39.8314 192.025C40.0014 191.425 40.1114 190.825 40.1614 190.225C40.2114 189.625 40.2364 189.07 40.2364 188.56V186.055ZM45.5764 180.4H46.6864V184.24H45.5764V180.4ZM41.7964 181.075H42.8614V184.285H41.7964V181.075ZM46.1164 189.445L47.0464 189.595C46.7164 190.655 46.1214 191.58 45.2614 192.37C44.4014 193.16 43.3364 193.745 42.0664 194.125C42.0064 194.035 41.9264 193.915 41.8264 193.765C41.7364 193.625 41.6514 193.515 41.5714 193.435C42.7614 193.095 43.7564 192.58 44.5564 191.89C45.3564 191.19 45.8764 190.375 46.1164 189.445ZM43.9264 188.425H44.8714V191.755H43.9264V188.425Z" fill="black"/>
<rect y="206" width="156" height="21" fill="#B73418"/>
<path d="M104.066 224V215.81C104.066 215.426 104.078 214.97 104.102 214.442C104.126 213.902 104.15 213.434 104.174 213.038H104.084C103.928 213.398 103.76 213.758 103.58 214.118C103.4 214.478 103.214 214.844 103.022 215.216L100.952 218.528H108.116V220.544H98.378V218.744L103.346 210.662H106.532V224H104.066ZM110.093 224V221.84H112.973V213.434H110.543V211.778C111.215 211.658 111.791 211.514 112.271 211.346C112.763 211.166 113.219 210.938 113.639 210.662H115.601V221.84H118.103V224H110.093ZM122.168 224.252C121.688 224.252 121.292 224.084 120.98 223.748C120.668 223.412 120.512 223.004 120.512 222.524C120.512 222.02 120.668 221.606 120.98 221.282C121.292 220.958 121.688 220.796 122.168 220.796C122.636 220.796 123.026 220.958 123.338 221.282C123.65 221.606 123.806 222.02 123.806 222.524C123.806 223.004 123.65 223.412 123.338 223.748C123.026 224.084 122.636 224.252 122.168 224.252ZM131.154 224V215.81C131.154 215.426 131.166 214.97 131.19 214.442C131.214 213.902 131.238 213.434 131.262 213.038H131.172C131.016 213.398 130.848 213.758 130.668 214.118C130.488 214.478 130.302 214.844 130.11 215.216L128.04 218.528H135.204V220.544H125.466V218.744L130.434 210.662H133.62V224H131.154Z" fill="white"/>
<rect y="231" width="89" height="21" fill="#FFA59B"/>
<path d="M31.774 249V247.47C32.986 246.39 34.018 245.388 34.87 244.464C35.734 243.54 36.394 242.682 36.85 241.89C37.306 241.086 37.534 240.342 37.534 239.658C37.534 239.226 37.456 238.848 37.3 238.524C37.144 238.2 36.916 237.954 36.616 237.786C36.328 237.606 35.968 237.516 35.536 237.516C35.056 237.516 34.612 237.654 34.204 237.93C33.808 238.194 33.442 238.512 33.106 238.884L31.63 237.462C32.254 236.79 32.89 236.286 33.538 235.95C34.198 235.602 34.978 235.428 35.878 235.428C36.718 235.428 37.45 235.602 38.074 235.95C38.71 236.286 39.202 236.76 39.55 237.372C39.898 237.984 40.072 238.704 40.072 239.532C40.072 240.336 39.868 241.158 39.46 241.998C39.064 242.826 38.53 243.654 37.858 244.482C37.186 245.31 36.442 246.126 35.626 246.93C35.974 246.882 36.346 246.846 36.742 246.822C37.15 246.786 37.51 246.768 37.822 246.768H40.702V249H31.774ZM46.5312 249.252C45.8352 249.252 45.2112 249.168 44.6592 249C44.1072 248.844 43.6152 248.628 43.1832 248.352C42.7632 248.064 42.3972 247.746 42.0852 247.398L43.3272 245.724C43.7352 246.096 44.1792 246.42 44.6592 246.696C45.1512 246.96 45.6972 247.092 46.2972 247.092C46.7532 247.092 47.1492 247.02 47.4852 246.876C47.8332 246.732 48.0972 246.522 48.2772 246.246C48.4692 245.97 48.5652 245.634 48.5652 245.238C48.5652 244.794 48.4572 244.416 48.2412 244.104C48.0372 243.78 47.6712 243.534 47.1432 243.366C46.6152 243.198 45.8712 243.114 44.9112 243.114V241.206C45.7272 241.206 46.3692 241.122 46.8372 240.954C47.3052 240.774 47.6352 240.534 47.8272 240.234C48.0312 239.922 48.1332 239.568 48.1332 239.172C48.1332 238.656 47.9772 238.254 47.6652 237.966C47.3532 237.666 46.9152 237.516 46.3512 237.516C45.8832 237.516 45.4452 237.624 45.0372 237.84C44.6412 238.044 44.2452 238.326 43.8492 238.686L42.4812 237.048C43.0692 236.556 43.6872 236.166 44.3352 235.878C44.9832 235.578 45.6972 235.428 46.4772 235.428C47.3292 235.428 48.0792 235.566 48.7272 235.842C49.3872 236.118 49.8972 236.52 50.2572 237.048C50.6172 237.576 50.7972 238.218 50.7972 238.974C50.7972 239.694 50.6052 240.312 50.2212 240.828C49.8372 241.344 49.2912 241.74 48.5832 242.016V242.106C49.0752 242.238 49.5192 242.454 49.9152 242.754C50.3232 243.042 50.6412 243.408 50.8692 243.852C51.1092 244.296 51.2292 244.812 51.2292 245.4C51.2292 246.204 51.0132 246.894 50.5812 247.47C50.1612 248.046 49.5912 248.49 48.8712 248.802C48.1632 249.102 47.3832 249.252 46.5312 249.252ZM55.1684 249.252C54.6884 249.252 54.2924 249.084 53.9804 248.748C53.6684 248.412 53.5124 248.004 53.5124 247.524C53.5124 247.02 53.6684 246.606 53.9804 246.282C54.2924 245.958 54.6884 245.796 55.1684 245.796C55.6364 245.796 56.0264 245.958 56.3384 246.282C56.6504 246.606 56.8064 247.02 56.8064 247.524C56.8064 248.004 56.6504 248.412 56.3384 248.748C56.0264 249.084 55.6364 249.252 55.1684 249.252ZM63.3979 249.252C62.5459 249.252 61.7839 249.102 61.1119 248.802C60.4399 248.502 59.9059 248.082 59.5099 247.542C59.1259 247.002 58.9339 246.384 58.9339 245.688C58.9339 245.112 59.0359 244.608 59.2399 244.176C59.4559 243.732 59.7379 243.348 60.0859 243.024C60.4339 242.7 60.8119 242.43 61.2199 242.214V242.124C60.7159 241.764 60.2959 241.326 59.9599 240.81C59.6239 240.282 59.4559 239.67 59.4559 238.974C59.4559 238.254 59.6299 237.63 59.9779 237.102C60.3259 236.574 60.7999 236.166 61.3999 235.878C62.0119 235.59 62.7019 235.446 63.4699 235.446C64.2619 235.446 64.9459 235.596 65.5219 235.896C66.0979 236.184 66.5419 236.592 66.8539 237.12C67.1779 237.648 67.3399 238.272 67.3399 238.992C67.3399 239.424 67.2559 239.832 67.0879 240.216C66.9319 240.6 66.7219 240.948 66.4579 241.26C66.2059 241.56 65.9299 241.818 65.6299 242.034V242.124C66.0499 242.34 66.4279 242.61 66.7639 242.934C67.0999 243.258 67.3699 243.648 67.5739 244.104C67.7779 244.548 67.8799 245.076 67.8799 245.688C67.8799 246.36 67.6879 246.966 67.3039 247.506C66.9319 248.046 66.4099 248.472 65.7379 248.784C65.0659 249.096 64.2859 249.252 63.3979 249.252ZM64.2259 241.386C64.5499 241.038 64.7899 240.678 64.9459 240.306C65.1019 239.934 65.1799 239.55 65.1799 239.154C65.1799 238.794 65.1079 238.476 64.9639 238.2C64.8319 237.912 64.6339 237.69 64.3699 237.534C64.1059 237.378 63.7879 237.3 63.4159 237.3C62.9599 237.3 62.5759 237.444 62.2639 237.732C61.9519 238.02 61.7959 238.434 61.7959 238.974C61.7959 239.382 61.8979 239.736 62.1019 240.036C62.3179 240.324 62.6119 240.576 62.9839 240.792C63.3559 240.996 63.7699 241.194 64.2259 241.386ZM63.4519 247.38C63.8359 247.38 64.1719 247.314 64.4599 247.182C64.7599 247.038 64.9939 246.834 65.1619 246.57C65.3299 246.294 65.4139 245.97 65.4139 245.598C65.4139 245.25 65.3359 244.95 65.1799 244.698C65.0359 244.434 64.8319 244.206 64.5679 244.014C64.3039 243.81 63.9919 243.624 63.6319 243.456C63.2719 243.288 62.8759 243.108 62.4439 242.916C62.0839 243.216 61.7899 243.582 61.5619 244.014C61.3339 244.434 61.2199 244.896 61.2199 245.4C61.2199 245.796 61.3159 246.144 61.5079 246.444C61.7119 246.732 61.9819 246.96 62.3179 247.128C62.6539 247.296 63.0319 247.38 63.4519 247.38Z" fill="white"/>
<path d="M267.66 218V217.19C271.11 214.175 272.7 211.985 272.7 210.095C272.7 208.835 272.04 207.92 270.675 207.92C269.775 207.92 268.995 208.475 268.395 209.195L267.6 208.415C268.5 207.44 269.445 206.795 270.84 206.795C272.805 206.795 274.035 208.085 274.035 210.05C274.035 212.24 272.31 214.475 269.73 216.92C270.3 216.875 270.975 216.815 271.53 216.815H274.575V218H267.66ZM279.49 218.195C277.39 218.195 276.055 216.29 276.055 212.465C276.055 208.64 277.39 206.795 279.49 206.795C281.575 206.795 282.91 208.655 282.91 212.465C282.91 216.29 281.575 218.195 279.49 218.195ZM279.49 217.1C280.735 217.1 281.575 215.705 281.575 212.465C281.575 209.255 280.735 207.89 279.49 207.89C278.23 207.89 277.39 209.255 277.39 212.465C277.39 215.705 278.23 217.1 279.49 217.1ZM284.301 218V217.19C287.751 214.175 289.341 211.985 289.341 210.095C289.341 208.835 288.681 207.92 287.316 207.92C286.416 207.92 285.636 208.475 285.036 209.195L284.241 208.415C285.141 207.44 286.086 206.795 287.481 206.795C289.446 206.795 290.676 208.085 290.676 210.05C290.676 212.24 288.951 214.475 286.371 216.92C286.941 216.875 287.616 216.815 288.171 216.815H291.216V218H284.301ZM293.686 213.875H297.061V210.5C297.061 209.96 297.106 209.075 297.136 208.505H297.076C296.806 209.045 296.506 209.585 296.191 210.125L293.686 213.875ZM297.061 218V214.97H292.261V214.07L296.836 206.99H298.351V213.875H299.806V214.97H298.351V218H297.061ZM304.616 214.64H307.976V211.67H304.616V214.64ZM314.531 214.64V215.72H309.101V219.155H307.976V215.72H301.046V214.64H303.506V210.62H307.976V208.34H304.331C303.656 209.495 302.861 210.515 302.051 211.295C301.841 211.115 301.376 210.74 301.091 210.59C302.501 209.36 303.761 207.425 304.466 205.415L305.591 205.685C305.381 206.21 305.141 206.75 304.901 207.26H313.841V208.34H309.101V210.62H313.496V211.67H309.101V214.64H314.531Z" fill="black"/>
<rect x="245" y="205" width="14" height="14" fill="#BA533D"/>
<path d="M267.66 248V247.19C271.11 244.175 272.7 241.985 272.7 240.095C272.7 238.835 272.04 237.92 270.675 237.92C269.775 237.92 268.995 238.475 268.395 239.195L267.6 238.415C268.5 237.44 269.445 236.795 270.84 236.795C272.805 236.795 274.035 238.085 274.035 240.05C274.035 242.24 272.31 244.475 269.73 246.92C270.3 246.875 270.975 246.815 271.53 246.815H274.575V248H267.66ZM279.49 248.195C277.39 248.195 276.055 246.29 276.055 242.465C276.055 238.64 277.39 236.795 279.49 236.795C281.575 236.795 282.91 238.655 282.91 242.465C282.91 246.29 281.575 248.195 279.49 248.195ZM279.49 247.1C280.735 247.1 281.575 245.705 281.575 242.465C281.575 239.255 280.735 237.89 279.49 237.89C278.23 237.89 277.39 239.255 277.39 242.465C277.39 245.705 278.23 247.1 279.49 247.1ZM287.811 248.195C285.711 248.195 284.376 246.29 284.376 242.465C284.376 238.64 285.711 236.795 287.811 236.795C289.896 236.795 291.231 238.655 291.231 242.465C291.231 246.29 289.896 248.195 287.811 248.195ZM287.811 247.1C289.056 247.1 289.896 245.705 289.896 242.465C289.896 239.255 289.056 237.89 287.811 237.89C286.551 237.89 285.711 239.255 285.711 242.465C285.711 245.705 286.551 247.1 287.811 247.1ZM293.911 240.365C293.911 241.85 294.571 242.81 295.876 242.81C296.626 242.81 297.466 242.375 298.171 241.34C298.021 239.075 297.181 237.875 295.771 237.875C294.721 237.875 293.911 238.865 293.911 240.365ZM295.471 248.195C294.286 248.195 293.446 247.715 292.831 247.07L293.596 246.215C294.046 246.74 294.721 247.055 295.426 247.055C296.851 247.055 298.081 245.885 298.186 242.48C297.511 243.305 296.566 243.83 295.651 243.83C293.821 243.83 292.621 242.645 292.621 240.365C292.621 238.235 294.061 236.795 295.771 236.795C297.886 236.795 299.461 238.535 299.461 242.03C299.461 246.485 297.541 248.195 295.471 248.195ZM304.616 244.64H307.976V241.67H304.616V244.64ZM314.531 244.64V245.72H309.101V249.155H307.976V245.72H301.046V244.64H303.506V240.62H307.976V238.34H304.331C303.656 239.495 302.861 240.515 302.051 241.295C301.841 241.115 301.376 240.74 301.091 240.59C302.501 239.36 303.761 237.425 304.466 235.415L305.591 235.685C305.381 236.21 305.141 236.75 304.901 237.26H313.841V238.34H309.101V240.62H313.496V241.67H309.101V244.64H314.531Z" fill="black"/>
<rect x="245" y="235" width="14" height="14" fill="#FFA59B"/>
</svg>
