<svg width="500" height="246" viewBox="0 0 500 246" fill="none" xmlns="http://www.w3.org/2000/svg">
<path d="M0.66 18V17.19C1.81 16.18 2.755 15.26 3.495 14.43C4.245 13.6 4.8 12.83 5.16 12.12C5.52 11.4 5.7 10.725 5.7 10.095C5.7 9.675 5.625 9.3 5.475 8.97C5.335 8.64 5.115 8.385 4.815 8.205C4.515 8.015 4.135 7.92 3.675 7.92C3.225 7.92 2.805 8.04 2.415 8.28C2.035 8.52 1.695 8.825 1.395 9.195L0.6 8.415C1.04 7.925 1.515 7.535 2.025 7.245C2.535 6.955 3.14 6.81 3.84 6.81C4.5 6.81 5.065 6.945 5.535 7.215C6.015 7.475 6.385 7.85 6.645 8.34C6.915 8.82 7.05 9.385 7.05 10.035C7.05 10.765 6.865 11.505 6.495 12.255C6.135 13.005 5.63 13.77 4.98 14.55C4.34 15.32 3.59 16.11 2.73 16.92C3.02 16.9 3.32 16.88 3.63 16.86C3.95 16.83 4.25 16.815 4.53 16.815H7.575V18H0.66ZM12.2503 18.195C11.6803 18.195 11.1753 18.125 10.7353 17.985C10.3053 17.845 9.92531 17.665 9.59531 17.445C9.27531 17.225 8.98531 16.99 8.72531 16.74L9.41531 15.84C9.62531 16.05 9.85531 16.25 10.1053 16.44C10.3653 16.62 10.6603 16.77 10.9903 16.89C11.3203 17 11.6953 17.055 12.1153 17.055C12.5453 17.055 12.9353 16.95 13.2853 16.74C13.6453 16.53 13.9303 16.23 14.1403 15.84C14.3503 15.45 14.4553 14.99 14.4553 14.46C14.4553 13.68 14.2453 13.07 13.8253 12.63C13.4153 12.18 12.8653 11.955 12.1753 11.955C11.8153 11.955 11.5003 12.01 11.2303 12.12C10.9603 12.23 10.6653 12.39 10.3453 12.6L9.61031 12.135L9.97031 7.005H15.3103V8.175H11.1703L10.8853 11.355C11.1253 11.215 11.3753 11.11 11.6353 11.04C11.9053 10.96 12.2053 10.92 12.5353 10.92C13.1453 10.92 13.7003 11.045 14.2003 11.295C14.7003 11.535 15.1003 11.915 15.4003 12.435C15.7003 12.955 15.8503 13.62 15.8503 14.43C15.8503 15.23 15.6753 15.91 15.3253 16.47C14.9853 17.03 14.5403 17.46 13.9903 17.76C13.4403 18.05 12.8603 18.195 12.2503 18.195ZM17.3306 14.325V13.275H21.1856V14.325H17.3306ZM22.5008 18V17.19C23.6508 16.18 24.5958 15.26 25.3358 14.43C26.0858 13.6 26.6408 12.83 27.0008 12.12C27.3608 11.4 27.5408 10.725 27.5408 10.095C27.5408 9.675 27.4658 9.3 27.3158 8.97C27.1758 8.64 26.9558 8.385 26.6558 8.205C26.3558 8.015 25.9758 7.92 25.5158 7.92C25.0658 7.92 24.6458 8.04 24.2558 8.28C23.8758 8.52 23.5358 8.825 23.2358 9.195L22.4408 8.415C22.8808 7.925 23.3558 7.535 23.8658 7.245C24.3758 6.955 24.9808 6.81 25.6808 6.81C26.3408 6.81 26.9058 6.945 27.3758 7.215C27.8558 7.475 28.2258 7.85 28.4858 8.34C28.7558 8.82 28.8908 9.385 28.8908 10.035C28.8908 10.765 28.7058 11.505 28.3358 12.255C27.9758 13.005 27.4708 13.77 26.8208 14.55C26.1808 15.32 25.4308 16.11 24.5708 16.92C24.8608 16.9 25.1608 16.88 25.4708 16.86C25.7908 16.83 26.0908 16.815 26.3708 16.815H29.4158V18H22.5008ZM33.6861 18.195C33.0861 18.195 32.5661 18.09 32.1261 17.88C31.6961 17.66 31.3311 17.39 31.0311 17.07L31.7811 16.215C32.0211 16.475 32.3011 16.68 32.6211 16.83C32.9511 16.98 33.2911 17.055 33.6411 17.055C34.0111 17.055 34.3611 16.97 34.6911 16.8C35.0211 16.63 35.3111 16.35 35.5611 15.96C35.8211 15.56 36.0211 15.04 36.1611 14.4C36.3111 13.76 36.3861 12.97 36.3861 12.03C36.3861 11.13 36.2911 10.37 36.1011 9.75C35.9211 9.13 35.6511 8.665 35.2911 8.355C34.9311 8.035 34.4961 7.875 33.9861 7.875C33.6361 7.875 33.3211 7.98 33.0411 8.19C32.7611 8.4 32.5361 8.69 32.3661 9.06C32.1961 9.43 32.1111 9.87 32.1111 10.38C32.1111 10.87 32.1811 11.3 32.3211 11.67C32.4711 12.03 32.6911 12.31 32.9811 12.51C33.2811 12.71 33.6461 12.81 34.0761 12.81C34.4461 12.81 34.8311 12.695 35.2311 12.465C35.6411 12.225 36.0311 11.835 36.4011 11.295L36.4611 12.39C36.2411 12.67 35.9861 12.92 35.6961 13.14C35.4161 13.36 35.1161 13.53 34.7961 13.65C34.4861 13.77 34.1711 13.83 33.8511 13.83C33.2411 13.83 32.7061 13.7 32.2461 13.44C31.7961 13.18 31.4461 12.795 31.1961 12.285C30.9461 11.765 30.8211 11.13 30.8211 10.38C30.8211 9.66 30.9661 9.035 31.2561 8.505C31.5461 7.965 31.9261 7.55 32.3961 7.26C32.8761 6.96 33.4011 6.81 33.9711 6.81C34.5011 6.81 34.9911 6.92 35.4411 7.14C35.8911 7.35 36.2811 7.675 36.6111 8.115C36.9411 8.545 37.2011 9.085 37.3911 9.735C37.5811 10.385 37.6761 11.15 37.6761 12.03C37.6761 13.14 37.5661 14.09 37.3461 14.88C37.1261 15.66 36.8261 16.295 36.4461 16.785C36.0661 17.275 35.6361 17.635 35.1561 17.865C34.6861 18.085 34.1961 18.195 33.6861 18.195ZM47.2114 9.465H48.2464C48.2664 10.705 48.3614 11.85 48.5314 12.9C48.7114 13.95 48.9414 14.865 49.2214 15.645C49.5114 16.425 49.8364 17.03 50.1964 17.46C50.5564 17.89 50.9314 18.105 51.3214 18.105C51.4914 18.105 51.6164 17.95 51.6964 17.64C51.7864 17.33 51.8514 16.82 51.8914 16.11C51.9914 16.21 52.1214 16.31 52.2814 16.41C52.4514 16.5 52.6014 16.565 52.7314 16.605C52.6814 17.255 52.6014 17.76 52.4914 18.12C52.3814 18.49 52.2264 18.75 52.0264 18.9C51.8264 19.05 51.5664 19.125 51.2464 19.125C50.7764 19.125 50.3364 18.96 49.9264 18.63C49.5264 18.3 49.1664 17.84 48.8464 17.25C48.5264 16.66 48.2464 15.965 48.0064 15.165C47.7764 14.355 47.5914 13.47 47.4514 12.51C47.3214 11.54 47.2414 10.525 47.2114 9.465ZM48.9364 10.05L49.4914 9.495C49.8314 9.625 50.1764 9.79 50.5264 9.99C50.8864 10.18 51.1664 10.365 51.3664 10.545L50.7814 11.16C50.5914 10.98 50.3164 10.785 49.9564 10.575C49.6064 10.365 49.2664 10.19 48.9364 10.05ZM50.4664 12.69L51.5014 12.915C50.9914 14.335 50.2914 15.57 49.4014 16.62C48.5114 17.67 47.4814 18.53 46.3114 19.2C46.2614 19.13 46.1914 19.045 46.1014 18.945C46.0114 18.845 45.9164 18.745 45.8164 18.645C45.7164 18.555 45.6264 18.475 45.5464 18.405C46.6964 17.835 47.6964 17.06 48.5464 16.08C49.3964 15.1 50.0364 13.97 50.4664 12.69ZM42.4714 14.325L43.3264 14.505C43.1964 14.965 43.0264 15.415 42.8164 15.855C42.6064 16.295 42.3764 16.67 42.1264 16.98C42.0464 16.92 41.9314 16.84 41.7814 16.74C41.6314 16.64 41.5064 16.56 41.4064 16.5C41.6564 16.21 41.8714 15.875 42.0514 15.495C42.2314 15.115 42.3714 14.725 42.4714 14.325ZM40.8064 11.055H52.4614V12H40.8064V11.055ZM41.9764 12.87H46.7614V13.71H41.9764V12.87ZM39.3814 8.775H52.5964V9.735H39.3814V8.775ZM46.2214 6.69L51.2164 6.69V7.56L46.2214 7.56V6.69ZM40.2364 11.055H41.2864V13.575C41.2864 13.995 41.2664 14.45 41.2264 14.94C41.1964 15.43 41.1314 15.93 41.0314 16.44C40.9414 16.94 40.8114 17.43 40.6414 17.91C40.4714 18.39 40.2464 18.83 39.9664 19.23C39.9064 19.17 39.8164 19.105 39.6964 19.035C39.5864 18.965 39.4714 18.895 39.3514 18.825C39.2314 18.765 39.1264 18.72 39.0364 18.69C39.3964 18.18 39.6614 17.625 39.8314 17.025C40.0014 16.425 40.1114 15.825 40.1614 15.225C40.2114 14.625 40.2364 14.07 40.2364 13.56V11.055ZM45.5764 5.4H46.6864V9.24H45.5764V5.4ZM41.7964 6.075H42.8614V9.285H41.7964V6.075ZM46.1164 14.445L47.0464 14.595C46.7164 15.655 46.1214 16.58 45.2614 17.37C44.4014 18.16 43.3364 18.745 42.0664 19.125C42.0064 19.035 41.9264 18.915 41.8264 18.765C41.7364 18.625 41.6514 18.515 41.5714 18.435C42.7614 18.095 43.7564 17.58 44.5564 16.89C45.3564 16.19 45.8764 15.375 46.1164 14.445ZM43.9264 13.425H44.8714V16.755H43.9264V13.425Z" fill="black"/>
<rect y="30" width="500" height="21" fill="#B73418"/>
<path d="M447.31 48.252C446.458 48.252 445.696 48.102 445.024 47.802C444.352 47.502 443.818 47.082 443.422 46.542C443.038 46.002 442.846 45.384 442.846 44.688C442.846 44.112 442.948 43.608 443.152 43.176C443.368 42.732 443.65 42.348 443.998 42.024C444.346 41.7 444.724 41.43 445.132 41.214V41.124C444.628 40.764 444.208 40.326 443.872 39.81C443.536 39.282 443.368 38.67 443.368 37.974C443.368 37.254 443.542 36.63 443.89 36.102C444.238 35.574 444.712 35.166 445.312 34.878C445.924 34.59 446.614 34.446 447.382 34.446C448.174 34.446 448.858 34.596 449.434 34.896C450.01 35.184 450.454 35.592 450.766 36.12C451.09 36.648 451.252 37.272 451.252 37.992C451.252 38.424 451.168 38.832 451 39.216C450.844 39.6 450.634 39.948 450.37 40.26C450.118 40.56 449.842 40.818 449.542 41.034V41.124C449.962 41.34 450.34 41.61 450.676 41.934C451.012 42.258 451.282 42.648 451.486 43.104C451.69 43.548 451.792 44.076 451.792 44.688C451.792 45.36 451.6 45.966 451.216 46.506C450.844 47.046 450.322 47.472 449.65 47.784C448.978 48.096 448.198 48.252 447.31 48.252ZM448.138 40.386C448.462 40.038 448.702 39.678 448.858 39.306C449.014 38.934 449.092 38.55 449.092 38.154C449.092 37.794 449.02 37.476 448.876 37.2C448.744 36.912 448.546 36.69 448.282 36.534C448.018 36.378 447.7 36.3 447.328 36.3C446.872 36.3 446.488 36.444 446.176 36.732C445.864 37.02 445.708 37.434 445.708 37.974C445.708 38.382 445.81 38.736 446.014 39.036C446.23 39.324 446.524 39.576 446.896 39.792C447.268 39.996 447.682 40.194 448.138 40.386ZM447.364 46.38C447.748 46.38 448.084 46.314 448.372 46.182C448.672 46.038 448.906 45.834 449.074 45.57C449.242 45.294 449.326 44.97 449.326 44.598C449.326 44.25 449.248 43.95 449.092 43.698C448.948 43.434 448.744 43.206 448.48 43.014C448.216 42.81 447.904 42.624 447.544 42.456C447.184 42.288 446.788 42.108 446.356 41.916C445.996 42.216 445.702 42.582 445.474 43.014C445.246 43.434 445.132 43.896 445.132 44.4C445.132 44.796 445.228 45.144 445.42 45.444C445.624 45.732 445.894 45.96 446.23 46.128C446.566 46.296 446.944 46.38 447.364 46.38ZM457.531 48.252C456.835 48.252 456.211 48.168 455.659 48C455.107 47.844 454.615 47.628 454.183 47.352C453.763 47.064 453.397 46.746 453.085 46.398L454.327 44.724C454.735 45.096 455.179 45.42 455.659 45.696C456.151 45.96 456.697 46.092 457.297 46.092C457.753 46.092 458.149 46.02 458.485 45.876C458.833 45.732 459.097 45.522 459.277 45.246C459.469 44.97 459.565 44.634 459.565 44.238C459.565 43.794 459.457 43.416 459.241 43.104C459.037 42.78 458.671 42.534 458.143 42.366C457.615 42.198 456.871 42.114 455.911 42.114V40.206C456.727 40.206 457.369 40.122 457.837 39.954C458.305 39.774 458.635 39.534 458.827 39.234C459.031 38.922 459.133 38.568 459.133 38.172C459.133 37.656 458.977 37.254 458.665 36.966C458.353 36.666 457.915 36.516 457.351 36.516C456.883 36.516 456.445 36.624 456.037 36.84C455.641 37.044 455.245 37.326 454.849 37.686L453.481 36.048C454.069 35.556 454.687 35.166 455.335 34.878C455.983 34.578 456.697 34.428 457.477 34.428C458.329 34.428 459.079 34.566 459.727 34.842C460.387 35.118 460.897 35.52 461.257 36.048C461.617 36.576 461.797 37.218 461.797 37.974C461.797 38.694 461.605 39.312 461.221 39.828C460.837 40.344 460.291 40.74 459.583 41.016V41.106C460.075 41.238 460.519 41.454 460.915 41.754C461.323 42.042 461.641 42.408 461.869 42.852C462.109 43.296 462.229 43.812 462.229 44.4C462.229 45.204 462.013 45.894 461.581 46.47C461.161 47.046 460.591 47.49 459.871 47.802C459.163 48.102 458.383 48.252 457.531 48.252ZM466.168 48.252C465.688 48.252 465.292 48.084 464.98 47.748C464.668 47.412 464.512 47.004 464.512 46.524C464.512 46.02 464.668 45.606 464.98 45.282C465.292 44.958 465.688 44.796 466.168 44.796C466.636 44.796 467.026 44.958 467.338 45.282C467.65 45.606 467.806 46.02 467.806 46.524C467.806 47.004 467.65 47.412 467.338 47.748C467.026 48.084 466.636 48.252 466.168 48.252ZM474.398 48.252C473.546 48.252 472.784 48.102 472.112 47.802C471.44 47.502 470.906 47.082 470.51 46.542C470.126 46.002 469.934 45.384 469.934 44.688C469.934 44.112 470.036 43.608 470.24 43.176C470.456 42.732 470.738 42.348 471.086 42.024C471.434 41.7 471.812 41.43 472.22 41.214V41.124C471.716 40.764 471.296 40.326 470.96 39.81C470.624 39.282 470.456 38.67 470.456 37.974C470.456 37.254 470.63 36.63 470.978 36.102C471.326 35.574 471.8 35.166 472.4 34.878C473.012 34.59 473.702 34.446 474.47 34.446C475.262 34.446 475.946 34.596 476.522 34.896C477.098 35.184 477.542 35.592 477.854 36.12C478.178 36.648 478.34 37.272 478.34 37.992C478.34 38.424 478.256 38.832 478.088 39.216C477.932 39.6 477.722 39.948 477.458 40.26C477.206 40.56 476.93 40.818 476.63 41.034V41.124C477.05 41.34 477.428 41.61 477.764 41.934C478.1 42.258 478.37 42.648 478.574 43.104C478.778 43.548 478.88 44.076 478.88 44.688C478.88 45.36 478.688 45.966 478.304 46.506C477.932 47.046 477.41 47.472 476.738 47.784C476.066 48.096 475.286 48.252 474.398 48.252ZM475.226 40.386C475.55 40.038 475.79 39.678 475.946 39.306C476.102 38.934 476.18 38.55 476.18 38.154C476.18 37.794 476.108 37.476 475.964 37.2C475.832 36.912 475.634 36.69 475.37 36.534C475.106 36.378 474.788 36.3 474.416 36.3C473.96 36.3 473.576 36.444 473.264 36.732C472.952 37.02 472.796 37.434 472.796 37.974C472.796 38.382 472.898 38.736 473.102 39.036C473.318 39.324 473.612 39.576 473.984 39.792C474.356 39.996 474.77 40.194 475.226 40.386ZM474.452 46.38C474.836 46.38 475.172 46.314 475.46 46.182C475.76 46.038 475.994 45.834 476.162 45.57C476.33 45.294 476.414 44.97 476.414 44.598C476.414 44.25 476.336 43.95 476.18 43.698C476.036 43.434 475.832 43.206 475.568 43.014C475.304 42.81 474.992 42.624 474.632 42.456C474.272 42.288 473.876 42.108 473.444 41.916C473.084 42.216 472.79 42.582 472.562 43.014C472.334 43.434 472.22 43.896 472.22 44.4C472.22 44.796 472.316 45.144 472.508 45.444C472.712 45.732 472.982 45.96 473.318 46.128C473.654 46.296 474.032 46.38 474.452 46.38Z" fill="white"/>
<rect y="55" width="455.182" height="21" fill="#FFA59B"/>
<path d="M400.348 73C400.408 71.848 400.51 70.786 400.654 69.814C400.798 68.83 401.002 67.906 401.266 67.042C401.53 66.166 401.872 65.308 402.292 64.468C402.724 63.628 403.258 62.77 403.894 61.894H397.9V59.662H406.756V61.282C405.988 62.218 405.364 63.118 404.884 63.982C404.416 64.846 404.056 65.722 403.804 66.61C403.564 67.498 403.384 68.458 403.264 69.49C403.156 70.522 403.072 71.692 403.012 73H400.348ZM413.305 73.252C412.681 73.252 412.075 73.12 411.487 72.856C410.911 72.592 410.401 72.19 409.957 71.65C409.513 71.098 409.159 70.402 408.895 69.562C408.643 68.71 408.517 67.696 408.517 66.52C408.517 65.284 408.655 64.216 408.931 63.316C409.219 62.416 409.603 61.684 410.083 61.12C410.563 60.544 411.109 60.118 411.721 59.842C412.345 59.566 412.999 59.428 413.683 59.428C414.499 59.428 415.201 59.578 415.789 59.878C416.389 60.166 416.887 60.52 417.283 60.94L415.879 62.524C415.651 62.26 415.351 62.032 414.979 61.84C414.607 61.648 414.229 61.552 413.845 61.552C413.305 61.552 412.813 61.708 412.369 62.02C411.937 62.332 411.589 62.848 411.325 63.568C411.061 64.288 410.929 65.272 410.929 66.52C410.929 67.672 411.031 68.596 411.235 69.292C411.451 69.976 411.733 70.474 412.081 70.786C412.429 71.098 412.819 71.254 413.251 71.254C413.587 71.254 413.887 71.164 414.151 70.984C414.427 70.792 414.649 70.516 414.817 70.156C414.985 69.784 415.069 69.328 415.069 68.788C415.069 68.26 414.985 67.828 414.817 67.492C414.661 67.156 414.439 66.904 414.151 66.736C413.875 66.568 413.545 66.484 413.161 66.484C412.801 66.484 412.423 66.598 412.027 66.826C411.631 67.042 411.265 67.426 410.929 67.978L410.803 66.196C411.043 65.86 411.325 65.572 411.649 65.332C411.985 65.092 412.327 64.912 412.675 64.792C413.035 64.672 413.359 64.612 413.647 64.612C414.391 64.612 415.051 64.762 415.627 65.062C416.215 65.362 416.671 65.818 416.995 66.43C417.319 67.042 417.481 67.828 417.481 68.788C417.481 69.7 417.289 70.492 416.905 71.164C416.533 71.824 416.029 72.34 415.393 72.712C414.757 73.072 414.061 73.252 413.305 73.252ZM421.168 73.252C420.688 73.252 420.292 73.084 419.98 72.748C419.668 72.412 419.512 72.004 419.512 71.524C419.512 71.02 419.668 70.606 419.98 70.282C420.292 69.958 420.688 69.796 421.168 69.796C421.636 69.796 422.026 69.958 422.338 70.282C422.65 70.606 422.806 71.02 422.806 71.524C422.806 72.004 422.65 72.412 422.338 72.748C422.026 73.084 421.636 73.252 421.168 73.252ZM430.154 73V64.81C430.154 64.426 430.166 63.97 430.19 63.442C430.214 62.902 430.238 62.434 430.262 62.038H430.172C430.016 62.398 429.848 62.758 429.668 63.118C429.488 63.478 429.302 63.844 429.11 64.216L427.04 67.528H434.204V69.544H424.466V67.744L429.434 59.662H432.62V73H430.154Z" fill="white"/>
<path d="M3.945 102.195C3.375 102.195 2.87 102.125 2.43 101.985C2 101.845 1.62 101.66 1.29 101.43C0.96 101.2 0.675 100.95 0.435 100.68L1.14 99.795C1.46 100.125 1.835 100.42 2.265 100.68C2.705 100.93 3.235 101.055 3.855 101.055C4.295 101.055 4.68 100.975 5.01 100.815C5.35 100.645 5.615 100.41 5.805 100.11C5.995 99.8 6.09 99.435 6.09 99.015C6.09 98.575 5.98 98.19 5.76 97.86C5.55 97.53 5.195 97.275 4.695 97.095C4.195 96.905 3.52 96.81 2.67 96.81V95.76C3.43 95.76 4.03 95.67 4.47 95.49C4.91 95.3 5.225 95.045 5.415 94.725C5.615 94.405 5.715 94.05 5.715 93.66C5.715 93.13 5.55 92.71 5.22 92.4C4.89 92.08 4.435 91.92 3.855 91.92C3.415 91.92 3 92.02 2.61 92.22C2.23 92.42 1.885 92.675 1.575 92.985L0.84 92.115C1.26 91.735 1.715 91.425 2.205 91.185C2.705 90.935 3.27 90.81 3.9 90.81C4.52 90.81 5.07 90.92 5.55 91.14C6.04 91.35 6.42 91.66 6.69 92.07C6.97 92.48 7.11 92.975 7.11 93.555C7.11 94.225 6.93 94.78 6.57 95.22C6.21 95.66 5.74 95.985 5.16 96.195V96.27C5.59 96.37 5.98 96.545 6.33 96.795C6.68 97.045 6.96 97.36 7.17 97.74C7.38 98.12 7.485 98.56 7.485 99.06C7.485 99.71 7.325 100.27 7.005 100.74C6.685 101.21 6.26 101.57 5.73 101.82C5.2 102.07 4.605 102.195 3.945 102.195ZM12.4903 102.195C11.8003 102.195 11.1953 101.985 10.6753 101.565C10.1653 101.145 9.77031 100.51 9.49031 99.66C9.21031 98.81 9.07031 97.745 9.07031 96.465C9.07031 95.185 9.21031 94.13 9.49031 93.3C9.77031 92.46 10.1653 91.835 10.6753 91.425C11.1953 91.015 11.8003 90.81 12.4903 90.81C13.1903 90.81 13.7953 91.02 14.3053 91.44C14.8153 91.85 15.2103 92.47 15.4903 93.3C15.7703 94.13 15.9103 95.185 15.9103 96.465C15.9103 97.745 15.7703 98.81 15.4903 99.66C15.2103 100.51 14.8153 101.145 14.3053 101.565C13.7953 101.985 13.1903 102.195 12.4903 102.195ZM12.4903 101.085C12.9103 101.085 13.2753 100.925 13.5853 100.605C13.9053 100.285 14.1503 99.785 14.3203 99.105C14.5003 98.415 14.5903 97.535 14.5903 96.465C14.5903 95.395 14.5003 94.525 14.3203 93.855C14.1503 93.175 13.9053 92.68 13.5853 92.37C13.2753 92.05 12.9103 91.89 12.4903 91.89C12.0803 91.89 11.7153 92.05 11.3953 92.37C11.0753 92.68 10.8253 93.175 10.6453 93.855C10.4753 94.525 10.3903 95.395 10.3903 96.465C10.3903 97.535 10.4753 98.415 10.6453 99.105C10.8253 99.785 11.0753 100.285 11.3953 100.605C11.7153 100.925 12.0803 101.085 12.4903 101.085ZM17.3306 98.325V97.275H21.1856V98.325H17.3306ZM25.7858 102.195C25.2158 102.195 24.7108 102.125 24.2708 101.985C23.8408 101.845 23.4608 101.66 23.1308 101.43C22.8008 101.2 22.5158 100.95 22.2758 100.68L22.9808 99.795C23.3008 100.125 23.6758 100.42 24.1058 100.68C24.5458 100.93 25.0758 101.055 25.6958 101.055C26.1358 101.055 26.5208 100.975 26.8508 100.815C27.1908 100.645 27.4558 100.41 27.6458 100.11C27.8358 99.8 27.9308 99.435 27.9308 99.015C27.9308 98.575 27.8208 98.19 27.6008 97.86C27.3908 97.53 27.0358 97.275 26.5358 97.095C26.0358 96.905 25.3608 96.81 24.5108 96.81V95.76C25.2708 95.76 25.8708 95.67 26.3108 95.49C26.7508 95.3 27.0658 95.045 27.2558 94.725C27.4558 94.405 27.5558 94.05 27.5558 93.66C27.5558 93.13 27.3908 92.71 27.0608 92.4C26.7308 92.08 26.2758 91.92 25.6958 91.92C25.2558 91.92 24.8408 92.02 24.4508 92.22C24.0708 92.42 23.7258 92.675 23.4158 92.985L22.6808 92.115C23.1008 91.735 23.5558 91.425 24.0458 91.185C24.5458 90.935 25.1108 90.81 25.7408 90.81C26.3608 90.81 26.9108 90.92 27.3908 91.14C27.8808 91.35 28.2608 91.66 28.5308 92.07C28.8108 92.48 28.9508 92.975 28.9508 93.555C28.9508 94.225 28.7708 94.78 28.4108 95.22C28.0508 95.66 27.5808 95.985 27.0008 96.195V96.27C27.4308 96.37 27.8208 96.545 28.1708 96.795C28.5208 97.045 28.8008 97.36 29.0108 97.74C29.2208 98.12 29.3258 98.56 29.3258 99.06C29.3258 99.71 29.1658 100.27 28.8458 100.74C28.5258 101.21 28.1008 101.57 27.5708 101.82C27.0408 102.07 26.4458 102.195 25.7858 102.195ZM35.2611 102V94.5C35.2611 94.23 35.2711 93.9 35.2911 93.51C35.3111 93.12 35.3261 92.785 35.3361 92.505H35.2761C35.1361 92.765 34.9911 93.035 34.8411 93.315C34.7011 93.585 34.5511 93.855 34.3911 94.125L31.8861 97.875H38.0211V98.97H30.4611V98.07L35.0361 91.005H36.5511V102H35.2611ZM47.2114 93.465H48.2464C48.2664 94.705 48.3614 95.85 48.5314 96.9C48.7114 97.95 48.9414 98.865 49.2214 99.645C49.5114 100.425 49.8364 101.03 50.1964 101.46C50.5564 101.89 50.9314 102.105 51.3214 102.105C51.4914 102.105 51.6164 101.95 51.6964 101.64C51.7864 101.33 51.8514 100.82 51.8914 100.11C51.9914 100.21 52.1214 100.31 52.2814 100.41C52.4514 100.5 52.6014 100.565 52.7314 100.605C52.6814 101.255 52.6014 101.76 52.4914 102.12C52.3814 102.49 52.2264 102.75 52.0264 102.9C51.8264 103.05 51.5664 103.125 51.2464 103.125C50.7764 103.125 50.3364 102.96 49.9264 102.63C49.5264 102.3 49.1664 101.84 48.8464 101.25C48.5264 100.66 48.2464 99.965 48.0064 99.165C47.7764 98.355 47.5914 97.47 47.4514 96.51C47.3214 95.54 47.2414 94.525 47.2114 93.465ZM48.9364 94.05L49.4914 93.495C49.8314 93.625 50.1764 93.79 50.5264 93.99C50.8864 94.18 51.1664 94.365 51.3664 94.545L50.7814 95.16C50.5914 94.98 50.3164 94.785 49.9564 94.575C49.6064 94.365 49.2664 94.19 48.9364 94.05ZM50.4664 96.69L51.5014 96.915C50.9914 98.335 50.2914 99.57 49.4014 100.62C48.5114 101.67 47.4814 102.53 46.3114 103.2C46.2614 103.13 46.1914 103.045 46.1014 102.945C46.0114 102.845 45.9164 102.745 45.8164 102.645C45.7164 102.555 45.6264 102.475 45.5464 102.405C46.6964 101.835 47.6964 101.06 48.5464 100.08C49.3964 99.1 50.0364 97.97 50.4664 96.69ZM42.4714 98.325L43.3264 98.505C43.1964 98.965 43.0264 99.415 42.8164 99.855C42.6064 100.295 42.3764 100.67 42.1264 100.98C42.0464 100.92 41.9314 100.84 41.7814 100.74C41.6314 100.64 41.5064 100.56 41.4064 100.5C41.6564 100.21 41.8714 99.875 42.0514 99.495C42.2314 99.115 42.3714 98.725 42.4714 98.325ZM40.8064 95.055H52.4614V96H40.8064V95.055ZM41.9764 96.87H46.7614V97.71H41.9764V96.87ZM39.3814 92.775H52.5964V93.735H39.3814V92.775ZM46.2214 90.69H51.2164V91.56H46.2214V90.69ZM40.2364 95.055H41.2864V97.575C41.2864 97.995 41.2664 98.45 41.2264 98.94C41.1964 99.43 41.1314 99.93 41.0314 100.44C40.9414 100.94 40.8114 101.43 40.6414 101.91C40.4714 102.39 40.2464 102.83 39.9664 103.23C39.9064 103.17 39.8164 103.105 39.6964 103.035C39.5864 102.965 39.4714 102.895 39.3514 102.825C39.2314 102.765 39.1264 102.72 39.0364 102.69C39.3964 102.18 39.6614 101.625 39.8314 101.025C40.0014 100.425 40.1114 99.825 40.1614 99.225C40.2114 98.625 40.2364 98.07 40.2364 97.56V95.055ZM45.5764 89.4H46.6864V93.24H45.5764V89.4ZM41.7964 90.075H42.8614V93.285H41.7964V90.075ZM46.1164 98.445L47.0464 98.595C46.7164 99.655 46.1214 100.58 45.2614 101.37C44.4014 102.16 43.3364 102.745 42.0664 103.125C42.0064 103.035 41.9264 102.915 41.8264 102.765C41.7364 102.625 41.6514 102.515 41.5714 102.435C42.7614 102.095 43.7564 101.58 44.5564 100.89C45.3564 100.19 45.8764 99.375 46.1164 98.445ZM43.9264 97.425H44.8714V100.755H43.9264V97.425Z" fill="black"/>
<rect y="115" width="362.745" height="21" fill="#B73418"/>
<path d="M310.688 133.252C310.064 133.252 309.458 133.12 308.87 132.856C308.294 132.592 307.784 132.19 307.34 131.65C306.896 131.098 306.542 130.402 306.278 129.562C306.026 128.71 305.9 127.696 305.9 126.52C305.9 125.284 306.038 124.216 306.314 123.316C306.602 122.416 306.986 121.684 307.466 121.12C307.946 120.544 308.492 120.118 309.104 119.842C309.728 119.566 310.382 119.428 311.066 119.428C311.882 119.428 312.584 119.578 313.172 119.878C313.772 120.166 314.27 120.52 314.666 120.94L313.262 122.524C313.034 122.26 312.734 122.032 312.362 121.84C311.99 121.648 311.612 121.552 311.228 121.552C310.688 121.552 310.196 121.708 309.752 122.02C309.32 122.332 308.972 122.848 308.708 123.568C308.444 124.288 308.312 125.272 308.312 126.52C308.312 127.672 308.414 128.596 308.618 129.292C308.834 129.976 309.116 130.474 309.464 130.786C309.812 131.098 310.202 131.254 310.634 131.254C310.97 131.254 311.27 131.164 311.534 130.984C311.81 130.792 312.032 130.516 312.2 130.156C312.368 129.784 312.452 129.328 312.452 128.788C312.452 128.26 312.368 127.828 312.2 127.492C312.044 127.156 311.822 126.904 311.534 126.736C311.258 126.568 310.928 126.484 310.544 126.484C310.184 126.484 309.806 126.598 309.41 126.826C309.014 127.042 308.648 127.426 308.312 127.978L308.186 126.196C308.426 125.86 308.708 125.572 309.032 125.332C309.368 125.092 309.71 124.912 310.058 124.792C310.418 124.672 310.742 124.612 311.03 124.612C311.774 124.612 312.434 124.762 313.01 125.062C313.598 125.362 314.054 125.818 314.378 126.43C314.702 127.042 314.864 127.828 314.864 128.788C314.864 129.7 314.672 130.492 314.288 131.164C313.916 131.824 313.412 132.34 312.776 132.712C312.14 133.072 311.444 133.252 310.688 133.252ZM320.927 133.252C320.027 133.252 319.235 132.994 318.551 132.478C317.879 131.95 317.351 131.17 316.967 130.138C316.595 129.094 316.409 127.804 316.409 126.268C316.409 124.744 316.595 123.478 316.967 122.47C317.351 121.45 317.879 120.688 318.551 120.184C319.235 119.68 320.027 119.428 320.927 119.428C321.839 119.428 322.631 119.686 323.303 120.202C323.975 120.706 324.497 121.462 324.869 122.47C325.253 123.478 325.445 124.744 325.445 126.268C325.445 127.804 325.253 129.094 324.869 130.138C324.497 131.17 323.975 131.95 323.303 132.478C322.631 132.994 321.839 133.252 320.927 133.252ZM320.927 131.182C321.323 131.182 321.671 131.032 321.971 130.732C322.271 130.432 322.505 129.928 322.673 129.22C322.841 128.5 322.925 127.516 322.925 126.268C322.925 125.032 322.841 124.066 322.673 123.37C322.505 122.662 322.271 122.17 321.971 121.894C321.671 121.606 321.323 121.462 320.927 121.462C320.555 121.462 320.213 121.606 319.901 121.894C319.601 122.17 319.361 122.662 319.181 123.37C319.001 124.066 318.911 125.032 318.911 126.268C318.911 127.516 319.001 128.5 319.181 129.22C319.361 129.928 319.601 130.432 319.901 130.732C320.213 131.032 320.555 131.182 320.927 131.182ZM329.168 133.252C328.688 133.252 328.292 133.084 327.98 132.748C327.668 132.412 327.512 132.004 327.512 131.524C327.512 131.02 327.668 130.606 327.98 130.282C328.292 129.958 328.688 129.796 329.168 129.796C329.636 129.796 330.026 129.958 330.338 130.282C330.65 130.606 330.806 131.02 330.806 131.524C330.806 132.004 330.65 132.412 330.338 132.748C330.026 133.084 329.636 133.252 329.168 133.252ZM335.436 133C335.496 131.848 335.598 130.786 335.742 129.814C335.886 128.83 336.09 127.906 336.354 127.042C336.618 126.166 336.96 125.308 337.38 124.468C337.812 123.628 338.346 122.77 338.982 121.894H332.988V119.662H341.844V121.282C341.076 122.218 340.452 123.118 339.972 123.982C339.504 124.846 339.144 125.722 338.892 126.61C338.652 127.498 338.472 128.458 338.352 129.49C338.244 130.522 338.16 131.692 338.1 133H335.436Z" fill="white"/>
<rect y="140" width="263.305" height="21" fill="#FFA59B"/>
<path d="M211.066 158V149.81C211.066 149.426 211.078 148.97 211.102 148.442C211.126 147.902 211.15 147.434 211.174 147.038H211.084C210.928 147.398 210.76 147.758 210.58 148.118C210.4 148.478 210.214 148.844 210.022 149.216L207.952 152.528H215.116V154.544H205.378V152.744L210.346 144.662H213.532V158H211.066ZM221.683 158V149.81C221.683 149.426 221.695 148.97 221.719 148.442C221.743 147.902 221.767 147.434 221.791 147.038H221.701C221.545 147.398 221.377 147.758 221.197 148.118C221.017 148.478 220.831 148.844 220.639 149.216L218.569 152.528H225.733V154.544H215.995V152.744L220.963 144.662H224.149V158H221.683ZM229.168 158.252C228.688 158.252 228.292 158.084 227.98 157.748C227.668 157.412 227.512 157.004 227.512 156.524C227.512 156.02 227.668 155.606 227.98 155.282C228.292 154.958 228.688 154.796 229.168 154.796C229.636 154.796 230.026 154.958 230.338 155.282C230.65 155.606 230.806 156.02 230.806 156.524C230.806 157.004 230.65 157.412 230.338 157.748C230.026 158.084 229.636 158.252 229.168 158.252ZM233.564 158V155.84H236.444V147.434H234.014V145.778C234.686 145.658 235.262 145.514 235.742 145.346C236.234 145.166 236.69 144.938 237.11 144.662H239.072V155.84H241.574V158H233.564Z" fill="white"/>
<path d="M3.945 187.195C3.375 187.195 2.87 187.125 2.43 186.985C2 186.845 1.62 186.66 1.29 186.43C0.96 186.2 0.675 185.95 0.435 185.68L1.14 184.795C1.46 185.125 1.835 185.42 2.265 185.68C2.705 185.93 3.235 186.055 3.855 186.055C4.295 186.055 4.68 185.975 5.01 185.815C5.35 185.645 5.615 185.41 5.805 185.11C5.995 184.8 6.09 184.435 6.09 184.015C6.09 183.575 5.98 183.19 5.76 182.86C5.55 182.53 5.195 182.275 4.695 182.095C4.195 181.905 3.52 181.81 2.67 181.81V180.76C3.43 180.76 4.03 180.67 4.47 180.49C4.91 180.3 5.225 180.045 5.415 179.725C5.615 179.405 5.715 179.05 5.715 178.66C5.715 178.13 5.55 177.71 5.22 177.4C4.89 177.08 4.435 176.92 3.855 176.92C3.415 176.92 3 177.02 2.61 177.22C2.23 177.42 1.885 177.675 1.575 177.985L0.84 177.115C1.26 176.735 1.715 176.425 2.205 176.185C2.705 175.935 3.27 175.81 3.9 175.81C4.52 175.81 5.07 175.92 5.55 176.14C6.04 176.35 6.42 176.66 6.69 177.07C6.97 177.48 7.11 177.975 7.11 178.555C7.11 179.225 6.93 179.78 6.57 180.22C6.21 180.66 5.74 180.985 5.16 181.195V181.27C5.59 181.37 5.98 181.545 6.33 181.795C6.68 182.045 6.96 182.36 7.17 182.74C7.38 183.12 7.485 183.56 7.485 184.06C7.485 184.71 7.325 185.27 7.005 185.74C6.685 186.21 6.26 186.57 5.73 186.82C5.2 187.07 4.605 187.195 3.945 187.195ZM12.2503 187.195C11.6803 187.195 11.1753 187.125 10.7353 186.985C10.3053 186.845 9.92531 186.665 9.59531 186.445C9.27531 186.225 8.98531 185.99 8.72531 185.74L9.41531 184.84C9.62531 185.05 9.85531 185.25 10.1053 185.44C10.3653 185.62 10.6603 185.77 10.9903 185.89C11.3203 186 11.6953 186.055 12.1153 186.055C12.5453 186.055 12.9353 185.95 13.2853 185.74C13.6453 185.53 13.9303 185.23 14.1403 184.84C14.3503 184.45 14.4553 183.99 14.4553 183.46C14.4553 182.68 14.2453 182.07 13.8253 181.63C13.4153 181.18 12.8653 180.955 12.1753 180.955C11.8153 180.955 11.5003 181.01 11.2303 181.12C10.9603 181.23 10.6653 181.39 10.3453 181.6L9.61031 181.135L9.97031 176.005H15.3103V177.175H11.1703L10.8853 180.355C11.1253 180.215 11.3753 180.11 11.6353 180.04C11.9053 179.96 12.2053 179.92 12.5353 179.92C13.1453 179.92 13.7003 180.045 14.2003 180.295C14.7003 180.535 15.1003 180.915 15.4003 181.435C15.7003 181.955 15.8503 182.62 15.8503 183.43C15.8503 184.23 15.6753 184.91 15.3253 185.47C14.9853 186.03 14.5403 186.46 13.9903 186.76C13.4403 187.05 12.8603 187.195 12.2503 187.195ZM17.3306 183.325V182.275H21.1856V183.325H17.3306ZM25.7858 187.195C25.2158 187.195 24.7108 187.125 24.2708 186.985C23.8408 186.845 23.4608 186.66 23.1308 186.43C22.8008 186.2 22.5158 185.95 22.2758 185.68L22.9808 184.795C23.3008 185.125 23.6758 185.42 24.1058 185.68C24.5458 185.93 25.0758 186.055 25.6958 186.055C26.1358 186.055 26.5208 185.975 26.8508 185.815C27.1908 185.645 27.4558 185.41 27.6458 185.11C27.8358 184.8 27.9308 184.435 27.9308 184.015C27.9308 183.575 27.8208 183.19 27.6008 182.86C27.3908 182.53 27.0358 182.275 26.5358 182.095C26.0358 181.905 25.3608 181.81 24.5108 181.81V180.76C25.2708 180.76 25.8708 180.67 26.3108 180.49C26.7508 180.3 27.0658 180.045 27.2558 179.725C27.4558 179.405 27.5558 179.05 27.5558 178.66C27.5558 178.13 27.3908 177.71 27.0608 177.4C26.7308 177.08 26.2758 176.92 25.6958 176.92C25.2558 176.92 24.8408 177.02 24.4508 177.22C24.0708 177.42 23.7258 177.675 23.4158 177.985L22.6808 177.115C23.1008 176.735 23.5558 176.425 24.0458 176.185C24.5458 175.935 25.1108 175.81 25.7408 175.81C26.3608 175.81 26.9108 175.92 27.3908 176.14C27.8808 176.35 28.2608 176.66 28.5308 177.07C28.8108 177.48 28.9508 177.975 28.9508 178.555C28.9508 179.225 28.7708 179.78 28.4108 180.22C28.0508 180.66 27.5808 180.985 27.0008 181.195V181.27C27.4308 181.37 27.8208 181.545 28.1708 181.795C28.5208 182.045 28.8008 182.36 29.0108 182.74C29.2208 183.12 29.3258 183.56 29.3258 184.06C29.3258 184.71 29.1658 185.27 28.8458 185.74C28.5258 186.21 28.1008 186.57 27.5708 186.82C27.0408 187.07 26.4458 187.195 25.7858 187.195ZM33.6861 187.195C33.0861 187.195 32.5661 187.09 32.1261 186.88C31.6961 186.66 31.3311 186.39 31.0311 186.07L31.7811 185.215C32.0211 185.475 32.3011 185.68 32.6211 185.83C32.9511 185.98 33.2911 186.055 33.6411 186.055C34.0111 186.055 34.3611 185.97 34.6911 185.8C35.0211 185.63 35.3111 185.35 35.5611 184.96C35.8211 184.56 36.0211 184.04 36.1611 183.4C36.3111 182.76 36.3861 181.97 36.3861 181.03C36.3861 180.13 36.2911 179.37 36.1011 178.75C35.9211 178.13 35.6511 177.665 35.2911 177.355C34.9311 177.035 34.4961 176.875 33.9861 176.875C33.6361 176.875 33.3211 176.98 33.0411 177.19C32.7611 177.4 32.5361 177.69 32.3661 178.06C32.1961 178.43 32.1111 178.87 32.1111 179.38C32.1111 179.87 32.1811 180.3 32.3211 180.67C32.4711 181.03 32.6911 181.31 32.9811 181.51C33.2811 181.71 33.6461 181.81 34.0761 181.81C34.4461 181.81 34.8311 181.695 35.2311 181.465C35.6411 181.225 36.0311 180.835 36.4011 180.295L36.4611 181.39C36.2411 181.67 35.9861 181.92 35.6961 182.14C35.4161 182.36 35.1161 182.53 34.7961 182.65C34.4861 182.77 34.1711 182.83 33.8511 182.83C33.2411 182.83 32.7061 182.7 32.2461 182.44C31.7961 182.18 31.4461 181.795 31.1961 181.285C30.9461 180.765 30.8211 180.13 30.8211 179.38C30.8211 178.66 30.9661 178.035 31.2561 177.505C31.5461 176.965 31.9261 176.55 32.3961 176.26C32.8761 175.96 33.4011 175.81 33.9711 175.81C34.5011 175.81 34.9911 175.92 35.4411 176.14C35.8911 176.35 36.2811 176.675 36.6111 177.115C36.9411 177.545 37.2011 178.085 37.3911 178.735C37.5811 179.385 37.6761 180.15 37.6761 181.03C37.6761 182.14 37.5661 183.09 37.3461 183.88C37.1261 184.66 36.8261 185.295 36.4461 185.785C36.0661 186.275 35.6361 186.635 35.1561 186.865C34.6861 187.085 34.1961 187.195 33.6861 187.195ZM47.2114 178.465H48.2464C48.2664 179.705 48.3614 180.85 48.5314 181.9C48.7114 182.95 48.9414 183.865 49.2214 184.645C49.5114 185.425 49.8364 186.03 50.1964 186.46C50.5564 186.89 50.9314 187.105 51.3214 187.105C51.4914 187.105 51.6164 186.95 51.6964 186.64C51.7864 186.33 51.8514 185.82 51.8914 185.11C51.9914 185.21 52.1214 185.31 52.2814 185.41C52.4514 185.5 52.6014 185.565 52.7314 185.605C52.6814 186.255 52.6014 186.76 52.4914 187.12C52.3814 187.49 52.2264 187.75 52.0264 187.9C51.8264 188.05 51.5664 188.125 51.2464 188.125C50.7764 188.125 50.3364 187.96 49.9264 187.63C49.5264 187.3 49.1664 186.84 48.8464 186.25C48.5264 185.66 48.2464 184.965 48.0064 184.165C47.7764 183.355 47.5914 182.47 47.4514 181.51C47.3214 180.54 47.2414 179.525 47.2114 178.465ZM48.9364 179.05L49.4914 178.495C49.8314 178.625 50.1764 178.79 50.5264 178.99C50.8864 179.18 51.1664 179.365 51.3664 179.545L50.7814 180.16C50.5914 179.98 50.3164 179.785 49.9564 179.575C49.6064 179.365 49.2664 179.19 48.9364 179.05ZM50.4664 181.69L51.5014 181.915C50.9914 183.335 50.2914 184.57 49.4014 185.62C48.5114 186.67 47.4814 187.53 46.3114 188.2C46.2614 188.13 46.1914 188.045 46.1014 187.945C46.0114 187.845 45.9164 187.745 45.8164 187.645C45.7164 187.555 45.6264 187.475 45.5464 187.405C46.6964 186.835 47.6964 186.06 48.5464 185.08C49.3964 184.1 50.0364 182.97 50.4664 181.69ZM42.4714 183.325L43.3264 183.505C43.1964 183.965 43.0264 184.415 42.8164 184.855C42.6064 185.295 42.3764 185.67 42.1264 185.98C42.0464 185.92 41.9314 185.84 41.7814 185.74C41.6314 185.64 41.5064 185.56 41.4064 185.5C41.6564 185.21 41.8714 184.875 42.0514 184.495C42.2314 184.115 42.3714 183.725 42.4714 183.325ZM40.8064 180.055H52.4614V181H40.8064V180.055ZM41.9764 181.87H46.7614V182.71H41.9764V181.87ZM39.3814 177.775H52.5964V178.735H39.3814V177.775ZM46.2214 175.69H51.2164V176.56H46.2214V175.69ZM40.2364 180.055H41.2864V182.575C41.2864 182.995 41.2664 183.45 41.2264 183.94C41.1964 184.43 41.1314 184.93 41.0314 185.44C40.9414 185.94 40.8114 186.43 40.6414 186.91C40.4714 187.39 40.2464 187.83 39.9664 188.23C39.9064 188.17 39.8164 188.105 39.6964 188.035C39.5864 187.965 39.4714 187.895 39.3514 187.825C39.2314 187.765 39.1264 187.72 39.0364 187.69C39.3964 187.18 39.6614 186.625 39.8314 186.025C40.0014 185.425 40.1114 184.825 40.1614 184.225C40.2114 183.625 40.2364 183.07 40.2364 182.56V180.055ZM45.5764 174.4H46.6864V178.24H45.5764V174.4ZM41.7964 175.075H42.8614V178.285H41.7964V175.075ZM46.1164 183.445L47.0464 183.595C46.7164 184.655 46.1214 185.58 45.2614 186.37C44.4014 187.16 43.3364 187.745 42.0664 188.125C42.0064 188.035 41.9264 187.915 41.8264 187.765C41.7364 187.625 41.6514 187.515 41.5714 187.435C42.7614 187.095 43.7564 186.58 44.5564 185.89C45.3564 185.19 45.8764 184.375 46.1164 183.445ZM43.9264 182.425H44.8714V185.755H43.9264V182.425Z" fill="black"/>
<rect y="200" width="246.835" height="21" fill="#B73418"/>
<path d="M195.066 218V209.81C195.066 209.426 195.078 208.97 195.102 208.442C195.126 207.902 195.15 207.434 195.174 207.038H195.084C194.928 207.398 194.76 207.758 194.58 208.118C194.4 208.478 194.214 208.844 194.022 209.216L191.952 212.528H199.116V214.544H189.378V212.744L194.346 204.662H197.532V218H195.066ZM201.093 218V215.84H203.973V207.434H201.543V205.778C202.215 205.658 202.791 205.514 203.271 205.346C203.763 205.166 204.219 204.938 204.639 204.662H206.601V215.84H209.103V218H201.093ZM213.168 218.252C212.688 218.252 212.292 218.084 211.98 217.748C211.668 217.412 211.512 217.004 211.512 216.524C211.512 216.02 211.668 215.606 211.98 215.282C212.292 214.958 212.688 214.796 213.168 214.796C213.636 214.796 214.026 214.958 214.338 215.282C214.65 215.606 214.806 216.02 214.806 216.524C214.806 217.004 214.65 217.412 214.338 217.748C214.026 218.084 213.636 218.252 213.168 218.252ZM222.154 218V209.81C222.154 209.426 222.166 208.97 222.19 208.442C222.214 207.902 222.238 207.434 222.262 207.038H222.172C222.016 207.398 221.848 207.758 221.668 208.118C221.488 208.478 221.302 208.844 221.11 209.216L219.04 212.528H226.204V214.544H216.466V212.744L221.434 204.662H224.62V218H222.154Z" fill="white"/>
<rect y="225" width="140.823" height="21" fill="#FFA59B"/>
<path d="M83.774 243V241.47C84.986 240.39 86.018 239.388 86.87 238.464C87.734 237.54 88.394 236.682 88.85 235.89C89.306 235.086 89.534 234.342 89.534 233.658C89.534 233.226 89.456 232.848 89.3 232.524C89.144 232.2 88.916 231.954 88.616 231.786C88.328 231.606 87.968 231.516 87.536 231.516C87.056 231.516 86.612 231.654 86.204 231.93C85.808 232.194 85.442 232.512 85.106 232.884L83.63 231.462C84.254 230.79 84.89 230.286 85.538 229.95C86.198 229.602 86.978 229.428 87.878 229.428C88.718 229.428 89.45 229.602 90.074 229.95C90.71 230.286 91.202 230.76 91.55 231.372C91.898 231.984 92.072 232.704 92.072 233.532C92.072 234.336 91.868 235.158 91.46 235.998C91.064 236.826 90.53 237.654 89.858 238.482C89.186 239.31 88.442 240.126 87.626 240.93C87.974 240.882 88.346 240.846 88.742 240.822C89.15 240.786 89.51 240.768 89.822 240.768H92.702V243H83.774ZM98.5312 243.252C97.8352 243.252 97.2112 243.168 96.6592 243C96.1072 242.844 95.6152 242.628 95.1832 242.352C94.7632 242.064 94.3972 241.746 94.0852 241.398L95.3272 239.724C95.7352 240.096 96.1792 240.42 96.6592 240.696C97.1512 240.96 97.6972 241.092 98.2972 241.092C98.7532 241.092 99.1492 241.02 99.4852 240.876C99.8332 240.732 100.097 240.522 100.277 240.246C100.469 239.97 100.565 239.634 100.565 239.238C100.565 238.794 100.457 238.416 100.241 238.104C100.037 237.78 99.6712 237.534 99.1432 237.366C98.6152 237.198 97.8712 237.114 96.9112 237.114V235.206C97.7272 235.206 98.3692 235.122 98.8372 234.954C99.3052 234.774 99.6352 234.534 99.8272 234.234C100.031 233.922 100.133 233.568 100.133 233.172C100.133 232.656 99.9772 232.254 99.6652 231.966C99.3532 231.666 98.9152 231.516 98.3512 231.516C97.8832 231.516 97.4452 231.624 97.0372 231.84C96.6412 232.044 96.2452 232.326 95.8492 232.686L94.4812 231.048C95.0692 230.556 95.6872 230.166 96.3352 229.878C96.9832 229.578 97.6972 229.428 98.4772 229.428C99.3292 229.428 100.079 229.566 100.727 229.842C101.387 230.118 101.897 230.52 102.257 231.048C102.617 231.576 102.797 232.218 102.797 232.974C102.797 233.694 102.605 234.312 102.221 234.828C101.837 235.344 101.291 235.74 100.583 236.016V236.106C101.075 236.238 101.519 236.454 101.915 236.754C102.323 237.042 102.641 237.408 102.869 237.852C103.109 238.296 103.229 238.812 103.229 239.4C103.229 240.204 103.013 240.894 102.581 241.47C102.161 242.046 101.591 242.49 100.871 242.802C100.163 243.102 99.3832 243.252 98.5312 243.252ZM107.168 243.252C106.688 243.252 106.292 243.084 105.98 242.748C105.668 242.412 105.512 242.004 105.512 241.524C105.512 241.02 105.668 240.606 105.98 240.282C106.292 239.958 106.688 239.796 107.168 239.796C107.636 239.796 108.026 239.958 108.338 240.282C108.65 240.606 108.806 241.02 108.806 241.524C108.806 242.004 108.65 242.412 108.338 242.748C108.026 243.084 107.636 243.252 107.168 243.252ZM115.398 243.252C114.546 243.252 113.784 243.102 113.112 242.802C112.44 242.502 111.906 242.082 111.51 241.542C111.126 241.002 110.934 240.384 110.934 239.688C110.934 239.112 111.036 238.608 111.24 238.176C111.456 237.732 111.738 237.348 112.086 237.024C112.434 236.7 112.812 236.43 113.22 236.214V236.124C112.716 235.764 112.296 235.326 111.96 234.81C111.624 234.282 111.456 233.67 111.456 232.974C111.456 232.254 111.63 231.63 111.978 231.102C112.326 230.574 112.8 230.166 113.4 229.878C114.012 229.59 114.702 229.446 115.47 229.446C116.262 229.446 116.946 229.596 117.522 229.896C118.098 230.184 118.542 230.592 118.854 231.12C119.178 231.648 119.34 232.272 119.34 232.992C119.34 233.424 119.256 233.832 119.088 234.216C118.932 234.6 118.722 234.948 118.458 235.26C118.206 235.56 117.93 235.818 117.63 236.034V236.124C118.05 236.34 118.428 236.61 118.764 236.934C119.1 237.258 119.37 237.648 119.574 238.104C119.778 238.548 119.88 239.076 119.88 239.688C119.88 240.36 119.688 240.966 119.304 241.506C118.932 242.046 118.41 242.472 117.738 242.784C117.066 243.096 116.286 243.252 115.398 243.252ZM116.226 235.386C116.55 235.038 116.79 234.678 116.946 234.306C117.102 233.934 117.18 233.55 117.18 233.154C117.18 232.794 117.108 232.476 116.964 232.2C116.832 231.912 116.634 231.69 116.37 231.534C116.106 231.378 115.788 231.3 115.416 231.3C114.96 231.3 114.576 231.444 114.264 231.732C113.952 232.02 113.796 232.434 113.796 232.974C113.796 233.382 113.898 233.736 114.102 234.036C114.318 234.324 114.612 234.576 114.984 234.792C115.356 234.996 115.77 235.194 116.226 235.386ZM115.452 241.38C115.836 241.38 116.172 241.314 116.46 241.182C116.76 241.038 116.994 240.834 117.162 240.57C117.33 240.294 117.414 239.97 117.414 239.598C117.414 239.25 117.336 238.95 117.18 238.698C117.036 238.434 116.832 238.206 116.568 238.014C116.304 237.81 115.992 237.624 115.632 237.456C115.272 237.288 114.876 237.108 114.444 236.916C114.084 237.216 113.79 237.582 113.562 238.014C113.334 238.434 113.22 238.896 113.22 239.4C113.22 239.796 113.316 240.144 113.508 240.444C113.712 240.732 113.982 240.96 114.318 241.128C114.654 241.296 115.032 241.38 115.452 241.38Z" fill="white"/>
<path d="M451.66 212V211.19C455.11 208.175 456.7 205.985 456.7 204.095C456.7 202.835 456.04 201.92 454.675 201.92C453.775 201.92 452.995 202.475 452.395 203.195L451.6 202.415C452.5 201.44 453.445 200.795 454.84 200.795C456.805 200.795 458.035 202.085 458.035 204.05C458.035 206.24 456.31 208.475 453.73 210.92C454.3 210.875 454.975 210.815 455.53 210.815H458.575V212H451.66ZM463.49 212.195C461.39 212.195 460.055 210.29 460.055 206.465C460.055 202.64 461.39 200.795 463.49 200.795C465.575 200.795 466.91 202.655 466.91 206.465C466.91 210.29 465.575 212.195 463.49 212.195ZM463.49 211.1C464.735 211.1 465.575 209.705 465.575 206.465C465.575 203.255 464.735 201.89 463.49 201.89C462.23 201.89 461.39 203.255 461.39 206.465C461.39 209.705 462.23 211.1 463.49 211.1ZM468.301 212V211.19C471.751 208.175 473.341 205.985 473.341 204.095C473.341 202.835 472.681 201.92 471.316 201.92C470.416 201.92 469.636 202.475 469.036 203.195L468.241 202.415C469.141 201.44 470.086 200.795 471.481 200.795C473.446 200.795 474.676 202.085 474.676 204.05C474.676 206.24 472.951 208.475 470.371 210.92C470.941 210.875 471.616 210.815 472.171 210.815H475.216V212H468.301ZM477.686 207.875H481.061V204.5C481.061 203.96 481.106 203.075 481.136 202.505H481.076C480.806 203.045 480.506 203.585 480.191 204.125L477.686 207.875ZM481.061 212V208.97H476.261V208.07L480.836 200.99H482.351V207.875H483.806V208.97H482.351V212H481.061ZM488.616 208.64H491.976V205.67H488.616V208.64ZM498.531 208.64V209.72H493.101V213.155H491.976V209.72H485.046V208.64H487.506V204.62H491.976V202.34H488.331C487.656 203.495 486.861 204.515 486.051 205.295C485.841 205.115 485.376 204.74 485.091 204.59C486.501 203.36 487.761 201.425 488.466 199.415L489.591 199.685C489.381 200.21 489.141 200.75 488.901 201.26H497.841V202.34H493.101V204.62H497.496V205.67H493.101V208.64H498.531Z" fill="black"/>
<rect x="429" y="199" width="14" height="14" fill="#BA533D"/>
<path d="M451.66 242V241.19C455.11 238.175 456.7 235.985 456.7 234.095C456.7 232.835 456.04 231.92 454.675 231.92C453.775 231.92 452.995 232.475 452.395 233.195L451.6 232.415C452.5 231.44 453.445 230.795 454.84 230.795C456.805 230.795 458.035 232.085 458.035 234.05C458.035 236.24 456.31 238.475 453.73 240.92C454.3 240.875 454.975 240.815 455.53 240.815H458.575V242H451.66ZM463.49 242.195C461.39 242.195 460.055 240.29 460.055 236.465C460.055 232.64 461.39 230.795 463.49 230.795C465.575 230.795 466.91 232.655 466.91 236.465C466.91 240.29 465.575 242.195 463.49 242.195ZM463.49 241.1C464.735 241.1 465.575 239.705 465.575 236.465C465.575 233.255 464.735 231.89 463.49 231.89C462.23 231.89 461.39 233.255 461.39 236.465C461.39 239.705 462.23 241.1 463.49 241.1ZM471.811 242.195C469.711 242.195 468.376 240.29 468.376 236.465C468.376 232.64 469.711 230.795 471.811 230.795C473.896 230.795 475.231 232.655 475.231 236.465C475.231 240.29 473.896 242.195 471.811 242.195ZM471.811 241.1C473.056 241.1 473.896 239.705 473.896 236.465C473.896 233.255 473.056 231.89 471.811 231.89C470.551 231.89 469.711 233.255 469.711 236.465C469.711 239.705 470.551 241.1 471.811 241.1ZM477.911 234.365C477.911 235.85 478.571 236.81 479.876 236.81C480.626 236.81 481.466 236.375 482.171 235.34C482.021 233.075 481.181 231.875 479.771 231.875C478.721 231.875 477.911 232.865 477.911 234.365ZM479.471 242.195C478.286 242.195 477.446 241.715 476.831 241.07L477.596 240.215C478.046 240.74 478.721 241.055 479.426 241.055C480.851 241.055 482.081 239.885 482.186 236.48C481.511 237.305 480.566 237.83 479.651 237.83C477.821 237.83 476.621 236.645 476.621 234.365C476.621 232.235 478.061 230.795 479.771 230.795C481.886 230.795 483.461 232.535 483.461 236.03C483.461 240.485 481.541 242.195 479.471 242.195ZM488.616 238.64H491.976V235.67H488.616V238.64ZM498.531 238.64V239.72H493.101V243.155H491.976V239.72H485.046V238.64H487.506V234.62H491.976V232.34H488.331C487.656 233.495 486.861 234.515 486.051 235.295C485.841 235.115 485.376 234.74 485.091 234.59C486.501 233.36 487.761 231.425 488.466 229.415L489.591 229.685C489.381 230.21 489.141 230.75 488.901 231.26H497.841V232.34H493.101V234.62H497.496V235.67H493.101V238.64H498.531Z" fill="black"/>
<rect x="429" y="229" width="14" height="14" fill="#FFA59B"/>
</svg>
