<svg width="640" height="234" viewBox="0 0 640 234" fill="none" xmlns="http://www.w3.org/2000/svg">
<path d="M0.66 18V17.19C4.11 14.175 5.7 11.985 5.7 10.095C5.7 8.835 5.04 7.92 3.675 7.92C2.775 7.92 1.995 8.475 1.395 9.195L0.6 8.415C1.5 7.44 2.445 6.795 3.84 6.795C5.805 6.795 7.035 8.085 7.035 10.05C7.035 12.24 5.31 14.475 2.73 16.92C3.3 16.875 3.975 16.815 4.53 16.815H7.575V18H0.66ZM12.2353 18.195C10.5253 18.195 9.47531 17.475 8.74031 16.74L9.41531 15.84C10.0453 16.47 10.8403 17.055 12.1153 17.055C13.4053 17.055 14.4553 16.065 14.4553 14.46C14.4553 12.885 13.5553 11.955 12.1753 11.955C11.4403 11.955 10.9753 12.18 10.3453 12.6L9.61031 12.15L9.95531 6.99H15.3103V8.175H11.1553L10.8853 11.355C11.3803 11.085 11.8603 10.92 12.5203 10.92C14.3503 10.92 15.8353 12 15.8353 14.415C15.8353 16.83 14.0953 18.195 12.2353 18.195ZM17.3306 14.325V13.275H21.1706V14.325H17.3306ZM22.5008 18V17.19C25.9508 14.175 27.5408 11.985 27.5408 10.095C27.5408 8.835 26.8808 7.92 25.5158 7.92C24.6158 7.92 23.8358 8.475 23.2358 9.195L22.4408 8.415C23.3408 7.44 24.2858 6.795 25.6808 6.795C27.6458 6.795 28.8758 8.085 28.8758 10.05C28.8758 12.24 27.1508 14.475 24.5708 16.92C25.1408 16.875 25.8158 16.815 26.3708 16.815H29.4158V18H22.5008ZM32.1111 10.365C32.1111 11.85 32.7711 12.81 34.0761 12.81C34.8261 12.81 35.6661 12.375 36.3711 11.34C36.2211 9.075 35.3811 7.875 33.9711 7.875C32.9211 7.875 32.1111 8.865 32.1111 10.365ZM33.6711 18.195C32.4861 18.195 31.6461 17.715 31.0311 17.07L31.7961 16.215C32.2461 16.74 32.9211 17.055 33.6261 17.055C35.0511 17.055 36.2811 15.885 36.3861 12.48C35.7111 13.305 34.7661 13.83 33.8511 13.83C32.0211 13.83 30.8211 12.645 30.8211 10.365C30.8211 8.235 32.2611 6.795 33.9711 6.795C36.0861 6.795 37.6611 8.535 37.6611 12.03C37.6611 16.485 35.7411 18.195 33.6711 18.195ZM46.1164 14.43L47.0314 14.58C46.3714 16.68 44.6164 18.315 42.0814 19.08C41.9764 18.885 41.7364 18.57 41.6014 18.405C42.8464 18.045 43.9114 17.46 44.7064 16.725H43.9564V13.695H42.0064V12.87H46.7614V13.695H44.8864V16.545C45.4714 15.945 45.9064 15.225 46.1164 14.43ZM42.4864 14.31L43.3414 14.49C43.1014 15.405 42.6364 16.32 42.1564 16.95C41.9914 16.815 41.6464 16.575 41.4364 16.47C41.9314 15.9 42.2914 15.105 42.4864 14.31ZM49.2364 9.765H48.2314C48.2464 10.2 48.2764 10.65 48.3064 11.07H50.6164C50.1814 10.74 49.4914 10.335 48.9064 10.08L49.2364 9.765ZM50.4364 12.675L51.4564 12.915C50.9764 14.235 50.3314 15.405 49.5214 16.395C50.0464 17.46 50.6464 18.075 51.2764 18.075C51.6214 18.075 51.7714 17.505 51.8464 16.095C52.0714 16.29 52.4164 16.485 52.6864 16.575C52.5214 18.51 52.1464 19.065 51.2014 19.065C50.2564 19.065 49.4464 18.375 48.8164 17.19C48.0664 17.97 47.2264 18.615 46.2964 19.155C46.1464 18.945 45.7714 18.57 45.5464 18.375C46.6264 17.82 47.5864 17.1 48.3814 16.215C47.9164 15.06 47.5864 13.62 47.3914 12.015H41.3164V13.56C41.3164 15.225 41.1214 17.58 40.0114 19.185C39.8314 19.02 39.3514 18.735 39.0964 18.63C40.1464 17.115 40.2814 15.06 40.2814 13.56V11.07H47.2864C47.2564 10.65 47.2264 10.2 47.2114 9.765H39.4414V8.82H41.8264V6.135H42.8764V8.82H45.5764V5.46H46.6714V6.72L51.1714 6.72V7.605L46.6714 7.605V8.82H52.5514V9.765H50.0164C50.5114 10.02 51.0064 10.305 51.3214 10.575L50.8414 11.07H52.4014V12.015H48.3964C48.5464 13.275 48.7864 14.385 49.1014 15.33C49.6564 14.535 50.1064 13.65 50.4364 12.675Z" fill="black"/>
<rect y="26" width="640" height="21" fill="#B73418"/>
<path d="M587.31 44.252C586.458 44.252 585.696 44.102 585.024 43.802C584.352 43.502 583.818 43.082 583.422 42.542C583.038 42.002 582.846 41.384 582.846 40.688C582.846 40.112 582.948 39.608 583.152 39.176C583.368 38.732 583.65 38.348 583.998 38.024C584.346 37.7 584.724 37.43 585.132 37.214V37.124C584.628 36.764 584.208 36.326 583.872 35.81C583.536 35.282 583.368 34.67 583.368 33.974C583.368 33.254 583.542 32.63 583.89 32.102C584.238 31.574 584.712 31.166 585.312 30.878C585.924 30.59 586.614 30.446 587.382 30.446C588.174 30.446 588.858 30.596 589.434 30.896C590.01 31.184 590.454 31.592 590.766 32.12C591.09 32.648 591.252 33.272 591.252 33.992C591.252 34.424 591.168 34.832 591 35.216C590.844 35.6 590.634 35.948 590.37 36.26C590.118 36.56 589.842 36.818 589.542 37.034V37.124C589.962 37.34 590.34 37.61 590.676 37.934C591.012 38.258 591.282 38.648 591.486 39.104C591.69 39.548 591.792 40.076 591.792 40.688C591.792 41.36 591.6 41.966 591.216 42.506C590.844 43.046 590.322 43.472 589.65 43.784C588.978 44.096 588.198 44.252 587.31 44.252ZM588.138 36.386C588.462 36.038 588.702 35.678 588.858 35.306C589.014 34.934 589.092 34.55 589.092 34.154C589.092 33.794 589.02 33.476 588.876 33.2C588.744 32.912 588.546 32.69 588.282 32.534C588.018 32.378 587.7 32.3 587.328 32.3C586.872 32.3 586.488 32.444 586.176 32.732C585.864 33.02 585.708 33.434 585.708 33.974C585.708 34.382 585.81 34.736 586.014 35.036C586.23 35.324 586.524 35.576 586.896 35.792C587.268 35.996 587.682 36.194 588.138 36.386ZM587.364 42.38C587.748 42.38 588.084 42.314 588.372 42.182C588.672 42.038 588.906 41.834 589.074 41.57C589.242 41.294 589.326 40.97 589.326 40.598C589.326 40.25 589.248 39.95 589.092 39.698C588.948 39.434 588.744 39.206 588.48 39.014C588.216 38.81 587.904 38.624 587.544 38.456C587.184 38.288 586.788 38.108 586.356 37.916C585.996 38.216 585.702 38.582 585.474 39.014C585.246 39.434 585.132 39.896 585.132 40.4C585.132 40.796 585.228 41.144 585.42 41.444C585.624 41.732 585.894 41.96 586.23 42.128C586.566 42.296 586.944 42.38 587.364 42.38ZM597.531 44.252C596.835 44.252 596.211 44.168 595.659 44C595.107 43.844 594.615 43.628 594.183 43.352C593.763 43.064 593.397 42.746 593.085 42.398L594.327 40.724C594.735 41.096 595.179 41.42 595.659 41.696C596.151 41.96 596.697 42.092 597.297 42.092C597.753 42.092 598.149 42.02 598.485 41.876C598.833 41.732 599.097 41.522 599.277 41.246C599.469 40.97 599.565 40.634 599.565 40.238C599.565 39.794 599.457 39.416 599.241 39.104C599.037 38.78 598.671 38.534 598.143 38.366C597.615 38.198 596.871 38.114 595.911 38.114V36.206C596.727 36.206 597.369 36.122 597.837 35.954C598.305 35.774 598.635 35.534 598.827 35.234C599.031 34.922 599.133 34.568 599.133 34.172C599.133 33.656 598.977 33.254 598.665 32.966C598.353 32.666 597.915 32.516 597.351 32.516C596.883 32.516 596.445 32.624 596.037 32.84C595.641 33.044 595.245 33.326 594.849 33.686L593.481 32.048C594.069 31.556 594.687 31.166 595.335 30.878C595.983 30.578 596.697 30.428 597.477 30.428C598.329 30.428 599.079 30.566 599.727 30.842C600.387 31.118 600.897 31.52 601.257 32.048C601.617 32.576 601.797 33.218 601.797 33.974C601.797 34.694 601.605 35.312 601.221 35.828C600.837 36.344 600.291 36.74 599.583 37.016V37.106C600.075 37.238 600.519 37.454 600.915 37.754C601.323 38.042 601.641 38.408 601.869 38.852C602.109 39.296 602.229 39.812 602.229 40.4C602.229 41.204 602.013 41.894 601.581 42.47C601.161 43.046 600.591 43.49 599.871 43.802C599.163 44.102 598.383 44.252 597.531 44.252ZM606.168 44.252C605.688 44.252 605.292 44.084 604.98 43.748C604.668 43.412 604.512 43.004 604.512 42.524C604.512 42.02 604.668 41.606 604.98 41.282C605.292 40.958 605.688 40.796 606.168 40.796C606.636 40.796 607.026 40.958 607.338 41.282C607.65 41.606 607.806 42.02 607.806 42.524C607.806 43.004 607.65 43.412 607.338 43.748C607.026 44.084 606.636 44.252 606.168 44.252ZM614.398 44.252C613.546 44.252 612.784 44.102 612.112 43.802C611.44 43.502 610.906 43.082 610.51 42.542C610.126 42.002 609.934 41.384 609.934 40.688C609.934 40.112 610.036 39.608 610.24 39.176C610.456 38.732 610.738 38.348 611.086 38.024C611.434 37.7 611.812 37.43 612.22 37.214V37.124C611.716 36.764 611.296 36.326 610.96 35.81C610.624 35.282 610.456 34.67 610.456 33.974C610.456 33.254 610.63 32.63 610.978 32.102C611.326 31.574 611.8 31.166 612.4 30.878C613.012 30.59 613.702 30.446 614.47 30.446C615.262 30.446 615.946 30.596 616.522 30.896C617.098 31.184 617.542 31.592 617.854 32.12C618.178 32.648 618.34 33.272 618.34 33.992C618.34 34.424 618.256 34.832 618.088 35.216C617.932 35.6 617.722 35.948 617.458 36.26C617.206 36.56 616.93 36.818 616.63 37.034V37.124C617.05 37.34 617.428 37.61 617.764 37.934C618.1 38.258 618.37 38.648 618.574 39.104C618.778 39.548 618.88 40.076 618.88 40.688C618.88 41.36 618.688 41.966 618.304 42.506C617.932 43.046 617.41 43.472 616.738 43.784C616.066 44.096 615.286 44.252 614.398 44.252ZM615.226 36.386C615.55 36.038 615.79 35.678 615.946 35.306C616.102 34.934 616.18 34.55 616.18 34.154C616.18 33.794 616.108 33.476 615.964 33.2C615.832 32.912 615.634 32.69 615.37 32.534C615.106 32.378 614.788 32.3 614.416 32.3C613.96 32.3 613.576 32.444 613.264 32.732C612.952 33.02 612.796 33.434 612.796 33.974C612.796 34.382 612.898 34.736 613.102 35.036C613.318 35.324 613.612 35.576 613.984 35.792C614.356 35.996 614.77 36.194 615.226 36.386ZM614.452 42.38C614.836 42.38 615.172 42.314 615.46 42.182C615.76 42.038 615.994 41.834 616.162 41.57C616.33 41.294 616.414 40.97 616.414 40.598C616.414 40.25 616.336 39.95 616.18 39.698C616.036 39.434 615.832 39.206 615.568 39.014C615.304 38.81 614.992 38.624 614.632 38.456C614.272 38.288 613.876 38.108 613.444 37.916C613.084 38.216 612.79 38.582 612.562 39.014C612.334 39.434 612.22 39.896 612.22 40.4C612.22 40.796 612.316 41.144 612.508 41.444C612.712 41.732 612.982 41.96 613.318 42.128C613.654 42.296 614.032 42.38 614.452 42.38Z" fill="white"/>
<rect y="51" width="582.633" height="21" fill="#FFA59B"/>
<path d="M528.348 69C528.408 67.848 528.51 66.786 528.654 65.814C528.798 64.83 529.002 63.906 529.266 63.042C529.53 62.166 529.872 61.308 530.292 60.468C530.724 59.628 531.258 58.77 531.894 57.894H525.9V55.662H534.756V57.282C533.988 58.218 533.364 59.118 532.884 59.982C532.416 60.846 532.056 61.722 531.804 62.61C531.564 63.498 531.384 64.458 531.264 65.49C531.156 66.522 531.072 67.692 531.012 69H528.348ZM541.305 69.252C540.681 69.252 540.075 69.12 539.487 68.856C538.911 68.592 538.401 68.19 537.957 67.65C537.513 67.098 537.159 66.402 536.895 65.562C536.643 64.71 536.517 63.696 536.517 62.52C536.517 61.284 536.655 60.216 536.931 59.316C537.219 58.416 537.603 57.684 538.083 57.12C538.563 56.544 539.109 56.118 539.721 55.842C540.345 55.566 540.999 55.428 541.683 55.428C542.499 55.428 543.201 55.578 543.789 55.878C544.389 56.166 544.887 56.52 545.283 56.94L543.879 58.524C543.651 58.26 543.351 58.032 542.979 57.84C542.607 57.648 542.229 57.552 541.845 57.552C541.305 57.552 540.813 57.708 540.369 58.02C539.937 58.332 539.589 58.848 539.325 59.568C539.061 60.288 538.929 61.272 538.929 62.52C538.929 63.672 539.031 64.596 539.235 65.292C539.451 65.976 539.733 66.474 540.081 66.786C540.429 67.098 540.819 67.254 541.251 67.254C541.587 67.254 541.887 67.164 542.151 66.984C542.427 66.792 542.649 66.516 542.817 66.156C542.985 65.784 543.069 65.328 543.069 64.788C543.069 64.26 542.985 63.828 542.817 63.492C542.661 63.156 542.439 62.904 542.151 62.736C541.875 62.568 541.545 62.484 541.161 62.484C540.801 62.484 540.423 62.598 540.027 62.826C539.631 63.042 539.265 63.426 538.929 63.978L538.803 62.196C539.043 61.86 539.325 61.572 539.649 61.332C539.985 61.092 540.327 60.912 540.675 60.792C541.035 60.672 541.359 60.612 541.647 60.612C542.391 60.612 543.051 60.762 543.627 61.062C544.215 61.362 544.671 61.818 544.995 62.43C545.319 63.042 545.481 63.828 545.481 64.788C545.481 65.7 545.289 66.492 544.905 67.164C544.533 67.824 544.029 68.34 543.393 68.712C542.757 69.072 542.061 69.252 541.305 69.252ZM549.168 69.252C548.688 69.252 548.292 69.084 547.98 68.748C547.668 68.412 547.512 68.004 547.512 67.524C547.512 67.02 547.668 66.606 547.98 66.282C548.292 65.958 548.688 65.796 549.168 65.796C549.636 65.796 550.026 65.958 550.338 66.282C550.65 66.606 550.806 67.02 550.806 67.524C550.806 68.004 550.65 68.412 550.338 68.748C550.026 69.084 549.636 69.252 549.168 69.252ZM558.154 69V60.81C558.154 60.426 558.166 59.97 558.19 59.442C558.214 58.902 558.238 58.434 558.262 58.038H558.172C558.016 58.398 557.848 58.758 557.668 59.118C557.488 59.478 557.302 59.844 557.11 60.216L555.04 63.528H562.204V65.544H552.466V63.744L557.434 55.662H560.62V69H558.154Z" fill="white"/>
<path d="M3.945 98.195C3.375 98.195 2.87 98.125 2.43 97.985C2 97.845 1.62 97.66 1.29 97.43C0.96 97.2 0.675 96.95 0.435 96.68L1.14 95.795C1.46 96.125 1.835 96.42 2.265 96.68C2.705 96.93 3.235 97.055 3.855 97.055C4.295 97.055 4.68 96.975 5.01 96.815C5.35 96.645 5.615 96.41 5.805 96.11C5.995 95.8 6.09 95.435 6.09 95.015C6.09 94.575 5.98 94.19 5.76 93.86C5.55 93.53 5.195 93.275 4.695 93.095C4.195 92.905 3.52 92.81 2.67 92.81V91.76C3.43 91.76 4.03 91.67 4.47 91.49C4.91 91.3 5.225 91.045 5.415 90.725C5.615 90.405 5.715 90.05 5.715 89.66C5.715 89.13 5.55 88.71 5.22 88.4C4.89 88.08 4.435 87.92 3.855 87.92C3.415 87.92 3 88.02 2.61 88.22C2.23 88.42 1.885 88.675 1.575 88.985L0.84 88.115C1.26 87.735 1.715 87.425 2.205 87.185C2.705 86.935 3.27 86.81 3.9 86.81C4.52 86.81 5.07 86.92 5.55 87.14C6.04 87.35 6.42 87.66 6.69 88.07C6.97 88.48 7.11 88.975 7.11 89.555C7.11 90.225 6.93 90.78 6.57 91.22C6.21 91.66 5.74 91.985 5.16 92.195V92.27C5.59 92.37 5.98 92.545 6.33 92.795C6.68 93.045 6.96 93.36 7.17 93.74C7.38 94.12 7.485 94.56 7.485 95.06C7.485 95.71 7.325 96.27 7.005 96.74C6.685 97.21 6.26 97.57 5.73 97.82C5.2 98.07 4.605 98.195 3.945 98.195ZM12.4903 98.195C11.8003 98.195 11.1953 97.985 10.6753 97.565C10.1653 97.145 9.77031 96.51 9.49031 95.66C9.21031 94.81 9.07031 93.745 9.07031 92.465C9.07031 91.185 9.21031 90.13 9.49031 89.3C9.77031 88.46 10.1653 87.835 10.6753 87.425C11.1953 87.015 11.8003 86.81 12.4903 86.81C13.1903 86.81 13.7953 87.02 14.3053 87.44C14.8153 87.85 15.2103 88.47 15.4903 89.3C15.7703 90.13 15.9103 91.185 15.9103 92.465C15.9103 93.745 15.7703 94.81 15.4903 95.66C15.2103 96.51 14.8153 97.145 14.3053 97.565C13.7953 97.985 13.1903 98.195 12.4903 98.195ZM12.4903 97.085C12.9103 97.085 13.2753 96.925 13.5853 96.605C13.9053 96.285 14.1503 95.785 14.3203 95.105C14.5003 94.415 14.5903 93.535 14.5903 92.465C14.5903 91.395 14.5003 90.525 14.3203 89.855C14.1503 89.175 13.9053 88.68 13.5853 88.37C13.2753 88.05 12.9103 87.89 12.4903 87.89C12.0803 87.89 11.7153 88.05 11.3953 88.37C11.0753 88.68 10.8253 89.175 10.6453 89.855C10.4753 90.525 10.3903 91.395 10.3903 92.465C10.3903 93.535 10.4753 94.415 10.6453 95.105C10.8253 95.785 11.0753 96.285 11.3953 96.605C11.7153 96.925 12.0803 97.085 12.4903 97.085ZM17.3306 94.325V93.275H21.1856V94.325H17.3306ZM25.7858 98.195C25.2158 98.195 24.7108 98.125 24.2708 97.985C23.8408 97.845 23.4608 97.66 23.1308 97.43C22.8008 97.2 22.5158 96.95 22.2758 96.68L22.9808 95.795C23.3008 96.125 23.6758 96.42 24.1058 96.68C24.5458 96.93 25.0758 97.055 25.6958 97.055C26.1358 97.055 26.5208 96.975 26.8508 96.815C27.1908 96.645 27.4558 96.41 27.6458 96.11C27.8358 95.8 27.9308 95.435 27.9308 95.015C27.9308 94.575 27.8208 94.19 27.6008 93.86C27.3908 93.53 27.0358 93.275 26.5358 93.095C26.0358 92.905 25.3608 92.81 24.5108 92.81V91.76C25.2708 91.76 25.8708 91.67 26.3108 91.49C26.7508 91.3 27.0658 91.045 27.2558 90.725C27.4558 90.405 27.5558 90.05 27.5558 89.66C27.5558 89.13 27.3908 88.71 27.0608 88.4C26.7308 88.08 26.2758 87.92 25.6958 87.92C25.2558 87.92 24.8408 88.02 24.4508 88.22C24.0708 88.42 23.7258 88.675 23.4158 88.985L22.6808 88.115C23.1008 87.735 23.5558 87.425 24.0458 87.185C24.5458 86.935 25.1108 86.81 25.7408 86.81C26.3608 86.81 26.9108 86.92 27.3908 87.14C27.8808 87.35 28.2608 87.66 28.5308 88.07C28.8108 88.48 28.9508 88.975 28.9508 89.555C28.9508 90.225 28.7708 90.78 28.4108 91.22C28.0508 91.66 27.5808 91.985 27.0008 92.195V92.27C27.4308 92.37 27.8208 92.545 28.1708 92.795C28.5208 93.045 28.8008 93.36 29.0108 93.74C29.2208 94.12 29.3258 94.56 29.3258 95.06C29.3258 95.71 29.1658 96.27 28.8458 96.74C28.5258 97.21 28.1008 97.57 27.5708 97.82C27.0408 98.07 26.4458 98.195 25.7858 98.195ZM35.2611 98V90.5C35.2611 90.23 35.2711 89.9 35.2911 89.51C35.3111 89.12 35.3261 88.785 35.3361 88.505H35.2761C35.1361 88.765 34.9911 89.035 34.8411 89.315C34.7011 89.585 34.5511 89.855 34.3911 90.125L31.8861 93.875H38.0211V94.97H30.4611V94.07L35.0361 87.005H36.5511V98H35.2611ZM47.2114 89.465H48.2464C48.2664 90.705 48.3614 91.85 48.5314 92.9C48.7114 93.95 48.9414 94.865 49.2214 95.645C49.5114 96.425 49.8364 97.03 50.1964 97.46C50.5564 97.89 50.9314 98.105 51.3214 98.105C51.4914 98.105 51.6164 97.95 51.6964 97.64C51.7864 97.33 51.8514 96.82 51.8914 96.11C51.9914 96.21 52.1214 96.31 52.2814 96.41C52.4514 96.5 52.6014 96.565 52.7314 96.605C52.6814 97.255 52.6014 97.76 52.4914 98.12C52.3814 98.49 52.2264 98.75 52.0264 98.9C51.8264 99.05 51.5664 99.125 51.2464 99.125C50.7764 99.125 50.3364 98.96 49.9264 98.63C49.5264 98.3 49.1664 97.84 48.8464 97.25C48.5264 96.66 48.2464 95.965 48.0064 95.165C47.7764 94.355 47.5914 93.47 47.4514 92.51C47.3214 91.54 47.2414 90.525 47.2114 89.465ZM48.9364 90.05L49.4914 89.495C49.8314 89.625 50.1764 89.79 50.5264 89.99C50.8864 90.18 51.1664 90.365 51.3664 90.545L50.7814 91.16C50.5914 90.98 50.3164 90.785 49.9564 90.575C49.6064 90.365 49.2664 90.19 48.9364 90.05ZM50.4664 92.69L51.5014 92.915C50.9914 94.335 50.2914 95.57 49.4014 96.62C48.5114 97.67 47.4814 98.53 46.3114 99.2C46.2614 99.13 46.1914 99.045 46.1014 98.945C46.0114 98.845 45.9164 98.745 45.8164 98.645C45.7164 98.555 45.6264 98.475 45.5464 98.405C46.6964 97.835 47.6964 97.06 48.5464 96.08C49.3964 95.1 50.0364 93.97 50.4664 92.69ZM42.4714 94.325L43.3264 94.505C43.1964 94.965 43.0264 95.415 42.8164 95.855C42.6064 96.295 42.3764 96.67 42.1264 96.98C42.0464 96.92 41.9314 96.84 41.7814 96.74C41.6314 96.64 41.5064 96.56 41.4064 96.5C41.6564 96.21 41.8714 95.875 42.0514 95.495C42.2314 95.115 42.3714 94.725 42.4714 94.325ZM40.8064 91.055H52.4614V92H40.8064V91.055ZM41.9764 92.87H46.7614V93.71H41.9764V92.87ZM39.3814 88.775H52.5964V89.735H39.3814V88.775ZM46.2214 86.69H51.2164V87.56H46.2214V86.69ZM40.2364 91.055H41.2864V93.575C41.2864 93.995 41.2664 94.45 41.2264 94.94C41.1964 95.43 41.1314 95.93 41.0314 96.44C40.9414 96.94 40.8114 97.43 40.6414 97.91C40.4714 98.39 40.2464 98.83 39.9664 99.23C39.9064 99.17 39.8164 99.105 39.6964 99.035C39.5864 98.965 39.4714 98.895 39.3514 98.825C39.2314 98.765 39.1264 98.72 39.0364 98.69C39.3964 98.18 39.6614 97.625 39.8314 97.025C40.0014 96.425 40.1114 95.825 40.1614 95.225C40.2114 94.625 40.2364 94.07 40.2364 93.56V91.055ZM45.5764 85.4H46.6864V89.24H45.5764V85.4ZM41.7964 86.075H42.8614V89.285H41.7964V86.075ZM46.1164 94.445L47.0464 94.595C46.7164 95.655 46.1214 96.58 45.2614 97.37C44.4014 98.16 43.3364 98.745 42.0664 99.125C42.0064 99.035 41.9264 98.915 41.8264 98.765C41.7364 98.625 41.6514 98.515 41.5714 98.435C42.7614 98.095 43.7564 97.58 44.5564 96.89C45.3564 96.19 45.8764 95.375 46.1164 94.445ZM43.9264 93.425H44.8714V96.755H43.9264V93.425Z" fill="black"/>
<rect y="107" width="464.314" height="21" fill="#B73418"/>
<path d="M411.688 125.252C411.064 125.252 410.458 125.12 409.87 124.856C409.294 124.592 408.784 124.19 408.34 123.65C407.896 123.098 407.542 122.402 407.278 121.562C407.026 120.71 406.9 119.696 406.9 118.52C406.9 117.284 407.038 116.216 407.314 115.316C407.602 114.416 407.986 113.684 408.466 113.12C408.946 112.544 409.492 112.118 410.104 111.842C410.728 111.566 411.382 111.428 412.066 111.428C412.882 111.428 413.584 111.578 414.172 111.878C414.772 112.166 415.27 112.52 415.666 112.94L414.262 114.524C414.034 114.26 413.734 114.032 413.362 113.84C412.99 113.648 412.612 113.552 412.228 113.552C411.688 113.552 411.196 113.708 410.752 114.02C410.32 114.332 409.972 114.848 409.708 115.568C409.444 116.288 409.312 117.272 409.312 118.52C409.312 119.672 409.414 120.596 409.618 121.292C409.834 121.976 410.116 122.474 410.464 122.786C410.812 123.098 411.202 123.254 411.634 123.254C411.97 123.254 412.27 123.164 412.534 122.984C412.81 122.792 413.032 122.516 413.2 122.156C413.368 121.784 413.452 121.328 413.452 120.788C413.452 120.26 413.368 119.828 413.2 119.492C413.044 119.156 412.822 118.904 412.534 118.736C412.258 118.568 411.928 118.484 411.544 118.484C411.184 118.484 410.806 118.598 410.41 118.826C410.014 119.042 409.648 119.426 409.312 119.978L409.186 118.196C409.426 117.86 409.708 117.572 410.032 117.332C410.368 117.092 410.71 116.912 411.058 116.792C411.418 116.672 411.742 116.612 412.03 116.612C412.774 116.612 413.434 116.762 414.01 117.062C414.598 117.362 415.054 117.818 415.378 118.43C415.702 119.042 415.864 119.828 415.864 120.788C415.864 121.7 415.672 122.492 415.288 123.164C414.916 123.824 414.412 124.34 413.776 124.712C413.14 125.072 412.444 125.252 411.688 125.252ZM421.927 125.252C421.027 125.252 420.235 124.994 419.551 124.478C418.879 123.95 418.351 123.17 417.967 122.138C417.595 121.094 417.409 119.804 417.409 118.268C417.409 116.744 417.595 115.478 417.967 114.47C418.351 113.45 418.879 112.688 419.551 112.184C420.235 111.68 421.027 111.428 421.927 111.428C422.839 111.428 423.631 111.686 424.303 112.202C424.975 112.706 425.497 113.462 425.869 114.47C426.253 115.478 426.445 116.744 426.445 118.268C426.445 119.804 426.253 121.094 425.869 122.138C425.497 123.17 424.975 123.95 424.303 124.478C423.631 124.994 422.839 125.252 421.927 125.252ZM421.927 123.182C422.323 123.182 422.671 123.032 422.971 122.732C423.271 122.432 423.505 121.928 423.673 121.22C423.841 120.5 423.925 119.516 423.925 118.268C423.925 117.032 423.841 116.066 423.673 115.37C423.505 114.662 423.271 114.17 422.971 113.894C422.671 113.606 422.323 113.462 421.927 113.462C421.555 113.462 421.213 113.606 420.901 113.894C420.601 114.17 420.361 114.662 420.181 115.37C420.001 116.066 419.911 117.032 419.911 118.268C419.911 119.516 420.001 120.5 420.181 121.22C420.361 121.928 420.601 122.432 420.901 122.732C421.213 123.032 421.555 123.182 421.927 123.182ZM430.168 125.252C429.688 125.252 429.292 125.084 428.98 124.748C428.668 124.412 428.512 124.004 428.512 123.524C428.512 123.02 428.668 122.606 428.98 122.282C429.292 121.958 429.688 121.796 430.168 121.796C430.636 121.796 431.026 121.958 431.338 122.282C431.65 122.606 431.806 123.02 431.806 123.524C431.806 124.004 431.65 124.412 431.338 124.748C431.026 125.084 430.636 125.252 430.168 125.252ZM436.436 125C436.496 123.848 436.598 122.786 436.742 121.814C436.886 120.83 437.09 119.906 437.354 119.042C437.618 118.166 437.96 117.308 438.38 116.468C438.812 115.628 439.346 114.77 439.982 113.894H433.988V111.662H442.844V113.282C442.076 114.218 441.452 115.118 440.972 115.982C440.504 116.846 440.144 117.722 439.892 118.61C439.652 119.498 439.472 120.458 439.352 121.49C439.244 122.522 439.16 123.692 439.1 125H436.436Z" fill="white"/>
<rect y="132" width="337.031" height="21" fill="#FFA59B"/>
<path d="M285.066 150V141.81C285.066 141.426 285.078 140.97 285.102 140.442C285.126 139.902 285.15 139.434 285.174 139.038H285.084C284.928 139.398 284.76 139.758 284.58 140.118C284.4 140.478 284.214 140.844 284.022 141.216L281.952 144.528H289.116V146.544H279.378V144.744L284.346 136.662H287.532V150H285.066ZM295.683 150V141.81C295.683 141.426 295.695 140.97 295.719 140.442C295.743 139.902 295.767 139.434 295.791 139.038H295.701C295.545 139.398 295.377 139.758 295.197 140.118C295.017 140.478 294.831 140.844 294.639 141.216L292.569 144.528H299.733V146.544H289.995V144.744L294.963 136.662H298.149V150H295.683ZM303.168 150.252C302.688 150.252 302.292 150.084 301.98 149.748C301.668 149.412 301.512 149.004 301.512 148.524C301.512 148.02 301.668 147.606 301.98 147.282C302.292 146.958 302.688 146.796 303.168 146.796C303.636 146.796 304.026 146.958 304.338 147.282C304.65 147.606 304.806 148.02 304.806 148.524C304.806 149.004 304.65 149.412 304.338 149.748C304.026 150.084 303.636 150.252 303.168 150.252ZM307.564 150V147.84H310.444V139.434H308.014V137.778C308.686 137.658 309.262 137.514 309.742 137.346C310.234 137.166 310.69 136.938 311.11 136.662H313.072V147.84H315.574V150H307.564Z" fill="white"/>
<path d="M3.945 179.195C3.375 179.195 2.87 179.125 2.43 178.985C2 178.845 1.62 178.66 1.29 178.43C0.96 178.2 0.675 177.95 0.435 177.68L1.14 176.795C1.46 177.125 1.835 177.42 2.265 177.68C2.705 177.93 3.235 178.055 3.855 178.055C4.295 178.055 4.68 177.975 5.01 177.815C5.35 177.645 5.615 177.41 5.805 177.11C5.995 176.8 6.09 176.435 6.09 176.015C6.09 175.575 5.98 175.19 5.76 174.86C5.55 174.53 5.195 174.275 4.695 174.095C4.195 173.905 3.52 173.81 2.67 173.81V172.76C3.43 172.76 4.03 172.67 4.47 172.49C4.91 172.3 5.225 172.045 5.415 171.725C5.615 171.405 5.715 171.05 5.715 170.66C5.715 170.13 5.55 169.71 5.22 169.4C4.89 169.08 4.435 168.92 3.855 168.92C3.415 168.92 3 169.02 2.61 169.22C2.23 169.42 1.885 169.675 1.575 169.985L0.84 169.115C1.26 168.735 1.715 168.425 2.205 168.185C2.705 167.935 3.27 167.81 3.9 167.81C4.52 167.81 5.07 167.92 5.55 168.14C6.04 168.35 6.42 168.66 6.69 169.07C6.97 169.48 7.11 169.975 7.11 170.555C7.11 171.225 6.93 171.78 6.57 172.22C6.21 172.66 5.74 172.985 5.16 173.195V173.27C5.59 173.37 5.98 173.545 6.33 173.795C6.68 174.045 6.96 174.36 7.17 174.74C7.38 175.12 7.485 175.56 7.485 176.06C7.485 176.71 7.325 177.27 7.005 177.74C6.685 178.21 6.26 178.57 5.73 178.82C5.2 179.07 4.605 179.195 3.945 179.195ZM12.2503 179.195C11.6803 179.195 11.1753 179.125 10.7353 178.985C10.3053 178.845 9.92531 178.665 9.59531 178.445C9.27531 178.225 8.98531 177.99 8.72531 177.74L9.41531 176.84C9.62531 177.05 9.85531 177.25 10.1053 177.44C10.3653 177.62 10.6603 177.77 10.9903 177.89C11.3203 178 11.6953 178.055 12.1153 178.055C12.5453 178.055 12.9353 177.95 13.2853 177.74C13.6453 177.53 13.9303 177.23 14.1403 176.84C14.3503 176.45 14.4553 175.99 14.4553 175.46C14.4553 174.68 14.2453 174.07 13.8253 173.63C13.4153 173.18 12.8653 172.955 12.1753 172.955C11.8153 172.955 11.5003 173.01 11.2303 173.12C10.9603 173.23 10.6653 173.39 10.3453 173.6L9.61031 173.135L9.97031 168.005H15.3103V169.175H11.1703L10.8853 172.355C11.1253 172.215 11.3753 172.11 11.6353 172.04C11.9053 171.96 12.2053 171.92 12.5353 171.92C13.1453 171.92 13.7003 172.045 14.2003 172.295C14.7003 172.535 15.1003 172.915 15.4003 173.435C15.7003 173.955 15.8503 174.62 15.8503 175.43C15.8503 176.23 15.6753 176.91 15.3253 177.47C14.9853 178.03 14.5403 178.46 13.9903 178.76C13.4403 179.05 12.8603 179.195 12.2503 179.195ZM17.3306 175.325V174.275H21.1856V175.325H17.3306ZM25.7858 179.195C25.2158 179.195 24.7108 179.125 24.2708 178.985C23.8408 178.845 23.4608 178.66 23.1308 178.43C22.8008 178.2 22.5158 177.95 22.2758 177.68L22.9808 176.795C23.3008 177.125 23.6758 177.42 24.1058 177.68C24.5458 177.93 25.0758 178.055 25.6958 178.055C26.1358 178.055 26.5208 177.975 26.8508 177.815C27.1908 177.645 27.4558 177.41 27.6458 177.11C27.8358 176.8 27.9308 176.435 27.9308 176.015C27.9308 175.575 27.8208 175.19 27.6008 174.86C27.3908 174.53 27.0358 174.275 26.5358 174.095C26.0358 173.905 25.3608 173.81 24.5108 173.81V172.76C25.2708 172.76 25.8708 172.67 26.3108 172.49C26.7508 172.3 27.0658 172.045 27.2558 171.725C27.4558 171.405 27.5558 171.05 27.5558 170.66C27.5558 170.13 27.3908 169.71 27.0608 169.4C26.7308 169.08 26.2758 168.92 25.6958 168.92C25.2558 168.92 24.8408 169.02 24.4508 169.22C24.0708 169.42 23.7258 169.675 23.4158 169.985L22.6808 169.115C23.1008 168.735 23.5558 168.425 24.0458 168.185C24.5458 167.935 25.1108 167.81 25.7408 167.81C26.3608 167.81 26.9108 167.92 27.3908 168.14C27.8808 168.35 28.2608 168.66 28.5308 169.07C28.8108 169.48 28.9508 169.975 28.9508 170.555C28.9508 171.225 28.7708 171.78 28.4108 172.22C28.0508 172.66 27.5808 172.985 27.0008 173.195V173.27C27.4308 173.37 27.8208 173.545 28.1708 173.795C28.5208 174.045 28.8008 174.36 29.0108 174.74C29.2208 175.12 29.3258 175.56 29.3258 176.06C29.3258 176.71 29.1658 177.27 28.8458 177.74C28.5258 178.21 28.1008 178.57 27.5708 178.82C27.0408 179.07 26.4458 179.195 25.7858 179.195ZM33.6861 179.195C33.0861 179.195 32.5661 179.09 32.1261 178.88C31.6961 178.66 31.3311 178.39 31.0311 178.07L31.7811 177.215C32.0211 177.475 32.3011 177.68 32.6211 177.83C32.9511 177.98 33.2911 178.055 33.6411 178.055C34.0111 178.055 34.3611 177.97 34.6911 177.8C35.0211 177.63 35.3111 177.35 35.5611 176.96C35.8211 176.56 36.0211 176.04 36.1611 175.4C36.3111 174.76 36.3861 173.97 36.3861 173.03C36.3861 172.13 36.2911 171.37 36.1011 170.75C35.9211 170.13 35.6511 169.665 35.2911 169.355C34.9311 169.035 34.4961 168.875 33.9861 168.875C33.6361 168.875 33.3211 168.98 33.0411 169.19C32.7611 169.4 32.5361 169.69 32.3661 170.06C32.1961 170.43 32.1111 170.87 32.1111 171.38C32.1111 171.87 32.1811 172.3 32.3211 172.67C32.4711 173.03 32.6911 173.31 32.9811 173.51C33.2811 173.71 33.6461 173.81 34.0761 173.81C34.4461 173.81 34.8311 173.695 35.2311 173.465C35.6411 173.225 36.0311 172.835 36.4011 172.295L36.4611 173.39C36.2411 173.67 35.9861 173.92 35.6961 174.14C35.4161 174.36 35.1161 174.53 34.7961 174.65C34.4861 174.77 34.1711 174.83 33.8511 174.83C33.2411 174.83 32.7061 174.7 32.2461 174.44C31.7961 174.18 31.4461 173.795 31.1961 173.285C30.9461 172.765 30.8211 172.13 30.8211 171.38C30.8211 170.66 30.9661 170.035 31.2561 169.505C31.5461 168.965 31.9261 168.55 32.3961 168.26C32.8761 167.96 33.4011 167.81 33.9711 167.81C34.5011 167.81 34.9911 167.92 35.4411 168.14C35.8911 168.35 36.2811 168.675 36.6111 169.115C36.9411 169.545 37.2011 170.085 37.3911 170.735C37.5811 171.385 37.6761 172.15 37.6761 173.03C37.6761 174.14 37.5661 175.09 37.3461 175.88C37.1261 176.66 36.8261 177.295 36.4461 177.785C36.0661 178.275 35.6361 178.635 35.1561 178.865C34.6861 179.085 34.1961 179.195 33.6861 179.195ZM47.2114 170.465H48.2464C48.2664 171.705 48.3614 172.85 48.5314 173.9C48.7114 174.95 48.9414 175.865 49.2214 176.645C49.5114 177.425 49.8364 178.03 50.1964 178.46C50.5564 178.89 50.9314 179.105 51.3214 179.105C51.4914 179.105 51.6164 178.95 51.6964 178.64C51.7864 178.33 51.8514 177.82 51.8914 177.11C51.9914 177.21 52.1214 177.31 52.2814 177.41C52.4514 177.5 52.6014 177.565 52.7314 177.605C52.6814 178.255 52.6014 178.76 52.4914 179.12C52.3814 179.49 52.2264 179.75 52.0264 179.9C51.8264 180.05 51.5664 180.125 51.2464 180.125C50.7764 180.125 50.3364 179.96 49.9264 179.63C49.5264 179.3 49.1664 178.84 48.8464 178.25C48.5264 177.66 48.2464 176.965 48.0064 176.165C47.7764 175.355 47.5914 174.47 47.4514 173.51C47.3214 172.54 47.2414 171.525 47.2114 170.465ZM48.9364 171.05L49.4914 170.495C49.8314 170.625 50.1764 170.79 50.5264 170.99C50.8864 171.18 51.1664 171.365 51.3664 171.545L50.7814 172.16C50.5914 171.98 50.3164 171.785 49.9564 171.575C49.6064 171.365 49.2664 171.19 48.9364 171.05ZM50.4664 173.69L51.5014 173.915C50.9914 175.335 50.2914 176.57 49.4014 177.62C48.5114 178.67 47.4814 179.53 46.3114 180.2C46.2614 180.13 46.1914 180.045 46.1014 179.945C46.0114 179.845 45.9164 179.745 45.8164 179.645C45.7164 179.555 45.6264 179.475 45.5464 179.405C46.6964 178.835 47.6964 178.06 48.5464 177.08C49.3964 176.1 50.0364 174.97 50.4664 173.69ZM42.4714 175.325L43.3264 175.505C43.1964 175.965 43.0264 176.415 42.8164 176.855C42.6064 177.295 42.3764 177.67 42.1264 177.98C42.0464 177.92 41.9314 177.84 41.7814 177.74C41.6314 177.64 41.5064 177.56 41.4064 177.5C41.6564 177.21 41.8714 176.875 42.0514 176.495C42.2314 176.115 42.3714 175.725 42.4714 175.325ZM40.8064 172.055H52.4614V173H40.8064V172.055ZM41.9764 173.87H46.7614V174.71H41.9764V173.87ZM39.3814 169.775H52.5964V170.735H39.3814V169.775ZM46.2214 167.69H51.2164V168.56H46.2214V167.69ZM40.2364 172.055H41.2864V174.575C41.2864 174.995 41.2664 175.45 41.2264 175.94C41.1964 176.43 41.1314 176.93 41.0314 177.44C40.9414 177.94 40.8114 178.43 40.6414 178.91C40.4714 179.39 40.2464 179.83 39.9664 180.23C39.9064 180.17 39.8164 180.105 39.6964 180.035C39.5864 179.965 39.4714 179.895 39.3514 179.825C39.2314 179.765 39.1264 179.72 39.0364 179.69C39.3964 179.18 39.6614 178.625 39.8314 178.025C40.0014 177.425 40.1114 176.825 40.1614 176.225C40.2114 175.625 40.2364 175.07 40.2364 174.56V172.055ZM45.5764 166.4H46.6864V170.24H45.5764V166.4ZM41.7964 167.075H42.8614V170.285H41.7964V167.075ZM46.1164 175.445L47.0464 175.595C46.7164 176.655 46.1214 177.58 45.2614 178.37C44.4014 179.16 43.3364 179.745 42.0664 180.125C42.0064 180.035 41.9264 179.915 41.8264 179.765C41.7364 179.625 41.6514 179.515 41.5714 179.435C42.7614 179.095 43.7564 178.58 44.5564 177.89C45.3564 177.19 45.8764 176.375 46.1164 175.445ZM43.9264 174.425H44.8714V177.755H43.9264V174.425Z" fill="black"/>
<rect y="188" width="315.949" height="21" fill="#B73418"/>
<path d="M264.066 206V197.81C264.066 197.426 264.078 196.97 264.102 196.442C264.126 195.902 264.15 195.434 264.174 195.038H264.084C263.928 195.398 263.76 195.758 263.58 196.118C263.4 196.478 263.214 196.844 263.022 197.216L260.952 200.528H268.116V202.544H258.378V200.744L263.346 192.662H266.532V206H264.066ZM270.093 206V203.84H272.973V195.434H270.543V193.778C271.215 193.658 271.791 193.514 272.271 193.346C272.763 193.166 273.219 192.938 273.639 192.662H275.601V203.84H278.103V206H270.093ZM282.168 206.252C281.688 206.252 281.292 206.084 280.98 205.748C280.668 205.412 280.512 205.004 280.512 204.524C280.512 204.02 280.668 203.606 280.98 203.282C281.292 202.958 281.688 202.796 282.168 202.796C282.636 202.796 283.026 202.958 283.338 203.282C283.65 203.606 283.806 204.02 283.806 204.524C283.806 205.004 283.65 205.412 283.338 205.748C283.026 206.084 282.636 206.252 282.168 206.252ZM291.154 206V197.81C291.154 197.426 291.166 196.97 291.19 196.442C291.214 195.902 291.238 195.434 291.262 195.038H291.172C291.016 195.398 290.848 195.758 290.668 196.118C290.488 196.478 290.302 196.844 290.11 197.216L288.04 200.528H295.204V202.544H285.466V200.744L290.434 192.662H293.62V206H291.154Z" fill="white"/>
<rect y="213" width="180.253" height="21" fill="#FFA59B"/>
<path d="M122.774 231V229.47C123.986 228.39 125.018 227.388 125.87 226.464C126.734 225.54 127.394 224.682 127.85 223.89C128.306 223.086 128.534 222.342 128.534 221.658C128.534 221.226 128.456 220.848 128.3 220.524C128.144 220.2 127.916 219.954 127.616 219.786C127.328 219.606 126.968 219.516 126.536 219.516C126.056 219.516 125.612 219.654 125.204 219.93C124.808 220.194 124.442 220.512 124.106 220.884L122.63 219.462C123.254 218.79 123.89 218.286 124.538 217.95C125.198 217.602 125.978 217.428 126.878 217.428C127.718 217.428 128.45 217.602 129.074 217.95C129.71 218.286 130.202 218.76 130.55 219.372C130.898 219.984 131.072 220.704 131.072 221.532C131.072 222.336 130.868 223.158 130.46 223.998C130.064 224.826 129.53 225.654 128.858 226.482C128.186 227.31 127.442 228.126 126.626 228.93C126.974 228.882 127.346 228.846 127.742 228.822C128.15 228.786 128.51 228.768 128.822 228.768H131.702V231H122.774ZM137.531 231.252C136.835 231.252 136.211 231.168 135.659 231C135.107 230.844 134.615 230.628 134.183 230.352C133.763 230.064 133.397 229.746 133.085 229.398L134.327 227.724C134.735 228.096 135.179 228.42 135.659 228.696C136.151 228.96 136.697 229.092 137.297 229.092C137.753 229.092 138.149 229.02 138.485 228.876C138.833 228.732 139.097 228.522 139.277 228.246C139.469 227.97 139.565 227.634 139.565 227.238C139.565 226.794 139.457 226.416 139.241 226.104C139.037 225.78 138.671 225.534 138.143 225.366C137.615 225.198 136.871 225.114 135.911 225.114V223.206C136.727 223.206 137.369 223.122 137.837 222.954C138.305 222.774 138.635 222.534 138.827 222.234C139.031 221.922 139.133 221.568 139.133 221.172C139.133 220.656 138.977 220.254 138.665 219.966C138.353 219.666 137.915 219.516 137.351 219.516C136.883 219.516 136.445 219.624 136.037 219.84C135.641 220.044 135.245 220.326 134.849 220.686L133.481 219.048C134.069 218.556 134.687 218.166 135.335 217.878C135.983 217.578 136.697 217.428 137.477 217.428C138.329 217.428 139.079 217.566 139.727 217.842C140.387 218.118 140.897 218.52 141.257 219.048C141.617 219.576 141.797 220.218 141.797 220.974C141.797 221.694 141.605 222.312 141.221 222.828C140.837 223.344 140.291 223.74 139.583 224.016V224.106C140.075 224.238 140.519 224.454 140.915 224.754C141.323 225.042 141.641 225.408 141.869 225.852C142.109 226.296 142.229 226.812 142.229 227.4C142.229 228.204 142.013 228.894 141.581 229.47C141.161 230.046 140.591 230.49 139.871 230.802C139.163 231.102 138.383 231.252 137.531 231.252ZM146.168 231.252C145.688 231.252 145.292 231.084 144.98 230.748C144.668 230.412 144.512 230.004 144.512 229.524C144.512 229.02 144.668 228.606 144.98 228.282C145.292 227.958 145.688 227.796 146.168 227.796C146.636 227.796 147.026 227.958 147.338 228.282C147.65 228.606 147.806 229.02 147.806 229.524C147.806 230.004 147.65 230.412 147.338 230.748C147.026 231.084 146.636 231.252 146.168 231.252ZM154.398 231.252C153.546 231.252 152.784 231.102 152.112 230.802C151.44 230.502 150.906 230.082 150.51 229.542C150.126 229.002 149.934 228.384 149.934 227.688C149.934 227.112 150.036 226.608 150.24 226.176C150.456 225.732 150.738 225.348 151.086 225.024C151.434 224.7 151.812 224.43 152.22 224.214V224.124C151.716 223.764 151.296 223.326 150.96 222.81C150.624 222.282 150.456 221.67 150.456 220.974C150.456 220.254 150.63 219.63 150.978 219.102C151.326 218.574 151.8 218.166 152.4 217.878C153.012 217.59 153.702 217.446 154.47 217.446C155.262 217.446 155.946 217.596 156.522 217.896C157.098 218.184 157.542 218.592 157.854 219.12C158.178 219.648 158.34 220.272 158.34 220.992C158.34 221.424 158.256 221.832 158.088 222.216C157.932 222.6 157.722 222.948 157.458 223.26C157.206 223.56 156.93 223.818 156.63 224.034V224.124C157.05 224.34 157.428 224.61 157.764 224.934C158.1 225.258 158.37 225.648 158.574 226.104C158.778 226.548 158.88 227.076 158.88 227.688C158.88 228.36 158.688 228.966 158.304 229.506C157.932 230.046 157.41 230.472 156.738 230.784C156.066 231.096 155.286 231.252 154.398 231.252ZM155.226 223.386C155.55 223.038 155.79 222.678 155.946 222.306C156.102 221.934 156.18 221.55 156.18 221.154C156.18 220.794 156.108 220.476 155.964 220.2C155.832 219.912 155.634 219.69 155.37 219.534C155.106 219.378 154.788 219.3 154.416 219.3C153.96 219.3 153.576 219.444 153.264 219.732C152.952 220.02 152.796 220.434 152.796 220.974C152.796 221.382 152.898 221.736 153.102 222.036C153.318 222.324 153.612 222.576 153.984 222.792C154.356 222.996 154.77 223.194 155.226 223.386ZM154.452 229.38C154.836 229.38 155.172 229.314 155.46 229.182C155.76 229.038 155.994 228.834 156.162 228.57C156.33 228.294 156.414 227.97 156.414 227.598C156.414 227.25 156.336 226.95 156.18 226.698C156.036 226.434 155.832 226.206 155.568 226.014C155.304 225.81 154.992 225.624 154.632 225.456C154.272 225.288 153.876 225.108 153.444 224.916C153.084 225.216 152.79 225.582 152.562 226.014C152.334 226.434 152.22 226.896 152.22 227.4C152.22 227.796 152.316 228.144 152.508 228.444C152.712 228.732 152.982 228.96 153.318 229.128C153.654 229.296 154.032 229.38 154.452 229.38Z" fill="white"/>
<path d="M589.66 198V197.19C593.11 194.175 594.7 191.985 594.7 190.095C594.7 188.835 594.04 187.92 592.675 187.92C591.775 187.92 590.995 188.475 590.395 189.195L589.6 188.415C590.5 187.44 591.445 186.795 592.84 186.795C594.805 186.795 596.035 188.085 596.035 190.05C596.035 192.24 594.31 194.475 591.73 196.92C592.3 196.875 592.975 196.815 593.53 196.815H596.575V198H589.66ZM601.49 198.195C599.39 198.195 598.055 196.29 598.055 192.465C598.055 188.64 599.39 186.795 601.49 186.795C603.575 186.795 604.91 188.655 604.91 192.465C604.91 196.29 603.575 198.195 601.49 198.195ZM601.49 197.1C602.735 197.1 603.575 195.705 603.575 192.465C603.575 189.255 602.735 187.89 601.49 187.89C600.23 187.89 599.39 189.255 599.39 192.465C599.39 195.705 600.23 197.1 601.49 197.1ZM606.301 198V197.19C609.751 194.175 611.341 191.985 611.341 190.095C611.341 188.835 610.681 187.92 609.316 187.92C608.416 187.92 607.636 188.475 607.036 189.195L606.241 188.415C607.141 187.44 608.086 186.795 609.481 186.795C611.446 186.795 612.676 188.085 612.676 190.05C612.676 192.24 610.951 194.475 608.371 196.92C608.941 196.875 609.616 196.815 610.171 196.815H613.216V198H606.301ZM615.686 193.875H619.061V190.5C619.061 189.96 619.106 189.075 619.136 188.505H619.076C618.806 189.045 618.506 189.585 618.191 190.125L615.686 193.875ZM619.061 198V194.97H614.261V194.07L618.836 186.99H620.351V193.875H621.806V194.97H620.351V198H619.061ZM626.616 194.64H629.976V191.67H626.616V194.64ZM636.531 194.64V195.72H631.101V199.155H629.976V195.72H623.046V194.64H625.506V190.62H629.976V188.34H626.331C625.656 189.495 624.861 190.515 624.051 191.295C623.841 191.115 623.376 190.74 623.091 190.59C624.501 189.36 625.761 187.425 626.466 185.415L627.591 185.685C627.381 186.21 627.141 186.75 626.901 187.26H635.841V188.34H631.101V190.62H635.496V191.67H631.101V194.64H636.531Z" fill="black"/>
<rect x="567" y="185" width="14" height="14" fill="#BA533D"/>
<path d="M589.66 228V227.19C593.11 224.175 594.7 221.985 594.7 220.095C594.7 218.835 594.04 217.92 592.675 217.92C591.775 217.92 590.995 218.475 590.395 219.195L589.6 218.415C590.5 217.44 591.445 216.795 592.84 216.795C594.805 216.795 596.035 218.085 596.035 220.05C596.035 222.24 594.31 224.475 591.73 226.92C592.3 226.875 592.975 226.815 593.53 226.815H596.575V228H589.66ZM601.49 228.195C599.39 228.195 598.055 226.29 598.055 222.465C598.055 218.64 599.39 216.795 601.49 216.795C603.575 216.795 604.91 218.655 604.91 222.465C604.91 226.29 603.575 228.195 601.49 228.195ZM601.49 227.1C602.735 227.1 603.575 225.705 603.575 222.465C603.575 219.255 602.735 217.89 601.49 217.89C600.23 217.89 599.39 219.255 599.39 222.465C599.39 225.705 600.23 227.1 601.49 227.1ZM609.811 228.195C607.711 228.195 606.376 226.29 606.376 222.465C606.376 218.64 607.711 216.795 609.811 216.795C611.896 216.795 613.231 218.655 613.231 222.465C613.231 226.29 611.896 228.195 609.811 228.195ZM609.811 227.1C611.056 227.1 611.896 225.705 611.896 222.465C611.896 219.255 611.056 217.89 609.811 217.89C608.551 217.89 607.711 219.255 607.711 222.465C607.711 225.705 608.551 227.1 609.811 227.1ZM615.911 220.365C615.911 221.85 616.571 222.81 617.876 222.81C618.626 222.81 619.466 222.375 620.171 221.34C620.021 219.075 619.181 217.875 617.771 217.875C616.721 217.875 615.911 218.865 615.911 220.365ZM617.471 228.195C616.286 228.195 615.446 227.715 614.831 227.07L615.596 226.215C616.046 226.74 616.721 227.055 617.426 227.055C618.851 227.055 620.081 225.885 620.186 222.48C619.511 223.305 618.566 223.83 617.651 223.83C615.821 223.83 614.621 222.645 614.621 220.365C614.621 218.235 616.061 216.795 617.771 216.795C619.886 216.795 621.461 218.535 621.461 222.03C621.461 226.485 619.541 228.195 617.471 228.195ZM626.616 224.64H629.976V221.67H626.616V224.64ZM636.531 224.64V225.72H631.101V229.155H629.976V225.72H623.046V224.64H625.506V220.62H629.976V218.34H626.331C625.656 219.495 624.861 220.515 624.051 221.295C623.841 221.115 623.376 220.74 623.091 220.59C624.501 219.36 625.761 217.425 626.466 215.415L627.591 215.685C627.381 216.21 627.141 216.75 626.901 217.26H635.841V218.34H631.101V220.62H635.496V221.67H631.101V224.64H636.531Z" fill="black"/>
<rect x="567" y="215" width="14" height="14" fill="#FFA59B"/>
</svg>
